M48
; DRILL file {KiCad (5.1.6)-1} date 10/15/20 11:13:30
; FORMAT={-:-/ absolute / inch / decimal}
; #@! TF.CreationDate,2020-10-15T11:13:30-04:00
; #@! TF.GenerationSoftware,Kicad,Pcbnew,(5.1.6)-1
; #@! TF.FileFunction,Plated,1,4,PTH
FMAT,2
INCH
T1C0.0165
T2C0.0300
T3C0.0374
T4C0.0394
T5C0.0512
T6C0.1260
%
G90
G05
T1
X3.883Y-4.608
X3.935Y-4.321
X4.092Y-4.203
X4.096Y-4.1303
X4.227Y-4.935
X4.25Y-4.384
X4.256Y-4.437
X4.301Y-4.658
X4.339Y-4.131
X4.3498Y-4.1834
X4.405Y-4.4973
X4.407Y-4.691
X4.416Y-4.242
X4.421Y-4.113
X4.467Y-3.882
X4.48Y-4.754
X4.582Y-4.439
X4.611Y-4.117
X4.711Y-4.374
X4.722Y-3.816
X4.74Y-4.112
X4.745Y-4.214
X4.82Y-4.226
X4.86Y-4.453
X4.871Y-4.23
X4.889Y-4.546
X4.901Y-4.689
X4.94Y-4.829
X4.995Y-4.53
X5.087Y-4.345
X5.205Y-4.803
X5.213Y-4.216
X5.242Y-4.879
X5.273Y-4.416
X5.307Y-4.472
X5.342Y-4.413
X5.364Y-4.483
X5.392Y-3.874
X5.394Y-4.281
X5.52Y-4.298
X5.578Y-3.918
X5.715Y-4.264
X5.72Y-4.516
X5.763Y-4.183
X5.764Y-4.236
X5.832Y-4.307
X5.835Y-3.67
X5.99Y-4.99
X6.111Y-4.105
X6.2045Y-4.2414
X6.217Y-4.804
X6.247Y-4.215
X6.283Y-4.955
T2
X6.09Y-3.612
X6.087Y-3.7331
X5.33Y-4.724
X5.869Y-4.551
X4.655Y-4.743
X5.364Y-4.198
T3
X5.4549Y-3.8407
X5.5533Y-3.8407
X5.6517Y-3.8407
X5.7502Y-3.8407
X5.8486Y-3.8407
X5.4549Y-4.9588
X5.5533Y-4.9588
X5.6517Y-4.9588
X5.7502Y-4.9588
X5.8486Y-4.9588
T4
X6.1155Y-4.6352
X6.1155Y-4.7352
X6.1155Y-4.8352
X6.1155Y-4.9352
X6.4155Y-4.6352
X6.4155Y-4.7352
X6.4155Y-4.8352
X6.4155Y-4.9352
T5
X3.9667Y-5.0808
X4.1635Y-5.0808
X4.3604Y-5.0808
X4.5572Y-5.0808
X3.9824Y-3.7265
X4.1793Y-3.7265
X4.3761Y-3.7265
X4.573Y-3.7265
X4.8213Y-3.725
X5.0181Y-3.725
X5.215Y-3.725
X3.7344Y-4.1241
X3.7344Y-4.321
X3.7344Y-4.5178
X3.7344Y-4.7147
X4.8092Y-5.0769
X5.0061Y-5.0769
X5.2029Y-5.0769
T6
X3.6911Y-5.1478
X3.6911Y-3.6517
X6.3171Y-3.6517
X6.3171Y-5.1517
T0
M30
