G04 #@! TF.GenerationSoftware,KiCad,Pcbnew,(5.1.4)-1*
G04 #@! TF.CreationDate,2020-10-11T19:18:41-04:00*
G04 #@! TF.ProjectId,i2c_pancake,6932635f-7061-46e6-9361-6b652e6b6963,rev?*
G04 #@! TF.SameCoordinates,Original*
G04 #@! TF.FileFunction,Legend,Bot*
G04 #@! TF.FilePolarity,Positive*
%FSLAX46Y46*%
G04 Gerber Fmt 4.6, Leading zero omitted, Abs format (unit mm)*
G04 Created by KiCad (PCBNEW (5.1.4)-1) date 2020-10-11 19:18:41*
%MOMM*%
%LPD*%
G04 APERTURE LIST*
%ADD10C,0.150000*%
%ADD11C,0.120000*%
%ADD12C,0.152400*%
%ADD13C,0.100000*%
G04 APERTURE END LIST*
D10*
X89662000Y-134239000D02*
X164554000Y-134239000D01*
X89662000Y-89253000D02*
X164554000Y-89253000D01*
X164554000Y-89253000D02*
X164554000Y-134239000D01*
X89662000Y-89253000D02*
X89662000Y-134239000D01*
D11*
X130460200Y-99254200D02*
X131660200Y-99254200D01*
X131660200Y-97494200D02*
X130460200Y-97494200D01*
X124729800Y-124291200D02*
X123529800Y-124291200D01*
X123529800Y-126051200D02*
X124729800Y-126051200D01*
X104880400Y-115088400D02*
X104880400Y-116288400D01*
X106640400Y-116288400D02*
X106640400Y-115088400D01*
X123994200Y-102101000D02*
X122794200Y-102101000D01*
X122794200Y-103861000D02*
X123994200Y-103861000D01*
X109312600Y-108473800D02*
X109312600Y-107273800D01*
X107552600Y-107273800D02*
X107552600Y-108473800D01*
X124680600Y-99198800D02*
X123680600Y-99198800D01*
X123680600Y-97498800D02*
X124680600Y-97498800D01*
X129675000Y-124245000D02*
X130675000Y-124245000D01*
X130675000Y-125945000D02*
X129675000Y-125945000D01*
X109460400Y-115088400D02*
X109460400Y-116088400D01*
X107760400Y-116088400D02*
X107760400Y-115088400D01*
X123994200Y-106681000D02*
X122994200Y-106681000D01*
X122994200Y-104981000D02*
X123994200Y-104981000D01*
X104712400Y-108500800D02*
X104712400Y-107500800D01*
X106412400Y-107500800D02*
X106412400Y-108500800D01*
D12*
X139115800Y-109357160D02*
X139115800Y-109080300D01*
X143281400Y-114315240D02*
X143281400Y-114592100D01*
X143281400Y-109080300D02*
X143281400Y-109357160D01*
X139115800Y-109080300D02*
X143281400Y-109080300D01*
X139115800Y-114592100D02*
X139115800Y-114315240D01*
X143281400Y-114592100D02*
X139115800Y-114592100D01*
D11*
X101103800Y-119076600D02*
X101103800Y-116526600D01*
X99403800Y-119076600D02*
X99403800Y-116526600D01*
X101103800Y-119076600D02*
X99403800Y-119076600D01*
X112723800Y-113067200D02*
X115273800Y-113067200D01*
X112723800Y-111367200D02*
X115273800Y-111367200D01*
X112723800Y-113067200D02*
X112723800Y-111367200D01*
X99505400Y-105865800D02*
X99505400Y-108415800D01*
X101205400Y-105865800D02*
X101205400Y-108415800D01*
X99505400Y-105865800D02*
X101205400Y-105865800D01*
X140805600Y-106363400D02*
X141805600Y-106363400D01*
X141805600Y-108063400D02*
X140805600Y-108063400D01*
X115404000Y-123103000D02*
X115404000Y-124103000D01*
X113704000Y-124103000D02*
X113704000Y-123103000D01*
X115504000Y-101053000D02*
X115504000Y-102053000D01*
X113804000Y-102053000D02*
X113804000Y-101053000D01*
X126435800Y-119966400D02*
X127435800Y-119966400D01*
X127435800Y-121666400D02*
X126435800Y-121666400D01*
X97574000Y-122953000D02*
X97574000Y-124153000D01*
X99334000Y-124153000D02*
X99334000Y-122953000D01*
X113293600Y-118507400D02*
X114493600Y-118507400D01*
X114493600Y-116747400D02*
X113293600Y-116747400D01*
X97574000Y-101003000D02*
X97574000Y-102203000D01*
X99334000Y-102203000D02*
X99334000Y-101003000D01*
X113598400Y-107102800D02*
X114798400Y-107102800D01*
X114798400Y-105342800D02*
X113598400Y-105342800D01*
X153036600Y-129545000D02*
X154236600Y-129545000D01*
X154236600Y-127785000D02*
X153036600Y-127785000D01*
X150504000Y-124433000D02*
X151704000Y-124433000D01*
X151704000Y-122673000D02*
X150504000Y-122673000D01*
X150554000Y-120533000D02*
X151754000Y-120533000D01*
X151754000Y-118773000D02*
X150554000Y-118773000D01*
X152397800Y-115397200D02*
X153597800Y-115397200D01*
X153597800Y-113637200D02*
X152397800Y-113637200D01*
D10*
X104479000Y-104178000D02*
X103079000Y-104178000D01*
X104479000Y-99078000D02*
X108629000Y-99078000D01*
X104479000Y-104228000D02*
X108629000Y-104228000D01*
X104479000Y-99078000D02*
X104479000Y-99223000D01*
X108629000Y-99078000D02*
X108629000Y-99223000D01*
X108629000Y-104228000D02*
X108629000Y-104083000D01*
X104479000Y-104228000D02*
X104479000Y-104178000D01*
D13*
X130335600Y-119352400D02*
X123285600Y-119352400D01*
X122835600Y-118837400D02*
X122835600Y-107807400D01*
X130335600Y-119357400D02*
X130335600Y-107807400D01*
X130335600Y-107802400D02*
X122835600Y-107802400D01*
D11*
X147560400Y-111127600D02*
X147560400Y-112127600D01*
X145860400Y-112127600D02*
X145860400Y-111127600D01*
D10*
X104379000Y-125978000D02*
X102979000Y-125978000D01*
X104379000Y-120878000D02*
X108529000Y-120878000D01*
X104379000Y-126028000D02*
X108529000Y-126028000D01*
X104379000Y-120878000D02*
X104379000Y-121023000D01*
X108529000Y-120878000D02*
X108529000Y-121023000D01*
X108529000Y-126028000D02*
X108529000Y-125883000D01*
X104379000Y-126028000D02*
X104379000Y-125978000D01*
X155554000Y-111123000D02*
X155554000Y-98423000D01*
X164054000Y-111123000D02*
X164054000Y-98423000D01*
X155554000Y-111123000D02*
X164054000Y-111123000D01*
X155554000Y-98423000D02*
X164054000Y-98423000D01*
X155554000Y-100963000D02*
X164054000Y-100963000D01*
X155554000Y-106043000D02*
X164054000Y-106043000D01*
X155554000Y-103503000D02*
X164054000Y-103503000D01*
X155554000Y-108583000D02*
X164054000Y-108583000D01*
G36*
X163999800Y-111072200D02*
G01*
X163999800Y-108633800D01*
X155617800Y-108633800D01*
X155617800Y-111072200D01*
X163999800Y-111072200D01*
G37*
X163999800Y-111072200D02*
X163999800Y-108633800D01*
X155617800Y-108633800D01*
X155617800Y-111072200D01*
X163999800Y-111072200D01*
X131226866Y-100526580D02*
X131560200Y-100050390D01*
X131798295Y-100526580D02*
X131798295Y-99526580D01*
X131417342Y-99526580D01*
X131322104Y-99574200D01*
X131274485Y-99621819D01*
X131226866Y-99717057D01*
X131226866Y-99859914D01*
X131274485Y-99955152D01*
X131322104Y-100002771D01*
X131417342Y-100050390D01*
X131798295Y-100050390D01*
X130750676Y-100526580D02*
X130560200Y-100526580D01*
X130464961Y-100478961D01*
X130417342Y-100431342D01*
X130322104Y-100288485D01*
X130274485Y-100098009D01*
X130274485Y-99717057D01*
X130322104Y-99621819D01*
X130369723Y-99574200D01*
X130464961Y-99526580D01*
X130655438Y-99526580D01*
X130750676Y-99574200D01*
X130798295Y-99621819D01*
X130845914Y-99717057D01*
X130845914Y-99955152D01*
X130798295Y-100050390D01*
X130750676Y-100098009D01*
X130655438Y-100145628D01*
X130464961Y-100145628D01*
X130369723Y-100098009D01*
X130322104Y-100050390D01*
X130274485Y-99955152D01*
X124296466Y-123923580D02*
X124629800Y-123447390D01*
X124867895Y-123923580D02*
X124867895Y-122923580D01*
X124486942Y-122923580D01*
X124391704Y-122971200D01*
X124344085Y-123018819D01*
X124296466Y-123114057D01*
X124296466Y-123256914D01*
X124344085Y-123352152D01*
X124391704Y-123399771D01*
X124486942Y-123447390D01*
X124867895Y-123447390D01*
X123725038Y-123352152D02*
X123820276Y-123304533D01*
X123867895Y-123256914D01*
X123915514Y-123161676D01*
X123915514Y-123114057D01*
X123867895Y-123018819D01*
X123820276Y-122971200D01*
X123725038Y-122923580D01*
X123534561Y-122923580D01*
X123439323Y-122971200D01*
X123391704Y-123018819D01*
X123344085Y-123114057D01*
X123344085Y-123161676D01*
X123391704Y-123256914D01*
X123439323Y-123304533D01*
X123534561Y-123352152D01*
X123725038Y-123352152D01*
X123820276Y-123399771D01*
X123867895Y-123447390D01*
X123915514Y-123542628D01*
X123915514Y-123733104D01*
X123867895Y-123828342D01*
X123820276Y-123875961D01*
X123725038Y-123923580D01*
X123534561Y-123923580D01*
X123439323Y-123875961D01*
X123391704Y-123828342D01*
X123344085Y-123733104D01*
X123344085Y-123542628D01*
X123391704Y-123447390D01*
X123439323Y-123399771D01*
X123534561Y-123352152D01*
X104512780Y-115045542D02*
X104036590Y-114712209D01*
X104512780Y-114474114D02*
X103512780Y-114474114D01*
X103512780Y-114855066D01*
X103560400Y-114950304D01*
X103608019Y-114997923D01*
X103703257Y-115045542D01*
X103846114Y-115045542D01*
X103941352Y-114997923D01*
X103988971Y-114950304D01*
X104036590Y-114855066D01*
X104036590Y-114474114D01*
X104512780Y-115997923D02*
X104512780Y-115426495D01*
X104512780Y-115712209D02*
X103512780Y-115712209D01*
X103655638Y-115616971D01*
X103750876Y-115521733D01*
X103798495Y-115426495D01*
X104512780Y-116474114D02*
X104512780Y-116664590D01*
X104465161Y-116759828D01*
X104417542Y-116807447D01*
X104274685Y-116902685D01*
X104084209Y-116950304D01*
X103703257Y-116950304D01*
X103608019Y-116902685D01*
X103560400Y-116855066D01*
X103512780Y-116759828D01*
X103512780Y-116569352D01*
X103560400Y-116474114D01*
X103608019Y-116426495D01*
X103703257Y-116378876D01*
X103941352Y-116378876D01*
X104036590Y-116426495D01*
X104084209Y-116474114D01*
X104131828Y-116569352D01*
X104131828Y-116759828D01*
X104084209Y-116855066D01*
X104036590Y-116902685D01*
X103941352Y-116950304D01*
X124037057Y-101733380D02*
X124370390Y-101257190D01*
X124608485Y-101733380D02*
X124608485Y-100733380D01*
X124227533Y-100733380D01*
X124132295Y-100781000D01*
X124084676Y-100828619D01*
X124037057Y-100923857D01*
X124037057Y-101066714D01*
X124084676Y-101161952D01*
X124132295Y-101209571D01*
X124227533Y-101257190D01*
X124608485Y-101257190D01*
X123084676Y-101733380D02*
X123656104Y-101733380D01*
X123370390Y-101733380D02*
X123370390Y-100733380D01*
X123465628Y-100876238D01*
X123560866Y-100971476D01*
X123656104Y-101019095D01*
X122227533Y-100733380D02*
X122418009Y-100733380D01*
X122513247Y-100781000D01*
X122560866Y-100828619D01*
X122656104Y-100971476D01*
X122703723Y-101161952D01*
X122703723Y-101542904D01*
X122656104Y-101638142D01*
X122608485Y-101685761D01*
X122513247Y-101733380D01*
X122322771Y-101733380D01*
X122227533Y-101685761D01*
X122179914Y-101638142D01*
X122132295Y-101542904D01*
X122132295Y-101304809D01*
X122179914Y-101209571D01*
X122227533Y-101161952D01*
X122322771Y-101114333D01*
X122513247Y-101114333D01*
X122608485Y-101161952D01*
X122656104Y-101209571D01*
X122703723Y-101304809D01*
X110584980Y-107230942D02*
X110108790Y-106897609D01*
X110584980Y-106659514D02*
X109584980Y-106659514D01*
X109584980Y-107040466D01*
X109632600Y-107135704D01*
X109680219Y-107183323D01*
X109775457Y-107230942D01*
X109918314Y-107230942D01*
X110013552Y-107183323D01*
X110061171Y-107135704D01*
X110108790Y-107040466D01*
X110108790Y-106659514D01*
X110584980Y-108183323D02*
X110584980Y-107611895D01*
X110584980Y-107897609D02*
X109584980Y-107897609D01*
X109727838Y-107802371D01*
X109823076Y-107707133D01*
X109870695Y-107611895D01*
X109584980Y-108516657D02*
X109584980Y-109135704D01*
X109965933Y-108802371D01*
X109965933Y-108945228D01*
X110013552Y-109040466D01*
X110061171Y-109088085D01*
X110156409Y-109135704D01*
X110394504Y-109135704D01*
X110489742Y-109088085D01*
X110537361Y-109040466D01*
X110584980Y-108945228D01*
X110584980Y-108659514D01*
X110537361Y-108564276D01*
X110489742Y-108516657D01*
X120435666Y-98680542D02*
X120483285Y-98728161D01*
X120626142Y-98775780D01*
X120721380Y-98775780D01*
X120864238Y-98728161D01*
X120959476Y-98632923D01*
X121007095Y-98537685D01*
X121054714Y-98347209D01*
X121054714Y-98204352D01*
X121007095Y-98013876D01*
X120959476Y-97918638D01*
X120864238Y-97823400D01*
X120721380Y-97775780D01*
X120626142Y-97775780D01*
X120483285Y-97823400D01*
X120435666Y-97871019D01*
X119530904Y-97775780D02*
X120007095Y-97775780D01*
X120054714Y-98251971D01*
X120007095Y-98204352D01*
X119911857Y-98156733D01*
X119673761Y-98156733D01*
X119578523Y-98204352D01*
X119530904Y-98251971D01*
X119483285Y-98347209D01*
X119483285Y-98585304D01*
X119530904Y-98680542D01*
X119578523Y-98728161D01*
X119673761Y-98775780D01*
X119911857Y-98775780D01*
X120007095Y-98728161D01*
X120054714Y-98680542D01*
X133643666Y-125452142D02*
X133691285Y-125499761D01*
X133834142Y-125547380D01*
X133929380Y-125547380D01*
X134072238Y-125499761D01*
X134167476Y-125404523D01*
X134215095Y-125309285D01*
X134262714Y-125118809D01*
X134262714Y-124975952D01*
X134215095Y-124785476D01*
X134167476Y-124690238D01*
X134072238Y-124595000D01*
X133929380Y-124547380D01*
X133834142Y-124547380D01*
X133691285Y-124595000D01*
X133643666Y-124642619D01*
X132786523Y-124880714D02*
X132786523Y-125547380D01*
X133024619Y-124499761D02*
X133262714Y-125214047D01*
X132643666Y-125214047D01*
X110897942Y-114952542D02*
X110945561Y-114904923D01*
X110993180Y-114762066D01*
X110993180Y-114666828D01*
X110945561Y-114523971D01*
X110850323Y-114428733D01*
X110755085Y-114381114D01*
X110564609Y-114333495D01*
X110421752Y-114333495D01*
X110231276Y-114381114D01*
X110136038Y-114428733D01*
X110040800Y-114523971D01*
X109993180Y-114666828D01*
X109993180Y-114762066D01*
X110040800Y-114904923D01*
X110088419Y-114952542D01*
X110993180Y-115904923D02*
X110993180Y-115333495D01*
X110993180Y-115619209D02*
X109993180Y-115619209D01*
X110136038Y-115523971D01*
X110231276Y-115428733D01*
X110278895Y-115333495D01*
X110993180Y-116857304D02*
X110993180Y-116285876D01*
X110993180Y-116571590D02*
X109993180Y-116571590D01*
X110136038Y-116476352D01*
X110231276Y-116381114D01*
X110278895Y-116285876D01*
X120358866Y-106188142D02*
X120406485Y-106235761D01*
X120549342Y-106283380D01*
X120644580Y-106283380D01*
X120787438Y-106235761D01*
X120882676Y-106140523D01*
X120930295Y-106045285D01*
X120977914Y-105854809D01*
X120977914Y-105711952D01*
X120930295Y-105521476D01*
X120882676Y-105426238D01*
X120787438Y-105331000D01*
X120644580Y-105283380D01*
X120549342Y-105283380D01*
X120406485Y-105331000D01*
X120358866Y-105378619D01*
X119882676Y-106283380D02*
X119692200Y-106283380D01*
X119596961Y-106235761D01*
X119549342Y-106188142D01*
X119454104Y-106045285D01*
X119406485Y-105854809D01*
X119406485Y-105473857D01*
X119454104Y-105378619D01*
X119501723Y-105331000D01*
X119596961Y-105283380D01*
X119787438Y-105283380D01*
X119882676Y-105331000D01*
X119930295Y-105378619D01*
X119977914Y-105473857D01*
X119977914Y-105711952D01*
X119930295Y-105807190D01*
X119882676Y-105854809D01*
X119787438Y-105902428D01*
X119596961Y-105902428D01*
X119501723Y-105854809D01*
X119454104Y-105807190D01*
X119406485Y-105711952D01*
X104014542Y-107402333D02*
X104062161Y-107354714D01*
X104109780Y-107211857D01*
X104109780Y-107116619D01*
X104062161Y-106973761D01*
X103966923Y-106878523D01*
X103871685Y-106830904D01*
X103681209Y-106783285D01*
X103538352Y-106783285D01*
X103347876Y-106830904D01*
X103252638Y-106878523D01*
X103157400Y-106973761D01*
X103109780Y-107116619D01*
X103109780Y-107211857D01*
X103157400Y-107354714D01*
X103205019Y-107402333D01*
X103109780Y-107735666D02*
X103109780Y-108402333D01*
X104109780Y-107973761D01*
X141909704Y-115200180D02*
X141909704Y-116009704D01*
X141862085Y-116104942D01*
X141814466Y-116152561D01*
X141719228Y-116200180D01*
X141528752Y-116200180D01*
X141433514Y-116152561D01*
X141385895Y-116104942D01*
X141338276Y-116009704D01*
X141338276Y-115200180D01*
X140433514Y-115533514D02*
X140433514Y-116200180D01*
X140671609Y-115152561D02*
X140909704Y-115866847D01*
X140290657Y-115866847D01*
X144119600Y-107757980D02*
X144119600Y-107996076D01*
X144357695Y-107900838D02*
X144119600Y-107996076D01*
X143881504Y-107900838D01*
X144262457Y-108186552D02*
X144119600Y-107996076D01*
X143976742Y-108186552D01*
X144119600Y-107757980D02*
X144119600Y-107996076D01*
X144357695Y-107900838D02*
X144119600Y-107996076D01*
X143881504Y-107900838D01*
X144262457Y-108186552D02*
X144119600Y-107996076D01*
X143976742Y-108186552D01*
X144119600Y-107757980D02*
X144119600Y-107996076D01*
X144357695Y-107900838D02*
X144119600Y-107996076D01*
X143881504Y-107900838D01*
X144262457Y-108186552D02*
X144119600Y-107996076D01*
X143976742Y-108186552D01*
X102556180Y-116838504D02*
X101556180Y-116838504D01*
X101556180Y-117076600D01*
X101603800Y-117219457D01*
X101699038Y-117314695D01*
X101794276Y-117362314D01*
X101984752Y-117409933D01*
X102127609Y-117409933D01*
X102318085Y-117362314D01*
X102413323Y-117314695D01*
X102508561Y-117219457D01*
X102556180Y-117076600D01*
X102556180Y-116838504D01*
X101889514Y-118267076D02*
X102556180Y-118267076D01*
X101508561Y-118028980D02*
X102222847Y-117790885D01*
X102222847Y-118409933D01*
X114961895Y-114519580D02*
X114961895Y-113519580D01*
X114723800Y-113519580D01*
X114580942Y-113567200D01*
X114485704Y-113662438D01*
X114438085Y-113757676D01*
X114390466Y-113948152D01*
X114390466Y-114091009D01*
X114438085Y-114281485D01*
X114485704Y-114376723D01*
X114580942Y-114471961D01*
X114723800Y-114519580D01*
X114961895Y-114519580D01*
X114057133Y-113519580D02*
X113438085Y-113519580D01*
X113771419Y-113900533D01*
X113628561Y-113900533D01*
X113533323Y-113948152D01*
X113485704Y-113995771D01*
X113438085Y-114091009D01*
X113438085Y-114329104D01*
X113485704Y-114424342D01*
X113533323Y-114471961D01*
X113628561Y-114519580D01*
X113914276Y-114519580D01*
X114009514Y-114471961D01*
X114057133Y-114424342D01*
X98957780Y-106627704D02*
X97957780Y-106627704D01*
X97957780Y-106865800D01*
X98005400Y-107008657D01*
X98100638Y-107103895D01*
X98195876Y-107151514D01*
X98386352Y-107199133D01*
X98529209Y-107199133D01*
X98719685Y-107151514D01*
X98814923Y-107103895D01*
X98910161Y-107008657D01*
X98957780Y-106865800D01*
X98957780Y-106627704D01*
X98053019Y-107580085D02*
X98005400Y-107627704D01*
X97957780Y-107722942D01*
X97957780Y-107961038D01*
X98005400Y-108056276D01*
X98053019Y-108103895D01*
X98148257Y-108151514D01*
X98243495Y-108151514D01*
X98386352Y-108103895D01*
X98957780Y-107532466D01*
X98957780Y-108151514D01*
X144774266Y-107570542D02*
X144821885Y-107618161D01*
X144964742Y-107665780D01*
X145059980Y-107665780D01*
X145202838Y-107618161D01*
X145298076Y-107522923D01*
X145345695Y-107427685D01*
X145393314Y-107237209D01*
X145393314Y-107094352D01*
X145345695Y-106903876D01*
X145298076Y-106808638D01*
X145202838Y-106713400D01*
X145059980Y-106665780D01*
X144964742Y-106665780D01*
X144821885Y-106713400D01*
X144774266Y-106761019D01*
X143821885Y-107665780D02*
X144393314Y-107665780D01*
X144107600Y-107665780D02*
X144107600Y-106665780D01*
X144202838Y-106808638D01*
X144298076Y-106903876D01*
X144393314Y-106951495D01*
X117374942Y-124350542D02*
X117422561Y-124302923D01*
X117470180Y-124160066D01*
X117470180Y-124064828D01*
X117422561Y-123921971D01*
X117327323Y-123826733D01*
X117232085Y-123779114D01*
X117041609Y-123731495D01*
X116898752Y-123731495D01*
X116708276Y-123779114D01*
X116613038Y-123826733D01*
X116517800Y-123921971D01*
X116470180Y-124064828D01*
X116470180Y-124160066D01*
X116517800Y-124302923D01*
X116565419Y-124350542D01*
X117470180Y-125302923D02*
X117470180Y-124731495D01*
X117470180Y-125017209D02*
X116470180Y-125017209D01*
X116613038Y-124921971D01*
X116708276Y-124826733D01*
X116755895Y-124731495D01*
X116470180Y-125921971D02*
X116470180Y-126017209D01*
X116517800Y-126112447D01*
X116565419Y-126160066D01*
X116660657Y-126207685D01*
X116851133Y-126255304D01*
X117089228Y-126255304D01*
X117279704Y-126207685D01*
X117374942Y-126160066D01*
X117422561Y-126112447D01*
X117470180Y-126017209D01*
X117470180Y-125921971D01*
X117422561Y-125826733D01*
X117374942Y-125779114D01*
X117279704Y-125731495D01*
X117089228Y-125683876D01*
X116851133Y-125683876D01*
X116660657Y-125731495D01*
X116565419Y-125779114D01*
X116517800Y-125826733D01*
X116470180Y-125921971D01*
X117095542Y-101763533D02*
X117143161Y-101715914D01*
X117190780Y-101573057D01*
X117190780Y-101477819D01*
X117143161Y-101334961D01*
X117047923Y-101239723D01*
X116952685Y-101192104D01*
X116762209Y-101144485D01*
X116619352Y-101144485D01*
X116428876Y-101192104D01*
X116333638Y-101239723D01*
X116238400Y-101334961D01*
X116190780Y-101477819D01*
X116190780Y-101573057D01*
X116238400Y-101715914D01*
X116286019Y-101763533D01*
X116190780Y-102620676D02*
X116190780Y-102430200D01*
X116238400Y-102334961D01*
X116286019Y-102287342D01*
X116428876Y-102192104D01*
X116619352Y-102144485D01*
X117000304Y-102144485D01*
X117095542Y-102192104D01*
X117143161Y-102239723D01*
X117190780Y-102334961D01*
X117190780Y-102525438D01*
X117143161Y-102620676D01*
X117095542Y-102668295D01*
X117000304Y-102715914D01*
X116762209Y-102715914D01*
X116666971Y-102668295D01*
X116619352Y-102620676D01*
X116571733Y-102525438D01*
X116571733Y-102334961D01*
X116619352Y-102239723D01*
X116666971Y-102192104D01*
X116762209Y-102144485D01*
X130752466Y-121673542D02*
X130800085Y-121721161D01*
X130942942Y-121768780D01*
X131038180Y-121768780D01*
X131181038Y-121721161D01*
X131276276Y-121625923D01*
X131323895Y-121530685D01*
X131371514Y-121340209D01*
X131371514Y-121197352D01*
X131323895Y-121006876D01*
X131276276Y-120911638D01*
X131181038Y-120816400D01*
X131038180Y-120768780D01*
X130942942Y-120768780D01*
X130800085Y-120816400D01*
X130752466Y-120864019D01*
X130419133Y-120768780D02*
X129800085Y-120768780D01*
X130133419Y-121149733D01*
X129990561Y-121149733D01*
X129895323Y-121197352D01*
X129847704Y-121244971D01*
X129800085Y-121340209D01*
X129800085Y-121578304D01*
X129847704Y-121673542D01*
X129895323Y-121721161D01*
X129990561Y-121768780D01*
X130276276Y-121768780D01*
X130371514Y-121721161D01*
X130419133Y-121673542D01*
X97206380Y-122910142D02*
X96730190Y-122576809D01*
X97206380Y-122338714D02*
X96206380Y-122338714D01*
X96206380Y-122719666D01*
X96254000Y-122814904D01*
X96301619Y-122862523D01*
X96396857Y-122910142D01*
X96539714Y-122910142D01*
X96634952Y-122862523D01*
X96682571Y-122814904D01*
X96730190Y-122719666D01*
X96730190Y-122338714D01*
X97206380Y-123862523D02*
X97206380Y-123291095D01*
X97206380Y-123576809D02*
X96206380Y-123576809D01*
X96349238Y-123481571D01*
X96444476Y-123386333D01*
X96492095Y-123291095D01*
X96206380Y-124195857D02*
X96206380Y-124862523D01*
X97206380Y-124433952D01*
X114536457Y-119779780D02*
X114869790Y-119303590D01*
X115107885Y-119779780D02*
X115107885Y-118779780D01*
X114726933Y-118779780D01*
X114631695Y-118827400D01*
X114584076Y-118875019D01*
X114536457Y-118970257D01*
X114536457Y-119113114D01*
X114584076Y-119208352D01*
X114631695Y-119255971D01*
X114726933Y-119303590D01*
X115107885Y-119303590D01*
X113584076Y-119779780D02*
X114155504Y-119779780D01*
X113869790Y-119779780D02*
X113869790Y-118779780D01*
X113965028Y-118922638D01*
X114060266Y-119017876D01*
X114155504Y-119065495D01*
X113012647Y-119208352D02*
X113107885Y-119160733D01*
X113155504Y-119113114D01*
X113203123Y-119017876D01*
X113203123Y-118970257D01*
X113155504Y-118875019D01*
X113107885Y-118827400D01*
X113012647Y-118779780D01*
X112822171Y-118779780D01*
X112726933Y-118827400D01*
X112679314Y-118875019D01*
X112631695Y-118970257D01*
X112631695Y-119017876D01*
X112679314Y-119113114D01*
X112726933Y-119160733D01*
X112822171Y-119208352D01*
X113012647Y-119208352D01*
X113107885Y-119255971D01*
X113155504Y-119303590D01*
X113203123Y-119398828D01*
X113203123Y-119589304D01*
X113155504Y-119684542D01*
X113107885Y-119732161D01*
X113012647Y-119779780D01*
X112822171Y-119779780D01*
X112726933Y-119732161D01*
X112679314Y-119684542D01*
X112631695Y-119589304D01*
X112631695Y-119398828D01*
X112679314Y-119303590D01*
X112726933Y-119255971D01*
X112822171Y-119208352D01*
X97206380Y-100960142D02*
X96730190Y-100626809D01*
X97206380Y-100388714D02*
X96206380Y-100388714D01*
X96206380Y-100769666D01*
X96254000Y-100864904D01*
X96301619Y-100912523D01*
X96396857Y-100960142D01*
X96539714Y-100960142D01*
X96634952Y-100912523D01*
X96682571Y-100864904D01*
X96730190Y-100769666D01*
X96730190Y-100388714D01*
X97206380Y-101912523D02*
X97206380Y-101341095D01*
X97206380Y-101626809D02*
X96206380Y-101626809D01*
X96349238Y-101531571D01*
X96444476Y-101436333D01*
X96492095Y-101341095D01*
X97206380Y-102864904D02*
X97206380Y-102293476D01*
X97206380Y-102579190D02*
X96206380Y-102579190D01*
X96349238Y-102483952D01*
X96444476Y-102388714D01*
X96492095Y-102293476D01*
X114841257Y-108375180D02*
X115174590Y-107898990D01*
X115412685Y-108375180D02*
X115412685Y-107375180D01*
X115031733Y-107375180D01*
X114936495Y-107422800D01*
X114888876Y-107470419D01*
X114841257Y-107565657D01*
X114841257Y-107708514D01*
X114888876Y-107803752D01*
X114936495Y-107851371D01*
X115031733Y-107898990D01*
X115412685Y-107898990D01*
X113888876Y-108375180D02*
X114460304Y-108375180D01*
X114174590Y-108375180D02*
X114174590Y-107375180D01*
X114269828Y-107518038D01*
X114365066Y-107613276D01*
X114460304Y-107660895D01*
X113507923Y-107470419D02*
X113460304Y-107422800D01*
X113365066Y-107375180D01*
X113126971Y-107375180D01*
X113031733Y-107422800D01*
X112984114Y-107470419D01*
X112936495Y-107565657D01*
X112936495Y-107660895D01*
X112984114Y-107803752D01*
X113555542Y-108375180D01*
X112936495Y-108375180D01*
X153803266Y-130817380D02*
X154136600Y-130341190D01*
X154374695Y-130817380D02*
X154374695Y-129817380D01*
X153993742Y-129817380D01*
X153898504Y-129865000D01*
X153850885Y-129912619D01*
X153803266Y-130007857D01*
X153803266Y-130150714D01*
X153850885Y-130245952D01*
X153898504Y-130293571D01*
X153993742Y-130341190D01*
X154374695Y-130341190D01*
X152898504Y-129817380D02*
X153374695Y-129817380D01*
X153422314Y-130293571D01*
X153374695Y-130245952D01*
X153279457Y-130198333D01*
X153041361Y-130198333D01*
X152946123Y-130245952D01*
X152898504Y-130293571D01*
X152850885Y-130388809D01*
X152850885Y-130626904D01*
X152898504Y-130722142D01*
X152946123Y-130769761D01*
X153041361Y-130817380D01*
X153279457Y-130817380D01*
X153374695Y-130769761D01*
X153422314Y-130722142D01*
X151270666Y-125705380D02*
X151604000Y-125229190D01*
X151842095Y-125705380D02*
X151842095Y-124705380D01*
X151461142Y-124705380D01*
X151365904Y-124753000D01*
X151318285Y-124800619D01*
X151270666Y-124895857D01*
X151270666Y-125038714D01*
X151318285Y-125133952D01*
X151365904Y-125181571D01*
X151461142Y-125229190D01*
X151842095Y-125229190D01*
X150413523Y-124705380D02*
X150604000Y-124705380D01*
X150699238Y-124753000D01*
X150746857Y-124800619D01*
X150842095Y-124943476D01*
X150889714Y-125133952D01*
X150889714Y-125514904D01*
X150842095Y-125610142D01*
X150794476Y-125657761D01*
X150699238Y-125705380D01*
X150508761Y-125705380D01*
X150413523Y-125657761D01*
X150365904Y-125610142D01*
X150318285Y-125514904D01*
X150318285Y-125276809D01*
X150365904Y-125181571D01*
X150413523Y-125133952D01*
X150508761Y-125086333D01*
X150699238Y-125086333D01*
X150794476Y-125133952D01*
X150842095Y-125181571D01*
X150889714Y-125276809D01*
X151320666Y-121805380D02*
X151654000Y-121329190D01*
X151892095Y-121805380D02*
X151892095Y-120805380D01*
X151511142Y-120805380D01*
X151415904Y-120853000D01*
X151368285Y-120900619D01*
X151320666Y-120995857D01*
X151320666Y-121138714D01*
X151368285Y-121233952D01*
X151415904Y-121281571D01*
X151511142Y-121329190D01*
X151892095Y-121329190D01*
X150987333Y-120805380D02*
X150320666Y-120805380D01*
X150749238Y-121805380D01*
X153640657Y-116669580D02*
X153973990Y-116193390D01*
X154212085Y-116669580D02*
X154212085Y-115669580D01*
X153831133Y-115669580D01*
X153735895Y-115717200D01*
X153688276Y-115764819D01*
X153640657Y-115860057D01*
X153640657Y-116002914D01*
X153688276Y-116098152D01*
X153735895Y-116145771D01*
X153831133Y-116193390D01*
X154212085Y-116193390D01*
X152688276Y-116669580D02*
X153259704Y-116669580D01*
X152973990Y-116669580D02*
X152973990Y-115669580D01*
X153069228Y-115812438D01*
X153164466Y-115907676D01*
X153259704Y-115955295D01*
X152069228Y-115669580D02*
X151973990Y-115669580D01*
X151878752Y-115717200D01*
X151831133Y-115764819D01*
X151783514Y-115860057D01*
X151735895Y-116050533D01*
X151735895Y-116288628D01*
X151783514Y-116479104D01*
X151831133Y-116574342D01*
X151878752Y-116621961D01*
X151973990Y-116669580D01*
X152069228Y-116669580D01*
X152164466Y-116621961D01*
X152212085Y-116574342D01*
X152259704Y-116479104D01*
X152307323Y-116288628D01*
X152307323Y-116050533D01*
X152259704Y-115860057D01*
X152212085Y-115764819D01*
X152164466Y-115717200D01*
X152069228Y-115669580D01*
X104190704Y-97267780D02*
X104190704Y-98077304D01*
X104143085Y-98172542D01*
X104095466Y-98220161D01*
X104000228Y-98267780D01*
X103809752Y-98267780D01*
X103714514Y-98220161D01*
X103666895Y-98172542D01*
X103619276Y-98077304D01*
X103619276Y-97267780D01*
X102619276Y-98267780D02*
X103190704Y-98267780D01*
X102904990Y-98267780D02*
X102904990Y-97267780D01*
X103000228Y-97410638D01*
X103095466Y-97505876D01*
X103190704Y-97553495D01*
X133437980Y-112815495D02*
X134247504Y-112815495D01*
X134342742Y-112863114D01*
X134390361Y-112910733D01*
X134437980Y-113005971D01*
X134437980Y-113196447D01*
X134390361Y-113291685D01*
X134342742Y-113339304D01*
X134247504Y-113386923D01*
X133437980Y-113386923D01*
X133437980Y-114339304D02*
X133437980Y-113863114D01*
X133914171Y-113815495D01*
X133866552Y-113863114D01*
X133818933Y-113958352D01*
X133818933Y-114196447D01*
X133866552Y-114291685D01*
X133914171Y-114339304D01*
X134009409Y-114386923D01*
X134247504Y-114386923D01*
X134342742Y-114339304D01*
X134390361Y-114291685D01*
X134437980Y-114196447D01*
X134437980Y-113958352D01*
X134390361Y-113863114D01*
X134342742Y-113815495D01*
X147067542Y-114762933D02*
X147115161Y-114715314D01*
X147162780Y-114572457D01*
X147162780Y-114477219D01*
X147115161Y-114334361D01*
X147019923Y-114239123D01*
X146924685Y-114191504D01*
X146734209Y-114143885D01*
X146591352Y-114143885D01*
X146400876Y-114191504D01*
X146305638Y-114239123D01*
X146210400Y-114334361D01*
X146162780Y-114477219D01*
X146162780Y-114572457D01*
X146210400Y-114715314D01*
X146258019Y-114762933D01*
X146258019Y-115143885D02*
X146210400Y-115191504D01*
X146162780Y-115286742D01*
X146162780Y-115524838D01*
X146210400Y-115620076D01*
X146258019Y-115667695D01*
X146353257Y-115715314D01*
X146448495Y-115715314D01*
X146591352Y-115667695D01*
X147162780Y-115096266D01*
X147162780Y-115715314D01*
X109169104Y-126833380D02*
X109169104Y-127642904D01*
X109121485Y-127738142D01*
X109073866Y-127785761D01*
X108978628Y-127833380D01*
X108788152Y-127833380D01*
X108692914Y-127785761D01*
X108645295Y-127738142D01*
X108597676Y-127642904D01*
X108597676Y-126833380D01*
X108216723Y-126833380D02*
X107597676Y-126833380D01*
X107931009Y-127214333D01*
X107788152Y-127214333D01*
X107692914Y-127261952D01*
X107645295Y-127309571D01*
X107597676Y-127404809D01*
X107597676Y-127642904D01*
X107645295Y-127738142D01*
X107692914Y-127785761D01*
X107788152Y-127833380D01*
X108073866Y-127833380D01*
X108169104Y-127785761D01*
X108216723Y-127738142D01*
X150048980Y-101393666D02*
X150763266Y-101393666D01*
X150906123Y-101346047D01*
X151001361Y-101250809D01*
X151048980Y-101107952D01*
X151048980Y-101012714D01*
X150048980Y-101774619D02*
X150048980Y-102393666D01*
X150429933Y-102060333D01*
X150429933Y-102203190D01*
X150477552Y-102298428D01*
X150525171Y-102346047D01*
X150620409Y-102393666D01*
X150858504Y-102393666D01*
X150953742Y-102346047D01*
X151001361Y-102298428D01*
X151048980Y-102203190D01*
X151048980Y-101917476D01*
X151001361Y-101822238D01*
X150953742Y-101774619D01*
M02*
