G04 #@! TF.GenerationSoftware,KiCad,Pcbnew,(5.1.4)-1*
G04 #@! TF.CreationDate,2020-10-11T19:18:40-04:00*
G04 #@! TF.ProjectId,i2c_pancake,6932635f-7061-46e6-9361-6b652e6b6963,rev?*
G04 #@! TF.SameCoordinates,Original*
G04 #@! TF.FileFunction,Copper,L1,Top*
G04 #@! TF.FilePolarity,Positive*
%FSLAX46Y46*%
G04 Gerber Fmt 4.6, Leading zero omitted, Abs format (unit mm)*
G04 Created by KiCad (PCBNEW (5.1.4)-1) date 2020-10-11 19:18:40*
%MOMM*%
%LPD*%
G04 APERTURE LIST*
%ADD10C,0.150000*%
%ADD11C,6.400000*%
%ADD12C,2.600000*%
%ADD13R,2.600000X2.600000*%
%ADD14C,1.524000*%
%ADD15C,0.100000*%
%ADD16C,1.250000*%
%ADD17C,1.425000*%
%ADD18R,1.500000X1.250000*%
%ADD19R,1.500000X1.300000*%
%ADD20R,1.600000X1.600000*%
%ADD21C,1.600000*%
%ADD22R,0.600000X3.000000*%
%ADD23O,1.700000X1.950000*%
%ADD24C,1.700000*%
%ADD25C,0.762000*%
%ADD26C,0.304800*%
%ADD27C,0.203200*%
G04 APERTURE END LIST*
D10*
X89662000Y-134239000D02*
X164554000Y-134239000D01*
X89662000Y-89253000D02*
X164554000Y-89253000D01*
X164554000Y-89253000D02*
X164554000Y-134239000D01*
X89662000Y-89253000D02*
X89662000Y-134239000D01*
D11*
X160454000Y-130853000D03*
X160454000Y-92753000D03*
X93754000Y-92753000D03*
X93754000Y-130753000D03*
D12*
X122461000Y-94615000D03*
X127461000Y-94615000D03*
D13*
X132461000Y-94615000D03*
D12*
X132154000Y-128953000D03*
X127154000Y-128953000D03*
D13*
X122154000Y-128953000D03*
D14*
X154609800Y-94821000D03*
X154686000Y-91744800D03*
D15*
G36*
X125669304Y-112105404D02*
G01*
X125693573Y-112109004D01*
X125717371Y-112114965D01*
X125740471Y-112123230D01*
X125762649Y-112133720D01*
X125783693Y-112146333D01*
X125803398Y-112160947D01*
X125821577Y-112177423D01*
X125838053Y-112195602D01*
X125852667Y-112215307D01*
X125865280Y-112236351D01*
X125875770Y-112258529D01*
X125884035Y-112281629D01*
X125889996Y-112305427D01*
X125893596Y-112329696D01*
X125894800Y-112354200D01*
X125894800Y-113604200D01*
X125893596Y-113628704D01*
X125889996Y-113652973D01*
X125884035Y-113676771D01*
X125875770Y-113699871D01*
X125865280Y-113722049D01*
X125852667Y-113743093D01*
X125838053Y-113762798D01*
X125821577Y-113780977D01*
X125803398Y-113797453D01*
X125783693Y-113812067D01*
X125762649Y-113824680D01*
X125740471Y-113835170D01*
X125717371Y-113843435D01*
X125693573Y-113849396D01*
X125669304Y-113852996D01*
X125644800Y-113854200D01*
X124894800Y-113854200D01*
X124870296Y-113852996D01*
X124846027Y-113849396D01*
X124822229Y-113843435D01*
X124799129Y-113835170D01*
X124776951Y-113824680D01*
X124755907Y-113812067D01*
X124736202Y-113797453D01*
X124718023Y-113780977D01*
X124701547Y-113762798D01*
X124686933Y-113743093D01*
X124674320Y-113722049D01*
X124663830Y-113699871D01*
X124655565Y-113676771D01*
X124649604Y-113652973D01*
X124646004Y-113628704D01*
X124644800Y-113604200D01*
X124644800Y-112354200D01*
X124646004Y-112329696D01*
X124649604Y-112305427D01*
X124655565Y-112281629D01*
X124663830Y-112258529D01*
X124674320Y-112236351D01*
X124686933Y-112215307D01*
X124701547Y-112195602D01*
X124718023Y-112177423D01*
X124736202Y-112160947D01*
X124755907Y-112146333D01*
X124776951Y-112133720D01*
X124799129Y-112123230D01*
X124822229Y-112114965D01*
X124846027Y-112109004D01*
X124870296Y-112105404D01*
X124894800Y-112104200D01*
X125644800Y-112104200D01*
X125669304Y-112105404D01*
X125669304Y-112105404D01*
G37*
D16*
X125269800Y-112979200D03*
D15*
G36*
X128469304Y-112105404D02*
G01*
X128493573Y-112109004D01*
X128517371Y-112114965D01*
X128540471Y-112123230D01*
X128562649Y-112133720D01*
X128583693Y-112146333D01*
X128603398Y-112160947D01*
X128621577Y-112177423D01*
X128638053Y-112195602D01*
X128652667Y-112215307D01*
X128665280Y-112236351D01*
X128675770Y-112258529D01*
X128684035Y-112281629D01*
X128689996Y-112305427D01*
X128693596Y-112329696D01*
X128694800Y-112354200D01*
X128694800Y-113604200D01*
X128693596Y-113628704D01*
X128689996Y-113652973D01*
X128684035Y-113676771D01*
X128675770Y-113699871D01*
X128665280Y-113722049D01*
X128652667Y-113743093D01*
X128638053Y-113762798D01*
X128621577Y-113780977D01*
X128603398Y-113797453D01*
X128583693Y-113812067D01*
X128562649Y-113824680D01*
X128540471Y-113835170D01*
X128517371Y-113843435D01*
X128493573Y-113849396D01*
X128469304Y-113852996D01*
X128444800Y-113854200D01*
X127694800Y-113854200D01*
X127670296Y-113852996D01*
X127646027Y-113849396D01*
X127622229Y-113843435D01*
X127599129Y-113835170D01*
X127576951Y-113824680D01*
X127555907Y-113812067D01*
X127536202Y-113797453D01*
X127518023Y-113780977D01*
X127501547Y-113762798D01*
X127486933Y-113743093D01*
X127474320Y-113722049D01*
X127463830Y-113699871D01*
X127455565Y-113676771D01*
X127449604Y-113652973D01*
X127446004Y-113628704D01*
X127444800Y-113604200D01*
X127444800Y-112354200D01*
X127446004Y-112329696D01*
X127449604Y-112305427D01*
X127455565Y-112281629D01*
X127463830Y-112258529D01*
X127474320Y-112236351D01*
X127486933Y-112215307D01*
X127501547Y-112195602D01*
X127518023Y-112177423D01*
X127536202Y-112160947D01*
X127555907Y-112146333D01*
X127576951Y-112133720D01*
X127599129Y-112123230D01*
X127622229Y-112114965D01*
X127646027Y-112109004D01*
X127670296Y-112105404D01*
X127694800Y-112104200D01*
X128444800Y-112104200D01*
X128469304Y-112105404D01*
X128469304Y-112105404D01*
G37*
D16*
X128069800Y-112979200D03*
D15*
G36*
X144301804Y-111064004D02*
G01*
X144326073Y-111067604D01*
X144349871Y-111073565D01*
X144372971Y-111081830D01*
X144395149Y-111092320D01*
X144416193Y-111104933D01*
X144435898Y-111119547D01*
X144454077Y-111136023D01*
X144470553Y-111154202D01*
X144485167Y-111173907D01*
X144497780Y-111194951D01*
X144508270Y-111217129D01*
X144516535Y-111240229D01*
X144522496Y-111264027D01*
X144526096Y-111288296D01*
X144527300Y-111312800D01*
X144527300Y-112562800D01*
X144526096Y-112587304D01*
X144522496Y-112611573D01*
X144516535Y-112635371D01*
X144508270Y-112658471D01*
X144497780Y-112680649D01*
X144485167Y-112701693D01*
X144470553Y-112721398D01*
X144454077Y-112739577D01*
X144435898Y-112756053D01*
X144416193Y-112770667D01*
X144395149Y-112783280D01*
X144372971Y-112793770D01*
X144349871Y-112802035D01*
X144326073Y-112807996D01*
X144301804Y-112811596D01*
X144277300Y-112812800D01*
X143352300Y-112812800D01*
X143327796Y-112811596D01*
X143303527Y-112807996D01*
X143279729Y-112802035D01*
X143256629Y-112793770D01*
X143234451Y-112783280D01*
X143213407Y-112770667D01*
X143193702Y-112756053D01*
X143175523Y-112739577D01*
X143159047Y-112721398D01*
X143144433Y-112701693D01*
X143131820Y-112680649D01*
X143121330Y-112658471D01*
X143113065Y-112635371D01*
X143107104Y-112611573D01*
X143103504Y-112587304D01*
X143102300Y-112562800D01*
X143102300Y-111312800D01*
X143103504Y-111288296D01*
X143107104Y-111264027D01*
X143113065Y-111240229D01*
X143121330Y-111217129D01*
X143131820Y-111194951D01*
X143144433Y-111173907D01*
X143159047Y-111154202D01*
X143175523Y-111136023D01*
X143193702Y-111119547D01*
X143213407Y-111104933D01*
X143234451Y-111092320D01*
X143256629Y-111081830D01*
X143279729Y-111073565D01*
X143303527Y-111067604D01*
X143327796Y-111064004D01*
X143352300Y-111062800D01*
X144277300Y-111062800D01*
X144301804Y-111064004D01*
X144301804Y-111064004D01*
G37*
D17*
X143814800Y-111937800D03*
D15*
G36*
X141326804Y-111064004D02*
G01*
X141351073Y-111067604D01*
X141374871Y-111073565D01*
X141397971Y-111081830D01*
X141420149Y-111092320D01*
X141441193Y-111104933D01*
X141460898Y-111119547D01*
X141479077Y-111136023D01*
X141495553Y-111154202D01*
X141510167Y-111173907D01*
X141522780Y-111194951D01*
X141533270Y-111217129D01*
X141541535Y-111240229D01*
X141547496Y-111264027D01*
X141551096Y-111288296D01*
X141552300Y-111312800D01*
X141552300Y-112562800D01*
X141551096Y-112587304D01*
X141547496Y-112611573D01*
X141541535Y-112635371D01*
X141533270Y-112658471D01*
X141522780Y-112680649D01*
X141510167Y-112701693D01*
X141495553Y-112721398D01*
X141479077Y-112739577D01*
X141460898Y-112756053D01*
X141441193Y-112770667D01*
X141420149Y-112783280D01*
X141397971Y-112793770D01*
X141374871Y-112802035D01*
X141351073Y-112807996D01*
X141326804Y-112811596D01*
X141302300Y-112812800D01*
X140377300Y-112812800D01*
X140352796Y-112811596D01*
X140328527Y-112807996D01*
X140304729Y-112802035D01*
X140281629Y-112793770D01*
X140259451Y-112783280D01*
X140238407Y-112770667D01*
X140218702Y-112756053D01*
X140200523Y-112739577D01*
X140184047Y-112721398D01*
X140169433Y-112701693D01*
X140156820Y-112680649D01*
X140146330Y-112658471D01*
X140138065Y-112635371D01*
X140132104Y-112611573D01*
X140128504Y-112587304D01*
X140127300Y-112562800D01*
X140127300Y-111312800D01*
X140128504Y-111288296D01*
X140132104Y-111264027D01*
X140138065Y-111240229D01*
X140146330Y-111217129D01*
X140156820Y-111194951D01*
X140169433Y-111173907D01*
X140184047Y-111154202D01*
X140200523Y-111136023D01*
X140218702Y-111119547D01*
X140238407Y-111104933D01*
X140259451Y-111092320D01*
X140281629Y-111081830D01*
X140304729Y-111073565D01*
X140328527Y-111067604D01*
X140352796Y-111064004D01*
X140377300Y-111062800D01*
X141302300Y-111062800D01*
X141326804Y-111064004D01*
X141326804Y-111064004D01*
G37*
D17*
X140839800Y-111937800D03*
D18*
X105873800Y-104255600D03*
X108373800Y-104255600D03*
D19*
X127943600Y-108585000D03*
X125243600Y-108585000D03*
X125138200Y-104622600D03*
X127838200Y-104622600D03*
X113200200Y-115925600D03*
X115900200Y-115925600D03*
X113200200Y-106324400D03*
X115900200Y-106324400D03*
X125409600Y-117311200D03*
X128109600Y-117311200D03*
X135221600Y-115330000D03*
X132521600Y-115330000D03*
D20*
X162954000Y-125353000D03*
D21*
X162954000Y-122813000D03*
X162954000Y-120273000D03*
X162954000Y-117733000D03*
X155334000Y-117733000D03*
X155334000Y-120273000D03*
X155334000Y-122813000D03*
X155334000Y-125353000D03*
D22*
X105300400Y-108350200D03*
X106570400Y-108350200D03*
X107840400Y-108350200D03*
X109110400Y-108350200D03*
X109110400Y-115350200D03*
X107840400Y-115350200D03*
X106570400Y-115350200D03*
X105300400Y-115350200D03*
D15*
G36*
X135784804Y-109427004D02*
G01*
X135809073Y-109430604D01*
X135832871Y-109436565D01*
X135855971Y-109444830D01*
X135878149Y-109455320D01*
X135899193Y-109467933D01*
X135918898Y-109482547D01*
X135937077Y-109499023D01*
X135953553Y-109517202D01*
X135968167Y-109536907D01*
X135980780Y-109557951D01*
X135991270Y-109580129D01*
X135999535Y-109603229D01*
X136005496Y-109627027D01*
X136009096Y-109651296D01*
X136010300Y-109675800D01*
X136010300Y-110925800D01*
X136009096Y-110950304D01*
X136005496Y-110974573D01*
X135999535Y-110998371D01*
X135991270Y-111021471D01*
X135980780Y-111043649D01*
X135968167Y-111064693D01*
X135953553Y-111084398D01*
X135937077Y-111102577D01*
X135918898Y-111119053D01*
X135899193Y-111133667D01*
X135878149Y-111146280D01*
X135855971Y-111156770D01*
X135832871Y-111165035D01*
X135809073Y-111170996D01*
X135784804Y-111174596D01*
X135760300Y-111175800D01*
X134835300Y-111175800D01*
X134810796Y-111174596D01*
X134786527Y-111170996D01*
X134762729Y-111165035D01*
X134739629Y-111156770D01*
X134717451Y-111146280D01*
X134696407Y-111133667D01*
X134676702Y-111119053D01*
X134658523Y-111102577D01*
X134642047Y-111084398D01*
X134627433Y-111064693D01*
X134614820Y-111043649D01*
X134604330Y-111021471D01*
X134596065Y-110998371D01*
X134590104Y-110974573D01*
X134586504Y-110950304D01*
X134585300Y-110925800D01*
X134585300Y-109675800D01*
X134586504Y-109651296D01*
X134590104Y-109627027D01*
X134596065Y-109603229D01*
X134604330Y-109580129D01*
X134614820Y-109557951D01*
X134627433Y-109536907D01*
X134642047Y-109517202D01*
X134658523Y-109499023D01*
X134676702Y-109482547D01*
X134696407Y-109467933D01*
X134717451Y-109455320D01*
X134739629Y-109444830D01*
X134762729Y-109436565D01*
X134786527Y-109430604D01*
X134810796Y-109427004D01*
X134835300Y-109425800D01*
X135760300Y-109425800D01*
X135784804Y-109427004D01*
X135784804Y-109427004D01*
G37*
D17*
X135297800Y-110300800D03*
D15*
G36*
X132809804Y-109427004D02*
G01*
X132834073Y-109430604D01*
X132857871Y-109436565D01*
X132880971Y-109444830D01*
X132903149Y-109455320D01*
X132924193Y-109467933D01*
X132943898Y-109482547D01*
X132962077Y-109499023D01*
X132978553Y-109517202D01*
X132993167Y-109536907D01*
X133005780Y-109557951D01*
X133016270Y-109580129D01*
X133024535Y-109603229D01*
X133030496Y-109627027D01*
X133034096Y-109651296D01*
X133035300Y-109675800D01*
X133035300Y-110925800D01*
X133034096Y-110950304D01*
X133030496Y-110974573D01*
X133024535Y-110998371D01*
X133016270Y-111021471D01*
X133005780Y-111043649D01*
X132993167Y-111064693D01*
X132978553Y-111084398D01*
X132962077Y-111102577D01*
X132943898Y-111119053D01*
X132924193Y-111133667D01*
X132903149Y-111146280D01*
X132880971Y-111156770D01*
X132857871Y-111165035D01*
X132834073Y-111170996D01*
X132809804Y-111174596D01*
X132785300Y-111175800D01*
X131860300Y-111175800D01*
X131835796Y-111174596D01*
X131811527Y-111170996D01*
X131787729Y-111165035D01*
X131764629Y-111156770D01*
X131742451Y-111146280D01*
X131721407Y-111133667D01*
X131701702Y-111119053D01*
X131683523Y-111102577D01*
X131667047Y-111084398D01*
X131652433Y-111064693D01*
X131639820Y-111043649D01*
X131629330Y-111021471D01*
X131621065Y-110998371D01*
X131615104Y-110974573D01*
X131611504Y-110950304D01*
X131610300Y-110925800D01*
X131610300Y-109675800D01*
X131611504Y-109651296D01*
X131615104Y-109627027D01*
X131621065Y-109603229D01*
X131629330Y-109580129D01*
X131639820Y-109557951D01*
X131652433Y-109536907D01*
X131667047Y-109517202D01*
X131683523Y-109499023D01*
X131701702Y-109482547D01*
X131721407Y-109467933D01*
X131742451Y-109455320D01*
X131764629Y-109444830D01*
X131787729Y-109436565D01*
X131811527Y-109430604D01*
X131835796Y-109427004D01*
X131860300Y-109425800D01*
X132785300Y-109425800D01*
X132809804Y-109427004D01*
X132809804Y-109427004D01*
G37*
D17*
X132322800Y-110300800D03*
D12*
X115754000Y-129053000D03*
X110754000Y-129053000D03*
X105754000Y-129053000D03*
D13*
X100754000Y-129053000D03*
D23*
X138554000Y-97553000D03*
X141054000Y-97553000D03*
X143554000Y-97553000D03*
X146054000Y-97553000D03*
D15*
G36*
X149178504Y-96579204D02*
G01*
X149202773Y-96582804D01*
X149226571Y-96588765D01*
X149249671Y-96597030D01*
X149271849Y-96607520D01*
X149292893Y-96620133D01*
X149312598Y-96634747D01*
X149330777Y-96651223D01*
X149347253Y-96669402D01*
X149361867Y-96689107D01*
X149374480Y-96710151D01*
X149384970Y-96732329D01*
X149393235Y-96755429D01*
X149399196Y-96779227D01*
X149402796Y-96803496D01*
X149404000Y-96828000D01*
X149404000Y-98278000D01*
X149402796Y-98302504D01*
X149399196Y-98326773D01*
X149393235Y-98350571D01*
X149384970Y-98373671D01*
X149374480Y-98395849D01*
X149361867Y-98416893D01*
X149347253Y-98436598D01*
X149330777Y-98454777D01*
X149312598Y-98471253D01*
X149292893Y-98485867D01*
X149271849Y-98498480D01*
X149249671Y-98508970D01*
X149226571Y-98517235D01*
X149202773Y-98523196D01*
X149178504Y-98526796D01*
X149154000Y-98528000D01*
X147954000Y-98528000D01*
X147929496Y-98526796D01*
X147905227Y-98523196D01*
X147881429Y-98517235D01*
X147858329Y-98508970D01*
X147836151Y-98498480D01*
X147815107Y-98485867D01*
X147795402Y-98471253D01*
X147777223Y-98454777D01*
X147760747Y-98436598D01*
X147746133Y-98416893D01*
X147733520Y-98395849D01*
X147723030Y-98373671D01*
X147714765Y-98350571D01*
X147708804Y-98326773D01*
X147705204Y-98302504D01*
X147704000Y-98278000D01*
X147704000Y-96828000D01*
X147705204Y-96803496D01*
X147708804Y-96779227D01*
X147714765Y-96755429D01*
X147723030Y-96732329D01*
X147733520Y-96710151D01*
X147746133Y-96689107D01*
X147760747Y-96669402D01*
X147777223Y-96651223D01*
X147795402Y-96634747D01*
X147815107Y-96620133D01*
X147836151Y-96607520D01*
X147858329Y-96597030D01*
X147881429Y-96588765D01*
X147905227Y-96582804D01*
X147929496Y-96579204D01*
X147954000Y-96578000D01*
X149154000Y-96578000D01*
X149178504Y-96579204D01*
X149178504Y-96579204D01*
G37*
D24*
X148554000Y-97553000D03*
D12*
X94854000Y-119753000D03*
X94854000Y-114753000D03*
X94854000Y-109753000D03*
D13*
X94854000Y-104753000D03*
D12*
X101154000Y-94653000D03*
X106154000Y-94653000D03*
X111154000Y-94653000D03*
D13*
X116154000Y-94653000D03*
D23*
X148554000Y-125953000D03*
X146054000Y-125953000D03*
X143554000Y-125953000D03*
X141054000Y-125953000D03*
D15*
G36*
X139178504Y-124979204D02*
G01*
X139202773Y-124982804D01*
X139226571Y-124988765D01*
X139249671Y-124997030D01*
X139271849Y-125007520D01*
X139292893Y-125020133D01*
X139312598Y-125034747D01*
X139330777Y-125051223D01*
X139347253Y-125069402D01*
X139361867Y-125089107D01*
X139374480Y-125110151D01*
X139384970Y-125132329D01*
X139393235Y-125155429D01*
X139399196Y-125179227D01*
X139402796Y-125203496D01*
X139404000Y-125228000D01*
X139404000Y-126678000D01*
X139402796Y-126702504D01*
X139399196Y-126726773D01*
X139393235Y-126750571D01*
X139384970Y-126773671D01*
X139374480Y-126795849D01*
X139361867Y-126816893D01*
X139347253Y-126836598D01*
X139330777Y-126854777D01*
X139312598Y-126871253D01*
X139292893Y-126885867D01*
X139271849Y-126898480D01*
X139249671Y-126908970D01*
X139226571Y-126917235D01*
X139202773Y-126923196D01*
X139178504Y-126926796D01*
X139154000Y-126928000D01*
X137954000Y-126928000D01*
X137929496Y-126926796D01*
X137905227Y-126923196D01*
X137881429Y-126917235D01*
X137858329Y-126908970D01*
X137836151Y-126898480D01*
X137815107Y-126885867D01*
X137795402Y-126871253D01*
X137777223Y-126854777D01*
X137760747Y-126836598D01*
X137746133Y-126816893D01*
X137733520Y-126795849D01*
X137723030Y-126773671D01*
X137714765Y-126750571D01*
X137708804Y-126726773D01*
X137705204Y-126702504D01*
X137704000Y-126678000D01*
X137704000Y-125228000D01*
X137705204Y-125203496D01*
X137708804Y-125179227D01*
X137714765Y-125155429D01*
X137723030Y-125132329D01*
X137733520Y-125110151D01*
X137746133Y-125089107D01*
X137760747Y-125069402D01*
X137777223Y-125051223D01*
X137795402Y-125034747D01*
X137815107Y-125020133D01*
X137836151Y-125007520D01*
X137858329Y-124997030D01*
X137881429Y-124988765D01*
X137905227Y-124982804D01*
X137929496Y-124979204D01*
X137954000Y-124978000D01*
X139154000Y-124978000D01*
X139178504Y-124979204D01*
X139178504Y-124979204D01*
G37*
D24*
X138554000Y-125953000D03*
D14*
X136245600Y-106629200D03*
X135382000Y-119989600D03*
X118237000Y-120472200D03*
D25*
X124485400Y-119100600D03*
X133146800Y-123926600D03*
X113792000Y-120751600D03*
X98628200Y-117043200D03*
X119938800Y-96926400D03*
X155219400Y-104266999D03*
X134797800Y-113588800D03*
X99949000Y-109753400D03*
X103936800Y-106756200D03*
X123444000Y-113106200D03*
X109245400Y-118313200D03*
X111937800Y-119151400D03*
X113461800Y-98602800D03*
X117119400Y-104571800D03*
X112166400Y-107746800D03*
X120523000Y-107035600D03*
X120396000Y-104444800D03*
X116382800Y-112750600D03*
X109982000Y-105054400D03*
X145288000Y-114706400D03*
X107365800Y-125349000D03*
X123723400Y-107442000D03*
X148132800Y-109397800D03*
X104292400Y-104908599D03*
X112293400Y-104470200D03*
X125476000Y-122656600D03*
X119659400Y-111099600D03*
X132207155Y-121996189D03*
X122428000Y-107340400D03*
X136956800Y-98399601D03*
X110483867Y-106258994D03*
X140208000Y-109169200D03*
X155549600Y-102311200D03*
X145135600Y-120624600D03*
X137007600Y-108737400D03*
X157595206Y-107731477D03*
X145161000Y-108305600D03*
X132410200Y-107086400D03*
X158673800Y-107061000D03*
X159588200Y-125857000D03*
X148209000Y-93218000D03*
X146405600Y-107594400D03*
X135686800Y-112090200D03*
X146380200Y-106248199D03*
X133934200Y-112166400D03*
X124180600Y-115468400D03*
X141681200Y-99517200D03*
X129209800Y-110363000D03*
X136245600Y-113868200D03*
X111887000Y-114231199D03*
X108102400Y-112699800D03*
X152146000Y-126746000D03*
X157911800Y-122021600D03*
X126873476Y-115061524D03*
X107950000Y-111353600D03*
D26*
X135221600Y-115330000D02*
X135221600Y-114012600D01*
X135221600Y-114012600D02*
X134797800Y-113588800D01*
X109110400Y-106545400D02*
X109110400Y-108350200D01*
X109110400Y-105922000D02*
X109110400Y-106545400D01*
X108373800Y-105185400D02*
X109110400Y-105922000D01*
X108373800Y-104255600D02*
X108373800Y-105185400D01*
X115900200Y-106324400D02*
X115900200Y-105791000D01*
X115900200Y-105791000D02*
X117119400Y-104571800D01*
X125138200Y-104622600D02*
X120573800Y-104622600D01*
X120573800Y-104622600D02*
X120396000Y-104444800D01*
X108373800Y-104255600D02*
X109183200Y-104255600D01*
X109183200Y-104255600D02*
X109982000Y-105054400D01*
X125243600Y-108585000D02*
X124866400Y-108585000D01*
X124866400Y-108585000D02*
X123723400Y-107442000D01*
X105873800Y-104255600D02*
X104945399Y-104255600D01*
X104945399Y-104255600D02*
X104292400Y-104908599D01*
X105300400Y-106545400D02*
X105300400Y-108350200D01*
X105300400Y-105758800D02*
X105300400Y-106545400D01*
X105873800Y-105185400D02*
X105300400Y-105758800D01*
X105873800Y-104255600D02*
X105873800Y-105185400D01*
D27*
X125476000Y-122656600D02*
X119659400Y-116840000D01*
X119659400Y-116840000D02*
X119659400Y-111099600D01*
X122428000Y-116369682D02*
X124375119Y-118316801D01*
X122428000Y-107340400D02*
X122428000Y-116369682D01*
X124375119Y-118316801D02*
X128496767Y-118316801D01*
X128496767Y-118316801D02*
X132176155Y-121996189D01*
X132176155Y-121996189D02*
X132207155Y-121996189D01*
X111424062Y-105318799D02*
X110483867Y-106258994D01*
X114234681Y-105318799D02*
X111424062Y-105318799D01*
X136956800Y-98399601D02*
X121153879Y-98399601D01*
X121153879Y-98399601D02*
X114234681Y-105318799D01*
D26*
X140839800Y-111937800D02*
X140839800Y-109801000D01*
X140839800Y-109801000D02*
X140208000Y-109169200D01*
X125269800Y-112979200D02*
X125269800Y-114571400D01*
X146054000Y-126078000D02*
X146177000Y-126201000D01*
X146054000Y-125953000D02*
X146054000Y-126078000D01*
X146177000Y-131114800D02*
X147091380Y-132029180D01*
X146177000Y-126201000D02*
X146177000Y-131114800D01*
X154787620Y-132029180D02*
X155168590Y-131648210D01*
X147091380Y-132029180D02*
X154787620Y-132029180D01*
X155168590Y-128416754D02*
X159791380Y-123793964D01*
X155168590Y-131648210D02*
X155168590Y-128416754D01*
X159791380Y-100710980D02*
X157607000Y-98526600D01*
X141054000Y-97678000D02*
X141054000Y-97553000D01*
X143275620Y-99899620D02*
X141054000Y-97678000D01*
X151774424Y-99899620D02*
X143275620Y-99899620D01*
X153147444Y-98526600D02*
X151774424Y-99899620D01*
X157607000Y-98526600D02*
X153147444Y-98526600D01*
X159791380Y-106552980D02*
X155549600Y-102311200D01*
X159791380Y-107772220D02*
X159791380Y-106552980D01*
X159791380Y-107772220D02*
X159791380Y-100710980D01*
X159791380Y-123793964D02*
X159791380Y-107772220D01*
X145135600Y-120624600D02*
X146054000Y-121543000D01*
X128109600Y-117311200D02*
X128209600Y-117311200D01*
X132056401Y-121158001D02*
X137439399Y-121158001D01*
X137439399Y-121158001D02*
X138861798Y-122580400D01*
X144864200Y-122580400D02*
X146054000Y-123770200D01*
X138861798Y-122580400D02*
X144864200Y-122580400D01*
X146054000Y-121543000D02*
X146054000Y-123770200D01*
X146054000Y-123770200D02*
X146054000Y-125953000D01*
X126570700Y-115872300D02*
X129080300Y-115872300D01*
X125269800Y-114571400D02*
X126570700Y-115872300D01*
X129528200Y-116320200D02*
X129528200Y-118629800D01*
X129080300Y-115872300D02*
X129528200Y-116320200D01*
X128209600Y-117311200D02*
X129528200Y-118629800D01*
X129528200Y-118629800D02*
X132056401Y-121158001D01*
D27*
X135444200Y-110300800D02*
X135297800Y-110300800D01*
X137007600Y-108737400D02*
X135444200Y-110300800D01*
X132521600Y-110499600D02*
X132322800Y-110300800D01*
X132521600Y-115330000D02*
X132521600Y-110499600D01*
D26*
X148554000Y-127232800D02*
X148564600Y-127243400D01*
X159232570Y-123545630D02*
X159232570Y-119888000D01*
X156133800Y-126492000D02*
X156286200Y-126492000D01*
X154609780Y-128016020D02*
X156133800Y-126492000D01*
X156286200Y-126492000D02*
X159232570Y-123545630D01*
X154508200Y-129616200D02*
X154609780Y-129514620D01*
X154508200Y-131292600D02*
X154508200Y-129616200D01*
X154609780Y-129514620D02*
X154609780Y-128016020D01*
X149682170Y-131470370D02*
X154330430Y-131470370D01*
X154330430Y-131470370D02*
X154508200Y-131292600D01*
X148539200Y-129362200D02*
X148539200Y-130327400D01*
X148539200Y-130327400D02*
X149682170Y-131470370D01*
X148564600Y-127243400D02*
X148564600Y-129336800D01*
X148564600Y-129336800D02*
X148539200Y-129362200D01*
X148554000Y-125953000D02*
X148554000Y-127232800D01*
X159232570Y-110642430D02*
X159232570Y-109368841D01*
X159232570Y-109368841D02*
X157595206Y-107731477D01*
X159232570Y-119888000D02*
X159232570Y-110642430D01*
X143814800Y-111937800D02*
X143814800Y-109651800D01*
X143814800Y-109651800D02*
X145161000Y-108305600D01*
D27*
X156870399Y-105257599D02*
X158673800Y-107061000D01*
X132410200Y-107086400D02*
X134239001Y-105257599D01*
X134239001Y-105257599D02*
X156870399Y-105257599D01*
X141054000Y-127131200D02*
X141054000Y-125953000D01*
X146713990Y-132791190D02*
X141054000Y-127131200D01*
X155103254Y-132791190D02*
X146713990Y-132791190D01*
X155930600Y-131963844D02*
X155103254Y-132791190D01*
X155930600Y-128732388D02*
X155930600Y-131963844D01*
X158805988Y-125857000D02*
X155930600Y-128732388D01*
X159588200Y-125857000D02*
X158805988Y-125857000D01*
X155371799Y-95582999D02*
X154609800Y-94821000D01*
X152140990Y-133527800D02*
X152166390Y-133502400D01*
X152166390Y-133502400D02*
X155524200Y-133502400D01*
X152132718Y-133527800D02*
X152140990Y-133527800D01*
X152107318Y-133502400D02*
X152132718Y-133527800D01*
X145028400Y-133502400D02*
X152107318Y-133502400D01*
X138554000Y-127028000D02*
X145028400Y-133502400D01*
X138554000Y-125953000D02*
X138554000Y-127028000D01*
X155524200Y-133502400D02*
X156644399Y-132382201D01*
X156644399Y-129024391D02*
X158821190Y-126847600D01*
X156644399Y-132382201D02*
X156644399Y-129024391D01*
X158821190Y-126847600D02*
X160299400Y-126847600D01*
X161264600Y-98755200D02*
X159072001Y-96562601D01*
X159072001Y-96562601D02*
X156351401Y-96562601D01*
X160299400Y-126847600D02*
X161264600Y-125882400D01*
X161264600Y-125882400D02*
X161264600Y-98755200D01*
X156351401Y-96562601D02*
X155371799Y-95582999D01*
X151286000Y-94821000D02*
X148554000Y-97553000D01*
X154609800Y-94821000D02*
X151286000Y-94821000D01*
X148209000Y-93218000D02*
X149683000Y-93218000D01*
X149683000Y-93218000D02*
X151286000Y-94821000D01*
X146024601Y-107213401D02*
X139953999Y-107213401D01*
X146405600Y-107594400D02*
X146024601Y-107213401D01*
X139621769Y-107213401D02*
X137109200Y-109725970D01*
X139953999Y-107213401D02*
X139621769Y-107213401D01*
X137109200Y-109725970D02*
X137109200Y-110591600D01*
X137109200Y-110591600D02*
X135686800Y-112014000D01*
X135686800Y-112014000D02*
X135686800Y-112090200D01*
X133934200Y-109720436D02*
X133934200Y-112166400D01*
X134584446Y-109070190D02*
X133934200Y-109720436D01*
X135584640Y-109070190D02*
X134584446Y-109070190D01*
X146380200Y-106248199D02*
X138406631Y-106248199D01*
X138406631Y-106248199D02*
X135584640Y-109070190D01*
X125409600Y-116697400D02*
X125409600Y-117311200D01*
X124180600Y-115468400D02*
X125409600Y-116697400D01*
X141300201Y-99136201D02*
X128168399Y-99136201D01*
X141681200Y-99517200D02*
X141300201Y-99136201D01*
X126732599Y-100572001D02*
X126732599Y-109563601D01*
X128168399Y-99136201D02*
X126732599Y-100572001D01*
X124180600Y-112115600D02*
X124180600Y-115468400D01*
X126732599Y-109563601D02*
X124180600Y-112115600D01*
X127838200Y-108479600D02*
X127943600Y-108585000D01*
X129209800Y-108127800D02*
X127838200Y-106756200D01*
X129209800Y-110363000D02*
X129209800Y-108127800D01*
X127838200Y-104622600D02*
X127838200Y-106756200D01*
X127838200Y-106756200D02*
X127838200Y-108479600D01*
X136245600Y-113868200D02*
X149352000Y-113868200D01*
X153216800Y-117733000D02*
X155334000Y-117733000D01*
X149352000Y-113868200D02*
X153216800Y-117733000D01*
X109110400Y-116550200D02*
X109110400Y-115350200D01*
X107779200Y-117881400D02*
X109110400Y-116550200D01*
X97982400Y-117881400D02*
X107779200Y-117881400D01*
X94854000Y-114753000D02*
X97982400Y-117881400D01*
X105300400Y-116550200D02*
X105300400Y-115350200D01*
X104756600Y-117094000D02*
X105300400Y-116550200D01*
X100330000Y-117094000D02*
X104756600Y-117094000D01*
X94854000Y-111618000D02*
X100330000Y-117094000D01*
X94854000Y-109753000D02*
X94854000Y-111618000D01*
X111887000Y-114712400D02*
X111887000Y-114231199D01*
X113200200Y-115925600D02*
X113100200Y-115925600D01*
X113100200Y-115925600D02*
X111887000Y-114712400D01*
X106570400Y-114231800D02*
X106570400Y-115350200D01*
X108102400Y-112699800D02*
X106570400Y-114231800D01*
X155964799Y-123968601D02*
X157911800Y-122021600D01*
X152146000Y-126746000D02*
X154923399Y-123968601D01*
X154923399Y-123968601D02*
X155964799Y-123968601D01*
X128069800Y-112979200D02*
X126873476Y-114175524D01*
X126873476Y-114175524D02*
X126873476Y-115061524D01*
X106570400Y-109974000D02*
X106570400Y-108350200D01*
X107950000Y-111353600D02*
X106570400Y-109974000D01*
X107840400Y-114150200D02*
X107840400Y-115350200D01*
X108496001Y-113494599D02*
X107840400Y-114150200D01*
X113369199Y-113494599D02*
X108496001Y-113494599D01*
X115800200Y-115925600D02*
X113369199Y-113494599D01*
X115900200Y-115925600D02*
X115800200Y-115925600D01*
X107840400Y-109550200D02*
X108602400Y-110312200D01*
X107840400Y-108350200D02*
X107840400Y-109550200D01*
X109588482Y-110312200D02*
X110540800Y-109359882D01*
X108602400Y-110312200D02*
X109588482Y-110312200D01*
X110540800Y-109359882D02*
X110540800Y-107442000D01*
X111658400Y-106324400D02*
X113200200Y-106324400D01*
X110540800Y-107442000D02*
X111658400Y-106324400D01*
M02*
