G04 #@! TF.GenerationSoftware,KiCad,Pcbnew,(5.1.4)-1*
G04 #@! TF.CreationDate,2020-10-15T08:41:29-04:00*
G04 #@! TF.ProjectId,i2c_pancake,6932635f-7061-46e6-9361-6b652e6b6963,rev?*
G04 #@! TF.SameCoordinates,Original*
G04 #@! TF.FileFunction,Copper,L4,Bot*
G04 #@! TF.FilePolarity,Positive*
%FSLAX46Y46*%
G04 Gerber Fmt 4.6, Leading zero omitted, Abs format (unit mm)*
G04 Created by KiCad (PCBNEW (5.1.4)-1) date 2020-10-15 08:41:29*
%MOMM*%
%LPD*%
G04 APERTURE LIST*
%ADD10C,0.150000*%
%ADD11C,1.524000*%
%ADD12C,6.400000*%
%ADD13R,1.500000X1.300000*%
%ADD14R,1.300000X1.500000*%
%ADD15C,2.600000*%
%ADD16R,2.600000X2.600000*%
%ADD17R,1.500000X1.250000*%
%ADD18R,1.250000X1.500000*%
%ADD19R,2.413000X3.200400*%
%ADD20R,1.371600X0.482600*%
%ADD21R,0.500000X0.500000*%
%ADD22R,1.600000X1.600000*%
%ADD23C,1.600000*%
%ADD24R,3.000000X0.600000*%
%ADD25R,2.000000X0.600000*%
%ADD26R,2.000000X1.000000*%
%ADD27O,1.700000X1.950000*%
%ADD28C,0.100000*%
%ADD29C,1.700000*%
%ADD30C,0.762000*%
%ADD31C,0.304800*%
%ADD32C,0.203200*%
G04 APERTURE END LIST*
D10*
X89662000Y-134239000D02*
X164554000Y-134239000D01*
X89662000Y-89253000D02*
X164554000Y-89253000D01*
X164554000Y-89253000D02*
X164554000Y-134239000D01*
X89662000Y-89253000D02*
X89662000Y-134239000D01*
D11*
X149072600Y-115595400D03*
D12*
X160454000Y-130853000D03*
X160454000Y-92753000D03*
X93754000Y-92753000D03*
X93754000Y-130753000D03*
D13*
X132410200Y-98374200D03*
X129710200Y-98374200D03*
X122779800Y-125171200D03*
X125479800Y-125171200D03*
D14*
X105760400Y-117038400D03*
X105760400Y-114338400D03*
D13*
X122044200Y-102981000D03*
X124744200Y-102981000D03*
D14*
X108432600Y-106523800D03*
X108432600Y-109223800D03*
D15*
X122461000Y-94615000D03*
X127461000Y-94615000D03*
D16*
X132461000Y-94615000D03*
D17*
X122930600Y-98348800D03*
X125430600Y-98348800D03*
X131425000Y-125095000D03*
X128925000Y-125095000D03*
D18*
X108610400Y-116838400D03*
X108610400Y-114338400D03*
D17*
X122244200Y-105831000D03*
X124744200Y-105831000D03*
D18*
X105562400Y-106750800D03*
X105562400Y-109250800D03*
D15*
X132154000Y-128953000D03*
X127154000Y-128953000D03*
D16*
X122154000Y-128953000D03*
D11*
X154609800Y-94821000D03*
X154686000Y-91744800D03*
D19*
X141198600Y-111836200D03*
D20*
X138531600Y-109931200D03*
X138531600Y-111201200D03*
X138531600Y-112471200D03*
X138531600Y-113741200D03*
X143865600Y-113741200D03*
X143865600Y-112471200D03*
X143865600Y-111201200D03*
X143865600Y-109931200D03*
D21*
X100253800Y-116476600D03*
X100253800Y-118676600D03*
X115323800Y-112217200D03*
X113123800Y-112217200D03*
X100355400Y-108465800D03*
X100355400Y-106265800D03*
D17*
X142555600Y-107213400D03*
X140055600Y-107213400D03*
D18*
X114554000Y-124853000D03*
X114554000Y-122353000D03*
X114654000Y-102803000D03*
X114654000Y-100303000D03*
D17*
X128185800Y-120816400D03*
X125685800Y-120816400D03*
D14*
X98454000Y-124903000D03*
X98454000Y-122203000D03*
D13*
X115243600Y-117627400D03*
X112543600Y-117627400D03*
D14*
X98454000Y-102953000D03*
X98454000Y-100253000D03*
D13*
X115548400Y-106222800D03*
X112848400Y-106222800D03*
X154986600Y-128665000D03*
X152286600Y-128665000D03*
X152454000Y-123553000D03*
X149754000Y-123553000D03*
X152504000Y-119653000D03*
X149804000Y-119653000D03*
X154347800Y-114517200D03*
X151647800Y-114517200D03*
D22*
X162954000Y-125353000D03*
D23*
X162954000Y-122813000D03*
X162954000Y-120273000D03*
X162954000Y-117733000D03*
X155334000Y-117733000D03*
X155334000Y-120273000D03*
X155334000Y-122813000D03*
X155334000Y-125353000D03*
D24*
X110054000Y-103558000D03*
X110054000Y-102288000D03*
X110054000Y-101018000D03*
X110054000Y-99748000D03*
X103054000Y-99748000D03*
X103054000Y-101018000D03*
X103054000Y-102288000D03*
X103054000Y-103558000D03*
D25*
X121885600Y-118657400D03*
X121885600Y-117387400D03*
X121885600Y-116117400D03*
X121885600Y-114847400D03*
X121885600Y-113577400D03*
X121885600Y-112307400D03*
X121885600Y-111037400D03*
X121885600Y-109767400D03*
X121885600Y-108497400D03*
X131285600Y-108497400D03*
X131285600Y-109767400D03*
X131285600Y-111037400D03*
X131285600Y-112307400D03*
X131285600Y-113577400D03*
X131285600Y-114847400D03*
X131285600Y-116117400D03*
X131285600Y-117387400D03*
X131285600Y-118657400D03*
D15*
X115754000Y-129053000D03*
X110754000Y-129053000D03*
X105754000Y-129053000D03*
D16*
X100754000Y-129053000D03*
D18*
X146710400Y-112877600D03*
X146710400Y-110377600D03*
D24*
X109954000Y-125358000D03*
X109954000Y-124088000D03*
X109954000Y-122818000D03*
X109954000Y-121548000D03*
X102954000Y-121548000D03*
X102954000Y-122818000D03*
X102954000Y-124088000D03*
X102954000Y-125358000D03*
D26*
X153154000Y-109853000D03*
X153154000Y-107313000D03*
X153154000Y-104773000D03*
X153154000Y-102233000D03*
X153154000Y-99693000D03*
D27*
X138554000Y-97553000D03*
X141054000Y-97553000D03*
X143554000Y-97553000D03*
X146054000Y-97553000D03*
D28*
G36*
X149178504Y-96579204D02*
G01*
X149202773Y-96582804D01*
X149226571Y-96588765D01*
X149249671Y-96597030D01*
X149271849Y-96607520D01*
X149292893Y-96620133D01*
X149312598Y-96634747D01*
X149330777Y-96651223D01*
X149347253Y-96669402D01*
X149361867Y-96689107D01*
X149374480Y-96710151D01*
X149384970Y-96732329D01*
X149393235Y-96755429D01*
X149399196Y-96779227D01*
X149402796Y-96803496D01*
X149404000Y-96828000D01*
X149404000Y-98278000D01*
X149402796Y-98302504D01*
X149399196Y-98326773D01*
X149393235Y-98350571D01*
X149384970Y-98373671D01*
X149374480Y-98395849D01*
X149361867Y-98416893D01*
X149347253Y-98436598D01*
X149330777Y-98454777D01*
X149312598Y-98471253D01*
X149292893Y-98485867D01*
X149271849Y-98498480D01*
X149249671Y-98508970D01*
X149226571Y-98517235D01*
X149202773Y-98523196D01*
X149178504Y-98526796D01*
X149154000Y-98528000D01*
X147954000Y-98528000D01*
X147929496Y-98526796D01*
X147905227Y-98523196D01*
X147881429Y-98517235D01*
X147858329Y-98508970D01*
X147836151Y-98498480D01*
X147815107Y-98485867D01*
X147795402Y-98471253D01*
X147777223Y-98454777D01*
X147760747Y-98436598D01*
X147746133Y-98416893D01*
X147733520Y-98395849D01*
X147723030Y-98373671D01*
X147714765Y-98350571D01*
X147708804Y-98326773D01*
X147705204Y-98302504D01*
X147704000Y-98278000D01*
X147704000Y-96828000D01*
X147705204Y-96803496D01*
X147708804Y-96779227D01*
X147714765Y-96755429D01*
X147723030Y-96732329D01*
X147733520Y-96710151D01*
X147746133Y-96689107D01*
X147760747Y-96669402D01*
X147777223Y-96651223D01*
X147795402Y-96634747D01*
X147815107Y-96620133D01*
X147836151Y-96607520D01*
X147858329Y-96597030D01*
X147881429Y-96588765D01*
X147905227Y-96582804D01*
X147929496Y-96579204D01*
X147954000Y-96578000D01*
X149154000Y-96578000D01*
X149178504Y-96579204D01*
X149178504Y-96579204D01*
G37*
D29*
X148554000Y-97553000D03*
D15*
X94854000Y-119753000D03*
X94854000Y-114753000D03*
X94854000Y-109753000D03*
D16*
X94854000Y-104753000D03*
D15*
X101154000Y-94653000D03*
X106154000Y-94653000D03*
X111154000Y-94653000D03*
D16*
X116154000Y-94653000D03*
D27*
X148554000Y-125953000D03*
X146054000Y-125953000D03*
X143554000Y-125953000D03*
X141054000Y-125953000D03*
D28*
G36*
X139178504Y-124979204D02*
G01*
X139202773Y-124982804D01*
X139226571Y-124988765D01*
X139249671Y-124997030D01*
X139271849Y-125007520D01*
X139292893Y-125020133D01*
X139312598Y-125034747D01*
X139330777Y-125051223D01*
X139347253Y-125069402D01*
X139361867Y-125089107D01*
X139374480Y-125110151D01*
X139384970Y-125132329D01*
X139393235Y-125155429D01*
X139399196Y-125179227D01*
X139402796Y-125203496D01*
X139404000Y-125228000D01*
X139404000Y-126678000D01*
X139402796Y-126702504D01*
X139399196Y-126726773D01*
X139393235Y-126750571D01*
X139384970Y-126773671D01*
X139374480Y-126795849D01*
X139361867Y-126816893D01*
X139347253Y-126836598D01*
X139330777Y-126854777D01*
X139312598Y-126871253D01*
X139292893Y-126885867D01*
X139271849Y-126898480D01*
X139249671Y-126908970D01*
X139226571Y-126917235D01*
X139202773Y-126923196D01*
X139178504Y-126926796D01*
X139154000Y-126928000D01*
X137954000Y-126928000D01*
X137929496Y-126926796D01*
X137905227Y-126923196D01*
X137881429Y-126917235D01*
X137858329Y-126908970D01*
X137836151Y-126898480D01*
X137815107Y-126885867D01*
X137795402Y-126871253D01*
X137777223Y-126854777D01*
X137760747Y-126836598D01*
X137746133Y-126816893D01*
X137733520Y-126795849D01*
X137723030Y-126773671D01*
X137714765Y-126750571D01*
X137708804Y-126726773D01*
X137705204Y-126702504D01*
X137704000Y-126678000D01*
X137704000Y-125228000D01*
X137705204Y-125203496D01*
X137708804Y-125179227D01*
X137714765Y-125155429D01*
X137723030Y-125132329D01*
X137733520Y-125110151D01*
X137746133Y-125089107D01*
X137760747Y-125069402D01*
X137777223Y-125051223D01*
X137795402Y-125034747D01*
X137815107Y-125020133D01*
X137836151Y-125007520D01*
X137858329Y-124997030D01*
X137881429Y-124988765D01*
X137905227Y-124982804D01*
X137929496Y-124979204D01*
X137954000Y-124978000D01*
X139154000Y-124978000D01*
X139178504Y-124979204D01*
X139178504Y-124979204D01*
G37*
D29*
X138554000Y-125953000D03*
D11*
X136245600Y-106629200D03*
X135382000Y-119989600D03*
X118237000Y-120472200D03*
D30*
X124485400Y-119100600D03*
X133146800Y-123926600D03*
X113792000Y-120751600D03*
X98628200Y-117043200D03*
X119938800Y-96926400D03*
X155219400Y-104266999D03*
X134797800Y-113588800D03*
X99949000Y-109753400D03*
X103936800Y-106756200D03*
X123444000Y-113106200D03*
X109245400Y-118313200D03*
X111937800Y-119151400D03*
X113461800Y-98602800D03*
X117119400Y-104571800D03*
X112166400Y-107746800D03*
X120523000Y-107035600D03*
X120396000Y-104444800D03*
X116382800Y-112750600D03*
X145288000Y-114706400D03*
X110210600Y-104927400D03*
X107365800Y-125349000D03*
X123723400Y-107442000D03*
X148132800Y-109397800D03*
X112293400Y-104470200D03*
X104038400Y-104908599D03*
X125476000Y-122656600D03*
X119659400Y-111099600D03*
X132207155Y-121996189D03*
X122428000Y-107340400D03*
X136956800Y-98399601D03*
X110483867Y-106258994D03*
X140208000Y-109169200D03*
X137007600Y-108737400D03*
X157595206Y-107731477D03*
X145161000Y-108305600D03*
X132410200Y-107086400D03*
X158673800Y-107061000D03*
X159588200Y-125857000D03*
X148209000Y-93218000D03*
X146405600Y-107594400D03*
X135686800Y-112090200D03*
X146380200Y-106248199D03*
X133934200Y-112166400D03*
X124180600Y-115468400D03*
X141681200Y-99517200D03*
X129209800Y-110363000D03*
X136245600Y-113868200D03*
X111887000Y-114231199D03*
X108102400Y-112699800D03*
X152146000Y-126746000D03*
X157911800Y-122021600D03*
X126873476Y-115061524D03*
X107950000Y-111353600D03*
D31*
X141198600Y-111836200D02*
X141833600Y-112471200D01*
X142430600Y-107213400D02*
X142555600Y-107213400D01*
X141198600Y-108445400D02*
X142430600Y-107213400D01*
X141198600Y-111836200D02*
X141198600Y-108445400D01*
X125685800Y-120816400D02*
X125685800Y-120301000D01*
X125685800Y-120301000D02*
X124485400Y-119100600D01*
X131425000Y-125095000D02*
X131978400Y-125095000D01*
X131978400Y-125095000D02*
X133146800Y-123926600D01*
X113749000Y-121548000D02*
X114554000Y-122353000D01*
X112734200Y-121548000D02*
X112658000Y-121548000D01*
X112734200Y-121548000D02*
X113749000Y-121548000D01*
X109954000Y-121548000D02*
X112734200Y-121548000D01*
X112734200Y-121548000D02*
X112995600Y-121548000D01*
X112995600Y-121548000D02*
X113792000Y-120751600D01*
X100253800Y-116476600D02*
X99194800Y-116476600D01*
X99194800Y-116476600D02*
X98628200Y-117043200D01*
X121383200Y-96926400D02*
X119938800Y-96926400D01*
X122930600Y-98348800D02*
X122805600Y-98348800D01*
X122805600Y-98348800D02*
X121383200Y-96926400D01*
X153154000Y-104773000D02*
X154713399Y-104773000D01*
X154713399Y-104773000D02*
X155219400Y-104266999D01*
X100355400Y-108465800D02*
X100355400Y-109347000D01*
X100355400Y-109347000D02*
X99949000Y-109753400D01*
X105562400Y-106750800D02*
X103942200Y-106750800D01*
X103942200Y-106750800D02*
X103936800Y-106756200D01*
X121885600Y-113577400D02*
X122972800Y-113577400D01*
X122972800Y-113577400D02*
X123444000Y-113106200D01*
X108610400Y-116838400D02*
X108610400Y-117678200D01*
X108610400Y-117678200D02*
X109245400Y-118313200D01*
X112543600Y-117627400D02*
X112543600Y-118545600D01*
X112543600Y-118545600D02*
X111937800Y-119151400D01*
X114099000Y-99748000D02*
X114654000Y-100303000D01*
X112392800Y-99671800D02*
X113461800Y-98602800D01*
X112392800Y-99748000D02*
X112392800Y-99671800D01*
X112392800Y-99748000D02*
X114099000Y-99748000D01*
X110054000Y-99748000D02*
X112392800Y-99748000D01*
X112848400Y-106222800D02*
X112848400Y-107064800D01*
X112848400Y-107064800D02*
X112166400Y-107746800D01*
X122244200Y-105831000D02*
X121727600Y-105831000D01*
X121727600Y-105831000D02*
X120523000Y-107035600D01*
X115323800Y-112217200D02*
X115849400Y-112217200D01*
X115849400Y-112217200D02*
X116382800Y-112750600D01*
X146304000Y-112471200D02*
X146710400Y-112877600D01*
X143865600Y-112471200D02*
X146304000Y-112471200D01*
X142570200Y-112471200D02*
X144348200Y-112471200D01*
X142570200Y-112471200D02*
X143865600Y-112471200D01*
X141833600Y-112471200D02*
X142570200Y-112471200D01*
X144348200Y-112471200D02*
X145288000Y-113411000D01*
X145288000Y-113411000D02*
X145288000Y-114706400D01*
X146264000Y-109931200D02*
X146710400Y-110377600D01*
X114049000Y-125358000D02*
X114554000Y-124853000D01*
X109954000Y-125358000D02*
X114049000Y-125358000D01*
X109954000Y-125358000D02*
X107374800Y-125358000D01*
X107374800Y-125358000D02*
X107365800Y-125349000D01*
X146710400Y-110377600D02*
X147153000Y-110377600D01*
X110054000Y-103558000D02*
X111381200Y-103558000D01*
X111381200Y-103558000D02*
X112293400Y-104470200D01*
X112969200Y-103558000D02*
X110054000Y-103558000D01*
X113724200Y-102803000D02*
X112969200Y-103558000D01*
X114654000Y-102803000D02*
X113724200Y-102803000D01*
X145084800Y-109931200D02*
X145084800Y-109880400D01*
X145084800Y-109931200D02*
X146264000Y-109931200D01*
X143865600Y-109931200D02*
X145084800Y-109931200D01*
X145084800Y-109880400D02*
X146151600Y-108813600D01*
X147548600Y-108813600D02*
X148132800Y-109397800D01*
X146151600Y-108813600D02*
X147548600Y-108813600D01*
D32*
X128848800Y-125171200D02*
X128925000Y-125095000D01*
X125479800Y-125171200D02*
X128848800Y-125171200D01*
X125479800Y-122660400D02*
X125476000Y-122656600D01*
X119659400Y-110388400D02*
X119659400Y-111099600D01*
X121885600Y-109767400D02*
X120280400Y-109767400D01*
X120280400Y-109767400D02*
X119659400Y-110388400D01*
X128925000Y-125095000D02*
X127863600Y-125095000D01*
X127863600Y-125044200D02*
X125476000Y-122656600D01*
X127863600Y-125095000D02*
X127863600Y-125044200D01*
X121885600Y-108497400D02*
X127316190Y-108497400D01*
X127101600Y-98348800D02*
X125430600Y-98348800D01*
X127889000Y-107924590D02*
X127316190Y-108497400D01*
X127889000Y-99136200D02*
X127889000Y-107924590D01*
X127889000Y-99136200D02*
X127101600Y-98348800D01*
X127127000Y-98374200D02*
X129710200Y-98374200D01*
X127101600Y-98348800D02*
X127127000Y-98374200D01*
X120051800Y-118657400D02*
X121885600Y-118657400D01*
X118237000Y-120472200D02*
X120051800Y-118657400D01*
X118237000Y-118580718D02*
X118237000Y-120472200D01*
X116278081Y-116621799D02*
X118237000Y-118580718D01*
X111721999Y-116621799D02*
X116278081Y-116621799D01*
X106613600Y-114338400D02*
X108610400Y-114338400D01*
X105760400Y-114338400D02*
X106613600Y-114338400D01*
X106613600Y-114338400D02*
X107896000Y-115620800D01*
X110721000Y-115620800D02*
X111721999Y-116621799D01*
X107896000Y-115620800D02*
X110721000Y-115620800D01*
X134049800Y-118657400D02*
X135382000Y-119989600D01*
X131285600Y-118657400D02*
X134049800Y-118657400D01*
X132207155Y-121996189D02*
X134213744Y-119989600D01*
X134213744Y-119989600D02*
X135382000Y-119989600D01*
X122749882Y-107340400D02*
X122428000Y-107340400D01*
X122749882Y-107340400D02*
X123349801Y-106740481D01*
X123349801Y-106740481D02*
X123349801Y-105173999D01*
X123349801Y-105173999D02*
X123723400Y-104800400D01*
X123926600Y-104800400D02*
X124744200Y-103982800D01*
X123723400Y-104800400D02*
X123926600Y-104800400D01*
X124744200Y-102981000D02*
X124744200Y-103982800D01*
X124744200Y-103982800D02*
X124744200Y-105831000D01*
X131985600Y-117387400D02*
X132022400Y-117424200D01*
X131285600Y-117387400D02*
X131985600Y-117387400D01*
X133578600Y-117424200D02*
X133604000Y-117398800D01*
X132022400Y-117424200D02*
X133578600Y-117424200D01*
X133604000Y-117398800D02*
X136550400Y-117398800D01*
X137744201Y-108127801D02*
X136245600Y-106629200D01*
X137744201Y-109090969D02*
X137744201Y-108127801D01*
X137414000Y-109421170D02*
X137744201Y-109090969D01*
X137414000Y-116535200D02*
X137414000Y-109421170D01*
X136550400Y-117398800D02*
X137414000Y-116535200D01*
X108405600Y-109250800D02*
X108432600Y-109223800D01*
X137007599Y-98450400D02*
X136956800Y-98399601D01*
X136245600Y-106629200D02*
X137007599Y-105867201D01*
X137007599Y-105867201D02*
X137007599Y-98450400D01*
X110102868Y-106893614D02*
X109148082Y-107848400D01*
X110483867Y-106258994D02*
X110102868Y-106639993D01*
X110102868Y-106639993D02*
X110102868Y-106893614D01*
X108178600Y-107848400D02*
X106776200Y-109250800D01*
X109148082Y-107848400D02*
X108178600Y-107848400D01*
X105562400Y-109250800D02*
X106776200Y-109250800D01*
X106776200Y-109250800D02*
X108405600Y-109250800D01*
X104254000Y-103558000D02*
X103054000Y-103558000D01*
X104909601Y-102902399D02*
X104254000Y-103558000D01*
X104909601Y-100897399D02*
X104909601Y-102902399D01*
X111154000Y-94653000D02*
X104909601Y-100897399D01*
X103054000Y-97753000D02*
X103054000Y-99748000D01*
X106154000Y-94653000D02*
X103054000Y-97753000D01*
D31*
X139293600Y-109169200D02*
X138531600Y-109931200D01*
X140208000Y-109169200D02*
X139293600Y-109169200D01*
X140055600Y-109016800D02*
X140208000Y-109169200D01*
X140055600Y-107213400D02*
X140055600Y-109016800D01*
D32*
X131285600Y-109767400D02*
X135977600Y-109767400D01*
X135977600Y-109767400D02*
X137007600Y-108737400D01*
D31*
X141739400Y-100863400D02*
X138554000Y-97678000D01*
X138554000Y-97678000D02*
X138554000Y-97553000D01*
X156337001Y-101933247D02*
X155267154Y-100863400D01*
X157595206Y-107731477D02*
X157595206Y-107192662D01*
X157595206Y-107192662D02*
X156337001Y-105934457D01*
X156337001Y-105934457D02*
X156337001Y-105638599D01*
X156337001Y-105790998D02*
X156337001Y-105638599D01*
X156337001Y-105638599D02*
X156337001Y-101933247D01*
X145161000Y-108305600D02*
X145161000Y-102158800D01*
X143865600Y-100863400D02*
X142875000Y-100863400D01*
X145161000Y-102158800D02*
X143865600Y-100863400D01*
X155267154Y-100863400D02*
X142875000Y-100863400D01*
X142875000Y-100863400D02*
X141739400Y-100863400D01*
D32*
X131285600Y-108497400D02*
X131285600Y-108211000D01*
X131285600Y-108211000D02*
X132410200Y-107086400D01*
X146054000Y-97428000D02*
X146054000Y-97553000D01*
X147513610Y-95968390D02*
X146054000Y-97428000D01*
X154686000Y-91744800D02*
X150462410Y-95968390D01*
X158775400Y-97663000D02*
X160553400Y-99441000D01*
X160553400Y-124891800D02*
X159588200Y-125857000D01*
X160553400Y-105181400D02*
X158673800Y-107061000D01*
X160553400Y-104673400D02*
X160553400Y-105181400D01*
X160553400Y-104673400D02*
X160553400Y-124891800D01*
X160553400Y-99441000D02*
X160553400Y-104673400D01*
X153042190Y-95968390D02*
X150005210Y-95968390D01*
X153822400Y-96748600D02*
X153042190Y-95968390D01*
X150462410Y-95968390D02*
X150005210Y-95968390D01*
X150005210Y-95968390D02*
X147513610Y-95968390D01*
X153847800Y-96748600D02*
X154762200Y-97663000D01*
X154762200Y-97663000D02*
X158775400Y-97663000D01*
X140081000Y-93218000D02*
X148209000Y-93218000D01*
X135915400Y-97383600D02*
X140081000Y-93218000D01*
X135915400Y-99034600D02*
X135915400Y-97383600D01*
X134950200Y-99999800D02*
X135915400Y-99034600D01*
X134213600Y-99999800D02*
X134950200Y-99999800D01*
X128752600Y-105460800D02*
X134213600Y-99999800D01*
X128752600Y-109354110D02*
X128752600Y-105460800D01*
X121885600Y-111037400D02*
X123352998Y-111037400D01*
X123352998Y-111037400D02*
X124128998Y-110261400D01*
X124128998Y-110261400D02*
X127845310Y-110261400D01*
X127845310Y-110261400D02*
X128752600Y-109354110D01*
X152654000Y-109853000D02*
X150725600Y-107924600D01*
X153154000Y-109853000D02*
X152654000Y-109853000D01*
X150725600Y-107924600D02*
X146735800Y-107924600D01*
X146735800Y-107924600D02*
X146405600Y-107594400D01*
X133895370Y-111037400D02*
X131285600Y-111037400D01*
X134948170Y-112090200D02*
X133895370Y-111037400D01*
X135686800Y-112090200D02*
X134948170Y-112090200D01*
X153154000Y-107313000D02*
X147445001Y-107313000D01*
X147445001Y-107313000D02*
X146380200Y-106248199D01*
X131426600Y-112166400D02*
X131285600Y-112307400D01*
X133934200Y-112166400D02*
X131426600Y-112166400D01*
X121885600Y-114847400D02*
X123559600Y-114847400D01*
X123559600Y-114847400D02*
X124180600Y-115468400D01*
X142012820Y-99848820D02*
X141681200Y-99517200D01*
X151794980Y-99848820D02*
X142012820Y-99848820D01*
X153154000Y-99693000D02*
X151950800Y-99693000D01*
X151950800Y-99693000D02*
X151794980Y-99848820D01*
X123088800Y-112307400D02*
X124271200Y-111125000D01*
X121885600Y-112307400D02*
X123088800Y-112307400D01*
X124271200Y-111125000D02*
X128447800Y-111125000D01*
X128447800Y-111125000D02*
X129209800Y-110363000D01*
X155334000Y-128317600D02*
X154986600Y-128665000D01*
X155334000Y-125353000D02*
X155334000Y-128317600D01*
X122585600Y-117387400D02*
X123241201Y-118043001D01*
X123082318Y-133121400D02*
X154203400Y-133121400D01*
X121885600Y-117387400D02*
X122585600Y-117387400D01*
X123241201Y-118043001D02*
X123241201Y-122669717D01*
X123241201Y-122669717D02*
X120498399Y-125412519D01*
X120498399Y-125412519D02*
X120498399Y-130537481D01*
X120498399Y-130537481D02*
X123082318Y-133121400D01*
X154203400Y-133121400D02*
X156493900Y-130830900D01*
X156493900Y-126512900D02*
X156493900Y-130830900D01*
X156493900Y-126512900D02*
X155334000Y-125353000D01*
X154594000Y-123553000D02*
X155334000Y-122813000D01*
X152454000Y-123553000D02*
X154594000Y-123553000D01*
X153392201Y-124754799D02*
X155334000Y-122813000D01*
X153392201Y-132281599D02*
X153392201Y-124754799D01*
X153009610Y-132664190D02*
X153392201Y-132281599D01*
X122585600Y-116117400D02*
X123698411Y-117230211D01*
X125526790Y-132664190D02*
X153009610Y-132664190D01*
X121885600Y-116117400D02*
X122585600Y-116117400D01*
X123698411Y-122784011D02*
X123885401Y-122971001D01*
X123698411Y-117230211D02*
X123698411Y-122784011D01*
X123885401Y-122971001D02*
X123885401Y-131022801D01*
X123885401Y-131022801D02*
X125526790Y-132664190D01*
X154714000Y-119653000D02*
X155334000Y-120273000D01*
X152504000Y-119653000D02*
X154714000Y-119653000D01*
X133315038Y-122021600D02*
X153585400Y-122021600D01*
X130082400Y-116117400D02*
X129489200Y-116710600D01*
X131285600Y-116117400D02*
X130082400Y-116117400D01*
X129489200Y-116710600D02*
X129489200Y-120345200D01*
X153585400Y-122021600D02*
X155334000Y-120273000D01*
X129489200Y-120345200D02*
X131876789Y-122732789D01*
X131876789Y-122732789D02*
X132603849Y-122732789D01*
X132603849Y-122732789D02*
X133315038Y-122021600D01*
X154347800Y-116746800D02*
X155334000Y-117733000D01*
X154347800Y-114517200D02*
X154347800Y-116746800D01*
X131285600Y-114847400D02*
X135266400Y-114847400D01*
X135266400Y-114847400D02*
X136245600Y-113868200D01*
X104657200Y-121548000D02*
X102954000Y-121548000D01*
X106299000Y-123189800D02*
X104657200Y-121548000D01*
X106299000Y-126517400D02*
X106299000Y-123189800D01*
X110754000Y-129053000D02*
X108834600Y-129053000D01*
X108834600Y-129053000D02*
X106299000Y-126517400D01*
X105754000Y-126454800D02*
X105754000Y-129053000D01*
X104657200Y-125358000D02*
X105754000Y-126454800D01*
X102954000Y-125358000D02*
X104657200Y-125358000D01*
X99972200Y-102288000D02*
X103054000Y-102288000D01*
X99307200Y-102953000D02*
X99972200Y-102288000D01*
X98454000Y-102953000D02*
X99307200Y-102953000D01*
X100072200Y-101018000D02*
X103054000Y-101018000D01*
X99307200Y-100253000D02*
X100072200Y-101018000D01*
X98454000Y-100253000D02*
X99307200Y-100253000D01*
X111757200Y-101018000D02*
X112313800Y-101574600D01*
X110054000Y-101018000D02*
X111757200Y-101018000D01*
X115548400Y-105369600D02*
X115548400Y-106222800D01*
X115634601Y-105283399D02*
X115548400Y-105369600D01*
X115634601Y-101768519D02*
X115634601Y-105283399D01*
X115440682Y-101574600D02*
X115634601Y-101768519D01*
X112313800Y-101574600D02*
X115440682Y-101574600D01*
X111887000Y-113692384D02*
X110767416Y-112572800D01*
X111887000Y-114231199D02*
X111887000Y-113692384D01*
X110767416Y-112572800D02*
X108229400Y-112572800D01*
X108229400Y-112572800D02*
X108102400Y-112699800D01*
X128185800Y-120816400D02*
X129139000Y-120816400D01*
X132437630Y-123545600D02*
X132793231Y-123189999D01*
X131868200Y-123545600D02*
X132437630Y-123545600D01*
X152753401Y-113511599D02*
X155853399Y-113511599D01*
X151647800Y-114517200D02*
X151747800Y-114517200D01*
X151747800Y-114517200D02*
X152753401Y-113511599D01*
X149904000Y-119653000D02*
X149804000Y-119653000D01*
X153779683Y-118888601D02*
X153538481Y-118647399D01*
X150909601Y-118647399D02*
X149904000Y-119653000D01*
X156117487Y-118888601D02*
X153779683Y-118888601D01*
X157022800Y-117983288D02*
X156117487Y-118888601D01*
X157022800Y-114681000D02*
X157022800Y-117983288D01*
X149854000Y-123553000D02*
X149754000Y-123553000D01*
X153706193Y-122547399D02*
X150859601Y-122547399D01*
X150859601Y-122547399D02*
X149854000Y-123553000D01*
X154596193Y-121657399D02*
X153706193Y-122547399D01*
X155659891Y-121657399D02*
X154596193Y-121657399D01*
X157022800Y-120294490D02*
X155659891Y-121657399D01*
X152286600Y-128665000D02*
X152286600Y-126886600D01*
X152286600Y-126886600D02*
X152146000Y-126746000D01*
X157022800Y-117983288D02*
X157022800Y-119303800D01*
X157022800Y-119303800D02*
X157022800Y-120294490D01*
X157911800Y-120192800D02*
X157911800Y-122021600D01*
X157022800Y-119303800D02*
X157911800Y-120192800D01*
X130082400Y-113577400D02*
X128185800Y-115474000D01*
X131285600Y-113577400D02*
X130082400Y-113577400D01*
X128185800Y-115474000D02*
X128185800Y-116374800D01*
X127254475Y-115443475D02*
X128185800Y-116374800D01*
X127254475Y-115442523D02*
X127254475Y-115443475D01*
X126873476Y-115061524D02*
X127254475Y-115442523D01*
X132793231Y-123189999D02*
X147701001Y-123189999D01*
X148343601Y-122547399D02*
X150859601Y-122547399D01*
X147701001Y-123189999D02*
X148343601Y-122547399D01*
X129139000Y-120816400D02*
X130729500Y-122406900D01*
X130729500Y-122406900D02*
X131868200Y-123545600D01*
X127613900Y-122406900D02*
X130729500Y-122406900D01*
X126796800Y-121589800D02*
X127613900Y-122406900D01*
X126796800Y-119989600D02*
X126796800Y-121589800D01*
X128185800Y-116374800D02*
X128185800Y-118600600D01*
X128185800Y-118600600D02*
X126796800Y-119989600D01*
X150575199Y-118647399D02*
X151514999Y-118647399D01*
X153538481Y-118647399D02*
X151514999Y-118647399D01*
X138531600Y-113741200D02*
X139420600Y-113741200D01*
X139420600Y-113741200D02*
X142925800Y-117246400D01*
X151514999Y-118647399D02*
X150909601Y-118647399D01*
X149174200Y-117246400D02*
X150575199Y-118647399D01*
X156489400Y-108508318D02*
X156489400Y-114147600D01*
X154438481Y-106457399D02*
X156489400Y-108508318D01*
X155853399Y-113511599D02*
X156489400Y-114147600D01*
X156489400Y-114147600D02*
X157022800Y-114681000D01*
X149201600Y-102233000D02*
X148844000Y-102590600D01*
X148844000Y-102590600D02*
X148844000Y-105308400D01*
X148844000Y-105308400D02*
X149992999Y-106457399D01*
X149992999Y-106457399D02*
X154438481Y-106457399D01*
X153154000Y-102233000D02*
X149201600Y-102233000D01*
X148499230Y-117246400D02*
X147828000Y-117246400D01*
X149072600Y-116673030D02*
X148499230Y-117246400D01*
X149072600Y-115595400D02*
X149072600Y-116673030D01*
X142925800Y-117246400D02*
X147828000Y-117246400D01*
X147828000Y-117246400D02*
X149174200Y-117246400D01*
X107579400Y-106523800D02*
X108432600Y-106523800D01*
X106700799Y-105645199D02*
X107579400Y-106523800D01*
X100355400Y-105812600D02*
X100522801Y-105645199D01*
X100355400Y-106265800D02*
X100355400Y-105812600D01*
X108854000Y-102288000D02*
X110054000Y-102288000D01*
X108198399Y-102943601D02*
X108854000Y-102288000D01*
X108198399Y-103967801D02*
X108198399Y-102943601D01*
X106521001Y-105645199D02*
X108198399Y-103967801D01*
X106521001Y-105645199D02*
X106700799Y-105645199D01*
X100522801Y-105645199D02*
X106521001Y-105645199D01*
X113123800Y-112217200D02*
X112670600Y-112217200D01*
X112670600Y-112217200D02*
X111807000Y-111353600D01*
X111531400Y-111353600D02*
X107950000Y-111353600D01*
X111807000Y-111353600D02*
X111531400Y-111353600D01*
X120437400Y-102981000D02*
X122044200Y-102981000D01*
X111531400Y-111353600D02*
X113055400Y-111353600D01*
X113055400Y-111353600D02*
X114147600Y-110261400D01*
X114147600Y-110261400D02*
X116611400Y-110261400D01*
X116611400Y-110261400D02*
X118694200Y-108178600D01*
X118694200Y-108178600D02*
X118694200Y-104724200D01*
X118694200Y-104724200D02*
X120437400Y-102981000D01*
X105760400Y-117138400D02*
X105760400Y-117038400D01*
X104222200Y-118676600D02*
X105760400Y-117138400D01*
X107843792Y-124088000D02*
X109954000Y-124088000D01*
X104222200Y-120466408D02*
X107843792Y-124088000D01*
X104222200Y-120452800D02*
X102446000Y-118676600D01*
X104222200Y-120466408D02*
X104222200Y-120452800D01*
X100253800Y-118676600D02*
X102446000Y-118676600D01*
X102446000Y-118676600D02*
X104222200Y-118676600D01*
X122779800Y-128327200D02*
X122154000Y-128953000D01*
X122779800Y-125171200D02*
X122779800Y-128327200D01*
X132410200Y-94665800D02*
X132461000Y-94615000D01*
X132410200Y-98374200D02*
X132410200Y-94665800D01*
X100122200Y-124088000D02*
X102954000Y-124088000D01*
X99307200Y-124903000D02*
X100122200Y-124088000D01*
X98454000Y-124903000D02*
X99307200Y-124903000D01*
X99922200Y-122818000D02*
X102954000Y-122818000D01*
X99307200Y-122203000D02*
X99922200Y-122818000D01*
X98454000Y-122203000D02*
X99307200Y-122203000D01*
X108250800Y-122818000D02*
X107721400Y-122288600D01*
X109954000Y-122818000D02*
X108250800Y-122818000D01*
X107721400Y-121340518D02*
X108488118Y-120573800D01*
X107721400Y-122288600D02*
X107721400Y-121340518D01*
X115143600Y-117627400D02*
X115243600Y-117627400D01*
X112197200Y-120573800D02*
X115143600Y-117627400D01*
X108488118Y-120573800D02*
X112197200Y-120573800D01*
M02*
