G04 #@! TF.GenerationSoftware,KiCad,Pcbnew,(5.1.4)-1*
G04 #@! TF.CreationDate,2020-10-11T16:44:01-04:00*
G04 #@! TF.ProjectId,i2c_pancake,6932635f-7061-46e6-9361-6b652e6b6963,rev?*
G04 #@! TF.SameCoordinates,Original*
G04 #@! TF.FileFunction,Paste,Bot*
G04 #@! TF.FilePolarity,Positive*
%FSLAX46Y46*%
G04 Gerber Fmt 4.6, Leading zero omitted, Abs format (unit mm)*
G04 Created by KiCad (PCBNEW (5.1.4)-1) date 2020-10-11 16:44:01*
%MOMM*%
%LPD*%
G04 APERTURE LIST*
%ADD10C,0.150000*%
%ADD11C,0.152400*%
%ADD12R,1.500000X1.300000*%
%ADD13R,1.300000X1.500000*%
%ADD14R,1.500000X1.250000*%
%ADD15R,1.250000X1.500000*%
%ADD16R,2.413000X3.200400*%
%ADD17R,1.371600X0.482600*%
%ADD18R,0.500000X0.500000*%
%ADD19R,3.000000X0.600000*%
%ADD20R,2.000000X0.600000*%
%ADD21R,2.000000X1.000000*%
G04 APERTURE END LIST*
D10*
X89662000Y-134239000D02*
X164554000Y-134239000D01*
X89662000Y-89253000D02*
X164554000Y-89253000D01*
X164554000Y-89253000D02*
X164554000Y-134239000D01*
X89662000Y-89253000D02*
X89662000Y-134239000D01*
D11*
X140092100Y-111936200D02*
X142305100Y-111936200D01*
X140092100Y-113336400D02*
X140092100Y-111936200D01*
X142305100Y-113336400D02*
X140092100Y-113336400D01*
X142305100Y-111936200D02*
X142305100Y-113336400D01*
X140092100Y-110336000D02*
X142305100Y-110336000D01*
X140092100Y-111736200D02*
X140092100Y-110336000D01*
X142305100Y-111736200D02*
X140092100Y-111736200D01*
X142305100Y-110336000D02*
X142305100Y-111736200D01*
D12*
X132410200Y-98374200D03*
X129710200Y-98374200D03*
X122779800Y-125171200D03*
X125479800Y-125171200D03*
D13*
X105760400Y-117038400D03*
X105760400Y-114338400D03*
D12*
X122044200Y-102981000D03*
X124744200Y-102981000D03*
D13*
X108432600Y-106523800D03*
X108432600Y-109223800D03*
D14*
X122930600Y-98348800D03*
X125430600Y-98348800D03*
X131425000Y-125095000D03*
X128925000Y-125095000D03*
D15*
X108610400Y-116838400D03*
X108610400Y-114338400D03*
D14*
X122244200Y-105831000D03*
X124744200Y-105831000D03*
D15*
X105562400Y-106750800D03*
X105562400Y-109250800D03*
D16*
X141198600Y-111836200D03*
D17*
X138531600Y-109931200D03*
X138531600Y-111201200D03*
X138531600Y-112471200D03*
X138531600Y-113741200D03*
X143865600Y-113741200D03*
X143865600Y-112471200D03*
X143865600Y-111201200D03*
X143865600Y-109931200D03*
D18*
X100253800Y-116476600D03*
X100253800Y-118676600D03*
X115323800Y-112217200D03*
X113123800Y-112217200D03*
X100355400Y-108465800D03*
X100355400Y-106265800D03*
D14*
X142555600Y-107213400D03*
X140055600Y-107213400D03*
D15*
X114554000Y-124853000D03*
X114554000Y-122353000D03*
X114654000Y-102803000D03*
X114654000Y-100303000D03*
D14*
X128185800Y-120816400D03*
X125685800Y-120816400D03*
D13*
X98454000Y-124903000D03*
X98454000Y-122203000D03*
D12*
X115243600Y-117627400D03*
X112543600Y-117627400D03*
D13*
X98454000Y-102953000D03*
X98454000Y-100253000D03*
D12*
X115548400Y-106222800D03*
X112848400Y-106222800D03*
X154986600Y-128665000D03*
X152286600Y-128665000D03*
X152454000Y-123553000D03*
X149754000Y-123553000D03*
X152504000Y-119653000D03*
X149804000Y-119653000D03*
X154347800Y-114517200D03*
X151647800Y-114517200D03*
D19*
X110054000Y-103558000D03*
X110054000Y-102288000D03*
X110054000Y-101018000D03*
X110054000Y-99748000D03*
X103054000Y-99748000D03*
X103054000Y-101018000D03*
X103054000Y-102288000D03*
X103054000Y-103558000D03*
D20*
X121885600Y-118657400D03*
X121885600Y-117387400D03*
X121885600Y-116117400D03*
X121885600Y-114847400D03*
X121885600Y-113577400D03*
X121885600Y-112307400D03*
X121885600Y-111037400D03*
X121885600Y-109767400D03*
X121885600Y-108497400D03*
X131285600Y-108497400D03*
X131285600Y-109767400D03*
X131285600Y-111037400D03*
X131285600Y-112307400D03*
X131285600Y-113577400D03*
X131285600Y-114847400D03*
X131285600Y-116117400D03*
X131285600Y-117387400D03*
X131285600Y-118657400D03*
D15*
X146710400Y-112877600D03*
X146710400Y-110377600D03*
D19*
X109954000Y-125358000D03*
X109954000Y-124088000D03*
X109954000Y-122818000D03*
X109954000Y-121548000D03*
X102954000Y-121548000D03*
X102954000Y-122818000D03*
X102954000Y-124088000D03*
X102954000Y-125358000D03*
D21*
X153154000Y-109853000D03*
X153154000Y-107313000D03*
X153154000Y-104773000D03*
X153154000Y-102233000D03*
X153154000Y-99693000D03*
M02*
