G04 #@! TF.GenerationSoftware,KiCad,Pcbnew,(5.1.4)-1*
G04 #@! TF.CreationDate,2020-10-15T08:41:29-04:00*
G04 #@! TF.ProjectId,i2c_pancake,6932635f-7061-46e6-9361-6b652e6b6963,rev?*
G04 #@! TF.SameCoordinates,Original*
G04 #@! TF.FileFunction,Legend,Top*
G04 #@! TF.FilePolarity,Positive*
%FSLAX46Y46*%
G04 Gerber Fmt 4.6, Leading zero omitted, Abs format (unit mm)*
G04 Created by KiCad (PCBNEW (5.1.4)-1) date 2020-10-15 08:41:29*
%MOMM*%
%LPD*%
G04 APERTURE LIST*
%ADD10C,0.127000*%
%ADD11C,0.150000*%
%ADD12C,0.120000*%
%ADD13C,0.400000*%
%ADD14C,0.100000*%
%ADD15C,0.010000*%
G04 APERTURE END LIST*
D10*
X148151530Y-102252991D02*
X148103875Y-102395957D01*
X148103875Y-102634233D01*
X148151530Y-102729543D01*
X148199185Y-102777199D01*
X148294496Y-102824854D01*
X148389806Y-102824854D01*
X148485117Y-102777199D01*
X148532772Y-102729543D01*
X148580427Y-102634233D01*
X148628082Y-102443612D01*
X148675738Y-102348301D01*
X148723393Y-102300646D01*
X148818703Y-102252991D01*
X148914014Y-102252991D01*
X149009324Y-102300646D01*
X149056980Y-102348301D01*
X149104635Y-102443612D01*
X149104635Y-102681888D01*
X149056980Y-102824854D01*
X148103875Y-103253751D02*
X149104635Y-103253751D01*
X149104635Y-103492027D01*
X149056980Y-103634993D01*
X148961669Y-103730303D01*
X148866359Y-103777959D01*
X148675738Y-103825614D01*
X148532772Y-103825614D01*
X148342151Y-103777959D01*
X148246840Y-103730303D01*
X148151530Y-103634993D01*
X148103875Y-103492027D01*
X148103875Y-103253751D01*
X148389806Y-104206856D02*
X148389806Y-104683408D01*
X148103875Y-104111545D02*
X149104635Y-104445132D01*
X148103875Y-104778719D01*
X145408330Y-102302219D02*
X145360675Y-102445184D01*
X145360675Y-102683460D01*
X145408330Y-102778771D01*
X145455985Y-102826426D01*
X145551296Y-102874081D01*
X145646606Y-102874081D01*
X145741917Y-102826426D01*
X145789572Y-102778771D01*
X145837227Y-102683460D01*
X145884882Y-102492840D01*
X145932538Y-102397529D01*
X145980193Y-102349874D01*
X146075503Y-102302219D01*
X146170814Y-102302219D01*
X146266124Y-102349874D01*
X146313780Y-102397529D01*
X146361435Y-102492840D01*
X146361435Y-102731116D01*
X146313780Y-102874081D01*
X145455985Y-103874841D02*
X145408330Y-103827186D01*
X145360675Y-103684220D01*
X145360675Y-103588910D01*
X145408330Y-103445944D01*
X145503640Y-103350634D01*
X145598951Y-103302979D01*
X145789572Y-103255323D01*
X145932538Y-103255323D01*
X146123159Y-103302979D01*
X146218469Y-103350634D01*
X146313780Y-103445944D01*
X146361435Y-103588910D01*
X146361435Y-103684220D01*
X146313780Y-103827186D01*
X146266124Y-103874841D01*
X145360675Y-104780291D02*
X145360675Y-104303739D01*
X146361435Y-104303739D01*
X140814317Y-102232308D02*
X140814317Y-102994792D01*
X140433075Y-102613550D02*
X141195559Y-102613550D01*
X141433835Y-103947897D02*
X141433835Y-103471344D01*
X140957282Y-103423689D01*
X141004938Y-103471344D01*
X141052593Y-103566655D01*
X141052593Y-103804931D01*
X141004938Y-103900241D01*
X140957282Y-103947897D01*
X140861972Y-103995552D01*
X140623696Y-103995552D01*
X140528385Y-103947897D01*
X140480730Y-103900241D01*
X140433075Y-103804931D01*
X140433075Y-103566655D01*
X140480730Y-103471344D01*
X140528385Y-103423689D01*
X141433835Y-104281483D02*
X140433075Y-104615070D01*
X141433835Y-104948657D01*
X138629917Y-102238356D02*
X138629917Y-103000840D01*
X138248675Y-102619598D02*
X139011159Y-102619598D01*
X138248675Y-104001600D02*
X138248675Y-103429737D01*
X138248675Y-103715668D02*
X139249435Y-103715668D01*
X139106469Y-103620358D01*
X139011159Y-103525047D01*
X138963503Y-103429737D01*
X139154124Y-104382841D02*
X139201780Y-104430497D01*
X139249435Y-104525807D01*
X139249435Y-104764083D01*
X139201780Y-104859394D01*
X139154124Y-104907049D01*
X139058814Y-104954704D01*
X138963503Y-104954704D01*
X138820538Y-104907049D01*
X138248675Y-104335186D01*
X138248675Y-104954704D01*
X139249435Y-105240636D02*
X138248675Y-105574222D01*
X139249435Y-105907809D01*
X148551882Y-121360443D02*
X148551882Y-120597960D01*
X148933124Y-120979201D02*
X148170640Y-120979201D01*
X148933124Y-119597200D02*
X148933124Y-120169062D01*
X148933124Y-119883131D02*
X147932364Y-119883131D01*
X148075330Y-119978441D01*
X148170640Y-120073752D01*
X148218296Y-120169062D01*
X148027675Y-119215958D02*
X147980020Y-119168302D01*
X147932364Y-119072992D01*
X147932364Y-118834716D01*
X147980020Y-118739405D01*
X148027675Y-118691750D01*
X148122985Y-118644095D01*
X148218296Y-118644095D01*
X148361261Y-118691750D01*
X148933124Y-119263613D01*
X148933124Y-118644095D01*
X147932364Y-118358163D02*
X148933124Y-118024577D01*
X147932364Y-117690990D01*
X145986482Y-121341091D02*
X145986482Y-120578607D01*
X146367724Y-120959849D02*
X145605240Y-120959849D01*
X145366964Y-119625502D02*
X145366964Y-120102055D01*
X145843517Y-120149710D01*
X145795861Y-120102055D01*
X145748206Y-120006744D01*
X145748206Y-119768468D01*
X145795861Y-119673158D01*
X145843517Y-119625502D01*
X145938827Y-119577847D01*
X146177103Y-119577847D01*
X146272414Y-119625502D01*
X146320069Y-119673158D01*
X146367724Y-119768468D01*
X146367724Y-120006744D01*
X146320069Y-120102055D01*
X146272414Y-120149710D01*
X145366964Y-119291916D02*
X146367724Y-118958329D01*
X145366964Y-118624742D01*
X141595669Y-121118780D02*
X141643324Y-120975815D01*
X141643324Y-120737539D01*
X141595669Y-120642228D01*
X141548014Y-120594573D01*
X141452703Y-120546918D01*
X141357393Y-120546918D01*
X141262082Y-120594573D01*
X141214427Y-120642228D01*
X141166772Y-120737539D01*
X141119117Y-120928160D01*
X141071461Y-121023470D01*
X141023806Y-121071125D01*
X140928496Y-121118780D01*
X140833185Y-121118780D01*
X140737875Y-121071125D01*
X140690220Y-121023470D01*
X140642564Y-120928160D01*
X140642564Y-120689883D01*
X140690220Y-120546918D01*
X141548014Y-119546158D02*
X141595669Y-119593813D01*
X141643324Y-119736779D01*
X141643324Y-119832089D01*
X141595669Y-119975055D01*
X141500359Y-120070365D01*
X141405048Y-120118020D01*
X141214427Y-120165676D01*
X141071461Y-120165676D01*
X140880840Y-120118020D01*
X140785530Y-120070365D01*
X140690220Y-119975055D01*
X140642564Y-119832089D01*
X140642564Y-119736779D01*
X140690220Y-119593813D01*
X140737875Y-119546158D01*
X141643324Y-118640708D02*
X141643324Y-119117260D01*
X140642564Y-119117260D01*
X139208069Y-121193408D02*
X139255724Y-121050442D01*
X139255724Y-120812166D01*
X139208069Y-120716856D01*
X139160414Y-120669200D01*
X139065103Y-120621545D01*
X138969793Y-120621545D01*
X138874482Y-120669200D01*
X138826827Y-120716856D01*
X138779172Y-120812166D01*
X138731517Y-121002787D01*
X138683861Y-121098098D01*
X138636206Y-121145753D01*
X138540896Y-121193408D01*
X138445585Y-121193408D01*
X138350275Y-121145753D01*
X138302620Y-121098098D01*
X138254964Y-121002787D01*
X138254964Y-120764511D01*
X138302620Y-120621545D01*
X139255724Y-120192648D02*
X138254964Y-120192648D01*
X138254964Y-119954372D01*
X138302620Y-119811406D01*
X138397930Y-119716096D01*
X138493240Y-119668440D01*
X138683861Y-119620785D01*
X138826827Y-119620785D01*
X139017448Y-119668440D01*
X139112759Y-119716096D01*
X139208069Y-119811406D01*
X139255724Y-119954372D01*
X139255724Y-120192648D01*
X138969793Y-119239543D02*
X138969793Y-118762991D01*
X139255724Y-119334854D02*
X138254964Y-119001267D01*
X139255724Y-118667680D01*
X134443513Y-100297675D02*
X134443513Y-101298435D01*
X134062271Y-101298435D01*
X133966960Y-101250780D01*
X133919305Y-101203124D01*
X133871650Y-101107814D01*
X133871650Y-100964848D01*
X133919305Y-100869538D01*
X133966960Y-100821882D01*
X134062271Y-100774227D01*
X134443513Y-100774227D01*
X132870890Y-100297675D02*
X133204477Y-100774227D01*
X133442753Y-100297675D02*
X133442753Y-101298435D01*
X133061511Y-101298435D01*
X132966200Y-101250780D01*
X132918545Y-101203124D01*
X132870890Y-101107814D01*
X132870890Y-100964848D01*
X132918545Y-100869538D01*
X132966200Y-100821882D01*
X133061511Y-100774227D01*
X133442753Y-100774227D01*
X132441993Y-100821882D02*
X132108406Y-100821882D01*
X131965440Y-100297675D02*
X132441993Y-100297675D01*
X132441993Y-101298435D01*
X131965440Y-101298435D01*
X131584199Y-100345330D02*
X131441233Y-100297675D01*
X131202957Y-100297675D01*
X131107646Y-100345330D01*
X131059991Y-100392985D01*
X131012336Y-100488296D01*
X131012336Y-100583606D01*
X131059991Y-100678917D01*
X131107646Y-100726572D01*
X131202957Y-100774227D01*
X131393578Y-100821882D01*
X131488888Y-100869538D01*
X131536543Y-100917193D01*
X131584199Y-101012503D01*
X131584199Y-101107814D01*
X131536543Y-101203124D01*
X131488888Y-101250780D01*
X131393578Y-101298435D01*
X131155301Y-101298435D01*
X131012336Y-101250780D01*
X130631094Y-101203124D02*
X130583439Y-101250780D01*
X130488128Y-101298435D01*
X130249852Y-101298435D01*
X130154541Y-101250780D01*
X130106886Y-101203124D01*
X130059231Y-101107814D01*
X130059231Y-101012503D01*
X130106886Y-100869538D01*
X130678749Y-100297675D01*
X130059231Y-100297675D01*
X112270643Y-100421530D02*
X112127678Y-100373875D01*
X111889401Y-100373875D01*
X111794091Y-100421530D01*
X111746436Y-100469185D01*
X111698780Y-100564496D01*
X111698780Y-100659806D01*
X111746436Y-100755117D01*
X111794091Y-100802772D01*
X111889401Y-100850427D01*
X112080022Y-100898082D01*
X112175333Y-100945738D01*
X112222988Y-100993393D01*
X112270643Y-101088703D01*
X112270643Y-101184014D01*
X112222988Y-101279324D01*
X112175333Y-101326980D01*
X112080022Y-101374635D01*
X111841746Y-101374635D01*
X111698780Y-101326980D01*
X111412849Y-101374635D02*
X110840986Y-101374635D01*
X111126918Y-100373875D02*
X111126918Y-101374635D01*
X109983192Y-100373875D02*
X110555055Y-100373875D01*
X110269123Y-100373875D02*
X110269123Y-101374635D01*
X110364434Y-101231669D01*
X110459744Y-101136359D01*
X110555055Y-101088703D01*
X109554295Y-100755117D02*
X108791811Y-100755117D01*
X107546243Y-100472330D02*
X107403278Y-100424675D01*
X107165001Y-100424675D01*
X107069691Y-100472330D01*
X107022036Y-100519985D01*
X106974380Y-100615296D01*
X106974380Y-100710606D01*
X107022036Y-100805917D01*
X107069691Y-100853572D01*
X107165001Y-100901227D01*
X107355622Y-100948882D01*
X107450933Y-100996538D01*
X107498588Y-101044193D01*
X107546243Y-101139503D01*
X107546243Y-101234814D01*
X107498588Y-101330124D01*
X107450933Y-101377780D01*
X107355622Y-101425435D01*
X107117346Y-101425435D01*
X106974380Y-101377780D01*
X106688449Y-101425435D02*
X106116586Y-101425435D01*
X106402518Y-100424675D02*
X106402518Y-101425435D01*
X105258792Y-100424675D02*
X105830655Y-100424675D01*
X105544723Y-100424675D02*
X105544723Y-101425435D01*
X105640034Y-101282469D01*
X105735344Y-101187159D01*
X105830655Y-101139503D01*
X104829895Y-100805917D02*
X104067411Y-100805917D01*
X104448653Y-100424675D02*
X104448653Y-101187159D01*
X101339330Y-113439756D02*
X101291675Y-113582721D01*
X101291675Y-113820998D01*
X101339330Y-113916308D01*
X101386985Y-113963963D01*
X101482296Y-114011619D01*
X101577606Y-114011619D01*
X101672917Y-113963963D01*
X101720572Y-113916308D01*
X101768227Y-113820998D01*
X101815882Y-113630377D01*
X101863538Y-113535066D01*
X101911193Y-113487411D01*
X102006503Y-113439756D01*
X102101814Y-113439756D01*
X102197124Y-113487411D01*
X102244780Y-113535066D01*
X102292435Y-113630377D01*
X102292435Y-113868653D01*
X102244780Y-114011619D01*
X102292435Y-114297550D02*
X102292435Y-114869413D01*
X101291675Y-114583481D02*
X102292435Y-114583481D01*
X102197124Y-115155344D02*
X102244780Y-115203000D01*
X102292435Y-115298310D01*
X102292435Y-115536586D01*
X102244780Y-115631897D01*
X102197124Y-115679552D01*
X102101814Y-115727207D01*
X102006503Y-115727207D01*
X101863538Y-115679552D01*
X101291675Y-115107689D01*
X101291675Y-115727207D01*
X101672917Y-116156104D02*
X101672917Y-116918588D01*
X101291675Y-116537346D02*
X102054159Y-116537346D01*
X101339330Y-108588356D02*
X101291675Y-108731321D01*
X101291675Y-108969598D01*
X101339330Y-109064908D01*
X101386985Y-109112563D01*
X101482296Y-109160219D01*
X101577606Y-109160219D01*
X101672917Y-109112563D01*
X101720572Y-109064908D01*
X101768227Y-108969598D01*
X101815882Y-108778977D01*
X101863538Y-108683666D01*
X101911193Y-108636011D01*
X102006503Y-108588356D01*
X102101814Y-108588356D01*
X102197124Y-108636011D01*
X102244780Y-108683666D01*
X102292435Y-108778977D01*
X102292435Y-109017253D01*
X102244780Y-109160219D01*
X102292435Y-109446150D02*
X102292435Y-110018013D01*
X101291675Y-109732081D02*
X102292435Y-109732081D01*
X102197124Y-110303944D02*
X102244780Y-110351600D01*
X102292435Y-110446910D01*
X102292435Y-110685186D01*
X102244780Y-110780497D01*
X102197124Y-110828152D01*
X102101814Y-110875807D01*
X102006503Y-110875807D01*
X101863538Y-110828152D01*
X101291675Y-110256289D01*
X101291675Y-110875807D01*
X101672917Y-111304704D02*
X101672917Y-112067188D01*
X109252156Y-122974069D02*
X109395121Y-123021724D01*
X109633398Y-123021724D01*
X109728708Y-122974069D01*
X109776363Y-122926414D01*
X109824019Y-122831103D01*
X109824019Y-122735793D01*
X109776363Y-122640482D01*
X109728708Y-122592827D01*
X109633398Y-122545172D01*
X109442777Y-122497517D01*
X109347466Y-122449861D01*
X109299811Y-122402206D01*
X109252156Y-122306896D01*
X109252156Y-122211585D01*
X109299811Y-122116275D01*
X109347466Y-122068620D01*
X109442777Y-122020964D01*
X109681053Y-122020964D01*
X109824019Y-122068620D01*
X110109950Y-122020964D02*
X110681813Y-122020964D01*
X110395881Y-123021724D02*
X110395881Y-122020964D01*
X110920089Y-122020964D02*
X111539607Y-122020964D01*
X111206020Y-122402206D01*
X111348986Y-122402206D01*
X111444297Y-122449861D01*
X111491952Y-122497517D01*
X111539607Y-122592827D01*
X111539607Y-122831103D01*
X111491952Y-122926414D01*
X111444297Y-122974069D01*
X111348986Y-123021724D01*
X111063055Y-123021724D01*
X110967744Y-122974069D01*
X110920089Y-122926414D01*
X111968504Y-122640482D02*
X112730988Y-122640482D01*
X112349746Y-123021724D02*
X112349746Y-122259240D01*
X104146756Y-122948669D02*
X104289721Y-122996324D01*
X104527998Y-122996324D01*
X104623308Y-122948669D01*
X104670963Y-122901014D01*
X104718619Y-122805703D01*
X104718619Y-122710393D01*
X104670963Y-122615082D01*
X104623308Y-122567427D01*
X104527998Y-122519772D01*
X104337377Y-122472117D01*
X104242066Y-122424461D01*
X104194411Y-122376806D01*
X104146756Y-122281496D01*
X104146756Y-122186185D01*
X104194411Y-122090875D01*
X104242066Y-122043220D01*
X104337377Y-121995564D01*
X104575653Y-121995564D01*
X104718619Y-122043220D01*
X105004550Y-121995564D02*
X105576413Y-121995564D01*
X105290481Y-122996324D02*
X105290481Y-121995564D01*
X105814689Y-121995564D02*
X106434207Y-121995564D01*
X106100620Y-122376806D01*
X106243586Y-122376806D01*
X106338897Y-122424461D01*
X106386552Y-122472117D01*
X106434207Y-122567427D01*
X106434207Y-122805703D01*
X106386552Y-122901014D01*
X106338897Y-122948669D01*
X106243586Y-122996324D01*
X105957655Y-122996324D01*
X105862344Y-122948669D01*
X105814689Y-122901014D01*
X106863104Y-122615082D02*
X107625588Y-122615082D01*
X120099286Y-122767724D02*
X120099286Y-121766964D01*
X120480528Y-121766964D01*
X120575839Y-121814620D01*
X120623494Y-121862275D01*
X120671149Y-121957585D01*
X120671149Y-122100551D01*
X120623494Y-122195861D01*
X120575839Y-122243517D01*
X120480528Y-122291172D01*
X120099286Y-122291172D01*
X121671909Y-122767724D02*
X121338322Y-122291172D01*
X121100046Y-122767724D02*
X121100046Y-121766964D01*
X121481288Y-121766964D01*
X121576599Y-121814620D01*
X121624254Y-121862275D01*
X121671909Y-121957585D01*
X121671909Y-122100551D01*
X121624254Y-122195861D01*
X121576599Y-122243517D01*
X121481288Y-122291172D01*
X121100046Y-122291172D01*
X122100806Y-122243517D02*
X122434393Y-122243517D01*
X122577359Y-122767724D02*
X122100806Y-122767724D01*
X122100806Y-121766964D01*
X122577359Y-121766964D01*
X122958600Y-122720069D02*
X123101566Y-122767724D01*
X123339842Y-122767724D01*
X123435153Y-122720069D01*
X123482808Y-122672414D01*
X123530463Y-122577103D01*
X123530463Y-122481793D01*
X123482808Y-122386482D01*
X123435153Y-122338827D01*
X123339842Y-122291172D01*
X123149221Y-122243517D01*
X123053911Y-122195861D01*
X123006256Y-122148206D01*
X122958600Y-122052896D01*
X122958600Y-121957585D01*
X123006256Y-121862275D01*
X123053911Y-121814620D01*
X123149221Y-121766964D01*
X123387498Y-121766964D01*
X123530463Y-121814620D01*
X124483568Y-122767724D02*
X123911705Y-122767724D01*
X124197637Y-122767724D02*
X124197637Y-121766964D01*
X124102326Y-121909930D01*
X124007016Y-122005240D01*
X123911705Y-122052896D01*
X143027020Y-120740683D02*
X142979364Y-120835994D01*
X142979364Y-120978960D01*
X143027020Y-121121925D01*
X143122330Y-121217236D01*
X143217640Y-121264891D01*
X143408261Y-121312546D01*
X143551227Y-121312546D01*
X143741848Y-121264891D01*
X143837159Y-121217236D01*
X143932469Y-121121925D01*
X143980124Y-120978960D01*
X143980124Y-120883649D01*
X143932469Y-120740683D01*
X143884814Y-120693028D01*
X143551227Y-120693028D01*
X143551227Y-120883649D01*
X143980124Y-120264131D02*
X142979364Y-120264131D01*
X143980124Y-119692268D01*
X142979364Y-119692268D01*
X143980124Y-119215716D02*
X142979364Y-119215716D01*
X142979364Y-118977440D01*
X143027020Y-118834474D01*
X143122330Y-118739163D01*
X143217640Y-118691508D01*
X143408261Y-118643853D01*
X143551227Y-118643853D01*
X143741848Y-118691508D01*
X143837159Y-118739163D01*
X143932469Y-118834474D01*
X143980124Y-118977440D01*
X143980124Y-119215716D01*
X143799180Y-102781916D02*
X143846835Y-102686605D01*
X143846835Y-102543640D01*
X143799180Y-102400674D01*
X143703869Y-102305363D01*
X143608559Y-102257708D01*
X143417938Y-102210053D01*
X143274972Y-102210053D01*
X143084351Y-102257708D01*
X142989040Y-102305363D01*
X142893730Y-102400674D01*
X142846075Y-102543640D01*
X142846075Y-102638950D01*
X142893730Y-102781916D01*
X142941385Y-102829571D01*
X143274972Y-102829571D01*
X143274972Y-102638950D01*
X142846075Y-103258468D02*
X143846835Y-103258468D01*
X142846075Y-103830331D01*
X143846835Y-103830331D01*
X142846075Y-104306883D02*
X143846835Y-104306883D01*
X143846835Y-104545160D01*
X143799180Y-104688125D01*
X143703869Y-104783436D01*
X143608559Y-104831091D01*
X143417938Y-104878746D01*
X143274972Y-104878746D01*
X143084351Y-104831091D01*
X142989040Y-104783436D01*
X142893730Y-104688125D01*
X142846075Y-104545160D01*
X142846075Y-104306883D01*
X127881483Y-101250780D02*
X127976794Y-101298435D01*
X128119760Y-101298435D01*
X128262725Y-101250780D01*
X128358036Y-101155469D01*
X128405691Y-101060159D01*
X128453346Y-100869538D01*
X128453346Y-100726572D01*
X128405691Y-100535951D01*
X128358036Y-100440640D01*
X128262725Y-100345330D01*
X128119760Y-100297675D01*
X128024449Y-100297675D01*
X127881483Y-100345330D01*
X127833828Y-100392985D01*
X127833828Y-100726572D01*
X128024449Y-100726572D01*
X127404931Y-100297675D02*
X127404931Y-101298435D01*
X126833068Y-100297675D01*
X126833068Y-101298435D01*
X126356516Y-100297675D02*
X126356516Y-101298435D01*
X126118240Y-101298435D01*
X125975274Y-101250780D01*
X125879963Y-101155469D01*
X125832308Y-101060159D01*
X125784653Y-100869538D01*
X125784653Y-100726572D01*
X125832308Y-100535951D01*
X125879963Y-100440640D01*
X125975274Y-100345330D01*
X126118240Y-100297675D01*
X126356516Y-100297675D01*
X101846483Y-101352380D02*
X101941794Y-101400035D01*
X102084760Y-101400035D01*
X102227725Y-101352380D01*
X102323036Y-101257069D01*
X102370691Y-101161759D01*
X102418346Y-100971138D01*
X102418346Y-100828172D01*
X102370691Y-100637551D01*
X102323036Y-100542240D01*
X102227725Y-100446930D01*
X102084760Y-100399275D01*
X101989449Y-100399275D01*
X101846483Y-100446930D01*
X101798828Y-100494585D01*
X101798828Y-100828172D01*
X101989449Y-100828172D01*
X101369931Y-100399275D02*
X101369931Y-101400035D01*
X100798068Y-100399275D01*
X100798068Y-101400035D01*
X100321516Y-100399275D02*
X100321516Y-101400035D01*
X100083240Y-101400035D01*
X99940274Y-101352380D01*
X99844963Y-101257069D01*
X99797308Y-101161759D01*
X99749653Y-100971138D01*
X99749653Y-100828172D01*
X99797308Y-100637551D01*
X99844963Y-100542240D01*
X99940274Y-100446930D01*
X100083240Y-100399275D01*
X100321516Y-100399275D01*
X102244780Y-119114116D02*
X102292435Y-119018805D01*
X102292435Y-118875840D01*
X102244780Y-118732874D01*
X102149469Y-118637563D01*
X102054159Y-118589908D01*
X101863538Y-118542253D01*
X101720572Y-118542253D01*
X101529951Y-118589908D01*
X101434640Y-118637563D01*
X101339330Y-118732874D01*
X101291675Y-118875840D01*
X101291675Y-118971150D01*
X101339330Y-119114116D01*
X101386985Y-119161771D01*
X101720572Y-119161771D01*
X101720572Y-118971150D01*
X101291675Y-119590668D02*
X102292435Y-119590668D01*
X101291675Y-120162531D01*
X102292435Y-120162531D01*
X101291675Y-120639083D02*
X102292435Y-120639083D01*
X102292435Y-120877360D01*
X102244780Y-121020325D01*
X102149469Y-121115636D01*
X102054159Y-121163291D01*
X101863538Y-121210946D01*
X101720572Y-121210946D01*
X101529951Y-121163291D01*
X101434640Y-121115636D01*
X101339330Y-121020325D01*
X101291675Y-120877360D01*
X101291675Y-120639083D01*
X126432716Y-121814620D02*
X126337405Y-121766964D01*
X126194440Y-121766964D01*
X126051474Y-121814620D01*
X125956163Y-121909930D01*
X125908508Y-122005240D01*
X125860853Y-122195861D01*
X125860853Y-122338827D01*
X125908508Y-122529448D01*
X125956163Y-122624759D01*
X126051474Y-122720069D01*
X126194440Y-122767724D01*
X126289750Y-122767724D01*
X126432716Y-122720069D01*
X126480371Y-122672414D01*
X126480371Y-122338827D01*
X126289750Y-122338827D01*
X126909268Y-122767724D02*
X126909268Y-121766964D01*
X127481131Y-122767724D01*
X127481131Y-121766964D01*
X127957683Y-122767724D02*
X127957683Y-121766964D01*
X128195960Y-121766964D01*
X128338925Y-121814620D01*
X128434236Y-121909930D01*
X128481891Y-122005240D01*
X128529546Y-122195861D01*
X128529546Y-122338827D01*
X128481891Y-122529448D01*
X128434236Y-122624759D01*
X128338925Y-122720069D01*
X128195960Y-122767724D01*
X127957683Y-122767724D01*
X114977316Y-122017820D02*
X114882005Y-121970164D01*
X114739040Y-121970164D01*
X114596074Y-122017820D01*
X114500763Y-122113130D01*
X114453108Y-122208440D01*
X114405453Y-122399061D01*
X114405453Y-122542027D01*
X114453108Y-122732648D01*
X114500763Y-122827959D01*
X114596074Y-122923269D01*
X114739040Y-122970924D01*
X114834350Y-122970924D01*
X114977316Y-122923269D01*
X115024971Y-122875614D01*
X115024971Y-122542027D01*
X114834350Y-122542027D01*
X115453868Y-122970924D02*
X115453868Y-121970164D01*
X116025731Y-122970924D01*
X116025731Y-121970164D01*
X116502283Y-122970924D02*
X116502283Y-121970164D01*
X116740560Y-121970164D01*
X116883525Y-122017820D01*
X116978836Y-122113130D01*
X117026491Y-122208440D01*
X117074146Y-122399061D01*
X117074146Y-122542027D01*
X117026491Y-122732648D01*
X116978836Y-122827959D01*
X116883525Y-122923269D01*
X116740560Y-122970924D01*
X116502283Y-122970924D01*
X130130956Y-122335682D02*
X130893440Y-122335682D01*
X130512198Y-122716924D02*
X130512198Y-121954440D01*
X131894200Y-122716924D02*
X131322337Y-122716924D01*
X131608268Y-122716924D02*
X131608268Y-121716164D01*
X131512958Y-121859130D01*
X131417647Y-121954440D01*
X131322337Y-122002096D01*
X132513718Y-121716164D02*
X132609028Y-121716164D01*
X132704339Y-121763820D01*
X132751994Y-121811475D01*
X132799649Y-121906785D01*
X132847304Y-122097406D01*
X132847304Y-122335682D01*
X132799649Y-122526303D01*
X132751994Y-122621614D01*
X132704339Y-122669269D01*
X132609028Y-122716924D01*
X132513718Y-122716924D01*
X132418407Y-122669269D01*
X132370752Y-122621614D01*
X132323097Y-122526303D01*
X132275441Y-122335682D01*
X132275441Y-122097406D01*
X132323097Y-121906785D01*
X132370752Y-121811475D01*
X132418407Y-121763820D01*
X132513718Y-121716164D01*
X133133236Y-121716164D02*
X133466822Y-122716924D01*
X133800409Y-121716164D01*
X124462643Y-100678917D02*
X123700160Y-100678917D01*
X124081401Y-100297675D02*
X124081401Y-101060159D01*
X122699400Y-100297675D02*
X123271262Y-100297675D01*
X122985331Y-100297675D02*
X122985331Y-101298435D01*
X123080641Y-101155469D01*
X123175952Y-101060159D01*
X123271262Y-101012503D01*
X122079881Y-101298435D02*
X121984571Y-101298435D01*
X121889260Y-101250780D01*
X121841605Y-101203124D01*
X121793950Y-101107814D01*
X121746295Y-100917193D01*
X121746295Y-100678917D01*
X121793950Y-100488296D01*
X121841605Y-100392985D01*
X121889260Y-100345330D01*
X121984571Y-100297675D01*
X122079881Y-100297675D01*
X122175192Y-100345330D01*
X122222847Y-100392985D01*
X122270502Y-100488296D01*
X122318158Y-100678917D01*
X122318158Y-100917193D01*
X122270502Y-101107814D01*
X122222847Y-101203124D01*
X122175192Y-101250780D01*
X122079881Y-101298435D01*
X121460363Y-101298435D02*
X121126777Y-100297675D01*
X120793190Y-101298435D01*
X118798443Y-100729717D02*
X118035960Y-100729717D01*
X118417201Y-100348475D02*
X118417201Y-101110959D01*
X117035200Y-100348475D02*
X117607062Y-100348475D01*
X117321131Y-100348475D02*
X117321131Y-101349235D01*
X117416441Y-101206269D01*
X117511752Y-101110959D01*
X117607062Y-101063303D01*
X116415681Y-101349235D02*
X116320371Y-101349235D01*
X116225060Y-101301580D01*
X116177405Y-101253924D01*
X116129750Y-101158614D01*
X116082095Y-100967993D01*
X116082095Y-100729717D01*
X116129750Y-100539096D01*
X116177405Y-100443785D01*
X116225060Y-100396130D01*
X116320371Y-100348475D01*
X116415681Y-100348475D01*
X116510992Y-100396130D01*
X116558647Y-100443785D01*
X116606302Y-100539096D01*
X116653958Y-100729717D01*
X116653958Y-100967993D01*
X116606302Y-101158614D01*
X116558647Y-101253924D01*
X116510992Y-101301580D01*
X116415681Y-101349235D01*
X115796163Y-101349235D02*
X115462577Y-100348475D01*
X115128990Y-101349235D01*
X101596717Y-102847956D02*
X101596717Y-103610440D01*
X101215475Y-103229198D02*
X101977959Y-103229198D01*
X101215475Y-104611200D02*
X101215475Y-104039337D01*
X101215475Y-104325268D02*
X102216235Y-104325268D01*
X102073269Y-104229958D01*
X101977959Y-104134647D01*
X101930303Y-104039337D01*
X102216235Y-105230718D02*
X102216235Y-105326028D01*
X102168580Y-105421339D01*
X102120924Y-105468994D01*
X102025614Y-105516649D01*
X101834993Y-105564304D01*
X101596717Y-105564304D01*
X101406096Y-105516649D01*
X101310785Y-105468994D01*
X101263130Y-105421339D01*
X101215475Y-105326028D01*
X101215475Y-105230718D01*
X101263130Y-105135407D01*
X101310785Y-105087752D01*
X101406096Y-105040097D01*
X101596717Y-104992441D01*
X101834993Y-104992441D01*
X102025614Y-105040097D01*
X102120924Y-105087752D01*
X102168580Y-105135407D01*
X102216235Y-105230718D01*
X102216235Y-105850236D02*
X101215475Y-106183822D01*
X102216235Y-106517409D01*
X98634956Y-123148482D02*
X99397440Y-123148482D01*
X99016198Y-123529724D02*
X99016198Y-122767240D01*
X100398200Y-123529724D02*
X99826337Y-123529724D01*
X100112268Y-123529724D02*
X100112268Y-122528964D01*
X100016958Y-122671930D01*
X99921647Y-122767240D01*
X99826337Y-122814896D01*
X101017718Y-122528964D02*
X101113028Y-122528964D01*
X101208339Y-122576620D01*
X101255994Y-122624275D01*
X101303649Y-122719585D01*
X101351304Y-122910206D01*
X101351304Y-123148482D01*
X101303649Y-123339103D01*
X101255994Y-123434414D01*
X101208339Y-123482069D01*
X101113028Y-123529724D01*
X101017718Y-123529724D01*
X100922407Y-123482069D01*
X100874752Y-123434414D01*
X100827097Y-123339103D01*
X100779441Y-123148482D01*
X100779441Y-122910206D01*
X100827097Y-122719585D01*
X100874752Y-122624275D01*
X100922407Y-122576620D01*
X101017718Y-122528964D01*
X101637236Y-122528964D02*
X101970822Y-123529724D01*
X102304409Y-122528964D01*
D11*
X89662000Y-134239000D02*
X164554000Y-134239000D01*
D12*
X156255904Y-104960714D02*
X156255904Y-104427380D01*
X157055904Y-104960714D01*
X157055904Y-104427380D01*
X157055904Y-103779761D02*
X156636857Y-103779761D01*
X156560666Y-103817857D01*
X156522571Y-103894047D01*
X156522571Y-104046428D01*
X156560666Y-104122619D01*
X157017809Y-103779761D02*
X157055904Y-103855952D01*
X157055904Y-104046428D01*
X157017809Y-104122619D01*
X156941619Y-104160714D01*
X156865428Y-104160714D01*
X156789238Y-104122619D01*
X156751142Y-104046428D01*
X156751142Y-103855952D01*
X156713047Y-103779761D01*
X157017809Y-103055952D02*
X157055904Y-103132142D01*
X157055904Y-103284523D01*
X157017809Y-103360714D01*
X156979714Y-103398809D01*
X156903523Y-103436904D01*
X156674952Y-103436904D01*
X156598761Y-103398809D01*
X156560666Y-103360714D01*
X156522571Y-103284523D01*
X156522571Y-103132142D01*
X156560666Y-103055952D01*
X157055904Y-102713095D02*
X156255904Y-102713095D01*
X157055904Y-102370238D02*
X156636857Y-102370238D01*
X156560666Y-102408333D01*
X156522571Y-102484523D01*
X156522571Y-102598809D01*
X156560666Y-102675000D01*
X156598761Y-102713095D01*
X157055904Y-101646428D02*
X156636857Y-101646428D01*
X156560666Y-101684523D01*
X156522571Y-101760714D01*
X156522571Y-101913095D01*
X156560666Y-101989285D01*
X157017809Y-101646428D02*
X157055904Y-101722619D01*
X157055904Y-101913095D01*
X157017809Y-101989285D01*
X156941619Y-102027380D01*
X156865428Y-102027380D01*
X156789238Y-101989285D01*
X156751142Y-101913095D01*
X156751142Y-101722619D01*
X156713047Y-101646428D01*
X157055904Y-101265476D02*
X156522571Y-101265476D01*
X156674952Y-101265476D02*
X156598761Y-101227380D01*
X156560666Y-101189285D01*
X156522571Y-101113095D01*
X156522571Y-101036904D01*
X156522571Y-100846428D02*
X157055904Y-100655952D01*
X156522571Y-100465476D02*
X157055904Y-100655952D01*
X157246380Y-100732142D01*
X157284476Y-100770238D01*
X157322571Y-100846428D01*
X156255904Y-99665476D02*
X156255904Y-99208333D01*
X157055904Y-99436904D02*
X156255904Y-99436904D01*
X157017809Y-98636904D02*
X157055904Y-98713095D01*
X157055904Y-98865476D01*
X157017809Y-98941666D01*
X156941619Y-98979761D01*
X156636857Y-98979761D01*
X156560666Y-98941666D01*
X156522571Y-98865476D01*
X156522571Y-98713095D01*
X156560666Y-98636904D01*
X156636857Y-98598809D01*
X156713047Y-98598809D01*
X156789238Y-98979761D01*
X156522571Y-98255952D02*
X157322571Y-98255952D01*
X156560666Y-98255952D02*
X156522571Y-98179761D01*
X156522571Y-98027380D01*
X156560666Y-97951190D01*
X156598761Y-97913095D01*
X156674952Y-97875000D01*
X156903523Y-97875000D01*
X156979714Y-97913095D01*
X157017809Y-97951190D01*
X157055904Y-98027380D01*
X157055904Y-98179761D01*
X157017809Y-98255952D01*
X157017809Y-97227380D02*
X157055904Y-97303571D01*
X157055904Y-97455952D01*
X157017809Y-97532142D01*
X156941619Y-97570238D01*
X156636857Y-97570238D01*
X156560666Y-97532142D01*
X156522571Y-97455952D01*
X156522571Y-97303571D01*
X156560666Y-97227380D01*
X156636857Y-97189285D01*
X156713047Y-97189285D01*
X156789238Y-97570238D01*
X157055904Y-96846428D02*
X156522571Y-96846428D01*
X156674952Y-96846428D02*
X156598761Y-96808333D01*
X156560666Y-96770238D01*
X156522571Y-96694047D01*
X156522571Y-96617857D01*
X157575904Y-104732142D02*
X157575904Y-104579761D01*
X157614000Y-104503571D01*
X157690190Y-104427380D01*
X157842571Y-104389285D01*
X158109238Y-104389285D01*
X158261619Y-104427380D01*
X158337809Y-104503571D01*
X158375904Y-104579761D01*
X158375904Y-104732142D01*
X158337809Y-104808333D01*
X158261619Y-104884523D01*
X158109238Y-104922619D01*
X157842571Y-104922619D01*
X157690190Y-104884523D01*
X157614000Y-104808333D01*
X157575904Y-104732142D01*
X158337809Y-103703571D02*
X158375904Y-103779761D01*
X158375904Y-103932142D01*
X158337809Y-104008333D01*
X158299714Y-104046428D01*
X158223523Y-104084523D01*
X157994952Y-104084523D01*
X157918761Y-104046428D01*
X157880666Y-104008333D01*
X157842571Y-103932142D01*
X157842571Y-103779761D01*
X157880666Y-103703571D01*
X157842571Y-103475000D02*
X157842571Y-103170238D01*
X157575904Y-103360714D02*
X158261619Y-103360714D01*
X158337809Y-103322619D01*
X158375904Y-103246428D01*
X158375904Y-103170238D01*
X158071142Y-102903571D02*
X158071142Y-102294047D01*
X158375904Y-101494047D02*
X158375904Y-101951190D01*
X158375904Y-101722619D02*
X157575904Y-101722619D01*
X157690190Y-101798809D01*
X157766380Y-101875000D01*
X157804476Y-101951190D01*
X157575904Y-100770238D02*
X157575904Y-101151190D01*
X157956857Y-101189285D01*
X157918761Y-101151190D01*
X157880666Y-101075000D01*
X157880666Y-100884523D01*
X157918761Y-100808333D01*
X157956857Y-100770238D01*
X158033047Y-100732142D01*
X158223523Y-100732142D01*
X158299714Y-100770238D01*
X158337809Y-100808333D01*
X158375904Y-100884523D01*
X158375904Y-101075000D01*
X158337809Y-101151190D01*
X158299714Y-101189285D01*
X158071142Y-100389285D02*
X158071142Y-99779761D01*
X157652095Y-99436904D02*
X157614000Y-99398809D01*
X157575904Y-99322619D01*
X157575904Y-99132142D01*
X157614000Y-99055952D01*
X157652095Y-99017857D01*
X157728285Y-98979761D01*
X157804476Y-98979761D01*
X157918761Y-99017857D01*
X158375904Y-99475000D01*
X158375904Y-98979761D01*
X157575904Y-98484523D02*
X157575904Y-98408333D01*
X157614000Y-98332142D01*
X157652095Y-98294047D01*
X157728285Y-98255952D01*
X157880666Y-98217857D01*
X158071142Y-98217857D01*
X158223523Y-98255952D01*
X158299714Y-98294047D01*
X158337809Y-98332142D01*
X158375904Y-98408333D01*
X158375904Y-98484523D01*
X158337809Y-98560714D01*
X158299714Y-98598809D01*
X158223523Y-98636904D01*
X158071142Y-98675000D01*
X157880666Y-98675000D01*
X157728285Y-98636904D01*
X157652095Y-98598809D01*
X157614000Y-98560714D01*
X157575904Y-98484523D01*
X157652095Y-97913095D02*
X157614000Y-97875000D01*
X157575904Y-97798809D01*
X157575904Y-97608333D01*
X157614000Y-97532142D01*
X157652095Y-97494047D01*
X157728285Y-97455952D01*
X157804476Y-97455952D01*
X157918761Y-97494047D01*
X158375904Y-97951190D01*
X158375904Y-97455952D01*
X157575904Y-96960714D02*
X157575904Y-96884523D01*
X157614000Y-96808333D01*
X157652095Y-96770238D01*
X157728285Y-96732142D01*
X157880666Y-96694047D01*
X158071142Y-96694047D01*
X158223523Y-96732142D01*
X158299714Y-96770238D01*
X158337809Y-96808333D01*
X158375904Y-96884523D01*
X158375904Y-96960714D01*
X158337809Y-97036904D01*
X158299714Y-97075000D01*
X158223523Y-97113095D01*
X158071142Y-97151190D01*
X157880666Y-97151190D01*
X157728285Y-97113095D01*
X157652095Y-97075000D01*
X157614000Y-97036904D01*
X157575904Y-96960714D01*
D13*
X162195933Y-113845266D02*
X160417933Y-113845266D01*
X160587266Y-113083266D02*
X160502600Y-112998600D01*
X160417933Y-112829266D01*
X160417933Y-112405933D01*
X160502600Y-112236600D01*
X160587266Y-112151933D01*
X160756600Y-112067266D01*
X160925933Y-112067266D01*
X161179933Y-112151933D01*
X162195933Y-113167933D01*
X162195933Y-112067266D01*
X162026600Y-110289266D02*
X162111266Y-110373933D01*
X162195933Y-110627933D01*
X162195933Y-110797266D01*
X162111266Y-111051266D01*
X161941933Y-111220600D01*
X161772600Y-111305266D01*
X161433933Y-111389933D01*
X161179933Y-111389933D01*
X160841266Y-111305266D01*
X160671933Y-111220600D01*
X160502600Y-111051266D01*
X160417933Y-110797266D01*
X160417933Y-110627933D01*
X160502600Y-110373933D01*
X160587266Y-110289266D01*
X162195933Y-108172600D02*
X160417933Y-108172600D01*
X160417933Y-107495266D01*
X160502600Y-107325933D01*
X160587266Y-107241266D01*
X160756600Y-107156600D01*
X161010600Y-107156600D01*
X161179933Y-107241266D01*
X161264600Y-107325933D01*
X161349266Y-107495266D01*
X161349266Y-108172600D01*
X161687933Y-106479266D02*
X161687933Y-105632600D01*
X162195933Y-106648600D02*
X160417933Y-106055933D01*
X162195933Y-105463266D01*
X162195933Y-104870600D02*
X160417933Y-104870600D01*
X162195933Y-103854600D01*
X160417933Y-103854600D01*
X162026600Y-101991933D02*
X162111266Y-102076600D01*
X162195933Y-102330600D01*
X162195933Y-102499933D01*
X162111266Y-102753933D01*
X161941933Y-102923266D01*
X161772600Y-103007933D01*
X161433933Y-103092600D01*
X161179933Y-103092600D01*
X160841266Y-103007933D01*
X160671933Y-102923266D01*
X160502600Y-102753933D01*
X160417933Y-102499933D01*
X160417933Y-102330600D01*
X160502600Y-102076600D01*
X160587266Y-101991933D01*
X161687933Y-101314600D02*
X161687933Y-100467933D01*
X162195933Y-101483933D02*
X160417933Y-100891266D01*
X162195933Y-100298600D01*
X162195933Y-99705933D02*
X160417933Y-99705933D01*
X162195933Y-98689933D02*
X161179933Y-99451933D01*
X160417933Y-98689933D02*
X161433933Y-99705933D01*
X161264600Y-97927933D02*
X161264600Y-97335266D01*
X162195933Y-97081266D02*
X162195933Y-97927933D01*
X160417933Y-97927933D01*
X160417933Y-97081266D01*
D11*
X89662000Y-89253000D02*
X164554000Y-89253000D01*
X164554000Y-89253000D02*
X164554000Y-134239000D01*
X89662000Y-89253000D02*
X89662000Y-134239000D01*
D12*
X150072600Y-115595400D02*
G75*
G03X150072600Y-115595400I-1000000J0D01*
G01*
X135261000Y-89715000D02*
X134761000Y-89715000D01*
X135261000Y-90455000D02*
X135261000Y-89715000D01*
X123688000Y-93592000D02*
X123735000Y-93546000D01*
X121391000Y-95890000D02*
X121426000Y-95854000D01*
X123495000Y-93376000D02*
X123530000Y-93341000D01*
X121186000Y-95684000D02*
X121233000Y-95638000D01*
X128688000Y-93592000D02*
X128735000Y-93546000D01*
X126391000Y-95890000D02*
X126426000Y-95854000D01*
X128495000Y-93376000D02*
X128530000Y-93341000D01*
X126186000Y-95684000D02*
X126233000Y-95638000D01*
X119901000Y-99876000D02*
X119901000Y-89955000D01*
X135021000Y-99876000D02*
X135021000Y-89955000D01*
X135021000Y-89955000D02*
X119901000Y-89955000D01*
X135021000Y-99876000D02*
X119901000Y-99876000D01*
X135021000Y-96916000D02*
X119901000Y-96916000D01*
X135021000Y-92015000D02*
X119901000Y-92015000D01*
X135021000Y-90515000D02*
X119901000Y-90515000D01*
X124141000Y-94615000D02*
G75*
G03X124141000Y-94615000I-1680000J0D01*
G01*
X129141000Y-94615000D02*
G75*
G03X129141000Y-94615000I-1680000J0D01*
G01*
X132432195Y-92934747D02*
G75*
G02X133145000Y-93080000I28805J-1680253D01*
G01*
X133996426Y-93931958D02*
G75*
G02X133996000Y-95299000I-1535426J-683042D01*
G01*
X133144042Y-96150426D02*
G75*
G02X131777000Y-96150000I-683042J1535426D01*
G01*
X130925574Y-95298042D02*
G75*
G02X130926000Y-93931000I1535426J683042D01*
G01*
X131777682Y-93080244D02*
G75*
G02X132461000Y-92935000I683318J-1534756D01*
G01*
X119354000Y-133853000D02*
X119854000Y-133853000D01*
X119354000Y-133113000D02*
X119354000Y-133853000D01*
X130927000Y-129976000D02*
X130880000Y-130022000D01*
X133224000Y-127678000D02*
X133189000Y-127714000D01*
X131120000Y-130192000D02*
X131085000Y-130227000D01*
X133429000Y-127884000D02*
X133382000Y-127930000D01*
X125927000Y-129976000D02*
X125880000Y-130022000D01*
X128224000Y-127678000D02*
X128189000Y-127714000D01*
X126120000Y-130192000D02*
X126085000Y-130227000D01*
X128429000Y-127884000D02*
X128382000Y-127930000D01*
X134714000Y-123692000D02*
X134714000Y-133613000D01*
X119594000Y-123692000D02*
X119594000Y-133613000D01*
X119594000Y-133613000D02*
X134714000Y-133613000D01*
X119594000Y-123692000D02*
X134714000Y-123692000D01*
X119594000Y-126652000D02*
X134714000Y-126652000D01*
X119594000Y-131553000D02*
X134714000Y-131553000D01*
X119594000Y-133053000D02*
X134714000Y-133053000D01*
X133834000Y-128953000D02*
G75*
G03X133834000Y-128953000I-1680000J0D01*
G01*
X128834000Y-128953000D02*
G75*
G03X128834000Y-128953000I-1680000J0D01*
G01*
X122182805Y-130633253D02*
G75*
G02X121470000Y-130488000I-28805J1680253D01*
G01*
X120618574Y-129636042D02*
G75*
G02X120619000Y-128269000I1535426J683042D01*
G01*
X121470958Y-127417574D02*
G75*
G02X122838000Y-127418000I683042J-1535426D01*
G01*
X123689426Y-128269958D02*
G75*
G02X123689000Y-129637000I-1535426J-683042D01*
G01*
X122837318Y-130487756D02*
G75*
G02X122154000Y-130633000I-683318J1534756D01*
G01*
X155609800Y-94821000D02*
G75*
G03X155609800Y-94821000I-1000000J0D01*
G01*
X155686000Y-91744800D02*
G75*
G03X155686000Y-91744800I-1000000J0D01*
G01*
X127271864Y-112069200D02*
X126067736Y-112069200D01*
X127271864Y-113889200D02*
X126067736Y-113889200D01*
X141725236Y-112847800D02*
X142929364Y-112847800D01*
X141725236Y-111027800D02*
X142929364Y-111027800D01*
X107623800Y-103405600D02*
X106623800Y-103405600D01*
X106623800Y-105105600D02*
X107623800Y-105105600D01*
X125993600Y-107705000D02*
X127193600Y-107705000D01*
X127193600Y-109465000D02*
X125993600Y-109465000D01*
X127088200Y-105502600D02*
X125888200Y-105502600D01*
X125888200Y-103742600D02*
X127088200Y-103742600D01*
X115150200Y-116805600D02*
X113950200Y-116805600D01*
X113950200Y-115045600D02*
X115150200Y-115045600D01*
X115150200Y-107204400D02*
X113950200Y-107204400D01*
X113950200Y-105444400D02*
X115150200Y-105444400D01*
X127359600Y-118191200D02*
X126159600Y-118191200D01*
X126159600Y-116431200D02*
X127359600Y-116431200D01*
X133271600Y-114450000D02*
X134471600Y-114450000D01*
X134471600Y-116210000D02*
X133271600Y-116210000D01*
D14*
X162554000Y-126253000D02*
X162554000Y-126553000D01*
X162554000Y-126553000D02*
X162254000Y-126553000D01*
X155754000Y-126253000D02*
X155754000Y-126553000D01*
X155754000Y-126553000D02*
X156054000Y-126553000D01*
X155754000Y-116853000D02*
X155754000Y-116553000D01*
X155754000Y-116553000D02*
X156054000Y-116553000D01*
X162554000Y-116853000D02*
X162554000Y-116553000D01*
X162554000Y-116553000D02*
X162254000Y-116553000D01*
D11*
X104680400Y-113925200D02*
X104680400Y-115325200D01*
X109780400Y-113925200D02*
X109780400Y-109775200D01*
X104630400Y-113925200D02*
X104630400Y-109775200D01*
X109780400Y-113925200D02*
X109635400Y-113925200D01*
X109780400Y-109775200D02*
X109635400Y-109775200D01*
X104630400Y-109775200D02*
X104775400Y-109775200D01*
X104630400Y-113925200D02*
X104680400Y-113925200D01*
D12*
X131350300Y-111435800D02*
X135410300Y-111435800D01*
X131350300Y-109165800D02*
X131350300Y-111435800D01*
X135410300Y-109165800D02*
X131350300Y-109165800D01*
X97954000Y-133953000D02*
X98454000Y-133953000D01*
X97954000Y-133213000D02*
X97954000Y-133953000D01*
X114527000Y-130076000D02*
X114480000Y-130122000D01*
X116824000Y-127778000D02*
X116789000Y-127814000D01*
X114720000Y-130292000D02*
X114685000Y-130327000D01*
X117029000Y-127984000D02*
X116982000Y-128030000D01*
X109527000Y-130076000D02*
X109480000Y-130122000D01*
X111824000Y-127778000D02*
X111789000Y-127814000D01*
X109720000Y-130292000D02*
X109685000Y-130327000D01*
X112029000Y-127984000D02*
X111982000Y-128030000D01*
X104527000Y-130076000D02*
X104480000Y-130122000D01*
X106824000Y-127778000D02*
X106789000Y-127814000D01*
X104720000Y-130292000D02*
X104685000Y-130327000D01*
X107029000Y-127984000D02*
X106982000Y-128030000D01*
X118315000Y-123792000D02*
X118315000Y-133713000D01*
X98194000Y-123792000D02*
X98194000Y-133713000D01*
X98194000Y-133713000D02*
X118315000Y-133713000D01*
X98194000Y-123792000D02*
X118315000Y-123792000D01*
X98194000Y-126752000D02*
X118315000Y-126752000D01*
X98194000Y-131653000D02*
X118315000Y-131653000D01*
X98194000Y-133153000D02*
X118315000Y-133153000D01*
X117434000Y-129053000D02*
G75*
G03X117434000Y-129053000I-1680000J0D01*
G01*
X112434000Y-129053000D02*
G75*
G03X112434000Y-129053000I-1680000J0D01*
G01*
X107434000Y-129053000D02*
G75*
G03X107434000Y-129053000I-1680000J0D01*
G01*
X100782805Y-130733253D02*
G75*
G02X100070000Y-130588000I-28805J1680253D01*
G01*
X99218574Y-129736042D02*
G75*
G02X99219000Y-128369000I1535426J683042D01*
G01*
X100070958Y-127517574D02*
G75*
G02X101438000Y-127518000I683042J-1535426D01*
G01*
X102289426Y-128369958D02*
G75*
G02X102289000Y-129737000I-1535426J-683042D01*
G01*
X101437318Y-130587756D02*
G75*
G02X100754000Y-130733000I-683318J1534756D01*
G01*
D15*
G36*
X148984706Y-110219199D02*
G01*
X149005773Y-110204427D01*
X149039687Y-110181293D01*
X149085469Y-110150445D01*
X149142138Y-110112537D01*
X149208716Y-110068218D01*
X149284222Y-110018140D01*
X149367676Y-109962955D01*
X149458100Y-109903313D01*
X149554513Y-109839866D01*
X149655936Y-109773264D01*
X149735233Y-109721286D01*
X149839794Y-109652722D01*
X149940085Y-109586805D01*
X150035125Y-109524187D01*
X150123935Y-109465520D01*
X150205535Y-109411457D01*
X150278945Y-109362649D01*
X150343186Y-109319751D01*
X150397277Y-109283413D01*
X150440239Y-109254289D01*
X150471092Y-109233031D01*
X150488856Y-109220291D01*
X150493000Y-109216713D01*
X150489716Y-109206238D01*
X150480289Y-109179251D01*
X150465351Y-109137497D01*
X150445536Y-109082719D01*
X150421479Y-109016662D01*
X150393813Y-108941070D01*
X150363173Y-108857687D01*
X150330192Y-108768258D01*
X150319371Y-108738985D01*
X150285877Y-108648209D01*
X150254620Y-108563082D01*
X150226221Y-108485324D01*
X150201300Y-108416656D01*
X150180478Y-108358798D01*
X150164378Y-108313468D01*
X150153618Y-108282389D01*
X150148821Y-108267278D01*
X150148650Y-108266091D01*
X150157274Y-108266607D01*
X150181761Y-108268934D01*
X150221120Y-108272961D01*
X150274360Y-108278582D01*
X150340489Y-108285686D01*
X150418516Y-108294166D01*
X150507450Y-108303912D01*
X150606300Y-108314816D01*
X150714073Y-108326769D01*
X150829780Y-108339662D01*
X150952428Y-108353387D01*
X151081027Y-108367835D01*
X151214585Y-108382897D01*
X151250960Y-108387008D01*
X151385683Y-108402212D01*
X151515718Y-108416823D01*
X151640074Y-108430733D01*
X151757757Y-108443833D01*
X151867777Y-108456015D01*
X151969142Y-108467172D01*
X152060859Y-108477193D01*
X152141937Y-108485973D01*
X152211385Y-108493401D01*
X152268209Y-108499371D01*
X152311419Y-108503773D01*
X152340022Y-108506499D01*
X152353027Y-108507442D01*
X152353734Y-108507378D01*
X152348771Y-108499501D01*
X152333374Y-108477854D01*
X152308369Y-108443547D01*
X152274580Y-108397691D01*
X152232834Y-108341395D01*
X152183957Y-108275768D01*
X152128774Y-108201921D01*
X152068111Y-108120962D01*
X152002794Y-108034002D01*
X151933649Y-107942151D01*
X151897070Y-107893640D01*
X151826165Y-107799617D01*
X151758550Y-107709877D01*
X151695062Y-107625535D01*
X151636538Y-107547710D01*
X151583816Y-107477516D01*
X151537733Y-107416070D01*
X151499128Y-107364489D01*
X151468837Y-107323888D01*
X151447698Y-107295384D01*
X151436549Y-107280094D01*
X151434981Y-107277749D01*
X151442196Y-107273190D01*
X151463480Y-107262669D01*
X151496982Y-107247008D01*
X151540850Y-107227031D01*
X151593233Y-107203559D01*
X151652278Y-107177414D01*
X151716134Y-107149419D01*
X151782950Y-107120396D01*
X151850873Y-107091167D01*
X151918051Y-107062556D01*
X151949142Y-107049428D01*
X151958037Y-107054401D01*
X151976595Y-107070225D01*
X152001965Y-107094331D01*
X152026926Y-107119586D01*
X152147638Y-107242158D01*
X152279038Y-107370477D01*
X152419628Y-107503312D01*
X152567909Y-107639435D01*
X152722384Y-107777615D01*
X152881553Y-107916622D01*
X153043918Y-108055227D01*
X153207982Y-108192199D01*
X153372245Y-108326310D01*
X153535210Y-108456328D01*
X153695378Y-108581024D01*
X153851251Y-108699169D01*
X154001330Y-108809532D01*
X154144117Y-108910884D01*
X154278114Y-109001994D01*
X154401823Y-109081634D01*
X154462049Y-109118380D01*
X154482154Y-109132642D01*
X154492949Y-109144844D01*
X154493471Y-109149291D01*
X154484892Y-109157559D01*
X154464523Y-109174137D01*
X154435023Y-109196946D01*
X154399051Y-109223908D01*
X154380989Y-109237188D01*
X154217826Y-109350550D01*
X154047204Y-109457420D01*
X153868177Y-109558181D01*
X153679800Y-109653219D01*
X153481127Y-109742918D01*
X153271213Y-109827664D01*
X153049112Y-109907840D01*
X152813880Y-109983833D01*
X152564571Y-110056026D01*
X152300238Y-110124804D01*
X152061450Y-110181228D01*
X152010064Y-110193095D01*
X151964832Y-110204000D01*
X151928210Y-110213314D01*
X151902652Y-110220406D01*
X151890614Y-110224646D01*
X151890000Y-110225226D01*
X151897852Y-110228777D01*
X151919487Y-110235105D01*
X151952024Y-110243453D01*
X151992581Y-110253062D01*
X152014883Y-110258084D01*
X152302716Y-110325398D01*
X152574680Y-110396456D01*
X152831589Y-110471587D01*
X153074254Y-110551118D01*
X153303491Y-110635378D01*
X153520111Y-110724695D01*
X153724929Y-110819398D01*
X153918758Y-110919814D01*
X154102411Y-111026272D01*
X154276702Y-111139099D01*
X154380989Y-111212813D01*
X154419052Y-111240992D01*
X154451871Y-111265977D01*
X154476788Y-111285691D01*
X154491143Y-111298056D01*
X154493471Y-111300710D01*
X154489538Y-111310095D01*
X154474102Y-111323697D01*
X154462049Y-111331621D01*
X154345094Y-111404284D01*
X154217048Y-111489037D01*
X154079409Y-111584652D01*
X153933677Y-111689897D01*
X153781350Y-111803541D01*
X153623928Y-111924356D01*
X153462909Y-112051109D01*
X153299793Y-112182572D01*
X153136079Y-112317513D01*
X152973266Y-112454702D01*
X152812852Y-112592908D01*
X152656337Y-112730903D01*
X152505220Y-112867454D01*
X152361000Y-113001332D01*
X152225175Y-113131306D01*
X152099246Y-113256146D01*
X152026926Y-113330295D01*
X151997994Y-113359485D01*
X151973427Y-113382588D01*
X151956073Y-113397033D01*
X151949099Y-113400573D01*
X151891432Y-113376245D01*
X151830003Y-113349986D01*
X151766797Y-113322676D01*
X151703796Y-113295196D01*
X151642985Y-113268428D01*
X151586347Y-113243253D01*
X151535865Y-113220551D01*
X151493522Y-113201205D01*
X151461302Y-113186095D01*
X151441188Y-113176104D01*
X151435080Y-113172189D01*
X151440872Y-113163958D01*
X151457074Y-113141953D01*
X151482851Y-113107289D01*
X151517363Y-113061083D01*
X151559776Y-113004452D01*
X151609249Y-112938513D01*
X151664948Y-112864380D01*
X151726033Y-112783172D01*
X151791669Y-112696004D01*
X151861017Y-112603993D01*
X151897027Y-112556248D01*
X151967808Y-112462323D01*
X152035183Y-112372724D01*
X152098327Y-112288560D01*
X152156414Y-112210940D01*
X152208619Y-112140975D01*
X152254115Y-112079774D01*
X152292078Y-112028446D01*
X152321680Y-111988101D01*
X152342097Y-111959850D01*
X152352502Y-111944802D01*
X152353687Y-111942567D01*
X152345011Y-111943022D01*
X152320471Y-111945288D01*
X152281061Y-111949258D01*
X152227772Y-111954824D01*
X152161595Y-111961877D01*
X152083523Y-111970309D01*
X151994547Y-111980012D01*
X151895659Y-111990878D01*
X151787851Y-112002797D01*
X151672114Y-112015663D01*
X151549441Y-112029366D01*
X151433100Y-112042421D01*
X151433100Y-110738978D01*
X151429660Y-110733495D01*
X151416710Y-110716700D01*
X151396562Y-110691546D01*
X151382300Y-110674060D01*
X151352552Y-110634886D01*
X151323111Y-110591260D01*
X151299333Y-110551229D01*
X151294945Y-110542813D01*
X151264238Y-110474026D01*
X151243392Y-110407338D01*
X151231077Y-110336549D01*
X151225959Y-110255457D01*
X151225627Y-110220020D01*
X151226236Y-110164918D01*
X151228263Y-110123639D01*
X151232424Y-110090102D01*
X151239434Y-110058225D01*
X151248311Y-110027432D01*
X151280411Y-109939552D01*
X151320653Y-109862075D01*
X151372860Y-109787834D01*
X151382300Y-109776117D01*
X151405585Y-109747370D01*
X151423039Y-109725254D01*
X151432354Y-109712723D01*
X151433100Y-109711022D01*
X151424515Y-109714293D01*
X151400940Y-109723044D01*
X151363556Y-109736840D01*
X151313542Y-109755250D01*
X151252079Y-109777839D01*
X151180346Y-109804175D01*
X151099526Y-109833823D01*
X151010796Y-109866350D01*
X150915339Y-109901324D01*
X150814333Y-109938310D01*
X150736552Y-109966779D01*
X150632304Y-110004985D01*
X150532822Y-110041555D01*
X150439275Y-110076053D01*
X150352835Y-110108041D01*
X150274671Y-110137083D01*
X150205955Y-110162742D01*
X150147857Y-110184581D01*
X150101547Y-110202164D01*
X150068197Y-110215053D01*
X150048976Y-110222812D01*
X150044537Y-110225000D01*
X150052430Y-110228639D01*
X150075327Y-110237734D01*
X150112059Y-110251849D01*
X150161454Y-110270547D01*
X150222343Y-110293392D01*
X150293553Y-110319946D01*
X150373916Y-110349772D01*
X150462261Y-110382435D01*
X150557416Y-110417497D01*
X150658211Y-110454521D01*
X150736552Y-110483221D01*
X150840909Y-110521420D01*
X150940594Y-110557928D01*
X151034425Y-110592311D01*
X151121223Y-110624135D01*
X151199808Y-110652969D01*
X151268998Y-110678377D01*
X151327615Y-110699927D01*
X151374477Y-110717186D01*
X151408405Y-110729720D01*
X151428218Y-110737095D01*
X151433100Y-110738978D01*
X151433100Y-112042421D01*
X151420823Y-112043799D01*
X151287253Y-112058853D01*
X151250930Y-112062957D01*
X151116212Y-112078161D01*
X150986188Y-112092778D01*
X150861847Y-112106699D01*
X150744183Y-112119817D01*
X150634186Y-112132022D01*
X150532847Y-112143206D01*
X150441159Y-112153261D01*
X150360112Y-112162077D01*
X150290698Y-112169546D01*
X150233908Y-112175560D01*
X150190733Y-112180010D01*
X150162166Y-112182786D01*
X150149197Y-112183782D01*
X150148500Y-112183732D01*
X150151193Y-112174192D01*
X150160051Y-112148119D01*
X150174453Y-112107232D01*
X150193780Y-112053251D01*
X150217411Y-111987896D01*
X150244726Y-111912887D01*
X150275106Y-111829943D01*
X150307930Y-111740784D01*
X150319246Y-111710146D01*
X150352838Y-111619128D01*
X150384290Y-111533625D01*
X150412972Y-111455376D01*
X150438249Y-111386123D01*
X150459489Y-111327605D01*
X150476058Y-111281563D01*
X150487323Y-111249738D01*
X150492652Y-111233870D01*
X150493000Y-111232443D01*
X150485759Y-111226645D01*
X150464691Y-111211835D01*
X150430775Y-111188664D01*
X150384990Y-111157784D01*
X150328318Y-111119846D01*
X150261736Y-111075502D01*
X150186226Y-111025404D01*
X150102766Y-110970202D01*
X150012338Y-110910549D01*
X149915919Y-110847096D01*
X149814492Y-110780494D01*
X149735233Y-110728548D01*
X149630675Y-110660006D01*
X149530388Y-110594125D01*
X149435350Y-110531559D01*
X149346542Y-110472957D01*
X149264943Y-110418970D01*
X149191533Y-110370250D01*
X149127293Y-110327448D01*
X149073201Y-110291215D01*
X149030237Y-110262202D01*
X148999382Y-110241060D01*
X148981614Y-110228441D01*
X148977467Y-110224955D01*
X148984706Y-110219199D01*
X148984706Y-110219199D01*
G37*
X148984706Y-110219199D02*
X149005773Y-110204427D01*
X149039687Y-110181293D01*
X149085469Y-110150445D01*
X149142138Y-110112537D01*
X149208716Y-110068218D01*
X149284222Y-110018140D01*
X149367676Y-109962955D01*
X149458100Y-109903313D01*
X149554513Y-109839866D01*
X149655936Y-109773264D01*
X149735233Y-109721286D01*
X149839794Y-109652722D01*
X149940085Y-109586805D01*
X150035125Y-109524187D01*
X150123935Y-109465520D01*
X150205535Y-109411457D01*
X150278945Y-109362649D01*
X150343186Y-109319751D01*
X150397277Y-109283413D01*
X150440239Y-109254289D01*
X150471092Y-109233031D01*
X150488856Y-109220291D01*
X150493000Y-109216713D01*
X150489716Y-109206238D01*
X150480289Y-109179251D01*
X150465351Y-109137497D01*
X150445536Y-109082719D01*
X150421479Y-109016662D01*
X150393813Y-108941070D01*
X150363173Y-108857687D01*
X150330192Y-108768258D01*
X150319371Y-108738985D01*
X150285877Y-108648209D01*
X150254620Y-108563082D01*
X150226221Y-108485324D01*
X150201300Y-108416656D01*
X150180478Y-108358798D01*
X150164378Y-108313468D01*
X150153618Y-108282389D01*
X150148821Y-108267278D01*
X150148650Y-108266091D01*
X150157274Y-108266607D01*
X150181761Y-108268934D01*
X150221120Y-108272961D01*
X150274360Y-108278582D01*
X150340489Y-108285686D01*
X150418516Y-108294166D01*
X150507450Y-108303912D01*
X150606300Y-108314816D01*
X150714073Y-108326769D01*
X150829780Y-108339662D01*
X150952428Y-108353387D01*
X151081027Y-108367835D01*
X151214585Y-108382897D01*
X151250960Y-108387008D01*
X151385683Y-108402212D01*
X151515718Y-108416823D01*
X151640074Y-108430733D01*
X151757757Y-108443833D01*
X151867777Y-108456015D01*
X151969142Y-108467172D01*
X152060859Y-108477193D01*
X152141937Y-108485973D01*
X152211385Y-108493401D01*
X152268209Y-108499371D01*
X152311419Y-108503773D01*
X152340022Y-108506499D01*
X152353027Y-108507442D01*
X152353734Y-108507378D01*
X152348771Y-108499501D01*
X152333374Y-108477854D01*
X152308369Y-108443547D01*
X152274580Y-108397691D01*
X152232834Y-108341395D01*
X152183957Y-108275768D01*
X152128774Y-108201921D01*
X152068111Y-108120962D01*
X152002794Y-108034002D01*
X151933649Y-107942151D01*
X151897070Y-107893640D01*
X151826165Y-107799617D01*
X151758550Y-107709877D01*
X151695062Y-107625535D01*
X151636538Y-107547710D01*
X151583816Y-107477516D01*
X151537733Y-107416070D01*
X151499128Y-107364489D01*
X151468837Y-107323888D01*
X151447698Y-107295384D01*
X151436549Y-107280094D01*
X151434981Y-107277749D01*
X151442196Y-107273190D01*
X151463480Y-107262669D01*
X151496982Y-107247008D01*
X151540850Y-107227031D01*
X151593233Y-107203559D01*
X151652278Y-107177414D01*
X151716134Y-107149419D01*
X151782950Y-107120396D01*
X151850873Y-107091167D01*
X151918051Y-107062556D01*
X151949142Y-107049428D01*
X151958037Y-107054401D01*
X151976595Y-107070225D01*
X152001965Y-107094331D01*
X152026926Y-107119586D01*
X152147638Y-107242158D01*
X152279038Y-107370477D01*
X152419628Y-107503312D01*
X152567909Y-107639435D01*
X152722384Y-107777615D01*
X152881553Y-107916622D01*
X153043918Y-108055227D01*
X153207982Y-108192199D01*
X153372245Y-108326310D01*
X153535210Y-108456328D01*
X153695378Y-108581024D01*
X153851251Y-108699169D01*
X154001330Y-108809532D01*
X154144117Y-108910884D01*
X154278114Y-109001994D01*
X154401823Y-109081634D01*
X154462049Y-109118380D01*
X154482154Y-109132642D01*
X154492949Y-109144844D01*
X154493471Y-109149291D01*
X154484892Y-109157559D01*
X154464523Y-109174137D01*
X154435023Y-109196946D01*
X154399051Y-109223908D01*
X154380989Y-109237188D01*
X154217826Y-109350550D01*
X154047204Y-109457420D01*
X153868177Y-109558181D01*
X153679800Y-109653219D01*
X153481127Y-109742918D01*
X153271213Y-109827664D01*
X153049112Y-109907840D01*
X152813880Y-109983833D01*
X152564571Y-110056026D01*
X152300238Y-110124804D01*
X152061450Y-110181228D01*
X152010064Y-110193095D01*
X151964832Y-110204000D01*
X151928210Y-110213314D01*
X151902652Y-110220406D01*
X151890614Y-110224646D01*
X151890000Y-110225226D01*
X151897852Y-110228777D01*
X151919487Y-110235105D01*
X151952024Y-110243453D01*
X151992581Y-110253062D01*
X152014883Y-110258084D01*
X152302716Y-110325398D01*
X152574680Y-110396456D01*
X152831589Y-110471587D01*
X153074254Y-110551118D01*
X153303491Y-110635378D01*
X153520111Y-110724695D01*
X153724929Y-110819398D01*
X153918758Y-110919814D01*
X154102411Y-111026272D01*
X154276702Y-111139099D01*
X154380989Y-111212813D01*
X154419052Y-111240992D01*
X154451871Y-111265977D01*
X154476788Y-111285691D01*
X154491143Y-111298056D01*
X154493471Y-111300710D01*
X154489538Y-111310095D01*
X154474102Y-111323697D01*
X154462049Y-111331621D01*
X154345094Y-111404284D01*
X154217048Y-111489037D01*
X154079409Y-111584652D01*
X153933677Y-111689897D01*
X153781350Y-111803541D01*
X153623928Y-111924356D01*
X153462909Y-112051109D01*
X153299793Y-112182572D01*
X153136079Y-112317513D01*
X152973266Y-112454702D01*
X152812852Y-112592908D01*
X152656337Y-112730903D01*
X152505220Y-112867454D01*
X152361000Y-113001332D01*
X152225175Y-113131306D01*
X152099246Y-113256146D01*
X152026926Y-113330295D01*
X151997994Y-113359485D01*
X151973427Y-113382588D01*
X151956073Y-113397033D01*
X151949099Y-113400573D01*
X151891432Y-113376245D01*
X151830003Y-113349986D01*
X151766797Y-113322676D01*
X151703796Y-113295196D01*
X151642985Y-113268428D01*
X151586347Y-113243253D01*
X151535865Y-113220551D01*
X151493522Y-113201205D01*
X151461302Y-113186095D01*
X151441188Y-113176104D01*
X151435080Y-113172189D01*
X151440872Y-113163958D01*
X151457074Y-113141953D01*
X151482851Y-113107289D01*
X151517363Y-113061083D01*
X151559776Y-113004452D01*
X151609249Y-112938513D01*
X151664948Y-112864380D01*
X151726033Y-112783172D01*
X151791669Y-112696004D01*
X151861017Y-112603993D01*
X151897027Y-112556248D01*
X151967808Y-112462323D01*
X152035183Y-112372724D01*
X152098327Y-112288560D01*
X152156414Y-112210940D01*
X152208619Y-112140975D01*
X152254115Y-112079774D01*
X152292078Y-112028446D01*
X152321680Y-111988101D01*
X152342097Y-111959850D01*
X152352502Y-111944802D01*
X152353687Y-111942567D01*
X152345011Y-111943022D01*
X152320471Y-111945288D01*
X152281061Y-111949258D01*
X152227772Y-111954824D01*
X152161595Y-111961877D01*
X152083523Y-111970309D01*
X151994547Y-111980012D01*
X151895659Y-111990878D01*
X151787851Y-112002797D01*
X151672114Y-112015663D01*
X151549441Y-112029366D01*
X151433100Y-112042421D01*
X151433100Y-110738978D01*
X151429660Y-110733495D01*
X151416710Y-110716700D01*
X151396562Y-110691546D01*
X151382300Y-110674060D01*
X151352552Y-110634886D01*
X151323111Y-110591260D01*
X151299333Y-110551229D01*
X151294945Y-110542813D01*
X151264238Y-110474026D01*
X151243392Y-110407338D01*
X151231077Y-110336549D01*
X151225959Y-110255457D01*
X151225627Y-110220020D01*
X151226236Y-110164918D01*
X151228263Y-110123639D01*
X151232424Y-110090102D01*
X151239434Y-110058225D01*
X151248311Y-110027432D01*
X151280411Y-109939552D01*
X151320653Y-109862075D01*
X151372860Y-109787834D01*
X151382300Y-109776117D01*
X151405585Y-109747370D01*
X151423039Y-109725254D01*
X151432354Y-109712723D01*
X151433100Y-109711022D01*
X151424515Y-109714293D01*
X151400940Y-109723044D01*
X151363556Y-109736840D01*
X151313542Y-109755250D01*
X151252079Y-109777839D01*
X151180346Y-109804175D01*
X151099526Y-109833823D01*
X151010796Y-109866350D01*
X150915339Y-109901324D01*
X150814333Y-109938310D01*
X150736552Y-109966779D01*
X150632304Y-110004985D01*
X150532822Y-110041555D01*
X150439275Y-110076053D01*
X150352835Y-110108041D01*
X150274671Y-110137083D01*
X150205955Y-110162742D01*
X150147857Y-110184581D01*
X150101547Y-110202164D01*
X150068197Y-110215053D01*
X150048976Y-110222812D01*
X150044537Y-110225000D01*
X150052430Y-110228639D01*
X150075327Y-110237734D01*
X150112059Y-110251849D01*
X150161454Y-110270547D01*
X150222343Y-110293392D01*
X150293553Y-110319946D01*
X150373916Y-110349772D01*
X150462261Y-110382435D01*
X150557416Y-110417497D01*
X150658211Y-110454521D01*
X150736552Y-110483221D01*
X150840909Y-110521420D01*
X150940594Y-110557928D01*
X151034425Y-110592311D01*
X151121223Y-110624135D01*
X151199808Y-110652969D01*
X151268998Y-110678377D01*
X151327615Y-110699927D01*
X151374477Y-110717186D01*
X151408405Y-110729720D01*
X151428218Y-110737095D01*
X151433100Y-110738978D01*
X151433100Y-112042421D01*
X151420823Y-112043799D01*
X151287253Y-112058853D01*
X151250930Y-112062957D01*
X151116212Y-112078161D01*
X150986188Y-112092778D01*
X150861847Y-112106699D01*
X150744183Y-112119817D01*
X150634186Y-112132022D01*
X150532847Y-112143206D01*
X150441159Y-112153261D01*
X150360112Y-112162077D01*
X150290698Y-112169546D01*
X150233908Y-112175560D01*
X150190733Y-112180010D01*
X150162166Y-112182786D01*
X150149197Y-112183782D01*
X150148500Y-112183732D01*
X150151193Y-112174192D01*
X150160051Y-112148119D01*
X150174453Y-112107232D01*
X150193780Y-112053251D01*
X150217411Y-111987896D01*
X150244726Y-111912887D01*
X150275106Y-111829943D01*
X150307930Y-111740784D01*
X150319246Y-111710146D01*
X150352838Y-111619128D01*
X150384290Y-111533625D01*
X150412972Y-111455376D01*
X150438249Y-111386123D01*
X150459489Y-111327605D01*
X150476058Y-111281563D01*
X150487323Y-111249738D01*
X150492652Y-111233870D01*
X150493000Y-111232443D01*
X150485759Y-111226645D01*
X150464691Y-111211835D01*
X150430775Y-111188664D01*
X150384990Y-111157784D01*
X150328318Y-111119846D01*
X150261736Y-111075502D01*
X150186226Y-111025404D01*
X150102766Y-110970202D01*
X150012338Y-110910549D01*
X149915919Y-110847096D01*
X149814492Y-110780494D01*
X149735233Y-110728548D01*
X149630675Y-110660006D01*
X149530388Y-110594125D01*
X149435350Y-110531559D01*
X149346542Y-110472957D01*
X149264943Y-110418970D01*
X149191533Y-110370250D01*
X149127293Y-110327448D01*
X149073201Y-110291215D01*
X149030237Y-110262202D01*
X148999382Y-110241060D01*
X148981614Y-110228441D01*
X148977467Y-110224955D01*
X148984706Y-110219199D01*
G36*
X151877446Y-115033211D02*
G01*
X151881321Y-115005371D01*
X151887851Y-114961921D01*
X151896713Y-114904824D01*
X151907582Y-114836046D01*
X151920135Y-114757551D01*
X151934050Y-114671303D01*
X151949002Y-114579267D01*
X151964669Y-114483406D01*
X151980726Y-114385686D01*
X151996851Y-114288071D01*
X152012719Y-114192525D01*
X152028009Y-114101013D01*
X152042396Y-114015499D01*
X152055556Y-113937947D01*
X152067167Y-113870322D01*
X152076906Y-113814589D01*
X152084447Y-113772711D01*
X152089470Y-113746654D01*
X152091325Y-113738842D01*
X152100396Y-113726322D01*
X152121568Y-113703716D01*
X152153179Y-113672547D01*
X152193568Y-113634338D01*
X152241075Y-113590610D01*
X152294037Y-113542887D01*
X152350794Y-113492690D01*
X152409684Y-113441543D01*
X152469047Y-113390967D01*
X152491133Y-113372424D01*
X152678841Y-113218974D01*
X152873020Y-113066856D01*
X153072388Y-112916844D01*
X153275666Y-112769718D01*
X153481572Y-112626253D01*
X153688824Y-112487228D01*
X153896142Y-112353420D01*
X154102245Y-112225605D01*
X154305852Y-112104561D01*
X154505682Y-111991066D01*
X154700453Y-111885897D01*
X154888885Y-111789830D01*
X155069696Y-111703644D01*
X155241606Y-111628115D01*
X155403334Y-111564021D01*
X155553598Y-111512139D01*
X155560923Y-111509837D01*
X155663146Y-111477874D01*
X155582022Y-111386829D01*
X155399836Y-111189284D01*
X155219477Y-111008170D01*
X155037874Y-110840851D01*
X154851954Y-110684690D01*
X154658644Y-110537049D01*
X154454871Y-110395291D01*
X154338983Y-110319995D01*
X154295470Y-110291969D01*
X154257619Y-110266839D01*
X154227766Y-110246218D01*
X154208248Y-110231719D01*
X154201400Y-110225000D01*
X154208493Y-110218085D01*
X154228217Y-110203463D01*
X154258233Y-110182747D01*
X154296206Y-110157551D01*
X154338983Y-110130006D01*
X154549668Y-109990365D01*
X154748227Y-109846273D01*
X154937733Y-109695094D01*
X155121257Y-109534192D01*
X155301873Y-109360928D01*
X155482653Y-109172667D01*
X155582055Y-109063134D01*
X155663213Y-108972051D01*
X155590590Y-108949677D01*
X155432864Y-108896432D01*
X155263746Y-108830595D01*
X155084449Y-108752873D01*
X154896188Y-108663974D01*
X154700179Y-108564604D01*
X154497635Y-108455470D01*
X154289773Y-108337280D01*
X154077805Y-108210741D01*
X153862948Y-108076559D01*
X153646415Y-107935443D01*
X153429422Y-107788098D01*
X153213183Y-107635231D01*
X152998913Y-107477551D01*
X152800260Y-107325481D01*
X152712053Y-107255979D01*
X152625256Y-107186343D01*
X152541024Y-107117579D01*
X152460510Y-107050695D01*
X152384867Y-106986699D01*
X152315248Y-106926597D01*
X152252807Y-106871397D01*
X152198695Y-106822106D01*
X152154068Y-106779730D01*
X152120077Y-106745278D01*
X152097876Y-106719757D01*
X152088619Y-106704172D01*
X152088552Y-106703863D01*
X152083772Y-106678072D01*
X152076467Y-106636439D01*
X152066958Y-106580929D01*
X152055566Y-106513502D01*
X152042610Y-106436122D01*
X152028411Y-106350750D01*
X152013290Y-106259348D01*
X151997568Y-106163880D01*
X151981565Y-106066306D01*
X151965601Y-105968589D01*
X151949997Y-105872692D01*
X151935074Y-105780577D01*
X151921152Y-105694206D01*
X151908551Y-105615541D01*
X151897593Y-105546544D01*
X151888598Y-105489178D01*
X151881886Y-105445405D01*
X151877778Y-105417187D01*
X151876594Y-105406486D01*
X151876610Y-105406452D01*
X151885249Y-105408134D01*
X151909119Y-105414442D01*
X151947055Y-105425035D01*
X151997888Y-105439572D01*
X152060454Y-105457712D01*
X152133585Y-105479113D01*
X152216114Y-105503434D01*
X152306875Y-105530332D01*
X152404701Y-105559468D01*
X152508425Y-105590499D01*
X152616882Y-105623084D01*
X152617901Y-105623391D01*
X152726356Y-105655993D01*
X152830057Y-105687064D01*
X152927841Y-105716262D01*
X153018545Y-105743245D01*
X153101005Y-105767669D01*
X153174059Y-105789193D01*
X153236543Y-105807472D01*
X153287293Y-105822165D01*
X153325147Y-105832929D01*
X153348941Y-105839420D01*
X153357512Y-105841297D01*
X153357518Y-105841291D01*
X153362135Y-105831974D01*
X153374092Y-105807325D01*
X153392416Y-105769367D01*
X153416132Y-105720123D01*
X153444267Y-105661614D01*
X153475845Y-105595863D01*
X153502396Y-105540527D01*
X153536103Y-105470778D01*
X153567401Y-105407035D01*
X153595285Y-105351265D01*
X153618749Y-105305439D01*
X153636789Y-105271525D01*
X153648398Y-105251492D01*
X153652364Y-105246777D01*
X153657742Y-105255307D01*
X153671881Y-105279666D01*
X153694297Y-105318988D01*
X153724508Y-105372411D01*
X153762031Y-105439070D01*
X153806383Y-105518102D01*
X153857081Y-105608643D01*
X153913643Y-105709829D01*
X153975585Y-105820797D01*
X154042425Y-105940681D01*
X154113680Y-106068620D01*
X154188866Y-106203748D01*
X154267502Y-106345202D01*
X154349104Y-106492119D01*
X154433190Y-106643633D01*
X154439025Y-106654153D01*
X154523288Y-106805965D01*
X154605130Y-106953234D01*
X154684068Y-107095096D01*
X154759615Y-107230688D01*
X154831289Y-107359145D01*
X154898603Y-107479603D01*
X154961074Y-107591198D01*
X155018217Y-107693068D01*
X155069547Y-107784346D01*
X155114579Y-107864170D01*
X155152829Y-107931676D01*
X155183813Y-107986000D01*
X155207044Y-108026277D01*
X155222040Y-108051644D01*
X155228315Y-108061238D01*
X155228411Y-108061295D01*
X155238195Y-108058865D01*
X155262618Y-108050881D01*
X155300195Y-108037876D01*
X155349443Y-108020386D01*
X155408876Y-107998944D01*
X155477011Y-107974085D01*
X155552363Y-107946344D01*
X155633448Y-107916254D01*
X155691641Y-107894523D01*
X155775857Y-107863069D01*
X155855391Y-107833506D01*
X155928755Y-107806378D01*
X155994457Y-107782229D01*
X156051007Y-107761603D01*
X156096917Y-107745045D01*
X156130696Y-107733099D01*
X156150853Y-107726309D01*
X156156025Y-107724915D01*
X156163520Y-107731011D01*
X156163518Y-107751588D01*
X156162753Y-107757216D01*
X156161154Y-107771058D01*
X156157672Y-107803443D01*
X156152436Y-107853137D01*
X156145572Y-107918901D01*
X156137209Y-107999500D01*
X156127474Y-108093696D01*
X156116494Y-108200254D01*
X156104396Y-108317936D01*
X156091309Y-108445505D01*
X156077359Y-108581726D01*
X156062674Y-108725362D01*
X156047382Y-108875175D01*
X156034029Y-109006179D01*
X155910102Y-110222770D01*
X156033740Y-111436611D01*
X156049436Y-111590629D01*
X156064634Y-111739590D01*
X156079206Y-111882247D01*
X156093024Y-112017358D01*
X156105959Y-112143676D01*
X156117885Y-112259958D01*
X156128672Y-112364958D01*
X156138194Y-112457432D01*
X156146323Y-112536134D01*
X156152930Y-112599821D01*
X156157888Y-112647246D01*
X156161069Y-112677167D01*
X156162266Y-112687804D01*
X156163714Y-112714566D01*
X156158520Y-112724887D01*
X156156704Y-112725157D01*
X156146905Y-112722219D01*
X156122456Y-112713763D01*
X156084837Y-112700332D01*
X156035529Y-112682465D01*
X155976013Y-112660704D01*
X155907770Y-112635590D01*
X155832280Y-112607664D01*
X155751025Y-112577465D01*
X155690533Y-112554900D01*
X155606169Y-112523494D01*
X155526577Y-112494083D01*
X155453228Y-112467195D01*
X155387594Y-112443360D01*
X155331146Y-112423106D01*
X155285355Y-112406963D01*
X155251692Y-112395459D01*
X155231630Y-112389123D01*
X155226437Y-112388056D01*
X155220978Y-112396632D01*
X155206759Y-112421035D01*
X155184264Y-112460402D01*
X155153975Y-112513867D01*
X155116376Y-112580568D01*
X155071951Y-112659639D01*
X155021183Y-112750218D01*
X154964554Y-112851439D01*
X154902550Y-112962439D01*
X154835652Y-113082353D01*
X154764345Y-113210318D01*
X154689112Y-113345469D01*
X154610436Y-113486942D01*
X154528801Y-113633873D01*
X154444689Y-113785399D01*
X154438852Y-113795920D01*
X154354599Y-113947715D01*
X154272800Y-114094971D01*
X154193935Y-114236824D01*
X154118489Y-114372410D01*
X154046943Y-114500866D01*
X153979781Y-114621327D01*
X153917485Y-114732931D01*
X153860539Y-114834813D01*
X153809424Y-114926110D01*
X153764624Y-115005958D01*
X153726622Y-115073494D01*
X153695900Y-115127854D01*
X153672940Y-115168174D01*
X153658226Y-115193591D01*
X153652241Y-115203240D01*
X153652162Y-115203303D01*
X153646399Y-115195637D01*
X153633416Y-115172528D01*
X153614214Y-115135945D01*
X153589799Y-115087860D01*
X153561173Y-115030242D01*
X153529339Y-114965064D01*
X153502563Y-114909481D01*
X153469002Y-114839450D01*
X153438107Y-114775076D01*
X153410855Y-114718385D01*
X153388219Y-114671398D01*
X153371174Y-114636141D01*
X153360695Y-114614637D01*
X153357704Y-114608710D01*
X153349287Y-114610532D01*
X153325634Y-114616973D01*
X153287909Y-114627690D01*
X153237275Y-114642340D01*
X153174896Y-114660581D01*
X153101935Y-114682070D01*
X153019557Y-114706464D01*
X152928925Y-114733420D01*
X152831202Y-114762597D01*
X152727553Y-114793650D01*
X152619140Y-114826237D01*
X152617901Y-114826610D01*
X152509405Y-114859207D01*
X152405629Y-114890252D01*
X152307739Y-114919403D01*
X152216903Y-114946319D01*
X152134287Y-114970659D01*
X152061058Y-114992081D01*
X151998383Y-115010245D01*
X151947429Y-115024808D01*
X151909361Y-115035429D01*
X151885348Y-115041768D01*
X151876555Y-115043483D01*
X151876548Y-115043476D01*
X151877446Y-115033211D01*
X151877446Y-115033211D01*
G37*
X151877446Y-115033211D02*
X151881321Y-115005371D01*
X151887851Y-114961921D01*
X151896713Y-114904824D01*
X151907582Y-114836046D01*
X151920135Y-114757551D01*
X151934050Y-114671303D01*
X151949002Y-114579267D01*
X151964669Y-114483406D01*
X151980726Y-114385686D01*
X151996851Y-114288071D01*
X152012719Y-114192525D01*
X152028009Y-114101013D01*
X152042396Y-114015499D01*
X152055556Y-113937947D01*
X152067167Y-113870322D01*
X152076906Y-113814589D01*
X152084447Y-113772711D01*
X152089470Y-113746654D01*
X152091325Y-113738842D01*
X152100396Y-113726322D01*
X152121568Y-113703716D01*
X152153179Y-113672547D01*
X152193568Y-113634338D01*
X152241075Y-113590610D01*
X152294037Y-113542887D01*
X152350794Y-113492690D01*
X152409684Y-113441543D01*
X152469047Y-113390967D01*
X152491133Y-113372424D01*
X152678841Y-113218974D01*
X152873020Y-113066856D01*
X153072388Y-112916844D01*
X153275666Y-112769718D01*
X153481572Y-112626253D01*
X153688824Y-112487228D01*
X153896142Y-112353420D01*
X154102245Y-112225605D01*
X154305852Y-112104561D01*
X154505682Y-111991066D01*
X154700453Y-111885897D01*
X154888885Y-111789830D01*
X155069696Y-111703644D01*
X155241606Y-111628115D01*
X155403334Y-111564021D01*
X155553598Y-111512139D01*
X155560923Y-111509837D01*
X155663146Y-111477874D01*
X155582022Y-111386829D01*
X155399836Y-111189284D01*
X155219477Y-111008170D01*
X155037874Y-110840851D01*
X154851954Y-110684690D01*
X154658644Y-110537049D01*
X154454871Y-110395291D01*
X154338983Y-110319995D01*
X154295470Y-110291969D01*
X154257619Y-110266839D01*
X154227766Y-110246218D01*
X154208248Y-110231719D01*
X154201400Y-110225000D01*
X154208493Y-110218085D01*
X154228217Y-110203463D01*
X154258233Y-110182747D01*
X154296206Y-110157551D01*
X154338983Y-110130006D01*
X154549668Y-109990365D01*
X154748227Y-109846273D01*
X154937733Y-109695094D01*
X155121257Y-109534192D01*
X155301873Y-109360928D01*
X155482653Y-109172667D01*
X155582055Y-109063134D01*
X155663213Y-108972051D01*
X155590590Y-108949677D01*
X155432864Y-108896432D01*
X155263746Y-108830595D01*
X155084449Y-108752873D01*
X154896188Y-108663974D01*
X154700179Y-108564604D01*
X154497635Y-108455470D01*
X154289773Y-108337280D01*
X154077805Y-108210741D01*
X153862948Y-108076559D01*
X153646415Y-107935443D01*
X153429422Y-107788098D01*
X153213183Y-107635231D01*
X152998913Y-107477551D01*
X152800260Y-107325481D01*
X152712053Y-107255979D01*
X152625256Y-107186343D01*
X152541024Y-107117579D01*
X152460510Y-107050695D01*
X152384867Y-106986699D01*
X152315248Y-106926597D01*
X152252807Y-106871397D01*
X152198695Y-106822106D01*
X152154068Y-106779730D01*
X152120077Y-106745278D01*
X152097876Y-106719757D01*
X152088619Y-106704172D01*
X152088552Y-106703863D01*
X152083772Y-106678072D01*
X152076467Y-106636439D01*
X152066958Y-106580929D01*
X152055566Y-106513502D01*
X152042610Y-106436122D01*
X152028411Y-106350750D01*
X152013290Y-106259348D01*
X151997568Y-106163880D01*
X151981565Y-106066306D01*
X151965601Y-105968589D01*
X151949997Y-105872692D01*
X151935074Y-105780577D01*
X151921152Y-105694206D01*
X151908551Y-105615541D01*
X151897593Y-105546544D01*
X151888598Y-105489178D01*
X151881886Y-105445405D01*
X151877778Y-105417187D01*
X151876594Y-105406486D01*
X151876610Y-105406452D01*
X151885249Y-105408134D01*
X151909119Y-105414442D01*
X151947055Y-105425035D01*
X151997888Y-105439572D01*
X152060454Y-105457712D01*
X152133585Y-105479113D01*
X152216114Y-105503434D01*
X152306875Y-105530332D01*
X152404701Y-105559468D01*
X152508425Y-105590499D01*
X152616882Y-105623084D01*
X152617901Y-105623391D01*
X152726356Y-105655993D01*
X152830057Y-105687064D01*
X152927841Y-105716262D01*
X153018545Y-105743245D01*
X153101005Y-105767669D01*
X153174059Y-105789193D01*
X153236543Y-105807472D01*
X153287293Y-105822165D01*
X153325147Y-105832929D01*
X153348941Y-105839420D01*
X153357512Y-105841297D01*
X153357518Y-105841291D01*
X153362135Y-105831974D01*
X153374092Y-105807325D01*
X153392416Y-105769367D01*
X153416132Y-105720123D01*
X153444267Y-105661614D01*
X153475845Y-105595863D01*
X153502396Y-105540527D01*
X153536103Y-105470778D01*
X153567401Y-105407035D01*
X153595285Y-105351265D01*
X153618749Y-105305439D01*
X153636789Y-105271525D01*
X153648398Y-105251492D01*
X153652364Y-105246777D01*
X153657742Y-105255307D01*
X153671881Y-105279666D01*
X153694297Y-105318988D01*
X153724508Y-105372411D01*
X153762031Y-105439070D01*
X153806383Y-105518102D01*
X153857081Y-105608643D01*
X153913643Y-105709829D01*
X153975585Y-105820797D01*
X154042425Y-105940681D01*
X154113680Y-106068620D01*
X154188866Y-106203748D01*
X154267502Y-106345202D01*
X154349104Y-106492119D01*
X154433190Y-106643633D01*
X154439025Y-106654153D01*
X154523288Y-106805965D01*
X154605130Y-106953234D01*
X154684068Y-107095096D01*
X154759615Y-107230688D01*
X154831289Y-107359145D01*
X154898603Y-107479603D01*
X154961074Y-107591198D01*
X155018217Y-107693068D01*
X155069547Y-107784346D01*
X155114579Y-107864170D01*
X155152829Y-107931676D01*
X155183813Y-107986000D01*
X155207044Y-108026277D01*
X155222040Y-108051644D01*
X155228315Y-108061238D01*
X155228411Y-108061295D01*
X155238195Y-108058865D01*
X155262618Y-108050881D01*
X155300195Y-108037876D01*
X155349443Y-108020386D01*
X155408876Y-107998944D01*
X155477011Y-107974085D01*
X155552363Y-107946344D01*
X155633448Y-107916254D01*
X155691641Y-107894523D01*
X155775857Y-107863069D01*
X155855391Y-107833506D01*
X155928755Y-107806378D01*
X155994457Y-107782229D01*
X156051007Y-107761603D01*
X156096917Y-107745045D01*
X156130696Y-107733099D01*
X156150853Y-107726309D01*
X156156025Y-107724915D01*
X156163520Y-107731011D01*
X156163518Y-107751588D01*
X156162753Y-107757216D01*
X156161154Y-107771058D01*
X156157672Y-107803443D01*
X156152436Y-107853137D01*
X156145572Y-107918901D01*
X156137209Y-107999500D01*
X156127474Y-108093696D01*
X156116494Y-108200254D01*
X156104396Y-108317936D01*
X156091309Y-108445505D01*
X156077359Y-108581726D01*
X156062674Y-108725362D01*
X156047382Y-108875175D01*
X156034029Y-109006179D01*
X155910102Y-110222770D01*
X156033740Y-111436611D01*
X156049436Y-111590629D01*
X156064634Y-111739590D01*
X156079206Y-111882247D01*
X156093024Y-112017358D01*
X156105959Y-112143676D01*
X156117885Y-112259958D01*
X156128672Y-112364958D01*
X156138194Y-112457432D01*
X156146323Y-112536134D01*
X156152930Y-112599821D01*
X156157888Y-112647246D01*
X156161069Y-112677167D01*
X156162266Y-112687804D01*
X156163714Y-112714566D01*
X156158520Y-112724887D01*
X156156704Y-112725157D01*
X156146905Y-112722219D01*
X156122456Y-112713763D01*
X156084837Y-112700332D01*
X156035529Y-112682465D01*
X155976013Y-112660704D01*
X155907770Y-112635590D01*
X155832280Y-112607664D01*
X155751025Y-112577465D01*
X155690533Y-112554900D01*
X155606169Y-112523494D01*
X155526577Y-112494083D01*
X155453228Y-112467195D01*
X155387594Y-112443360D01*
X155331146Y-112423106D01*
X155285355Y-112406963D01*
X155251692Y-112395459D01*
X155231630Y-112389123D01*
X155226437Y-112388056D01*
X155220978Y-112396632D01*
X155206759Y-112421035D01*
X155184264Y-112460402D01*
X155153975Y-112513867D01*
X155116376Y-112580568D01*
X155071951Y-112659639D01*
X155021183Y-112750218D01*
X154964554Y-112851439D01*
X154902550Y-112962439D01*
X154835652Y-113082353D01*
X154764345Y-113210318D01*
X154689112Y-113345469D01*
X154610436Y-113486942D01*
X154528801Y-113633873D01*
X154444689Y-113785399D01*
X154438852Y-113795920D01*
X154354599Y-113947715D01*
X154272800Y-114094971D01*
X154193935Y-114236824D01*
X154118489Y-114372410D01*
X154046943Y-114500866D01*
X153979781Y-114621327D01*
X153917485Y-114732931D01*
X153860539Y-114834813D01*
X153809424Y-114926110D01*
X153764624Y-115005958D01*
X153726622Y-115073494D01*
X153695900Y-115127854D01*
X153672940Y-115168174D01*
X153658226Y-115193591D01*
X153652241Y-115203240D01*
X153652162Y-115203303D01*
X153646399Y-115195637D01*
X153633416Y-115172528D01*
X153614214Y-115135945D01*
X153589799Y-115087860D01*
X153561173Y-115030242D01*
X153529339Y-114965064D01*
X153502563Y-114909481D01*
X153469002Y-114839450D01*
X153438107Y-114775076D01*
X153410855Y-114718385D01*
X153388219Y-114671398D01*
X153371174Y-114636141D01*
X153360695Y-114614637D01*
X153357704Y-114608710D01*
X153349287Y-114610532D01*
X153325634Y-114616973D01*
X153287909Y-114627690D01*
X153237275Y-114642340D01*
X153174896Y-114660581D01*
X153101935Y-114682070D01*
X153019557Y-114706464D01*
X152928925Y-114733420D01*
X152831202Y-114762597D01*
X152727553Y-114793650D01*
X152619140Y-114826237D01*
X152617901Y-114826610D01*
X152509405Y-114859207D01*
X152405629Y-114890252D01*
X152307739Y-114919403D01*
X152216903Y-114946319D01*
X152134287Y-114970659D01*
X152061058Y-114992081D01*
X151998383Y-115010245D01*
X151947429Y-115024808D01*
X151909361Y-115035429D01*
X151885348Y-115041768D01*
X151876555Y-115043483D01*
X151876548Y-115043476D01*
X151877446Y-115033211D01*
G36*
X157147800Y-108870334D02*
G01*
X157147800Y-108402177D01*
X157317133Y-108402177D01*
X157317133Y-109089471D01*
X156512800Y-109089471D01*
X156512800Y-108870334D01*
X157147800Y-108870334D01*
X157147800Y-108870334D01*
G37*
X157147800Y-108870334D02*
X157147800Y-108402177D01*
X157317133Y-108402177D01*
X157317133Y-109089471D01*
X156512800Y-109089471D01*
X156512800Y-108870334D01*
X157147800Y-108870334D01*
G36*
X156512918Y-109711319D02*
G01*
X156513370Y-109646953D01*
X156514301Y-109596808D01*
X156515857Y-109558034D01*
X156518185Y-109527782D01*
X156521430Y-109503202D01*
X156525738Y-109481444D01*
X156529529Y-109466123D01*
X156555784Y-109396331D01*
X156594361Y-109340188D01*
X156645359Y-109297556D01*
X156653767Y-109292501D01*
X156682645Y-109277709D01*
X156709563Y-109269281D01*
X156741529Y-109265550D01*
X156769966Y-109264844D01*
X156807917Y-109266218D01*
X156844198Y-109270192D01*
X156871615Y-109275943D01*
X156873961Y-109276711D01*
X156905393Y-109294153D01*
X156940470Y-109323615D01*
X156974214Y-109359976D01*
X157001644Y-109398112D01*
X157013041Y-109419809D01*
X157029839Y-109458546D01*
X157082469Y-109415156D01*
X157115321Y-109388221D01*
X157152557Y-109357925D01*
X157191301Y-109326584D01*
X157228674Y-109296510D01*
X157261800Y-109270016D01*
X157287800Y-109249416D01*
X157303797Y-109237023D01*
X157306550Y-109235019D01*
X157311049Y-109236199D01*
X157314123Y-109248576D01*
X157315974Y-109274512D01*
X157316805Y-109316374D01*
X157316891Y-109355334D01*
X157316649Y-109482922D01*
X157190234Y-109582530D01*
X157063818Y-109682138D01*
X157063476Y-109759334D01*
X157063133Y-109836530D01*
X157317133Y-109836530D01*
X157317133Y-110055667D01*
X156673666Y-110055667D01*
X156673666Y-109836530D01*
X156893800Y-109836530D01*
X156893787Y-109709530D01*
X156893273Y-109651806D01*
X156891501Y-109609932D01*
X156888099Y-109579863D01*
X156882697Y-109557554D01*
X156878970Y-109547667D01*
X156855191Y-109511832D01*
X156822677Y-109489585D01*
X156785730Y-109481799D01*
X156748653Y-109489348D01*
X156715746Y-109513108D01*
X156714689Y-109514282D01*
X156697598Y-109540345D01*
X156685512Y-109575854D01*
X156677894Y-109623637D01*
X156674211Y-109686526D01*
X156673666Y-109731372D01*
X156673666Y-109836530D01*
X156673666Y-110055667D01*
X156512800Y-110055667D01*
X156512800Y-109792755D01*
X156512918Y-109711319D01*
X156512918Y-109711319D01*
G37*
X156512918Y-109711319D02*
X156513370Y-109646953D01*
X156514301Y-109596808D01*
X156515857Y-109558034D01*
X156518185Y-109527782D01*
X156521430Y-109503202D01*
X156525738Y-109481444D01*
X156529529Y-109466123D01*
X156555784Y-109396331D01*
X156594361Y-109340188D01*
X156645359Y-109297556D01*
X156653767Y-109292501D01*
X156682645Y-109277709D01*
X156709563Y-109269281D01*
X156741529Y-109265550D01*
X156769966Y-109264844D01*
X156807917Y-109266218D01*
X156844198Y-109270192D01*
X156871615Y-109275943D01*
X156873961Y-109276711D01*
X156905393Y-109294153D01*
X156940470Y-109323615D01*
X156974214Y-109359976D01*
X157001644Y-109398112D01*
X157013041Y-109419809D01*
X157029839Y-109458546D01*
X157082469Y-109415156D01*
X157115321Y-109388221D01*
X157152557Y-109357925D01*
X157191301Y-109326584D01*
X157228674Y-109296510D01*
X157261800Y-109270016D01*
X157287800Y-109249416D01*
X157303797Y-109237023D01*
X157306550Y-109235019D01*
X157311049Y-109236199D01*
X157314123Y-109248576D01*
X157315974Y-109274512D01*
X157316805Y-109316374D01*
X157316891Y-109355334D01*
X157316649Y-109482922D01*
X157190234Y-109582530D01*
X157063818Y-109682138D01*
X157063476Y-109759334D01*
X157063133Y-109836530D01*
X157317133Y-109836530D01*
X157317133Y-110055667D01*
X156673666Y-110055667D01*
X156673666Y-109836530D01*
X156893800Y-109836530D01*
X156893787Y-109709530D01*
X156893273Y-109651806D01*
X156891501Y-109609932D01*
X156888099Y-109579863D01*
X156882697Y-109557554D01*
X156878970Y-109547667D01*
X156855191Y-109511832D01*
X156822677Y-109489585D01*
X156785730Y-109481799D01*
X156748653Y-109489348D01*
X156715746Y-109513108D01*
X156714689Y-109514282D01*
X156697598Y-109540345D01*
X156685512Y-109575854D01*
X156677894Y-109623637D01*
X156674211Y-109686526D01*
X156673666Y-109731372D01*
X156673666Y-109836530D01*
X156673666Y-110055667D01*
X156512800Y-110055667D01*
X156512800Y-109792755D01*
X156512918Y-109711319D01*
G36*
X156673666Y-110234961D02*
G01*
X156673666Y-110742961D01*
X156826066Y-110742961D01*
X156826066Y-110294726D01*
X156995400Y-110294726D01*
X156995400Y-110742961D01*
X157147800Y-110742961D01*
X157147800Y-110225000D01*
X157317133Y-110225000D01*
X157317133Y-110952138D01*
X156512800Y-110952138D01*
X156512800Y-110234961D01*
X156673666Y-110234961D01*
X156673666Y-110234961D01*
G37*
X156673666Y-110234961D02*
X156673666Y-110742961D01*
X156826066Y-110742961D01*
X156826066Y-110294726D01*
X156995400Y-110294726D01*
X156995400Y-110742961D01*
X157147800Y-110742961D01*
X157147800Y-110225000D01*
X157317133Y-110225000D01*
X157317133Y-110952138D01*
X156512800Y-110952138D01*
X156512800Y-110234961D01*
X156673666Y-110234961D01*
G36*
X156682133Y-111101549D02*
G01*
X156682133Y-111390412D01*
X157317133Y-111390412D01*
X157317133Y-111599589D01*
X156682133Y-111599589D01*
X156682133Y-111888451D01*
X156512800Y-111888451D01*
X156512800Y-111101549D01*
X156682133Y-111101549D01*
X156682133Y-111101549D01*
G37*
X156682133Y-111101549D02*
X156682133Y-111390412D01*
X157317133Y-111390412D01*
X157317133Y-111599589D01*
X156682133Y-111599589D01*
X156682133Y-111888451D01*
X156512800Y-111888451D01*
X156512800Y-111101549D01*
X156682133Y-111101549D01*
G36*
X157312900Y-111879814D02*
G01*
X157315307Y-111990371D01*
X157315711Y-112035474D01*
X157314961Y-112073018D01*
X157313214Y-112098665D01*
X157311074Y-112107856D01*
X157300824Y-112114175D01*
X157278393Y-112125763D01*
X157247419Y-112140792D01*
X157221883Y-112152711D01*
X157139333Y-112190637D01*
X157139333Y-112583515D01*
X157228233Y-112625549D01*
X157317133Y-112667584D01*
X157317133Y-112776057D01*
X157316451Y-112820846D01*
X157314590Y-112856312D01*
X157311827Y-112878655D01*
X157309197Y-112884530D01*
X157300078Y-112880738D01*
X157276890Y-112869852D01*
X157241130Y-112852608D01*
X157194300Y-112829744D01*
X157137900Y-112801995D01*
X157073430Y-112770097D01*
X157002389Y-112734786D01*
X156963650Y-112715452D01*
X156963650Y-112496149D01*
X156966190Y-112486819D01*
X156968247Y-112461574D01*
X156969590Y-112424420D01*
X156970000Y-112385425D01*
X156969789Y-112337289D01*
X156968856Y-112305904D01*
X156966750Y-112288103D01*
X156963019Y-112280719D01*
X156957212Y-112280583D01*
X156955183Y-112281399D01*
X156914753Y-112299787D01*
X156872710Y-112319515D01*
X156832006Y-112339124D01*
X156795593Y-112357153D01*
X156766424Y-112372144D01*
X156747450Y-112382637D01*
X156741531Y-112387007D01*
X156748792Y-112392280D01*
X156768386Y-112403184D01*
X156796896Y-112418041D01*
X156830903Y-112435172D01*
X156866990Y-112452897D01*
X156901738Y-112469536D01*
X156931729Y-112483409D01*
X156953546Y-112492838D01*
X156963650Y-112496149D01*
X156963650Y-112715452D01*
X156926278Y-112696799D01*
X156904913Y-112686109D01*
X156508566Y-112487689D01*
X156508566Y-112282596D01*
X157312900Y-111879814D01*
X157312900Y-111879814D01*
G37*
X157312900Y-111879814D02*
X157315307Y-111990371D01*
X157315711Y-112035474D01*
X157314961Y-112073018D01*
X157313214Y-112098665D01*
X157311074Y-112107856D01*
X157300824Y-112114175D01*
X157278393Y-112125763D01*
X157247419Y-112140792D01*
X157221883Y-112152711D01*
X157139333Y-112190637D01*
X157139333Y-112583515D01*
X157228233Y-112625549D01*
X157317133Y-112667584D01*
X157317133Y-112776057D01*
X157316451Y-112820846D01*
X157314590Y-112856312D01*
X157311827Y-112878655D01*
X157309197Y-112884530D01*
X157300078Y-112880738D01*
X157276890Y-112869852D01*
X157241130Y-112852608D01*
X157194300Y-112829744D01*
X157137900Y-112801995D01*
X157073430Y-112770097D01*
X157002389Y-112734786D01*
X156963650Y-112715452D01*
X156963650Y-112496149D01*
X156966190Y-112486819D01*
X156968247Y-112461574D01*
X156969590Y-112424420D01*
X156970000Y-112385425D01*
X156969789Y-112337289D01*
X156968856Y-112305904D01*
X156966750Y-112288103D01*
X156963019Y-112280719D01*
X156957212Y-112280583D01*
X156955183Y-112281399D01*
X156914753Y-112299787D01*
X156872710Y-112319515D01*
X156832006Y-112339124D01*
X156795593Y-112357153D01*
X156766424Y-112372144D01*
X156747450Y-112382637D01*
X156741531Y-112387007D01*
X156748792Y-112392280D01*
X156768386Y-112403184D01*
X156796896Y-112418041D01*
X156830903Y-112435172D01*
X156866990Y-112452897D01*
X156901738Y-112469536D01*
X156931729Y-112483409D01*
X156953546Y-112492838D01*
X156963650Y-112496149D01*
X156963650Y-112715452D01*
X156926278Y-112696799D01*
X156904913Y-112686109D01*
X156508566Y-112487689D01*
X156508566Y-112282596D01*
X157312900Y-111879814D01*
G36*
X156764683Y-113328677D02*
G01*
X156827035Y-113304090D01*
X156883904Y-113281320D01*
X156933380Y-113261159D01*
X156973555Y-113244397D01*
X157002520Y-113231828D01*
X157018367Y-113224241D01*
X157020800Y-113222469D01*
X157013020Y-113218192D01*
X156990997Y-113208939D01*
X156956705Y-113195465D01*
X156912117Y-113178527D01*
X156859206Y-113158882D01*
X156799948Y-113137285D01*
X156775512Y-113128486D01*
X156713799Y-113106232D01*
X156657186Y-113085614D01*
X156607745Y-113067404D01*
X156567544Y-113052370D01*
X156538655Y-113041282D01*
X156523146Y-113034910D01*
X156521222Y-113033909D01*
X156517051Y-113020602D01*
X156514695Y-112989110D01*
X156514246Y-112941066D01*
X156514626Y-112917348D01*
X156517033Y-112807333D01*
X156917083Y-112966714D01*
X157317133Y-113126094D01*
X157317133Y-113318279D01*
X157073716Y-113416625D01*
X157012744Y-113441377D01*
X156956966Y-113464246D01*
X156908393Y-113484390D01*
X156869037Y-113500967D01*
X156840912Y-113513132D01*
X156826028Y-113520043D01*
X156824254Y-113521125D01*
X156830419Y-113525754D01*
X156850751Y-113535950D01*
X156883380Y-113550886D01*
X156926435Y-113569736D01*
X156978046Y-113591672D01*
X157036341Y-113615867D01*
X157065554Y-113627800D01*
X157312900Y-113728318D01*
X157315325Y-113824558D01*
X157315874Y-113872913D01*
X157314458Y-113904148D01*
X157310850Y-113920960D01*
X157306858Y-113925608D01*
X157293602Y-113931116D01*
X157266807Y-113941965D01*
X157228351Y-113957411D01*
X157180111Y-113976708D01*
X157123966Y-113999111D01*
X157061792Y-114023874D01*
X156995467Y-114050254D01*
X156926870Y-114077505D01*
X156857877Y-114104881D01*
X156790366Y-114131637D01*
X156726214Y-114157029D01*
X156667300Y-114180312D01*
X156615500Y-114200739D01*
X156572693Y-114217566D01*
X156540756Y-114230049D01*
X156521566Y-114237441D01*
X156516667Y-114239196D01*
X156515134Y-114229892D01*
X156514247Y-114204584D01*
X156514074Y-114167177D01*
X156514648Y-114123272D01*
X156517033Y-114007347D01*
X156768916Y-113916860D01*
X156830961Y-113894405D01*
X156887456Y-113873640D01*
X156936454Y-113855304D01*
X156976007Y-113840139D01*
X157004170Y-113828887D01*
X157018994Y-113822288D01*
X157020800Y-113820996D01*
X157013075Y-113816663D01*
X156991172Y-113806895D01*
X156956999Y-113792479D01*
X156912464Y-113774203D01*
X156859477Y-113752853D01*
X156799944Y-113729217D01*
X156764683Y-113715363D01*
X156508566Y-113615108D01*
X156508566Y-113428932D01*
X156764683Y-113328677D01*
X156764683Y-113328677D01*
G37*
X156764683Y-113328677D02*
X156827035Y-113304090D01*
X156883904Y-113281320D01*
X156933380Y-113261159D01*
X156973555Y-113244397D01*
X157002520Y-113231828D01*
X157018367Y-113224241D01*
X157020800Y-113222469D01*
X157013020Y-113218192D01*
X156990997Y-113208939D01*
X156956705Y-113195465D01*
X156912117Y-113178527D01*
X156859206Y-113158882D01*
X156799948Y-113137285D01*
X156775512Y-113128486D01*
X156713799Y-113106232D01*
X156657186Y-113085614D01*
X156607745Y-113067404D01*
X156567544Y-113052370D01*
X156538655Y-113041282D01*
X156523146Y-113034910D01*
X156521222Y-113033909D01*
X156517051Y-113020602D01*
X156514695Y-112989110D01*
X156514246Y-112941066D01*
X156514626Y-112917348D01*
X156517033Y-112807333D01*
X156917083Y-112966714D01*
X157317133Y-113126094D01*
X157317133Y-113318279D01*
X157073716Y-113416625D01*
X157012744Y-113441377D01*
X156956966Y-113464246D01*
X156908393Y-113484390D01*
X156869037Y-113500967D01*
X156840912Y-113513132D01*
X156826028Y-113520043D01*
X156824254Y-113521125D01*
X156830419Y-113525754D01*
X156850751Y-113535950D01*
X156883380Y-113550886D01*
X156926435Y-113569736D01*
X156978046Y-113591672D01*
X157036341Y-113615867D01*
X157065554Y-113627800D01*
X157312900Y-113728318D01*
X157315325Y-113824558D01*
X157315874Y-113872913D01*
X157314458Y-113904148D01*
X157310850Y-113920960D01*
X157306858Y-113925608D01*
X157293602Y-113931116D01*
X157266807Y-113941965D01*
X157228351Y-113957411D01*
X157180111Y-113976708D01*
X157123966Y-113999111D01*
X157061792Y-114023874D01*
X156995467Y-114050254D01*
X156926870Y-114077505D01*
X156857877Y-114104881D01*
X156790366Y-114131637D01*
X156726214Y-114157029D01*
X156667300Y-114180312D01*
X156615500Y-114200739D01*
X156572693Y-114217566D01*
X156540756Y-114230049D01*
X156521566Y-114237441D01*
X156516667Y-114239196D01*
X156515134Y-114229892D01*
X156514247Y-114204584D01*
X156514074Y-114167177D01*
X156514648Y-114123272D01*
X156517033Y-114007347D01*
X156768916Y-113916860D01*
X156830961Y-113894405D01*
X156887456Y-113873640D01*
X156936454Y-113855304D01*
X156976007Y-113840139D01*
X157004170Y-113828887D01*
X157018994Y-113822288D01*
X157020800Y-113820996D01*
X157013075Y-113816663D01*
X156991172Y-113806895D01*
X156956999Y-113792479D01*
X156912464Y-113774203D01*
X156859477Y-113752853D01*
X156799944Y-113729217D01*
X156764683Y-113715363D01*
X156508566Y-113615108D01*
X156508566Y-113428932D01*
X156764683Y-113328677D01*
G36*
X156499229Y-106588661D02*
G01*
X156515083Y-106497367D01*
X156544508Y-106410925D01*
X156587581Y-106332244D01*
X156602788Y-106311092D01*
X156650396Y-106256291D01*
X156700437Y-106215547D01*
X156759191Y-106184026D01*
X156777891Y-106176260D01*
X156858674Y-106154171D01*
X156938526Y-106150877D01*
X157015679Y-106165278D01*
X157088364Y-106196271D01*
X157154812Y-106242756D01*
X157213256Y-106303630D01*
X157261925Y-106377792D01*
X157299052Y-106464142D01*
X157312092Y-106508945D01*
X157322179Y-106570251D01*
X157325836Y-106641848D01*
X157323213Y-106715690D01*
X157314461Y-106783730D01*
X157306331Y-106818412D01*
X157277972Y-106898827D01*
X157242409Y-106966347D01*
X157197829Y-107025661D01*
X157136653Y-107082839D01*
X157068121Y-107123701D01*
X156994543Y-107148286D01*
X156923907Y-107156009D01*
X156923907Y-106926484D01*
X156974220Y-106919770D01*
X157017098Y-106904930D01*
X157025033Y-106900517D01*
X157076214Y-106858830D01*
X157115683Y-106805003D01*
X157142342Y-106742218D01*
X157155092Y-106673653D01*
X157152835Y-106602489D01*
X157143330Y-106558158D01*
X157117807Y-106498961D01*
X157080298Y-106450430D01*
X157033606Y-106413524D01*
X156980529Y-106389199D01*
X156923869Y-106378413D01*
X156866426Y-106382121D01*
X156811002Y-106401282D01*
X156768136Y-106429948D01*
X156722968Y-106479464D01*
X156690454Y-106538431D01*
X156671351Y-106603485D01*
X156666422Y-106671264D01*
X156676425Y-106738403D01*
X156689778Y-106776675D01*
X156715740Y-106820423D01*
X156752624Y-106862127D01*
X156794701Y-106896101D01*
X156827832Y-106913729D01*
X156872872Y-106924620D01*
X156923907Y-106926484D01*
X156923907Y-107156009D01*
X156918233Y-107156630D01*
X156841502Y-107148772D01*
X156766663Y-107124749D01*
X156696027Y-107084601D01*
X156631908Y-107028365D01*
X156620924Y-107016177D01*
X156570039Y-106944225D01*
X156532352Y-106862590D01*
X156507939Y-106774180D01*
X156496873Y-106681901D01*
X156499229Y-106588661D01*
X156499229Y-106588661D01*
G37*
X156499229Y-106588661D02*
X156515083Y-106497367D01*
X156544508Y-106410925D01*
X156587581Y-106332244D01*
X156602788Y-106311092D01*
X156650396Y-106256291D01*
X156700437Y-106215547D01*
X156759191Y-106184026D01*
X156777891Y-106176260D01*
X156858674Y-106154171D01*
X156938526Y-106150877D01*
X157015679Y-106165278D01*
X157088364Y-106196271D01*
X157154812Y-106242756D01*
X157213256Y-106303630D01*
X157261925Y-106377792D01*
X157299052Y-106464142D01*
X157312092Y-106508945D01*
X157322179Y-106570251D01*
X157325836Y-106641848D01*
X157323213Y-106715690D01*
X157314461Y-106783730D01*
X157306331Y-106818412D01*
X157277972Y-106898827D01*
X157242409Y-106966347D01*
X157197829Y-107025661D01*
X157136653Y-107082839D01*
X157068121Y-107123701D01*
X156994543Y-107148286D01*
X156923907Y-107156009D01*
X156923907Y-106926484D01*
X156974220Y-106919770D01*
X157017098Y-106904930D01*
X157025033Y-106900517D01*
X157076214Y-106858830D01*
X157115683Y-106805003D01*
X157142342Y-106742218D01*
X157155092Y-106673653D01*
X157152835Y-106602489D01*
X157143330Y-106558158D01*
X157117807Y-106498961D01*
X157080298Y-106450430D01*
X157033606Y-106413524D01*
X156980529Y-106389199D01*
X156923869Y-106378413D01*
X156866426Y-106382121D01*
X156811002Y-106401282D01*
X156768136Y-106429948D01*
X156722968Y-106479464D01*
X156690454Y-106538431D01*
X156671351Y-106603485D01*
X156666422Y-106671264D01*
X156676425Y-106738403D01*
X156689778Y-106776675D01*
X156715740Y-106820423D01*
X156752624Y-106862127D01*
X156794701Y-106896101D01*
X156827832Y-106913729D01*
X156872872Y-106924620D01*
X156923907Y-106926484D01*
X156923907Y-107156009D01*
X156918233Y-107156630D01*
X156841502Y-107148772D01*
X156766663Y-107124749D01*
X156696027Y-107084601D01*
X156631908Y-107028365D01*
X156620924Y-107016177D01*
X156570039Y-106944225D01*
X156532352Y-106862590D01*
X156507939Y-106774180D01*
X156496873Y-106681901D01*
X156499229Y-106588661D01*
G36*
X156503507Y-107693340D02*
G01*
X156525670Y-107599252D01*
X156561220Y-107514691D01*
X156609022Y-107441177D01*
X156667939Y-107380230D01*
X156736836Y-107333369D01*
X156814576Y-107302112D01*
X156873541Y-107290343D01*
X156953228Y-107290378D01*
X157031393Y-107309172D01*
X157105396Y-107345605D01*
X157172597Y-107398558D01*
X157201583Y-107429423D01*
X157252810Y-107499186D01*
X157289521Y-107572749D01*
X157312824Y-107653429D01*
X157323826Y-107744543D01*
X157325043Y-107799152D01*
X157323340Y-107847645D01*
X157319321Y-107895977D01*
X157313765Y-107935387D01*
X157312201Y-107942939D01*
X157283603Y-108030619D01*
X157240628Y-108109946D01*
X157185091Y-108178384D01*
X157118811Y-108233402D01*
X157092218Y-108249688D01*
X157060030Y-108266805D01*
X157033419Y-108277911D01*
X157006397Y-108284615D01*
X156972973Y-108288521D01*
X156939676Y-108290604D01*
X156911693Y-108290154D01*
X156911693Y-108066581D01*
X156950056Y-108065523D01*
X156979198Y-108060294D01*
X157006711Y-108049077D01*
X157023782Y-108039765D01*
X157074379Y-108000473D01*
X157113822Y-107949066D01*
X157141082Y-107888840D01*
X157155128Y-107823090D01*
X157154933Y-107755112D01*
X157139468Y-107688200D01*
X157136238Y-107679640D01*
X157103609Y-107619513D01*
X157059820Y-107571999D01*
X157007634Y-107538376D01*
X156949817Y-107519922D01*
X156889134Y-107517916D01*
X156828348Y-107533636D01*
X156824267Y-107535386D01*
X156768628Y-107568472D01*
X156724804Y-107614538D01*
X156694550Y-107666518D01*
X156680823Y-107698764D01*
X156673182Y-107727568D01*
X156669958Y-107761440D01*
X156669436Y-107794569D01*
X156670467Y-107837546D01*
X156674686Y-107869233D01*
X156683779Y-107898185D01*
X156694834Y-107923291D01*
X156731874Y-107983378D01*
X156778804Y-108027338D01*
X156835415Y-108055031D01*
X156901492Y-108066316D01*
X156911693Y-108066581D01*
X156911693Y-108290154D01*
X156859547Y-108289315D01*
X156790195Y-108275455D01*
X156728380Y-108247624D01*
X156670860Y-108204426D01*
X156622116Y-108153638D01*
X156567226Y-108076343D01*
X156527831Y-107991030D01*
X156504017Y-107897945D01*
X156495869Y-107797330D01*
X156495866Y-107795438D01*
X156503507Y-107693340D01*
X156503507Y-107693340D01*
G37*
X156503507Y-107693340D02*
X156525670Y-107599252D01*
X156561220Y-107514691D01*
X156609022Y-107441177D01*
X156667939Y-107380230D01*
X156736836Y-107333369D01*
X156814576Y-107302112D01*
X156873541Y-107290343D01*
X156953228Y-107290378D01*
X157031393Y-107309172D01*
X157105396Y-107345605D01*
X157172597Y-107398558D01*
X157201583Y-107429423D01*
X157252810Y-107499186D01*
X157289521Y-107572749D01*
X157312824Y-107653429D01*
X157323826Y-107744543D01*
X157325043Y-107799152D01*
X157323340Y-107847645D01*
X157319321Y-107895977D01*
X157313765Y-107935387D01*
X157312201Y-107942939D01*
X157283603Y-108030619D01*
X157240628Y-108109946D01*
X157185091Y-108178384D01*
X157118811Y-108233402D01*
X157092218Y-108249688D01*
X157060030Y-108266805D01*
X157033419Y-108277911D01*
X157006397Y-108284615D01*
X156972973Y-108288521D01*
X156939676Y-108290604D01*
X156911693Y-108290154D01*
X156911693Y-108066581D01*
X156950056Y-108065523D01*
X156979198Y-108060294D01*
X157006711Y-108049077D01*
X157023782Y-108039765D01*
X157074379Y-108000473D01*
X157113822Y-107949066D01*
X157141082Y-107888840D01*
X157155128Y-107823090D01*
X157154933Y-107755112D01*
X157139468Y-107688200D01*
X157136238Y-107679640D01*
X157103609Y-107619513D01*
X157059820Y-107571999D01*
X157007634Y-107538376D01*
X156949817Y-107519922D01*
X156889134Y-107517916D01*
X156828348Y-107533636D01*
X156824267Y-107535386D01*
X156768628Y-107568472D01*
X156724804Y-107614538D01*
X156694550Y-107666518D01*
X156680823Y-107698764D01*
X156673182Y-107727568D01*
X156669958Y-107761440D01*
X156669436Y-107794569D01*
X156670467Y-107837546D01*
X156674686Y-107869233D01*
X156683779Y-107898185D01*
X156694834Y-107923291D01*
X156731874Y-107983378D01*
X156778804Y-108027338D01*
X156835415Y-108055031D01*
X156901492Y-108066316D01*
X156911693Y-108066581D01*
X156911693Y-108290154D01*
X156859547Y-108289315D01*
X156790195Y-108275455D01*
X156728380Y-108247624D01*
X156670860Y-108204426D01*
X156622116Y-108153638D01*
X156567226Y-108076343D01*
X156527831Y-107991030D01*
X156504017Y-107897945D01*
X156495869Y-107797330D01*
X156495866Y-107795438D01*
X156503507Y-107693340D01*
G36*
X157740366Y-106988257D02*
G01*
X157790899Y-106948166D01*
X157836296Y-106911681D01*
X157874803Y-106880252D01*
X157904667Y-106855325D01*
X157924131Y-106838350D01*
X157931441Y-106830774D01*
X157931423Y-106830571D01*
X157923753Y-106824063D01*
X157903934Y-106807843D01*
X157873816Y-106783406D01*
X157835247Y-106752249D01*
X157790077Y-106715869D01*
X157740155Y-106675763D01*
X157738907Y-106674761D01*
X157549967Y-106523158D01*
X157547463Y-106456628D01*
X157546980Y-106423177D01*
X157548116Y-106399287D01*
X157550625Y-106390099D01*
X157550644Y-106390098D01*
X157558711Y-106395553D01*
X157579062Y-106411050D01*
X157610056Y-106435295D01*
X157650057Y-106466988D01*
X157697424Y-106504834D01*
X157750519Y-106547536D01*
X157796035Y-106584334D01*
X158035741Y-106778569D01*
X158350067Y-106778569D01*
X158350067Y-106888138D01*
X158037851Y-106888138D01*
X157815075Y-107068721D01*
X157759598Y-107113706D01*
X157707690Y-107155820D01*
X157661243Y-107193530D01*
X157622146Y-107225299D01*
X157592289Y-107249594D01*
X157573561Y-107264878D01*
X157569017Y-107268615D01*
X157545733Y-107287926D01*
X157545733Y-107141738D01*
X157740366Y-106988257D01*
X157740366Y-106988257D01*
G37*
X157740366Y-106988257D02*
X157790899Y-106948166D01*
X157836296Y-106911681D01*
X157874803Y-106880252D01*
X157904667Y-106855325D01*
X157924131Y-106838350D01*
X157931441Y-106830774D01*
X157931423Y-106830571D01*
X157923753Y-106824063D01*
X157903934Y-106807843D01*
X157873816Y-106783406D01*
X157835247Y-106752249D01*
X157790077Y-106715869D01*
X157740155Y-106675763D01*
X157738907Y-106674761D01*
X157549967Y-106523158D01*
X157547463Y-106456628D01*
X157546980Y-106423177D01*
X157548116Y-106399287D01*
X157550625Y-106390099D01*
X157550644Y-106390098D01*
X157558711Y-106395553D01*
X157579062Y-106411050D01*
X157610056Y-106435295D01*
X157650057Y-106466988D01*
X157697424Y-106504834D01*
X157750519Y-106547536D01*
X157796035Y-106584334D01*
X158035741Y-106778569D01*
X158350067Y-106778569D01*
X158350067Y-106888138D01*
X158037851Y-106888138D01*
X157815075Y-107068721D01*
X157759598Y-107113706D01*
X157707690Y-107155820D01*
X157661243Y-107193530D01*
X157622146Y-107225299D01*
X157592289Y-107249594D01*
X157573561Y-107264878D01*
X157569017Y-107268615D01*
X157545733Y-107287926D01*
X157545733Y-107141738D01*
X157740366Y-106988257D01*
G36*
X157546006Y-107788055D02*
G01*
X157547075Y-107717141D01*
X157549318Y-107660499D01*
X157553112Y-107615308D01*
X157558832Y-107578745D01*
X157566857Y-107547990D01*
X157577563Y-107520220D01*
X157591328Y-107492614D01*
X157598729Y-107479301D01*
X157636417Y-107430120D01*
X157684259Y-107394677D01*
X157739293Y-107374108D01*
X157798558Y-107369545D01*
X157855499Y-107380874D01*
X157905480Y-107407628D01*
X157950094Y-107450401D01*
X157986146Y-107505458D01*
X158007534Y-107558660D01*
X158024836Y-107616594D01*
X158181848Y-107476484D01*
X158226591Y-107436763D01*
X158266851Y-107401414D01*
X158300675Y-107372121D01*
X158326109Y-107350565D01*
X158341200Y-107338431D01*
X158344463Y-107336373D01*
X158347244Y-107345485D01*
X158349249Y-107369436D01*
X158350064Y-107403148D01*
X158350067Y-107405021D01*
X158350067Y-107473668D01*
X158193433Y-107611500D01*
X158036800Y-107749331D01*
X158036800Y-108003745D01*
X158350067Y-108003745D01*
X158350067Y-108123275D01*
X157953778Y-108123275D01*
X157953778Y-108003745D01*
X157950630Y-107826942D01*
X157949221Y-107760815D01*
X157947462Y-107711105D01*
X157945030Y-107674304D01*
X157941599Y-107646907D01*
X157936842Y-107625408D01*
X157930435Y-107606301D01*
X157930054Y-107605314D01*
X157901856Y-107552394D01*
X157865665Y-107514489D01*
X157823966Y-107492562D01*
X157779244Y-107487579D01*
X157733986Y-107500506D01*
X157706166Y-107518400D01*
X157682033Y-107543142D01*
X157663153Y-107575780D01*
X157649052Y-107618501D01*
X157639254Y-107673492D01*
X157633283Y-107742941D01*
X157630664Y-107829035D01*
X157630449Y-107866785D01*
X157630400Y-108003745D01*
X157953778Y-108003745D01*
X157953778Y-108123275D01*
X157545733Y-108123275D01*
X157545733Y-107876063D01*
X157546006Y-107788055D01*
X157546006Y-107788055D01*
G37*
X157546006Y-107788055D02*
X157547075Y-107717141D01*
X157549318Y-107660499D01*
X157553112Y-107615308D01*
X157558832Y-107578745D01*
X157566857Y-107547990D01*
X157577563Y-107520220D01*
X157591328Y-107492614D01*
X157598729Y-107479301D01*
X157636417Y-107430120D01*
X157684259Y-107394677D01*
X157739293Y-107374108D01*
X157798558Y-107369545D01*
X157855499Y-107380874D01*
X157905480Y-107407628D01*
X157950094Y-107450401D01*
X157986146Y-107505458D01*
X158007534Y-107558660D01*
X158024836Y-107616594D01*
X158181848Y-107476484D01*
X158226591Y-107436763D01*
X158266851Y-107401414D01*
X158300675Y-107372121D01*
X158326109Y-107350565D01*
X158341200Y-107338431D01*
X158344463Y-107336373D01*
X158347244Y-107345485D01*
X158349249Y-107369436D01*
X158350064Y-107403148D01*
X158350067Y-107405021D01*
X158350067Y-107473668D01*
X158193433Y-107611500D01*
X158036800Y-107749331D01*
X158036800Y-108003745D01*
X158350067Y-108003745D01*
X158350067Y-108123275D01*
X157953778Y-108123275D01*
X157953778Y-108003745D01*
X157950630Y-107826942D01*
X157949221Y-107760815D01*
X157947462Y-107711105D01*
X157945030Y-107674304D01*
X157941599Y-107646907D01*
X157936842Y-107625408D01*
X157930435Y-107606301D01*
X157930054Y-107605314D01*
X157901856Y-107552394D01*
X157865665Y-107514489D01*
X157823966Y-107492562D01*
X157779244Y-107487579D01*
X157733986Y-107500506D01*
X157706166Y-107518400D01*
X157682033Y-107543142D01*
X157663153Y-107575780D01*
X157649052Y-107618501D01*
X157639254Y-107673492D01*
X157633283Y-107742941D01*
X157630664Y-107829035D01*
X157630449Y-107866785D01*
X157630400Y-108003745D01*
X157953778Y-108003745D01*
X157953778Y-108123275D01*
X157545733Y-108123275D01*
X157545733Y-107876063D01*
X157546006Y-107788055D01*
G36*
X157630400Y-108312530D02*
G01*
X157630400Y-108621314D01*
X158350067Y-108621314D01*
X158350067Y-108740843D01*
X157630400Y-108740843D01*
X157630400Y-109059589D01*
X157545733Y-109059589D01*
X157545733Y-108312530D01*
X157630400Y-108312530D01*
X157630400Y-108312530D01*
G37*
X157630400Y-108312530D02*
X157630400Y-108621314D01*
X158350067Y-108621314D01*
X158350067Y-108740843D01*
X157630400Y-108740843D01*
X157630400Y-109059589D01*
X157545733Y-109059589D01*
X157545733Y-108312530D01*
X157630400Y-108312530D01*
G36*
X157630400Y-109199040D02*
G01*
X157630400Y-109776765D01*
X157901333Y-109776765D01*
X157901333Y-109258804D01*
X157986000Y-109258804D01*
X157986000Y-109776765D01*
X158256933Y-109776765D01*
X158256933Y-109199040D01*
X158350067Y-109199040D01*
X158350067Y-109886334D01*
X157545733Y-109886334D01*
X157545733Y-109199040D01*
X157630400Y-109199040D01*
X157630400Y-109199040D01*
G37*
X157630400Y-109199040D02*
X157630400Y-109776765D01*
X157901333Y-109776765D01*
X157901333Y-109258804D01*
X157986000Y-109258804D01*
X157986000Y-109776765D01*
X158256933Y-109776765D01*
X158256933Y-109199040D01*
X158350067Y-109199040D01*
X158350067Y-109886334D01*
X157545733Y-109886334D01*
X157545733Y-109199040D01*
X157630400Y-109199040D01*
G36*
X157547438Y-110135227D02*
G01*
X157549967Y-110060647D01*
X157722868Y-110260970D01*
X157895770Y-110461292D01*
X158117916Y-110253499D01*
X158170898Y-110204075D01*
X158219650Y-110158855D01*
X158262599Y-110119278D01*
X158298170Y-110086785D01*
X158324790Y-110062816D01*
X158340883Y-110048812D01*
X158345064Y-110045706D01*
X158347528Y-110054826D01*
X158349315Y-110078828D01*
X158350062Y-110112676D01*
X158350067Y-110115518D01*
X158350067Y-110185331D01*
X158161683Y-110361221D01*
X158113006Y-110406674D01*
X158068731Y-110448020D01*
X158030571Y-110483663D01*
X158000237Y-110512003D01*
X157979439Y-110531442D01*
X157969889Y-110540381D01*
X157969498Y-110540751D01*
X157973751Y-110548686D01*
X157988029Y-110567998D01*
X158010300Y-110596081D01*
X158038531Y-110630327D01*
X158049773Y-110643675D01*
X158133849Y-110742961D01*
X158350067Y-110742961D01*
X158350067Y-110852530D01*
X157545733Y-110852530D01*
X157545733Y-110742961D01*
X158015209Y-110742961D01*
X157858788Y-110566528D01*
X157810725Y-110512260D01*
X157761699Y-110456803D01*
X157714618Y-110403456D01*
X157672392Y-110355516D01*
X157637929Y-110316281D01*
X157623638Y-110299951D01*
X157544910Y-110209807D01*
X157547438Y-110135227D01*
X157547438Y-110135227D01*
G37*
X157547438Y-110135227D02*
X157549967Y-110060647D01*
X157722868Y-110260970D01*
X157895770Y-110461292D01*
X158117916Y-110253499D01*
X158170898Y-110204075D01*
X158219650Y-110158855D01*
X158262599Y-110119278D01*
X158298170Y-110086785D01*
X158324790Y-110062816D01*
X158340883Y-110048812D01*
X158345064Y-110045706D01*
X158347528Y-110054826D01*
X158349315Y-110078828D01*
X158350062Y-110112676D01*
X158350067Y-110115518D01*
X158350067Y-110185331D01*
X158161683Y-110361221D01*
X158113006Y-110406674D01*
X158068731Y-110448020D01*
X158030571Y-110483663D01*
X158000237Y-110512003D01*
X157979439Y-110531442D01*
X157969889Y-110540381D01*
X157969498Y-110540751D01*
X157973751Y-110548686D01*
X157988029Y-110567998D01*
X158010300Y-110596081D01*
X158038531Y-110630327D01*
X158049773Y-110643675D01*
X158133849Y-110742961D01*
X158350067Y-110742961D01*
X158350067Y-110852530D01*
X157545733Y-110852530D01*
X157545733Y-110742961D01*
X158015209Y-110742961D01*
X157858788Y-110566528D01*
X157810725Y-110512260D01*
X157761699Y-110456803D01*
X157714618Y-110403456D01*
X157672392Y-110355516D01*
X157637929Y-110316281D01*
X157623638Y-110299951D01*
X157544910Y-110209807D01*
X157547438Y-110135227D01*
G36*
X157546010Y-113545242D02*
G01*
X157547089Y-113474200D01*
X157549348Y-113417467D01*
X157553159Y-113372242D01*
X157558900Y-113335720D01*
X157566944Y-113305101D01*
X157577667Y-113277579D01*
X157591444Y-113250354D01*
X157598729Y-113237472D01*
X157637035Y-113188215D01*
X157672719Y-113159420D01*
X157700236Y-113142883D01*
X157724116Y-113133664D01*
X157751573Y-113129780D01*
X157782786Y-113129192D01*
X157847831Y-113137846D01*
X157903404Y-113163013D01*
X157949500Y-113204689D01*
X157986116Y-113262872D01*
X158006950Y-113316063D01*
X158025048Y-113373124D01*
X158183179Y-113233415D01*
X158228090Y-113193895D01*
X158268418Y-113158710D01*
X158302223Y-113129528D01*
X158327568Y-113108015D01*
X158342514Y-113095838D01*
X158345688Y-113093706D01*
X158347861Y-113102819D01*
X158349428Y-113126772D01*
X158350065Y-113160487D01*
X158350067Y-113162354D01*
X158350067Y-113231002D01*
X158193433Y-113368833D01*
X158036800Y-113506665D01*
X158036800Y-113761079D01*
X158350067Y-113761079D01*
X158350067Y-113880608D01*
X157953778Y-113880608D01*
X157953778Y-113761079D01*
X157950630Y-113584275D01*
X157949221Y-113518149D01*
X157947462Y-113468438D01*
X157945030Y-113431637D01*
X157941599Y-113404240D01*
X157936842Y-113382741D01*
X157930435Y-113363634D01*
X157930054Y-113362647D01*
X157901856Y-113309728D01*
X157865665Y-113271822D01*
X157823966Y-113249895D01*
X157779244Y-113244913D01*
X157733986Y-113257839D01*
X157706166Y-113275733D01*
X157682033Y-113300475D01*
X157663153Y-113333113D01*
X157649052Y-113375834D01*
X157639254Y-113430826D01*
X157633283Y-113500275D01*
X157630664Y-113586369D01*
X157630449Y-113624118D01*
X157630400Y-113761079D01*
X157953778Y-113761079D01*
X157953778Y-113880608D01*
X157545733Y-113880608D01*
X157545733Y-113633396D01*
X157546010Y-113545242D01*
X157546010Y-113545242D01*
G37*
X157546010Y-113545242D02*
X157547089Y-113474200D01*
X157549348Y-113417467D01*
X157553159Y-113372242D01*
X157558900Y-113335720D01*
X157566944Y-113305101D01*
X157577667Y-113277579D01*
X157591444Y-113250354D01*
X157598729Y-113237472D01*
X157637035Y-113188215D01*
X157672719Y-113159420D01*
X157700236Y-113142883D01*
X157724116Y-113133664D01*
X157751573Y-113129780D01*
X157782786Y-113129192D01*
X157847831Y-113137846D01*
X157903404Y-113163013D01*
X157949500Y-113204689D01*
X157986116Y-113262872D01*
X158006950Y-113316063D01*
X158025048Y-113373124D01*
X158183179Y-113233415D01*
X158228090Y-113193895D01*
X158268418Y-113158710D01*
X158302223Y-113129528D01*
X158327568Y-113108015D01*
X158342514Y-113095838D01*
X158345688Y-113093706D01*
X158347861Y-113102819D01*
X158349428Y-113126772D01*
X158350065Y-113160487D01*
X158350067Y-113162354D01*
X158350067Y-113231002D01*
X158193433Y-113368833D01*
X158036800Y-113506665D01*
X158036800Y-113761079D01*
X158350067Y-113761079D01*
X158350067Y-113880608D01*
X157953778Y-113880608D01*
X157953778Y-113761079D01*
X157950630Y-113584275D01*
X157949221Y-113518149D01*
X157947462Y-113468438D01*
X157945030Y-113431637D01*
X157941599Y-113404240D01*
X157936842Y-113382741D01*
X157930435Y-113363634D01*
X157930054Y-113362647D01*
X157901856Y-113309728D01*
X157865665Y-113271822D01*
X157823966Y-113249895D01*
X157779244Y-113244913D01*
X157733986Y-113257839D01*
X157706166Y-113275733D01*
X157682033Y-113300475D01*
X157663153Y-113333113D01*
X157649052Y-113375834D01*
X157639254Y-113430826D01*
X157633283Y-113500275D01*
X157630664Y-113586369D01*
X157630449Y-113624118D01*
X157630400Y-113761079D01*
X157953778Y-113761079D01*
X157953778Y-113880608D01*
X157545733Y-113880608D01*
X157545733Y-113633396D01*
X157546010Y-113545242D01*
G36*
X157539946Y-111289287D02*
G01*
X157562279Y-111201673D01*
X157596527Y-111123082D01*
X157627970Y-111074393D01*
X157660033Y-111032295D01*
X157733573Y-111110879D01*
X157703383Y-111154224D01*
X157682665Y-111188247D01*
X157661478Y-111229673D01*
X157649680Y-111256637D01*
X157637767Y-111289497D01*
X157630656Y-111319122D01*
X157627182Y-111352893D01*
X157626177Y-111398193D01*
X157626167Y-111405353D01*
X157626964Y-111453028D01*
X157630107Y-111488108D01*
X157636717Y-111517870D01*
X157647919Y-111549588D01*
X157648774Y-111551742D01*
X157685040Y-111620214D01*
X157733405Y-111677428D01*
X157791135Y-111721738D01*
X157855498Y-111751497D01*
X157923759Y-111765060D01*
X157993187Y-111760780D01*
X157995168Y-111760378D01*
X158069677Y-111736158D01*
X158134276Y-111697107D01*
X158187827Y-111644467D01*
X158229194Y-111579481D01*
X158257243Y-111503392D01*
X158265410Y-111464701D01*
X158270343Y-111384059D01*
X158258381Y-111303963D01*
X158229556Y-111224548D01*
X158187494Y-111151199D01*
X158153044Y-111100296D01*
X158181250Y-111066060D01*
X158199612Y-111045869D01*
X158214128Y-111033573D01*
X158218377Y-111031824D01*
X158229444Y-111039792D01*
X158247484Y-111061832D01*
X158270459Y-111095151D01*
X158296333Y-111136954D01*
X158301523Y-111145824D01*
X158327726Y-111205368D01*
X158346388Y-111277612D01*
X158356980Y-111357125D01*
X158358974Y-111438472D01*
X158351839Y-111516221D01*
X158342092Y-111562117D01*
X158310245Y-111647781D01*
X158264874Y-111722565D01*
X158207356Y-111785058D01*
X158139066Y-111833848D01*
X158061379Y-111867523D01*
X158038181Y-111874039D01*
X157986384Y-111884531D01*
X157941086Y-111887192D01*
X157894182Y-111881990D01*
X157854914Y-111873373D01*
X157775140Y-111844004D01*
X157704333Y-111798751D01*
X157643791Y-111739226D01*
X157594814Y-111667039D01*
X157558699Y-111583801D01*
X157536743Y-111491125D01*
X157534673Y-111475876D01*
X157530440Y-111381997D01*
X157539946Y-111289287D01*
X157539946Y-111289287D01*
G37*
X157539946Y-111289287D02*
X157562279Y-111201673D01*
X157596527Y-111123082D01*
X157627970Y-111074393D01*
X157660033Y-111032295D01*
X157733573Y-111110879D01*
X157703383Y-111154224D01*
X157682665Y-111188247D01*
X157661478Y-111229673D01*
X157649680Y-111256637D01*
X157637767Y-111289497D01*
X157630656Y-111319122D01*
X157627182Y-111352893D01*
X157626177Y-111398193D01*
X157626167Y-111405353D01*
X157626964Y-111453028D01*
X157630107Y-111488108D01*
X157636717Y-111517870D01*
X157647919Y-111549588D01*
X157648774Y-111551742D01*
X157685040Y-111620214D01*
X157733405Y-111677428D01*
X157791135Y-111721738D01*
X157855498Y-111751497D01*
X157923759Y-111765060D01*
X157993187Y-111760780D01*
X157995168Y-111760378D01*
X158069677Y-111736158D01*
X158134276Y-111697107D01*
X158187827Y-111644467D01*
X158229194Y-111579481D01*
X158257243Y-111503392D01*
X158265410Y-111464701D01*
X158270343Y-111384059D01*
X158258381Y-111303963D01*
X158229556Y-111224548D01*
X158187494Y-111151199D01*
X158153044Y-111100296D01*
X158181250Y-111066060D01*
X158199612Y-111045869D01*
X158214128Y-111033573D01*
X158218377Y-111031824D01*
X158229444Y-111039792D01*
X158247484Y-111061832D01*
X158270459Y-111095151D01*
X158296333Y-111136954D01*
X158301523Y-111145824D01*
X158327726Y-111205368D01*
X158346388Y-111277612D01*
X158356980Y-111357125D01*
X158358974Y-111438472D01*
X158351839Y-111516221D01*
X158342092Y-111562117D01*
X158310245Y-111647781D01*
X158264874Y-111722565D01*
X158207356Y-111785058D01*
X158139066Y-111833848D01*
X158061379Y-111867523D01*
X158038181Y-111874039D01*
X157986384Y-111884531D01*
X157941086Y-111887192D01*
X157894182Y-111881990D01*
X157854914Y-111873373D01*
X157775140Y-111844004D01*
X157704333Y-111798751D01*
X157643791Y-111739226D01*
X157594814Y-111667039D01*
X157558699Y-111583801D01*
X157536743Y-111491125D01*
X157534673Y-111475876D01*
X157530440Y-111381997D01*
X157539946Y-111289287D01*
G36*
X157536330Y-112397580D02*
G01*
X157557649Y-112310796D01*
X157590852Y-112229460D01*
X157634034Y-112159167D01*
X157643560Y-112147096D01*
X157700708Y-112091601D01*
X157767644Y-112049820D01*
X157841489Y-112022239D01*
X157919368Y-112009350D01*
X157998402Y-112011640D01*
X158075714Y-112029600D01*
X158145274Y-112061816D01*
X158207473Y-112109382D01*
X158262540Y-112172052D01*
X158307457Y-112245606D01*
X158339205Y-112325823D01*
X158342493Y-112337593D01*
X158353078Y-112396144D01*
X158358021Y-112465238D01*
X158357326Y-112537095D01*
X158350998Y-112603935D01*
X158342287Y-112647101D01*
X158310343Y-112733239D01*
X158265102Y-112808350D01*
X158208078Y-112871060D01*
X158140787Y-112919993D01*
X158064745Y-112953775D01*
X157985717Y-112970588D01*
X157923022Y-112970451D01*
X157923022Y-112850943D01*
X157995199Y-112847556D01*
X158064924Y-112826217D01*
X158129871Y-112787225D01*
X158167882Y-112753115D01*
X158214525Y-112692104D01*
X158247457Y-112621473D01*
X158266000Y-112544319D01*
X158269474Y-112463742D01*
X158257201Y-112382840D01*
X158252601Y-112366239D01*
X158223210Y-112295727D01*
X158182368Y-112237224D01*
X158132323Y-112191021D01*
X158075318Y-112157413D01*
X158013601Y-112136692D01*
X157949416Y-112129150D01*
X157885009Y-112135081D01*
X157822626Y-112154776D01*
X157764512Y-112188530D01*
X157712914Y-112236635D01*
X157674776Y-112290901D01*
X157642716Y-112363516D01*
X157625847Y-112439940D01*
X157623582Y-112517328D01*
X157635332Y-112592836D01*
X157660509Y-112663617D01*
X157698524Y-112726827D01*
X157748788Y-112779621D01*
X157780618Y-112802672D01*
X157850720Y-112836081D01*
X157923022Y-112850943D01*
X157923022Y-112970451D01*
X157902580Y-112970406D01*
X157824027Y-112952360D01*
X157751566Y-112918055D01*
X157686708Y-112869097D01*
X157630960Y-112807093D01*
X157585832Y-112733648D01*
X157552831Y-112650369D01*
X157533468Y-112558861D01*
X157528800Y-112484215D01*
X157536330Y-112397580D01*
X157536330Y-112397580D01*
G37*
X157536330Y-112397580D02*
X157557649Y-112310796D01*
X157590852Y-112229460D01*
X157634034Y-112159167D01*
X157643560Y-112147096D01*
X157700708Y-112091601D01*
X157767644Y-112049820D01*
X157841489Y-112022239D01*
X157919368Y-112009350D01*
X157998402Y-112011640D01*
X158075714Y-112029600D01*
X158145274Y-112061816D01*
X158207473Y-112109382D01*
X158262540Y-112172052D01*
X158307457Y-112245606D01*
X158339205Y-112325823D01*
X158342493Y-112337593D01*
X158353078Y-112396144D01*
X158358021Y-112465238D01*
X158357326Y-112537095D01*
X158350998Y-112603935D01*
X158342287Y-112647101D01*
X158310343Y-112733239D01*
X158265102Y-112808350D01*
X158208078Y-112871060D01*
X158140787Y-112919993D01*
X158064745Y-112953775D01*
X157985717Y-112970588D01*
X157923022Y-112970451D01*
X157923022Y-112850943D01*
X157995199Y-112847556D01*
X158064924Y-112826217D01*
X158129871Y-112787225D01*
X158167882Y-112753115D01*
X158214525Y-112692104D01*
X158247457Y-112621473D01*
X158266000Y-112544319D01*
X158269474Y-112463742D01*
X158257201Y-112382840D01*
X158252601Y-112366239D01*
X158223210Y-112295727D01*
X158182368Y-112237224D01*
X158132323Y-112191021D01*
X158075318Y-112157413D01*
X158013601Y-112136692D01*
X157949416Y-112129150D01*
X157885009Y-112135081D01*
X157822626Y-112154776D01*
X157764512Y-112188530D01*
X157712914Y-112236635D01*
X157674776Y-112290901D01*
X157642716Y-112363516D01*
X157625847Y-112439940D01*
X157623582Y-112517328D01*
X157635332Y-112592836D01*
X157660509Y-112663617D01*
X157698524Y-112726827D01*
X157748788Y-112779621D01*
X157780618Y-112802672D01*
X157850720Y-112836081D01*
X157923022Y-112850943D01*
X157923022Y-112970451D01*
X157902580Y-112970406D01*
X157824027Y-112952360D01*
X157751566Y-112918055D01*
X157686708Y-112869097D01*
X157630960Y-112807093D01*
X157585832Y-112733648D01*
X157552831Y-112650369D01*
X157533468Y-112558861D01*
X157528800Y-112484215D01*
X157536330Y-112397580D01*
D12*
X148254000Y-99653000D02*
X148554000Y-99053000D01*
X148854000Y-99653000D02*
X148254000Y-99653000D01*
X148554000Y-99053000D02*
X148854000Y-99653000D01*
X138304000Y-95953000D02*
X138804000Y-95953000D01*
X138304000Y-90453000D02*
X138304000Y-95953000D01*
X138804000Y-90453000D02*
X138304000Y-90453000D01*
X138804000Y-95953000D02*
X138804000Y-90453000D01*
X140804000Y-95953000D02*
X141304000Y-95953000D01*
X140804000Y-90453000D02*
X140804000Y-95953000D01*
X141304000Y-90453000D02*
X140804000Y-90453000D01*
X141304000Y-95953000D02*
X141304000Y-90453000D01*
X143304000Y-95953000D02*
X143804000Y-95953000D01*
X143304000Y-90453000D02*
X143304000Y-95953000D01*
X143804000Y-90453000D02*
X143304000Y-90453000D01*
X143804000Y-95953000D02*
X143804000Y-90453000D01*
X145804000Y-95953000D02*
X146304000Y-95953000D01*
X145804000Y-90453000D02*
X145804000Y-95953000D01*
X146304000Y-90453000D02*
X145804000Y-90453000D01*
X146304000Y-95953000D02*
X146304000Y-90453000D01*
X148304000Y-95953000D02*
X148804000Y-95953000D01*
X148304000Y-90453000D02*
X148304000Y-95953000D01*
X148804000Y-90453000D02*
X148304000Y-90453000D01*
X148804000Y-95953000D02*
X148804000Y-90453000D01*
X137414000Y-101563000D02*
X137414000Y-97063000D01*
X135994000Y-101563000D02*
X137414000Y-101563000D01*
X135994000Y-89843000D02*
X135994000Y-101563000D01*
X143554000Y-89843000D02*
X135994000Y-89843000D01*
X149694000Y-101563000D02*
X149694000Y-97063000D01*
X151114000Y-101563000D02*
X149694000Y-101563000D01*
X151114000Y-89843000D02*
X151114000Y-101563000D01*
X143554000Y-89843000D02*
X151114000Y-89843000D01*
X89954000Y-101953000D02*
X89954000Y-102453000D01*
X90694000Y-101953000D02*
X89954000Y-101953000D01*
X93831000Y-118526000D02*
X93785000Y-118479000D01*
X96129000Y-120823000D02*
X96093000Y-120788000D01*
X93615000Y-118719000D02*
X93580000Y-118684000D01*
X95923000Y-121028000D02*
X95877000Y-120981000D01*
X93831000Y-113526000D02*
X93785000Y-113479000D01*
X96129000Y-115823000D02*
X96093000Y-115788000D01*
X93615000Y-113719000D02*
X93580000Y-113684000D01*
X95923000Y-116028000D02*
X95877000Y-115981000D01*
X93831000Y-108526000D02*
X93785000Y-108479000D01*
X96129000Y-110823000D02*
X96093000Y-110788000D01*
X93615000Y-108719000D02*
X93580000Y-108684000D01*
X95923000Y-111028000D02*
X95877000Y-110981000D01*
X100115000Y-122314000D02*
X90194000Y-122314000D01*
X100115000Y-102193000D02*
X90194000Y-102193000D01*
X90194000Y-102193000D02*
X90194000Y-122314000D01*
X100115000Y-102193000D02*
X100115000Y-122314000D01*
X97155000Y-102193000D02*
X97155000Y-122314000D01*
X92254000Y-102193000D02*
X92254000Y-122314000D01*
X90754000Y-102193000D02*
X90754000Y-122314000D01*
X96534000Y-119753000D02*
G75*
G03X96534000Y-119753000I-1680000J0D01*
G01*
X96534000Y-114753000D02*
G75*
G03X96534000Y-114753000I-1680000J0D01*
G01*
X96534000Y-109753000D02*
G75*
G03X96534000Y-109753000I-1680000J0D01*
G01*
X93173747Y-104781805D02*
G75*
G02X93319000Y-104069000I1680253J28805D01*
G01*
X94170958Y-103217574D02*
G75*
G02X95538000Y-103218000I683042J-1535426D01*
G01*
X96389426Y-104069958D02*
G75*
G02X96389000Y-105437000I-1535426J-683042D01*
G01*
X95537042Y-106288426D02*
G75*
G02X94170000Y-106288000I-683042J1535426D01*
G01*
X93319244Y-105436318D02*
G75*
G02X93174000Y-104753000I1534756J683318D01*
G01*
X118954000Y-89753000D02*
X118454000Y-89753000D01*
X118954000Y-90493000D02*
X118954000Y-89753000D01*
X102381000Y-93630000D02*
X102428000Y-93584000D01*
X100084000Y-95928000D02*
X100119000Y-95892000D01*
X102188000Y-93414000D02*
X102223000Y-93379000D01*
X99879000Y-95722000D02*
X99926000Y-95676000D01*
X107381000Y-93630000D02*
X107428000Y-93584000D01*
X105084000Y-95928000D02*
X105119000Y-95892000D01*
X107188000Y-93414000D02*
X107223000Y-93379000D01*
X104879000Y-95722000D02*
X104926000Y-95676000D01*
X112381000Y-93630000D02*
X112428000Y-93584000D01*
X110084000Y-95928000D02*
X110119000Y-95892000D01*
X112188000Y-93414000D02*
X112223000Y-93379000D01*
X109879000Y-95722000D02*
X109926000Y-95676000D01*
X98593000Y-99914000D02*
X98593000Y-89993000D01*
X118714000Y-99914000D02*
X118714000Y-89993000D01*
X118714000Y-89993000D02*
X98593000Y-89993000D01*
X118714000Y-99914000D02*
X98593000Y-99914000D01*
X118714000Y-96954000D02*
X98593000Y-96954000D01*
X118714000Y-92053000D02*
X98593000Y-92053000D01*
X118714000Y-90553000D02*
X98593000Y-90553000D01*
X102834000Y-94653000D02*
G75*
G03X102834000Y-94653000I-1680000J0D01*
G01*
X107834000Y-94653000D02*
G75*
G03X107834000Y-94653000I-1680000J0D01*
G01*
X112834000Y-94653000D02*
G75*
G03X112834000Y-94653000I-1680000J0D01*
G01*
X116125195Y-92972747D02*
G75*
G02X116838000Y-93118000I28805J-1680253D01*
G01*
X117689426Y-93969958D02*
G75*
G02X117689000Y-95337000I-1535426J-683042D01*
G01*
X116837042Y-96188426D02*
G75*
G02X115470000Y-96188000I-683042J1535426D01*
G01*
X114618574Y-95336042D02*
G75*
G02X114619000Y-93969000I1535426J683042D01*
G01*
X115470682Y-93118244D02*
G75*
G02X116154000Y-92973000I683318J-1534756D01*
G01*
X138854000Y-123853000D02*
X138554000Y-124453000D01*
X138254000Y-123853000D02*
X138854000Y-123853000D01*
X138554000Y-124453000D02*
X138254000Y-123853000D01*
X148804000Y-127553000D02*
X148304000Y-127553000D01*
X148804000Y-133053000D02*
X148804000Y-127553000D01*
X148304000Y-133053000D02*
X148804000Y-133053000D01*
X148304000Y-127553000D02*
X148304000Y-133053000D01*
X146304000Y-127553000D02*
X145804000Y-127553000D01*
X146304000Y-133053000D02*
X146304000Y-127553000D01*
X145804000Y-133053000D02*
X146304000Y-133053000D01*
X145804000Y-127553000D02*
X145804000Y-133053000D01*
X143804000Y-127553000D02*
X143304000Y-127553000D01*
X143804000Y-133053000D02*
X143804000Y-127553000D01*
X143304000Y-133053000D02*
X143804000Y-133053000D01*
X143304000Y-127553000D02*
X143304000Y-133053000D01*
X141304000Y-127553000D02*
X140804000Y-127553000D01*
X141304000Y-133053000D02*
X141304000Y-127553000D01*
X140804000Y-133053000D02*
X141304000Y-133053000D01*
X140804000Y-127553000D02*
X140804000Y-133053000D01*
X138804000Y-127553000D02*
X138304000Y-127553000D01*
X138804000Y-133053000D02*
X138804000Y-127553000D01*
X138304000Y-133053000D02*
X138804000Y-133053000D01*
X138304000Y-127553000D02*
X138304000Y-133053000D01*
X149694000Y-121943000D02*
X149694000Y-126443000D01*
X151114000Y-121943000D02*
X149694000Y-121943000D01*
X151114000Y-133663000D02*
X151114000Y-121943000D01*
X143554000Y-133663000D02*
X151114000Y-133663000D01*
X137414000Y-121943000D02*
X137414000Y-126443000D01*
X135994000Y-121943000D02*
X137414000Y-121943000D01*
X135994000Y-133663000D02*
X135994000Y-121943000D01*
X143554000Y-133663000D02*
X135994000Y-133663000D01*
X137245600Y-106629200D02*
G75*
G03X137245600Y-106629200I-1000000J0D01*
G01*
X136382000Y-119989600D02*
G75*
G03X136382000Y-119989600I-1000000J0D01*
G01*
X119237000Y-120472200D02*
G75*
G03X119237000Y-120472200I-1000000J0D01*
G01*
D11*
X147886895Y-113015780D02*
X148458323Y-113015780D01*
X148172609Y-114015780D02*
X148172609Y-113015780D01*
X148791657Y-114015780D02*
X148791657Y-113015780D01*
X149172609Y-113015780D01*
X149267847Y-113063400D01*
X149315466Y-113111019D01*
X149363085Y-113206257D01*
X149363085Y-113349114D01*
X149315466Y-113444352D01*
X149267847Y-113491971D01*
X149172609Y-113539590D01*
X148791657Y-113539590D01*
X150220228Y-113015780D02*
X150029752Y-113015780D01*
X149934514Y-113063400D01*
X149886895Y-113111019D01*
X149791657Y-113253876D01*
X149744038Y-113444352D01*
X149744038Y-113825304D01*
X149791657Y-113920542D01*
X149839276Y-113968161D01*
X149934514Y-114015780D01*
X150124990Y-114015780D01*
X150220228Y-113968161D01*
X150267847Y-113920542D01*
X150315466Y-113825304D01*
X150315466Y-113587209D01*
X150267847Y-113491971D01*
X150220228Y-113444352D01*
X150124990Y-113396733D01*
X149934514Y-113396733D01*
X149839276Y-113444352D01*
X149791657Y-113491971D01*
X149744038Y-113587209D01*
X129130466Y-101788980D02*
X129130466Y-102503266D01*
X129082847Y-102646123D01*
X128987609Y-102741361D01*
X128844752Y-102788980D01*
X128749514Y-102788980D01*
X130082847Y-101788980D02*
X129606657Y-101788980D01*
X129559038Y-102265171D01*
X129606657Y-102217552D01*
X129701895Y-102169933D01*
X129939990Y-102169933D01*
X130035228Y-102217552D01*
X130082847Y-102265171D01*
X130130466Y-102360409D01*
X130130466Y-102598504D01*
X130082847Y-102693742D01*
X130035228Y-102741361D01*
X129939990Y-102788980D01*
X129701895Y-102788980D01*
X129606657Y-102741361D01*
X129559038Y-102693742D01*
X123077266Y-120014780D02*
X123077266Y-120729066D01*
X123029647Y-120871923D01*
X122934409Y-120967161D01*
X122791552Y-121014780D01*
X122696314Y-121014780D01*
X123982028Y-120348114D02*
X123982028Y-121014780D01*
X123743933Y-119967161D02*
X123505838Y-120681447D01*
X124124885Y-120681447D01*
X152004780Y-96156304D02*
X152004780Y-95584876D01*
X153004780Y-95870590D02*
X152004780Y-95870590D01*
X153004780Y-95251542D02*
X152004780Y-95251542D01*
X152004780Y-94870590D01*
X152052400Y-94775352D01*
X152100019Y-94727733D01*
X152195257Y-94680114D01*
X152338114Y-94680114D01*
X152433352Y-94727733D01*
X152480971Y-94775352D01*
X152528590Y-94870590D01*
X152528590Y-95251542D01*
X152004780Y-93775352D02*
X152004780Y-94251542D01*
X152480971Y-94299161D01*
X152433352Y-94251542D01*
X152385733Y-94156304D01*
X152385733Y-93918209D01*
X152433352Y-93822971D01*
X152480971Y-93775352D01*
X152576209Y-93727733D01*
X152814304Y-93727733D01*
X152909542Y-93775352D01*
X152957161Y-93822971D01*
X153004780Y-93918209D01*
X153004780Y-94156304D01*
X152957161Y-94251542D01*
X152909542Y-94299161D01*
X151979380Y-92879704D02*
X151979380Y-92308276D01*
X152979380Y-92593990D02*
X151979380Y-92593990D01*
X152979380Y-91974942D02*
X151979380Y-91974942D01*
X151979380Y-91593990D01*
X152027000Y-91498752D01*
X152074619Y-91451133D01*
X152169857Y-91403514D01*
X152312714Y-91403514D01*
X152407952Y-91451133D01*
X152455571Y-91498752D01*
X152503190Y-91593990D01*
X152503190Y-91974942D01*
X152312714Y-90546371D02*
X152979380Y-90546371D01*
X151931761Y-90784466D02*
X152646047Y-91022561D01*
X152646047Y-90403514D01*
X126336466Y-114727771D02*
X126003133Y-114727771D01*
X126003133Y-115251580D02*
X126003133Y-114251580D01*
X126479323Y-114251580D01*
X126812657Y-114346819D02*
X126860276Y-114299200D01*
X126955514Y-114251580D01*
X127193609Y-114251580D01*
X127288847Y-114299200D01*
X127336466Y-114346819D01*
X127384085Y-114442057D01*
X127384085Y-114537295D01*
X127336466Y-114680152D01*
X126765038Y-115251580D01*
X127384085Y-115251580D01*
X141993966Y-110046371D02*
X141660633Y-110046371D01*
X141660633Y-110570180D02*
X141660633Y-109570180D01*
X142136823Y-109570180D01*
X143041585Y-110570180D02*
X142470157Y-110570180D01*
X142755871Y-110570180D02*
X142755871Y-109570180D01*
X142660633Y-109713038D01*
X142565395Y-109808276D01*
X142470157Y-109855895D01*
X111051933Y-104841342D02*
X111004314Y-104888961D01*
X110861457Y-104936580D01*
X110766219Y-104936580D01*
X110623361Y-104888961D01*
X110528123Y-104793723D01*
X110480504Y-104698485D01*
X110432885Y-104508009D01*
X110432885Y-104365152D01*
X110480504Y-104174676D01*
X110528123Y-104079438D01*
X110623361Y-103984200D01*
X110766219Y-103936580D01*
X110861457Y-103936580D01*
X111004314Y-103984200D01*
X111051933Y-104031819D01*
X111623361Y-104365152D02*
X111528123Y-104317533D01*
X111480504Y-104269914D01*
X111432885Y-104174676D01*
X111432885Y-104127057D01*
X111480504Y-104031819D01*
X111528123Y-103984200D01*
X111623361Y-103936580D01*
X111813838Y-103936580D01*
X111909076Y-103984200D01*
X111956695Y-104031819D01*
X112004314Y-104127057D01*
X112004314Y-104174676D01*
X111956695Y-104269914D01*
X111909076Y-104317533D01*
X111813838Y-104365152D01*
X111623361Y-104365152D01*
X111528123Y-104412771D01*
X111480504Y-104460390D01*
X111432885Y-104555628D01*
X111432885Y-104746104D01*
X111480504Y-104841342D01*
X111528123Y-104888961D01*
X111623361Y-104936580D01*
X111813838Y-104936580D01*
X111909076Y-104888961D01*
X111956695Y-104841342D01*
X112004314Y-104746104D01*
X112004314Y-104555628D01*
X111956695Y-104460390D01*
X111909076Y-104412771D01*
X111813838Y-104365152D01*
X126477733Y-111145580D02*
X126144400Y-110669390D01*
X125906304Y-111145580D02*
X125906304Y-110145580D01*
X126287257Y-110145580D01*
X126382495Y-110193200D01*
X126430114Y-110240819D01*
X126477733Y-110336057D01*
X126477733Y-110478914D01*
X126430114Y-110574152D01*
X126382495Y-110621771D01*
X126287257Y-110669390D01*
X125906304Y-110669390D01*
X126858685Y-110240819D02*
X126906304Y-110193200D01*
X127001542Y-110145580D01*
X127239638Y-110145580D01*
X127334876Y-110193200D01*
X127382495Y-110240819D01*
X127430114Y-110336057D01*
X127430114Y-110431295D01*
X127382495Y-110574152D01*
X126811066Y-111145580D01*
X127430114Y-111145580D01*
X126321533Y-106774980D02*
X125988200Y-106298790D01*
X125750104Y-106774980D02*
X125750104Y-105774980D01*
X126131057Y-105774980D01*
X126226295Y-105822600D01*
X126273914Y-105870219D01*
X126321533Y-105965457D01*
X126321533Y-106108314D01*
X126273914Y-106203552D01*
X126226295Y-106251171D01*
X126131057Y-106298790D01*
X125750104Y-106298790D01*
X126654866Y-105774980D02*
X127273914Y-105774980D01*
X126940580Y-106155933D01*
X127083438Y-106155933D01*
X127178676Y-106203552D01*
X127226295Y-106251171D01*
X127273914Y-106346409D01*
X127273914Y-106584504D01*
X127226295Y-106679742D01*
X127178676Y-106727361D01*
X127083438Y-106774980D01*
X126797723Y-106774980D01*
X126702485Y-106727361D01*
X126654866Y-106679742D01*
X113907342Y-118077980D02*
X113574009Y-117601790D01*
X113335914Y-118077980D02*
X113335914Y-117077980D01*
X113716866Y-117077980D01*
X113812104Y-117125600D01*
X113859723Y-117173219D01*
X113907342Y-117268457D01*
X113907342Y-117411314D01*
X113859723Y-117506552D01*
X113812104Y-117554171D01*
X113716866Y-117601790D01*
X113335914Y-117601790D01*
X114859723Y-118077980D02*
X114288295Y-118077980D01*
X114574009Y-118077980D02*
X114574009Y-117077980D01*
X114478771Y-117220838D01*
X114383533Y-117316076D01*
X114288295Y-117363695D01*
X115716866Y-117411314D02*
X115716866Y-118077980D01*
X115478771Y-117030361D02*
X115240676Y-117744647D01*
X115859723Y-117744647D01*
X113907342Y-108476780D02*
X113574009Y-108000590D01*
X113335914Y-108476780D02*
X113335914Y-107476780D01*
X113716866Y-107476780D01*
X113812104Y-107524400D01*
X113859723Y-107572019D01*
X113907342Y-107667257D01*
X113907342Y-107810114D01*
X113859723Y-107905352D01*
X113812104Y-107952971D01*
X113716866Y-108000590D01*
X113335914Y-108000590D01*
X114859723Y-108476780D02*
X114288295Y-108476780D01*
X114574009Y-108476780D02*
X114574009Y-107476780D01*
X114478771Y-107619638D01*
X114383533Y-107714876D01*
X114288295Y-107762495D01*
X115764485Y-107476780D02*
X115288295Y-107476780D01*
X115240676Y-107952971D01*
X115288295Y-107905352D01*
X115383533Y-107857733D01*
X115621628Y-107857733D01*
X115716866Y-107905352D01*
X115764485Y-107952971D01*
X115812104Y-108048209D01*
X115812104Y-108286304D01*
X115764485Y-108381542D01*
X115716866Y-108429161D01*
X115621628Y-108476780D01*
X115383533Y-108476780D01*
X115288295Y-108429161D01*
X115240676Y-108381542D01*
X126592933Y-119463580D02*
X126259600Y-118987390D01*
X126021504Y-119463580D02*
X126021504Y-118463580D01*
X126402457Y-118463580D01*
X126497695Y-118511200D01*
X126545314Y-118558819D01*
X126592933Y-118654057D01*
X126592933Y-118796914D01*
X126545314Y-118892152D01*
X126497695Y-118939771D01*
X126402457Y-118987390D01*
X126021504Y-118987390D01*
X127545314Y-119463580D02*
X126973885Y-119463580D01*
X127259600Y-119463580D02*
X127259600Y-118463580D01*
X127164361Y-118606438D01*
X127069123Y-118701676D01*
X126973885Y-118749295D01*
X133704933Y-114082380D02*
X133371600Y-113606190D01*
X133133504Y-114082380D02*
X133133504Y-113082380D01*
X133514457Y-113082380D01*
X133609695Y-113130000D01*
X133657314Y-113177619D01*
X133704933Y-113272857D01*
X133704933Y-113415714D01*
X133657314Y-113510952D01*
X133609695Y-113558571D01*
X133514457Y-113606190D01*
X133133504Y-113606190D01*
X134562076Y-113415714D02*
X134562076Y-114082380D01*
X134323980Y-113034761D02*
X134085885Y-113749047D01*
X134704933Y-113749047D01*
X154920666Y-128357761D02*
X155063523Y-128405380D01*
X155301619Y-128405380D01*
X155396857Y-128357761D01*
X155444476Y-128310142D01*
X155492095Y-128214904D01*
X155492095Y-128119666D01*
X155444476Y-128024428D01*
X155396857Y-127976809D01*
X155301619Y-127929190D01*
X155111142Y-127881571D01*
X155015904Y-127833952D01*
X154968285Y-127786333D01*
X154920666Y-127691095D01*
X154920666Y-127595857D01*
X154968285Y-127500619D01*
X155015904Y-127453000D01*
X155111142Y-127405380D01*
X155349238Y-127405380D01*
X155492095Y-127453000D01*
X155825428Y-127405380D02*
X156063523Y-128405380D01*
X156254000Y-127691095D01*
X156444476Y-128405380D01*
X156682571Y-127405380D01*
X157587333Y-128405380D02*
X157015904Y-128405380D01*
X157301619Y-128405380D02*
X157301619Y-127405380D01*
X157206380Y-127548238D01*
X157111142Y-127643476D01*
X157015904Y-127691095D01*
X110340780Y-113882104D02*
X111150304Y-113882104D01*
X111245542Y-113834485D01*
X111293161Y-113786866D01*
X111340780Y-113691628D01*
X111340780Y-113501152D01*
X111293161Y-113405914D01*
X111245542Y-113358295D01*
X111150304Y-113310676D01*
X110340780Y-113310676D01*
X110436019Y-112882104D02*
X110388400Y-112834485D01*
X110340780Y-112739247D01*
X110340780Y-112501152D01*
X110388400Y-112405914D01*
X110436019Y-112358295D01*
X110531257Y-112310676D01*
X110626495Y-112310676D01*
X110769352Y-112358295D01*
X111340780Y-112929723D01*
X111340780Y-112310676D01*
X133072204Y-108848180D02*
X133072204Y-107848180D01*
X133310300Y-107848180D01*
X133453157Y-107895800D01*
X133548395Y-107991038D01*
X133596014Y-108086276D01*
X133643633Y-108276752D01*
X133643633Y-108419609D01*
X133596014Y-108610085D01*
X133548395Y-108705323D01*
X133453157Y-108800561D01*
X133310300Y-108848180D01*
X133072204Y-108848180D01*
X134596014Y-108848180D02*
X134024585Y-108848180D01*
X134310300Y-108848180D02*
X134310300Y-107848180D01*
X134215061Y-107991038D01*
X134119823Y-108086276D01*
X134024585Y-108133895D01*
X107100666Y-120141780D02*
X107100666Y-120856066D01*
X107053047Y-120998923D01*
X106957809Y-121094161D01*
X106814952Y-121141780D01*
X106719714Y-121141780D01*
X107719714Y-120570352D02*
X107624476Y-120522733D01*
X107576857Y-120475114D01*
X107529238Y-120379876D01*
X107529238Y-120332257D01*
X107576857Y-120237019D01*
X107624476Y-120189400D01*
X107719714Y-120141780D01*
X107910190Y-120141780D01*
X108005428Y-120189400D01*
X108053047Y-120237019D01*
X108100666Y-120332257D01*
X108100666Y-120379876D01*
X108053047Y-120475114D01*
X108005428Y-120522733D01*
X107910190Y-120570352D01*
X107719714Y-120570352D01*
X107624476Y-120617971D01*
X107576857Y-120665590D01*
X107529238Y-120760828D01*
X107529238Y-120951304D01*
X107576857Y-121046542D01*
X107624476Y-121094161D01*
X107719714Y-121141780D01*
X107910190Y-121141780D01*
X108005428Y-121094161D01*
X108053047Y-121046542D01*
X108100666Y-120951304D01*
X108100666Y-120760828D01*
X108053047Y-120665590D01*
X108005428Y-120617971D01*
X107910190Y-120570352D01*
X145720666Y-99605380D02*
X145720666Y-100319666D01*
X145673047Y-100462523D01*
X145577809Y-100557761D01*
X145434952Y-100605380D01*
X145339714Y-100605380D01*
X146149238Y-99700619D02*
X146196857Y-99653000D01*
X146292095Y-99605380D01*
X146530190Y-99605380D01*
X146625428Y-99653000D01*
X146673047Y-99700619D01*
X146720666Y-99795857D01*
X146720666Y-99891095D01*
X146673047Y-100033952D01*
X146101619Y-100605380D01*
X146720666Y-100605380D01*
X93156066Y-99796380D02*
X93156066Y-100510666D01*
X93108447Y-100653523D01*
X93013209Y-100748761D01*
X92870352Y-100796380D01*
X92775114Y-100796380D01*
X93537019Y-99796380D02*
X94203685Y-99796380D01*
X93775114Y-100796380D01*
X112815666Y-101777580D02*
X112815666Y-102491866D01*
X112768047Y-102634723D01*
X112672809Y-102729961D01*
X112529952Y-102777580D01*
X112434714Y-102777580D01*
X113720428Y-101777580D02*
X113529952Y-101777580D01*
X113434714Y-101825200D01*
X113387095Y-101872819D01*
X113291857Y-102015676D01*
X113244238Y-102206152D01*
X113244238Y-102587104D01*
X113291857Y-102682342D01*
X113339476Y-102729961D01*
X113434714Y-102777580D01*
X113625190Y-102777580D01*
X113720428Y-102729961D01*
X113768047Y-102682342D01*
X113815666Y-102587104D01*
X113815666Y-102349009D01*
X113768047Y-102253771D01*
X113720428Y-102206152D01*
X113625190Y-102158533D01*
X113434714Y-102158533D01*
X113339476Y-102206152D01*
X113291857Y-102253771D01*
X113244238Y-102349009D01*
X141320666Y-122705380D02*
X141320666Y-123419666D01*
X141273047Y-123562523D01*
X141177809Y-123657761D01*
X141034952Y-123705380D01*
X140939714Y-123705380D01*
X142320666Y-123705380D02*
X141749238Y-123705380D01*
X142034952Y-123705380D02*
X142034952Y-122705380D01*
X141939714Y-122848238D01*
X141844476Y-122943476D01*
X141749238Y-122991095D01*
X134983695Y-103581580D02*
X135555123Y-103581580D01*
X135269409Y-104581580D02*
X135269409Y-103581580D01*
X135888457Y-104581580D02*
X135888457Y-103581580D01*
X136269409Y-103581580D01*
X136364647Y-103629200D01*
X136412266Y-103676819D01*
X136459885Y-103772057D01*
X136459885Y-103914914D01*
X136412266Y-104010152D01*
X136364647Y-104057771D01*
X136269409Y-104105390D01*
X135888457Y-104105390D01*
X137412266Y-104581580D02*
X136840838Y-104581580D01*
X137126552Y-104581580D02*
X137126552Y-103581580D01*
X137031314Y-103724438D01*
X136936076Y-103819676D01*
X136840838Y-103867295D01*
X134120095Y-116941980D02*
X134691523Y-116941980D01*
X134405809Y-117941980D02*
X134405809Y-116941980D01*
X135024857Y-117941980D02*
X135024857Y-116941980D01*
X135405809Y-116941980D01*
X135501047Y-116989600D01*
X135548666Y-117037219D01*
X135596285Y-117132457D01*
X135596285Y-117275314D01*
X135548666Y-117370552D01*
X135501047Y-117418171D01*
X135405809Y-117465790D01*
X135024857Y-117465790D01*
X135977238Y-117037219D02*
X136024857Y-116989600D01*
X136120095Y-116941980D01*
X136358190Y-116941980D01*
X136453428Y-116989600D01*
X136501047Y-117037219D01*
X136548666Y-117132457D01*
X136548666Y-117227695D01*
X136501047Y-117370552D01*
X135929619Y-117941980D01*
X136548666Y-117941980D01*
X116975095Y-117424580D02*
X117546523Y-117424580D01*
X117260809Y-118424580D02*
X117260809Y-117424580D01*
X117879857Y-118424580D02*
X117879857Y-117424580D01*
X118260809Y-117424580D01*
X118356047Y-117472200D01*
X118403666Y-117519819D01*
X118451285Y-117615057D01*
X118451285Y-117757914D01*
X118403666Y-117853152D01*
X118356047Y-117900771D01*
X118260809Y-117948390D01*
X117879857Y-117948390D01*
X118784619Y-117424580D02*
X119403666Y-117424580D01*
X119070333Y-117805533D01*
X119213190Y-117805533D01*
X119308428Y-117853152D01*
X119356047Y-117900771D01*
X119403666Y-117996009D01*
X119403666Y-118234104D01*
X119356047Y-118329342D01*
X119308428Y-118376961D01*
X119213190Y-118424580D01*
X118927476Y-118424580D01*
X118832238Y-118376961D01*
X118784619Y-118329342D01*
M02*
