G04 #@! TF.GenerationSoftware,KiCad,Pcbnew,(5.1.4)-1*
G04 #@! TF.CreationDate,2020-10-11T16:44:01-04:00*
G04 #@! TF.ProjectId,i2c_pancake,6932635f-7061-46e6-9361-6b652e6b6963,rev?*
G04 #@! TF.SameCoordinates,Original*
G04 #@! TF.FileFunction,Paste,Top*
G04 #@! TF.FilePolarity,Positive*
%FSLAX46Y46*%
G04 Gerber Fmt 4.6, Leading zero omitted, Abs format (unit mm)*
G04 Created by KiCad (PCBNEW (5.1.4)-1) date 2020-10-11 16:44:01*
%MOMM*%
%LPD*%
G04 APERTURE LIST*
%ADD10C,0.150000*%
%ADD11C,0.100000*%
%ADD12C,1.250000*%
%ADD13C,1.425000*%
%ADD14R,1.500000X1.250000*%
%ADD15R,1.500000X1.300000*%
%ADD16R,0.600000X3.000000*%
G04 APERTURE END LIST*
D10*
X89662000Y-134239000D02*
X164554000Y-134239000D01*
X89662000Y-89253000D02*
X164554000Y-89253000D01*
X164554000Y-89253000D02*
X164554000Y-134239000D01*
X89662000Y-89253000D02*
X89662000Y-134239000D01*
D11*
G36*
X125669304Y-112105404D02*
G01*
X125693573Y-112109004D01*
X125717371Y-112114965D01*
X125740471Y-112123230D01*
X125762649Y-112133720D01*
X125783693Y-112146333D01*
X125803398Y-112160947D01*
X125821577Y-112177423D01*
X125838053Y-112195602D01*
X125852667Y-112215307D01*
X125865280Y-112236351D01*
X125875770Y-112258529D01*
X125884035Y-112281629D01*
X125889996Y-112305427D01*
X125893596Y-112329696D01*
X125894800Y-112354200D01*
X125894800Y-113604200D01*
X125893596Y-113628704D01*
X125889996Y-113652973D01*
X125884035Y-113676771D01*
X125875770Y-113699871D01*
X125865280Y-113722049D01*
X125852667Y-113743093D01*
X125838053Y-113762798D01*
X125821577Y-113780977D01*
X125803398Y-113797453D01*
X125783693Y-113812067D01*
X125762649Y-113824680D01*
X125740471Y-113835170D01*
X125717371Y-113843435D01*
X125693573Y-113849396D01*
X125669304Y-113852996D01*
X125644800Y-113854200D01*
X124894800Y-113854200D01*
X124870296Y-113852996D01*
X124846027Y-113849396D01*
X124822229Y-113843435D01*
X124799129Y-113835170D01*
X124776951Y-113824680D01*
X124755907Y-113812067D01*
X124736202Y-113797453D01*
X124718023Y-113780977D01*
X124701547Y-113762798D01*
X124686933Y-113743093D01*
X124674320Y-113722049D01*
X124663830Y-113699871D01*
X124655565Y-113676771D01*
X124649604Y-113652973D01*
X124646004Y-113628704D01*
X124644800Y-113604200D01*
X124644800Y-112354200D01*
X124646004Y-112329696D01*
X124649604Y-112305427D01*
X124655565Y-112281629D01*
X124663830Y-112258529D01*
X124674320Y-112236351D01*
X124686933Y-112215307D01*
X124701547Y-112195602D01*
X124718023Y-112177423D01*
X124736202Y-112160947D01*
X124755907Y-112146333D01*
X124776951Y-112133720D01*
X124799129Y-112123230D01*
X124822229Y-112114965D01*
X124846027Y-112109004D01*
X124870296Y-112105404D01*
X124894800Y-112104200D01*
X125644800Y-112104200D01*
X125669304Y-112105404D01*
X125669304Y-112105404D01*
G37*
D12*
X125269800Y-112979200D03*
D11*
G36*
X128469304Y-112105404D02*
G01*
X128493573Y-112109004D01*
X128517371Y-112114965D01*
X128540471Y-112123230D01*
X128562649Y-112133720D01*
X128583693Y-112146333D01*
X128603398Y-112160947D01*
X128621577Y-112177423D01*
X128638053Y-112195602D01*
X128652667Y-112215307D01*
X128665280Y-112236351D01*
X128675770Y-112258529D01*
X128684035Y-112281629D01*
X128689996Y-112305427D01*
X128693596Y-112329696D01*
X128694800Y-112354200D01*
X128694800Y-113604200D01*
X128693596Y-113628704D01*
X128689996Y-113652973D01*
X128684035Y-113676771D01*
X128675770Y-113699871D01*
X128665280Y-113722049D01*
X128652667Y-113743093D01*
X128638053Y-113762798D01*
X128621577Y-113780977D01*
X128603398Y-113797453D01*
X128583693Y-113812067D01*
X128562649Y-113824680D01*
X128540471Y-113835170D01*
X128517371Y-113843435D01*
X128493573Y-113849396D01*
X128469304Y-113852996D01*
X128444800Y-113854200D01*
X127694800Y-113854200D01*
X127670296Y-113852996D01*
X127646027Y-113849396D01*
X127622229Y-113843435D01*
X127599129Y-113835170D01*
X127576951Y-113824680D01*
X127555907Y-113812067D01*
X127536202Y-113797453D01*
X127518023Y-113780977D01*
X127501547Y-113762798D01*
X127486933Y-113743093D01*
X127474320Y-113722049D01*
X127463830Y-113699871D01*
X127455565Y-113676771D01*
X127449604Y-113652973D01*
X127446004Y-113628704D01*
X127444800Y-113604200D01*
X127444800Y-112354200D01*
X127446004Y-112329696D01*
X127449604Y-112305427D01*
X127455565Y-112281629D01*
X127463830Y-112258529D01*
X127474320Y-112236351D01*
X127486933Y-112215307D01*
X127501547Y-112195602D01*
X127518023Y-112177423D01*
X127536202Y-112160947D01*
X127555907Y-112146333D01*
X127576951Y-112133720D01*
X127599129Y-112123230D01*
X127622229Y-112114965D01*
X127646027Y-112109004D01*
X127670296Y-112105404D01*
X127694800Y-112104200D01*
X128444800Y-112104200D01*
X128469304Y-112105404D01*
X128469304Y-112105404D01*
G37*
D12*
X128069800Y-112979200D03*
D11*
G36*
X144301804Y-111064004D02*
G01*
X144326073Y-111067604D01*
X144349871Y-111073565D01*
X144372971Y-111081830D01*
X144395149Y-111092320D01*
X144416193Y-111104933D01*
X144435898Y-111119547D01*
X144454077Y-111136023D01*
X144470553Y-111154202D01*
X144485167Y-111173907D01*
X144497780Y-111194951D01*
X144508270Y-111217129D01*
X144516535Y-111240229D01*
X144522496Y-111264027D01*
X144526096Y-111288296D01*
X144527300Y-111312800D01*
X144527300Y-112562800D01*
X144526096Y-112587304D01*
X144522496Y-112611573D01*
X144516535Y-112635371D01*
X144508270Y-112658471D01*
X144497780Y-112680649D01*
X144485167Y-112701693D01*
X144470553Y-112721398D01*
X144454077Y-112739577D01*
X144435898Y-112756053D01*
X144416193Y-112770667D01*
X144395149Y-112783280D01*
X144372971Y-112793770D01*
X144349871Y-112802035D01*
X144326073Y-112807996D01*
X144301804Y-112811596D01*
X144277300Y-112812800D01*
X143352300Y-112812800D01*
X143327796Y-112811596D01*
X143303527Y-112807996D01*
X143279729Y-112802035D01*
X143256629Y-112793770D01*
X143234451Y-112783280D01*
X143213407Y-112770667D01*
X143193702Y-112756053D01*
X143175523Y-112739577D01*
X143159047Y-112721398D01*
X143144433Y-112701693D01*
X143131820Y-112680649D01*
X143121330Y-112658471D01*
X143113065Y-112635371D01*
X143107104Y-112611573D01*
X143103504Y-112587304D01*
X143102300Y-112562800D01*
X143102300Y-111312800D01*
X143103504Y-111288296D01*
X143107104Y-111264027D01*
X143113065Y-111240229D01*
X143121330Y-111217129D01*
X143131820Y-111194951D01*
X143144433Y-111173907D01*
X143159047Y-111154202D01*
X143175523Y-111136023D01*
X143193702Y-111119547D01*
X143213407Y-111104933D01*
X143234451Y-111092320D01*
X143256629Y-111081830D01*
X143279729Y-111073565D01*
X143303527Y-111067604D01*
X143327796Y-111064004D01*
X143352300Y-111062800D01*
X144277300Y-111062800D01*
X144301804Y-111064004D01*
X144301804Y-111064004D01*
G37*
D13*
X143814800Y-111937800D03*
D11*
G36*
X141326804Y-111064004D02*
G01*
X141351073Y-111067604D01*
X141374871Y-111073565D01*
X141397971Y-111081830D01*
X141420149Y-111092320D01*
X141441193Y-111104933D01*
X141460898Y-111119547D01*
X141479077Y-111136023D01*
X141495553Y-111154202D01*
X141510167Y-111173907D01*
X141522780Y-111194951D01*
X141533270Y-111217129D01*
X141541535Y-111240229D01*
X141547496Y-111264027D01*
X141551096Y-111288296D01*
X141552300Y-111312800D01*
X141552300Y-112562800D01*
X141551096Y-112587304D01*
X141547496Y-112611573D01*
X141541535Y-112635371D01*
X141533270Y-112658471D01*
X141522780Y-112680649D01*
X141510167Y-112701693D01*
X141495553Y-112721398D01*
X141479077Y-112739577D01*
X141460898Y-112756053D01*
X141441193Y-112770667D01*
X141420149Y-112783280D01*
X141397971Y-112793770D01*
X141374871Y-112802035D01*
X141351073Y-112807996D01*
X141326804Y-112811596D01*
X141302300Y-112812800D01*
X140377300Y-112812800D01*
X140352796Y-112811596D01*
X140328527Y-112807996D01*
X140304729Y-112802035D01*
X140281629Y-112793770D01*
X140259451Y-112783280D01*
X140238407Y-112770667D01*
X140218702Y-112756053D01*
X140200523Y-112739577D01*
X140184047Y-112721398D01*
X140169433Y-112701693D01*
X140156820Y-112680649D01*
X140146330Y-112658471D01*
X140138065Y-112635371D01*
X140132104Y-112611573D01*
X140128504Y-112587304D01*
X140127300Y-112562800D01*
X140127300Y-111312800D01*
X140128504Y-111288296D01*
X140132104Y-111264027D01*
X140138065Y-111240229D01*
X140146330Y-111217129D01*
X140156820Y-111194951D01*
X140169433Y-111173907D01*
X140184047Y-111154202D01*
X140200523Y-111136023D01*
X140218702Y-111119547D01*
X140238407Y-111104933D01*
X140259451Y-111092320D01*
X140281629Y-111081830D01*
X140304729Y-111073565D01*
X140328527Y-111067604D01*
X140352796Y-111064004D01*
X140377300Y-111062800D01*
X141302300Y-111062800D01*
X141326804Y-111064004D01*
X141326804Y-111064004D01*
G37*
D13*
X140839800Y-111937800D03*
D14*
X105873800Y-104255600D03*
X108373800Y-104255600D03*
D15*
X127943600Y-108585000D03*
X125243600Y-108585000D03*
X125138200Y-104622600D03*
X127838200Y-104622600D03*
X113200200Y-115925600D03*
X115900200Y-115925600D03*
X113200200Y-106324400D03*
X115900200Y-106324400D03*
X125409600Y-117311200D03*
X128109600Y-117311200D03*
X135221600Y-115330000D03*
X132521600Y-115330000D03*
D16*
X105300400Y-108350200D03*
X106570400Y-108350200D03*
X107840400Y-108350200D03*
X109110400Y-108350200D03*
X109110400Y-115350200D03*
X107840400Y-115350200D03*
X106570400Y-115350200D03*
X105300400Y-115350200D03*
D11*
G36*
X135784804Y-109427004D02*
G01*
X135809073Y-109430604D01*
X135832871Y-109436565D01*
X135855971Y-109444830D01*
X135878149Y-109455320D01*
X135899193Y-109467933D01*
X135918898Y-109482547D01*
X135937077Y-109499023D01*
X135953553Y-109517202D01*
X135968167Y-109536907D01*
X135980780Y-109557951D01*
X135991270Y-109580129D01*
X135999535Y-109603229D01*
X136005496Y-109627027D01*
X136009096Y-109651296D01*
X136010300Y-109675800D01*
X136010300Y-110925800D01*
X136009096Y-110950304D01*
X136005496Y-110974573D01*
X135999535Y-110998371D01*
X135991270Y-111021471D01*
X135980780Y-111043649D01*
X135968167Y-111064693D01*
X135953553Y-111084398D01*
X135937077Y-111102577D01*
X135918898Y-111119053D01*
X135899193Y-111133667D01*
X135878149Y-111146280D01*
X135855971Y-111156770D01*
X135832871Y-111165035D01*
X135809073Y-111170996D01*
X135784804Y-111174596D01*
X135760300Y-111175800D01*
X134835300Y-111175800D01*
X134810796Y-111174596D01*
X134786527Y-111170996D01*
X134762729Y-111165035D01*
X134739629Y-111156770D01*
X134717451Y-111146280D01*
X134696407Y-111133667D01*
X134676702Y-111119053D01*
X134658523Y-111102577D01*
X134642047Y-111084398D01*
X134627433Y-111064693D01*
X134614820Y-111043649D01*
X134604330Y-111021471D01*
X134596065Y-110998371D01*
X134590104Y-110974573D01*
X134586504Y-110950304D01*
X134585300Y-110925800D01*
X134585300Y-109675800D01*
X134586504Y-109651296D01*
X134590104Y-109627027D01*
X134596065Y-109603229D01*
X134604330Y-109580129D01*
X134614820Y-109557951D01*
X134627433Y-109536907D01*
X134642047Y-109517202D01*
X134658523Y-109499023D01*
X134676702Y-109482547D01*
X134696407Y-109467933D01*
X134717451Y-109455320D01*
X134739629Y-109444830D01*
X134762729Y-109436565D01*
X134786527Y-109430604D01*
X134810796Y-109427004D01*
X134835300Y-109425800D01*
X135760300Y-109425800D01*
X135784804Y-109427004D01*
X135784804Y-109427004D01*
G37*
D13*
X135297800Y-110300800D03*
D11*
G36*
X132809804Y-109427004D02*
G01*
X132834073Y-109430604D01*
X132857871Y-109436565D01*
X132880971Y-109444830D01*
X132903149Y-109455320D01*
X132924193Y-109467933D01*
X132943898Y-109482547D01*
X132962077Y-109499023D01*
X132978553Y-109517202D01*
X132993167Y-109536907D01*
X133005780Y-109557951D01*
X133016270Y-109580129D01*
X133024535Y-109603229D01*
X133030496Y-109627027D01*
X133034096Y-109651296D01*
X133035300Y-109675800D01*
X133035300Y-110925800D01*
X133034096Y-110950304D01*
X133030496Y-110974573D01*
X133024535Y-110998371D01*
X133016270Y-111021471D01*
X133005780Y-111043649D01*
X132993167Y-111064693D01*
X132978553Y-111084398D01*
X132962077Y-111102577D01*
X132943898Y-111119053D01*
X132924193Y-111133667D01*
X132903149Y-111146280D01*
X132880971Y-111156770D01*
X132857871Y-111165035D01*
X132834073Y-111170996D01*
X132809804Y-111174596D01*
X132785300Y-111175800D01*
X131860300Y-111175800D01*
X131835796Y-111174596D01*
X131811527Y-111170996D01*
X131787729Y-111165035D01*
X131764629Y-111156770D01*
X131742451Y-111146280D01*
X131721407Y-111133667D01*
X131701702Y-111119053D01*
X131683523Y-111102577D01*
X131667047Y-111084398D01*
X131652433Y-111064693D01*
X131639820Y-111043649D01*
X131629330Y-111021471D01*
X131621065Y-110998371D01*
X131615104Y-110974573D01*
X131611504Y-110950304D01*
X131610300Y-110925800D01*
X131610300Y-109675800D01*
X131611504Y-109651296D01*
X131615104Y-109627027D01*
X131621065Y-109603229D01*
X131629330Y-109580129D01*
X131639820Y-109557951D01*
X131652433Y-109536907D01*
X131667047Y-109517202D01*
X131683523Y-109499023D01*
X131701702Y-109482547D01*
X131721407Y-109467933D01*
X131742451Y-109455320D01*
X131764629Y-109444830D01*
X131787729Y-109436565D01*
X131811527Y-109430604D01*
X131835796Y-109427004D01*
X131860300Y-109425800D01*
X132785300Y-109425800D01*
X132809804Y-109427004D01*
X132809804Y-109427004D01*
G37*
D13*
X132322800Y-110300800D03*
M02*
