G04 #@! TF.FileFunction,Copper,L2,Bot,Signal*
%FSLAX46Y46*%
G04 Gerber Fmt 4.6, Leading zero omitted, Abs format (unit mm)*
G04 Created by KiCad (PCBNEW 4.0.7) date Monday, January 15, 2018 'AMt' 07:35:06 AM*
%MOMM*%
%LPD*%
G01*
G04 APERTURE LIST*
%ADD10C,0.100000*%
%ADD11C,6.400000*%
%ADD12O,0.900000X1.500000*%
%ADD13R,0.900000X1.500000*%
%ADD14R,1.600000X1.600000*%
%ADD15O,1.600000X1.600000*%
%ADD16C,1.600000*%
%ADD17R,1.800000X1.800000*%
%ADD18O,1.800000X1.800000*%
%ADD19R,3.600000X1.800000*%
%ADD20O,3.600000X1.800000*%
%ADD21R,1.800000X3.600000*%
%ADD22O,1.800000X3.600000*%
%ADD23C,0.600000*%
%ADD24C,0.889000*%
%ADD25C,0.254000*%
G04 APERTURE END LIST*
D10*
D11*
X122145000Y-121255000D03*
X122145000Y-81250000D03*
X205965000Y-121255000D03*
D12*
X159610000Y-83155000D03*
X160880000Y-83155000D03*
D13*
X158340000Y-83155000D03*
D14*
X187423000Y-105380000D03*
D15*
X195043000Y-113000000D03*
X187423000Y-107920000D03*
X195043000Y-110460000D03*
X187423000Y-110460000D03*
X195043000Y-107920000D03*
X187423000Y-113000000D03*
X195043000Y-105380000D03*
D14*
X169897000Y-105380000D03*
D15*
X177517000Y-113000000D03*
X169897000Y-107920000D03*
X177517000Y-110460000D03*
X169897000Y-110460000D03*
X177517000Y-107920000D03*
X169897000Y-113000000D03*
X177517000Y-105380000D03*
D14*
X152752000Y-105380000D03*
D15*
X160372000Y-113000000D03*
X152752000Y-107920000D03*
X160372000Y-110460000D03*
X152752000Y-110460000D03*
X160372000Y-107920000D03*
X152752000Y-113000000D03*
X160372000Y-105380000D03*
D14*
X135226000Y-105380000D03*
D15*
X142846000Y-113000000D03*
X135226000Y-107920000D03*
X142846000Y-110460000D03*
X135226000Y-110460000D03*
X142846000Y-107920000D03*
X135226000Y-113000000D03*
X142846000Y-105380000D03*
D12*
X159610000Y-90140000D03*
X160880000Y-90140000D03*
D13*
X158340000Y-90140000D03*
D14*
X165325000Y-83155000D03*
D16*
X167825000Y-83155000D03*
D14*
X153895000Y-83155000D03*
D16*
X151395000Y-83155000D03*
D17*
X145005000Y-82520000D03*
D18*
X145005000Y-85060000D03*
X145005000Y-87600000D03*
D11*
X205965000Y-81250000D03*
D19*
X122272000Y-111222000D03*
D20*
X122272000Y-107722000D03*
X122272000Y-104222000D03*
D19*
X122780000Y-97506000D03*
D20*
X122780000Y-94006000D03*
X122780000Y-90506000D03*
D21*
X174088000Y-81758000D03*
D22*
X177588000Y-81758000D03*
X181088000Y-81758000D03*
X184588000Y-81758000D03*
X188088000Y-81758000D03*
X191588000Y-81758000D03*
X195088000Y-81758000D03*
X198588000Y-81758000D03*
D21*
X196440000Y-120366000D03*
D22*
X192940000Y-120366000D03*
X189440000Y-120366000D03*
X185940000Y-120366000D03*
D21*
X179676000Y-120366000D03*
D22*
X176176000Y-120366000D03*
X172676000Y-120366000D03*
X169176000Y-120366000D03*
D21*
X162404000Y-120366000D03*
D22*
X158904000Y-120366000D03*
X155404000Y-120366000D03*
X151904000Y-120366000D03*
D21*
X144116000Y-120366000D03*
D22*
X140616000Y-120366000D03*
X137116000Y-120366000D03*
X133616000Y-120366000D03*
D21*
X131924000Y-82266000D03*
D22*
X135424000Y-82266000D03*
D23*
X139544000Y-85568000D03*
X162150000Y-92680000D03*
X149958000Y-86076000D03*
X197710000Y-102840000D03*
X180438000Y-102840000D03*
X145386000Y-102840000D03*
X163166000Y-102840000D03*
D24*
X196440000Y-120366000D02*
X196440000Y-117572000D01*
X196440000Y-117572000D02*
X194408000Y-115540000D01*
X179676000Y-120366000D02*
X179676000Y-117826000D01*
X179676000Y-117826000D02*
X177390000Y-115540000D01*
X162404000Y-120366000D02*
X162404000Y-117191000D01*
X162404000Y-117191000D02*
X164055000Y-115540000D01*
X144116000Y-120366000D02*
X144116000Y-117826000D01*
X146402000Y-115540000D02*
X147545000Y-115540000D01*
X144116000Y-117826000D02*
X146402000Y-115540000D01*
X191360000Y-113000000D02*
X192630000Y-114270000D01*
X193265000Y-107920000D02*
X191360000Y-109825000D01*
X191360000Y-109825000D02*
X191360000Y-113000000D01*
X195043000Y-107920000D02*
X193265000Y-107920000D01*
X193900000Y-115540000D02*
X193265000Y-115540000D01*
X192630000Y-114270000D02*
X193900000Y-115540000D01*
X176120000Y-115540000D02*
X173580000Y-113000000D01*
X176120000Y-107920000D02*
X177517000Y-107920000D01*
X173580000Y-110460000D02*
X173580000Y-113000000D01*
X176120000Y-107920000D02*
X173580000Y-110460000D01*
X160372000Y-107920000D02*
X158975000Y-107920000D01*
X156435000Y-113000000D02*
X158975000Y-115540000D01*
X156435000Y-110460000D02*
X156435000Y-113000000D01*
X158975000Y-107920000D02*
X156435000Y-110460000D01*
X147545000Y-115540000D02*
X141195000Y-115540000D01*
X141195000Y-107920000D02*
X142846000Y-107920000D01*
X138655000Y-110460000D02*
X141195000Y-107920000D01*
X138655000Y-113000000D02*
X138655000Y-110460000D01*
X141195000Y-115540000D02*
X138655000Y-113000000D01*
X177390000Y-115540000D02*
X188820000Y-115540000D01*
X188820000Y-115540000D02*
X193265000Y-115540000D01*
X193265000Y-115540000D02*
X194408000Y-115540000D01*
X194408000Y-115540000D02*
X194535000Y-115540000D01*
X165325000Y-114270000D02*
X166595000Y-115540000D01*
X166595000Y-115540000D02*
X171040000Y-115540000D01*
X171040000Y-115540000D02*
X175485000Y-115540000D01*
X175485000Y-115540000D02*
X176120000Y-115540000D01*
X176120000Y-115540000D02*
X177390000Y-115540000D01*
X159610000Y-95220000D02*
X159610000Y-90140000D01*
X159610000Y-95220000D02*
X165325000Y-100935000D01*
X165325000Y-114270000D02*
X165325000Y-100935000D01*
X164055000Y-115540000D02*
X165325000Y-114270000D01*
X147545000Y-115540000D02*
X158975000Y-115540000D01*
X158975000Y-115540000D02*
X164055000Y-115540000D01*
X152053500Y-78138500D02*
X157006500Y-78138500D01*
X158340000Y-79472000D02*
X158340000Y-83155000D01*
X157006500Y-78138500D02*
X158340000Y-79472000D01*
X140052000Y-82520000D02*
X135678000Y-82520000D01*
X135678000Y-82520000D02*
X135424000Y-82266000D01*
X139925000Y-82520000D02*
X140052000Y-82520000D01*
X140052000Y-82520000D02*
X145005000Y-82520000D01*
X153895000Y-79980000D02*
X153895000Y-83155000D01*
X151990000Y-78075000D02*
X152053500Y-78138500D01*
X152053500Y-78138500D02*
X153895000Y-79980000D01*
X144370000Y-78075000D02*
X151990000Y-78075000D01*
X139925000Y-82520000D02*
X144370000Y-78075000D01*
X127210000Y-102855000D02*
X127210000Y-103236000D01*
X127210000Y-89490000D02*
X127210000Y-102855000D01*
X126224000Y-104222000D02*
X122272000Y-104222000D01*
X127210000Y-103236000D02*
X126224000Y-104222000D01*
X123034000Y-90760000D02*
X125940000Y-90760000D01*
X125940000Y-90760000D02*
X127210000Y-89490000D01*
X123034000Y-90760000D02*
X122780000Y-90506000D01*
X129100000Y-87600000D02*
X145005000Y-87600000D01*
X127210000Y-89490000D02*
X129100000Y-87600000D01*
X159610000Y-83155000D02*
X159610000Y-85695000D01*
X158340000Y-86965000D02*
X158340000Y-90140000D01*
X159610000Y-85695000D02*
X158340000Y-86965000D01*
D25*
G36*
X210283000Y-126081000D02*
X117573000Y-126081000D01*
X117573000Y-122014482D01*
X118309336Y-122014482D01*
X118891950Y-123424515D01*
X119969811Y-124504259D01*
X121378825Y-125089333D01*
X122904482Y-125090664D01*
X124314515Y-124508050D01*
X125394259Y-123430189D01*
X125979333Y-122021175D01*
X125980664Y-120495518D01*
X125535565Y-119418296D01*
X132081000Y-119418296D01*
X132081000Y-121313704D01*
X132197845Y-121901123D01*
X132530591Y-122399113D01*
X133028581Y-122731859D01*
X133616000Y-122848704D01*
X134203419Y-122731859D01*
X134701409Y-122399113D01*
X135034155Y-121901123D01*
X135151000Y-121313704D01*
X135151000Y-119418296D01*
X135581000Y-119418296D01*
X135581000Y-121313704D01*
X135697845Y-121901123D01*
X136030591Y-122399113D01*
X136528581Y-122731859D01*
X137116000Y-122848704D01*
X137703419Y-122731859D01*
X138201409Y-122399113D01*
X138534155Y-121901123D01*
X138651000Y-121313704D01*
X138651000Y-120493000D01*
X139081000Y-120493000D01*
X139081000Y-121393000D01*
X139246446Y-121970752D01*
X139620394Y-122441212D01*
X140145914Y-122732756D01*
X140251260Y-122757036D01*
X140489000Y-122636378D01*
X140489000Y-120493000D01*
X140743000Y-120493000D01*
X140743000Y-122636378D01*
X140980740Y-122757036D01*
X141086086Y-122732756D01*
X141611606Y-122441212D01*
X141985554Y-121970752D01*
X142151000Y-121393000D01*
X142151000Y-120493000D01*
X140743000Y-120493000D01*
X140489000Y-120493000D01*
X139081000Y-120493000D01*
X138651000Y-120493000D01*
X138651000Y-119418296D01*
X138635228Y-119339000D01*
X139081000Y-119339000D01*
X139081000Y-120239000D01*
X140489000Y-120239000D01*
X140489000Y-118095622D01*
X140743000Y-118095622D01*
X140743000Y-120239000D01*
X142151000Y-120239000D01*
X142151000Y-119339000D01*
X141985554Y-118761248D01*
X141611606Y-118290788D01*
X141086086Y-117999244D01*
X140980740Y-117974964D01*
X140743000Y-118095622D01*
X140489000Y-118095622D01*
X140251260Y-117974964D01*
X140145914Y-117999244D01*
X139620394Y-118290788D01*
X139246446Y-118761248D01*
X139081000Y-119339000D01*
X138635228Y-119339000D01*
X138534155Y-118830877D01*
X138201409Y-118332887D01*
X137703419Y-118000141D01*
X137116000Y-117883296D01*
X136528581Y-118000141D01*
X136030591Y-118332887D01*
X135697845Y-118830877D01*
X135581000Y-119418296D01*
X135151000Y-119418296D01*
X135034155Y-118830877D01*
X134701409Y-118332887D01*
X134203419Y-118000141D01*
X133616000Y-117883296D01*
X133028581Y-118000141D01*
X132530591Y-118332887D01*
X132197845Y-118830877D01*
X132081000Y-119418296D01*
X125535565Y-119418296D01*
X125398050Y-119085485D01*
X124320189Y-118005741D01*
X122911175Y-117420667D01*
X121385518Y-117419336D01*
X119975485Y-118001950D01*
X118895741Y-119079811D01*
X118310667Y-120488825D01*
X118309336Y-122014482D01*
X117573000Y-122014482D01*
X117573000Y-113349039D01*
X133834096Y-113349039D01*
X133994959Y-113737423D01*
X134370866Y-114152389D01*
X134876959Y-114391914D01*
X135099000Y-114270629D01*
X135099000Y-113127000D01*
X135353000Y-113127000D01*
X135353000Y-114270629D01*
X135575041Y-114391914D01*
X136081134Y-114152389D01*
X136457041Y-113737423D01*
X136617904Y-113349039D01*
X136495915Y-113127000D01*
X135353000Y-113127000D01*
X135099000Y-113127000D01*
X133956085Y-113127000D01*
X133834096Y-113349039D01*
X117573000Y-113349039D01*
X117573000Y-110322000D01*
X119824560Y-110322000D01*
X119824560Y-112122000D01*
X119868838Y-112357317D01*
X120007910Y-112573441D01*
X120220110Y-112718431D01*
X120472000Y-112769440D01*
X124072000Y-112769440D01*
X124307317Y-112725162D01*
X124523441Y-112586090D01*
X124668431Y-112373890D01*
X124719440Y-112122000D01*
X124719440Y-110322000D01*
X124675162Y-110086683D01*
X124536090Y-109870559D01*
X124323890Y-109725569D01*
X124072000Y-109674560D01*
X120472000Y-109674560D01*
X120236683Y-109718838D01*
X120020559Y-109857910D01*
X119875569Y-110070110D01*
X119824560Y-110322000D01*
X117573000Y-110322000D01*
X117573000Y-108086740D01*
X119880964Y-108086740D01*
X119905244Y-108192086D01*
X120196788Y-108717606D01*
X120667248Y-109091554D01*
X121245000Y-109257000D01*
X122145000Y-109257000D01*
X122145000Y-107849000D01*
X122399000Y-107849000D01*
X122399000Y-109257000D01*
X123299000Y-109257000D01*
X123876752Y-109091554D01*
X124347212Y-108717606D01*
X124638756Y-108192086D01*
X124663036Y-108086740D01*
X124578412Y-107920000D01*
X133762887Y-107920000D01*
X133872120Y-108469151D01*
X134183189Y-108934698D01*
X134565275Y-109190000D01*
X134183189Y-109445302D01*
X133872120Y-109910849D01*
X133762887Y-110460000D01*
X133872120Y-111009151D01*
X134183189Y-111474698D01*
X134587703Y-111744986D01*
X134370866Y-111847611D01*
X133994959Y-112262577D01*
X133834096Y-112650961D01*
X133956085Y-112873000D01*
X135099000Y-112873000D01*
X135099000Y-112853000D01*
X135353000Y-112853000D01*
X135353000Y-112873000D01*
X136495915Y-112873000D01*
X136617904Y-112650961D01*
X136457041Y-112262577D01*
X136081134Y-111847611D01*
X135864297Y-111744986D01*
X136268811Y-111474698D01*
X136579880Y-111009151D01*
X136689113Y-110460000D01*
X136579880Y-109910849D01*
X136268811Y-109445302D01*
X135886725Y-109190000D01*
X136268811Y-108934698D01*
X136579880Y-108469151D01*
X136689113Y-107920000D01*
X136579880Y-107370849D01*
X136268811Y-106905302D01*
X136124535Y-106808899D01*
X136261317Y-106783162D01*
X136477441Y-106644090D01*
X136622431Y-106431890D01*
X136673440Y-106180000D01*
X136673440Y-104580000D01*
X136629162Y-104344683D01*
X136490090Y-104128559D01*
X136277890Y-103983569D01*
X136026000Y-103932560D01*
X134426000Y-103932560D01*
X134190683Y-103976838D01*
X133974559Y-104115910D01*
X133829569Y-104328110D01*
X133778560Y-104580000D01*
X133778560Y-106180000D01*
X133822838Y-106415317D01*
X133961910Y-106631441D01*
X134174110Y-106776431D01*
X134329089Y-106807815D01*
X134183189Y-106905302D01*
X133872120Y-107370849D01*
X133762887Y-107920000D01*
X124578412Y-107920000D01*
X124542378Y-107849000D01*
X122399000Y-107849000D01*
X122145000Y-107849000D01*
X120001622Y-107849000D01*
X119880964Y-108086740D01*
X117573000Y-108086740D01*
X117573000Y-107357260D01*
X119880964Y-107357260D01*
X120001622Y-107595000D01*
X122145000Y-107595000D01*
X122145000Y-106187000D01*
X122399000Y-106187000D01*
X122399000Y-107595000D01*
X124542378Y-107595000D01*
X124663036Y-107357260D01*
X124638756Y-107251914D01*
X124347212Y-106726394D01*
X123876752Y-106352446D01*
X123299000Y-106187000D01*
X122399000Y-106187000D01*
X122145000Y-106187000D01*
X121245000Y-106187000D01*
X120667248Y-106352446D01*
X120196788Y-106726394D01*
X119905244Y-107251914D01*
X119880964Y-107357260D01*
X117573000Y-107357260D01*
X117573000Y-104222000D01*
X119789296Y-104222000D01*
X119906141Y-104809419D01*
X120238887Y-105307409D01*
X120736877Y-105640155D01*
X121324296Y-105757000D01*
X123219704Y-105757000D01*
X123807123Y-105640155D01*
X124305113Y-105307409D01*
X124309061Y-105301500D01*
X126224000Y-105301500D01*
X126637107Y-105219328D01*
X126987322Y-104985322D01*
X127973319Y-103999324D01*
X127973322Y-103999322D01*
X128207328Y-103649107D01*
X128283114Y-103268107D01*
X128289501Y-103236000D01*
X128289500Y-103235995D01*
X128289500Y-89937144D01*
X129547144Y-88679500D01*
X143895549Y-88679500D01*
X143919591Y-88715481D01*
X144417581Y-89048227D01*
X145005000Y-89165072D01*
X145592419Y-89048227D01*
X146090409Y-88715481D01*
X146423155Y-88217491D01*
X146540000Y-87630072D01*
X146540000Y-87569928D01*
X146423155Y-86982509D01*
X146090409Y-86484519D01*
X145852418Y-86325499D01*
X146242966Y-85967576D01*
X146496046Y-85424742D01*
X146375997Y-85187000D01*
X145132000Y-85187000D01*
X145132000Y-85207000D01*
X144878000Y-85207000D01*
X144878000Y-85187000D01*
X143634003Y-85187000D01*
X143513954Y-85424742D01*
X143767034Y-85967576D01*
X144157582Y-86325499D01*
X143919591Y-86484519D01*
X143895549Y-86520500D01*
X129100005Y-86520500D01*
X129100000Y-86520499D01*
X128755433Y-86589039D01*
X128686893Y-86602672D01*
X128429734Y-86774500D01*
X128336678Y-86836678D01*
X125492856Y-89680500D01*
X124986778Y-89680500D01*
X124813113Y-89420591D01*
X124315123Y-89087845D01*
X123727704Y-88971000D01*
X121832296Y-88971000D01*
X121244877Y-89087845D01*
X120746887Y-89420591D01*
X120414141Y-89918581D01*
X120297296Y-90506000D01*
X120414141Y-91093419D01*
X120746887Y-91591409D01*
X121244877Y-91924155D01*
X121832296Y-92041000D01*
X123727704Y-92041000D01*
X124315123Y-91924155D01*
X124441818Y-91839500D01*
X125940000Y-91839500D01*
X126130500Y-91801607D01*
X126130500Y-102788857D01*
X125776856Y-103142500D01*
X124309061Y-103142500D01*
X124305113Y-103136591D01*
X123807123Y-102803845D01*
X123219704Y-102687000D01*
X121324296Y-102687000D01*
X120736877Y-102803845D01*
X120238887Y-103136591D01*
X119906141Y-103634581D01*
X119789296Y-104222000D01*
X117573000Y-104222000D01*
X117573000Y-96606000D01*
X120332560Y-96606000D01*
X120332560Y-98406000D01*
X120376838Y-98641317D01*
X120515910Y-98857441D01*
X120728110Y-99002431D01*
X120980000Y-99053440D01*
X124580000Y-99053440D01*
X124815317Y-99009162D01*
X125031441Y-98870090D01*
X125176431Y-98657890D01*
X125227440Y-98406000D01*
X125227440Y-96606000D01*
X125183162Y-96370683D01*
X125044090Y-96154559D01*
X124831890Y-96009569D01*
X124580000Y-95958560D01*
X120980000Y-95958560D01*
X120744683Y-96002838D01*
X120528559Y-96141910D01*
X120383569Y-96354110D01*
X120332560Y-96606000D01*
X117573000Y-96606000D01*
X117573000Y-94370740D01*
X120388964Y-94370740D01*
X120413244Y-94476086D01*
X120704788Y-95001606D01*
X121175248Y-95375554D01*
X121753000Y-95541000D01*
X122653000Y-95541000D01*
X122653000Y-94133000D01*
X122907000Y-94133000D01*
X122907000Y-95541000D01*
X123807000Y-95541000D01*
X124384752Y-95375554D01*
X124855212Y-95001606D01*
X125146756Y-94476086D01*
X125171036Y-94370740D01*
X125050378Y-94133000D01*
X122907000Y-94133000D01*
X122653000Y-94133000D01*
X120509622Y-94133000D01*
X120388964Y-94370740D01*
X117573000Y-94370740D01*
X117573000Y-93641260D01*
X120388964Y-93641260D01*
X120509622Y-93879000D01*
X122653000Y-93879000D01*
X122653000Y-92471000D01*
X122907000Y-92471000D01*
X122907000Y-93879000D01*
X125050378Y-93879000D01*
X125171036Y-93641260D01*
X125146756Y-93535914D01*
X124855212Y-93010394D01*
X124384752Y-92636446D01*
X123807000Y-92471000D01*
X122907000Y-92471000D01*
X122653000Y-92471000D01*
X121753000Y-92471000D01*
X121175248Y-92636446D01*
X120704788Y-93010394D01*
X120413244Y-93535914D01*
X120388964Y-93641260D01*
X117573000Y-93641260D01*
X117573000Y-82009482D01*
X118309336Y-82009482D01*
X118891950Y-83419515D01*
X119969811Y-84499259D01*
X121378825Y-85084333D01*
X122904482Y-85085664D01*
X124314515Y-84503050D01*
X125394259Y-83425189D01*
X125756942Y-82551750D01*
X130389000Y-82551750D01*
X130389000Y-84192310D01*
X130485673Y-84425699D01*
X130664302Y-84604327D01*
X130897691Y-84701000D01*
X131638250Y-84701000D01*
X131797000Y-84542250D01*
X131797000Y-82393000D01*
X132051000Y-82393000D01*
X132051000Y-84542250D01*
X132209750Y-84701000D01*
X132950309Y-84701000D01*
X133183698Y-84604327D01*
X133362327Y-84425699D01*
X133459000Y-84192310D01*
X133459000Y-82551750D01*
X133300250Y-82393000D01*
X132051000Y-82393000D01*
X131797000Y-82393000D01*
X130547750Y-82393000D01*
X130389000Y-82551750D01*
X125756942Y-82551750D01*
X125979333Y-82016175D01*
X125980664Y-80490518D01*
X125918344Y-80339690D01*
X130389000Y-80339690D01*
X130389000Y-81980250D01*
X130547750Y-82139000D01*
X131797000Y-82139000D01*
X131797000Y-79989750D01*
X132051000Y-79989750D01*
X132051000Y-82139000D01*
X133300250Y-82139000D01*
X133459000Y-81980250D01*
X133459000Y-81318296D01*
X133889000Y-81318296D01*
X133889000Y-83213704D01*
X134005845Y-83801123D01*
X134338591Y-84299113D01*
X134836581Y-84631859D01*
X135424000Y-84748704D01*
X136011419Y-84631859D01*
X136509409Y-84299113D01*
X136842155Y-83801123D01*
X136882260Y-83599500D01*
X143491335Y-83599500D01*
X143501838Y-83655317D01*
X143640910Y-83871441D01*
X143853110Y-84016431D01*
X143904146Y-84026766D01*
X143767034Y-84152424D01*
X143513954Y-84695258D01*
X143634003Y-84933000D01*
X144878000Y-84933000D01*
X144878000Y-84913000D01*
X145132000Y-84913000D01*
X145132000Y-84933000D01*
X146375997Y-84933000D01*
X146496046Y-84695258D01*
X146247778Y-84162745D01*
X150566861Y-84162745D01*
X150640995Y-84408864D01*
X151178223Y-84601965D01*
X151748454Y-84574778D01*
X152149005Y-84408864D01*
X152223139Y-84162745D01*
X151395000Y-83334605D01*
X150566861Y-84162745D01*
X146247778Y-84162745D01*
X146242966Y-84152424D01*
X146108462Y-84029156D01*
X146140317Y-84023162D01*
X146356441Y-83884090D01*
X146501431Y-83671890D01*
X146552440Y-83420000D01*
X146552440Y-82938223D01*
X149948035Y-82938223D01*
X149975222Y-83508454D01*
X150141136Y-83909005D01*
X150387255Y-83983139D01*
X151215395Y-83155000D01*
X150387255Y-82326861D01*
X150141136Y-82400995D01*
X149948035Y-82938223D01*
X146552440Y-82938223D01*
X146552440Y-82147255D01*
X150566861Y-82147255D01*
X151395000Y-82975395D01*
X152223139Y-82147255D01*
X152149005Y-81901136D01*
X151611777Y-81708035D01*
X151041546Y-81735222D01*
X150640995Y-81901136D01*
X150566861Y-82147255D01*
X146552440Y-82147255D01*
X146552440Y-81620000D01*
X146508162Y-81384683D01*
X146369090Y-81168559D01*
X146156890Y-81023569D01*
X145905000Y-80972560D01*
X144105000Y-80972560D01*
X143869683Y-81016838D01*
X143653559Y-81155910D01*
X143508569Y-81368110D01*
X143493910Y-81440500D01*
X142531144Y-81440500D01*
X144817144Y-79154500D01*
X151542856Y-79154500D01*
X152815500Y-80427144D01*
X152815500Y-81780269D01*
X152643559Y-81890910D01*
X152498569Y-82103110D01*
X152450354Y-82341201D01*
X152402745Y-82326861D01*
X151574605Y-83155000D01*
X152402745Y-83983139D01*
X152450167Y-83968855D01*
X152491838Y-84190317D01*
X152630910Y-84406441D01*
X152843110Y-84551431D01*
X153095000Y-84602440D01*
X154695000Y-84602440D01*
X154930317Y-84558162D01*
X155146441Y-84419090D01*
X155291431Y-84206890D01*
X155342440Y-83955000D01*
X155342440Y-82355000D01*
X155298162Y-82119683D01*
X155159090Y-81903559D01*
X154974500Y-81777434D01*
X154974500Y-79980000D01*
X154892328Y-79566893D01*
X154659205Y-79218000D01*
X156559356Y-79218000D01*
X157260500Y-79919144D01*
X157260500Y-82316410D01*
X157242560Y-82405000D01*
X157242560Y-83905000D01*
X157286838Y-84140317D01*
X157425910Y-84356441D01*
X157638110Y-84501431D01*
X157890000Y-84552440D01*
X158530500Y-84552440D01*
X158530500Y-85247856D01*
X157576678Y-86201678D01*
X157342672Y-86551893D01*
X157260500Y-86965000D01*
X157260500Y-89301410D01*
X157242560Y-89390000D01*
X157242560Y-90890000D01*
X157286838Y-91125317D01*
X157425910Y-91341441D01*
X157638110Y-91486431D01*
X157890000Y-91537440D01*
X158530500Y-91537440D01*
X158530500Y-95220000D01*
X158612672Y-95633107D01*
X158846678Y-95983322D01*
X164245500Y-101382143D01*
X164245500Y-113822856D01*
X163607856Y-114460500D01*
X159422143Y-114460500D01*
X158310683Y-113349039D01*
X158980096Y-113349039D01*
X159140959Y-113737423D01*
X159516866Y-114152389D01*
X160022959Y-114391914D01*
X160245000Y-114270629D01*
X160245000Y-113127000D01*
X160499000Y-113127000D01*
X160499000Y-114270629D01*
X160721041Y-114391914D01*
X161227134Y-114152389D01*
X161603041Y-113737423D01*
X161763904Y-113349039D01*
X161641915Y-113127000D01*
X160499000Y-113127000D01*
X160245000Y-113127000D01*
X159102085Y-113127000D01*
X158980096Y-113349039D01*
X158310683Y-113349039D01*
X157514500Y-112552856D01*
X157514500Y-110907144D01*
X159422143Y-108999500D01*
X159426172Y-108999500D01*
X159711275Y-109190000D01*
X159329189Y-109445302D01*
X159018120Y-109910849D01*
X158908887Y-110460000D01*
X159018120Y-111009151D01*
X159329189Y-111474698D01*
X159733703Y-111744986D01*
X159516866Y-111847611D01*
X159140959Y-112262577D01*
X158980096Y-112650961D01*
X159102085Y-112873000D01*
X160245000Y-112873000D01*
X160245000Y-112853000D01*
X160499000Y-112853000D01*
X160499000Y-112873000D01*
X161641915Y-112873000D01*
X161763904Y-112650961D01*
X161603041Y-112262577D01*
X161227134Y-111847611D01*
X161010297Y-111744986D01*
X161414811Y-111474698D01*
X161725880Y-111009151D01*
X161835113Y-110460000D01*
X161725880Y-109910849D01*
X161414811Y-109445302D01*
X161032725Y-109190000D01*
X161414811Y-108934698D01*
X161725880Y-108469151D01*
X161835113Y-107920000D01*
X161725880Y-107370849D01*
X161414811Y-106905302D01*
X161032725Y-106650000D01*
X161414811Y-106394698D01*
X161725880Y-105929151D01*
X161835113Y-105380000D01*
X161725880Y-104830849D01*
X161414811Y-104365302D01*
X160949264Y-104054233D01*
X160400113Y-103945000D01*
X160343887Y-103945000D01*
X159794736Y-104054233D01*
X159329189Y-104365302D01*
X159018120Y-104830849D01*
X158908887Y-105380000D01*
X159018120Y-105929151D01*
X159329189Y-106394698D01*
X159711275Y-106650000D01*
X159426172Y-106840500D01*
X158975000Y-106840500D01*
X158561893Y-106922672D01*
X158211678Y-107156678D01*
X158211676Y-107156681D01*
X155671678Y-109696678D01*
X155437672Y-110046893D01*
X155355500Y-110460000D01*
X155355500Y-113000000D01*
X155437672Y-113413107D01*
X155671678Y-113763322D01*
X156368856Y-114460500D01*
X141642143Y-114460500D01*
X140530683Y-113349039D01*
X141454096Y-113349039D01*
X141614959Y-113737423D01*
X141990866Y-114152389D01*
X142496959Y-114391914D01*
X142719000Y-114270629D01*
X142719000Y-113127000D01*
X142973000Y-113127000D01*
X142973000Y-114270629D01*
X143195041Y-114391914D01*
X143701134Y-114152389D01*
X144077041Y-113737423D01*
X144237904Y-113349039D01*
X151360096Y-113349039D01*
X151520959Y-113737423D01*
X151896866Y-114152389D01*
X152402959Y-114391914D01*
X152625000Y-114270629D01*
X152625000Y-113127000D01*
X152879000Y-113127000D01*
X152879000Y-114270629D01*
X153101041Y-114391914D01*
X153607134Y-114152389D01*
X153983041Y-113737423D01*
X154143904Y-113349039D01*
X154021915Y-113127000D01*
X152879000Y-113127000D01*
X152625000Y-113127000D01*
X151482085Y-113127000D01*
X151360096Y-113349039D01*
X144237904Y-113349039D01*
X144115915Y-113127000D01*
X142973000Y-113127000D01*
X142719000Y-113127000D01*
X141576085Y-113127000D01*
X141454096Y-113349039D01*
X140530683Y-113349039D01*
X139734500Y-112552856D01*
X139734500Y-110907144D01*
X141642143Y-108999500D01*
X141900172Y-108999500D01*
X142185275Y-109190000D01*
X141803189Y-109445302D01*
X141492120Y-109910849D01*
X141382887Y-110460000D01*
X141492120Y-111009151D01*
X141803189Y-111474698D01*
X142207703Y-111744986D01*
X141990866Y-111847611D01*
X141614959Y-112262577D01*
X141454096Y-112650961D01*
X141576085Y-112873000D01*
X142719000Y-112873000D01*
X142719000Y-112853000D01*
X142973000Y-112853000D01*
X142973000Y-112873000D01*
X144115915Y-112873000D01*
X144237904Y-112650961D01*
X144077041Y-112262577D01*
X143701134Y-111847611D01*
X143484297Y-111744986D01*
X143888811Y-111474698D01*
X144199880Y-111009151D01*
X144309113Y-110460000D01*
X144199880Y-109910849D01*
X143888811Y-109445302D01*
X143506725Y-109190000D01*
X143888811Y-108934698D01*
X144199880Y-108469151D01*
X144309113Y-107920000D01*
X151288887Y-107920000D01*
X151398120Y-108469151D01*
X151709189Y-108934698D01*
X152091275Y-109190000D01*
X151709189Y-109445302D01*
X151398120Y-109910849D01*
X151288887Y-110460000D01*
X151398120Y-111009151D01*
X151709189Y-111474698D01*
X152113703Y-111744986D01*
X151896866Y-111847611D01*
X151520959Y-112262577D01*
X151360096Y-112650961D01*
X151482085Y-112873000D01*
X152625000Y-112873000D01*
X152625000Y-112853000D01*
X152879000Y-112853000D01*
X152879000Y-112873000D01*
X154021915Y-112873000D01*
X154143904Y-112650961D01*
X153983041Y-112262577D01*
X153607134Y-111847611D01*
X153390297Y-111744986D01*
X153794811Y-111474698D01*
X154105880Y-111009151D01*
X154215113Y-110460000D01*
X154105880Y-109910849D01*
X153794811Y-109445302D01*
X153412725Y-109190000D01*
X153794811Y-108934698D01*
X154105880Y-108469151D01*
X154215113Y-107920000D01*
X154105880Y-107370849D01*
X153794811Y-106905302D01*
X153650535Y-106808899D01*
X153787317Y-106783162D01*
X154003441Y-106644090D01*
X154148431Y-106431890D01*
X154199440Y-106180000D01*
X154199440Y-104580000D01*
X154155162Y-104344683D01*
X154016090Y-104128559D01*
X153803890Y-103983569D01*
X153552000Y-103932560D01*
X151952000Y-103932560D01*
X151716683Y-103976838D01*
X151500559Y-104115910D01*
X151355569Y-104328110D01*
X151304560Y-104580000D01*
X151304560Y-106180000D01*
X151348838Y-106415317D01*
X151487910Y-106631441D01*
X151700110Y-106776431D01*
X151855089Y-106807815D01*
X151709189Y-106905302D01*
X151398120Y-107370849D01*
X151288887Y-107920000D01*
X144309113Y-107920000D01*
X144199880Y-107370849D01*
X143888811Y-106905302D01*
X143506725Y-106650000D01*
X143888811Y-106394698D01*
X144199880Y-105929151D01*
X144309113Y-105380000D01*
X144199880Y-104830849D01*
X143888811Y-104365302D01*
X143423264Y-104054233D01*
X142874113Y-103945000D01*
X142817887Y-103945000D01*
X142268736Y-104054233D01*
X141803189Y-104365302D01*
X141492120Y-104830849D01*
X141382887Y-105380000D01*
X141492120Y-105929151D01*
X141803189Y-106394698D01*
X142185275Y-106650000D01*
X141900172Y-106840500D01*
X141195000Y-106840500D01*
X140781893Y-106922672D01*
X140431678Y-107156678D01*
X140431676Y-107156681D01*
X137891678Y-109696678D01*
X137657672Y-110046893D01*
X137575500Y-110460000D01*
X137575500Y-113000000D01*
X137657672Y-113413107D01*
X137891678Y-113763322D01*
X140431676Y-116303319D01*
X140431678Y-116303322D01*
X140714803Y-116492500D01*
X140781893Y-116537328D01*
X141195000Y-116619500D01*
X143795856Y-116619500D01*
X143352678Y-117062678D01*
X143118672Y-117412893D01*
X143036500Y-117826000D01*
X143036500Y-117952335D01*
X142980683Y-117962838D01*
X142764559Y-118101910D01*
X142619569Y-118314110D01*
X142568560Y-118566000D01*
X142568560Y-122166000D01*
X142612838Y-122401317D01*
X142751910Y-122617441D01*
X142964110Y-122762431D01*
X143216000Y-122813440D01*
X145016000Y-122813440D01*
X145251317Y-122769162D01*
X145467441Y-122630090D01*
X145612431Y-122417890D01*
X145663440Y-122166000D01*
X145663440Y-119418296D01*
X150369000Y-119418296D01*
X150369000Y-121313704D01*
X150485845Y-121901123D01*
X150818591Y-122399113D01*
X151316581Y-122731859D01*
X151904000Y-122848704D01*
X152491419Y-122731859D01*
X152989409Y-122399113D01*
X153322155Y-121901123D01*
X153439000Y-121313704D01*
X153439000Y-119418296D01*
X153869000Y-119418296D01*
X153869000Y-121313704D01*
X153985845Y-121901123D01*
X154318591Y-122399113D01*
X154816581Y-122731859D01*
X155404000Y-122848704D01*
X155991419Y-122731859D01*
X156489409Y-122399113D01*
X156822155Y-121901123D01*
X156939000Y-121313704D01*
X156939000Y-120493000D01*
X157369000Y-120493000D01*
X157369000Y-121393000D01*
X157534446Y-121970752D01*
X157908394Y-122441212D01*
X158433914Y-122732756D01*
X158539260Y-122757036D01*
X158777000Y-122636378D01*
X158777000Y-120493000D01*
X159031000Y-120493000D01*
X159031000Y-122636378D01*
X159268740Y-122757036D01*
X159374086Y-122732756D01*
X159899606Y-122441212D01*
X160273554Y-121970752D01*
X160439000Y-121393000D01*
X160439000Y-120493000D01*
X159031000Y-120493000D01*
X158777000Y-120493000D01*
X157369000Y-120493000D01*
X156939000Y-120493000D01*
X156939000Y-119418296D01*
X156923228Y-119339000D01*
X157369000Y-119339000D01*
X157369000Y-120239000D01*
X158777000Y-120239000D01*
X158777000Y-118095622D01*
X159031000Y-118095622D01*
X159031000Y-120239000D01*
X160439000Y-120239000D01*
X160439000Y-119339000D01*
X160273554Y-118761248D01*
X159899606Y-118290788D01*
X159374086Y-117999244D01*
X159268740Y-117974964D01*
X159031000Y-118095622D01*
X158777000Y-118095622D01*
X158539260Y-117974964D01*
X158433914Y-117999244D01*
X157908394Y-118290788D01*
X157534446Y-118761248D01*
X157369000Y-119339000D01*
X156923228Y-119339000D01*
X156822155Y-118830877D01*
X156489409Y-118332887D01*
X155991419Y-118000141D01*
X155404000Y-117883296D01*
X154816581Y-118000141D01*
X154318591Y-118332887D01*
X153985845Y-118830877D01*
X153869000Y-119418296D01*
X153439000Y-119418296D01*
X153322155Y-118830877D01*
X152989409Y-118332887D01*
X152491419Y-118000141D01*
X151904000Y-117883296D01*
X151316581Y-118000141D01*
X150818591Y-118332887D01*
X150485845Y-118830877D01*
X150369000Y-119418296D01*
X145663440Y-119418296D01*
X145663440Y-118566000D01*
X145619162Y-118330683D01*
X145480090Y-118114559D01*
X145405233Y-118063411D01*
X146849144Y-116619500D01*
X161512507Y-116619500D01*
X161406672Y-116777893D01*
X161324500Y-117191000D01*
X161324500Y-117952335D01*
X161268683Y-117962838D01*
X161052559Y-118101910D01*
X160907569Y-118314110D01*
X160856560Y-118566000D01*
X160856560Y-122166000D01*
X160900838Y-122401317D01*
X161039910Y-122617441D01*
X161252110Y-122762431D01*
X161504000Y-122813440D01*
X163304000Y-122813440D01*
X163539317Y-122769162D01*
X163755441Y-122630090D01*
X163900431Y-122417890D01*
X163951440Y-122166000D01*
X163951440Y-119418296D01*
X167641000Y-119418296D01*
X167641000Y-121313704D01*
X167757845Y-121901123D01*
X168090591Y-122399113D01*
X168588581Y-122731859D01*
X169176000Y-122848704D01*
X169763419Y-122731859D01*
X170261409Y-122399113D01*
X170594155Y-121901123D01*
X170711000Y-121313704D01*
X170711000Y-119418296D01*
X171141000Y-119418296D01*
X171141000Y-121313704D01*
X171257845Y-121901123D01*
X171590591Y-122399113D01*
X172088581Y-122731859D01*
X172676000Y-122848704D01*
X173263419Y-122731859D01*
X173761409Y-122399113D01*
X174094155Y-121901123D01*
X174211000Y-121313704D01*
X174211000Y-120493000D01*
X174641000Y-120493000D01*
X174641000Y-121393000D01*
X174806446Y-121970752D01*
X175180394Y-122441212D01*
X175705914Y-122732756D01*
X175811260Y-122757036D01*
X176049000Y-122636378D01*
X176049000Y-120493000D01*
X176303000Y-120493000D01*
X176303000Y-122636378D01*
X176540740Y-122757036D01*
X176646086Y-122732756D01*
X177171606Y-122441212D01*
X177545554Y-121970752D01*
X177711000Y-121393000D01*
X177711000Y-120493000D01*
X176303000Y-120493000D01*
X176049000Y-120493000D01*
X174641000Y-120493000D01*
X174211000Y-120493000D01*
X174211000Y-119418296D01*
X174195228Y-119339000D01*
X174641000Y-119339000D01*
X174641000Y-120239000D01*
X176049000Y-120239000D01*
X176049000Y-118095622D01*
X176303000Y-118095622D01*
X176303000Y-120239000D01*
X177711000Y-120239000D01*
X177711000Y-119339000D01*
X177545554Y-118761248D01*
X177171606Y-118290788D01*
X176646086Y-117999244D01*
X176540740Y-117974964D01*
X176303000Y-118095622D01*
X176049000Y-118095622D01*
X175811260Y-117974964D01*
X175705914Y-117999244D01*
X175180394Y-118290788D01*
X174806446Y-118761248D01*
X174641000Y-119339000D01*
X174195228Y-119339000D01*
X174094155Y-118830877D01*
X173761409Y-118332887D01*
X173263419Y-118000141D01*
X172676000Y-117883296D01*
X172088581Y-118000141D01*
X171590591Y-118332887D01*
X171257845Y-118830877D01*
X171141000Y-119418296D01*
X170711000Y-119418296D01*
X170594155Y-118830877D01*
X170261409Y-118332887D01*
X169763419Y-118000141D01*
X169176000Y-117883296D01*
X168588581Y-118000141D01*
X168090591Y-118332887D01*
X167757845Y-118830877D01*
X167641000Y-119418296D01*
X163951440Y-119418296D01*
X163951440Y-118566000D01*
X163907162Y-118330683D01*
X163768090Y-118114559D01*
X163555890Y-117969569D01*
X163483500Y-117954910D01*
X163483500Y-117638144D01*
X164818319Y-116303324D01*
X164818322Y-116303322D01*
X165325000Y-115796644D01*
X165831678Y-116303322D01*
X166181893Y-116537328D01*
X166595000Y-116619500D01*
X176942856Y-116619500D01*
X178385836Y-118062480D01*
X178324559Y-118101910D01*
X178179569Y-118314110D01*
X178128560Y-118566000D01*
X178128560Y-122166000D01*
X178172838Y-122401317D01*
X178311910Y-122617441D01*
X178524110Y-122762431D01*
X178776000Y-122813440D01*
X180576000Y-122813440D01*
X180811317Y-122769162D01*
X181027441Y-122630090D01*
X181172431Y-122417890D01*
X181223440Y-122166000D01*
X181223440Y-119418296D01*
X184405000Y-119418296D01*
X184405000Y-121313704D01*
X184521845Y-121901123D01*
X184854591Y-122399113D01*
X185352581Y-122731859D01*
X185940000Y-122848704D01*
X186527419Y-122731859D01*
X187025409Y-122399113D01*
X187358155Y-121901123D01*
X187475000Y-121313704D01*
X187475000Y-119418296D01*
X187905000Y-119418296D01*
X187905000Y-121313704D01*
X188021845Y-121901123D01*
X188354591Y-122399113D01*
X188852581Y-122731859D01*
X189440000Y-122848704D01*
X190027419Y-122731859D01*
X190525409Y-122399113D01*
X190858155Y-121901123D01*
X190975000Y-121313704D01*
X190975000Y-120493000D01*
X191405000Y-120493000D01*
X191405000Y-121393000D01*
X191570446Y-121970752D01*
X191944394Y-122441212D01*
X192469914Y-122732756D01*
X192575260Y-122757036D01*
X192813000Y-122636378D01*
X192813000Y-120493000D01*
X193067000Y-120493000D01*
X193067000Y-122636378D01*
X193304740Y-122757036D01*
X193410086Y-122732756D01*
X193935606Y-122441212D01*
X194309554Y-121970752D01*
X194475000Y-121393000D01*
X194475000Y-120493000D01*
X193067000Y-120493000D01*
X192813000Y-120493000D01*
X191405000Y-120493000D01*
X190975000Y-120493000D01*
X190975000Y-119418296D01*
X190959228Y-119339000D01*
X191405000Y-119339000D01*
X191405000Y-120239000D01*
X192813000Y-120239000D01*
X192813000Y-118095622D01*
X193067000Y-118095622D01*
X193067000Y-120239000D01*
X194475000Y-120239000D01*
X194475000Y-119339000D01*
X194309554Y-118761248D01*
X193935606Y-118290788D01*
X193410086Y-117999244D01*
X193304740Y-117974964D01*
X193067000Y-118095622D01*
X192813000Y-118095622D01*
X192575260Y-117974964D01*
X192469914Y-117999244D01*
X191944394Y-118290788D01*
X191570446Y-118761248D01*
X191405000Y-119339000D01*
X190959228Y-119339000D01*
X190858155Y-118830877D01*
X190525409Y-118332887D01*
X190027419Y-118000141D01*
X189440000Y-117883296D01*
X188852581Y-118000141D01*
X188354591Y-118332887D01*
X188021845Y-118830877D01*
X187905000Y-119418296D01*
X187475000Y-119418296D01*
X187358155Y-118830877D01*
X187025409Y-118332887D01*
X186527419Y-118000141D01*
X185940000Y-117883296D01*
X185352581Y-118000141D01*
X184854591Y-118332887D01*
X184521845Y-118830877D01*
X184405000Y-119418296D01*
X181223440Y-119418296D01*
X181223440Y-118566000D01*
X181179162Y-118330683D01*
X181040090Y-118114559D01*
X180827890Y-117969569D01*
X180755500Y-117954910D01*
X180755500Y-117826000D01*
X180673328Y-117412893D01*
X180439322Y-117062678D01*
X179996144Y-116619500D01*
X193960856Y-116619500D01*
X195304385Y-117963029D01*
X195088559Y-118101910D01*
X194943569Y-118314110D01*
X194892560Y-118566000D01*
X194892560Y-122166000D01*
X194936838Y-122401317D01*
X195075910Y-122617441D01*
X195288110Y-122762431D01*
X195540000Y-122813440D01*
X197340000Y-122813440D01*
X197575317Y-122769162D01*
X197791441Y-122630090D01*
X197936431Y-122417890D01*
X197987440Y-122166000D01*
X197987440Y-122014482D01*
X202129336Y-122014482D01*
X202711950Y-123424515D01*
X203789811Y-124504259D01*
X205198825Y-125089333D01*
X206724482Y-125090664D01*
X208134515Y-124508050D01*
X209214259Y-123430189D01*
X209799333Y-122021175D01*
X209800664Y-120495518D01*
X209218050Y-119085485D01*
X208140189Y-118005741D01*
X206731175Y-117420667D01*
X205205518Y-117419336D01*
X203795485Y-118001950D01*
X202715741Y-119079811D01*
X202130667Y-120488825D01*
X202129336Y-122014482D01*
X197987440Y-122014482D01*
X197987440Y-118566000D01*
X197943162Y-118330683D01*
X197804090Y-118114559D01*
X197591890Y-117969569D01*
X197519500Y-117954910D01*
X197519500Y-117572000D01*
X197437328Y-117158893D01*
X197203322Y-116808678D01*
X195535007Y-115140363D01*
X195532328Y-115126893D01*
X195298322Y-114776678D01*
X194948107Y-114542672D01*
X194535000Y-114460500D01*
X194347144Y-114460500D01*
X193235683Y-113349039D01*
X193651096Y-113349039D01*
X193811959Y-113737423D01*
X194187866Y-114152389D01*
X194693959Y-114391914D01*
X194916000Y-114270629D01*
X194916000Y-113127000D01*
X195170000Y-113127000D01*
X195170000Y-114270629D01*
X195392041Y-114391914D01*
X195898134Y-114152389D01*
X196274041Y-113737423D01*
X196434904Y-113349039D01*
X196312915Y-113127000D01*
X195170000Y-113127000D01*
X194916000Y-113127000D01*
X193773085Y-113127000D01*
X193651096Y-113349039D01*
X193235683Y-113349039D01*
X192439500Y-112552856D01*
X192439500Y-110272144D01*
X193712144Y-108999500D01*
X194097172Y-108999500D01*
X194382275Y-109190000D01*
X194000189Y-109445302D01*
X193689120Y-109910849D01*
X193579887Y-110460000D01*
X193689120Y-111009151D01*
X194000189Y-111474698D01*
X194404703Y-111744986D01*
X194187866Y-111847611D01*
X193811959Y-112262577D01*
X193651096Y-112650961D01*
X193773085Y-112873000D01*
X194916000Y-112873000D01*
X194916000Y-112853000D01*
X195170000Y-112853000D01*
X195170000Y-112873000D01*
X196312915Y-112873000D01*
X196434904Y-112650961D01*
X196274041Y-112262577D01*
X195898134Y-111847611D01*
X195681297Y-111744986D01*
X196085811Y-111474698D01*
X196396880Y-111009151D01*
X196506113Y-110460000D01*
X196396880Y-109910849D01*
X196085811Y-109445302D01*
X195703725Y-109190000D01*
X196085811Y-108934698D01*
X196396880Y-108469151D01*
X196506113Y-107920000D01*
X196396880Y-107370849D01*
X196085811Y-106905302D01*
X195703725Y-106650000D01*
X196085811Y-106394698D01*
X196396880Y-105929151D01*
X196506113Y-105380000D01*
X196396880Y-104830849D01*
X196085811Y-104365302D01*
X195620264Y-104054233D01*
X195071113Y-103945000D01*
X195014887Y-103945000D01*
X194465736Y-104054233D01*
X194000189Y-104365302D01*
X193689120Y-104830849D01*
X193579887Y-105380000D01*
X193689120Y-105929151D01*
X194000189Y-106394698D01*
X194382275Y-106650000D01*
X194097172Y-106840500D01*
X193265000Y-106840500D01*
X192851893Y-106922672D01*
X192501678Y-107156678D01*
X190596678Y-109061678D01*
X190362672Y-109411893D01*
X190280500Y-109825000D01*
X190280500Y-113000000D01*
X190362672Y-113413107D01*
X190596678Y-113763322D01*
X191293856Y-114460500D01*
X176567143Y-114460500D01*
X175455683Y-113349039D01*
X176125096Y-113349039D01*
X176285959Y-113737423D01*
X176661866Y-114152389D01*
X177167959Y-114391914D01*
X177390000Y-114270629D01*
X177390000Y-113127000D01*
X177644000Y-113127000D01*
X177644000Y-114270629D01*
X177866041Y-114391914D01*
X178372134Y-114152389D01*
X178748041Y-113737423D01*
X178908904Y-113349039D01*
X186031096Y-113349039D01*
X186191959Y-113737423D01*
X186567866Y-114152389D01*
X187073959Y-114391914D01*
X187296000Y-114270629D01*
X187296000Y-113127000D01*
X187550000Y-113127000D01*
X187550000Y-114270629D01*
X187772041Y-114391914D01*
X188278134Y-114152389D01*
X188654041Y-113737423D01*
X188814904Y-113349039D01*
X188692915Y-113127000D01*
X187550000Y-113127000D01*
X187296000Y-113127000D01*
X186153085Y-113127000D01*
X186031096Y-113349039D01*
X178908904Y-113349039D01*
X178786915Y-113127000D01*
X177644000Y-113127000D01*
X177390000Y-113127000D01*
X176247085Y-113127000D01*
X176125096Y-113349039D01*
X175455683Y-113349039D01*
X174659500Y-112552856D01*
X174659500Y-110907144D01*
X176567143Y-108999500D01*
X176571172Y-108999500D01*
X176856275Y-109190000D01*
X176474189Y-109445302D01*
X176163120Y-109910849D01*
X176053887Y-110460000D01*
X176163120Y-111009151D01*
X176474189Y-111474698D01*
X176878703Y-111744986D01*
X176661866Y-111847611D01*
X176285959Y-112262577D01*
X176125096Y-112650961D01*
X176247085Y-112873000D01*
X177390000Y-112873000D01*
X177390000Y-112853000D01*
X177644000Y-112853000D01*
X177644000Y-112873000D01*
X178786915Y-112873000D01*
X178908904Y-112650961D01*
X178748041Y-112262577D01*
X178372134Y-111847611D01*
X178155297Y-111744986D01*
X178559811Y-111474698D01*
X178870880Y-111009151D01*
X178980113Y-110460000D01*
X178870880Y-109910849D01*
X178559811Y-109445302D01*
X178177725Y-109190000D01*
X178559811Y-108934698D01*
X178870880Y-108469151D01*
X178980113Y-107920000D01*
X185959887Y-107920000D01*
X186069120Y-108469151D01*
X186380189Y-108934698D01*
X186762275Y-109190000D01*
X186380189Y-109445302D01*
X186069120Y-109910849D01*
X185959887Y-110460000D01*
X186069120Y-111009151D01*
X186380189Y-111474698D01*
X186784703Y-111744986D01*
X186567866Y-111847611D01*
X186191959Y-112262577D01*
X186031096Y-112650961D01*
X186153085Y-112873000D01*
X187296000Y-112873000D01*
X187296000Y-112853000D01*
X187550000Y-112853000D01*
X187550000Y-112873000D01*
X188692915Y-112873000D01*
X188814904Y-112650961D01*
X188654041Y-112262577D01*
X188278134Y-111847611D01*
X188061297Y-111744986D01*
X188465811Y-111474698D01*
X188776880Y-111009151D01*
X188886113Y-110460000D01*
X188776880Y-109910849D01*
X188465811Y-109445302D01*
X188083725Y-109190000D01*
X188465811Y-108934698D01*
X188776880Y-108469151D01*
X188886113Y-107920000D01*
X188776880Y-107370849D01*
X188465811Y-106905302D01*
X188321535Y-106808899D01*
X188458317Y-106783162D01*
X188674441Y-106644090D01*
X188819431Y-106431890D01*
X188870440Y-106180000D01*
X188870440Y-104580000D01*
X188826162Y-104344683D01*
X188687090Y-104128559D01*
X188474890Y-103983569D01*
X188223000Y-103932560D01*
X186623000Y-103932560D01*
X186387683Y-103976838D01*
X186171559Y-104115910D01*
X186026569Y-104328110D01*
X185975560Y-104580000D01*
X185975560Y-106180000D01*
X186019838Y-106415317D01*
X186158910Y-106631441D01*
X186371110Y-106776431D01*
X186526089Y-106807815D01*
X186380189Y-106905302D01*
X186069120Y-107370849D01*
X185959887Y-107920000D01*
X178980113Y-107920000D01*
X178870880Y-107370849D01*
X178559811Y-106905302D01*
X178177725Y-106650000D01*
X178559811Y-106394698D01*
X178870880Y-105929151D01*
X178980113Y-105380000D01*
X178870880Y-104830849D01*
X178559811Y-104365302D01*
X178094264Y-104054233D01*
X177545113Y-103945000D01*
X177488887Y-103945000D01*
X176939736Y-104054233D01*
X176474189Y-104365302D01*
X176163120Y-104830849D01*
X176053887Y-105380000D01*
X176163120Y-105929151D01*
X176474189Y-106394698D01*
X176856275Y-106650000D01*
X176571172Y-106840500D01*
X176120000Y-106840500D01*
X175706893Y-106922672D01*
X175356678Y-107156678D01*
X175356676Y-107156681D01*
X172816678Y-109696678D01*
X172582672Y-110046893D01*
X172500500Y-110460000D01*
X172500500Y-113000000D01*
X172582672Y-113413107D01*
X172816678Y-113763322D01*
X173513856Y-114460500D01*
X167042144Y-114460500D01*
X166404500Y-113822856D01*
X166404500Y-113349039D01*
X168505096Y-113349039D01*
X168665959Y-113737423D01*
X169041866Y-114152389D01*
X169547959Y-114391914D01*
X169770000Y-114270629D01*
X169770000Y-113127000D01*
X170024000Y-113127000D01*
X170024000Y-114270629D01*
X170246041Y-114391914D01*
X170752134Y-114152389D01*
X171128041Y-113737423D01*
X171288904Y-113349039D01*
X171166915Y-113127000D01*
X170024000Y-113127000D01*
X169770000Y-113127000D01*
X168627085Y-113127000D01*
X168505096Y-113349039D01*
X166404500Y-113349039D01*
X166404500Y-107920000D01*
X168433887Y-107920000D01*
X168543120Y-108469151D01*
X168854189Y-108934698D01*
X169236275Y-109190000D01*
X168854189Y-109445302D01*
X168543120Y-109910849D01*
X168433887Y-110460000D01*
X168543120Y-111009151D01*
X168854189Y-111474698D01*
X169258703Y-111744986D01*
X169041866Y-111847611D01*
X168665959Y-112262577D01*
X168505096Y-112650961D01*
X168627085Y-112873000D01*
X169770000Y-112873000D01*
X169770000Y-112853000D01*
X170024000Y-112853000D01*
X170024000Y-112873000D01*
X171166915Y-112873000D01*
X171288904Y-112650961D01*
X171128041Y-112262577D01*
X170752134Y-111847611D01*
X170535297Y-111744986D01*
X170939811Y-111474698D01*
X171250880Y-111009151D01*
X171360113Y-110460000D01*
X171250880Y-109910849D01*
X170939811Y-109445302D01*
X170557725Y-109190000D01*
X170939811Y-108934698D01*
X171250880Y-108469151D01*
X171360113Y-107920000D01*
X171250880Y-107370849D01*
X170939811Y-106905302D01*
X170795535Y-106808899D01*
X170932317Y-106783162D01*
X171148441Y-106644090D01*
X171293431Y-106431890D01*
X171344440Y-106180000D01*
X171344440Y-104580000D01*
X171300162Y-104344683D01*
X171161090Y-104128559D01*
X170948890Y-103983569D01*
X170697000Y-103932560D01*
X169097000Y-103932560D01*
X168861683Y-103976838D01*
X168645559Y-104115910D01*
X168500569Y-104328110D01*
X168449560Y-104580000D01*
X168449560Y-106180000D01*
X168493838Y-106415317D01*
X168632910Y-106631441D01*
X168845110Y-106776431D01*
X169000089Y-106807815D01*
X168854189Y-106905302D01*
X168543120Y-107370849D01*
X168433887Y-107920000D01*
X166404500Y-107920000D01*
X166404500Y-100935005D01*
X166404501Y-100935000D01*
X166322329Y-100521894D01*
X166244680Y-100405685D01*
X166088322Y-100171678D01*
X166088319Y-100171676D01*
X160689500Y-94772856D01*
X160689500Y-91405756D01*
X160753000Y-91357502D01*
X160753000Y-90267000D01*
X161007000Y-90267000D01*
X161007000Y-91357502D01*
X161174001Y-91484408D01*
X161557408Y-91297013D01*
X161833808Y-90972544D01*
X161965000Y-90567000D01*
X161965000Y-90267000D01*
X161007000Y-90267000D01*
X160753000Y-90267000D01*
X160733000Y-90267000D01*
X160733000Y-90013000D01*
X160753000Y-90013000D01*
X160753000Y-88922498D01*
X161007000Y-88922498D01*
X161007000Y-90013000D01*
X161965000Y-90013000D01*
X161965000Y-89713000D01*
X161833808Y-89307456D01*
X161557408Y-88982987D01*
X161174001Y-88795592D01*
X161007000Y-88922498D01*
X160753000Y-88922498D01*
X160585999Y-88795592D01*
X160249274Y-88960170D01*
X160025212Y-88810457D01*
X159610000Y-88727866D01*
X159419500Y-88765759D01*
X159419500Y-87412144D01*
X160373322Y-86458322D01*
X160607328Y-86108107D01*
X160689500Y-85695000D01*
X160689500Y-84529241D01*
X160880000Y-84567134D01*
X161295212Y-84484543D01*
X161647211Y-84249345D01*
X161882409Y-83897346D01*
X161965000Y-83482134D01*
X161965000Y-82827866D01*
X161882409Y-82412654D01*
X161843886Y-82355000D01*
X163877560Y-82355000D01*
X163877560Y-83955000D01*
X163921838Y-84190317D01*
X164060910Y-84406441D01*
X164273110Y-84551431D01*
X164525000Y-84602440D01*
X166125000Y-84602440D01*
X166360317Y-84558162D01*
X166576441Y-84419090D01*
X166721431Y-84206890D01*
X166730370Y-84162745D01*
X166996861Y-84162745D01*
X167070995Y-84408864D01*
X167608223Y-84601965D01*
X168178454Y-84574778D01*
X168579005Y-84408864D01*
X168653139Y-84162745D01*
X167825000Y-83334605D01*
X166996861Y-84162745D01*
X166730370Y-84162745D01*
X166769646Y-83968799D01*
X166817255Y-83983139D01*
X167645395Y-83155000D01*
X168004605Y-83155000D01*
X168832745Y-83983139D01*
X169078864Y-83909005D01*
X169271965Y-83371777D01*
X169244778Y-82801546D01*
X169078864Y-82400995D01*
X168832745Y-82326861D01*
X168004605Y-83155000D01*
X167645395Y-83155000D01*
X166817255Y-82326861D01*
X166769833Y-82341145D01*
X166733351Y-82147255D01*
X166996861Y-82147255D01*
X167825000Y-82975395D01*
X168653139Y-82147255D01*
X168579005Y-81901136D01*
X168041777Y-81708035D01*
X167471546Y-81735222D01*
X167070995Y-81901136D01*
X166996861Y-82147255D01*
X166733351Y-82147255D01*
X166728162Y-82119683D01*
X166589090Y-81903559D01*
X166376890Y-81758569D01*
X166125000Y-81707560D01*
X164525000Y-81707560D01*
X164289683Y-81751838D01*
X164073559Y-81890910D01*
X163928569Y-82103110D01*
X163877560Y-82355000D01*
X161843886Y-82355000D01*
X161647211Y-82060655D01*
X161295212Y-81825457D01*
X160880000Y-81742866D01*
X160464788Y-81825457D01*
X160245000Y-81972315D01*
X160025212Y-81825457D01*
X159610000Y-81742866D01*
X159419500Y-81780759D01*
X159419500Y-79958000D01*
X172540560Y-79958000D01*
X172540560Y-83558000D01*
X172584838Y-83793317D01*
X172723910Y-84009441D01*
X172936110Y-84154431D01*
X173188000Y-84205440D01*
X174988000Y-84205440D01*
X175223317Y-84161162D01*
X175439441Y-84022090D01*
X175584431Y-83809890D01*
X175635440Y-83558000D01*
X175635440Y-80810296D01*
X176053000Y-80810296D01*
X176053000Y-82705704D01*
X176169845Y-83293123D01*
X176502591Y-83791113D01*
X177000581Y-84123859D01*
X177588000Y-84240704D01*
X178175419Y-84123859D01*
X178673409Y-83791113D01*
X179006155Y-83293123D01*
X179123000Y-82705704D01*
X179123000Y-80810296D01*
X179553000Y-80810296D01*
X179553000Y-82705704D01*
X179669845Y-83293123D01*
X180002591Y-83791113D01*
X180500581Y-84123859D01*
X181088000Y-84240704D01*
X181675419Y-84123859D01*
X182173409Y-83791113D01*
X182506155Y-83293123D01*
X182623000Y-82705704D01*
X182623000Y-80810296D01*
X183053000Y-80810296D01*
X183053000Y-82705704D01*
X183169845Y-83293123D01*
X183502591Y-83791113D01*
X184000581Y-84123859D01*
X184588000Y-84240704D01*
X185175419Y-84123859D01*
X185673409Y-83791113D01*
X186006155Y-83293123D01*
X186123000Y-82705704D01*
X186123000Y-80810296D01*
X186553000Y-80810296D01*
X186553000Y-82705704D01*
X186669845Y-83293123D01*
X187002591Y-83791113D01*
X187500581Y-84123859D01*
X188088000Y-84240704D01*
X188675419Y-84123859D01*
X189173409Y-83791113D01*
X189506155Y-83293123D01*
X189623000Y-82705704D01*
X189623000Y-80810296D01*
X190053000Y-80810296D01*
X190053000Y-82705704D01*
X190169845Y-83293123D01*
X190502591Y-83791113D01*
X191000581Y-84123859D01*
X191588000Y-84240704D01*
X192175419Y-84123859D01*
X192673409Y-83791113D01*
X193006155Y-83293123D01*
X193123000Y-82705704D01*
X193123000Y-80810296D01*
X193553000Y-80810296D01*
X193553000Y-82705704D01*
X193669845Y-83293123D01*
X194002591Y-83791113D01*
X194500581Y-84123859D01*
X195088000Y-84240704D01*
X195675419Y-84123859D01*
X196173409Y-83791113D01*
X196506155Y-83293123D01*
X196623000Y-82705704D01*
X196623000Y-80810296D01*
X197053000Y-80810296D01*
X197053000Y-82705704D01*
X197169845Y-83293123D01*
X197502591Y-83791113D01*
X198000581Y-84123859D01*
X198588000Y-84240704D01*
X199175419Y-84123859D01*
X199673409Y-83791113D01*
X200006155Y-83293123D01*
X200123000Y-82705704D01*
X200123000Y-82009482D01*
X202129336Y-82009482D01*
X202711950Y-83419515D01*
X203789811Y-84499259D01*
X205198825Y-85084333D01*
X206724482Y-85085664D01*
X208134515Y-84503050D01*
X209214259Y-83425189D01*
X209799333Y-82016175D01*
X209800664Y-80490518D01*
X209218050Y-79080485D01*
X208140189Y-78000741D01*
X206731175Y-77415667D01*
X205205518Y-77414336D01*
X203795485Y-77996950D01*
X202715741Y-79074811D01*
X202130667Y-80483825D01*
X202129336Y-82009482D01*
X200123000Y-82009482D01*
X200123000Y-80810296D01*
X200006155Y-80222877D01*
X199673409Y-79724887D01*
X199175419Y-79392141D01*
X198588000Y-79275296D01*
X198000581Y-79392141D01*
X197502591Y-79724887D01*
X197169845Y-80222877D01*
X197053000Y-80810296D01*
X196623000Y-80810296D01*
X196506155Y-80222877D01*
X196173409Y-79724887D01*
X195675419Y-79392141D01*
X195088000Y-79275296D01*
X194500581Y-79392141D01*
X194002591Y-79724887D01*
X193669845Y-80222877D01*
X193553000Y-80810296D01*
X193123000Y-80810296D01*
X193006155Y-80222877D01*
X192673409Y-79724887D01*
X192175419Y-79392141D01*
X191588000Y-79275296D01*
X191000581Y-79392141D01*
X190502591Y-79724887D01*
X190169845Y-80222877D01*
X190053000Y-80810296D01*
X189623000Y-80810296D01*
X189506155Y-80222877D01*
X189173409Y-79724887D01*
X188675419Y-79392141D01*
X188088000Y-79275296D01*
X187500581Y-79392141D01*
X187002591Y-79724887D01*
X186669845Y-80222877D01*
X186553000Y-80810296D01*
X186123000Y-80810296D01*
X186006155Y-80222877D01*
X185673409Y-79724887D01*
X185175419Y-79392141D01*
X184588000Y-79275296D01*
X184000581Y-79392141D01*
X183502591Y-79724887D01*
X183169845Y-80222877D01*
X183053000Y-80810296D01*
X182623000Y-80810296D01*
X182506155Y-80222877D01*
X182173409Y-79724887D01*
X181675419Y-79392141D01*
X181088000Y-79275296D01*
X180500581Y-79392141D01*
X180002591Y-79724887D01*
X179669845Y-80222877D01*
X179553000Y-80810296D01*
X179123000Y-80810296D01*
X179006155Y-80222877D01*
X178673409Y-79724887D01*
X178175419Y-79392141D01*
X177588000Y-79275296D01*
X177000581Y-79392141D01*
X176502591Y-79724887D01*
X176169845Y-80222877D01*
X176053000Y-80810296D01*
X175635440Y-80810296D01*
X175635440Y-79958000D01*
X175591162Y-79722683D01*
X175452090Y-79506559D01*
X175239890Y-79361569D01*
X174988000Y-79310560D01*
X173188000Y-79310560D01*
X172952683Y-79354838D01*
X172736559Y-79493910D01*
X172591569Y-79706110D01*
X172540560Y-79958000D01*
X159419500Y-79958000D01*
X159419500Y-79472000D01*
X159337328Y-79058893D01*
X159103322Y-78708678D01*
X157769822Y-77375178D01*
X157419607Y-77141172D01*
X157006500Y-77059000D01*
X152309236Y-77059000D01*
X151990000Y-76995500D01*
X144370000Y-76995500D01*
X143956893Y-77077672D01*
X143606678Y-77311678D01*
X139477856Y-81440500D01*
X136959000Y-81440500D01*
X136959000Y-81318296D01*
X136842155Y-80730877D01*
X136509409Y-80232887D01*
X136011419Y-79900141D01*
X135424000Y-79783296D01*
X134836581Y-79900141D01*
X134338591Y-80232887D01*
X134005845Y-80730877D01*
X133889000Y-81318296D01*
X133459000Y-81318296D01*
X133459000Y-80339690D01*
X133362327Y-80106301D01*
X133183698Y-79927673D01*
X132950309Y-79831000D01*
X132209750Y-79831000D01*
X132051000Y-79989750D01*
X131797000Y-79989750D01*
X131638250Y-79831000D01*
X130897691Y-79831000D01*
X130664302Y-79927673D01*
X130485673Y-80106301D01*
X130389000Y-80339690D01*
X125918344Y-80339690D01*
X125398050Y-79080485D01*
X124320189Y-78000741D01*
X122911175Y-77415667D01*
X121385518Y-77414336D01*
X119975485Y-77996950D01*
X118895741Y-79074811D01*
X118310667Y-80483825D01*
X118309336Y-82009482D01*
X117573000Y-82009482D01*
X117573000Y-76043000D01*
X210283000Y-76043000D01*
X210283000Y-126081000D01*
X210283000Y-126081000D01*
G37*
X210283000Y-126081000D02*
X117573000Y-126081000D01*
X117573000Y-122014482D01*
X118309336Y-122014482D01*
X118891950Y-123424515D01*
X119969811Y-124504259D01*
X121378825Y-125089333D01*
X122904482Y-125090664D01*
X124314515Y-124508050D01*
X125394259Y-123430189D01*
X125979333Y-122021175D01*
X125980664Y-120495518D01*
X125535565Y-119418296D01*
X132081000Y-119418296D01*
X132081000Y-121313704D01*
X132197845Y-121901123D01*
X132530591Y-122399113D01*
X133028581Y-122731859D01*
X133616000Y-122848704D01*
X134203419Y-122731859D01*
X134701409Y-122399113D01*
X135034155Y-121901123D01*
X135151000Y-121313704D01*
X135151000Y-119418296D01*
X135581000Y-119418296D01*
X135581000Y-121313704D01*
X135697845Y-121901123D01*
X136030591Y-122399113D01*
X136528581Y-122731859D01*
X137116000Y-122848704D01*
X137703419Y-122731859D01*
X138201409Y-122399113D01*
X138534155Y-121901123D01*
X138651000Y-121313704D01*
X138651000Y-120493000D01*
X139081000Y-120493000D01*
X139081000Y-121393000D01*
X139246446Y-121970752D01*
X139620394Y-122441212D01*
X140145914Y-122732756D01*
X140251260Y-122757036D01*
X140489000Y-122636378D01*
X140489000Y-120493000D01*
X140743000Y-120493000D01*
X140743000Y-122636378D01*
X140980740Y-122757036D01*
X141086086Y-122732756D01*
X141611606Y-122441212D01*
X141985554Y-121970752D01*
X142151000Y-121393000D01*
X142151000Y-120493000D01*
X140743000Y-120493000D01*
X140489000Y-120493000D01*
X139081000Y-120493000D01*
X138651000Y-120493000D01*
X138651000Y-119418296D01*
X138635228Y-119339000D01*
X139081000Y-119339000D01*
X139081000Y-120239000D01*
X140489000Y-120239000D01*
X140489000Y-118095622D01*
X140743000Y-118095622D01*
X140743000Y-120239000D01*
X142151000Y-120239000D01*
X142151000Y-119339000D01*
X141985554Y-118761248D01*
X141611606Y-118290788D01*
X141086086Y-117999244D01*
X140980740Y-117974964D01*
X140743000Y-118095622D01*
X140489000Y-118095622D01*
X140251260Y-117974964D01*
X140145914Y-117999244D01*
X139620394Y-118290788D01*
X139246446Y-118761248D01*
X139081000Y-119339000D01*
X138635228Y-119339000D01*
X138534155Y-118830877D01*
X138201409Y-118332887D01*
X137703419Y-118000141D01*
X137116000Y-117883296D01*
X136528581Y-118000141D01*
X136030591Y-118332887D01*
X135697845Y-118830877D01*
X135581000Y-119418296D01*
X135151000Y-119418296D01*
X135034155Y-118830877D01*
X134701409Y-118332887D01*
X134203419Y-118000141D01*
X133616000Y-117883296D01*
X133028581Y-118000141D01*
X132530591Y-118332887D01*
X132197845Y-118830877D01*
X132081000Y-119418296D01*
X125535565Y-119418296D01*
X125398050Y-119085485D01*
X124320189Y-118005741D01*
X122911175Y-117420667D01*
X121385518Y-117419336D01*
X119975485Y-118001950D01*
X118895741Y-119079811D01*
X118310667Y-120488825D01*
X118309336Y-122014482D01*
X117573000Y-122014482D01*
X117573000Y-113349039D01*
X133834096Y-113349039D01*
X133994959Y-113737423D01*
X134370866Y-114152389D01*
X134876959Y-114391914D01*
X135099000Y-114270629D01*
X135099000Y-113127000D01*
X135353000Y-113127000D01*
X135353000Y-114270629D01*
X135575041Y-114391914D01*
X136081134Y-114152389D01*
X136457041Y-113737423D01*
X136617904Y-113349039D01*
X136495915Y-113127000D01*
X135353000Y-113127000D01*
X135099000Y-113127000D01*
X133956085Y-113127000D01*
X133834096Y-113349039D01*
X117573000Y-113349039D01*
X117573000Y-110322000D01*
X119824560Y-110322000D01*
X119824560Y-112122000D01*
X119868838Y-112357317D01*
X120007910Y-112573441D01*
X120220110Y-112718431D01*
X120472000Y-112769440D01*
X124072000Y-112769440D01*
X124307317Y-112725162D01*
X124523441Y-112586090D01*
X124668431Y-112373890D01*
X124719440Y-112122000D01*
X124719440Y-110322000D01*
X124675162Y-110086683D01*
X124536090Y-109870559D01*
X124323890Y-109725569D01*
X124072000Y-109674560D01*
X120472000Y-109674560D01*
X120236683Y-109718838D01*
X120020559Y-109857910D01*
X119875569Y-110070110D01*
X119824560Y-110322000D01*
X117573000Y-110322000D01*
X117573000Y-108086740D01*
X119880964Y-108086740D01*
X119905244Y-108192086D01*
X120196788Y-108717606D01*
X120667248Y-109091554D01*
X121245000Y-109257000D01*
X122145000Y-109257000D01*
X122145000Y-107849000D01*
X122399000Y-107849000D01*
X122399000Y-109257000D01*
X123299000Y-109257000D01*
X123876752Y-109091554D01*
X124347212Y-108717606D01*
X124638756Y-108192086D01*
X124663036Y-108086740D01*
X124578412Y-107920000D01*
X133762887Y-107920000D01*
X133872120Y-108469151D01*
X134183189Y-108934698D01*
X134565275Y-109190000D01*
X134183189Y-109445302D01*
X133872120Y-109910849D01*
X133762887Y-110460000D01*
X133872120Y-111009151D01*
X134183189Y-111474698D01*
X134587703Y-111744986D01*
X134370866Y-111847611D01*
X133994959Y-112262577D01*
X133834096Y-112650961D01*
X133956085Y-112873000D01*
X135099000Y-112873000D01*
X135099000Y-112853000D01*
X135353000Y-112853000D01*
X135353000Y-112873000D01*
X136495915Y-112873000D01*
X136617904Y-112650961D01*
X136457041Y-112262577D01*
X136081134Y-111847611D01*
X135864297Y-111744986D01*
X136268811Y-111474698D01*
X136579880Y-111009151D01*
X136689113Y-110460000D01*
X136579880Y-109910849D01*
X136268811Y-109445302D01*
X135886725Y-109190000D01*
X136268811Y-108934698D01*
X136579880Y-108469151D01*
X136689113Y-107920000D01*
X136579880Y-107370849D01*
X136268811Y-106905302D01*
X136124535Y-106808899D01*
X136261317Y-106783162D01*
X136477441Y-106644090D01*
X136622431Y-106431890D01*
X136673440Y-106180000D01*
X136673440Y-104580000D01*
X136629162Y-104344683D01*
X136490090Y-104128559D01*
X136277890Y-103983569D01*
X136026000Y-103932560D01*
X134426000Y-103932560D01*
X134190683Y-103976838D01*
X133974559Y-104115910D01*
X133829569Y-104328110D01*
X133778560Y-104580000D01*
X133778560Y-106180000D01*
X133822838Y-106415317D01*
X133961910Y-106631441D01*
X134174110Y-106776431D01*
X134329089Y-106807815D01*
X134183189Y-106905302D01*
X133872120Y-107370849D01*
X133762887Y-107920000D01*
X124578412Y-107920000D01*
X124542378Y-107849000D01*
X122399000Y-107849000D01*
X122145000Y-107849000D01*
X120001622Y-107849000D01*
X119880964Y-108086740D01*
X117573000Y-108086740D01*
X117573000Y-107357260D01*
X119880964Y-107357260D01*
X120001622Y-107595000D01*
X122145000Y-107595000D01*
X122145000Y-106187000D01*
X122399000Y-106187000D01*
X122399000Y-107595000D01*
X124542378Y-107595000D01*
X124663036Y-107357260D01*
X124638756Y-107251914D01*
X124347212Y-106726394D01*
X123876752Y-106352446D01*
X123299000Y-106187000D01*
X122399000Y-106187000D01*
X122145000Y-106187000D01*
X121245000Y-106187000D01*
X120667248Y-106352446D01*
X120196788Y-106726394D01*
X119905244Y-107251914D01*
X119880964Y-107357260D01*
X117573000Y-107357260D01*
X117573000Y-104222000D01*
X119789296Y-104222000D01*
X119906141Y-104809419D01*
X120238887Y-105307409D01*
X120736877Y-105640155D01*
X121324296Y-105757000D01*
X123219704Y-105757000D01*
X123807123Y-105640155D01*
X124305113Y-105307409D01*
X124309061Y-105301500D01*
X126224000Y-105301500D01*
X126637107Y-105219328D01*
X126987322Y-104985322D01*
X127973319Y-103999324D01*
X127973322Y-103999322D01*
X128207328Y-103649107D01*
X128283114Y-103268107D01*
X128289501Y-103236000D01*
X128289500Y-103235995D01*
X128289500Y-89937144D01*
X129547144Y-88679500D01*
X143895549Y-88679500D01*
X143919591Y-88715481D01*
X144417581Y-89048227D01*
X145005000Y-89165072D01*
X145592419Y-89048227D01*
X146090409Y-88715481D01*
X146423155Y-88217491D01*
X146540000Y-87630072D01*
X146540000Y-87569928D01*
X146423155Y-86982509D01*
X146090409Y-86484519D01*
X145852418Y-86325499D01*
X146242966Y-85967576D01*
X146496046Y-85424742D01*
X146375997Y-85187000D01*
X145132000Y-85187000D01*
X145132000Y-85207000D01*
X144878000Y-85207000D01*
X144878000Y-85187000D01*
X143634003Y-85187000D01*
X143513954Y-85424742D01*
X143767034Y-85967576D01*
X144157582Y-86325499D01*
X143919591Y-86484519D01*
X143895549Y-86520500D01*
X129100005Y-86520500D01*
X129100000Y-86520499D01*
X128755433Y-86589039D01*
X128686893Y-86602672D01*
X128429734Y-86774500D01*
X128336678Y-86836678D01*
X125492856Y-89680500D01*
X124986778Y-89680500D01*
X124813113Y-89420591D01*
X124315123Y-89087845D01*
X123727704Y-88971000D01*
X121832296Y-88971000D01*
X121244877Y-89087845D01*
X120746887Y-89420591D01*
X120414141Y-89918581D01*
X120297296Y-90506000D01*
X120414141Y-91093419D01*
X120746887Y-91591409D01*
X121244877Y-91924155D01*
X121832296Y-92041000D01*
X123727704Y-92041000D01*
X124315123Y-91924155D01*
X124441818Y-91839500D01*
X125940000Y-91839500D01*
X126130500Y-91801607D01*
X126130500Y-102788857D01*
X125776856Y-103142500D01*
X124309061Y-103142500D01*
X124305113Y-103136591D01*
X123807123Y-102803845D01*
X123219704Y-102687000D01*
X121324296Y-102687000D01*
X120736877Y-102803845D01*
X120238887Y-103136591D01*
X119906141Y-103634581D01*
X119789296Y-104222000D01*
X117573000Y-104222000D01*
X117573000Y-96606000D01*
X120332560Y-96606000D01*
X120332560Y-98406000D01*
X120376838Y-98641317D01*
X120515910Y-98857441D01*
X120728110Y-99002431D01*
X120980000Y-99053440D01*
X124580000Y-99053440D01*
X124815317Y-99009162D01*
X125031441Y-98870090D01*
X125176431Y-98657890D01*
X125227440Y-98406000D01*
X125227440Y-96606000D01*
X125183162Y-96370683D01*
X125044090Y-96154559D01*
X124831890Y-96009569D01*
X124580000Y-95958560D01*
X120980000Y-95958560D01*
X120744683Y-96002838D01*
X120528559Y-96141910D01*
X120383569Y-96354110D01*
X120332560Y-96606000D01*
X117573000Y-96606000D01*
X117573000Y-94370740D01*
X120388964Y-94370740D01*
X120413244Y-94476086D01*
X120704788Y-95001606D01*
X121175248Y-95375554D01*
X121753000Y-95541000D01*
X122653000Y-95541000D01*
X122653000Y-94133000D01*
X122907000Y-94133000D01*
X122907000Y-95541000D01*
X123807000Y-95541000D01*
X124384752Y-95375554D01*
X124855212Y-95001606D01*
X125146756Y-94476086D01*
X125171036Y-94370740D01*
X125050378Y-94133000D01*
X122907000Y-94133000D01*
X122653000Y-94133000D01*
X120509622Y-94133000D01*
X120388964Y-94370740D01*
X117573000Y-94370740D01*
X117573000Y-93641260D01*
X120388964Y-93641260D01*
X120509622Y-93879000D01*
X122653000Y-93879000D01*
X122653000Y-92471000D01*
X122907000Y-92471000D01*
X122907000Y-93879000D01*
X125050378Y-93879000D01*
X125171036Y-93641260D01*
X125146756Y-93535914D01*
X124855212Y-93010394D01*
X124384752Y-92636446D01*
X123807000Y-92471000D01*
X122907000Y-92471000D01*
X122653000Y-92471000D01*
X121753000Y-92471000D01*
X121175248Y-92636446D01*
X120704788Y-93010394D01*
X120413244Y-93535914D01*
X120388964Y-93641260D01*
X117573000Y-93641260D01*
X117573000Y-82009482D01*
X118309336Y-82009482D01*
X118891950Y-83419515D01*
X119969811Y-84499259D01*
X121378825Y-85084333D01*
X122904482Y-85085664D01*
X124314515Y-84503050D01*
X125394259Y-83425189D01*
X125756942Y-82551750D01*
X130389000Y-82551750D01*
X130389000Y-84192310D01*
X130485673Y-84425699D01*
X130664302Y-84604327D01*
X130897691Y-84701000D01*
X131638250Y-84701000D01*
X131797000Y-84542250D01*
X131797000Y-82393000D01*
X132051000Y-82393000D01*
X132051000Y-84542250D01*
X132209750Y-84701000D01*
X132950309Y-84701000D01*
X133183698Y-84604327D01*
X133362327Y-84425699D01*
X133459000Y-84192310D01*
X133459000Y-82551750D01*
X133300250Y-82393000D01*
X132051000Y-82393000D01*
X131797000Y-82393000D01*
X130547750Y-82393000D01*
X130389000Y-82551750D01*
X125756942Y-82551750D01*
X125979333Y-82016175D01*
X125980664Y-80490518D01*
X125918344Y-80339690D01*
X130389000Y-80339690D01*
X130389000Y-81980250D01*
X130547750Y-82139000D01*
X131797000Y-82139000D01*
X131797000Y-79989750D01*
X132051000Y-79989750D01*
X132051000Y-82139000D01*
X133300250Y-82139000D01*
X133459000Y-81980250D01*
X133459000Y-81318296D01*
X133889000Y-81318296D01*
X133889000Y-83213704D01*
X134005845Y-83801123D01*
X134338591Y-84299113D01*
X134836581Y-84631859D01*
X135424000Y-84748704D01*
X136011419Y-84631859D01*
X136509409Y-84299113D01*
X136842155Y-83801123D01*
X136882260Y-83599500D01*
X143491335Y-83599500D01*
X143501838Y-83655317D01*
X143640910Y-83871441D01*
X143853110Y-84016431D01*
X143904146Y-84026766D01*
X143767034Y-84152424D01*
X143513954Y-84695258D01*
X143634003Y-84933000D01*
X144878000Y-84933000D01*
X144878000Y-84913000D01*
X145132000Y-84913000D01*
X145132000Y-84933000D01*
X146375997Y-84933000D01*
X146496046Y-84695258D01*
X146247778Y-84162745D01*
X150566861Y-84162745D01*
X150640995Y-84408864D01*
X151178223Y-84601965D01*
X151748454Y-84574778D01*
X152149005Y-84408864D01*
X152223139Y-84162745D01*
X151395000Y-83334605D01*
X150566861Y-84162745D01*
X146247778Y-84162745D01*
X146242966Y-84152424D01*
X146108462Y-84029156D01*
X146140317Y-84023162D01*
X146356441Y-83884090D01*
X146501431Y-83671890D01*
X146552440Y-83420000D01*
X146552440Y-82938223D01*
X149948035Y-82938223D01*
X149975222Y-83508454D01*
X150141136Y-83909005D01*
X150387255Y-83983139D01*
X151215395Y-83155000D01*
X150387255Y-82326861D01*
X150141136Y-82400995D01*
X149948035Y-82938223D01*
X146552440Y-82938223D01*
X146552440Y-82147255D01*
X150566861Y-82147255D01*
X151395000Y-82975395D01*
X152223139Y-82147255D01*
X152149005Y-81901136D01*
X151611777Y-81708035D01*
X151041546Y-81735222D01*
X150640995Y-81901136D01*
X150566861Y-82147255D01*
X146552440Y-82147255D01*
X146552440Y-81620000D01*
X146508162Y-81384683D01*
X146369090Y-81168559D01*
X146156890Y-81023569D01*
X145905000Y-80972560D01*
X144105000Y-80972560D01*
X143869683Y-81016838D01*
X143653559Y-81155910D01*
X143508569Y-81368110D01*
X143493910Y-81440500D01*
X142531144Y-81440500D01*
X144817144Y-79154500D01*
X151542856Y-79154500D01*
X152815500Y-80427144D01*
X152815500Y-81780269D01*
X152643559Y-81890910D01*
X152498569Y-82103110D01*
X152450354Y-82341201D01*
X152402745Y-82326861D01*
X151574605Y-83155000D01*
X152402745Y-83983139D01*
X152450167Y-83968855D01*
X152491838Y-84190317D01*
X152630910Y-84406441D01*
X152843110Y-84551431D01*
X153095000Y-84602440D01*
X154695000Y-84602440D01*
X154930317Y-84558162D01*
X155146441Y-84419090D01*
X155291431Y-84206890D01*
X155342440Y-83955000D01*
X155342440Y-82355000D01*
X155298162Y-82119683D01*
X155159090Y-81903559D01*
X154974500Y-81777434D01*
X154974500Y-79980000D01*
X154892328Y-79566893D01*
X154659205Y-79218000D01*
X156559356Y-79218000D01*
X157260500Y-79919144D01*
X157260500Y-82316410D01*
X157242560Y-82405000D01*
X157242560Y-83905000D01*
X157286838Y-84140317D01*
X157425910Y-84356441D01*
X157638110Y-84501431D01*
X157890000Y-84552440D01*
X158530500Y-84552440D01*
X158530500Y-85247856D01*
X157576678Y-86201678D01*
X157342672Y-86551893D01*
X157260500Y-86965000D01*
X157260500Y-89301410D01*
X157242560Y-89390000D01*
X157242560Y-90890000D01*
X157286838Y-91125317D01*
X157425910Y-91341441D01*
X157638110Y-91486431D01*
X157890000Y-91537440D01*
X158530500Y-91537440D01*
X158530500Y-95220000D01*
X158612672Y-95633107D01*
X158846678Y-95983322D01*
X164245500Y-101382143D01*
X164245500Y-113822856D01*
X163607856Y-114460500D01*
X159422143Y-114460500D01*
X158310683Y-113349039D01*
X158980096Y-113349039D01*
X159140959Y-113737423D01*
X159516866Y-114152389D01*
X160022959Y-114391914D01*
X160245000Y-114270629D01*
X160245000Y-113127000D01*
X160499000Y-113127000D01*
X160499000Y-114270629D01*
X160721041Y-114391914D01*
X161227134Y-114152389D01*
X161603041Y-113737423D01*
X161763904Y-113349039D01*
X161641915Y-113127000D01*
X160499000Y-113127000D01*
X160245000Y-113127000D01*
X159102085Y-113127000D01*
X158980096Y-113349039D01*
X158310683Y-113349039D01*
X157514500Y-112552856D01*
X157514500Y-110907144D01*
X159422143Y-108999500D01*
X159426172Y-108999500D01*
X159711275Y-109190000D01*
X159329189Y-109445302D01*
X159018120Y-109910849D01*
X158908887Y-110460000D01*
X159018120Y-111009151D01*
X159329189Y-111474698D01*
X159733703Y-111744986D01*
X159516866Y-111847611D01*
X159140959Y-112262577D01*
X158980096Y-112650961D01*
X159102085Y-112873000D01*
X160245000Y-112873000D01*
X160245000Y-112853000D01*
X160499000Y-112853000D01*
X160499000Y-112873000D01*
X161641915Y-112873000D01*
X161763904Y-112650961D01*
X161603041Y-112262577D01*
X161227134Y-111847611D01*
X161010297Y-111744986D01*
X161414811Y-111474698D01*
X161725880Y-111009151D01*
X161835113Y-110460000D01*
X161725880Y-109910849D01*
X161414811Y-109445302D01*
X161032725Y-109190000D01*
X161414811Y-108934698D01*
X161725880Y-108469151D01*
X161835113Y-107920000D01*
X161725880Y-107370849D01*
X161414811Y-106905302D01*
X161032725Y-106650000D01*
X161414811Y-106394698D01*
X161725880Y-105929151D01*
X161835113Y-105380000D01*
X161725880Y-104830849D01*
X161414811Y-104365302D01*
X160949264Y-104054233D01*
X160400113Y-103945000D01*
X160343887Y-103945000D01*
X159794736Y-104054233D01*
X159329189Y-104365302D01*
X159018120Y-104830849D01*
X158908887Y-105380000D01*
X159018120Y-105929151D01*
X159329189Y-106394698D01*
X159711275Y-106650000D01*
X159426172Y-106840500D01*
X158975000Y-106840500D01*
X158561893Y-106922672D01*
X158211678Y-107156678D01*
X158211676Y-107156681D01*
X155671678Y-109696678D01*
X155437672Y-110046893D01*
X155355500Y-110460000D01*
X155355500Y-113000000D01*
X155437672Y-113413107D01*
X155671678Y-113763322D01*
X156368856Y-114460500D01*
X141642143Y-114460500D01*
X140530683Y-113349039D01*
X141454096Y-113349039D01*
X141614959Y-113737423D01*
X141990866Y-114152389D01*
X142496959Y-114391914D01*
X142719000Y-114270629D01*
X142719000Y-113127000D01*
X142973000Y-113127000D01*
X142973000Y-114270629D01*
X143195041Y-114391914D01*
X143701134Y-114152389D01*
X144077041Y-113737423D01*
X144237904Y-113349039D01*
X151360096Y-113349039D01*
X151520959Y-113737423D01*
X151896866Y-114152389D01*
X152402959Y-114391914D01*
X152625000Y-114270629D01*
X152625000Y-113127000D01*
X152879000Y-113127000D01*
X152879000Y-114270629D01*
X153101041Y-114391914D01*
X153607134Y-114152389D01*
X153983041Y-113737423D01*
X154143904Y-113349039D01*
X154021915Y-113127000D01*
X152879000Y-113127000D01*
X152625000Y-113127000D01*
X151482085Y-113127000D01*
X151360096Y-113349039D01*
X144237904Y-113349039D01*
X144115915Y-113127000D01*
X142973000Y-113127000D01*
X142719000Y-113127000D01*
X141576085Y-113127000D01*
X141454096Y-113349039D01*
X140530683Y-113349039D01*
X139734500Y-112552856D01*
X139734500Y-110907144D01*
X141642143Y-108999500D01*
X141900172Y-108999500D01*
X142185275Y-109190000D01*
X141803189Y-109445302D01*
X141492120Y-109910849D01*
X141382887Y-110460000D01*
X141492120Y-111009151D01*
X141803189Y-111474698D01*
X142207703Y-111744986D01*
X141990866Y-111847611D01*
X141614959Y-112262577D01*
X141454096Y-112650961D01*
X141576085Y-112873000D01*
X142719000Y-112873000D01*
X142719000Y-112853000D01*
X142973000Y-112853000D01*
X142973000Y-112873000D01*
X144115915Y-112873000D01*
X144237904Y-112650961D01*
X144077041Y-112262577D01*
X143701134Y-111847611D01*
X143484297Y-111744986D01*
X143888811Y-111474698D01*
X144199880Y-111009151D01*
X144309113Y-110460000D01*
X144199880Y-109910849D01*
X143888811Y-109445302D01*
X143506725Y-109190000D01*
X143888811Y-108934698D01*
X144199880Y-108469151D01*
X144309113Y-107920000D01*
X151288887Y-107920000D01*
X151398120Y-108469151D01*
X151709189Y-108934698D01*
X152091275Y-109190000D01*
X151709189Y-109445302D01*
X151398120Y-109910849D01*
X151288887Y-110460000D01*
X151398120Y-111009151D01*
X151709189Y-111474698D01*
X152113703Y-111744986D01*
X151896866Y-111847611D01*
X151520959Y-112262577D01*
X151360096Y-112650961D01*
X151482085Y-112873000D01*
X152625000Y-112873000D01*
X152625000Y-112853000D01*
X152879000Y-112853000D01*
X152879000Y-112873000D01*
X154021915Y-112873000D01*
X154143904Y-112650961D01*
X153983041Y-112262577D01*
X153607134Y-111847611D01*
X153390297Y-111744986D01*
X153794811Y-111474698D01*
X154105880Y-111009151D01*
X154215113Y-110460000D01*
X154105880Y-109910849D01*
X153794811Y-109445302D01*
X153412725Y-109190000D01*
X153794811Y-108934698D01*
X154105880Y-108469151D01*
X154215113Y-107920000D01*
X154105880Y-107370849D01*
X153794811Y-106905302D01*
X153650535Y-106808899D01*
X153787317Y-106783162D01*
X154003441Y-106644090D01*
X154148431Y-106431890D01*
X154199440Y-106180000D01*
X154199440Y-104580000D01*
X154155162Y-104344683D01*
X154016090Y-104128559D01*
X153803890Y-103983569D01*
X153552000Y-103932560D01*
X151952000Y-103932560D01*
X151716683Y-103976838D01*
X151500559Y-104115910D01*
X151355569Y-104328110D01*
X151304560Y-104580000D01*
X151304560Y-106180000D01*
X151348838Y-106415317D01*
X151487910Y-106631441D01*
X151700110Y-106776431D01*
X151855089Y-106807815D01*
X151709189Y-106905302D01*
X151398120Y-107370849D01*
X151288887Y-107920000D01*
X144309113Y-107920000D01*
X144199880Y-107370849D01*
X143888811Y-106905302D01*
X143506725Y-106650000D01*
X143888811Y-106394698D01*
X144199880Y-105929151D01*
X144309113Y-105380000D01*
X144199880Y-104830849D01*
X143888811Y-104365302D01*
X143423264Y-104054233D01*
X142874113Y-103945000D01*
X142817887Y-103945000D01*
X142268736Y-104054233D01*
X141803189Y-104365302D01*
X141492120Y-104830849D01*
X141382887Y-105380000D01*
X141492120Y-105929151D01*
X141803189Y-106394698D01*
X142185275Y-106650000D01*
X141900172Y-106840500D01*
X141195000Y-106840500D01*
X140781893Y-106922672D01*
X140431678Y-107156678D01*
X140431676Y-107156681D01*
X137891678Y-109696678D01*
X137657672Y-110046893D01*
X137575500Y-110460000D01*
X137575500Y-113000000D01*
X137657672Y-113413107D01*
X137891678Y-113763322D01*
X140431676Y-116303319D01*
X140431678Y-116303322D01*
X140714803Y-116492500D01*
X140781893Y-116537328D01*
X141195000Y-116619500D01*
X143795856Y-116619500D01*
X143352678Y-117062678D01*
X143118672Y-117412893D01*
X143036500Y-117826000D01*
X143036500Y-117952335D01*
X142980683Y-117962838D01*
X142764559Y-118101910D01*
X142619569Y-118314110D01*
X142568560Y-118566000D01*
X142568560Y-122166000D01*
X142612838Y-122401317D01*
X142751910Y-122617441D01*
X142964110Y-122762431D01*
X143216000Y-122813440D01*
X145016000Y-122813440D01*
X145251317Y-122769162D01*
X145467441Y-122630090D01*
X145612431Y-122417890D01*
X145663440Y-122166000D01*
X145663440Y-119418296D01*
X150369000Y-119418296D01*
X150369000Y-121313704D01*
X150485845Y-121901123D01*
X150818591Y-122399113D01*
X151316581Y-122731859D01*
X151904000Y-122848704D01*
X152491419Y-122731859D01*
X152989409Y-122399113D01*
X153322155Y-121901123D01*
X153439000Y-121313704D01*
X153439000Y-119418296D01*
X153869000Y-119418296D01*
X153869000Y-121313704D01*
X153985845Y-121901123D01*
X154318591Y-122399113D01*
X154816581Y-122731859D01*
X155404000Y-122848704D01*
X155991419Y-122731859D01*
X156489409Y-122399113D01*
X156822155Y-121901123D01*
X156939000Y-121313704D01*
X156939000Y-120493000D01*
X157369000Y-120493000D01*
X157369000Y-121393000D01*
X157534446Y-121970752D01*
X157908394Y-122441212D01*
X158433914Y-122732756D01*
X158539260Y-122757036D01*
X158777000Y-122636378D01*
X158777000Y-120493000D01*
X159031000Y-120493000D01*
X159031000Y-122636378D01*
X159268740Y-122757036D01*
X159374086Y-122732756D01*
X159899606Y-122441212D01*
X160273554Y-121970752D01*
X160439000Y-121393000D01*
X160439000Y-120493000D01*
X159031000Y-120493000D01*
X158777000Y-120493000D01*
X157369000Y-120493000D01*
X156939000Y-120493000D01*
X156939000Y-119418296D01*
X156923228Y-119339000D01*
X157369000Y-119339000D01*
X157369000Y-120239000D01*
X158777000Y-120239000D01*
X158777000Y-118095622D01*
X159031000Y-118095622D01*
X159031000Y-120239000D01*
X160439000Y-120239000D01*
X160439000Y-119339000D01*
X160273554Y-118761248D01*
X159899606Y-118290788D01*
X159374086Y-117999244D01*
X159268740Y-117974964D01*
X159031000Y-118095622D01*
X158777000Y-118095622D01*
X158539260Y-117974964D01*
X158433914Y-117999244D01*
X157908394Y-118290788D01*
X157534446Y-118761248D01*
X157369000Y-119339000D01*
X156923228Y-119339000D01*
X156822155Y-118830877D01*
X156489409Y-118332887D01*
X155991419Y-118000141D01*
X155404000Y-117883296D01*
X154816581Y-118000141D01*
X154318591Y-118332887D01*
X153985845Y-118830877D01*
X153869000Y-119418296D01*
X153439000Y-119418296D01*
X153322155Y-118830877D01*
X152989409Y-118332887D01*
X152491419Y-118000141D01*
X151904000Y-117883296D01*
X151316581Y-118000141D01*
X150818591Y-118332887D01*
X150485845Y-118830877D01*
X150369000Y-119418296D01*
X145663440Y-119418296D01*
X145663440Y-118566000D01*
X145619162Y-118330683D01*
X145480090Y-118114559D01*
X145405233Y-118063411D01*
X146849144Y-116619500D01*
X161512507Y-116619500D01*
X161406672Y-116777893D01*
X161324500Y-117191000D01*
X161324500Y-117952335D01*
X161268683Y-117962838D01*
X161052559Y-118101910D01*
X160907569Y-118314110D01*
X160856560Y-118566000D01*
X160856560Y-122166000D01*
X160900838Y-122401317D01*
X161039910Y-122617441D01*
X161252110Y-122762431D01*
X161504000Y-122813440D01*
X163304000Y-122813440D01*
X163539317Y-122769162D01*
X163755441Y-122630090D01*
X163900431Y-122417890D01*
X163951440Y-122166000D01*
X163951440Y-119418296D01*
X167641000Y-119418296D01*
X167641000Y-121313704D01*
X167757845Y-121901123D01*
X168090591Y-122399113D01*
X168588581Y-122731859D01*
X169176000Y-122848704D01*
X169763419Y-122731859D01*
X170261409Y-122399113D01*
X170594155Y-121901123D01*
X170711000Y-121313704D01*
X170711000Y-119418296D01*
X171141000Y-119418296D01*
X171141000Y-121313704D01*
X171257845Y-121901123D01*
X171590591Y-122399113D01*
X172088581Y-122731859D01*
X172676000Y-122848704D01*
X173263419Y-122731859D01*
X173761409Y-122399113D01*
X174094155Y-121901123D01*
X174211000Y-121313704D01*
X174211000Y-120493000D01*
X174641000Y-120493000D01*
X174641000Y-121393000D01*
X174806446Y-121970752D01*
X175180394Y-122441212D01*
X175705914Y-122732756D01*
X175811260Y-122757036D01*
X176049000Y-122636378D01*
X176049000Y-120493000D01*
X176303000Y-120493000D01*
X176303000Y-122636378D01*
X176540740Y-122757036D01*
X176646086Y-122732756D01*
X177171606Y-122441212D01*
X177545554Y-121970752D01*
X177711000Y-121393000D01*
X177711000Y-120493000D01*
X176303000Y-120493000D01*
X176049000Y-120493000D01*
X174641000Y-120493000D01*
X174211000Y-120493000D01*
X174211000Y-119418296D01*
X174195228Y-119339000D01*
X174641000Y-119339000D01*
X174641000Y-120239000D01*
X176049000Y-120239000D01*
X176049000Y-118095622D01*
X176303000Y-118095622D01*
X176303000Y-120239000D01*
X177711000Y-120239000D01*
X177711000Y-119339000D01*
X177545554Y-118761248D01*
X177171606Y-118290788D01*
X176646086Y-117999244D01*
X176540740Y-117974964D01*
X176303000Y-118095622D01*
X176049000Y-118095622D01*
X175811260Y-117974964D01*
X175705914Y-117999244D01*
X175180394Y-118290788D01*
X174806446Y-118761248D01*
X174641000Y-119339000D01*
X174195228Y-119339000D01*
X174094155Y-118830877D01*
X173761409Y-118332887D01*
X173263419Y-118000141D01*
X172676000Y-117883296D01*
X172088581Y-118000141D01*
X171590591Y-118332887D01*
X171257845Y-118830877D01*
X171141000Y-119418296D01*
X170711000Y-119418296D01*
X170594155Y-118830877D01*
X170261409Y-118332887D01*
X169763419Y-118000141D01*
X169176000Y-117883296D01*
X168588581Y-118000141D01*
X168090591Y-118332887D01*
X167757845Y-118830877D01*
X167641000Y-119418296D01*
X163951440Y-119418296D01*
X163951440Y-118566000D01*
X163907162Y-118330683D01*
X163768090Y-118114559D01*
X163555890Y-117969569D01*
X163483500Y-117954910D01*
X163483500Y-117638144D01*
X164818319Y-116303324D01*
X164818322Y-116303322D01*
X165325000Y-115796644D01*
X165831678Y-116303322D01*
X166181893Y-116537328D01*
X166595000Y-116619500D01*
X176942856Y-116619500D01*
X178385836Y-118062480D01*
X178324559Y-118101910D01*
X178179569Y-118314110D01*
X178128560Y-118566000D01*
X178128560Y-122166000D01*
X178172838Y-122401317D01*
X178311910Y-122617441D01*
X178524110Y-122762431D01*
X178776000Y-122813440D01*
X180576000Y-122813440D01*
X180811317Y-122769162D01*
X181027441Y-122630090D01*
X181172431Y-122417890D01*
X181223440Y-122166000D01*
X181223440Y-119418296D01*
X184405000Y-119418296D01*
X184405000Y-121313704D01*
X184521845Y-121901123D01*
X184854591Y-122399113D01*
X185352581Y-122731859D01*
X185940000Y-122848704D01*
X186527419Y-122731859D01*
X187025409Y-122399113D01*
X187358155Y-121901123D01*
X187475000Y-121313704D01*
X187475000Y-119418296D01*
X187905000Y-119418296D01*
X187905000Y-121313704D01*
X188021845Y-121901123D01*
X188354591Y-122399113D01*
X188852581Y-122731859D01*
X189440000Y-122848704D01*
X190027419Y-122731859D01*
X190525409Y-122399113D01*
X190858155Y-121901123D01*
X190975000Y-121313704D01*
X190975000Y-120493000D01*
X191405000Y-120493000D01*
X191405000Y-121393000D01*
X191570446Y-121970752D01*
X191944394Y-122441212D01*
X192469914Y-122732756D01*
X192575260Y-122757036D01*
X192813000Y-122636378D01*
X192813000Y-120493000D01*
X193067000Y-120493000D01*
X193067000Y-122636378D01*
X193304740Y-122757036D01*
X193410086Y-122732756D01*
X193935606Y-122441212D01*
X194309554Y-121970752D01*
X194475000Y-121393000D01*
X194475000Y-120493000D01*
X193067000Y-120493000D01*
X192813000Y-120493000D01*
X191405000Y-120493000D01*
X190975000Y-120493000D01*
X190975000Y-119418296D01*
X190959228Y-119339000D01*
X191405000Y-119339000D01*
X191405000Y-120239000D01*
X192813000Y-120239000D01*
X192813000Y-118095622D01*
X193067000Y-118095622D01*
X193067000Y-120239000D01*
X194475000Y-120239000D01*
X194475000Y-119339000D01*
X194309554Y-118761248D01*
X193935606Y-118290788D01*
X193410086Y-117999244D01*
X193304740Y-117974964D01*
X193067000Y-118095622D01*
X192813000Y-118095622D01*
X192575260Y-117974964D01*
X192469914Y-117999244D01*
X191944394Y-118290788D01*
X191570446Y-118761248D01*
X191405000Y-119339000D01*
X190959228Y-119339000D01*
X190858155Y-118830877D01*
X190525409Y-118332887D01*
X190027419Y-118000141D01*
X189440000Y-117883296D01*
X188852581Y-118000141D01*
X188354591Y-118332887D01*
X188021845Y-118830877D01*
X187905000Y-119418296D01*
X187475000Y-119418296D01*
X187358155Y-118830877D01*
X187025409Y-118332887D01*
X186527419Y-118000141D01*
X185940000Y-117883296D01*
X185352581Y-118000141D01*
X184854591Y-118332887D01*
X184521845Y-118830877D01*
X184405000Y-119418296D01*
X181223440Y-119418296D01*
X181223440Y-118566000D01*
X181179162Y-118330683D01*
X181040090Y-118114559D01*
X180827890Y-117969569D01*
X180755500Y-117954910D01*
X180755500Y-117826000D01*
X180673328Y-117412893D01*
X180439322Y-117062678D01*
X179996144Y-116619500D01*
X193960856Y-116619500D01*
X195304385Y-117963029D01*
X195088559Y-118101910D01*
X194943569Y-118314110D01*
X194892560Y-118566000D01*
X194892560Y-122166000D01*
X194936838Y-122401317D01*
X195075910Y-122617441D01*
X195288110Y-122762431D01*
X195540000Y-122813440D01*
X197340000Y-122813440D01*
X197575317Y-122769162D01*
X197791441Y-122630090D01*
X197936431Y-122417890D01*
X197987440Y-122166000D01*
X197987440Y-122014482D01*
X202129336Y-122014482D01*
X202711950Y-123424515D01*
X203789811Y-124504259D01*
X205198825Y-125089333D01*
X206724482Y-125090664D01*
X208134515Y-124508050D01*
X209214259Y-123430189D01*
X209799333Y-122021175D01*
X209800664Y-120495518D01*
X209218050Y-119085485D01*
X208140189Y-118005741D01*
X206731175Y-117420667D01*
X205205518Y-117419336D01*
X203795485Y-118001950D01*
X202715741Y-119079811D01*
X202130667Y-120488825D01*
X202129336Y-122014482D01*
X197987440Y-122014482D01*
X197987440Y-118566000D01*
X197943162Y-118330683D01*
X197804090Y-118114559D01*
X197591890Y-117969569D01*
X197519500Y-117954910D01*
X197519500Y-117572000D01*
X197437328Y-117158893D01*
X197203322Y-116808678D01*
X195535007Y-115140363D01*
X195532328Y-115126893D01*
X195298322Y-114776678D01*
X194948107Y-114542672D01*
X194535000Y-114460500D01*
X194347144Y-114460500D01*
X193235683Y-113349039D01*
X193651096Y-113349039D01*
X193811959Y-113737423D01*
X194187866Y-114152389D01*
X194693959Y-114391914D01*
X194916000Y-114270629D01*
X194916000Y-113127000D01*
X195170000Y-113127000D01*
X195170000Y-114270629D01*
X195392041Y-114391914D01*
X195898134Y-114152389D01*
X196274041Y-113737423D01*
X196434904Y-113349039D01*
X196312915Y-113127000D01*
X195170000Y-113127000D01*
X194916000Y-113127000D01*
X193773085Y-113127000D01*
X193651096Y-113349039D01*
X193235683Y-113349039D01*
X192439500Y-112552856D01*
X192439500Y-110272144D01*
X193712144Y-108999500D01*
X194097172Y-108999500D01*
X194382275Y-109190000D01*
X194000189Y-109445302D01*
X193689120Y-109910849D01*
X193579887Y-110460000D01*
X193689120Y-111009151D01*
X194000189Y-111474698D01*
X194404703Y-111744986D01*
X194187866Y-111847611D01*
X193811959Y-112262577D01*
X193651096Y-112650961D01*
X193773085Y-112873000D01*
X194916000Y-112873000D01*
X194916000Y-112853000D01*
X195170000Y-112853000D01*
X195170000Y-112873000D01*
X196312915Y-112873000D01*
X196434904Y-112650961D01*
X196274041Y-112262577D01*
X195898134Y-111847611D01*
X195681297Y-111744986D01*
X196085811Y-111474698D01*
X196396880Y-111009151D01*
X196506113Y-110460000D01*
X196396880Y-109910849D01*
X196085811Y-109445302D01*
X195703725Y-109190000D01*
X196085811Y-108934698D01*
X196396880Y-108469151D01*
X196506113Y-107920000D01*
X196396880Y-107370849D01*
X196085811Y-106905302D01*
X195703725Y-106650000D01*
X196085811Y-106394698D01*
X196396880Y-105929151D01*
X196506113Y-105380000D01*
X196396880Y-104830849D01*
X196085811Y-104365302D01*
X195620264Y-104054233D01*
X195071113Y-103945000D01*
X195014887Y-103945000D01*
X194465736Y-104054233D01*
X194000189Y-104365302D01*
X193689120Y-104830849D01*
X193579887Y-105380000D01*
X193689120Y-105929151D01*
X194000189Y-106394698D01*
X194382275Y-106650000D01*
X194097172Y-106840500D01*
X193265000Y-106840500D01*
X192851893Y-106922672D01*
X192501678Y-107156678D01*
X190596678Y-109061678D01*
X190362672Y-109411893D01*
X190280500Y-109825000D01*
X190280500Y-113000000D01*
X190362672Y-113413107D01*
X190596678Y-113763322D01*
X191293856Y-114460500D01*
X176567143Y-114460500D01*
X175455683Y-113349039D01*
X176125096Y-113349039D01*
X176285959Y-113737423D01*
X176661866Y-114152389D01*
X177167959Y-114391914D01*
X177390000Y-114270629D01*
X177390000Y-113127000D01*
X177644000Y-113127000D01*
X177644000Y-114270629D01*
X177866041Y-114391914D01*
X178372134Y-114152389D01*
X178748041Y-113737423D01*
X178908904Y-113349039D01*
X186031096Y-113349039D01*
X186191959Y-113737423D01*
X186567866Y-114152389D01*
X187073959Y-114391914D01*
X187296000Y-114270629D01*
X187296000Y-113127000D01*
X187550000Y-113127000D01*
X187550000Y-114270629D01*
X187772041Y-114391914D01*
X188278134Y-114152389D01*
X188654041Y-113737423D01*
X188814904Y-113349039D01*
X188692915Y-113127000D01*
X187550000Y-113127000D01*
X187296000Y-113127000D01*
X186153085Y-113127000D01*
X186031096Y-113349039D01*
X178908904Y-113349039D01*
X178786915Y-113127000D01*
X177644000Y-113127000D01*
X177390000Y-113127000D01*
X176247085Y-113127000D01*
X176125096Y-113349039D01*
X175455683Y-113349039D01*
X174659500Y-112552856D01*
X174659500Y-110907144D01*
X176567143Y-108999500D01*
X176571172Y-108999500D01*
X176856275Y-109190000D01*
X176474189Y-109445302D01*
X176163120Y-109910849D01*
X176053887Y-110460000D01*
X176163120Y-111009151D01*
X176474189Y-111474698D01*
X176878703Y-111744986D01*
X176661866Y-111847611D01*
X176285959Y-112262577D01*
X176125096Y-112650961D01*
X176247085Y-112873000D01*
X177390000Y-112873000D01*
X177390000Y-112853000D01*
X177644000Y-112853000D01*
X177644000Y-112873000D01*
X178786915Y-112873000D01*
X178908904Y-112650961D01*
X178748041Y-112262577D01*
X178372134Y-111847611D01*
X178155297Y-111744986D01*
X178559811Y-111474698D01*
X178870880Y-111009151D01*
X178980113Y-110460000D01*
X178870880Y-109910849D01*
X178559811Y-109445302D01*
X178177725Y-109190000D01*
X178559811Y-108934698D01*
X178870880Y-108469151D01*
X178980113Y-107920000D01*
X185959887Y-107920000D01*
X186069120Y-108469151D01*
X186380189Y-108934698D01*
X186762275Y-109190000D01*
X186380189Y-109445302D01*
X186069120Y-109910849D01*
X185959887Y-110460000D01*
X186069120Y-111009151D01*
X186380189Y-111474698D01*
X186784703Y-111744986D01*
X186567866Y-111847611D01*
X186191959Y-112262577D01*
X186031096Y-112650961D01*
X186153085Y-112873000D01*
X187296000Y-112873000D01*
X187296000Y-112853000D01*
X187550000Y-112853000D01*
X187550000Y-112873000D01*
X188692915Y-112873000D01*
X188814904Y-112650961D01*
X188654041Y-112262577D01*
X188278134Y-111847611D01*
X188061297Y-111744986D01*
X188465811Y-111474698D01*
X188776880Y-111009151D01*
X188886113Y-110460000D01*
X188776880Y-109910849D01*
X188465811Y-109445302D01*
X188083725Y-109190000D01*
X188465811Y-108934698D01*
X188776880Y-108469151D01*
X188886113Y-107920000D01*
X188776880Y-107370849D01*
X188465811Y-106905302D01*
X188321535Y-106808899D01*
X188458317Y-106783162D01*
X188674441Y-106644090D01*
X188819431Y-106431890D01*
X188870440Y-106180000D01*
X188870440Y-104580000D01*
X188826162Y-104344683D01*
X188687090Y-104128559D01*
X188474890Y-103983569D01*
X188223000Y-103932560D01*
X186623000Y-103932560D01*
X186387683Y-103976838D01*
X186171559Y-104115910D01*
X186026569Y-104328110D01*
X185975560Y-104580000D01*
X185975560Y-106180000D01*
X186019838Y-106415317D01*
X186158910Y-106631441D01*
X186371110Y-106776431D01*
X186526089Y-106807815D01*
X186380189Y-106905302D01*
X186069120Y-107370849D01*
X185959887Y-107920000D01*
X178980113Y-107920000D01*
X178870880Y-107370849D01*
X178559811Y-106905302D01*
X178177725Y-106650000D01*
X178559811Y-106394698D01*
X178870880Y-105929151D01*
X178980113Y-105380000D01*
X178870880Y-104830849D01*
X178559811Y-104365302D01*
X178094264Y-104054233D01*
X177545113Y-103945000D01*
X177488887Y-103945000D01*
X176939736Y-104054233D01*
X176474189Y-104365302D01*
X176163120Y-104830849D01*
X176053887Y-105380000D01*
X176163120Y-105929151D01*
X176474189Y-106394698D01*
X176856275Y-106650000D01*
X176571172Y-106840500D01*
X176120000Y-106840500D01*
X175706893Y-106922672D01*
X175356678Y-107156678D01*
X175356676Y-107156681D01*
X172816678Y-109696678D01*
X172582672Y-110046893D01*
X172500500Y-110460000D01*
X172500500Y-113000000D01*
X172582672Y-113413107D01*
X172816678Y-113763322D01*
X173513856Y-114460500D01*
X167042144Y-114460500D01*
X166404500Y-113822856D01*
X166404500Y-113349039D01*
X168505096Y-113349039D01*
X168665959Y-113737423D01*
X169041866Y-114152389D01*
X169547959Y-114391914D01*
X169770000Y-114270629D01*
X169770000Y-113127000D01*
X170024000Y-113127000D01*
X170024000Y-114270629D01*
X170246041Y-114391914D01*
X170752134Y-114152389D01*
X171128041Y-113737423D01*
X171288904Y-113349039D01*
X171166915Y-113127000D01*
X170024000Y-113127000D01*
X169770000Y-113127000D01*
X168627085Y-113127000D01*
X168505096Y-113349039D01*
X166404500Y-113349039D01*
X166404500Y-107920000D01*
X168433887Y-107920000D01*
X168543120Y-108469151D01*
X168854189Y-108934698D01*
X169236275Y-109190000D01*
X168854189Y-109445302D01*
X168543120Y-109910849D01*
X168433887Y-110460000D01*
X168543120Y-111009151D01*
X168854189Y-111474698D01*
X169258703Y-111744986D01*
X169041866Y-111847611D01*
X168665959Y-112262577D01*
X168505096Y-112650961D01*
X168627085Y-112873000D01*
X169770000Y-112873000D01*
X169770000Y-112853000D01*
X170024000Y-112853000D01*
X170024000Y-112873000D01*
X171166915Y-112873000D01*
X171288904Y-112650961D01*
X171128041Y-112262577D01*
X170752134Y-111847611D01*
X170535297Y-111744986D01*
X170939811Y-111474698D01*
X171250880Y-111009151D01*
X171360113Y-110460000D01*
X171250880Y-109910849D01*
X170939811Y-109445302D01*
X170557725Y-109190000D01*
X170939811Y-108934698D01*
X171250880Y-108469151D01*
X171360113Y-107920000D01*
X171250880Y-107370849D01*
X170939811Y-106905302D01*
X170795535Y-106808899D01*
X170932317Y-106783162D01*
X171148441Y-106644090D01*
X171293431Y-106431890D01*
X171344440Y-106180000D01*
X171344440Y-104580000D01*
X171300162Y-104344683D01*
X171161090Y-104128559D01*
X170948890Y-103983569D01*
X170697000Y-103932560D01*
X169097000Y-103932560D01*
X168861683Y-103976838D01*
X168645559Y-104115910D01*
X168500569Y-104328110D01*
X168449560Y-104580000D01*
X168449560Y-106180000D01*
X168493838Y-106415317D01*
X168632910Y-106631441D01*
X168845110Y-106776431D01*
X169000089Y-106807815D01*
X168854189Y-106905302D01*
X168543120Y-107370849D01*
X168433887Y-107920000D01*
X166404500Y-107920000D01*
X166404500Y-100935005D01*
X166404501Y-100935000D01*
X166322329Y-100521894D01*
X166244680Y-100405685D01*
X166088322Y-100171678D01*
X166088319Y-100171676D01*
X160689500Y-94772856D01*
X160689500Y-91405756D01*
X160753000Y-91357502D01*
X160753000Y-90267000D01*
X161007000Y-90267000D01*
X161007000Y-91357502D01*
X161174001Y-91484408D01*
X161557408Y-91297013D01*
X161833808Y-90972544D01*
X161965000Y-90567000D01*
X161965000Y-90267000D01*
X161007000Y-90267000D01*
X160753000Y-90267000D01*
X160733000Y-90267000D01*
X160733000Y-90013000D01*
X160753000Y-90013000D01*
X160753000Y-88922498D01*
X161007000Y-88922498D01*
X161007000Y-90013000D01*
X161965000Y-90013000D01*
X161965000Y-89713000D01*
X161833808Y-89307456D01*
X161557408Y-88982987D01*
X161174001Y-88795592D01*
X161007000Y-88922498D01*
X160753000Y-88922498D01*
X160585999Y-88795592D01*
X160249274Y-88960170D01*
X160025212Y-88810457D01*
X159610000Y-88727866D01*
X159419500Y-88765759D01*
X159419500Y-87412144D01*
X160373322Y-86458322D01*
X160607328Y-86108107D01*
X160689500Y-85695000D01*
X160689500Y-84529241D01*
X160880000Y-84567134D01*
X161295212Y-84484543D01*
X161647211Y-84249345D01*
X161882409Y-83897346D01*
X161965000Y-83482134D01*
X161965000Y-82827866D01*
X161882409Y-82412654D01*
X161843886Y-82355000D01*
X163877560Y-82355000D01*
X163877560Y-83955000D01*
X163921838Y-84190317D01*
X164060910Y-84406441D01*
X164273110Y-84551431D01*
X164525000Y-84602440D01*
X166125000Y-84602440D01*
X166360317Y-84558162D01*
X166576441Y-84419090D01*
X166721431Y-84206890D01*
X166730370Y-84162745D01*
X166996861Y-84162745D01*
X167070995Y-84408864D01*
X167608223Y-84601965D01*
X168178454Y-84574778D01*
X168579005Y-84408864D01*
X168653139Y-84162745D01*
X167825000Y-83334605D01*
X166996861Y-84162745D01*
X166730370Y-84162745D01*
X166769646Y-83968799D01*
X166817255Y-83983139D01*
X167645395Y-83155000D01*
X168004605Y-83155000D01*
X168832745Y-83983139D01*
X169078864Y-83909005D01*
X169271965Y-83371777D01*
X169244778Y-82801546D01*
X169078864Y-82400995D01*
X168832745Y-82326861D01*
X168004605Y-83155000D01*
X167645395Y-83155000D01*
X166817255Y-82326861D01*
X166769833Y-82341145D01*
X166733351Y-82147255D01*
X166996861Y-82147255D01*
X167825000Y-82975395D01*
X168653139Y-82147255D01*
X168579005Y-81901136D01*
X168041777Y-81708035D01*
X167471546Y-81735222D01*
X167070995Y-81901136D01*
X166996861Y-82147255D01*
X166733351Y-82147255D01*
X166728162Y-82119683D01*
X166589090Y-81903559D01*
X166376890Y-81758569D01*
X166125000Y-81707560D01*
X164525000Y-81707560D01*
X164289683Y-81751838D01*
X164073559Y-81890910D01*
X163928569Y-82103110D01*
X163877560Y-82355000D01*
X161843886Y-82355000D01*
X161647211Y-82060655D01*
X161295212Y-81825457D01*
X160880000Y-81742866D01*
X160464788Y-81825457D01*
X160245000Y-81972315D01*
X160025212Y-81825457D01*
X159610000Y-81742866D01*
X159419500Y-81780759D01*
X159419500Y-79958000D01*
X172540560Y-79958000D01*
X172540560Y-83558000D01*
X172584838Y-83793317D01*
X172723910Y-84009441D01*
X172936110Y-84154431D01*
X173188000Y-84205440D01*
X174988000Y-84205440D01*
X175223317Y-84161162D01*
X175439441Y-84022090D01*
X175584431Y-83809890D01*
X175635440Y-83558000D01*
X175635440Y-80810296D01*
X176053000Y-80810296D01*
X176053000Y-82705704D01*
X176169845Y-83293123D01*
X176502591Y-83791113D01*
X177000581Y-84123859D01*
X177588000Y-84240704D01*
X178175419Y-84123859D01*
X178673409Y-83791113D01*
X179006155Y-83293123D01*
X179123000Y-82705704D01*
X179123000Y-80810296D01*
X179553000Y-80810296D01*
X179553000Y-82705704D01*
X179669845Y-83293123D01*
X180002591Y-83791113D01*
X180500581Y-84123859D01*
X181088000Y-84240704D01*
X181675419Y-84123859D01*
X182173409Y-83791113D01*
X182506155Y-83293123D01*
X182623000Y-82705704D01*
X182623000Y-80810296D01*
X183053000Y-80810296D01*
X183053000Y-82705704D01*
X183169845Y-83293123D01*
X183502591Y-83791113D01*
X184000581Y-84123859D01*
X184588000Y-84240704D01*
X185175419Y-84123859D01*
X185673409Y-83791113D01*
X186006155Y-83293123D01*
X186123000Y-82705704D01*
X186123000Y-80810296D01*
X186553000Y-80810296D01*
X186553000Y-82705704D01*
X186669845Y-83293123D01*
X187002591Y-83791113D01*
X187500581Y-84123859D01*
X188088000Y-84240704D01*
X188675419Y-84123859D01*
X189173409Y-83791113D01*
X189506155Y-83293123D01*
X189623000Y-82705704D01*
X189623000Y-80810296D01*
X190053000Y-80810296D01*
X190053000Y-82705704D01*
X190169845Y-83293123D01*
X190502591Y-83791113D01*
X191000581Y-84123859D01*
X191588000Y-84240704D01*
X192175419Y-84123859D01*
X192673409Y-83791113D01*
X193006155Y-83293123D01*
X193123000Y-82705704D01*
X193123000Y-80810296D01*
X193553000Y-80810296D01*
X193553000Y-82705704D01*
X193669845Y-83293123D01*
X194002591Y-83791113D01*
X194500581Y-84123859D01*
X195088000Y-84240704D01*
X195675419Y-84123859D01*
X196173409Y-83791113D01*
X196506155Y-83293123D01*
X196623000Y-82705704D01*
X196623000Y-80810296D01*
X197053000Y-80810296D01*
X197053000Y-82705704D01*
X197169845Y-83293123D01*
X197502591Y-83791113D01*
X198000581Y-84123859D01*
X198588000Y-84240704D01*
X199175419Y-84123859D01*
X199673409Y-83791113D01*
X200006155Y-83293123D01*
X200123000Y-82705704D01*
X200123000Y-82009482D01*
X202129336Y-82009482D01*
X202711950Y-83419515D01*
X203789811Y-84499259D01*
X205198825Y-85084333D01*
X206724482Y-85085664D01*
X208134515Y-84503050D01*
X209214259Y-83425189D01*
X209799333Y-82016175D01*
X209800664Y-80490518D01*
X209218050Y-79080485D01*
X208140189Y-78000741D01*
X206731175Y-77415667D01*
X205205518Y-77414336D01*
X203795485Y-77996950D01*
X202715741Y-79074811D01*
X202130667Y-80483825D01*
X202129336Y-82009482D01*
X200123000Y-82009482D01*
X200123000Y-80810296D01*
X200006155Y-80222877D01*
X199673409Y-79724887D01*
X199175419Y-79392141D01*
X198588000Y-79275296D01*
X198000581Y-79392141D01*
X197502591Y-79724887D01*
X197169845Y-80222877D01*
X197053000Y-80810296D01*
X196623000Y-80810296D01*
X196506155Y-80222877D01*
X196173409Y-79724887D01*
X195675419Y-79392141D01*
X195088000Y-79275296D01*
X194500581Y-79392141D01*
X194002591Y-79724887D01*
X193669845Y-80222877D01*
X193553000Y-80810296D01*
X193123000Y-80810296D01*
X193006155Y-80222877D01*
X192673409Y-79724887D01*
X192175419Y-79392141D01*
X191588000Y-79275296D01*
X191000581Y-79392141D01*
X190502591Y-79724887D01*
X190169845Y-80222877D01*
X190053000Y-80810296D01*
X189623000Y-80810296D01*
X189506155Y-80222877D01*
X189173409Y-79724887D01*
X188675419Y-79392141D01*
X188088000Y-79275296D01*
X187500581Y-79392141D01*
X187002591Y-79724887D01*
X186669845Y-80222877D01*
X186553000Y-80810296D01*
X186123000Y-80810296D01*
X186006155Y-80222877D01*
X185673409Y-79724887D01*
X185175419Y-79392141D01*
X184588000Y-79275296D01*
X184000581Y-79392141D01*
X183502591Y-79724887D01*
X183169845Y-80222877D01*
X183053000Y-80810296D01*
X182623000Y-80810296D01*
X182506155Y-80222877D01*
X182173409Y-79724887D01*
X181675419Y-79392141D01*
X181088000Y-79275296D01*
X180500581Y-79392141D01*
X180002591Y-79724887D01*
X179669845Y-80222877D01*
X179553000Y-80810296D01*
X179123000Y-80810296D01*
X179006155Y-80222877D01*
X178673409Y-79724887D01*
X178175419Y-79392141D01*
X177588000Y-79275296D01*
X177000581Y-79392141D01*
X176502591Y-79724887D01*
X176169845Y-80222877D01*
X176053000Y-80810296D01*
X175635440Y-80810296D01*
X175635440Y-79958000D01*
X175591162Y-79722683D01*
X175452090Y-79506559D01*
X175239890Y-79361569D01*
X174988000Y-79310560D01*
X173188000Y-79310560D01*
X172952683Y-79354838D01*
X172736559Y-79493910D01*
X172591569Y-79706110D01*
X172540560Y-79958000D01*
X159419500Y-79958000D01*
X159419500Y-79472000D01*
X159337328Y-79058893D01*
X159103322Y-78708678D01*
X157769822Y-77375178D01*
X157419607Y-77141172D01*
X157006500Y-77059000D01*
X152309236Y-77059000D01*
X151990000Y-76995500D01*
X144370000Y-76995500D01*
X143956893Y-77077672D01*
X143606678Y-77311678D01*
X139477856Y-81440500D01*
X136959000Y-81440500D01*
X136959000Y-81318296D01*
X136842155Y-80730877D01*
X136509409Y-80232887D01*
X136011419Y-79900141D01*
X135424000Y-79783296D01*
X134836581Y-79900141D01*
X134338591Y-80232887D01*
X134005845Y-80730877D01*
X133889000Y-81318296D01*
X133459000Y-81318296D01*
X133459000Y-80339690D01*
X133362327Y-80106301D01*
X133183698Y-79927673D01*
X132950309Y-79831000D01*
X132209750Y-79831000D01*
X132051000Y-79989750D01*
X131797000Y-79989750D01*
X131638250Y-79831000D01*
X130897691Y-79831000D01*
X130664302Y-79927673D01*
X130485673Y-80106301D01*
X130389000Y-80339690D01*
X125918344Y-80339690D01*
X125398050Y-79080485D01*
X124320189Y-78000741D01*
X122911175Y-77415667D01*
X121385518Y-77414336D01*
X119975485Y-77996950D01*
X118895741Y-79074811D01*
X118310667Y-80483825D01*
X118309336Y-82009482D01*
X117573000Y-82009482D01*
X117573000Y-76043000D01*
X210283000Y-76043000D01*
X210283000Y-126081000D01*
M02*
