G04 #@! TF.FileFunction,Soldermask,Top*
%FSLAX46Y46*%
G04 Gerber Fmt 4.6, Leading zero omitted, Abs format (unit mm)*
G04 Created by KiCad (PCBNEW 4.0.7) date Monday, January 15, 2018 'AMt' 07:35:06 AM*
%MOMM*%
%LPD*%
G01*
G04 APERTURE LIST*
%ADD10C,0.100000*%
%ADD11C,6.400000*%
%ADD12R,1.250000X1.500000*%
%ADD13O,0.900000X1.500000*%
%ADD14R,0.900000X1.500000*%
%ADD15R,1.300000X1.500000*%
%ADD16R,1.500000X1.300000*%
%ADD17R,1.600000X1.600000*%
%ADD18O,1.600000X1.600000*%
%ADD19C,1.600000*%
%ADD20R,1.800000X1.800000*%
%ADD21O,1.800000X1.800000*%
%ADD22R,3.600000X1.800000*%
%ADD23O,3.600000X1.800000*%
%ADD24R,1.800000X3.600000*%
%ADD25O,1.800000X3.600000*%
G04 APERTURE END LIST*
D10*
D11*
X122145000Y-121255000D03*
X122145000Y-81250000D03*
X205965000Y-121255000D03*
D12*
X198853000Y-105400000D03*
X198853000Y-107900000D03*
X181327000Y-105400000D03*
X181327000Y-107900000D03*
X164182000Y-105400000D03*
X164182000Y-107900000D03*
X146656000Y-105400000D03*
X146656000Y-107900000D03*
X141195000Y-81270000D03*
X141195000Y-83770000D03*
X141195000Y-88850000D03*
X141195000Y-86350000D03*
D13*
X159610000Y-83155000D03*
X160880000Y-83155000D03*
D14*
X158340000Y-83155000D03*
D15*
X155165000Y-88155000D03*
X155165000Y-90855000D03*
D16*
X192710000Y-101570000D03*
X190010000Y-101570000D03*
X175057000Y-101570000D03*
X172357000Y-101570000D03*
X157912000Y-101570000D03*
X155212000Y-101570000D03*
X140386000Y-101570000D03*
X137686000Y-101570000D03*
D17*
X187423000Y-105380000D03*
D18*
X195043000Y-113000000D03*
X187423000Y-107920000D03*
X195043000Y-110460000D03*
X187423000Y-110460000D03*
X195043000Y-107920000D03*
X187423000Y-113000000D03*
X195043000Y-105380000D03*
D17*
X169897000Y-105380000D03*
D18*
X177517000Y-113000000D03*
X169897000Y-107920000D03*
X177517000Y-110460000D03*
X169897000Y-110460000D03*
X177517000Y-107920000D03*
X169897000Y-113000000D03*
X177517000Y-105380000D03*
D17*
X152752000Y-105380000D03*
D18*
X160372000Y-113000000D03*
X152752000Y-107920000D03*
X160372000Y-110460000D03*
X152752000Y-110460000D03*
X160372000Y-107920000D03*
X152752000Y-113000000D03*
X160372000Y-105380000D03*
D17*
X135226000Y-105380000D03*
D18*
X142846000Y-113000000D03*
X135226000Y-107920000D03*
X142846000Y-110460000D03*
X135226000Y-110460000D03*
X142846000Y-107920000D03*
X135226000Y-113000000D03*
X142846000Y-105380000D03*
D13*
X159610000Y-90140000D03*
X160880000Y-90140000D03*
D14*
X158340000Y-90140000D03*
D17*
X165325000Y-83155000D03*
D19*
X167825000Y-83155000D03*
D17*
X153895000Y-83155000D03*
D19*
X151395000Y-83155000D03*
D16*
X164610000Y-88870000D03*
X167310000Y-88870000D03*
X167310000Y-92045000D03*
X164610000Y-92045000D03*
X143655000Y-92045000D03*
X146355000Y-92045000D03*
D15*
X149450000Y-90855000D03*
X149450000Y-88155000D03*
D20*
X145005000Y-82520000D03*
D21*
X145005000Y-85060000D03*
X145005000Y-87600000D03*
D11*
X205965000Y-81250000D03*
D22*
X122272000Y-111222000D03*
D23*
X122272000Y-107722000D03*
X122272000Y-104222000D03*
D22*
X122780000Y-97506000D03*
D23*
X122780000Y-94006000D03*
X122780000Y-90506000D03*
D24*
X174088000Y-81758000D03*
D25*
X177588000Y-81758000D03*
X181088000Y-81758000D03*
X184588000Y-81758000D03*
X188088000Y-81758000D03*
X191588000Y-81758000D03*
X195088000Y-81758000D03*
X198588000Y-81758000D03*
D24*
X196440000Y-120366000D03*
D25*
X192940000Y-120366000D03*
X189440000Y-120366000D03*
X185940000Y-120366000D03*
D24*
X179676000Y-120366000D03*
D25*
X176176000Y-120366000D03*
X172676000Y-120366000D03*
X169176000Y-120366000D03*
D24*
X162404000Y-120366000D03*
D25*
X158904000Y-120366000D03*
X155404000Y-120366000D03*
X151904000Y-120366000D03*
D24*
X144116000Y-120366000D03*
D25*
X140616000Y-120366000D03*
X137116000Y-120366000D03*
X133616000Y-120366000D03*
D24*
X131924000Y-82266000D03*
D25*
X135424000Y-82266000D03*
M02*
