G04 #@! TF.FileFunction,Copper,L1,Top,Signal*
%FSLAX46Y46*%
G04 Gerber Fmt 4.6, Leading zero omitted, Abs format (unit mm)*
G04 Created by KiCad (PCBNEW 4.0.7) date Monday, January 15, 2018 'AMt' 07:35:06 AM*
%MOMM*%
%LPD*%
G01*
G04 APERTURE LIST*
%ADD10C,0.100000*%
%ADD11C,6.400000*%
%ADD12R,1.250000X1.500000*%
%ADD13O,0.900000X1.500000*%
%ADD14R,0.900000X1.500000*%
%ADD15R,1.300000X1.500000*%
%ADD16R,1.500000X1.300000*%
%ADD17R,1.600000X1.600000*%
%ADD18O,1.600000X1.600000*%
%ADD19C,1.600000*%
%ADD20R,1.800000X1.800000*%
%ADD21O,1.800000X1.800000*%
%ADD22R,3.600000X1.800000*%
%ADD23O,3.600000X1.800000*%
%ADD24R,1.800000X3.600000*%
%ADD25O,1.800000X3.600000*%
%ADD26C,0.600000*%
%ADD27C,0.889000*%
%ADD28C,0.635000*%
%ADD29C,0.508000*%
G04 APERTURE END LIST*
D10*
D11*
X122145000Y-121255000D03*
X122145000Y-81250000D03*
X205965000Y-121255000D03*
D12*
X198853000Y-105400000D03*
X198853000Y-107900000D03*
X181327000Y-105400000D03*
X181327000Y-107900000D03*
X164182000Y-105400000D03*
X164182000Y-107900000D03*
X146656000Y-105400000D03*
X146656000Y-107900000D03*
X141195000Y-81270000D03*
X141195000Y-83770000D03*
X141195000Y-88850000D03*
X141195000Y-86350000D03*
D13*
X159610000Y-83155000D03*
X160880000Y-83155000D03*
D14*
X158340000Y-83155000D03*
D15*
X155165000Y-88155000D03*
X155165000Y-90855000D03*
D16*
X192710000Y-101570000D03*
X190010000Y-101570000D03*
X175057000Y-101570000D03*
X172357000Y-101570000D03*
X157912000Y-101570000D03*
X155212000Y-101570000D03*
X140386000Y-101570000D03*
X137686000Y-101570000D03*
D17*
X187423000Y-105380000D03*
D18*
X195043000Y-113000000D03*
X187423000Y-107920000D03*
X195043000Y-110460000D03*
X187423000Y-110460000D03*
X195043000Y-107920000D03*
X187423000Y-113000000D03*
X195043000Y-105380000D03*
D17*
X169897000Y-105380000D03*
D18*
X177517000Y-113000000D03*
X169897000Y-107920000D03*
X177517000Y-110460000D03*
X169897000Y-110460000D03*
X177517000Y-107920000D03*
X169897000Y-113000000D03*
X177517000Y-105380000D03*
D17*
X152752000Y-105380000D03*
D18*
X160372000Y-113000000D03*
X152752000Y-107920000D03*
X160372000Y-110460000D03*
X152752000Y-110460000D03*
X160372000Y-107920000D03*
X152752000Y-113000000D03*
X160372000Y-105380000D03*
D17*
X135226000Y-105380000D03*
D18*
X142846000Y-113000000D03*
X135226000Y-107920000D03*
X142846000Y-110460000D03*
X135226000Y-110460000D03*
X142846000Y-107920000D03*
X135226000Y-113000000D03*
X142846000Y-105380000D03*
D13*
X159610000Y-90140000D03*
X160880000Y-90140000D03*
D14*
X158340000Y-90140000D03*
D17*
X165325000Y-83155000D03*
D19*
X167825000Y-83155000D03*
D17*
X153895000Y-83155000D03*
D19*
X151395000Y-83155000D03*
D16*
X164610000Y-88870000D03*
X167310000Y-88870000D03*
X167310000Y-92045000D03*
X164610000Y-92045000D03*
X143655000Y-92045000D03*
X146355000Y-92045000D03*
D15*
X149450000Y-90855000D03*
X149450000Y-88155000D03*
D20*
X145005000Y-82520000D03*
D21*
X145005000Y-85060000D03*
X145005000Y-87600000D03*
D11*
X205965000Y-81250000D03*
D22*
X122272000Y-111222000D03*
D23*
X122272000Y-107722000D03*
X122272000Y-104222000D03*
D22*
X122780000Y-97506000D03*
D23*
X122780000Y-94006000D03*
X122780000Y-90506000D03*
D24*
X174088000Y-81758000D03*
D25*
X177588000Y-81758000D03*
X181088000Y-81758000D03*
X184588000Y-81758000D03*
X188088000Y-81758000D03*
X191588000Y-81758000D03*
X195088000Y-81758000D03*
X198588000Y-81758000D03*
D24*
X196440000Y-120366000D03*
D25*
X192940000Y-120366000D03*
X189440000Y-120366000D03*
X185940000Y-120366000D03*
D24*
X179676000Y-120366000D03*
D25*
X176176000Y-120366000D03*
X172676000Y-120366000D03*
X169176000Y-120366000D03*
D24*
X162404000Y-120366000D03*
D25*
X158904000Y-120366000D03*
X155404000Y-120366000D03*
X151904000Y-120366000D03*
D24*
X144116000Y-120366000D03*
D25*
X140616000Y-120366000D03*
X137116000Y-120366000D03*
X133616000Y-120366000D03*
D24*
X131924000Y-82266000D03*
D25*
X135424000Y-82266000D03*
D26*
X139544000Y-85568000D03*
X162150000Y-92680000D03*
X149958000Y-86076000D03*
X197710000Y-102840000D03*
X180438000Y-102840000D03*
X145386000Y-102840000D03*
X163166000Y-102840000D03*
D27*
X164610000Y-88870000D02*
X164610000Y-87266000D01*
X163420000Y-86076000D02*
X160880000Y-86076000D01*
X164610000Y-87266000D02*
X163420000Y-86076000D01*
X160880000Y-83155000D02*
X165325000Y-83155000D01*
X160880000Y-83155000D02*
X160880000Y-86076000D01*
X160880000Y-86076000D02*
X160880000Y-86330000D01*
X159610000Y-87600000D02*
X159610000Y-90140000D01*
X160880000Y-86330000D02*
X159610000Y-87600000D01*
D28*
X164182000Y-107900000D02*
X164710000Y-107900000D01*
X195043000Y-107920000D02*
X198833000Y-107920000D01*
X198833000Y-107920000D02*
X198853000Y-107900000D01*
X177517000Y-107920000D02*
X181307000Y-107920000D01*
X181307000Y-107920000D02*
X181327000Y-107900000D01*
X160372000Y-107920000D02*
X164162000Y-107920000D01*
X164162000Y-107920000D02*
X164182000Y-107900000D01*
X142846000Y-107920000D02*
X146636000Y-107920000D01*
X146636000Y-107920000D02*
X146656000Y-107900000D01*
D29*
X141195000Y-83770000D02*
X141195000Y-83917000D01*
X141195000Y-83917000D02*
X139544000Y-85568000D01*
X141195000Y-83770000D02*
X141195000Y-86350000D01*
X164610000Y-92045000D02*
X162785000Y-92045000D01*
X162785000Y-92045000D02*
X162150000Y-92680000D01*
X149450000Y-88155000D02*
X149450000Y-86584000D01*
X149450000Y-86584000D02*
X149958000Y-86076000D01*
X198853000Y-105400000D02*
X198746000Y-105400000D01*
X198746000Y-105400000D02*
X197710000Y-104364000D01*
X197710000Y-104364000D02*
X197710000Y-102840000D01*
X181327000Y-105400000D02*
X181327000Y-105253000D01*
X181327000Y-105253000D02*
X180438000Y-104364000D01*
X180438000Y-104364000D02*
X180438000Y-102840000D01*
X146656000Y-105400000D02*
X146422000Y-105400000D01*
X146422000Y-105400000D02*
X145386000Y-104364000D01*
X145386000Y-104364000D02*
X145386000Y-102840000D01*
X164182000Y-105400000D02*
X164182000Y-105380000D01*
X164182000Y-105380000D02*
X163166000Y-104364000D01*
X163166000Y-104364000D02*
X163166000Y-102840000D01*
D27*
X153895000Y-83155000D02*
X153895000Y-85695000D01*
X155165000Y-86965000D02*
X155165000Y-88155000D01*
X153895000Y-85695000D02*
X155165000Y-86965000D01*
X141195000Y-81270000D02*
X143755000Y-81270000D01*
X143755000Y-81270000D02*
X145005000Y-82520000D01*
X143735000Y-88870000D02*
X141215000Y-88870000D01*
X141215000Y-88870000D02*
X141195000Y-88850000D01*
X145005000Y-87600000D02*
X143735000Y-88870000D01*
X143735000Y-88870000D02*
X143735000Y-91965000D01*
X143735000Y-91965000D02*
X143655000Y-92045000D01*
D28*
X184588000Y-81758000D02*
X184588000Y-93610000D01*
X128876000Y-111222000D02*
X122272000Y-111222000D01*
X132432000Y-107666000D02*
X128876000Y-111222000D01*
X132432000Y-101062000D02*
X132432000Y-107666000D01*
X137004000Y-96490000D02*
X132432000Y-101062000D01*
X181708000Y-96490000D02*
X137004000Y-96490000D01*
X184588000Y-93610000D02*
X181708000Y-96490000D01*
X181088000Y-81758000D02*
X181088000Y-91776000D01*
X133448000Y-97506000D02*
X122780000Y-97506000D01*
X135734000Y-95220000D02*
X133448000Y-97506000D01*
X177644000Y-95220000D02*
X135734000Y-95220000D01*
X181088000Y-91776000D02*
X177644000Y-95220000D01*
X198345000Y-82001000D02*
X198345000Y-100935000D01*
X198345000Y-100935000D02*
X202155000Y-104745000D01*
X202155000Y-104745000D02*
X202155000Y-108555000D01*
X202155000Y-108555000D02*
X200250000Y-110460000D01*
X200250000Y-110460000D02*
X195043000Y-110460000D01*
X198345000Y-82001000D02*
X198588000Y-81758000D01*
X194845000Y-82001000D02*
X194845000Y-96180000D01*
X194845000Y-96180000D02*
X192630000Y-98395000D01*
X192630000Y-98395000D02*
X187550000Y-98395000D01*
X187550000Y-98395000D02*
X184375000Y-101570000D01*
X184375000Y-101570000D02*
X184375000Y-107920000D01*
X184375000Y-107920000D02*
X181835000Y-110460000D01*
X181835000Y-110460000D02*
X177517000Y-110460000D01*
X194845000Y-82001000D02*
X195088000Y-81758000D01*
X191281500Y-95903500D02*
X191281500Y-82064500D01*
X191281500Y-82064500D02*
X191588000Y-81758000D01*
X164690000Y-110460000D02*
X160372000Y-110460000D01*
X167230000Y-107920000D02*
X164690000Y-110460000D01*
X167230000Y-101570000D02*
X167230000Y-107920000D01*
X169770000Y-99030000D02*
X167230000Y-101570000D01*
X184375000Y-99030000D02*
X169770000Y-99030000D01*
X186310000Y-97095000D02*
X184375000Y-99030000D01*
X190090000Y-97095000D02*
X186310000Y-97095000D01*
X191345000Y-95840000D02*
X191281500Y-95903500D01*
X191281500Y-95903500D02*
X190090000Y-97095000D01*
X187740500Y-94394500D02*
X187740500Y-82105500D01*
X187740500Y-82105500D02*
X188088000Y-81758000D01*
X147545000Y-110460000D02*
X142846000Y-110460000D01*
X150085000Y-107920000D02*
X147545000Y-110460000D01*
X150085000Y-101570000D02*
X150085000Y-107920000D01*
X153895000Y-97760000D02*
X150085000Y-101570000D01*
X183105000Y-97760000D02*
X153895000Y-97760000D01*
X185645000Y-95220000D02*
X183105000Y-97760000D01*
X186915000Y-95220000D02*
X185645000Y-95220000D01*
X187845000Y-94290000D02*
X187740500Y-94394500D01*
X187740500Y-94394500D02*
X186915000Y-95220000D01*
X192710000Y-101570000D02*
X193900000Y-101570000D01*
X195043000Y-102713000D02*
X195043000Y-105380000D01*
X193900000Y-101570000D02*
X195043000Y-102713000D01*
X190010000Y-101570000D02*
X188820000Y-101570000D01*
X187423000Y-102967000D02*
X187423000Y-105380000D01*
X188820000Y-101570000D02*
X187423000Y-102967000D01*
X175057000Y-101570000D02*
X176755000Y-101570000D01*
X177517000Y-102332000D02*
X177517000Y-105380000D01*
X176755000Y-101570000D02*
X177517000Y-102332000D01*
X172357000Y-101570000D02*
X171040000Y-101570000D01*
X169897000Y-102713000D02*
X169897000Y-105380000D01*
X171040000Y-101570000D02*
X169897000Y-102713000D01*
X157912000Y-101570000D02*
X159610000Y-101570000D01*
X160372000Y-102332000D02*
X160372000Y-105380000D01*
X159610000Y-101570000D02*
X160372000Y-102332000D01*
X155212000Y-101570000D02*
X153895000Y-101570000D01*
X152752000Y-102713000D02*
X152752000Y-105380000D01*
X153895000Y-101570000D02*
X152752000Y-102713000D01*
X140386000Y-101570000D02*
X141830000Y-101570000D01*
X142846000Y-102586000D02*
X142846000Y-105380000D01*
X141830000Y-101570000D02*
X142846000Y-102586000D01*
X137686000Y-101570000D02*
X136115000Y-101570000D01*
X135226000Y-102459000D02*
X135226000Y-105380000D01*
X136115000Y-101570000D02*
X135226000Y-102459000D01*
D27*
X155165000Y-90855000D02*
X155165000Y-92045000D01*
X155165000Y-92045000D02*
X155800000Y-92680000D01*
X155800000Y-92680000D02*
X157705000Y-92680000D01*
X157705000Y-92680000D02*
X158340000Y-92045000D01*
X158340000Y-92045000D02*
X158340000Y-90140000D01*
D28*
X155165000Y-90855000D02*
X155165000Y-91410000D01*
X185010000Y-111730000D02*
X185010000Y-114016000D01*
X186280000Y-110460000D02*
X185010000Y-111730000D01*
X187423000Y-110460000D02*
X186280000Y-110460000D01*
X189440000Y-118446000D02*
X189440000Y-120366000D01*
X185010000Y-114016000D02*
X189440000Y-118446000D01*
X183740000Y-111095000D02*
X183740000Y-114778000D01*
X186915000Y-107920000D02*
X183740000Y-111095000D01*
X185940000Y-116978000D02*
X185940000Y-120366000D01*
X183740000Y-114778000D02*
X185940000Y-116978000D01*
X186915000Y-107920000D02*
X187423000Y-107920000D01*
X167928500Y-111666500D02*
X167928500Y-114206500D01*
X167928500Y-114206500D02*
X172676000Y-118954000D01*
X172676000Y-118954000D02*
X172676000Y-120366000D01*
X169897000Y-110460000D02*
X169135000Y-110460000D01*
X169135000Y-110460000D02*
X167928500Y-111666500D01*
X167928500Y-111666500D02*
X167865000Y-111730000D01*
X166595000Y-111095000D02*
X166595000Y-114905000D01*
X169770000Y-107920000D02*
X166595000Y-111095000D01*
X169176000Y-117486000D02*
X169176000Y-120366000D01*
X166595000Y-114905000D02*
X169176000Y-117486000D01*
X169770000Y-107920000D02*
X169897000Y-107920000D01*
X150720000Y-111730000D02*
X150720000Y-114270000D01*
X151990000Y-110460000D02*
X150720000Y-111730000D01*
X150720000Y-114270000D02*
X155404000Y-118954000D01*
X155404000Y-118954000D02*
X155404000Y-120366000D01*
X152752000Y-110460000D02*
X151990000Y-110460000D01*
X149450000Y-111095000D02*
X149450000Y-115032000D01*
X152625000Y-107920000D02*
X149450000Y-111095000D01*
X151904000Y-117486000D02*
X151904000Y-120366000D01*
X149450000Y-115032000D02*
X151904000Y-117486000D01*
X152625000Y-107920000D02*
X152752000Y-107920000D01*
X132940000Y-111730000D02*
X132940000Y-114270000D01*
X134210000Y-110460000D02*
X132940000Y-111730000D01*
X135226000Y-110460000D02*
X134210000Y-110460000D01*
X137004000Y-118334000D02*
X137004000Y-120254000D01*
X132940000Y-114270000D02*
X137004000Y-118334000D01*
X137004000Y-120254000D02*
X137116000Y-120366000D01*
X131670000Y-111095000D02*
X131670000Y-115032000D01*
X134845000Y-107920000D02*
X131670000Y-111095000D01*
X133448000Y-116810000D02*
X133448000Y-120198000D01*
X131670000Y-115032000D02*
X133448000Y-116810000D01*
X133448000Y-120198000D02*
X133616000Y-120366000D01*
X134845000Y-107920000D02*
X135226000Y-107920000D01*
X173707000Y-87473000D02*
X173707000Y-82139000D01*
X173707000Y-82139000D02*
X174088000Y-81758000D01*
X167310000Y-88870000D02*
X167310000Y-92045000D01*
X167310000Y-88870000D02*
X172310000Y-88870000D01*
X172310000Y-88870000D02*
X173707000Y-87473000D01*
X173707000Y-87473000D02*
X173845000Y-87335000D01*
X177281500Y-92063500D02*
X177281500Y-82064500D01*
X177281500Y-82064500D02*
X177588000Y-81758000D01*
X146355000Y-92045000D02*
X148260000Y-92045000D01*
X148260000Y-92045000D02*
X149450000Y-90855000D01*
X149450000Y-92680000D02*
X150720000Y-93950000D01*
X149450000Y-92680000D02*
X149450000Y-90855000D01*
X150630000Y-93860000D02*
X150720000Y-93950000D01*
X175485000Y-93860000D02*
X150630000Y-93860000D01*
X177345000Y-92000000D02*
X177281500Y-92063500D01*
X177281500Y-92063500D02*
X175485000Y-93860000D01*
M02*
