M48
INCH,TZ
T1C0.016
T2C0.024
T3C0.031
T4C0.039
T5C0.047
T6C0.126
%
G90
G05
T1
X50639Y-40038
X55939Y-40388
X60139Y-38188
X61739Y-40388
X65739Y-38588
X67939Y-40388
X71339Y-38588
X74139Y-40388
X77139Y-38588
X80539Y-40388
T2
X62339Y-32738
X62339Y-35488
X62839Y-32738
X62839Y-35488
X63339Y-32738
X63339Y-35488
T3
X51789Y-41188
X51789Y-42188
X51789Y-43188
X51789Y-44188
X54789Y-41188
X54789Y-42188
X54789Y-43188
X54789Y-44188
X57489Y-41188
X57489Y-42188
X57489Y-43188
X57489Y-44188
X59604Y-32738
X60489Y-41188
X60489Y-42188
X60489Y-43188
X60489Y-44188
X60589Y-32738
X63639Y-41188
X63639Y-42188
X63639Y-43188
X63639Y-44188
X65089Y-32738
X66073Y-32738
X66639Y-41188
X66639Y-42188
X66639Y-43188
X66639Y-44188
X69889Y-41188
X69889Y-42188
X69889Y-43188
X69889Y-44188
X72889Y-41188
X72889Y-42188
X72889Y-43188
X72889Y-44188
X76139Y-41188
X76139Y-42188
X76139Y-43188
X76139Y-44188
X79139Y-41188
X79139Y-42188
X79139Y-43188
X79139Y-44188
T4
X57089Y-32488
X57089Y-33488
X57089Y-34488
T5
X48139Y-35632
X48139Y-37010
X48139Y-38388
X48139Y-41032
X48139Y-42410
X48139Y-43788
X51539Y-32388
X52605Y-47388
X52917Y-32388
X53983Y-47388
X55361Y-47388
X56739Y-47388
X59805Y-47388
X61183Y-47388
X62561Y-47388
X63939Y-47388
X66605Y-47388
X67983Y-47388
X68339Y-32188
X69361Y-47388
X69717Y-32188
X70739Y-47388
X71094Y-32188
X72472Y-32188
X73205Y-47388
X73850Y-32188
X74583Y-47388
X75228Y-32188
X75961Y-47388
X76606Y-32188
X77339Y-47388
X77984Y-32188
T6
X48089Y-31988
X48089Y-47738
X81089Y-31988
X81089Y-47738
T0
M30
