G04 #@! TF.FileFunction,Copper,L2,Bot,Signal*
%FSLAX46Y46*%
G04 Gerber Fmt 4.6, Leading zero omitted, Abs format (unit mm)*
G04 Created by KiCad (PCBNEW 4.0.7) date Tuesday, April 10, 2018 'PMt' 09:17:44 PM*
%MOMM*%
%LPD*%
G01*
G04 APERTURE LIST*
%ADD10C,0.100000*%
%ADD11O,0.900000X1.500000*%
%ADD12R,0.900000X1.500000*%
%ADD13R,1.600000X1.600000*%
%ADD14O,1.600000X1.600000*%
%ADD15C,1.600000*%
%ADD16R,1.800000X1.800000*%
%ADD17O,1.800000X1.800000*%
%ADD18R,3.600000X1.800000*%
%ADD19O,3.600000X1.800000*%
%ADD20R,1.800000X3.600000*%
%ADD21O,1.800000X3.600000*%
%ADD22C,6.400000*%
%ADD23C,0.600000*%
%ADD24C,0.508000*%
%ADD25C,0.381000*%
%ADD26C,0.254000*%
G04 APERTURE END LIST*
D10*
X115160000Y-128240000D02*
X115160000Y-73630000D01*
X212950000Y-128240000D02*
X115160000Y-128240000D01*
X212950000Y-73630000D02*
X212950000Y-128240000D01*
X115160000Y-73630000D02*
X212950000Y-73630000D01*
D11*
X159610000Y-83155000D03*
X160880000Y-83155000D03*
D12*
X158340000Y-83155000D03*
D13*
X193392000Y-104618000D03*
D14*
X201012000Y-112238000D03*
X193392000Y-107158000D03*
X201012000Y-109698000D03*
X193392000Y-109698000D03*
X201012000Y-107158000D03*
X193392000Y-112238000D03*
X201012000Y-104618000D03*
D13*
X177517000Y-104618000D03*
D14*
X185137000Y-112238000D03*
X177517000Y-107158000D03*
X185137000Y-109698000D03*
X177517000Y-109698000D03*
X185137000Y-107158000D03*
X177517000Y-112238000D03*
X185137000Y-104618000D03*
D13*
X161642000Y-104618000D03*
D14*
X169262000Y-112238000D03*
X161642000Y-107158000D03*
X169262000Y-109698000D03*
X161642000Y-109698000D03*
X169262000Y-107158000D03*
X161642000Y-112238000D03*
X169262000Y-104618000D03*
D13*
X146021000Y-104618000D03*
D14*
X153641000Y-112238000D03*
X146021000Y-107158000D03*
X153641000Y-109698000D03*
X146021000Y-109698000D03*
X153641000Y-107158000D03*
X146021000Y-112238000D03*
X153641000Y-104618000D03*
D11*
X159610000Y-90140000D03*
X160880000Y-90140000D03*
D12*
X158340000Y-90140000D03*
D13*
X165325000Y-83155000D03*
D15*
X167825000Y-83155000D03*
D13*
X153895000Y-83155000D03*
D15*
X151395000Y-83155000D03*
D16*
X145005000Y-82520000D03*
D17*
X145005000Y-85060000D03*
X145005000Y-87600000D03*
D18*
X122272000Y-111222000D03*
D19*
X122272000Y-107722000D03*
X122272000Y-104222000D03*
D18*
X122272000Y-97506000D03*
D19*
X122272000Y-94006000D03*
X122272000Y-90506000D03*
D20*
X173580000Y-81758000D03*
D21*
X177080000Y-81758000D03*
X180580000Y-81758000D03*
X184080000Y-81758000D03*
X187580000Y-81758000D03*
X191080000Y-81758000D03*
X194580000Y-81758000D03*
X198080000Y-81758000D03*
D20*
X196440000Y-120366000D03*
D21*
X192940000Y-120366000D03*
X189440000Y-120366000D03*
X185940000Y-120366000D03*
D20*
X179676000Y-120366000D03*
D21*
X176176000Y-120366000D03*
X172676000Y-120366000D03*
X169176000Y-120366000D03*
D20*
X162404000Y-120366000D03*
D21*
X158904000Y-120366000D03*
X155404000Y-120366000D03*
X151904000Y-120366000D03*
D20*
X144116000Y-120366000D03*
D21*
X140616000Y-120366000D03*
X137116000Y-120366000D03*
X133616000Y-120366000D03*
D20*
X130908000Y-82266000D03*
D21*
X134408000Y-82266000D03*
D13*
X131543000Y-104618000D03*
D14*
X139163000Y-112238000D03*
X131543000Y-107158000D03*
X139163000Y-109698000D03*
X131543000Y-109698000D03*
X139163000Y-107158000D03*
X131543000Y-112238000D03*
X139163000Y-104618000D03*
D22*
X122145000Y-121255000D03*
X122145000Y-81250000D03*
X205965000Y-81250000D03*
X205965000Y-121255000D03*
D23*
X128622000Y-101697000D03*
X142084000Y-102586000D03*
X156816000Y-102586000D03*
X172564000Y-102586000D03*
X188312000Y-102586000D03*
X204568000Y-102586000D03*
X152752000Y-96998000D03*
X166976000Y-98014000D03*
X181200000Y-98014000D03*
X195932000Y-98014000D03*
D24*
X153641000Y-107158000D02*
X153768000Y-107158000D01*
X159610000Y-90140000D02*
X159610000Y-86965000D01*
X160880000Y-85695000D02*
X160880000Y-83155000D01*
X159610000Y-86965000D02*
X160880000Y-85695000D01*
X122272000Y-104222000D02*
X122668000Y-104222000D01*
X122668000Y-104222000D02*
X126844000Y-100046000D01*
X126844000Y-91918000D02*
X128256000Y-90506000D01*
X126844000Y-100046000D02*
X126844000Y-91918000D01*
X122272000Y-104222000D02*
X123303000Y-104222000D01*
X122272000Y-90506000D02*
X128256000Y-90506000D01*
X128256000Y-90506000D02*
X135114000Y-90506000D01*
X138020000Y-87600000D02*
X145005000Y-87600000D01*
X135114000Y-90506000D02*
X138020000Y-87600000D01*
D25*
X153641000Y-109698000D02*
X152244000Y-109698000D01*
X149704000Y-100046000D02*
X152752000Y-96998000D01*
X149704000Y-107158000D02*
X149704000Y-100046000D01*
X152244000Y-109698000D02*
X149704000Y-107158000D01*
X169262000Y-109698000D02*
X167992000Y-109698000D01*
X165452000Y-99538000D02*
X166976000Y-98014000D01*
X165452000Y-107158000D02*
X165452000Y-99538000D01*
X167992000Y-109698000D02*
X165452000Y-107158000D01*
X185137000Y-109698000D02*
X183740000Y-109698000D01*
X181200000Y-107158000D02*
X181200000Y-98014000D01*
X183740000Y-109698000D02*
X181200000Y-107158000D01*
X201012000Y-109698000D02*
X199488000Y-109698000D01*
X195932000Y-106142000D02*
X195932000Y-98014000D01*
X199488000Y-109698000D02*
X195932000Y-106142000D01*
X182914500Y-114460500D02*
X198789500Y-114460500D01*
X198789500Y-114460500D02*
X201012000Y-112238000D01*
X166976000Y-114460500D02*
X182914500Y-114460500D01*
X182914500Y-114460500D02*
X185137000Y-112238000D01*
X151418500Y-114460500D02*
X166976000Y-114460500D01*
X166976000Y-114460500D02*
X167039500Y-114460500D01*
X167039500Y-114460500D02*
X169262000Y-112238000D01*
X139163000Y-109698000D02*
X139290000Y-109698000D01*
X139290000Y-109698000D02*
X144116000Y-114524000D01*
X151355000Y-114524000D02*
X151418500Y-114460500D01*
X151418500Y-114460500D02*
X153641000Y-112238000D01*
X144116000Y-114524000D02*
X151355000Y-114524000D01*
X134083000Y-107158000D02*
X134210000Y-107158000D01*
X131543000Y-107158000D02*
X134083000Y-107158000D01*
X136750000Y-109698000D02*
X139163000Y-109698000D01*
X134210000Y-107158000D02*
X136750000Y-109698000D01*
D26*
G36*
X210283000Y-126081000D02*
X117573000Y-126081000D01*
X117573000Y-122014482D01*
X118309336Y-122014482D01*
X118891950Y-123424515D01*
X119969811Y-124504259D01*
X121378825Y-125089333D01*
X122904482Y-125090664D01*
X124314515Y-124508050D01*
X125394259Y-123430189D01*
X125979333Y-122021175D01*
X125980664Y-120495518D01*
X125535565Y-119418296D01*
X132081000Y-119418296D01*
X132081000Y-121313704D01*
X132197845Y-121901123D01*
X132530591Y-122399113D01*
X133028581Y-122731859D01*
X133616000Y-122848704D01*
X134203419Y-122731859D01*
X134701409Y-122399113D01*
X135034155Y-121901123D01*
X135151000Y-121313704D01*
X135151000Y-119418296D01*
X135581000Y-119418296D01*
X135581000Y-121313704D01*
X135697845Y-121901123D01*
X136030591Y-122399113D01*
X136528581Y-122731859D01*
X137116000Y-122848704D01*
X137703419Y-122731859D01*
X138201409Y-122399113D01*
X138534155Y-121901123D01*
X138651000Y-121313704D01*
X138651000Y-120493000D01*
X139081000Y-120493000D01*
X139081000Y-121393000D01*
X139246446Y-121970752D01*
X139620394Y-122441212D01*
X140145914Y-122732756D01*
X140251260Y-122757036D01*
X140489000Y-122636378D01*
X140489000Y-120493000D01*
X140743000Y-120493000D01*
X140743000Y-122636378D01*
X140980740Y-122757036D01*
X141086086Y-122732756D01*
X141611606Y-122441212D01*
X141985554Y-121970752D01*
X142151000Y-121393000D01*
X142151000Y-120493000D01*
X140743000Y-120493000D01*
X140489000Y-120493000D01*
X139081000Y-120493000D01*
X138651000Y-120493000D01*
X138651000Y-119418296D01*
X138635228Y-119339000D01*
X139081000Y-119339000D01*
X139081000Y-120239000D01*
X140489000Y-120239000D01*
X140489000Y-118095622D01*
X140743000Y-118095622D01*
X140743000Y-120239000D01*
X142151000Y-120239000D01*
X142151000Y-119339000D01*
X141985554Y-118761248D01*
X141830360Y-118566000D01*
X142568560Y-118566000D01*
X142568560Y-122166000D01*
X142612838Y-122401317D01*
X142751910Y-122617441D01*
X142964110Y-122762431D01*
X143216000Y-122813440D01*
X145016000Y-122813440D01*
X145251317Y-122769162D01*
X145467441Y-122630090D01*
X145612431Y-122417890D01*
X145663440Y-122166000D01*
X145663440Y-119418296D01*
X150369000Y-119418296D01*
X150369000Y-121313704D01*
X150485845Y-121901123D01*
X150818591Y-122399113D01*
X151316581Y-122731859D01*
X151904000Y-122848704D01*
X152491419Y-122731859D01*
X152989409Y-122399113D01*
X153322155Y-121901123D01*
X153439000Y-121313704D01*
X153439000Y-119418296D01*
X153869000Y-119418296D01*
X153869000Y-121313704D01*
X153985845Y-121901123D01*
X154318591Y-122399113D01*
X154816581Y-122731859D01*
X155404000Y-122848704D01*
X155991419Y-122731859D01*
X156489409Y-122399113D01*
X156822155Y-121901123D01*
X156939000Y-121313704D01*
X156939000Y-120493000D01*
X157369000Y-120493000D01*
X157369000Y-121393000D01*
X157534446Y-121970752D01*
X157908394Y-122441212D01*
X158433914Y-122732756D01*
X158539260Y-122757036D01*
X158777000Y-122636378D01*
X158777000Y-120493000D01*
X159031000Y-120493000D01*
X159031000Y-122636378D01*
X159268740Y-122757036D01*
X159374086Y-122732756D01*
X159899606Y-122441212D01*
X160273554Y-121970752D01*
X160439000Y-121393000D01*
X160439000Y-120493000D01*
X159031000Y-120493000D01*
X158777000Y-120493000D01*
X157369000Y-120493000D01*
X156939000Y-120493000D01*
X156939000Y-119418296D01*
X156923228Y-119339000D01*
X157369000Y-119339000D01*
X157369000Y-120239000D01*
X158777000Y-120239000D01*
X158777000Y-118095622D01*
X159031000Y-118095622D01*
X159031000Y-120239000D01*
X160439000Y-120239000D01*
X160439000Y-119339000D01*
X160273554Y-118761248D01*
X160118360Y-118566000D01*
X160856560Y-118566000D01*
X160856560Y-122166000D01*
X160900838Y-122401317D01*
X161039910Y-122617441D01*
X161252110Y-122762431D01*
X161504000Y-122813440D01*
X163304000Y-122813440D01*
X163539317Y-122769162D01*
X163755441Y-122630090D01*
X163900431Y-122417890D01*
X163951440Y-122166000D01*
X163951440Y-119418296D01*
X167641000Y-119418296D01*
X167641000Y-121313704D01*
X167757845Y-121901123D01*
X168090591Y-122399113D01*
X168588581Y-122731859D01*
X169176000Y-122848704D01*
X169763419Y-122731859D01*
X170261409Y-122399113D01*
X170594155Y-121901123D01*
X170711000Y-121313704D01*
X170711000Y-119418296D01*
X171141000Y-119418296D01*
X171141000Y-121313704D01*
X171257845Y-121901123D01*
X171590591Y-122399113D01*
X172088581Y-122731859D01*
X172676000Y-122848704D01*
X173263419Y-122731859D01*
X173761409Y-122399113D01*
X174094155Y-121901123D01*
X174211000Y-121313704D01*
X174211000Y-120493000D01*
X174641000Y-120493000D01*
X174641000Y-121393000D01*
X174806446Y-121970752D01*
X175180394Y-122441212D01*
X175705914Y-122732756D01*
X175811260Y-122757036D01*
X176049000Y-122636378D01*
X176049000Y-120493000D01*
X176303000Y-120493000D01*
X176303000Y-122636378D01*
X176540740Y-122757036D01*
X176646086Y-122732756D01*
X177171606Y-122441212D01*
X177545554Y-121970752D01*
X177711000Y-121393000D01*
X177711000Y-120493000D01*
X176303000Y-120493000D01*
X176049000Y-120493000D01*
X174641000Y-120493000D01*
X174211000Y-120493000D01*
X174211000Y-119418296D01*
X174195228Y-119339000D01*
X174641000Y-119339000D01*
X174641000Y-120239000D01*
X176049000Y-120239000D01*
X176049000Y-118095622D01*
X176303000Y-118095622D01*
X176303000Y-120239000D01*
X177711000Y-120239000D01*
X177711000Y-119339000D01*
X177545554Y-118761248D01*
X177390360Y-118566000D01*
X178128560Y-118566000D01*
X178128560Y-122166000D01*
X178172838Y-122401317D01*
X178311910Y-122617441D01*
X178524110Y-122762431D01*
X178776000Y-122813440D01*
X180576000Y-122813440D01*
X180811317Y-122769162D01*
X181027441Y-122630090D01*
X181172431Y-122417890D01*
X181223440Y-122166000D01*
X181223440Y-119418296D01*
X184405000Y-119418296D01*
X184405000Y-121313704D01*
X184521845Y-121901123D01*
X184854591Y-122399113D01*
X185352581Y-122731859D01*
X185940000Y-122848704D01*
X186527419Y-122731859D01*
X187025409Y-122399113D01*
X187358155Y-121901123D01*
X187475000Y-121313704D01*
X187475000Y-119418296D01*
X187905000Y-119418296D01*
X187905000Y-121313704D01*
X188021845Y-121901123D01*
X188354591Y-122399113D01*
X188852581Y-122731859D01*
X189440000Y-122848704D01*
X190027419Y-122731859D01*
X190525409Y-122399113D01*
X190858155Y-121901123D01*
X190975000Y-121313704D01*
X190975000Y-120493000D01*
X191405000Y-120493000D01*
X191405000Y-121393000D01*
X191570446Y-121970752D01*
X191944394Y-122441212D01*
X192469914Y-122732756D01*
X192575260Y-122757036D01*
X192813000Y-122636378D01*
X192813000Y-120493000D01*
X193067000Y-120493000D01*
X193067000Y-122636378D01*
X193304740Y-122757036D01*
X193410086Y-122732756D01*
X193935606Y-122441212D01*
X194309554Y-121970752D01*
X194475000Y-121393000D01*
X194475000Y-120493000D01*
X193067000Y-120493000D01*
X192813000Y-120493000D01*
X191405000Y-120493000D01*
X190975000Y-120493000D01*
X190975000Y-119418296D01*
X190959228Y-119339000D01*
X191405000Y-119339000D01*
X191405000Y-120239000D01*
X192813000Y-120239000D01*
X192813000Y-118095622D01*
X193067000Y-118095622D01*
X193067000Y-120239000D01*
X194475000Y-120239000D01*
X194475000Y-119339000D01*
X194309554Y-118761248D01*
X194154360Y-118566000D01*
X194892560Y-118566000D01*
X194892560Y-122166000D01*
X194936838Y-122401317D01*
X195075910Y-122617441D01*
X195288110Y-122762431D01*
X195540000Y-122813440D01*
X197340000Y-122813440D01*
X197575317Y-122769162D01*
X197791441Y-122630090D01*
X197936431Y-122417890D01*
X197987440Y-122166000D01*
X197987440Y-122014482D01*
X202129336Y-122014482D01*
X202711950Y-123424515D01*
X203789811Y-124504259D01*
X205198825Y-125089333D01*
X206724482Y-125090664D01*
X208134515Y-124508050D01*
X209214259Y-123430189D01*
X209799333Y-122021175D01*
X209800664Y-120495518D01*
X209218050Y-119085485D01*
X208140189Y-118005741D01*
X206731175Y-117420667D01*
X205205518Y-117419336D01*
X203795485Y-118001950D01*
X202715741Y-119079811D01*
X202130667Y-120488825D01*
X202129336Y-122014482D01*
X197987440Y-122014482D01*
X197987440Y-118566000D01*
X197943162Y-118330683D01*
X197804090Y-118114559D01*
X197591890Y-117969569D01*
X197340000Y-117918560D01*
X195540000Y-117918560D01*
X195304683Y-117962838D01*
X195088559Y-118101910D01*
X194943569Y-118314110D01*
X194892560Y-118566000D01*
X194154360Y-118566000D01*
X193935606Y-118290788D01*
X193410086Y-117999244D01*
X193304740Y-117974964D01*
X193067000Y-118095622D01*
X192813000Y-118095622D01*
X192575260Y-117974964D01*
X192469914Y-117999244D01*
X191944394Y-118290788D01*
X191570446Y-118761248D01*
X191405000Y-119339000D01*
X190959228Y-119339000D01*
X190858155Y-118830877D01*
X190525409Y-118332887D01*
X190027419Y-118000141D01*
X189440000Y-117883296D01*
X188852581Y-118000141D01*
X188354591Y-118332887D01*
X188021845Y-118830877D01*
X187905000Y-119418296D01*
X187475000Y-119418296D01*
X187358155Y-118830877D01*
X187025409Y-118332887D01*
X186527419Y-118000141D01*
X185940000Y-117883296D01*
X185352581Y-118000141D01*
X184854591Y-118332887D01*
X184521845Y-118830877D01*
X184405000Y-119418296D01*
X181223440Y-119418296D01*
X181223440Y-118566000D01*
X181179162Y-118330683D01*
X181040090Y-118114559D01*
X180827890Y-117969569D01*
X180576000Y-117918560D01*
X178776000Y-117918560D01*
X178540683Y-117962838D01*
X178324559Y-118101910D01*
X178179569Y-118314110D01*
X178128560Y-118566000D01*
X177390360Y-118566000D01*
X177171606Y-118290788D01*
X176646086Y-117999244D01*
X176540740Y-117974964D01*
X176303000Y-118095622D01*
X176049000Y-118095622D01*
X175811260Y-117974964D01*
X175705914Y-117999244D01*
X175180394Y-118290788D01*
X174806446Y-118761248D01*
X174641000Y-119339000D01*
X174195228Y-119339000D01*
X174094155Y-118830877D01*
X173761409Y-118332887D01*
X173263419Y-118000141D01*
X172676000Y-117883296D01*
X172088581Y-118000141D01*
X171590591Y-118332887D01*
X171257845Y-118830877D01*
X171141000Y-119418296D01*
X170711000Y-119418296D01*
X170594155Y-118830877D01*
X170261409Y-118332887D01*
X169763419Y-118000141D01*
X169176000Y-117883296D01*
X168588581Y-118000141D01*
X168090591Y-118332887D01*
X167757845Y-118830877D01*
X167641000Y-119418296D01*
X163951440Y-119418296D01*
X163951440Y-118566000D01*
X163907162Y-118330683D01*
X163768090Y-118114559D01*
X163555890Y-117969569D01*
X163304000Y-117918560D01*
X161504000Y-117918560D01*
X161268683Y-117962838D01*
X161052559Y-118101910D01*
X160907569Y-118314110D01*
X160856560Y-118566000D01*
X160118360Y-118566000D01*
X159899606Y-118290788D01*
X159374086Y-117999244D01*
X159268740Y-117974964D01*
X159031000Y-118095622D01*
X158777000Y-118095622D01*
X158539260Y-117974964D01*
X158433914Y-117999244D01*
X157908394Y-118290788D01*
X157534446Y-118761248D01*
X157369000Y-119339000D01*
X156923228Y-119339000D01*
X156822155Y-118830877D01*
X156489409Y-118332887D01*
X155991419Y-118000141D01*
X155404000Y-117883296D01*
X154816581Y-118000141D01*
X154318591Y-118332887D01*
X153985845Y-118830877D01*
X153869000Y-119418296D01*
X153439000Y-119418296D01*
X153322155Y-118830877D01*
X152989409Y-118332887D01*
X152491419Y-118000141D01*
X151904000Y-117883296D01*
X151316581Y-118000141D01*
X150818591Y-118332887D01*
X150485845Y-118830877D01*
X150369000Y-119418296D01*
X145663440Y-119418296D01*
X145663440Y-118566000D01*
X145619162Y-118330683D01*
X145480090Y-118114559D01*
X145267890Y-117969569D01*
X145016000Y-117918560D01*
X143216000Y-117918560D01*
X142980683Y-117962838D01*
X142764559Y-118101910D01*
X142619569Y-118314110D01*
X142568560Y-118566000D01*
X141830360Y-118566000D01*
X141611606Y-118290788D01*
X141086086Y-117999244D01*
X140980740Y-117974964D01*
X140743000Y-118095622D01*
X140489000Y-118095622D01*
X140251260Y-117974964D01*
X140145914Y-117999244D01*
X139620394Y-118290788D01*
X139246446Y-118761248D01*
X139081000Y-119339000D01*
X138635228Y-119339000D01*
X138534155Y-118830877D01*
X138201409Y-118332887D01*
X137703419Y-118000141D01*
X137116000Y-117883296D01*
X136528581Y-118000141D01*
X136030591Y-118332887D01*
X135697845Y-118830877D01*
X135581000Y-119418296D01*
X135151000Y-119418296D01*
X135034155Y-118830877D01*
X134701409Y-118332887D01*
X134203419Y-118000141D01*
X133616000Y-117883296D01*
X133028581Y-118000141D01*
X132530591Y-118332887D01*
X132197845Y-118830877D01*
X132081000Y-119418296D01*
X125535565Y-119418296D01*
X125398050Y-119085485D01*
X124320189Y-118005741D01*
X122911175Y-117420667D01*
X121385518Y-117419336D01*
X119975485Y-118001950D01*
X118895741Y-119079811D01*
X118310667Y-120488825D01*
X118309336Y-122014482D01*
X117573000Y-122014482D01*
X117573000Y-110322000D01*
X119824560Y-110322000D01*
X119824560Y-112122000D01*
X119868838Y-112357317D01*
X120007910Y-112573441D01*
X120220110Y-112718431D01*
X120472000Y-112769440D01*
X124072000Y-112769440D01*
X124307317Y-112725162D01*
X124521966Y-112587039D01*
X130151096Y-112587039D01*
X130311959Y-112975423D01*
X130687866Y-113390389D01*
X131193959Y-113629914D01*
X131416000Y-113508629D01*
X131416000Y-112365000D01*
X131670000Y-112365000D01*
X131670000Y-113508629D01*
X131892041Y-113629914D01*
X132398134Y-113390389D01*
X132774041Y-112975423D01*
X132934904Y-112587039D01*
X132812915Y-112365000D01*
X131670000Y-112365000D01*
X131416000Y-112365000D01*
X130273085Y-112365000D01*
X130151096Y-112587039D01*
X124521966Y-112587039D01*
X124523441Y-112586090D01*
X124668431Y-112373890D01*
X124719440Y-112122000D01*
X124719440Y-110322000D01*
X124675162Y-110086683D01*
X124536090Y-109870559D01*
X124323890Y-109725569D01*
X124072000Y-109674560D01*
X120472000Y-109674560D01*
X120236683Y-109718838D01*
X120020559Y-109857910D01*
X119875569Y-110070110D01*
X119824560Y-110322000D01*
X117573000Y-110322000D01*
X117573000Y-108086740D01*
X119880964Y-108086740D01*
X119905244Y-108192086D01*
X120196788Y-108717606D01*
X120667248Y-109091554D01*
X121245000Y-109257000D01*
X122145000Y-109257000D01*
X122145000Y-107849000D01*
X122399000Y-107849000D01*
X122399000Y-109257000D01*
X123299000Y-109257000D01*
X123876752Y-109091554D01*
X124347212Y-108717606D01*
X124638756Y-108192086D01*
X124663036Y-108086740D01*
X124542378Y-107849000D01*
X122399000Y-107849000D01*
X122145000Y-107849000D01*
X120001622Y-107849000D01*
X119880964Y-108086740D01*
X117573000Y-108086740D01*
X117573000Y-107357260D01*
X119880964Y-107357260D01*
X120001622Y-107595000D01*
X122145000Y-107595000D01*
X122145000Y-106187000D01*
X122399000Y-106187000D01*
X122399000Y-107595000D01*
X124542378Y-107595000D01*
X124663036Y-107357260D01*
X124638756Y-107251914D01*
X124586656Y-107158000D01*
X130079887Y-107158000D01*
X130189120Y-107707151D01*
X130500189Y-108172698D01*
X130882275Y-108428000D01*
X130500189Y-108683302D01*
X130189120Y-109148849D01*
X130079887Y-109698000D01*
X130189120Y-110247151D01*
X130500189Y-110712698D01*
X130904703Y-110982986D01*
X130687866Y-111085611D01*
X130311959Y-111500577D01*
X130151096Y-111888961D01*
X130273085Y-112111000D01*
X131416000Y-112111000D01*
X131416000Y-112091000D01*
X131670000Y-112091000D01*
X131670000Y-112111000D01*
X132812915Y-112111000D01*
X132934904Y-111888961D01*
X132774041Y-111500577D01*
X132398134Y-111085611D01*
X132181297Y-110982986D01*
X132585811Y-110712698D01*
X132896880Y-110247151D01*
X133006113Y-109698000D01*
X132896880Y-109148849D01*
X132585811Y-108683302D01*
X132203725Y-108428000D01*
X132585811Y-108172698D01*
X132712229Y-107983500D01*
X133868066Y-107983500D01*
X136166281Y-110281714D01*
X136166283Y-110281717D01*
X136434095Y-110460663D01*
X136750000Y-110523500D01*
X137993771Y-110523500D01*
X138120189Y-110712698D01*
X138502275Y-110968000D01*
X138120189Y-111223302D01*
X137809120Y-111688849D01*
X137699887Y-112238000D01*
X137809120Y-112787151D01*
X138120189Y-113252698D01*
X138585736Y-113563767D01*
X139134887Y-113673000D01*
X139191113Y-113673000D01*
X139740264Y-113563767D01*
X140205811Y-113252698D01*
X140516880Y-112787151D01*
X140626113Y-112238000D01*
X140617062Y-112192495D01*
X143532281Y-115107714D01*
X143532283Y-115107717D01*
X143799103Y-115286000D01*
X143800095Y-115286663D01*
X144116000Y-115349501D01*
X144116005Y-115349500D01*
X151355000Y-115349500D01*
X151670906Y-115286663D01*
X151671898Y-115286000D01*
X198789500Y-115286000D01*
X199105406Y-115223163D01*
X199373217Y-115044217D01*
X200784161Y-113633272D01*
X200983887Y-113673000D01*
X201040113Y-113673000D01*
X201589264Y-113563767D01*
X202054811Y-113252698D01*
X202365880Y-112787151D01*
X202475113Y-112238000D01*
X202365880Y-111688849D01*
X202054811Y-111223302D01*
X201672725Y-110968000D01*
X202054811Y-110712698D01*
X202365880Y-110247151D01*
X202475113Y-109698000D01*
X202365880Y-109148849D01*
X202054811Y-108683302D01*
X201672725Y-108428000D01*
X202054811Y-108172698D01*
X202365880Y-107707151D01*
X202475113Y-107158000D01*
X202365880Y-106608849D01*
X202054811Y-106143302D01*
X201672725Y-105888000D01*
X202054811Y-105632698D01*
X202365880Y-105167151D01*
X202475113Y-104618000D01*
X202365880Y-104068849D01*
X202054811Y-103603302D01*
X201589264Y-103292233D01*
X201040113Y-103183000D01*
X200983887Y-103183000D01*
X200434736Y-103292233D01*
X199969189Y-103603302D01*
X199658120Y-104068849D01*
X199548887Y-104618000D01*
X199658120Y-105167151D01*
X199969189Y-105632698D01*
X200351275Y-105888000D01*
X199969189Y-106143302D01*
X199658120Y-106608849D01*
X199548887Y-107158000D01*
X199658120Y-107707151D01*
X199969189Y-108172698D01*
X200351275Y-108428000D01*
X199969189Y-108683302D01*
X199842771Y-108872500D01*
X199829933Y-108872500D01*
X196757500Y-105800066D01*
X196757500Y-98464113D01*
X196866838Y-98200799D01*
X196867162Y-97828833D01*
X196725117Y-97485057D01*
X196462327Y-97221808D01*
X196118799Y-97079162D01*
X195746833Y-97078838D01*
X195403057Y-97220883D01*
X195139808Y-97483673D01*
X194997162Y-97827201D01*
X194996838Y-98199167D01*
X195106500Y-98464570D01*
X195106500Y-106142000D01*
X195169337Y-106457906D01*
X195348283Y-106725717D01*
X198904281Y-110281714D01*
X198904283Y-110281717D01*
X199172095Y-110460663D01*
X199488000Y-110523500D01*
X199842771Y-110523500D01*
X199969189Y-110712698D01*
X200351275Y-110968000D01*
X199969189Y-111223302D01*
X199658120Y-111688849D01*
X199548887Y-112238000D01*
X199597943Y-112484623D01*
X198447566Y-113635000D01*
X193519002Y-113635000D01*
X193519002Y-113508630D01*
X193741041Y-113629914D01*
X194247134Y-113390389D01*
X194623041Y-112975423D01*
X194783904Y-112587039D01*
X194661915Y-112365000D01*
X193519000Y-112365000D01*
X193519000Y-112385000D01*
X193265000Y-112385000D01*
X193265000Y-112365000D01*
X192122085Y-112365000D01*
X192000096Y-112587039D01*
X192160959Y-112975423D01*
X192536866Y-113390389D01*
X193042959Y-113629914D01*
X193264998Y-113508630D01*
X193264998Y-113635000D01*
X185356152Y-113635000D01*
X185714264Y-113563767D01*
X186179811Y-113252698D01*
X186490880Y-112787151D01*
X186600113Y-112238000D01*
X186490880Y-111688849D01*
X186179811Y-111223302D01*
X185797725Y-110968000D01*
X186179811Y-110712698D01*
X186490880Y-110247151D01*
X186600113Y-109698000D01*
X186490880Y-109148849D01*
X186179811Y-108683302D01*
X185797725Y-108428000D01*
X186179811Y-108172698D01*
X186490880Y-107707151D01*
X186600113Y-107158000D01*
X191928887Y-107158000D01*
X192038120Y-107707151D01*
X192349189Y-108172698D01*
X192731275Y-108428000D01*
X192349189Y-108683302D01*
X192038120Y-109148849D01*
X191928887Y-109698000D01*
X192038120Y-110247151D01*
X192349189Y-110712698D01*
X192753703Y-110982986D01*
X192536866Y-111085611D01*
X192160959Y-111500577D01*
X192000096Y-111888961D01*
X192122085Y-112111000D01*
X193265000Y-112111000D01*
X193265000Y-112091000D01*
X193519000Y-112091000D01*
X193519000Y-112111000D01*
X194661915Y-112111000D01*
X194783904Y-111888961D01*
X194623041Y-111500577D01*
X194247134Y-111085611D01*
X194030297Y-110982986D01*
X194434811Y-110712698D01*
X194745880Y-110247151D01*
X194855113Y-109698000D01*
X194745880Y-109148849D01*
X194434811Y-108683302D01*
X194052725Y-108428000D01*
X194434811Y-108172698D01*
X194745880Y-107707151D01*
X194855113Y-107158000D01*
X194745880Y-106608849D01*
X194434811Y-106143302D01*
X194290535Y-106046899D01*
X194427317Y-106021162D01*
X194643441Y-105882090D01*
X194788431Y-105669890D01*
X194839440Y-105418000D01*
X194839440Y-103818000D01*
X194795162Y-103582683D01*
X194656090Y-103366559D01*
X194443890Y-103221569D01*
X194192000Y-103170560D01*
X192592000Y-103170560D01*
X192356683Y-103214838D01*
X192140559Y-103353910D01*
X191995569Y-103566110D01*
X191944560Y-103818000D01*
X191944560Y-105418000D01*
X191988838Y-105653317D01*
X192127910Y-105869441D01*
X192340110Y-106014431D01*
X192495089Y-106045815D01*
X192349189Y-106143302D01*
X192038120Y-106608849D01*
X191928887Y-107158000D01*
X186600113Y-107158000D01*
X186490880Y-106608849D01*
X186179811Y-106143302D01*
X185797725Y-105888000D01*
X186179811Y-105632698D01*
X186490880Y-105167151D01*
X186600113Y-104618000D01*
X186490880Y-104068849D01*
X186179811Y-103603302D01*
X185714264Y-103292233D01*
X185165113Y-103183000D01*
X185108887Y-103183000D01*
X184559736Y-103292233D01*
X184094189Y-103603302D01*
X183783120Y-104068849D01*
X183673887Y-104618000D01*
X183783120Y-105167151D01*
X184094189Y-105632698D01*
X184476275Y-105888000D01*
X184094189Y-106143302D01*
X183783120Y-106608849D01*
X183673887Y-107158000D01*
X183783120Y-107707151D01*
X184094189Y-108172698D01*
X184476275Y-108428000D01*
X184094189Y-108683302D01*
X184013498Y-108804065D01*
X182025500Y-106816066D01*
X182025500Y-98464113D01*
X182134838Y-98200799D01*
X182135162Y-97828833D01*
X181993117Y-97485057D01*
X181730327Y-97221808D01*
X181386799Y-97079162D01*
X181014833Y-97078838D01*
X180671057Y-97220883D01*
X180407808Y-97483673D01*
X180265162Y-97827201D01*
X180264838Y-98199167D01*
X180374500Y-98464570D01*
X180374500Y-107158000D01*
X180437337Y-107473906D01*
X180616283Y-107741717D01*
X183156281Y-110281714D01*
X183156283Y-110281717D01*
X183424095Y-110460663D01*
X183740000Y-110523500D01*
X183967771Y-110523500D01*
X184094189Y-110712698D01*
X184476275Y-110968000D01*
X184094189Y-111223302D01*
X183783120Y-111688849D01*
X183673887Y-112238000D01*
X183722943Y-112484623D01*
X182572566Y-113635000D01*
X177644002Y-113635000D01*
X177644002Y-113508630D01*
X177866041Y-113629914D01*
X178372134Y-113390389D01*
X178748041Y-112975423D01*
X178908904Y-112587039D01*
X178786915Y-112365000D01*
X177644000Y-112365000D01*
X177644000Y-112385000D01*
X177390000Y-112385000D01*
X177390000Y-112365000D01*
X176247085Y-112365000D01*
X176125096Y-112587039D01*
X176285959Y-112975423D01*
X176661866Y-113390389D01*
X177167959Y-113629914D01*
X177389998Y-113508630D01*
X177389998Y-113635000D01*
X169481152Y-113635000D01*
X169839264Y-113563767D01*
X170304811Y-113252698D01*
X170615880Y-112787151D01*
X170725113Y-112238000D01*
X170615880Y-111688849D01*
X170304811Y-111223302D01*
X169922725Y-110968000D01*
X170304811Y-110712698D01*
X170615880Y-110247151D01*
X170725113Y-109698000D01*
X170615880Y-109148849D01*
X170304811Y-108683302D01*
X169922725Y-108428000D01*
X170304811Y-108172698D01*
X170615880Y-107707151D01*
X170725113Y-107158000D01*
X176053887Y-107158000D01*
X176163120Y-107707151D01*
X176474189Y-108172698D01*
X176856275Y-108428000D01*
X176474189Y-108683302D01*
X176163120Y-109148849D01*
X176053887Y-109698000D01*
X176163120Y-110247151D01*
X176474189Y-110712698D01*
X176878703Y-110982986D01*
X176661866Y-111085611D01*
X176285959Y-111500577D01*
X176125096Y-111888961D01*
X176247085Y-112111000D01*
X177390000Y-112111000D01*
X177390000Y-112091000D01*
X177644000Y-112091000D01*
X177644000Y-112111000D01*
X178786915Y-112111000D01*
X178908904Y-111888961D01*
X178748041Y-111500577D01*
X178372134Y-111085611D01*
X178155297Y-110982986D01*
X178559811Y-110712698D01*
X178870880Y-110247151D01*
X178980113Y-109698000D01*
X178870880Y-109148849D01*
X178559811Y-108683302D01*
X178177725Y-108428000D01*
X178559811Y-108172698D01*
X178870880Y-107707151D01*
X178980113Y-107158000D01*
X178870880Y-106608849D01*
X178559811Y-106143302D01*
X178415535Y-106046899D01*
X178552317Y-106021162D01*
X178768441Y-105882090D01*
X178913431Y-105669890D01*
X178964440Y-105418000D01*
X178964440Y-103818000D01*
X178920162Y-103582683D01*
X178781090Y-103366559D01*
X178568890Y-103221569D01*
X178317000Y-103170560D01*
X176717000Y-103170560D01*
X176481683Y-103214838D01*
X176265559Y-103353910D01*
X176120569Y-103566110D01*
X176069560Y-103818000D01*
X176069560Y-105418000D01*
X176113838Y-105653317D01*
X176252910Y-105869441D01*
X176465110Y-106014431D01*
X176620089Y-106045815D01*
X176474189Y-106143302D01*
X176163120Y-106608849D01*
X176053887Y-107158000D01*
X170725113Y-107158000D01*
X170615880Y-106608849D01*
X170304811Y-106143302D01*
X169922725Y-105888000D01*
X170304811Y-105632698D01*
X170615880Y-105167151D01*
X170725113Y-104618000D01*
X170615880Y-104068849D01*
X170304811Y-103603302D01*
X169839264Y-103292233D01*
X169290113Y-103183000D01*
X169233887Y-103183000D01*
X168684736Y-103292233D01*
X168219189Y-103603302D01*
X167908120Y-104068849D01*
X167798887Y-104618000D01*
X167908120Y-105167151D01*
X168219189Y-105632698D01*
X168601275Y-105888000D01*
X168219189Y-106143302D01*
X167908120Y-106608849D01*
X167798887Y-107158000D01*
X167908120Y-107707151D01*
X168219189Y-108172698D01*
X168601275Y-108428000D01*
X168219189Y-108683302D01*
X168189367Y-108727934D01*
X166277500Y-106816066D01*
X166277500Y-99879934D01*
X167241439Y-98915994D01*
X167504943Y-98807117D01*
X167768192Y-98544327D01*
X167910838Y-98200799D01*
X167911162Y-97828833D01*
X167769117Y-97485057D01*
X167506327Y-97221808D01*
X167162799Y-97079162D01*
X166790833Y-97078838D01*
X166447057Y-97220883D01*
X166183808Y-97483673D01*
X166073682Y-97748885D01*
X164868283Y-98954283D01*
X164689337Y-99222094D01*
X164677155Y-99283337D01*
X164626500Y-99538000D01*
X164626500Y-107158000D01*
X164689337Y-107473906D01*
X164868283Y-107741717D01*
X167408281Y-110281714D01*
X167408283Y-110281717D01*
X167676095Y-110460663D01*
X167992000Y-110523500D01*
X168092771Y-110523500D01*
X168219189Y-110712698D01*
X168601275Y-110968000D01*
X168219189Y-111223302D01*
X167908120Y-111688849D01*
X167798887Y-112238000D01*
X167847943Y-112484623D01*
X166697566Y-113635000D01*
X161769002Y-113635000D01*
X161769002Y-113508630D01*
X161991041Y-113629914D01*
X162497134Y-113390389D01*
X162873041Y-112975423D01*
X163033904Y-112587039D01*
X162911915Y-112365000D01*
X161769000Y-112365000D01*
X161769000Y-112385000D01*
X161515000Y-112385000D01*
X161515000Y-112365000D01*
X160372085Y-112365000D01*
X160250096Y-112587039D01*
X160410959Y-112975423D01*
X160786866Y-113390389D01*
X161292959Y-113629914D01*
X161514998Y-113508630D01*
X161514998Y-113635000D01*
X153860152Y-113635000D01*
X154218264Y-113563767D01*
X154683811Y-113252698D01*
X154994880Y-112787151D01*
X155104113Y-112238000D01*
X154994880Y-111688849D01*
X154683811Y-111223302D01*
X154301725Y-110968000D01*
X154683811Y-110712698D01*
X154994880Y-110247151D01*
X155104113Y-109698000D01*
X154994880Y-109148849D01*
X154683811Y-108683302D01*
X154301725Y-108428000D01*
X154683811Y-108172698D01*
X154994880Y-107707151D01*
X155104113Y-107158000D01*
X160178887Y-107158000D01*
X160288120Y-107707151D01*
X160599189Y-108172698D01*
X160981275Y-108428000D01*
X160599189Y-108683302D01*
X160288120Y-109148849D01*
X160178887Y-109698000D01*
X160288120Y-110247151D01*
X160599189Y-110712698D01*
X161003703Y-110982986D01*
X160786866Y-111085611D01*
X160410959Y-111500577D01*
X160250096Y-111888961D01*
X160372085Y-112111000D01*
X161515000Y-112111000D01*
X161515000Y-112091000D01*
X161769000Y-112091000D01*
X161769000Y-112111000D01*
X162911915Y-112111000D01*
X163033904Y-111888961D01*
X162873041Y-111500577D01*
X162497134Y-111085611D01*
X162280297Y-110982986D01*
X162684811Y-110712698D01*
X162995880Y-110247151D01*
X163105113Y-109698000D01*
X162995880Y-109148849D01*
X162684811Y-108683302D01*
X162302725Y-108428000D01*
X162684811Y-108172698D01*
X162995880Y-107707151D01*
X163105113Y-107158000D01*
X162995880Y-106608849D01*
X162684811Y-106143302D01*
X162540535Y-106046899D01*
X162677317Y-106021162D01*
X162893441Y-105882090D01*
X163038431Y-105669890D01*
X163089440Y-105418000D01*
X163089440Y-103818000D01*
X163045162Y-103582683D01*
X162906090Y-103366559D01*
X162693890Y-103221569D01*
X162442000Y-103170560D01*
X160842000Y-103170560D01*
X160606683Y-103214838D01*
X160390559Y-103353910D01*
X160245569Y-103566110D01*
X160194560Y-103818000D01*
X160194560Y-105418000D01*
X160238838Y-105653317D01*
X160377910Y-105869441D01*
X160590110Y-106014431D01*
X160745089Y-106045815D01*
X160599189Y-106143302D01*
X160288120Y-106608849D01*
X160178887Y-107158000D01*
X155104113Y-107158000D01*
X154994880Y-106608849D01*
X154683811Y-106143302D01*
X154301725Y-105888000D01*
X154683811Y-105632698D01*
X154994880Y-105167151D01*
X155104113Y-104618000D01*
X154994880Y-104068849D01*
X154683811Y-103603302D01*
X154218264Y-103292233D01*
X153669113Y-103183000D01*
X153612887Y-103183000D01*
X153063736Y-103292233D01*
X152598189Y-103603302D01*
X152287120Y-104068849D01*
X152177887Y-104618000D01*
X152287120Y-105167151D01*
X152598189Y-105632698D01*
X152980275Y-105888000D01*
X152598189Y-106143302D01*
X152287120Y-106608849D01*
X152177887Y-107158000D01*
X152287120Y-107707151D01*
X152598189Y-108172698D01*
X152980275Y-108428000D01*
X152598189Y-108683302D01*
X152517498Y-108804065D01*
X150529500Y-106816066D01*
X150529500Y-100387934D01*
X153017440Y-97899994D01*
X153280943Y-97791117D01*
X153544192Y-97528327D01*
X153686838Y-97184799D01*
X153687162Y-96812833D01*
X153545117Y-96469057D01*
X153282327Y-96205808D01*
X152938799Y-96063162D01*
X152566833Y-96062838D01*
X152223057Y-96204883D01*
X151959808Y-96467673D01*
X151849682Y-96732884D01*
X149120283Y-99462283D01*
X148941337Y-99730094D01*
X148941337Y-99730095D01*
X148878500Y-100046000D01*
X148878500Y-107158000D01*
X148941337Y-107473906D01*
X149120283Y-107741717D01*
X151660281Y-110281714D01*
X151660283Y-110281717D01*
X151928095Y-110460663D01*
X152244000Y-110523500D01*
X152471771Y-110523500D01*
X152598189Y-110712698D01*
X152980275Y-110968000D01*
X152598189Y-111223302D01*
X152287120Y-111688849D01*
X152177887Y-112238000D01*
X152226943Y-112484623D01*
X151013066Y-113698500D01*
X144457933Y-113698500D01*
X143346473Y-112587039D01*
X144629096Y-112587039D01*
X144789959Y-112975423D01*
X145165866Y-113390389D01*
X145671959Y-113629914D01*
X145894000Y-113508629D01*
X145894000Y-112365000D01*
X146148000Y-112365000D01*
X146148000Y-113508629D01*
X146370041Y-113629914D01*
X146876134Y-113390389D01*
X147252041Y-112975423D01*
X147412904Y-112587039D01*
X147290915Y-112365000D01*
X146148000Y-112365000D01*
X145894000Y-112365000D01*
X144751085Y-112365000D01*
X144629096Y-112587039D01*
X143346473Y-112587039D01*
X140598127Y-109838693D01*
X140626113Y-109698000D01*
X140516880Y-109148849D01*
X140205811Y-108683302D01*
X139823725Y-108428000D01*
X140205811Y-108172698D01*
X140516880Y-107707151D01*
X140626113Y-107158000D01*
X144557887Y-107158000D01*
X144667120Y-107707151D01*
X144978189Y-108172698D01*
X145360275Y-108428000D01*
X144978189Y-108683302D01*
X144667120Y-109148849D01*
X144557887Y-109698000D01*
X144667120Y-110247151D01*
X144978189Y-110712698D01*
X145382703Y-110982986D01*
X145165866Y-111085611D01*
X144789959Y-111500577D01*
X144629096Y-111888961D01*
X144751085Y-112111000D01*
X145894000Y-112111000D01*
X145894000Y-112091000D01*
X146148000Y-112091000D01*
X146148000Y-112111000D01*
X147290915Y-112111000D01*
X147412904Y-111888961D01*
X147252041Y-111500577D01*
X146876134Y-111085611D01*
X146659297Y-110982986D01*
X147063811Y-110712698D01*
X147374880Y-110247151D01*
X147484113Y-109698000D01*
X147374880Y-109148849D01*
X147063811Y-108683302D01*
X146681725Y-108428000D01*
X147063811Y-108172698D01*
X147374880Y-107707151D01*
X147484113Y-107158000D01*
X147374880Y-106608849D01*
X147063811Y-106143302D01*
X146919535Y-106046899D01*
X147056317Y-106021162D01*
X147272441Y-105882090D01*
X147417431Y-105669890D01*
X147468440Y-105418000D01*
X147468440Y-103818000D01*
X147424162Y-103582683D01*
X147285090Y-103366559D01*
X147072890Y-103221569D01*
X146821000Y-103170560D01*
X145221000Y-103170560D01*
X144985683Y-103214838D01*
X144769559Y-103353910D01*
X144624569Y-103566110D01*
X144573560Y-103818000D01*
X144573560Y-105418000D01*
X144617838Y-105653317D01*
X144756910Y-105869441D01*
X144969110Y-106014431D01*
X145124089Y-106045815D01*
X144978189Y-106143302D01*
X144667120Y-106608849D01*
X144557887Y-107158000D01*
X140626113Y-107158000D01*
X140516880Y-106608849D01*
X140205811Y-106143302D01*
X139823725Y-105888000D01*
X140205811Y-105632698D01*
X140516880Y-105167151D01*
X140626113Y-104618000D01*
X140516880Y-104068849D01*
X140205811Y-103603302D01*
X139740264Y-103292233D01*
X139191113Y-103183000D01*
X139134887Y-103183000D01*
X138585736Y-103292233D01*
X138120189Y-103603302D01*
X137809120Y-104068849D01*
X137699887Y-104618000D01*
X137809120Y-105167151D01*
X138120189Y-105632698D01*
X138502275Y-105888000D01*
X138120189Y-106143302D01*
X137809120Y-106608849D01*
X137699887Y-107158000D01*
X137809120Y-107707151D01*
X138120189Y-108172698D01*
X138502275Y-108428000D01*
X138120189Y-108683302D01*
X137993771Y-108872500D01*
X137091933Y-108872500D01*
X134793717Y-106574283D01*
X134525906Y-106395337D01*
X134210000Y-106332500D01*
X132712229Y-106332500D01*
X132585811Y-106143302D01*
X132441535Y-106046899D01*
X132578317Y-106021162D01*
X132794441Y-105882090D01*
X132939431Y-105669890D01*
X132990440Y-105418000D01*
X132990440Y-103818000D01*
X132946162Y-103582683D01*
X132807090Y-103366559D01*
X132594890Y-103221569D01*
X132343000Y-103170560D01*
X130743000Y-103170560D01*
X130507683Y-103214838D01*
X130291559Y-103353910D01*
X130146569Y-103566110D01*
X130095560Y-103818000D01*
X130095560Y-105418000D01*
X130139838Y-105653317D01*
X130278910Y-105869441D01*
X130491110Y-106014431D01*
X130646089Y-106045815D01*
X130500189Y-106143302D01*
X130189120Y-106608849D01*
X130079887Y-107158000D01*
X124586656Y-107158000D01*
X124347212Y-106726394D01*
X123876752Y-106352446D01*
X123299000Y-106187000D01*
X122399000Y-106187000D01*
X122145000Y-106187000D01*
X121245000Y-106187000D01*
X120667248Y-106352446D01*
X120196788Y-106726394D01*
X119905244Y-107251914D01*
X119880964Y-107357260D01*
X117573000Y-107357260D01*
X117573000Y-96606000D01*
X119824560Y-96606000D01*
X119824560Y-98406000D01*
X119868838Y-98641317D01*
X120007910Y-98857441D01*
X120220110Y-99002431D01*
X120472000Y-99053440D01*
X124072000Y-99053440D01*
X124307317Y-99009162D01*
X124523441Y-98870090D01*
X124668431Y-98657890D01*
X124719440Y-98406000D01*
X124719440Y-96606000D01*
X124675162Y-96370683D01*
X124536090Y-96154559D01*
X124323890Y-96009569D01*
X124072000Y-95958560D01*
X120472000Y-95958560D01*
X120236683Y-96002838D01*
X120020559Y-96141910D01*
X119875569Y-96354110D01*
X119824560Y-96606000D01*
X117573000Y-96606000D01*
X117573000Y-94370740D01*
X119880964Y-94370740D01*
X119905244Y-94476086D01*
X120196788Y-95001606D01*
X120667248Y-95375554D01*
X121245000Y-95541000D01*
X122145000Y-95541000D01*
X122145000Y-94133000D01*
X122399000Y-94133000D01*
X122399000Y-95541000D01*
X123299000Y-95541000D01*
X123876752Y-95375554D01*
X124347212Y-95001606D01*
X124638756Y-94476086D01*
X124663036Y-94370740D01*
X124542378Y-94133000D01*
X122399000Y-94133000D01*
X122145000Y-94133000D01*
X120001622Y-94133000D01*
X119880964Y-94370740D01*
X117573000Y-94370740D01*
X117573000Y-93641260D01*
X119880964Y-93641260D01*
X120001622Y-93879000D01*
X122145000Y-93879000D01*
X122145000Y-92471000D01*
X122399000Y-92471000D01*
X122399000Y-93879000D01*
X124542378Y-93879000D01*
X124663036Y-93641260D01*
X124638756Y-93535914D01*
X124347212Y-93010394D01*
X123876752Y-92636446D01*
X123299000Y-92471000D01*
X122399000Y-92471000D01*
X122145000Y-92471000D01*
X121245000Y-92471000D01*
X120667248Y-92636446D01*
X120196788Y-93010394D01*
X119905244Y-93535914D01*
X119880964Y-93641260D01*
X117573000Y-93641260D01*
X117573000Y-90506000D01*
X119789296Y-90506000D01*
X119906141Y-91093419D01*
X120238887Y-91591409D01*
X120736877Y-91924155D01*
X121324296Y-92041000D01*
X123219704Y-92041000D01*
X123807123Y-91924155D01*
X124305113Y-91591409D01*
X124436349Y-91395000D01*
X126144810Y-91395000D01*
X126022671Y-91577794D01*
X125955000Y-91918000D01*
X125955000Y-99677764D01*
X122945764Y-102687000D01*
X121324296Y-102687000D01*
X120736877Y-102803845D01*
X120238887Y-103136591D01*
X119906141Y-103634581D01*
X119789296Y-104222000D01*
X119906141Y-104809419D01*
X120238887Y-105307409D01*
X120736877Y-105640155D01*
X121324296Y-105757000D01*
X123219704Y-105757000D01*
X123807123Y-105640155D01*
X124305113Y-105307409D01*
X124637859Y-104809419D01*
X124754704Y-104222000D01*
X124637859Y-103634581D01*
X124587709Y-103559527D01*
X127472618Y-100674618D01*
X127502620Y-100629717D01*
X127665329Y-100386206D01*
X127733000Y-100046000D01*
X127733000Y-92286236D01*
X128624236Y-91395000D01*
X135114000Y-91395000D01*
X135454206Y-91327329D01*
X135742618Y-91134618D01*
X138388236Y-88489000D01*
X143768261Y-88489000D01*
X143919591Y-88715481D01*
X144417581Y-89048227D01*
X145005000Y-89165072D01*
X145592419Y-89048227D01*
X146090409Y-88715481D01*
X146423155Y-88217491D01*
X146540000Y-87630072D01*
X146540000Y-87569928D01*
X146423155Y-86982509D01*
X146090409Y-86484519D01*
X145852418Y-86325499D01*
X146242966Y-85967576D01*
X146496046Y-85424742D01*
X146375997Y-85187000D01*
X145132000Y-85187000D01*
X145132000Y-85207000D01*
X144878000Y-85207000D01*
X144878000Y-85187000D01*
X143634003Y-85187000D01*
X143513954Y-85424742D01*
X143767034Y-85967576D01*
X144157582Y-86325499D01*
X143919591Y-86484519D01*
X143768261Y-86711000D01*
X138020000Y-86711000D01*
X137679795Y-86778670D01*
X137391382Y-86971382D01*
X134745764Y-89617000D01*
X124436349Y-89617000D01*
X124305113Y-89420591D01*
X123807123Y-89087845D01*
X123219704Y-88971000D01*
X121324296Y-88971000D01*
X120736877Y-89087845D01*
X120238887Y-89420591D01*
X119906141Y-89918581D01*
X119789296Y-90506000D01*
X117573000Y-90506000D01*
X117573000Y-82009482D01*
X118309336Y-82009482D01*
X118891950Y-83419515D01*
X119969811Y-84499259D01*
X121378825Y-85084333D01*
X122904482Y-85085664D01*
X124314515Y-84503050D01*
X125394259Y-83425189D01*
X125756942Y-82551750D01*
X129373000Y-82551750D01*
X129373000Y-84192310D01*
X129469673Y-84425699D01*
X129648302Y-84604327D01*
X129881691Y-84701000D01*
X130622250Y-84701000D01*
X130781000Y-84542250D01*
X130781000Y-82393000D01*
X131035000Y-82393000D01*
X131035000Y-84542250D01*
X131193750Y-84701000D01*
X131934309Y-84701000D01*
X132167698Y-84604327D01*
X132346327Y-84425699D01*
X132443000Y-84192310D01*
X132443000Y-82551750D01*
X132284250Y-82393000D01*
X131035000Y-82393000D01*
X130781000Y-82393000D01*
X129531750Y-82393000D01*
X129373000Y-82551750D01*
X125756942Y-82551750D01*
X125979333Y-82016175D01*
X125980664Y-80490518D01*
X125918344Y-80339690D01*
X129373000Y-80339690D01*
X129373000Y-81980250D01*
X129531750Y-82139000D01*
X130781000Y-82139000D01*
X130781000Y-79989750D01*
X131035000Y-79989750D01*
X131035000Y-82139000D01*
X132284250Y-82139000D01*
X132443000Y-81980250D01*
X132443000Y-81318296D01*
X132873000Y-81318296D01*
X132873000Y-83213704D01*
X132989845Y-83801123D01*
X133322591Y-84299113D01*
X133820581Y-84631859D01*
X134408000Y-84748704D01*
X134995419Y-84631859D01*
X135493409Y-84299113D01*
X135826155Y-83801123D01*
X135943000Y-83213704D01*
X135943000Y-81620000D01*
X143457560Y-81620000D01*
X143457560Y-83420000D01*
X143501838Y-83655317D01*
X143640910Y-83871441D01*
X143853110Y-84016431D01*
X143904146Y-84026766D01*
X143767034Y-84152424D01*
X143513954Y-84695258D01*
X143634003Y-84933000D01*
X144878000Y-84933000D01*
X144878000Y-84913000D01*
X145132000Y-84913000D01*
X145132000Y-84933000D01*
X146375997Y-84933000D01*
X146496046Y-84695258D01*
X146247778Y-84162745D01*
X150566861Y-84162745D01*
X150640995Y-84408864D01*
X151178223Y-84601965D01*
X151748454Y-84574778D01*
X152149005Y-84408864D01*
X152223139Y-84162745D01*
X151395000Y-83334605D01*
X150566861Y-84162745D01*
X146247778Y-84162745D01*
X146242966Y-84152424D01*
X146108462Y-84029156D01*
X146140317Y-84023162D01*
X146356441Y-83884090D01*
X146501431Y-83671890D01*
X146552440Y-83420000D01*
X146552440Y-82938223D01*
X149948035Y-82938223D01*
X149975222Y-83508454D01*
X150141136Y-83909005D01*
X150387255Y-83983139D01*
X151215395Y-83155000D01*
X151574605Y-83155000D01*
X152402745Y-83983139D01*
X152450167Y-83968855D01*
X152491838Y-84190317D01*
X152630910Y-84406441D01*
X152843110Y-84551431D01*
X153095000Y-84602440D01*
X154695000Y-84602440D01*
X154930317Y-84558162D01*
X155146441Y-84419090D01*
X155291431Y-84206890D01*
X155342440Y-83955000D01*
X155342440Y-82405000D01*
X157242560Y-82405000D01*
X157242560Y-83905000D01*
X157286838Y-84140317D01*
X157425910Y-84356441D01*
X157638110Y-84501431D01*
X157890000Y-84552440D01*
X158790000Y-84552440D01*
X159025317Y-84508162D01*
X159129655Y-84441022D01*
X159194788Y-84484543D01*
X159610000Y-84567134D01*
X159991000Y-84491348D01*
X159991000Y-85326764D01*
X158981382Y-86336382D01*
X158788671Y-86624794D01*
X158721000Y-86965000D01*
X158721000Y-88742560D01*
X157890000Y-88742560D01*
X157654683Y-88786838D01*
X157438559Y-88925910D01*
X157293569Y-89138110D01*
X157242560Y-89390000D01*
X157242560Y-90890000D01*
X157286838Y-91125317D01*
X157425910Y-91341441D01*
X157638110Y-91486431D01*
X157890000Y-91537440D01*
X158790000Y-91537440D01*
X159025317Y-91493162D01*
X159129655Y-91426022D01*
X159194788Y-91469543D01*
X159610000Y-91552134D01*
X160025212Y-91469543D01*
X160249274Y-91319830D01*
X160585999Y-91484408D01*
X160753000Y-91357502D01*
X160753000Y-90267000D01*
X161007000Y-90267000D01*
X161007000Y-91357502D01*
X161174001Y-91484408D01*
X161557408Y-91297013D01*
X161833808Y-90972544D01*
X161965000Y-90567000D01*
X161965000Y-90267000D01*
X161007000Y-90267000D01*
X160753000Y-90267000D01*
X160733000Y-90267000D01*
X160733000Y-90013000D01*
X160753000Y-90013000D01*
X160753000Y-88922498D01*
X161007000Y-88922498D01*
X161007000Y-90013000D01*
X161965000Y-90013000D01*
X161965000Y-89713000D01*
X161833808Y-89307456D01*
X161557408Y-88982987D01*
X161174001Y-88795592D01*
X161007000Y-88922498D01*
X160753000Y-88922498D01*
X160585999Y-88795592D01*
X160499000Y-88838114D01*
X160499000Y-87333236D01*
X161508618Y-86323618D01*
X161623441Y-86151773D01*
X161701329Y-86035206D01*
X161769000Y-85695000D01*
X161769000Y-84067075D01*
X161882409Y-83897346D01*
X161965000Y-83482134D01*
X161965000Y-82827866D01*
X161882409Y-82412654D01*
X161843886Y-82355000D01*
X163877560Y-82355000D01*
X163877560Y-83955000D01*
X163921838Y-84190317D01*
X164060910Y-84406441D01*
X164273110Y-84551431D01*
X164525000Y-84602440D01*
X166125000Y-84602440D01*
X166360317Y-84558162D01*
X166576441Y-84419090D01*
X166721431Y-84206890D01*
X166730370Y-84162745D01*
X166996861Y-84162745D01*
X167070995Y-84408864D01*
X167608223Y-84601965D01*
X168178454Y-84574778D01*
X168579005Y-84408864D01*
X168653139Y-84162745D01*
X167825000Y-83334605D01*
X166996861Y-84162745D01*
X166730370Y-84162745D01*
X166769646Y-83968799D01*
X166817255Y-83983139D01*
X167645395Y-83155000D01*
X168004605Y-83155000D01*
X168832745Y-83983139D01*
X169078864Y-83909005D01*
X169271965Y-83371777D01*
X169244778Y-82801546D01*
X169078864Y-82400995D01*
X168832745Y-82326861D01*
X168004605Y-83155000D01*
X167645395Y-83155000D01*
X166817255Y-82326861D01*
X166769833Y-82341145D01*
X166733351Y-82147255D01*
X166996861Y-82147255D01*
X167825000Y-82975395D01*
X168653139Y-82147255D01*
X168579005Y-81901136D01*
X168041777Y-81708035D01*
X167471546Y-81735222D01*
X167070995Y-81901136D01*
X166996861Y-82147255D01*
X166733351Y-82147255D01*
X166728162Y-82119683D01*
X166589090Y-81903559D01*
X166376890Y-81758569D01*
X166125000Y-81707560D01*
X164525000Y-81707560D01*
X164289683Y-81751838D01*
X164073559Y-81890910D01*
X163928569Y-82103110D01*
X163877560Y-82355000D01*
X161843886Y-82355000D01*
X161647211Y-82060655D01*
X161295212Y-81825457D01*
X160880000Y-81742866D01*
X160464788Y-81825457D01*
X160245000Y-81972315D01*
X160025212Y-81825457D01*
X159610000Y-81742866D01*
X159194788Y-81825457D01*
X159129981Y-81868759D01*
X159041890Y-81808569D01*
X158790000Y-81757560D01*
X157890000Y-81757560D01*
X157654683Y-81801838D01*
X157438559Y-81940910D01*
X157293569Y-82153110D01*
X157242560Y-82405000D01*
X155342440Y-82405000D01*
X155342440Y-82355000D01*
X155298162Y-82119683D01*
X155159090Y-81903559D01*
X154946890Y-81758569D01*
X154695000Y-81707560D01*
X153095000Y-81707560D01*
X152859683Y-81751838D01*
X152643559Y-81890910D01*
X152498569Y-82103110D01*
X152450354Y-82341201D01*
X152402745Y-82326861D01*
X151574605Y-83155000D01*
X151215395Y-83155000D01*
X150387255Y-82326861D01*
X150141136Y-82400995D01*
X149948035Y-82938223D01*
X146552440Y-82938223D01*
X146552440Y-82147255D01*
X150566861Y-82147255D01*
X151395000Y-82975395D01*
X152223139Y-82147255D01*
X152149005Y-81901136D01*
X151611777Y-81708035D01*
X151041546Y-81735222D01*
X150640995Y-81901136D01*
X150566861Y-82147255D01*
X146552440Y-82147255D01*
X146552440Y-81620000D01*
X146508162Y-81384683D01*
X146369090Y-81168559D01*
X146156890Y-81023569D01*
X145905000Y-80972560D01*
X144105000Y-80972560D01*
X143869683Y-81016838D01*
X143653559Y-81155910D01*
X143508569Y-81368110D01*
X143457560Y-81620000D01*
X135943000Y-81620000D01*
X135943000Y-81318296D01*
X135826155Y-80730877D01*
X135493409Y-80232887D01*
X135082012Y-79958000D01*
X172032560Y-79958000D01*
X172032560Y-83558000D01*
X172076838Y-83793317D01*
X172215910Y-84009441D01*
X172428110Y-84154431D01*
X172680000Y-84205440D01*
X174480000Y-84205440D01*
X174715317Y-84161162D01*
X174931441Y-84022090D01*
X175076431Y-83809890D01*
X175127440Y-83558000D01*
X175127440Y-80810296D01*
X175545000Y-80810296D01*
X175545000Y-82705704D01*
X175661845Y-83293123D01*
X175994591Y-83791113D01*
X176492581Y-84123859D01*
X177080000Y-84240704D01*
X177667419Y-84123859D01*
X178165409Y-83791113D01*
X178498155Y-83293123D01*
X178615000Y-82705704D01*
X178615000Y-80810296D01*
X179045000Y-80810296D01*
X179045000Y-82705704D01*
X179161845Y-83293123D01*
X179494591Y-83791113D01*
X179992581Y-84123859D01*
X180580000Y-84240704D01*
X181167419Y-84123859D01*
X181665409Y-83791113D01*
X181998155Y-83293123D01*
X182115000Y-82705704D01*
X182115000Y-80810296D01*
X182545000Y-80810296D01*
X182545000Y-82705704D01*
X182661845Y-83293123D01*
X182994591Y-83791113D01*
X183492581Y-84123859D01*
X184080000Y-84240704D01*
X184667419Y-84123859D01*
X185165409Y-83791113D01*
X185498155Y-83293123D01*
X185615000Y-82705704D01*
X185615000Y-80810296D01*
X186045000Y-80810296D01*
X186045000Y-82705704D01*
X186161845Y-83293123D01*
X186494591Y-83791113D01*
X186992581Y-84123859D01*
X187580000Y-84240704D01*
X188167419Y-84123859D01*
X188665409Y-83791113D01*
X188998155Y-83293123D01*
X189115000Y-82705704D01*
X189115000Y-80810296D01*
X189545000Y-80810296D01*
X189545000Y-82705704D01*
X189661845Y-83293123D01*
X189994591Y-83791113D01*
X190492581Y-84123859D01*
X191080000Y-84240704D01*
X191667419Y-84123859D01*
X192165409Y-83791113D01*
X192498155Y-83293123D01*
X192615000Y-82705704D01*
X192615000Y-80810296D01*
X193045000Y-80810296D01*
X193045000Y-82705704D01*
X193161845Y-83293123D01*
X193494591Y-83791113D01*
X193992581Y-84123859D01*
X194580000Y-84240704D01*
X195167419Y-84123859D01*
X195665409Y-83791113D01*
X195998155Y-83293123D01*
X196115000Y-82705704D01*
X196115000Y-80810296D01*
X196545000Y-80810296D01*
X196545000Y-82705704D01*
X196661845Y-83293123D01*
X196994591Y-83791113D01*
X197492581Y-84123859D01*
X198080000Y-84240704D01*
X198667419Y-84123859D01*
X199165409Y-83791113D01*
X199498155Y-83293123D01*
X199615000Y-82705704D01*
X199615000Y-82009482D01*
X202129336Y-82009482D01*
X202711950Y-83419515D01*
X203789811Y-84499259D01*
X205198825Y-85084333D01*
X206724482Y-85085664D01*
X208134515Y-84503050D01*
X209214259Y-83425189D01*
X209799333Y-82016175D01*
X209800664Y-80490518D01*
X209218050Y-79080485D01*
X208140189Y-78000741D01*
X206731175Y-77415667D01*
X205205518Y-77414336D01*
X203795485Y-77996950D01*
X202715741Y-79074811D01*
X202130667Y-80483825D01*
X202129336Y-82009482D01*
X199615000Y-82009482D01*
X199615000Y-80810296D01*
X199498155Y-80222877D01*
X199165409Y-79724887D01*
X198667419Y-79392141D01*
X198080000Y-79275296D01*
X197492581Y-79392141D01*
X196994591Y-79724887D01*
X196661845Y-80222877D01*
X196545000Y-80810296D01*
X196115000Y-80810296D01*
X195998155Y-80222877D01*
X195665409Y-79724887D01*
X195167419Y-79392141D01*
X194580000Y-79275296D01*
X193992581Y-79392141D01*
X193494591Y-79724887D01*
X193161845Y-80222877D01*
X193045000Y-80810296D01*
X192615000Y-80810296D01*
X192498155Y-80222877D01*
X192165409Y-79724887D01*
X191667419Y-79392141D01*
X191080000Y-79275296D01*
X190492581Y-79392141D01*
X189994591Y-79724887D01*
X189661845Y-80222877D01*
X189545000Y-80810296D01*
X189115000Y-80810296D01*
X188998155Y-80222877D01*
X188665409Y-79724887D01*
X188167419Y-79392141D01*
X187580000Y-79275296D01*
X186992581Y-79392141D01*
X186494591Y-79724887D01*
X186161845Y-80222877D01*
X186045000Y-80810296D01*
X185615000Y-80810296D01*
X185498155Y-80222877D01*
X185165409Y-79724887D01*
X184667419Y-79392141D01*
X184080000Y-79275296D01*
X183492581Y-79392141D01*
X182994591Y-79724887D01*
X182661845Y-80222877D01*
X182545000Y-80810296D01*
X182115000Y-80810296D01*
X181998155Y-80222877D01*
X181665409Y-79724887D01*
X181167419Y-79392141D01*
X180580000Y-79275296D01*
X179992581Y-79392141D01*
X179494591Y-79724887D01*
X179161845Y-80222877D01*
X179045000Y-80810296D01*
X178615000Y-80810296D01*
X178498155Y-80222877D01*
X178165409Y-79724887D01*
X177667419Y-79392141D01*
X177080000Y-79275296D01*
X176492581Y-79392141D01*
X175994591Y-79724887D01*
X175661845Y-80222877D01*
X175545000Y-80810296D01*
X175127440Y-80810296D01*
X175127440Y-79958000D01*
X175083162Y-79722683D01*
X174944090Y-79506559D01*
X174731890Y-79361569D01*
X174480000Y-79310560D01*
X172680000Y-79310560D01*
X172444683Y-79354838D01*
X172228559Y-79493910D01*
X172083569Y-79706110D01*
X172032560Y-79958000D01*
X135082012Y-79958000D01*
X134995419Y-79900141D01*
X134408000Y-79783296D01*
X133820581Y-79900141D01*
X133322591Y-80232887D01*
X132989845Y-80730877D01*
X132873000Y-81318296D01*
X132443000Y-81318296D01*
X132443000Y-80339690D01*
X132346327Y-80106301D01*
X132167698Y-79927673D01*
X131934309Y-79831000D01*
X131193750Y-79831000D01*
X131035000Y-79989750D01*
X130781000Y-79989750D01*
X130622250Y-79831000D01*
X129881691Y-79831000D01*
X129648302Y-79927673D01*
X129469673Y-80106301D01*
X129373000Y-80339690D01*
X125918344Y-80339690D01*
X125398050Y-79080485D01*
X124320189Y-78000741D01*
X122911175Y-77415667D01*
X121385518Y-77414336D01*
X119975485Y-77996950D01*
X118895741Y-79074811D01*
X118310667Y-80483825D01*
X118309336Y-82009482D01*
X117573000Y-82009482D01*
X117573000Y-76043000D01*
X210283000Y-76043000D01*
X210283000Y-126081000D01*
X210283000Y-126081000D01*
G37*
X210283000Y-126081000D02*
X117573000Y-126081000D01*
X117573000Y-122014482D01*
X118309336Y-122014482D01*
X118891950Y-123424515D01*
X119969811Y-124504259D01*
X121378825Y-125089333D01*
X122904482Y-125090664D01*
X124314515Y-124508050D01*
X125394259Y-123430189D01*
X125979333Y-122021175D01*
X125980664Y-120495518D01*
X125535565Y-119418296D01*
X132081000Y-119418296D01*
X132081000Y-121313704D01*
X132197845Y-121901123D01*
X132530591Y-122399113D01*
X133028581Y-122731859D01*
X133616000Y-122848704D01*
X134203419Y-122731859D01*
X134701409Y-122399113D01*
X135034155Y-121901123D01*
X135151000Y-121313704D01*
X135151000Y-119418296D01*
X135581000Y-119418296D01*
X135581000Y-121313704D01*
X135697845Y-121901123D01*
X136030591Y-122399113D01*
X136528581Y-122731859D01*
X137116000Y-122848704D01*
X137703419Y-122731859D01*
X138201409Y-122399113D01*
X138534155Y-121901123D01*
X138651000Y-121313704D01*
X138651000Y-120493000D01*
X139081000Y-120493000D01*
X139081000Y-121393000D01*
X139246446Y-121970752D01*
X139620394Y-122441212D01*
X140145914Y-122732756D01*
X140251260Y-122757036D01*
X140489000Y-122636378D01*
X140489000Y-120493000D01*
X140743000Y-120493000D01*
X140743000Y-122636378D01*
X140980740Y-122757036D01*
X141086086Y-122732756D01*
X141611606Y-122441212D01*
X141985554Y-121970752D01*
X142151000Y-121393000D01*
X142151000Y-120493000D01*
X140743000Y-120493000D01*
X140489000Y-120493000D01*
X139081000Y-120493000D01*
X138651000Y-120493000D01*
X138651000Y-119418296D01*
X138635228Y-119339000D01*
X139081000Y-119339000D01*
X139081000Y-120239000D01*
X140489000Y-120239000D01*
X140489000Y-118095622D01*
X140743000Y-118095622D01*
X140743000Y-120239000D01*
X142151000Y-120239000D01*
X142151000Y-119339000D01*
X141985554Y-118761248D01*
X141830360Y-118566000D01*
X142568560Y-118566000D01*
X142568560Y-122166000D01*
X142612838Y-122401317D01*
X142751910Y-122617441D01*
X142964110Y-122762431D01*
X143216000Y-122813440D01*
X145016000Y-122813440D01*
X145251317Y-122769162D01*
X145467441Y-122630090D01*
X145612431Y-122417890D01*
X145663440Y-122166000D01*
X145663440Y-119418296D01*
X150369000Y-119418296D01*
X150369000Y-121313704D01*
X150485845Y-121901123D01*
X150818591Y-122399113D01*
X151316581Y-122731859D01*
X151904000Y-122848704D01*
X152491419Y-122731859D01*
X152989409Y-122399113D01*
X153322155Y-121901123D01*
X153439000Y-121313704D01*
X153439000Y-119418296D01*
X153869000Y-119418296D01*
X153869000Y-121313704D01*
X153985845Y-121901123D01*
X154318591Y-122399113D01*
X154816581Y-122731859D01*
X155404000Y-122848704D01*
X155991419Y-122731859D01*
X156489409Y-122399113D01*
X156822155Y-121901123D01*
X156939000Y-121313704D01*
X156939000Y-120493000D01*
X157369000Y-120493000D01*
X157369000Y-121393000D01*
X157534446Y-121970752D01*
X157908394Y-122441212D01*
X158433914Y-122732756D01*
X158539260Y-122757036D01*
X158777000Y-122636378D01*
X158777000Y-120493000D01*
X159031000Y-120493000D01*
X159031000Y-122636378D01*
X159268740Y-122757036D01*
X159374086Y-122732756D01*
X159899606Y-122441212D01*
X160273554Y-121970752D01*
X160439000Y-121393000D01*
X160439000Y-120493000D01*
X159031000Y-120493000D01*
X158777000Y-120493000D01*
X157369000Y-120493000D01*
X156939000Y-120493000D01*
X156939000Y-119418296D01*
X156923228Y-119339000D01*
X157369000Y-119339000D01*
X157369000Y-120239000D01*
X158777000Y-120239000D01*
X158777000Y-118095622D01*
X159031000Y-118095622D01*
X159031000Y-120239000D01*
X160439000Y-120239000D01*
X160439000Y-119339000D01*
X160273554Y-118761248D01*
X160118360Y-118566000D01*
X160856560Y-118566000D01*
X160856560Y-122166000D01*
X160900838Y-122401317D01*
X161039910Y-122617441D01*
X161252110Y-122762431D01*
X161504000Y-122813440D01*
X163304000Y-122813440D01*
X163539317Y-122769162D01*
X163755441Y-122630090D01*
X163900431Y-122417890D01*
X163951440Y-122166000D01*
X163951440Y-119418296D01*
X167641000Y-119418296D01*
X167641000Y-121313704D01*
X167757845Y-121901123D01*
X168090591Y-122399113D01*
X168588581Y-122731859D01*
X169176000Y-122848704D01*
X169763419Y-122731859D01*
X170261409Y-122399113D01*
X170594155Y-121901123D01*
X170711000Y-121313704D01*
X170711000Y-119418296D01*
X171141000Y-119418296D01*
X171141000Y-121313704D01*
X171257845Y-121901123D01*
X171590591Y-122399113D01*
X172088581Y-122731859D01*
X172676000Y-122848704D01*
X173263419Y-122731859D01*
X173761409Y-122399113D01*
X174094155Y-121901123D01*
X174211000Y-121313704D01*
X174211000Y-120493000D01*
X174641000Y-120493000D01*
X174641000Y-121393000D01*
X174806446Y-121970752D01*
X175180394Y-122441212D01*
X175705914Y-122732756D01*
X175811260Y-122757036D01*
X176049000Y-122636378D01*
X176049000Y-120493000D01*
X176303000Y-120493000D01*
X176303000Y-122636378D01*
X176540740Y-122757036D01*
X176646086Y-122732756D01*
X177171606Y-122441212D01*
X177545554Y-121970752D01*
X177711000Y-121393000D01*
X177711000Y-120493000D01*
X176303000Y-120493000D01*
X176049000Y-120493000D01*
X174641000Y-120493000D01*
X174211000Y-120493000D01*
X174211000Y-119418296D01*
X174195228Y-119339000D01*
X174641000Y-119339000D01*
X174641000Y-120239000D01*
X176049000Y-120239000D01*
X176049000Y-118095622D01*
X176303000Y-118095622D01*
X176303000Y-120239000D01*
X177711000Y-120239000D01*
X177711000Y-119339000D01*
X177545554Y-118761248D01*
X177390360Y-118566000D01*
X178128560Y-118566000D01*
X178128560Y-122166000D01*
X178172838Y-122401317D01*
X178311910Y-122617441D01*
X178524110Y-122762431D01*
X178776000Y-122813440D01*
X180576000Y-122813440D01*
X180811317Y-122769162D01*
X181027441Y-122630090D01*
X181172431Y-122417890D01*
X181223440Y-122166000D01*
X181223440Y-119418296D01*
X184405000Y-119418296D01*
X184405000Y-121313704D01*
X184521845Y-121901123D01*
X184854591Y-122399113D01*
X185352581Y-122731859D01*
X185940000Y-122848704D01*
X186527419Y-122731859D01*
X187025409Y-122399113D01*
X187358155Y-121901123D01*
X187475000Y-121313704D01*
X187475000Y-119418296D01*
X187905000Y-119418296D01*
X187905000Y-121313704D01*
X188021845Y-121901123D01*
X188354591Y-122399113D01*
X188852581Y-122731859D01*
X189440000Y-122848704D01*
X190027419Y-122731859D01*
X190525409Y-122399113D01*
X190858155Y-121901123D01*
X190975000Y-121313704D01*
X190975000Y-120493000D01*
X191405000Y-120493000D01*
X191405000Y-121393000D01*
X191570446Y-121970752D01*
X191944394Y-122441212D01*
X192469914Y-122732756D01*
X192575260Y-122757036D01*
X192813000Y-122636378D01*
X192813000Y-120493000D01*
X193067000Y-120493000D01*
X193067000Y-122636378D01*
X193304740Y-122757036D01*
X193410086Y-122732756D01*
X193935606Y-122441212D01*
X194309554Y-121970752D01*
X194475000Y-121393000D01*
X194475000Y-120493000D01*
X193067000Y-120493000D01*
X192813000Y-120493000D01*
X191405000Y-120493000D01*
X190975000Y-120493000D01*
X190975000Y-119418296D01*
X190959228Y-119339000D01*
X191405000Y-119339000D01*
X191405000Y-120239000D01*
X192813000Y-120239000D01*
X192813000Y-118095622D01*
X193067000Y-118095622D01*
X193067000Y-120239000D01*
X194475000Y-120239000D01*
X194475000Y-119339000D01*
X194309554Y-118761248D01*
X194154360Y-118566000D01*
X194892560Y-118566000D01*
X194892560Y-122166000D01*
X194936838Y-122401317D01*
X195075910Y-122617441D01*
X195288110Y-122762431D01*
X195540000Y-122813440D01*
X197340000Y-122813440D01*
X197575317Y-122769162D01*
X197791441Y-122630090D01*
X197936431Y-122417890D01*
X197987440Y-122166000D01*
X197987440Y-122014482D01*
X202129336Y-122014482D01*
X202711950Y-123424515D01*
X203789811Y-124504259D01*
X205198825Y-125089333D01*
X206724482Y-125090664D01*
X208134515Y-124508050D01*
X209214259Y-123430189D01*
X209799333Y-122021175D01*
X209800664Y-120495518D01*
X209218050Y-119085485D01*
X208140189Y-118005741D01*
X206731175Y-117420667D01*
X205205518Y-117419336D01*
X203795485Y-118001950D01*
X202715741Y-119079811D01*
X202130667Y-120488825D01*
X202129336Y-122014482D01*
X197987440Y-122014482D01*
X197987440Y-118566000D01*
X197943162Y-118330683D01*
X197804090Y-118114559D01*
X197591890Y-117969569D01*
X197340000Y-117918560D01*
X195540000Y-117918560D01*
X195304683Y-117962838D01*
X195088559Y-118101910D01*
X194943569Y-118314110D01*
X194892560Y-118566000D01*
X194154360Y-118566000D01*
X193935606Y-118290788D01*
X193410086Y-117999244D01*
X193304740Y-117974964D01*
X193067000Y-118095622D01*
X192813000Y-118095622D01*
X192575260Y-117974964D01*
X192469914Y-117999244D01*
X191944394Y-118290788D01*
X191570446Y-118761248D01*
X191405000Y-119339000D01*
X190959228Y-119339000D01*
X190858155Y-118830877D01*
X190525409Y-118332887D01*
X190027419Y-118000141D01*
X189440000Y-117883296D01*
X188852581Y-118000141D01*
X188354591Y-118332887D01*
X188021845Y-118830877D01*
X187905000Y-119418296D01*
X187475000Y-119418296D01*
X187358155Y-118830877D01*
X187025409Y-118332887D01*
X186527419Y-118000141D01*
X185940000Y-117883296D01*
X185352581Y-118000141D01*
X184854591Y-118332887D01*
X184521845Y-118830877D01*
X184405000Y-119418296D01*
X181223440Y-119418296D01*
X181223440Y-118566000D01*
X181179162Y-118330683D01*
X181040090Y-118114559D01*
X180827890Y-117969569D01*
X180576000Y-117918560D01*
X178776000Y-117918560D01*
X178540683Y-117962838D01*
X178324559Y-118101910D01*
X178179569Y-118314110D01*
X178128560Y-118566000D01*
X177390360Y-118566000D01*
X177171606Y-118290788D01*
X176646086Y-117999244D01*
X176540740Y-117974964D01*
X176303000Y-118095622D01*
X176049000Y-118095622D01*
X175811260Y-117974964D01*
X175705914Y-117999244D01*
X175180394Y-118290788D01*
X174806446Y-118761248D01*
X174641000Y-119339000D01*
X174195228Y-119339000D01*
X174094155Y-118830877D01*
X173761409Y-118332887D01*
X173263419Y-118000141D01*
X172676000Y-117883296D01*
X172088581Y-118000141D01*
X171590591Y-118332887D01*
X171257845Y-118830877D01*
X171141000Y-119418296D01*
X170711000Y-119418296D01*
X170594155Y-118830877D01*
X170261409Y-118332887D01*
X169763419Y-118000141D01*
X169176000Y-117883296D01*
X168588581Y-118000141D01*
X168090591Y-118332887D01*
X167757845Y-118830877D01*
X167641000Y-119418296D01*
X163951440Y-119418296D01*
X163951440Y-118566000D01*
X163907162Y-118330683D01*
X163768090Y-118114559D01*
X163555890Y-117969569D01*
X163304000Y-117918560D01*
X161504000Y-117918560D01*
X161268683Y-117962838D01*
X161052559Y-118101910D01*
X160907569Y-118314110D01*
X160856560Y-118566000D01*
X160118360Y-118566000D01*
X159899606Y-118290788D01*
X159374086Y-117999244D01*
X159268740Y-117974964D01*
X159031000Y-118095622D01*
X158777000Y-118095622D01*
X158539260Y-117974964D01*
X158433914Y-117999244D01*
X157908394Y-118290788D01*
X157534446Y-118761248D01*
X157369000Y-119339000D01*
X156923228Y-119339000D01*
X156822155Y-118830877D01*
X156489409Y-118332887D01*
X155991419Y-118000141D01*
X155404000Y-117883296D01*
X154816581Y-118000141D01*
X154318591Y-118332887D01*
X153985845Y-118830877D01*
X153869000Y-119418296D01*
X153439000Y-119418296D01*
X153322155Y-118830877D01*
X152989409Y-118332887D01*
X152491419Y-118000141D01*
X151904000Y-117883296D01*
X151316581Y-118000141D01*
X150818591Y-118332887D01*
X150485845Y-118830877D01*
X150369000Y-119418296D01*
X145663440Y-119418296D01*
X145663440Y-118566000D01*
X145619162Y-118330683D01*
X145480090Y-118114559D01*
X145267890Y-117969569D01*
X145016000Y-117918560D01*
X143216000Y-117918560D01*
X142980683Y-117962838D01*
X142764559Y-118101910D01*
X142619569Y-118314110D01*
X142568560Y-118566000D01*
X141830360Y-118566000D01*
X141611606Y-118290788D01*
X141086086Y-117999244D01*
X140980740Y-117974964D01*
X140743000Y-118095622D01*
X140489000Y-118095622D01*
X140251260Y-117974964D01*
X140145914Y-117999244D01*
X139620394Y-118290788D01*
X139246446Y-118761248D01*
X139081000Y-119339000D01*
X138635228Y-119339000D01*
X138534155Y-118830877D01*
X138201409Y-118332887D01*
X137703419Y-118000141D01*
X137116000Y-117883296D01*
X136528581Y-118000141D01*
X136030591Y-118332887D01*
X135697845Y-118830877D01*
X135581000Y-119418296D01*
X135151000Y-119418296D01*
X135034155Y-118830877D01*
X134701409Y-118332887D01*
X134203419Y-118000141D01*
X133616000Y-117883296D01*
X133028581Y-118000141D01*
X132530591Y-118332887D01*
X132197845Y-118830877D01*
X132081000Y-119418296D01*
X125535565Y-119418296D01*
X125398050Y-119085485D01*
X124320189Y-118005741D01*
X122911175Y-117420667D01*
X121385518Y-117419336D01*
X119975485Y-118001950D01*
X118895741Y-119079811D01*
X118310667Y-120488825D01*
X118309336Y-122014482D01*
X117573000Y-122014482D01*
X117573000Y-110322000D01*
X119824560Y-110322000D01*
X119824560Y-112122000D01*
X119868838Y-112357317D01*
X120007910Y-112573441D01*
X120220110Y-112718431D01*
X120472000Y-112769440D01*
X124072000Y-112769440D01*
X124307317Y-112725162D01*
X124521966Y-112587039D01*
X130151096Y-112587039D01*
X130311959Y-112975423D01*
X130687866Y-113390389D01*
X131193959Y-113629914D01*
X131416000Y-113508629D01*
X131416000Y-112365000D01*
X131670000Y-112365000D01*
X131670000Y-113508629D01*
X131892041Y-113629914D01*
X132398134Y-113390389D01*
X132774041Y-112975423D01*
X132934904Y-112587039D01*
X132812915Y-112365000D01*
X131670000Y-112365000D01*
X131416000Y-112365000D01*
X130273085Y-112365000D01*
X130151096Y-112587039D01*
X124521966Y-112587039D01*
X124523441Y-112586090D01*
X124668431Y-112373890D01*
X124719440Y-112122000D01*
X124719440Y-110322000D01*
X124675162Y-110086683D01*
X124536090Y-109870559D01*
X124323890Y-109725569D01*
X124072000Y-109674560D01*
X120472000Y-109674560D01*
X120236683Y-109718838D01*
X120020559Y-109857910D01*
X119875569Y-110070110D01*
X119824560Y-110322000D01*
X117573000Y-110322000D01*
X117573000Y-108086740D01*
X119880964Y-108086740D01*
X119905244Y-108192086D01*
X120196788Y-108717606D01*
X120667248Y-109091554D01*
X121245000Y-109257000D01*
X122145000Y-109257000D01*
X122145000Y-107849000D01*
X122399000Y-107849000D01*
X122399000Y-109257000D01*
X123299000Y-109257000D01*
X123876752Y-109091554D01*
X124347212Y-108717606D01*
X124638756Y-108192086D01*
X124663036Y-108086740D01*
X124542378Y-107849000D01*
X122399000Y-107849000D01*
X122145000Y-107849000D01*
X120001622Y-107849000D01*
X119880964Y-108086740D01*
X117573000Y-108086740D01*
X117573000Y-107357260D01*
X119880964Y-107357260D01*
X120001622Y-107595000D01*
X122145000Y-107595000D01*
X122145000Y-106187000D01*
X122399000Y-106187000D01*
X122399000Y-107595000D01*
X124542378Y-107595000D01*
X124663036Y-107357260D01*
X124638756Y-107251914D01*
X124586656Y-107158000D01*
X130079887Y-107158000D01*
X130189120Y-107707151D01*
X130500189Y-108172698D01*
X130882275Y-108428000D01*
X130500189Y-108683302D01*
X130189120Y-109148849D01*
X130079887Y-109698000D01*
X130189120Y-110247151D01*
X130500189Y-110712698D01*
X130904703Y-110982986D01*
X130687866Y-111085611D01*
X130311959Y-111500577D01*
X130151096Y-111888961D01*
X130273085Y-112111000D01*
X131416000Y-112111000D01*
X131416000Y-112091000D01*
X131670000Y-112091000D01*
X131670000Y-112111000D01*
X132812915Y-112111000D01*
X132934904Y-111888961D01*
X132774041Y-111500577D01*
X132398134Y-111085611D01*
X132181297Y-110982986D01*
X132585811Y-110712698D01*
X132896880Y-110247151D01*
X133006113Y-109698000D01*
X132896880Y-109148849D01*
X132585811Y-108683302D01*
X132203725Y-108428000D01*
X132585811Y-108172698D01*
X132712229Y-107983500D01*
X133868066Y-107983500D01*
X136166281Y-110281714D01*
X136166283Y-110281717D01*
X136434095Y-110460663D01*
X136750000Y-110523500D01*
X137993771Y-110523500D01*
X138120189Y-110712698D01*
X138502275Y-110968000D01*
X138120189Y-111223302D01*
X137809120Y-111688849D01*
X137699887Y-112238000D01*
X137809120Y-112787151D01*
X138120189Y-113252698D01*
X138585736Y-113563767D01*
X139134887Y-113673000D01*
X139191113Y-113673000D01*
X139740264Y-113563767D01*
X140205811Y-113252698D01*
X140516880Y-112787151D01*
X140626113Y-112238000D01*
X140617062Y-112192495D01*
X143532281Y-115107714D01*
X143532283Y-115107717D01*
X143799103Y-115286000D01*
X143800095Y-115286663D01*
X144116000Y-115349501D01*
X144116005Y-115349500D01*
X151355000Y-115349500D01*
X151670906Y-115286663D01*
X151671898Y-115286000D01*
X198789500Y-115286000D01*
X199105406Y-115223163D01*
X199373217Y-115044217D01*
X200784161Y-113633272D01*
X200983887Y-113673000D01*
X201040113Y-113673000D01*
X201589264Y-113563767D01*
X202054811Y-113252698D01*
X202365880Y-112787151D01*
X202475113Y-112238000D01*
X202365880Y-111688849D01*
X202054811Y-111223302D01*
X201672725Y-110968000D01*
X202054811Y-110712698D01*
X202365880Y-110247151D01*
X202475113Y-109698000D01*
X202365880Y-109148849D01*
X202054811Y-108683302D01*
X201672725Y-108428000D01*
X202054811Y-108172698D01*
X202365880Y-107707151D01*
X202475113Y-107158000D01*
X202365880Y-106608849D01*
X202054811Y-106143302D01*
X201672725Y-105888000D01*
X202054811Y-105632698D01*
X202365880Y-105167151D01*
X202475113Y-104618000D01*
X202365880Y-104068849D01*
X202054811Y-103603302D01*
X201589264Y-103292233D01*
X201040113Y-103183000D01*
X200983887Y-103183000D01*
X200434736Y-103292233D01*
X199969189Y-103603302D01*
X199658120Y-104068849D01*
X199548887Y-104618000D01*
X199658120Y-105167151D01*
X199969189Y-105632698D01*
X200351275Y-105888000D01*
X199969189Y-106143302D01*
X199658120Y-106608849D01*
X199548887Y-107158000D01*
X199658120Y-107707151D01*
X199969189Y-108172698D01*
X200351275Y-108428000D01*
X199969189Y-108683302D01*
X199842771Y-108872500D01*
X199829933Y-108872500D01*
X196757500Y-105800066D01*
X196757500Y-98464113D01*
X196866838Y-98200799D01*
X196867162Y-97828833D01*
X196725117Y-97485057D01*
X196462327Y-97221808D01*
X196118799Y-97079162D01*
X195746833Y-97078838D01*
X195403057Y-97220883D01*
X195139808Y-97483673D01*
X194997162Y-97827201D01*
X194996838Y-98199167D01*
X195106500Y-98464570D01*
X195106500Y-106142000D01*
X195169337Y-106457906D01*
X195348283Y-106725717D01*
X198904281Y-110281714D01*
X198904283Y-110281717D01*
X199172095Y-110460663D01*
X199488000Y-110523500D01*
X199842771Y-110523500D01*
X199969189Y-110712698D01*
X200351275Y-110968000D01*
X199969189Y-111223302D01*
X199658120Y-111688849D01*
X199548887Y-112238000D01*
X199597943Y-112484623D01*
X198447566Y-113635000D01*
X193519002Y-113635000D01*
X193519002Y-113508630D01*
X193741041Y-113629914D01*
X194247134Y-113390389D01*
X194623041Y-112975423D01*
X194783904Y-112587039D01*
X194661915Y-112365000D01*
X193519000Y-112365000D01*
X193519000Y-112385000D01*
X193265000Y-112385000D01*
X193265000Y-112365000D01*
X192122085Y-112365000D01*
X192000096Y-112587039D01*
X192160959Y-112975423D01*
X192536866Y-113390389D01*
X193042959Y-113629914D01*
X193264998Y-113508630D01*
X193264998Y-113635000D01*
X185356152Y-113635000D01*
X185714264Y-113563767D01*
X186179811Y-113252698D01*
X186490880Y-112787151D01*
X186600113Y-112238000D01*
X186490880Y-111688849D01*
X186179811Y-111223302D01*
X185797725Y-110968000D01*
X186179811Y-110712698D01*
X186490880Y-110247151D01*
X186600113Y-109698000D01*
X186490880Y-109148849D01*
X186179811Y-108683302D01*
X185797725Y-108428000D01*
X186179811Y-108172698D01*
X186490880Y-107707151D01*
X186600113Y-107158000D01*
X191928887Y-107158000D01*
X192038120Y-107707151D01*
X192349189Y-108172698D01*
X192731275Y-108428000D01*
X192349189Y-108683302D01*
X192038120Y-109148849D01*
X191928887Y-109698000D01*
X192038120Y-110247151D01*
X192349189Y-110712698D01*
X192753703Y-110982986D01*
X192536866Y-111085611D01*
X192160959Y-111500577D01*
X192000096Y-111888961D01*
X192122085Y-112111000D01*
X193265000Y-112111000D01*
X193265000Y-112091000D01*
X193519000Y-112091000D01*
X193519000Y-112111000D01*
X194661915Y-112111000D01*
X194783904Y-111888961D01*
X194623041Y-111500577D01*
X194247134Y-111085611D01*
X194030297Y-110982986D01*
X194434811Y-110712698D01*
X194745880Y-110247151D01*
X194855113Y-109698000D01*
X194745880Y-109148849D01*
X194434811Y-108683302D01*
X194052725Y-108428000D01*
X194434811Y-108172698D01*
X194745880Y-107707151D01*
X194855113Y-107158000D01*
X194745880Y-106608849D01*
X194434811Y-106143302D01*
X194290535Y-106046899D01*
X194427317Y-106021162D01*
X194643441Y-105882090D01*
X194788431Y-105669890D01*
X194839440Y-105418000D01*
X194839440Y-103818000D01*
X194795162Y-103582683D01*
X194656090Y-103366559D01*
X194443890Y-103221569D01*
X194192000Y-103170560D01*
X192592000Y-103170560D01*
X192356683Y-103214838D01*
X192140559Y-103353910D01*
X191995569Y-103566110D01*
X191944560Y-103818000D01*
X191944560Y-105418000D01*
X191988838Y-105653317D01*
X192127910Y-105869441D01*
X192340110Y-106014431D01*
X192495089Y-106045815D01*
X192349189Y-106143302D01*
X192038120Y-106608849D01*
X191928887Y-107158000D01*
X186600113Y-107158000D01*
X186490880Y-106608849D01*
X186179811Y-106143302D01*
X185797725Y-105888000D01*
X186179811Y-105632698D01*
X186490880Y-105167151D01*
X186600113Y-104618000D01*
X186490880Y-104068849D01*
X186179811Y-103603302D01*
X185714264Y-103292233D01*
X185165113Y-103183000D01*
X185108887Y-103183000D01*
X184559736Y-103292233D01*
X184094189Y-103603302D01*
X183783120Y-104068849D01*
X183673887Y-104618000D01*
X183783120Y-105167151D01*
X184094189Y-105632698D01*
X184476275Y-105888000D01*
X184094189Y-106143302D01*
X183783120Y-106608849D01*
X183673887Y-107158000D01*
X183783120Y-107707151D01*
X184094189Y-108172698D01*
X184476275Y-108428000D01*
X184094189Y-108683302D01*
X184013498Y-108804065D01*
X182025500Y-106816066D01*
X182025500Y-98464113D01*
X182134838Y-98200799D01*
X182135162Y-97828833D01*
X181993117Y-97485057D01*
X181730327Y-97221808D01*
X181386799Y-97079162D01*
X181014833Y-97078838D01*
X180671057Y-97220883D01*
X180407808Y-97483673D01*
X180265162Y-97827201D01*
X180264838Y-98199167D01*
X180374500Y-98464570D01*
X180374500Y-107158000D01*
X180437337Y-107473906D01*
X180616283Y-107741717D01*
X183156281Y-110281714D01*
X183156283Y-110281717D01*
X183424095Y-110460663D01*
X183740000Y-110523500D01*
X183967771Y-110523500D01*
X184094189Y-110712698D01*
X184476275Y-110968000D01*
X184094189Y-111223302D01*
X183783120Y-111688849D01*
X183673887Y-112238000D01*
X183722943Y-112484623D01*
X182572566Y-113635000D01*
X177644002Y-113635000D01*
X177644002Y-113508630D01*
X177866041Y-113629914D01*
X178372134Y-113390389D01*
X178748041Y-112975423D01*
X178908904Y-112587039D01*
X178786915Y-112365000D01*
X177644000Y-112365000D01*
X177644000Y-112385000D01*
X177390000Y-112385000D01*
X177390000Y-112365000D01*
X176247085Y-112365000D01*
X176125096Y-112587039D01*
X176285959Y-112975423D01*
X176661866Y-113390389D01*
X177167959Y-113629914D01*
X177389998Y-113508630D01*
X177389998Y-113635000D01*
X169481152Y-113635000D01*
X169839264Y-113563767D01*
X170304811Y-113252698D01*
X170615880Y-112787151D01*
X170725113Y-112238000D01*
X170615880Y-111688849D01*
X170304811Y-111223302D01*
X169922725Y-110968000D01*
X170304811Y-110712698D01*
X170615880Y-110247151D01*
X170725113Y-109698000D01*
X170615880Y-109148849D01*
X170304811Y-108683302D01*
X169922725Y-108428000D01*
X170304811Y-108172698D01*
X170615880Y-107707151D01*
X170725113Y-107158000D01*
X176053887Y-107158000D01*
X176163120Y-107707151D01*
X176474189Y-108172698D01*
X176856275Y-108428000D01*
X176474189Y-108683302D01*
X176163120Y-109148849D01*
X176053887Y-109698000D01*
X176163120Y-110247151D01*
X176474189Y-110712698D01*
X176878703Y-110982986D01*
X176661866Y-111085611D01*
X176285959Y-111500577D01*
X176125096Y-111888961D01*
X176247085Y-112111000D01*
X177390000Y-112111000D01*
X177390000Y-112091000D01*
X177644000Y-112091000D01*
X177644000Y-112111000D01*
X178786915Y-112111000D01*
X178908904Y-111888961D01*
X178748041Y-111500577D01*
X178372134Y-111085611D01*
X178155297Y-110982986D01*
X178559811Y-110712698D01*
X178870880Y-110247151D01*
X178980113Y-109698000D01*
X178870880Y-109148849D01*
X178559811Y-108683302D01*
X178177725Y-108428000D01*
X178559811Y-108172698D01*
X178870880Y-107707151D01*
X178980113Y-107158000D01*
X178870880Y-106608849D01*
X178559811Y-106143302D01*
X178415535Y-106046899D01*
X178552317Y-106021162D01*
X178768441Y-105882090D01*
X178913431Y-105669890D01*
X178964440Y-105418000D01*
X178964440Y-103818000D01*
X178920162Y-103582683D01*
X178781090Y-103366559D01*
X178568890Y-103221569D01*
X178317000Y-103170560D01*
X176717000Y-103170560D01*
X176481683Y-103214838D01*
X176265559Y-103353910D01*
X176120569Y-103566110D01*
X176069560Y-103818000D01*
X176069560Y-105418000D01*
X176113838Y-105653317D01*
X176252910Y-105869441D01*
X176465110Y-106014431D01*
X176620089Y-106045815D01*
X176474189Y-106143302D01*
X176163120Y-106608849D01*
X176053887Y-107158000D01*
X170725113Y-107158000D01*
X170615880Y-106608849D01*
X170304811Y-106143302D01*
X169922725Y-105888000D01*
X170304811Y-105632698D01*
X170615880Y-105167151D01*
X170725113Y-104618000D01*
X170615880Y-104068849D01*
X170304811Y-103603302D01*
X169839264Y-103292233D01*
X169290113Y-103183000D01*
X169233887Y-103183000D01*
X168684736Y-103292233D01*
X168219189Y-103603302D01*
X167908120Y-104068849D01*
X167798887Y-104618000D01*
X167908120Y-105167151D01*
X168219189Y-105632698D01*
X168601275Y-105888000D01*
X168219189Y-106143302D01*
X167908120Y-106608849D01*
X167798887Y-107158000D01*
X167908120Y-107707151D01*
X168219189Y-108172698D01*
X168601275Y-108428000D01*
X168219189Y-108683302D01*
X168189367Y-108727934D01*
X166277500Y-106816066D01*
X166277500Y-99879934D01*
X167241439Y-98915994D01*
X167504943Y-98807117D01*
X167768192Y-98544327D01*
X167910838Y-98200799D01*
X167911162Y-97828833D01*
X167769117Y-97485057D01*
X167506327Y-97221808D01*
X167162799Y-97079162D01*
X166790833Y-97078838D01*
X166447057Y-97220883D01*
X166183808Y-97483673D01*
X166073682Y-97748885D01*
X164868283Y-98954283D01*
X164689337Y-99222094D01*
X164677155Y-99283337D01*
X164626500Y-99538000D01*
X164626500Y-107158000D01*
X164689337Y-107473906D01*
X164868283Y-107741717D01*
X167408281Y-110281714D01*
X167408283Y-110281717D01*
X167676095Y-110460663D01*
X167992000Y-110523500D01*
X168092771Y-110523500D01*
X168219189Y-110712698D01*
X168601275Y-110968000D01*
X168219189Y-111223302D01*
X167908120Y-111688849D01*
X167798887Y-112238000D01*
X167847943Y-112484623D01*
X166697566Y-113635000D01*
X161769002Y-113635000D01*
X161769002Y-113508630D01*
X161991041Y-113629914D01*
X162497134Y-113390389D01*
X162873041Y-112975423D01*
X163033904Y-112587039D01*
X162911915Y-112365000D01*
X161769000Y-112365000D01*
X161769000Y-112385000D01*
X161515000Y-112385000D01*
X161515000Y-112365000D01*
X160372085Y-112365000D01*
X160250096Y-112587039D01*
X160410959Y-112975423D01*
X160786866Y-113390389D01*
X161292959Y-113629914D01*
X161514998Y-113508630D01*
X161514998Y-113635000D01*
X153860152Y-113635000D01*
X154218264Y-113563767D01*
X154683811Y-113252698D01*
X154994880Y-112787151D01*
X155104113Y-112238000D01*
X154994880Y-111688849D01*
X154683811Y-111223302D01*
X154301725Y-110968000D01*
X154683811Y-110712698D01*
X154994880Y-110247151D01*
X155104113Y-109698000D01*
X154994880Y-109148849D01*
X154683811Y-108683302D01*
X154301725Y-108428000D01*
X154683811Y-108172698D01*
X154994880Y-107707151D01*
X155104113Y-107158000D01*
X160178887Y-107158000D01*
X160288120Y-107707151D01*
X160599189Y-108172698D01*
X160981275Y-108428000D01*
X160599189Y-108683302D01*
X160288120Y-109148849D01*
X160178887Y-109698000D01*
X160288120Y-110247151D01*
X160599189Y-110712698D01*
X161003703Y-110982986D01*
X160786866Y-111085611D01*
X160410959Y-111500577D01*
X160250096Y-111888961D01*
X160372085Y-112111000D01*
X161515000Y-112111000D01*
X161515000Y-112091000D01*
X161769000Y-112091000D01*
X161769000Y-112111000D01*
X162911915Y-112111000D01*
X163033904Y-111888961D01*
X162873041Y-111500577D01*
X162497134Y-111085611D01*
X162280297Y-110982986D01*
X162684811Y-110712698D01*
X162995880Y-110247151D01*
X163105113Y-109698000D01*
X162995880Y-109148849D01*
X162684811Y-108683302D01*
X162302725Y-108428000D01*
X162684811Y-108172698D01*
X162995880Y-107707151D01*
X163105113Y-107158000D01*
X162995880Y-106608849D01*
X162684811Y-106143302D01*
X162540535Y-106046899D01*
X162677317Y-106021162D01*
X162893441Y-105882090D01*
X163038431Y-105669890D01*
X163089440Y-105418000D01*
X163089440Y-103818000D01*
X163045162Y-103582683D01*
X162906090Y-103366559D01*
X162693890Y-103221569D01*
X162442000Y-103170560D01*
X160842000Y-103170560D01*
X160606683Y-103214838D01*
X160390559Y-103353910D01*
X160245569Y-103566110D01*
X160194560Y-103818000D01*
X160194560Y-105418000D01*
X160238838Y-105653317D01*
X160377910Y-105869441D01*
X160590110Y-106014431D01*
X160745089Y-106045815D01*
X160599189Y-106143302D01*
X160288120Y-106608849D01*
X160178887Y-107158000D01*
X155104113Y-107158000D01*
X154994880Y-106608849D01*
X154683811Y-106143302D01*
X154301725Y-105888000D01*
X154683811Y-105632698D01*
X154994880Y-105167151D01*
X155104113Y-104618000D01*
X154994880Y-104068849D01*
X154683811Y-103603302D01*
X154218264Y-103292233D01*
X153669113Y-103183000D01*
X153612887Y-103183000D01*
X153063736Y-103292233D01*
X152598189Y-103603302D01*
X152287120Y-104068849D01*
X152177887Y-104618000D01*
X152287120Y-105167151D01*
X152598189Y-105632698D01*
X152980275Y-105888000D01*
X152598189Y-106143302D01*
X152287120Y-106608849D01*
X152177887Y-107158000D01*
X152287120Y-107707151D01*
X152598189Y-108172698D01*
X152980275Y-108428000D01*
X152598189Y-108683302D01*
X152517498Y-108804065D01*
X150529500Y-106816066D01*
X150529500Y-100387934D01*
X153017440Y-97899994D01*
X153280943Y-97791117D01*
X153544192Y-97528327D01*
X153686838Y-97184799D01*
X153687162Y-96812833D01*
X153545117Y-96469057D01*
X153282327Y-96205808D01*
X152938799Y-96063162D01*
X152566833Y-96062838D01*
X152223057Y-96204883D01*
X151959808Y-96467673D01*
X151849682Y-96732884D01*
X149120283Y-99462283D01*
X148941337Y-99730094D01*
X148941337Y-99730095D01*
X148878500Y-100046000D01*
X148878500Y-107158000D01*
X148941337Y-107473906D01*
X149120283Y-107741717D01*
X151660281Y-110281714D01*
X151660283Y-110281717D01*
X151928095Y-110460663D01*
X152244000Y-110523500D01*
X152471771Y-110523500D01*
X152598189Y-110712698D01*
X152980275Y-110968000D01*
X152598189Y-111223302D01*
X152287120Y-111688849D01*
X152177887Y-112238000D01*
X152226943Y-112484623D01*
X151013066Y-113698500D01*
X144457933Y-113698500D01*
X143346473Y-112587039D01*
X144629096Y-112587039D01*
X144789959Y-112975423D01*
X145165866Y-113390389D01*
X145671959Y-113629914D01*
X145894000Y-113508629D01*
X145894000Y-112365000D01*
X146148000Y-112365000D01*
X146148000Y-113508629D01*
X146370041Y-113629914D01*
X146876134Y-113390389D01*
X147252041Y-112975423D01*
X147412904Y-112587039D01*
X147290915Y-112365000D01*
X146148000Y-112365000D01*
X145894000Y-112365000D01*
X144751085Y-112365000D01*
X144629096Y-112587039D01*
X143346473Y-112587039D01*
X140598127Y-109838693D01*
X140626113Y-109698000D01*
X140516880Y-109148849D01*
X140205811Y-108683302D01*
X139823725Y-108428000D01*
X140205811Y-108172698D01*
X140516880Y-107707151D01*
X140626113Y-107158000D01*
X144557887Y-107158000D01*
X144667120Y-107707151D01*
X144978189Y-108172698D01*
X145360275Y-108428000D01*
X144978189Y-108683302D01*
X144667120Y-109148849D01*
X144557887Y-109698000D01*
X144667120Y-110247151D01*
X144978189Y-110712698D01*
X145382703Y-110982986D01*
X145165866Y-111085611D01*
X144789959Y-111500577D01*
X144629096Y-111888961D01*
X144751085Y-112111000D01*
X145894000Y-112111000D01*
X145894000Y-112091000D01*
X146148000Y-112091000D01*
X146148000Y-112111000D01*
X147290915Y-112111000D01*
X147412904Y-111888961D01*
X147252041Y-111500577D01*
X146876134Y-111085611D01*
X146659297Y-110982986D01*
X147063811Y-110712698D01*
X147374880Y-110247151D01*
X147484113Y-109698000D01*
X147374880Y-109148849D01*
X147063811Y-108683302D01*
X146681725Y-108428000D01*
X147063811Y-108172698D01*
X147374880Y-107707151D01*
X147484113Y-107158000D01*
X147374880Y-106608849D01*
X147063811Y-106143302D01*
X146919535Y-106046899D01*
X147056317Y-106021162D01*
X147272441Y-105882090D01*
X147417431Y-105669890D01*
X147468440Y-105418000D01*
X147468440Y-103818000D01*
X147424162Y-103582683D01*
X147285090Y-103366559D01*
X147072890Y-103221569D01*
X146821000Y-103170560D01*
X145221000Y-103170560D01*
X144985683Y-103214838D01*
X144769559Y-103353910D01*
X144624569Y-103566110D01*
X144573560Y-103818000D01*
X144573560Y-105418000D01*
X144617838Y-105653317D01*
X144756910Y-105869441D01*
X144969110Y-106014431D01*
X145124089Y-106045815D01*
X144978189Y-106143302D01*
X144667120Y-106608849D01*
X144557887Y-107158000D01*
X140626113Y-107158000D01*
X140516880Y-106608849D01*
X140205811Y-106143302D01*
X139823725Y-105888000D01*
X140205811Y-105632698D01*
X140516880Y-105167151D01*
X140626113Y-104618000D01*
X140516880Y-104068849D01*
X140205811Y-103603302D01*
X139740264Y-103292233D01*
X139191113Y-103183000D01*
X139134887Y-103183000D01*
X138585736Y-103292233D01*
X138120189Y-103603302D01*
X137809120Y-104068849D01*
X137699887Y-104618000D01*
X137809120Y-105167151D01*
X138120189Y-105632698D01*
X138502275Y-105888000D01*
X138120189Y-106143302D01*
X137809120Y-106608849D01*
X137699887Y-107158000D01*
X137809120Y-107707151D01*
X138120189Y-108172698D01*
X138502275Y-108428000D01*
X138120189Y-108683302D01*
X137993771Y-108872500D01*
X137091933Y-108872500D01*
X134793717Y-106574283D01*
X134525906Y-106395337D01*
X134210000Y-106332500D01*
X132712229Y-106332500D01*
X132585811Y-106143302D01*
X132441535Y-106046899D01*
X132578317Y-106021162D01*
X132794441Y-105882090D01*
X132939431Y-105669890D01*
X132990440Y-105418000D01*
X132990440Y-103818000D01*
X132946162Y-103582683D01*
X132807090Y-103366559D01*
X132594890Y-103221569D01*
X132343000Y-103170560D01*
X130743000Y-103170560D01*
X130507683Y-103214838D01*
X130291559Y-103353910D01*
X130146569Y-103566110D01*
X130095560Y-103818000D01*
X130095560Y-105418000D01*
X130139838Y-105653317D01*
X130278910Y-105869441D01*
X130491110Y-106014431D01*
X130646089Y-106045815D01*
X130500189Y-106143302D01*
X130189120Y-106608849D01*
X130079887Y-107158000D01*
X124586656Y-107158000D01*
X124347212Y-106726394D01*
X123876752Y-106352446D01*
X123299000Y-106187000D01*
X122399000Y-106187000D01*
X122145000Y-106187000D01*
X121245000Y-106187000D01*
X120667248Y-106352446D01*
X120196788Y-106726394D01*
X119905244Y-107251914D01*
X119880964Y-107357260D01*
X117573000Y-107357260D01*
X117573000Y-96606000D01*
X119824560Y-96606000D01*
X119824560Y-98406000D01*
X119868838Y-98641317D01*
X120007910Y-98857441D01*
X120220110Y-99002431D01*
X120472000Y-99053440D01*
X124072000Y-99053440D01*
X124307317Y-99009162D01*
X124523441Y-98870090D01*
X124668431Y-98657890D01*
X124719440Y-98406000D01*
X124719440Y-96606000D01*
X124675162Y-96370683D01*
X124536090Y-96154559D01*
X124323890Y-96009569D01*
X124072000Y-95958560D01*
X120472000Y-95958560D01*
X120236683Y-96002838D01*
X120020559Y-96141910D01*
X119875569Y-96354110D01*
X119824560Y-96606000D01*
X117573000Y-96606000D01*
X117573000Y-94370740D01*
X119880964Y-94370740D01*
X119905244Y-94476086D01*
X120196788Y-95001606D01*
X120667248Y-95375554D01*
X121245000Y-95541000D01*
X122145000Y-95541000D01*
X122145000Y-94133000D01*
X122399000Y-94133000D01*
X122399000Y-95541000D01*
X123299000Y-95541000D01*
X123876752Y-95375554D01*
X124347212Y-95001606D01*
X124638756Y-94476086D01*
X124663036Y-94370740D01*
X124542378Y-94133000D01*
X122399000Y-94133000D01*
X122145000Y-94133000D01*
X120001622Y-94133000D01*
X119880964Y-94370740D01*
X117573000Y-94370740D01*
X117573000Y-93641260D01*
X119880964Y-93641260D01*
X120001622Y-93879000D01*
X122145000Y-93879000D01*
X122145000Y-92471000D01*
X122399000Y-92471000D01*
X122399000Y-93879000D01*
X124542378Y-93879000D01*
X124663036Y-93641260D01*
X124638756Y-93535914D01*
X124347212Y-93010394D01*
X123876752Y-92636446D01*
X123299000Y-92471000D01*
X122399000Y-92471000D01*
X122145000Y-92471000D01*
X121245000Y-92471000D01*
X120667248Y-92636446D01*
X120196788Y-93010394D01*
X119905244Y-93535914D01*
X119880964Y-93641260D01*
X117573000Y-93641260D01*
X117573000Y-90506000D01*
X119789296Y-90506000D01*
X119906141Y-91093419D01*
X120238887Y-91591409D01*
X120736877Y-91924155D01*
X121324296Y-92041000D01*
X123219704Y-92041000D01*
X123807123Y-91924155D01*
X124305113Y-91591409D01*
X124436349Y-91395000D01*
X126144810Y-91395000D01*
X126022671Y-91577794D01*
X125955000Y-91918000D01*
X125955000Y-99677764D01*
X122945764Y-102687000D01*
X121324296Y-102687000D01*
X120736877Y-102803845D01*
X120238887Y-103136591D01*
X119906141Y-103634581D01*
X119789296Y-104222000D01*
X119906141Y-104809419D01*
X120238887Y-105307409D01*
X120736877Y-105640155D01*
X121324296Y-105757000D01*
X123219704Y-105757000D01*
X123807123Y-105640155D01*
X124305113Y-105307409D01*
X124637859Y-104809419D01*
X124754704Y-104222000D01*
X124637859Y-103634581D01*
X124587709Y-103559527D01*
X127472618Y-100674618D01*
X127502620Y-100629717D01*
X127665329Y-100386206D01*
X127733000Y-100046000D01*
X127733000Y-92286236D01*
X128624236Y-91395000D01*
X135114000Y-91395000D01*
X135454206Y-91327329D01*
X135742618Y-91134618D01*
X138388236Y-88489000D01*
X143768261Y-88489000D01*
X143919591Y-88715481D01*
X144417581Y-89048227D01*
X145005000Y-89165072D01*
X145592419Y-89048227D01*
X146090409Y-88715481D01*
X146423155Y-88217491D01*
X146540000Y-87630072D01*
X146540000Y-87569928D01*
X146423155Y-86982509D01*
X146090409Y-86484519D01*
X145852418Y-86325499D01*
X146242966Y-85967576D01*
X146496046Y-85424742D01*
X146375997Y-85187000D01*
X145132000Y-85187000D01*
X145132000Y-85207000D01*
X144878000Y-85207000D01*
X144878000Y-85187000D01*
X143634003Y-85187000D01*
X143513954Y-85424742D01*
X143767034Y-85967576D01*
X144157582Y-86325499D01*
X143919591Y-86484519D01*
X143768261Y-86711000D01*
X138020000Y-86711000D01*
X137679795Y-86778670D01*
X137391382Y-86971382D01*
X134745764Y-89617000D01*
X124436349Y-89617000D01*
X124305113Y-89420591D01*
X123807123Y-89087845D01*
X123219704Y-88971000D01*
X121324296Y-88971000D01*
X120736877Y-89087845D01*
X120238887Y-89420591D01*
X119906141Y-89918581D01*
X119789296Y-90506000D01*
X117573000Y-90506000D01*
X117573000Y-82009482D01*
X118309336Y-82009482D01*
X118891950Y-83419515D01*
X119969811Y-84499259D01*
X121378825Y-85084333D01*
X122904482Y-85085664D01*
X124314515Y-84503050D01*
X125394259Y-83425189D01*
X125756942Y-82551750D01*
X129373000Y-82551750D01*
X129373000Y-84192310D01*
X129469673Y-84425699D01*
X129648302Y-84604327D01*
X129881691Y-84701000D01*
X130622250Y-84701000D01*
X130781000Y-84542250D01*
X130781000Y-82393000D01*
X131035000Y-82393000D01*
X131035000Y-84542250D01*
X131193750Y-84701000D01*
X131934309Y-84701000D01*
X132167698Y-84604327D01*
X132346327Y-84425699D01*
X132443000Y-84192310D01*
X132443000Y-82551750D01*
X132284250Y-82393000D01*
X131035000Y-82393000D01*
X130781000Y-82393000D01*
X129531750Y-82393000D01*
X129373000Y-82551750D01*
X125756942Y-82551750D01*
X125979333Y-82016175D01*
X125980664Y-80490518D01*
X125918344Y-80339690D01*
X129373000Y-80339690D01*
X129373000Y-81980250D01*
X129531750Y-82139000D01*
X130781000Y-82139000D01*
X130781000Y-79989750D01*
X131035000Y-79989750D01*
X131035000Y-82139000D01*
X132284250Y-82139000D01*
X132443000Y-81980250D01*
X132443000Y-81318296D01*
X132873000Y-81318296D01*
X132873000Y-83213704D01*
X132989845Y-83801123D01*
X133322591Y-84299113D01*
X133820581Y-84631859D01*
X134408000Y-84748704D01*
X134995419Y-84631859D01*
X135493409Y-84299113D01*
X135826155Y-83801123D01*
X135943000Y-83213704D01*
X135943000Y-81620000D01*
X143457560Y-81620000D01*
X143457560Y-83420000D01*
X143501838Y-83655317D01*
X143640910Y-83871441D01*
X143853110Y-84016431D01*
X143904146Y-84026766D01*
X143767034Y-84152424D01*
X143513954Y-84695258D01*
X143634003Y-84933000D01*
X144878000Y-84933000D01*
X144878000Y-84913000D01*
X145132000Y-84913000D01*
X145132000Y-84933000D01*
X146375997Y-84933000D01*
X146496046Y-84695258D01*
X146247778Y-84162745D01*
X150566861Y-84162745D01*
X150640995Y-84408864D01*
X151178223Y-84601965D01*
X151748454Y-84574778D01*
X152149005Y-84408864D01*
X152223139Y-84162745D01*
X151395000Y-83334605D01*
X150566861Y-84162745D01*
X146247778Y-84162745D01*
X146242966Y-84152424D01*
X146108462Y-84029156D01*
X146140317Y-84023162D01*
X146356441Y-83884090D01*
X146501431Y-83671890D01*
X146552440Y-83420000D01*
X146552440Y-82938223D01*
X149948035Y-82938223D01*
X149975222Y-83508454D01*
X150141136Y-83909005D01*
X150387255Y-83983139D01*
X151215395Y-83155000D01*
X151574605Y-83155000D01*
X152402745Y-83983139D01*
X152450167Y-83968855D01*
X152491838Y-84190317D01*
X152630910Y-84406441D01*
X152843110Y-84551431D01*
X153095000Y-84602440D01*
X154695000Y-84602440D01*
X154930317Y-84558162D01*
X155146441Y-84419090D01*
X155291431Y-84206890D01*
X155342440Y-83955000D01*
X155342440Y-82405000D01*
X157242560Y-82405000D01*
X157242560Y-83905000D01*
X157286838Y-84140317D01*
X157425910Y-84356441D01*
X157638110Y-84501431D01*
X157890000Y-84552440D01*
X158790000Y-84552440D01*
X159025317Y-84508162D01*
X159129655Y-84441022D01*
X159194788Y-84484543D01*
X159610000Y-84567134D01*
X159991000Y-84491348D01*
X159991000Y-85326764D01*
X158981382Y-86336382D01*
X158788671Y-86624794D01*
X158721000Y-86965000D01*
X158721000Y-88742560D01*
X157890000Y-88742560D01*
X157654683Y-88786838D01*
X157438559Y-88925910D01*
X157293569Y-89138110D01*
X157242560Y-89390000D01*
X157242560Y-90890000D01*
X157286838Y-91125317D01*
X157425910Y-91341441D01*
X157638110Y-91486431D01*
X157890000Y-91537440D01*
X158790000Y-91537440D01*
X159025317Y-91493162D01*
X159129655Y-91426022D01*
X159194788Y-91469543D01*
X159610000Y-91552134D01*
X160025212Y-91469543D01*
X160249274Y-91319830D01*
X160585999Y-91484408D01*
X160753000Y-91357502D01*
X160753000Y-90267000D01*
X161007000Y-90267000D01*
X161007000Y-91357502D01*
X161174001Y-91484408D01*
X161557408Y-91297013D01*
X161833808Y-90972544D01*
X161965000Y-90567000D01*
X161965000Y-90267000D01*
X161007000Y-90267000D01*
X160753000Y-90267000D01*
X160733000Y-90267000D01*
X160733000Y-90013000D01*
X160753000Y-90013000D01*
X160753000Y-88922498D01*
X161007000Y-88922498D01*
X161007000Y-90013000D01*
X161965000Y-90013000D01*
X161965000Y-89713000D01*
X161833808Y-89307456D01*
X161557408Y-88982987D01*
X161174001Y-88795592D01*
X161007000Y-88922498D01*
X160753000Y-88922498D01*
X160585999Y-88795592D01*
X160499000Y-88838114D01*
X160499000Y-87333236D01*
X161508618Y-86323618D01*
X161623441Y-86151773D01*
X161701329Y-86035206D01*
X161769000Y-85695000D01*
X161769000Y-84067075D01*
X161882409Y-83897346D01*
X161965000Y-83482134D01*
X161965000Y-82827866D01*
X161882409Y-82412654D01*
X161843886Y-82355000D01*
X163877560Y-82355000D01*
X163877560Y-83955000D01*
X163921838Y-84190317D01*
X164060910Y-84406441D01*
X164273110Y-84551431D01*
X164525000Y-84602440D01*
X166125000Y-84602440D01*
X166360317Y-84558162D01*
X166576441Y-84419090D01*
X166721431Y-84206890D01*
X166730370Y-84162745D01*
X166996861Y-84162745D01*
X167070995Y-84408864D01*
X167608223Y-84601965D01*
X168178454Y-84574778D01*
X168579005Y-84408864D01*
X168653139Y-84162745D01*
X167825000Y-83334605D01*
X166996861Y-84162745D01*
X166730370Y-84162745D01*
X166769646Y-83968799D01*
X166817255Y-83983139D01*
X167645395Y-83155000D01*
X168004605Y-83155000D01*
X168832745Y-83983139D01*
X169078864Y-83909005D01*
X169271965Y-83371777D01*
X169244778Y-82801546D01*
X169078864Y-82400995D01*
X168832745Y-82326861D01*
X168004605Y-83155000D01*
X167645395Y-83155000D01*
X166817255Y-82326861D01*
X166769833Y-82341145D01*
X166733351Y-82147255D01*
X166996861Y-82147255D01*
X167825000Y-82975395D01*
X168653139Y-82147255D01*
X168579005Y-81901136D01*
X168041777Y-81708035D01*
X167471546Y-81735222D01*
X167070995Y-81901136D01*
X166996861Y-82147255D01*
X166733351Y-82147255D01*
X166728162Y-82119683D01*
X166589090Y-81903559D01*
X166376890Y-81758569D01*
X166125000Y-81707560D01*
X164525000Y-81707560D01*
X164289683Y-81751838D01*
X164073559Y-81890910D01*
X163928569Y-82103110D01*
X163877560Y-82355000D01*
X161843886Y-82355000D01*
X161647211Y-82060655D01*
X161295212Y-81825457D01*
X160880000Y-81742866D01*
X160464788Y-81825457D01*
X160245000Y-81972315D01*
X160025212Y-81825457D01*
X159610000Y-81742866D01*
X159194788Y-81825457D01*
X159129981Y-81868759D01*
X159041890Y-81808569D01*
X158790000Y-81757560D01*
X157890000Y-81757560D01*
X157654683Y-81801838D01*
X157438559Y-81940910D01*
X157293569Y-82153110D01*
X157242560Y-82405000D01*
X155342440Y-82405000D01*
X155342440Y-82355000D01*
X155298162Y-82119683D01*
X155159090Y-81903559D01*
X154946890Y-81758569D01*
X154695000Y-81707560D01*
X153095000Y-81707560D01*
X152859683Y-81751838D01*
X152643559Y-81890910D01*
X152498569Y-82103110D01*
X152450354Y-82341201D01*
X152402745Y-82326861D01*
X151574605Y-83155000D01*
X151215395Y-83155000D01*
X150387255Y-82326861D01*
X150141136Y-82400995D01*
X149948035Y-82938223D01*
X146552440Y-82938223D01*
X146552440Y-82147255D01*
X150566861Y-82147255D01*
X151395000Y-82975395D01*
X152223139Y-82147255D01*
X152149005Y-81901136D01*
X151611777Y-81708035D01*
X151041546Y-81735222D01*
X150640995Y-81901136D01*
X150566861Y-82147255D01*
X146552440Y-82147255D01*
X146552440Y-81620000D01*
X146508162Y-81384683D01*
X146369090Y-81168559D01*
X146156890Y-81023569D01*
X145905000Y-80972560D01*
X144105000Y-80972560D01*
X143869683Y-81016838D01*
X143653559Y-81155910D01*
X143508569Y-81368110D01*
X143457560Y-81620000D01*
X135943000Y-81620000D01*
X135943000Y-81318296D01*
X135826155Y-80730877D01*
X135493409Y-80232887D01*
X135082012Y-79958000D01*
X172032560Y-79958000D01*
X172032560Y-83558000D01*
X172076838Y-83793317D01*
X172215910Y-84009441D01*
X172428110Y-84154431D01*
X172680000Y-84205440D01*
X174480000Y-84205440D01*
X174715317Y-84161162D01*
X174931441Y-84022090D01*
X175076431Y-83809890D01*
X175127440Y-83558000D01*
X175127440Y-80810296D01*
X175545000Y-80810296D01*
X175545000Y-82705704D01*
X175661845Y-83293123D01*
X175994591Y-83791113D01*
X176492581Y-84123859D01*
X177080000Y-84240704D01*
X177667419Y-84123859D01*
X178165409Y-83791113D01*
X178498155Y-83293123D01*
X178615000Y-82705704D01*
X178615000Y-80810296D01*
X179045000Y-80810296D01*
X179045000Y-82705704D01*
X179161845Y-83293123D01*
X179494591Y-83791113D01*
X179992581Y-84123859D01*
X180580000Y-84240704D01*
X181167419Y-84123859D01*
X181665409Y-83791113D01*
X181998155Y-83293123D01*
X182115000Y-82705704D01*
X182115000Y-80810296D01*
X182545000Y-80810296D01*
X182545000Y-82705704D01*
X182661845Y-83293123D01*
X182994591Y-83791113D01*
X183492581Y-84123859D01*
X184080000Y-84240704D01*
X184667419Y-84123859D01*
X185165409Y-83791113D01*
X185498155Y-83293123D01*
X185615000Y-82705704D01*
X185615000Y-80810296D01*
X186045000Y-80810296D01*
X186045000Y-82705704D01*
X186161845Y-83293123D01*
X186494591Y-83791113D01*
X186992581Y-84123859D01*
X187580000Y-84240704D01*
X188167419Y-84123859D01*
X188665409Y-83791113D01*
X188998155Y-83293123D01*
X189115000Y-82705704D01*
X189115000Y-80810296D01*
X189545000Y-80810296D01*
X189545000Y-82705704D01*
X189661845Y-83293123D01*
X189994591Y-83791113D01*
X190492581Y-84123859D01*
X191080000Y-84240704D01*
X191667419Y-84123859D01*
X192165409Y-83791113D01*
X192498155Y-83293123D01*
X192615000Y-82705704D01*
X192615000Y-80810296D01*
X193045000Y-80810296D01*
X193045000Y-82705704D01*
X193161845Y-83293123D01*
X193494591Y-83791113D01*
X193992581Y-84123859D01*
X194580000Y-84240704D01*
X195167419Y-84123859D01*
X195665409Y-83791113D01*
X195998155Y-83293123D01*
X196115000Y-82705704D01*
X196115000Y-80810296D01*
X196545000Y-80810296D01*
X196545000Y-82705704D01*
X196661845Y-83293123D01*
X196994591Y-83791113D01*
X197492581Y-84123859D01*
X198080000Y-84240704D01*
X198667419Y-84123859D01*
X199165409Y-83791113D01*
X199498155Y-83293123D01*
X199615000Y-82705704D01*
X199615000Y-82009482D01*
X202129336Y-82009482D01*
X202711950Y-83419515D01*
X203789811Y-84499259D01*
X205198825Y-85084333D01*
X206724482Y-85085664D01*
X208134515Y-84503050D01*
X209214259Y-83425189D01*
X209799333Y-82016175D01*
X209800664Y-80490518D01*
X209218050Y-79080485D01*
X208140189Y-78000741D01*
X206731175Y-77415667D01*
X205205518Y-77414336D01*
X203795485Y-77996950D01*
X202715741Y-79074811D01*
X202130667Y-80483825D01*
X202129336Y-82009482D01*
X199615000Y-82009482D01*
X199615000Y-80810296D01*
X199498155Y-80222877D01*
X199165409Y-79724887D01*
X198667419Y-79392141D01*
X198080000Y-79275296D01*
X197492581Y-79392141D01*
X196994591Y-79724887D01*
X196661845Y-80222877D01*
X196545000Y-80810296D01*
X196115000Y-80810296D01*
X195998155Y-80222877D01*
X195665409Y-79724887D01*
X195167419Y-79392141D01*
X194580000Y-79275296D01*
X193992581Y-79392141D01*
X193494591Y-79724887D01*
X193161845Y-80222877D01*
X193045000Y-80810296D01*
X192615000Y-80810296D01*
X192498155Y-80222877D01*
X192165409Y-79724887D01*
X191667419Y-79392141D01*
X191080000Y-79275296D01*
X190492581Y-79392141D01*
X189994591Y-79724887D01*
X189661845Y-80222877D01*
X189545000Y-80810296D01*
X189115000Y-80810296D01*
X188998155Y-80222877D01*
X188665409Y-79724887D01*
X188167419Y-79392141D01*
X187580000Y-79275296D01*
X186992581Y-79392141D01*
X186494591Y-79724887D01*
X186161845Y-80222877D01*
X186045000Y-80810296D01*
X185615000Y-80810296D01*
X185498155Y-80222877D01*
X185165409Y-79724887D01*
X184667419Y-79392141D01*
X184080000Y-79275296D01*
X183492581Y-79392141D01*
X182994591Y-79724887D01*
X182661845Y-80222877D01*
X182545000Y-80810296D01*
X182115000Y-80810296D01*
X181998155Y-80222877D01*
X181665409Y-79724887D01*
X181167419Y-79392141D01*
X180580000Y-79275296D01*
X179992581Y-79392141D01*
X179494591Y-79724887D01*
X179161845Y-80222877D01*
X179045000Y-80810296D01*
X178615000Y-80810296D01*
X178498155Y-80222877D01*
X178165409Y-79724887D01*
X177667419Y-79392141D01*
X177080000Y-79275296D01*
X176492581Y-79392141D01*
X175994591Y-79724887D01*
X175661845Y-80222877D01*
X175545000Y-80810296D01*
X175127440Y-80810296D01*
X175127440Y-79958000D01*
X175083162Y-79722683D01*
X174944090Y-79506559D01*
X174731890Y-79361569D01*
X174480000Y-79310560D01*
X172680000Y-79310560D01*
X172444683Y-79354838D01*
X172228559Y-79493910D01*
X172083569Y-79706110D01*
X172032560Y-79958000D01*
X135082012Y-79958000D01*
X134995419Y-79900141D01*
X134408000Y-79783296D01*
X133820581Y-79900141D01*
X133322591Y-80232887D01*
X132989845Y-80730877D01*
X132873000Y-81318296D01*
X132443000Y-81318296D01*
X132443000Y-80339690D01*
X132346327Y-80106301D01*
X132167698Y-79927673D01*
X131934309Y-79831000D01*
X131193750Y-79831000D01*
X131035000Y-79989750D01*
X130781000Y-79989750D01*
X130622250Y-79831000D01*
X129881691Y-79831000D01*
X129648302Y-79927673D01*
X129469673Y-80106301D01*
X129373000Y-80339690D01*
X125918344Y-80339690D01*
X125398050Y-79080485D01*
X124320189Y-78000741D01*
X122911175Y-77415667D01*
X121385518Y-77414336D01*
X119975485Y-77996950D01*
X118895741Y-79074811D01*
X118310667Y-80483825D01*
X118309336Y-82009482D01*
X117573000Y-82009482D01*
X117573000Y-76043000D01*
X210283000Y-76043000D01*
X210283000Y-126081000D01*
M02*
