M48
INCH,TZ
T1C0.016
T2C0.024
T3C0.031
T4C0.039
T5C0.047
T6C0.126
%
G90
G05
T1
X54939Y-33688
X57239Y-40488
X59039Y-33888
X63839Y-36488
X64239Y-40488
X71039Y-40488
X77839Y-40488
T2
X62339Y-32738
X62339Y-35488
X62839Y-32738
X62839Y-35488
X63339Y-32738
X63339Y-35488
T3
X53239Y-41488
X53239Y-42488
X53239Y-43488
X53239Y-44488
X56239Y-41488
X56239Y-42488
X56239Y-43488
X56239Y-44488
X59604Y-32738
X60139Y-41488
X60139Y-42488
X60139Y-43488
X60139Y-44488
X60589Y-32738
X63139Y-41488
X63139Y-42488
X63139Y-43488
X63139Y-44488
X65089Y-32738
X66073Y-32738
X66889Y-41488
X66889Y-42488
X66889Y-43488
X66889Y-44488
X69889Y-41488
X69889Y-42488
X69889Y-43488
X69889Y-44488
X73789Y-41488
X73789Y-42488
X73789Y-43488
X73789Y-44488
X76789Y-41488
X76789Y-42488
X76789Y-43488
X76789Y-44488
T4
X57089Y-32488
X57089Y-33488
X57089Y-34488
T5
X48139Y-41032
X48139Y-42410
X48139Y-43788
X48339Y-35632
X48339Y-37010
X48339Y-38388
X51939Y-32388
X52605Y-47388
X53317Y-32388
X53983Y-47388
X55361Y-47388
X56739Y-47388
X59805Y-47388
X61183Y-47388
X62561Y-47388
X63939Y-47388
X66605Y-47388
X67983Y-47388
X68539Y-32188
X69361Y-47388
X69917Y-32188
X70739Y-47388
X71294Y-32188
X72672Y-32188
X73205Y-47388
X74050Y-32188
X74583Y-47388
X75428Y-32188
X75961Y-47388
X76806Y-32188
X77339Y-47388
X78184Y-32188
T6
X48089Y-31988
X48089Y-47738
X81089Y-31988
X81089Y-47738
T0
M30
