G04 #@! TF.FileFunction,Soldermask,Bot*
%FSLAX46Y46*%
G04 Gerber Fmt 4.6, Leading zero omitted, Abs format (unit mm)*
G04 Created by KiCad (PCBNEW 4.0.7) date Tuesday, April 10, 2018 'PMt' 09:17:44 PM*
%MOMM*%
%LPD*%
G01*
G04 APERTURE LIST*
%ADD10C,0.100000*%
%ADD11O,1.001600X1.601600*%
%ADD12R,1.001600X1.601600*%
%ADD13R,1.701600X1.701600*%
%ADD14O,1.701600X1.701600*%
%ADD15C,1.701600*%
%ADD16R,1.901600X1.901600*%
%ADD17O,1.901600X1.901600*%
%ADD18R,3.701600X1.901600*%
%ADD19O,3.701600X1.901600*%
%ADD20R,1.901600X3.701600*%
%ADD21O,1.901600X3.701600*%
%ADD22C,6.501600*%
G04 APERTURE END LIST*
D10*
X115160000Y-128240000D02*
X115160000Y-73630000D01*
X212950000Y-128240000D02*
X115160000Y-128240000D01*
X212950000Y-73630000D02*
X212950000Y-128240000D01*
X115160000Y-73630000D02*
X212950000Y-73630000D01*
D11*
X159610000Y-83155000D03*
X160880000Y-83155000D03*
D12*
X158340000Y-83155000D03*
D13*
X193392000Y-104618000D03*
D14*
X201012000Y-112238000D03*
X193392000Y-107158000D03*
X201012000Y-109698000D03*
X193392000Y-109698000D03*
X201012000Y-107158000D03*
X193392000Y-112238000D03*
X201012000Y-104618000D03*
D13*
X177517000Y-104618000D03*
D14*
X185137000Y-112238000D03*
X177517000Y-107158000D03*
X185137000Y-109698000D03*
X177517000Y-109698000D03*
X185137000Y-107158000D03*
X177517000Y-112238000D03*
X185137000Y-104618000D03*
D13*
X161642000Y-104618000D03*
D14*
X169262000Y-112238000D03*
X161642000Y-107158000D03*
X169262000Y-109698000D03*
X161642000Y-109698000D03*
X169262000Y-107158000D03*
X161642000Y-112238000D03*
X169262000Y-104618000D03*
D13*
X146021000Y-104618000D03*
D14*
X153641000Y-112238000D03*
X146021000Y-107158000D03*
X153641000Y-109698000D03*
X146021000Y-109698000D03*
X153641000Y-107158000D03*
X146021000Y-112238000D03*
X153641000Y-104618000D03*
D11*
X159610000Y-90140000D03*
X160880000Y-90140000D03*
D12*
X158340000Y-90140000D03*
D13*
X165325000Y-83155000D03*
D15*
X167825000Y-83155000D03*
D13*
X153895000Y-83155000D03*
D15*
X151395000Y-83155000D03*
D16*
X145005000Y-82520000D03*
D17*
X145005000Y-85060000D03*
X145005000Y-87600000D03*
D18*
X122272000Y-111222000D03*
D19*
X122272000Y-107722000D03*
X122272000Y-104222000D03*
D18*
X122272000Y-97506000D03*
D19*
X122272000Y-94006000D03*
X122272000Y-90506000D03*
D20*
X173580000Y-81758000D03*
D21*
X177080000Y-81758000D03*
X180580000Y-81758000D03*
X184080000Y-81758000D03*
X187580000Y-81758000D03*
X191080000Y-81758000D03*
X194580000Y-81758000D03*
X198080000Y-81758000D03*
D20*
X196440000Y-120366000D03*
D21*
X192940000Y-120366000D03*
X189440000Y-120366000D03*
X185940000Y-120366000D03*
D20*
X179676000Y-120366000D03*
D21*
X176176000Y-120366000D03*
X172676000Y-120366000D03*
X169176000Y-120366000D03*
D20*
X162404000Y-120366000D03*
D21*
X158904000Y-120366000D03*
X155404000Y-120366000D03*
X151904000Y-120366000D03*
D20*
X144116000Y-120366000D03*
D21*
X140616000Y-120366000D03*
X137116000Y-120366000D03*
X133616000Y-120366000D03*
D20*
X130908000Y-82266000D03*
D21*
X134408000Y-82266000D03*
D13*
X131543000Y-104618000D03*
D14*
X139163000Y-112238000D03*
X131543000Y-107158000D03*
X139163000Y-109698000D03*
X131543000Y-109698000D03*
X139163000Y-107158000D03*
X131543000Y-112238000D03*
X139163000Y-104618000D03*
D22*
X122145000Y-121255000D03*
X122145000Y-81250000D03*
X205965000Y-81250000D03*
X205965000Y-121255000D03*
M02*
