G04 #@! TF.FileFunction,Copper,L1,Top,Signal*
%FSLAX46Y46*%
G04 Gerber Fmt 4.6, Leading zero omitted, Abs format (unit mm)*
G04 Created by KiCad (PCBNEW 4.0.7) date Tuesday, April 10, 2018 'PMt' 09:17:44 PM*
%MOMM*%
%LPD*%
G01*
G04 APERTURE LIST*
%ADD10C,0.100000*%
%ADD11R,1.250000X1.500000*%
%ADD12O,0.900000X1.500000*%
%ADD13R,0.900000X1.500000*%
%ADD14R,1.300000X1.500000*%
%ADD15R,1.500000X1.300000*%
%ADD16R,1.600000X1.600000*%
%ADD17O,1.600000X1.600000*%
%ADD18C,1.600000*%
%ADD19R,1.800000X1.800000*%
%ADD20O,1.800000X1.800000*%
%ADD21R,3.600000X1.800000*%
%ADD22O,3.600000X1.800000*%
%ADD23R,1.800000X3.600000*%
%ADD24O,1.800000X3.600000*%
%ADD25R,1.245000X1.800000*%
%ADD26C,6.400000*%
%ADD27C,0.600000*%
%ADD28C,0.508000*%
%ADD29C,0.381000*%
%ADD30C,0.254000*%
G04 APERTURE END LIST*
D10*
X115160000Y-128240000D02*
X115160000Y-73630000D01*
X212950000Y-128240000D02*
X115160000Y-128240000D01*
X212950000Y-73630000D02*
X212950000Y-128240000D01*
X115160000Y-73630000D02*
X212950000Y-73630000D01*
D11*
X204822000Y-104638000D03*
X204822000Y-107138000D03*
X188947000Y-104638000D03*
X188947000Y-107138000D03*
X173072000Y-104638000D03*
X173072000Y-107138000D03*
X157451000Y-104638000D03*
X157451000Y-107138000D03*
X141195000Y-81270000D03*
X141195000Y-83770000D03*
X141195000Y-88850000D03*
X141195000Y-86350000D03*
D12*
X159610000Y-83155000D03*
X160880000Y-83155000D03*
D13*
X158340000Y-83155000D03*
D14*
X155165000Y-88155000D03*
X155165000Y-90855000D03*
D15*
X198679000Y-100808000D03*
X195979000Y-100808000D03*
X182677000Y-100808000D03*
X179977000Y-100808000D03*
X166802000Y-100808000D03*
X164102000Y-100808000D03*
X151181000Y-100808000D03*
X148481000Y-100808000D03*
D16*
X193392000Y-104618000D03*
D17*
X201012000Y-112238000D03*
X193392000Y-107158000D03*
X201012000Y-109698000D03*
X193392000Y-109698000D03*
X201012000Y-107158000D03*
X193392000Y-112238000D03*
X201012000Y-104618000D03*
D16*
X177517000Y-104618000D03*
D17*
X185137000Y-112238000D03*
X177517000Y-107158000D03*
X185137000Y-109698000D03*
X177517000Y-109698000D03*
X185137000Y-107158000D03*
X177517000Y-112238000D03*
X185137000Y-104618000D03*
D16*
X161642000Y-104618000D03*
D17*
X169262000Y-112238000D03*
X161642000Y-107158000D03*
X169262000Y-109698000D03*
X161642000Y-109698000D03*
X169262000Y-107158000D03*
X161642000Y-112238000D03*
X169262000Y-104618000D03*
D16*
X146021000Y-104618000D03*
D17*
X153641000Y-112238000D03*
X146021000Y-107158000D03*
X153641000Y-109698000D03*
X146021000Y-109698000D03*
X153641000Y-107158000D03*
X146021000Y-112238000D03*
X153641000Y-104618000D03*
D12*
X159610000Y-90140000D03*
X160880000Y-90140000D03*
D13*
X158340000Y-90140000D03*
D16*
X165325000Y-83155000D03*
D18*
X167825000Y-83155000D03*
D16*
X153895000Y-83155000D03*
D18*
X151395000Y-83155000D03*
D15*
X164610000Y-88870000D03*
X167310000Y-88870000D03*
X167310000Y-92045000D03*
X164610000Y-92045000D03*
X143655000Y-92045000D03*
X146355000Y-92045000D03*
D14*
X149450000Y-90855000D03*
X149450000Y-88155000D03*
D19*
X145005000Y-82520000D03*
D20*
X145005000Y-85060000D03*
X145005000Y-87600000D03*
D21*
X122272000Y-111222000D03*
D22*
X122272000Y-107722000D03*
X122272000Y-104222000D03*
D21*
X122272000Y-97506000D03*
D22*
X122272000Y-94006000D03*
X122272000Y-90506000D03*
D23*
X173580000Y-81758000D03*
D24*
X177080000Y-81758000D03*
X180580000Y-81758000D03*
X184080000Y-81758000D03*
X187580000Y-81758000D03*
X191080000Y-81758000D03*
X194580000Y-81758000D03*
X198080000Y-81758000D03*
D23*
X196440000Y-120366000D03*
D24*
X192940000Y-120366000D03*
X189440000Y-120366000D03*
X185940000Y-120366000D03*
D23*
X179676000Y-120366000D03*
D24*
X176176000Y-120366000D03*
X172676000Y-120366000D03*
X169176000Y-120366000D03*
D23*
X162404000Y-120366000D03*
D24*
X158904000Y-120366000D03*
X155404000Y-120366000D03*
X151904000Y-120366000D03*
D23*
X144116000Y-120366000D03*
D24*
X140616000Y-120366000D03*
X137116000Y-120366000D03*
X133616000Y-120366000D03*
D23*
X130908000Y-82266000D03*
D24*
X134408000Y-82266000D03*
D15*
X140132000Y-100808000D03*
X137432000Y-100808000D03*
X133528000Y-100808000D03*
X130828000Y-100808000D03*
D16*
X131543000Y-104618000D03*
D17*
X139163000Y-112238000D03*
X131543000Y-107158000D03*
X139163000Y-109698000D03*
X131543000Y-109698000D03*
X139163000Y-107158000D03*
X131543000Y-112238000D03*
X139163000Y-104618000D03*
D11*
X142592000Y-107138000D03*
X142592000Y-104638000D03*
D25*
X134024500Y-87854000D03*
X130839500Y-87854000D03*
D26*
X122145000Y-121255000D03*
X122145000Y-81250000D03*
X205965000Y-81250000D03*
X205965000Y-121255000D03*
D27*
X128622000Y-101697000D03*
X142084000Y-102586000D03*
X156816000Y-102586000D03*
X172564000Y-102586000D03*
X188312000Y-102586000D03*
X204568000Y-102586000D03*
X152752000Y-96998000D03*
X166976000Y-98014000D03*
X181200000Y-98014000D03*
X195932000Y-98014000D03*
D28*
X160880000Y-83155000D02*
X165325000Y-83155000D01*
X164610000Y-88870000D02*
X164610000Y-86410000D01*
X165325000Y-85695000D02*
X165325000Y-83155000D01*
X164610000Y-86410000D02*
X165325000Y-85695000D01*
D29*
X139163000Y-107158000D02*
X142572000Y-107158000D01*
X142572000Y-107158000D02*
X142592000Y-107138000D01*
X153641000Y-107158000D02*
X157431000Y-107158000D01*
X157431000Y-107158000D02*
X157451000Y-107138000D01*
X169262000Y-107158000D02*
X173052000Y-107158000D01*
X173052000Y-107158000D02*
X173072000Y-107138000D01*
X185137000Y-107158000D02*
X188927000Y-107158000D01*
X188927000Y-107158000D02*
X188947000Y-107138000D01*
X201012000Y-107158000D02*
X204802000Y-107158000D01*
X204802000Y-107158000D02*
X204822000Y-107138000D01*
D30*
X130828000Y-100808000D02*
X129511000Y-100808000D01*
X129511000Y-100808000D02*
X128622000Y-101697000D01*
D29*
X141195000Y-86350000D02*
X143715000Y-86350000D01*
X143715000Y-86350000D02*
X145005000Y-85060000D01*
X141195000Y-83770000D02*
X141195000Y-86350000D01*
X142592000Y-103094000D02*
X142084000Y-102586000D01*
X142592000Y-104638000D02*
X142592000Y-103094000D01*
X157451000Y-103221000D02*
X156816000Y-102586000D01*
X157451000Y-104638000D02*
X157451000Y-103221000D01*
X173072000Y-104638000D02*
X173072000Y-103094000D01*
X173072000Y-103094000D02*
X172564000Y-102586000D01*
X188947000Y-104638000D02*
X188947000Y-103221000D01*
X188947000Y-103221000D02*
X188312000Y-102586000D01*
X204822000Y-104638000D02*
X204822000Y-102840000D01*
X204822000Y-102840000D02*
X204568000Y-102586000D01*
X160880000Y-90140000D02*
X161134000Y-90140000D01*
X161134000Y-90140000D02*
X163039000Y-92045000D01*
X163039000Y-92045000D02*
X164610000Y-92045000D01*
X149450000Y-88155000D02*
X149450000Y-85100000D01*
X149450000Y-85100000D02*
X151395000Y-83155000D01*
D28*
X134024500Y-87854000D02*
X135226000Y-87854000D01*
X145005000Y-79853000D02*
X145005000Y-82520000D01*
X143354000Y-78202000D02*
X145005000Y-79853000D01*
X140306000Y-78202000D02*
X143354000Y-78202000D01*
X138528000Y-79980000D02*
X140306000Y-78202000D01*
X138528000Y-84552000D02*
X138528000Y-79980000D01*
X135226000Y-87854000D02*
X138528000Y-84552000D01*
X141195000Y-81270000D02*
X143755000Y-81270000D01*
X143755000Y-81270000D02*
X145005000Y-82520000D01*
X145005000Y-82520000D02*
X148815000Y-82520000D01*
X152625000Y-81250000D02*
X153895000Y-82520000D01*
X150085000Y-81250000D02*
X152625000Y-81250000D01*
X148815000Y-82520000D02*
X150085000Y-81250000D01*
X153895000Y-82520000D02*
X153895000Y-83155000D01*
X155165000Y-88155000D02*
X155165000Y-86330000D01*
X153895000Y-85060000D02*
X153895000Y-83155000D01*
X155165000Y-86330000D02*
X153895000Y-85060000D01*
X153895000Y-83155000D02*
X158340000Y-83155000D01*
X143655000Y-92045000D02*
X143655000Y-88850000D01*
X143655000Y-88850000D02*
X143715000Y-88850000D01*
X141195000Y-88850000D02*
X143715000Y-88850000D01*
X143715000Y-88850000D02*
X144965000Y-87600000D01*
X144965000Y-87600000D02*
X145005000Y-87600000D01*
D29*
X201012000Y-104618000D02*
X201012000Y-101697000D01*
X200123000Y-100808000D02*
X198679000Y-100808000D01*
X201012000Y-101697000D02*
X200123000Y-100808000D01*
X193392000Y-104618000D02*
X193392000Y-101824000D01*
X194408000Y-100808000D02*
X195979000Y-100808000D01*
X193392000Y-101824000D02*
X194408000Y-100808000D01*
X185137000Y-104618000D02*
X185137000Y-101697000D01*
X184248000Y-100808000D02*
X182677000Y-100808000D01*
X185137000Y-101697000D02*
X184248000Y-100808000D01*
X177517000Y-104618000D02*
X177517000Y-101824000D01*
X178533000Y-100808000D02*
X179977000Y-100808000D01*
X177517000Y-101824000D02*
X178533000Y-100808000D01*
X169262000Y-104618000D02*
X169262000Y-101697000D01*
X168373000Y-100808000D02*
X166802000Y-100808000D01*
X169262000Y-101697000D02*
X168373000Y-100808000D01*
X161642000Y-104618000D02*
X161642000Y-101824000D01*
X162658000Y-100808000D02*
X164102000Y-100808000D01*
X161642000Y-101824000D02*
X162658000Y-100808000D01*
X153641000Y-104618000D02*
X153641000Y-101697000D01*
X152752000Y-100808000D02*
X151181000Y-100808000D01*
X153641000Y-101697000D02*
X152752000Y-100808000D01*
X146021000Y-104618000D02*
X146021000Y-101951000D01*
X147164000Y-100808000D02*
X148481000Y-100808000D01*
X146021000Y-101951000D02*
X147164000Y-100808000D01*
D28*
X158340000Y-90140000D02*
X158340000Y-86965000D01*
X159610000Y-85695000D02*
X159610000Y-83155000D01*
X158340000Y-86965000D02*
X159610000Y-85695000D01*
X155165000Y-90855000D02*
X157625000Y-90855000D01*
X157625000Y-90855000D02*
X158340000Y-90140000D01*
D29*
X191360000Y-111730000D02*
X191360000Y-111095000D01*
X189440000Y-118095000D02*
X191360000Y-116175000D01*
X191360000Y-116175000D02*
X191360000Y-111730000D01*
X189440000Y-120366000D02*
X189440000Y-118095000D01*
X191360000Y-111095000D02*
X192757000Y-109698000D01*
X192757000Y-109698000D02*
X193392000Y-109698000D01*
X185940000Y-120366000D02*
X185940000Y-119690000D01*
X185940000Y-119690000D02*
X190090000Y-115540000D01*
X190090000Y-115540000D02*
X190090000Y-110460000D01*
X190090000Y-110460000D02*
X193392000Y-107158000D01*
X175485000Y-111730000D02*
X175485000Y-111095000D01*
X172676000Y-118349000D02*
X175485000Y-115540000D01*
X175485000Y-115540000D02*
X175485000Y-111730000D01*
X172676000Y-120366000D02*
X172676000Y-118349000D01*
X175485000Y-111095000D02*
X176882000Y-109698000D01*
X176882000Y-109698000D02*
X177517000Y-109698000D01*
X169176000Y-120366000D02*
X169176000Y-119944000D01*
X169176000Y-119944000D02*
X174215000Y-114905000D01*
X174215000Y-114905000D02*
X174215000Y-110460000D01*
X174215000Y-110460000D02*
X177517000Y-107158000D01*
X159610000Y-111730000D02*
X159610000Y-111095000D01*
X159610000Y-114905000D02*
X159610000Y-111730000D01*
X155404000Y-119111000D02*
X159610000Y-114905000D01*
X159610000Y-111095000D02*
X161007000Y-109698000D01*
X161007000Y-109698000D02*
X161642000Y-109698000D01*
X155404000Y-120366000D02*
X155404000Y-119111000D01*
X161642000Y-109698000D02*
X161007000Y-109698000D01*
X151904000Y-120366000D02*
X152244000Y-120366000D01*
X152244000Y-120366000D02*
X158340000Y-114270000D01*
X158340000Y-114270000D02*
X158340000Y-110460000D01*
X158340000Y-110460000D02*
X161642000Y-107158000D01*
X137116000Y-120366000D02*
X137116000Y-118984000D01*
X137116000Y-118984000D02*
X139290000Y-116810000D01*
X139290000Y-116810000D02*
X141830000Y-116810000D01*
X141830000Y-116810000D02*
X143735000Y-114905000D01*
X143735000Y-114905000D02*
X143735000Y-111095000D01*
X143735000Y-111095000D02*
X145132000Y-109698000D01*
X145132000Y-109698000D02*
X146021000Y-109698000D01*
X133616000Y-120366000D02*
X133616000Y-119944000D01*
X133616000Y-119944000D02*
X138020000Y-115540000D01*
X138020000Y-115540000D02*
X141195000Y-115540000D01*
X141195000Y-115540000D02*
X142465000Y-114270000D01*
X142465000Y-114270000D02*
X142465000Y-110460000D01*
X142465000Y-110460000D02*
X145767000Y-107158000D01*
X145767000Y-107158000D02*
X146021000Y-107158000D01*
X167310000Y-88870000D02*
X169135000Y-88870000D01*
X173580000Y-84425000D02*
X173580000Y-81758000D01*
X169135000Y-88870000D02*
X173580000Y-84425000D01*
X167310000Y-88870000D02*
X167310000Y-92045000D01*
X149450000Y-90855000D02*
X152070000Y-90855000D01*
X177080000Y-86005000D02*
X177080000Y-81758000D01*
X169135000Y-93950000D02*
X177080000Y-86005000D01*
X162785000Y-93950000D02*
X169135000Y-93950000D01*
X162150000Y-93315000D02*
X162785000Y-93950000D01*
X154530000Y-93315000D02*
X162150000Y-93315000D01*
X152070000Y-90855000D02*
X154530000Y-93315000D01*
D28*
X146355000Y-92045000D02*
X148260000Y-92045000D01*
X148260000Y-92045000D02*
X149450000Y-90855000D01*
D29*
X122272000Y-111222000D02*
X124812000Y-111222000D01*
X184080000Y-85990000D02*
X184080000Y-81758000D01*
X174088000Y-95982000D02*
X184080000Y-85990000D01*
X129384000Y-95982000D02*
X174088000Y-95982000D01*
X127352000Y-98014000D02*
X129384000Y-95982000D01*
X127352000Y-108682000D02*
X127352000Y-98014000D01*
X124812000Y-111222000D02*
X127352000Y-108682000D01*
X122272000Y-97506000D02*
X125828000Y-97506000D01*
X180580000Y-85426000D02*
X180580000Y-81758000D01*
X171040000Y-94966000D02*
X180580000Y-85426000D01*
X128368000Y-94966000D02*
X171040000Y-94966000D01*
X125828000Y-97506000D02*
X128368000Y-94966000D01*
X187580000Y-85538000D02*
X187580000Y-81758000D01*
X176120000Y-96998000D02*
X187580000Y-85538000D01*
X175612000Y-96998000D02*
X176120000Y-96998000D01*
X174596000Y-96998000D02*
X175612000Y-96998000D01*
X152752000Y-96998000D02*
X174596000Y-96998000D01*
X191080000Y-85086000D02*
X191080000Y-81758000D01*
X178152000Y-98014000D02*
X191080000Y-85086000D01*
X177644000Y-98014000D02*
X178152000Y-98014000D01*
X176120000Y-98014000D02*
X177644000Y-98014000D01*
X166976000Y-98014000D02*
X176120000Y-98014000D01*
X194580000Y-84634000D02*
X194580000Y-81758000D01*
X181200000Y-98014000D02*
X194580000Y-84634000D01*
X198080000Y-95866000D02*
X198080000Y-81758000D01*
X195932000Y-98014000D02*
X198080000Y-95866000D01*
X131543000Y-109698000D02*
X132178000Y-109698000D01*
X132178000Y-109698000D02*
X133194000Y-108682000D01*
X133194000Y-108682000D02*
X133194000Y-101142000D01*
X133194000Y-101142000D02*
X133528000Y-100808000D01*
X133528000Y-100808000D02*
X137432000Y-100808000D01*
D28*
X130839500Y-87854000D02*
X130908000Y-87854000D01*
X130908000Y-87854000D02*
X134408000Y-84354000D01*
X134408000Y-84354000D02*
X134408000Y-82266000D01*
D30*
G36*
X210283000Y-126208000D02*
X117827000Y-126208000D01*
X117827000Y-122014482D01*
X118309336Y-122014482D01*
X118891950Y-123424515D01*
X119969811Y-124504259D01*
X121378825Y-125089333D01*
X122904482Y-125090664D01*
X124314515Y-124508050D01*
X125394259Y-123430189D01*
X125979333Y-122021175D01*
X125980664Y-120495518D01*
X125535565Y-119418296D01*
X132081000Y-119418296D01*
X132081000Y-121313704D01*
X132197845Y-121901123D01*
X132530591Y-122399113D01*
X133028581Y-122731859D01*
X133616000Y-122848704D01*
X134203419Y-122731859D01*
X134701409Y-122399113D01*
X135034155Y-121901123D01*
X135151000Y-121313704D01*
X135151000Y-119576434D01*
X135648504Y-119078929D01*
X135581000Y-119418296D01*
X135581000Y-121313704D01*
X135697845Y-121901123D01*
X136030591Y-122399113D01*
X136528581Y-122731859D01*
X137116000Y-122848704D01*
X137703419Y-122731859D01*
X138201409Y-122399113D01*
X138534155Y-121901123D01*
X138651000Y-121313704D01*
X138651000Y-119418296D01*
X139081000Y-119418296D01*
X139081000Y-121313704D01*
X139197845Y-121901123D01*
X139530591Y-122399113D01*
X140028581Y-122731859D01*
X140616000Y-122848704D01*
X141203419Y-122731859D01*
X141701409Y-122399113D01*
X142034155Y-121901123D01*
X142151000Y-121313704D01*
X142151000Y-120651750D01*
X142581000Y-120651750D01*
X142581000Y-122292310D01*
X142677673Y-122525699D01*
X142856302Y-122704327D01*
X143089691Y-122801000D01*
X143830250Y-122801000D01*
X143989000Y-122642250D01*
X143989000Y-120493000D01*
X144243000Y-120493000D01*
X144243000Y-122642250D01*
X144401750Y-122801000D01*
X145142309Y-122801000D01*
X145375698Y-122704327D01*
X145554327Y-122525699D01*
X145651000Y-122292310D01*
X145651000Y-120651750D01*
X145492250Y-120493000D01*
X144243000Y-120493000D01*
X143989000Y-120493000D01*
X142739750Y-120493000D01*
X142581000Y-120651750D01*
X142151000Y-120651750D01*
X142151000Y-119418296D01*
X142034155Y-118830877D01*
X141772773Y-118439690D01*
X142581000Y-118439690D01*
X142581000Y-120080250D01*
X142739750Y-120239000D01*
X143989000Y-120239000D01*
X143989000Y-118089750D01*
X144243000Y-118089750D01*
X144243000Y-120239000D01*
X145492250Y-120239000D01*
X145651000Y-120080250D01*
X145651000Y-119418296D01*
X150369000Y-119418296D01*
X150369000Y-121313704D01*
X150485845Y-121901123D01*
X150818591Y-122399113D01*
X151316581Y-122731859D01*
X151904000Y-122848704D01*
X152491419Y-122731859D01*
X152989409Y-122399113D01*
X153322155Y-121901123D01*
X153439000Y-121313704D01*
X153439000Y-120338434D01*
X153869000Y-119908434D01*
X153869000Y-121313704D01*
X153985845Y-121901123D01*
X154318591Y-122399113D01*
X154816581Y-122731859D01*
X155404000Y-122848704D01*
X155991419Y-122731859D01*
X156489409Y-122399113D01*
X156822155Y-121901123D01*
X156939000Y-121313704D01*
X156939000Y-119418296D01*
X157369000Y-119418296D01*
X157369000Y-121313704D01*
X157485845Y-121901123D01*
X157818591Y-122399113D01*
X158316581Y-122731859D01*
X158904000Y-122848704D01*
X159491419Y-122731859D01*
X159989409Y-122399113D01*
X160322155Y-121901123D01*
X160439000Y-121313704D01*
X160439000Y-120651750D01*
X160869000Y-120651750D01*
X160869000Y-122292310D01*
X160965673Y-122525699D01*
X161144302Y-122704327D01*
X161377691Y-122801000D01*
X162118250Y-122801000D01*
X162277000Y-122642250D01*
X162277000Y-120493000D01*
X162531000Y-120493000D01*
X162531000Y-122642250D01*
X162689750Y-122801000D01*
X163430309Y-122801000D01*
X163663698Y-122704327D01*
X163842327Y-122525699D01*
X163939000Y-122292310D01*
X163939000Y-120651750D01*
X163780250Y-120493000D01*
X162531000Y-120493000D01*
X162277000Y-120493000D01*
X161027750Y-120493000D01*
X160869000Y-120651750D01*
X160439000Y-120651750D01*
X160439000Y-119418296D01*
X160322155Y-118830877D01*
X160060773Y-118439690D01*
X160869000Y-118439690D01*
X160869000Y-120080250D01*
X161027750Y-120239000D01*
X162277000Y-120239000D01*
X162277000Y-118089750D01*
X162531000Y-118089750D01*
X162531000Y-120239000D01*
X163780250Y-120239000D01*
X163939000Y-120080250D01*
X163939000Y-119418296D01*
X167641000Y-119418296D01*
X167641000Y-121313704D01*
X167757845Y-121901123D01*
X168090591Y-122399113D01*
X168588581Y-122731859D01*
X169176000Y-122848704D01*
X169763419Y-122731859D01*
X170261409Y-122399113D01*
X170594155Y-121901123D01*
X170711000Y-121313704D01*
X170711000Y-119576434D01*
X171208504Y-119078930D01*
X171141000Y-119418296D01*
X171141000Y-121313704D01*
X171257845Y-121901123D01*
X171590591Y-122399113D01*
X172088581Y-122731859D01*
X172676000Y-122848704D01*
X173263419Y-122731859D01*
X173761409Y-122399113D01*
X174094155Y-121901123D01*
X174211000Y-121313704D01*
X174211000Y-119418296D01*
X174641000Y-119418296D01*
X174641000Y-121313704D01*
X174757845Y-121901123D01*
X175090591Y-122399113D01*
X175588581Y-122731859D01*
X176176000Y-122848704D01*
X176763419Y-122731859D01*
X177261409Y-122399113D01*
X177594155Y-121901123D01*
X177711000Y-121313704D01*
X177711000Y-120651750D01*
X178141000Y-120651750D01*
X178141000Y-122292310D01*
X178237673Y-122525699D01*
X178416302Y-122704327D01*
X178649691Y-122801000D01*
X179390250Y-122801000D01*
X179549000Y-122642250D01*
X179549000Y-120493000D01*
X179803000Y-120493000D01*
X179803000Y-122642250D01*
X179961750Y-122801000D01*
X180702309Y-122801000D01*
X180935698Y-122704327D01*
X181114327Y-122525699D01*
X181211000Y-122292310D01*
X181211000Y-120651750D01*
X181052250Y-120493000D01*
X179803000Y-120493000D01*
X179549000Y-120493000D01*
X178299750Y-120493000D01*
X178141000Y-120651750D01*
X177711000Y-120651750D01*
X177711000Y-119418296D01*
X177594155Y-118830877D01*
X177332773Y-118439690D01*
X178141000Y-118439690D01*
X178141000Y-120080250D01*
X178299750Y-120239000D01*
X179549000Y-120239000D01*
X179549000Y-118089750D01*
X179803000Y-118089750D01*
X179803000Y-120239000D01*
X181052250Y-120239000D01*
X181211000Y-120080250D01*
X181211000Y-119418296D01*
X184405000Y-119418296D01*
X184405000Y-121313704D01*
X184521845Y-121901123D01*
X184854591Y-122399113D01*
X185352581Y-122731859D01*
X185940000Y-122848704D01*
X186527419Y-122731859D01*
X187025409Y-122399113D01*
X187358155Y-121901123D01*
X187475000Y-121313704D01*
X187475000Y-119418296D01*
X187459095Y-119338338D01*
X188133177Y-118664256D01*
X188021845Y-118830877D01*
X187905000Y-119418296D01*
X187905000Y-121313704D01*
X188021845Y-121901123D01*
X188354591Y-122399113D01*
X188852581Y-122731859D01*
X189440000Y-122848704D01*
X190027419Y-122731859D01*
X190525409Y-122399113D01*
X190858155Y-121901123D01*
X190975000Y-121313704D01*
X190975000Y-119418296D01*
X191405000Y-119418296D01*
X191405000Y-121313704D01*
X191521845Y-121901123D01*
X191854591Y-122399113D01*
X192352581Y-122731859D01*
X192940000Y-122848704D01*
X193527419Y-122731859D01*
X194025409Y-122399113D01*
X194358155Y-121901123D01*
X194475000Y-121313704D01*
X194475000Y-120651750D01*
X194905000Y-120651750D01*
X194905000Y-122292310D01*
X195001673Y-122525699D01*
X195180302Y-122704327D01*
X195413691Y-122801000D01*
X196154250Y-122801000D01*
X196313000Y-122642250D01*
X196313000Y-120493000D01*
X196567000Y-120493000D01*
X196567000Y-122642250D01*
X196725750Y-122801000D01*
X197466309Y-122801000D01*
X197699698Y-122704327D01*
X197878327Y-122525699D01*
X197975000Y-122292310D01*
X197975000Y-122014482D01*
X202129336Y-122014482D01*
X202711950Y-123424515D01*
X203789811Y-124504259D01*
X205198825Y-125089333D01*
X206724482Y-125090664D01*
X208134515Y-124508050D01*
X209214259Y-123430189D01*
X209799333Y-122021175D01*
X209800664Y-120495518D01*
X209218050Y-119085485D01*
X208140189Y-118005741D01*
X206731175Y-117420667D01*
X205205518Y-117419336D01*
X203795485Y-118001950D01*
X202715741Y-119079811D01*
X202130667Y-120488825D01*
X202129336Y-122014482D01*
X197975000Y-122014482D01*
X197975000Y-120651750D01*
X197816250Y-120493000D01*
X196567000Y-120493000D01*
X196313000Y-120493000D01*
X195063750Y-120493000D01*
X194905000Y-120651750D01*
X194475000Y-120651750D01*
X194475000Y-119418296D01*
X194358155Y-118830877D01*
X194096773Y-118439690D01*
X194905000Y-118439690D01*
X194905000Y-120080250D01*
X195063750Y-120239000D01*
X196313000Y-120239000D01*
X196313000Y-118089750D01*
X196567000Y-118089750D01*
X196567000Y-120239000D01*
X197816250Y-120239000D01*
X197975000Y-120080250D01*
X197975000Y-118439690D01*
X197878327Y-118206301D01*
X197699698Y-118027673D01*
X197466309Y-117931000D01*
X196725750Y-117931000D01*
X196567000Y-118089750D01*
X196313000Y-118089750D01*
X196154250Y-117931000D01*
X195413691Y-117931000D01*
X195180302Y-118027673D01*
X195001673Y-118206301D01*
X194905000Y-118439690D01*
X194096773Y-118439690D01*
X194025409Y-118332887D01*
X193527419Y-118000141D01*
X192940000Y-117883296D01*
X192352581Y-118000141D01*
X191854591Y-118332887D01*
X191521845Y-118830877D01*
X191405000Y-119418296D01*
X190975000Y-119418296D01*
X190858155Y-118830877D01*
X190525409Y-118332887D01*
X190431977Y-118270457D01*
X191943717Y-116758717D01*
X192122663Y-116490906D01*
X192185500Y-116175000D01*
X192185500Y-113007720D01*
X192349189Y-113252698D01*
X192814736Y-113563767D01*
X193363887Y-113673000D01*
X193420113Y-113673000D01*
X193969264Y-113563767D01*
X194434811Y-113252698D01*
X194745880Y-112787151D01*
X194855113Y-112238000D01*
X194745880Y-111688849D01*
X194434811Y-111223302D01*
X194052725Y-110968000D01*
X194434811Y-110712698D01*
X194745880Y-110247151D01*
X194855113Y-109698000D01*
X199548887Y-109698000D01*
X199658120Y-110247151D01*
X199969189Y-110712698D01*
X200351275Y-110968000D01*
X199969189Y-111223302D01*
X199658120Y-111688849D01*
X199548887Y-112238000D01*
X199658120Y-112787151D01*
X199969189Y-113252698D01*
X200434736Y-113563767D01*
X200983887Y-113673000D01*
X201040113Y-113673000D01*
X201589264Y-113563767D01*
X202054811Y-113252698D01*
X202365880Y-112787151D01*
X202475113Y-112238000D01*
X202365880Y-111688849D01*
X202054811Y-111223302D01*
X201672725Y-110968000D01*
X202054811Y-110712698D01*
X202365880Y-110247151D01*
X202475113Y-109698000D01*
X202365880Y-109148849D01*
X202054811Y-108683302D01*
X201650297Y-108413014D01*
X201867134Y-108310389D01*
X202243041Y-107895423D01*
X202403904Y-107507039D01*
X202358145Y-107423750D01*
X203562000Y-107423750D01*
X203562000Y-108014309D01*
X203658673Y-108247698D01*
X203837301Y-108426327D01*
X204070690Y-108523000D01*
X204536250Y-108523000D01*
X204695000Y-108364250D01*
X204695000Y-107265000D01*
X204949000Y-107265000D01*
X204949000Y-108364250D01*
X205107750Y-108523000D01*
X205573310Y-108523000D01*
X205806699Y-108426327D01*
X205985327Y-108247698D01*
X206082000Y-108014309D01*
X206082000Y-107423750D01*
X205923250Y-107265000D01*
X204949000Y-107265000D01*
X204695000Y-107265000D01*
X203720750Y-107265000D01*
X203562000Y-107423750D01*
X202358145Y-107423750D01*
X202281915Y-107285000D01*
X201139000Y-107285000D01*
X201139000Y-107305000D01*
X200885000Y-107305000D01*
X200885000Y-107285000D01*
X199742085Y-107285000D01*
X199620096Y-107507039D01*
X199780959Y-107895423D01*
X200156866Y-108310389D01*
X200373703Y-108413014D01*
X199969189Y-108683302D01*
X199658120Y-109148849D01*
X199548887Y-109698000D01*
X194855113Y-109698000D01*
X194745880Y-109148849D01*
X194434811Y-108683302D01*
X194052725Y-108428000D01*
X194434811Y-108172698D01*
X194745880Y-107707151D01*
X194855113Y-107158000D01*
X194745880Y-106608849D01*
X194434811Y-106143302D01*
X194290535Y-106046899D01*
X194427317Y-106021162D01*
X194643441Y-105882090D01*
X194788431Y-105669890D01*
X194839440Y-105418000D01*
X194839440Y-103818000D01*
X194795162Y-103582683D01*
X194656090Y-103366559D01*
X194443890Y-103221569D01*
X194217500Y-103175724D01*
X194217500Y-102165934D01*
X194651006Y-101732428D01*
X194764910Y-101909441D01*
X194977110Y-102054431D01*
X195229000Y-102105440D01*
X196729000Y-102105440D01*
X196964317Y-102061162D01*
X197180441Y-101922090D01*
X197325431Y-101709890D01*
X197328081Y-101696803D01*
X197464910Y-101909441D01*
X197677110Y-102054431D01*
X197929000Y-102105440D01*
X199429000Y-102105440D01*
X199664317Y-102061162D01*
X199880441Y-101922090D01*
X199957247Y-101809681D01*
X200186500Y-102038934D01*
X200186500Y-103458099D01*
X199969189Y-103603302D01*
X199658120Y-104068849D01*
X199548887Y-104618000D01*
X199658120Y-105167151D01*
X199969189Y-105632698D01*
X200373703Y-105902986D01*
X200156866Y-106005611D01*
X199780959Y-106420577D01*
X199620096Y-106808961D01*
X199742085Y-107031000D01*
X200885000Y-107031000D01*
X200885000Y-107011000D01*
X201139000Y-107011000D01*
X201139000Y-107031000D01*
X202281915Y-107031000D01*
X202403904Y-106808961D01*
X202243041Y-106420577D01*
X201867134Y-106005611D01*
X201650297Y-105902986D01*
X202054811Y-105632698D01*
X202365880Y-105167151D01*
X202475113Y-104618000D01*
X202365880Y-104068849D01*
X202245041Y-103888000D01*
X203549560Y-103888000D01*
X203549560Y-105388000D01*
X203593838Y-105623317D01*
X203732910Y-105839441D01*
X203801006Y-105885969D01*
X203658673Y-106028302D01*
X203562000Y-106261691D01*
X203562000Y-106852250D01*
X203720750Y-107011000D01*
X204695000Y-107011000D01*
X204695000Y-106991000D01*
X204949000Y-106991000D01*
X204949000Y-107011000D01*
X205923250Y-107011000D01*
X206082000Y-106852250D01*
X206082000Y-106261691D01*
X205985327Y-106028302D01*
X205844090Y-105887064D01*
X205898441Y-105852090D01*
X206043431Y-105639890D01*
X206094440Y-105388000D01*
X206094440Y-103888000D01*
X206050162Y-103652683D01*
X205911090Y-103436559D01*
X205698890Y-103291569D01*
X205647500Y-103281162D01*
X205647500Y-102840000D01*
X205617067Y-102687000D01*
X205584663Y-102524094D01*
X205503161Y-102402118D01*
X205503162Y-102400833D01*
X205361117Y-102057057D01*
X205098327Y-101793808D01*
X204754799Y-101651162D01*
X204382833Y-101650838D01*
X204039057Y-101792883D01*
X203775808Y-102055673D01*
X203633162Y-102399201D01*
X203632838Y-102771167D01*
X203774883Y-103114943D01*
X203951210Y-103291578D01*
X203745559Y-103423910D01*
X203600569Y-103636110D01*
X203549560Y-103888000D01*
X202245041Y-103888000D01*
X202054811Y-103603302D01*
X201837500Y-103458099D01*
X201837500Y-101697005D01*
X201837501Y-101697000D01*
X201774663Y-101381094D01*
X201595717Y-101113283D01*
X200706717Y-100224283D01*
X200438906Y-100045337D01*
X200123000Y-99982500D01*
X200043417Y-99982500D01*
X200032162Y-99922683D01*
X199893090Y-99706559D01*
X199680890Y-99561569D01*
X199429000Y-99510560D01*
X197929000Y-99510560D01*
X197693683Y-99554838D01*
X197477559Y-99693910D01*
X197332569Y-99906110D01*
X197329919Y-99919197D01*
X197193090Y-99706559D01*
X196980890Y-99561569D01*
X196729000Y-99510560D01*
X195229000Y-99510560D01*
X194993683Y-99554838D01*
X194777559Y-99693910D01*
X194632569Y-99906110D01*
X194617100Y-99982500D01*
X194408005Y-99982500D01*
X194408000Y-99982499D01*
X194092094Y-100045337D01*
X193824283Y-100224283D01*
X192808283Y-101240283D01*
X192629337Y-101508094D01*
X192572506Y-101793808D01*
X192566500Y-101824000D01*
X192566500Y-103175358D01*
X192356683Y-103214838D01*
X192140559Y-103353910D01*
X191995569Y-103566110D01*
X191944560Y-103818000D01*
X191944560Y-105418000D01*
X191988838Y-105653317D01*
X192127910Y-105869441D01*
X192340110Y-106014431D01*
X192495089Y-106045815D01*
X192349189Y-106143302D01*
X192038120Y-106608849D01*
X191928887Y-107158000D01*
X191977943Y-107404623D01*
X189506283Y-109876283D01*
X189327337Y-110144094D01*
X189299962Y-110281717D01*
X189264500Y-110460000D01*
X189264500Y-115198067D01*
X186473208Y-117989358D01*
X185940000Y-117883296D01*
X185352581Y-118000141D01*
X184854591Y-118332887D01*
X184521845Y-118830877D01*
X184405000Y-119418296D01*
X181211000Y-119418296D01*
X181211000Y-118439690D01*
X181114327Y-118206301D01*
X180935698Y-118027673D01*
X180702309Y-117931000D01*
X179961750Y-117931000D01*
X179803000Y-118089750D01*
X179549000Y-118089750D01*
X179390250Y-117931000D01*
X178649691Y-117931000D01*
X178416302Y-118027673D01*
X178237673Y-118206301D01*
X178141000Y-118439690D01*
X177332773Y-118439690D01*
X177261409Y-118332887D01*
X176763419Y-118000141D01*
X176176000Y-117883296D01*
X175588581Y-118000141D01*
X175090591Y-118332887D01*
X174757845Y-118830877D01*
X174641000Y-119418296D01*
X174211000Y-119418296D01*
X174094155Y-118830877D01*
X173800718Y-118391716D01*
X176068717Y-116123717D01*
X176247663Y-115855906D01*
X176310501Y-115540000D01*
X176310500Y-115539995D01*
X176310500Y-113007720D01*
X176474189Y-113252698D01*
X176939736Y-113563767D01*
X177488887Y-113673000D01*
X177545113Y-113673000D01*
X178094264Y-113563767D01*
X178559811Y-113252698D01*
X178870880Y-112787151D01*
X178980113Y-112238000D01*
X178870880Y-111688849D01*
X178559811Y-111223302D01*
X178177725Y-110968000D01*
X178559811Y-110712698D01*
X178870880Y-110247151D01*
X178980113Y-109698000D01*
X183673887Y-109698000D01*
X183783120Y-110247151D01*
X184094189Y-110712698D01*
X184476275Y-110968000D01*
X184094189Y-111223302D01*
X183783120Y-111688849D01*
X183673887Y-112238000D01*
X183783120Y-112787151D01*
X184094189Y-113252698D01*
X184559736Y-113563767D01*
X185108887Y-113673000D01*
X185165113Y-113673000D01*
X185714264Y-113563767D01*
X186179811Y-113252698D01*
X186490880Y-112787151D01*
X186600113Y-112238000D01*
X186490880Y-111688849D01*
X186179811Y-111223302D01*
X185797725Y-110968000D01*
X186179811Y-110712698D01*
X186490880Y-110247151D01*
X186600113Y-109698000D01*
X186490880Y-109148849D01*
X186179811Y-108683302D01*
X185775297Y-108413014D01*
X185992134Y-108310389D01*
X186368041Y-107895423D01*
X186528904Y-107507039D01*
X186483145Y-107423750D01*
X187687000Y-107423750D01*
X187687000Y-108014309D01*
X187783673Y-108247698D01*
X187962301Y-108426327D01*
X188195690Y-108523000D01*
X188661250Y-108523000D01*
X188820000Y-108364250D01*
X188820000Y-107265000D01*
X189074000Y-107265000D01*
X189074000Y-108364250D01*
X189232750Y-108523000D01*
X189698310Y-108523000D01*
X189931699Y-108426327D01*
X190110327Y-108247698D01*
X190207000Y-108014309D01*
X190207000Y-107423750D01*
X190048250Y-107265000D01*
X189074000Y-107265000D01*
X188820000Y-107265000D01*
X187845750Y-107265000D01*
X187687000Y-107423750D01*
X186483145Y-107423750D01*
X186406915Y-107285000D01*
X185264000Y-107285000D01*
X185264000Y-107305000D01*
X185010000Y-107305000D01*
X185010000Y-107285000D01*
X183867085Y-107285000D01*
X183745096Y-107507039D01*
X183905959Y-107895423D01*
X184281866Y-108310389D01*
X184498703Y-108413014D01*
X184094189Y-108683302D01*
X183783120Y-109148849D01*
X183673887Y-109698000D01*
X178980113Y-109698000D01*
X178870880Y-109148849D01*
X178559811Y-108683302D01*
X178177725Y-108428000D01*
X178559811Y-108172698D01*
X178870880Y-107707151D01*
X178980113Y-107158000D01*
X178870880Y-106608849D01*
X178559811Y-106143302D01*
X178415535Y-106046899D01*
X178552317Y-106021162D01*
X178768441Y-105882090D01*
X178913431Y-105669890D01*
X178964440Y-105418000D01*
X178964440Y-103818000D01*
X178920162Y-103582683D01*
X178781090Y-103366559D01*
X178568890Y-103221569D01*
X178342500Y-103175724D01*
X178342500Y-102165934D01*
X178698731Y-101809703D01*
X178762910Y-101909441D01*
X178975110Y-102054431D01*
X179227000Y-102105440D01*
X180727000Y-102105440D01*
X180962317Y-102061162D01*
X181178441Y-101922090D01*
X181323431Y-101709890D01*
X181326081Y-101696803D01*
X181462910Y-101909441D01*
X181675110Y-102054431D01*
X181927000Y-102105440D01*
X183427000Y-102105440D01*
X183662317Y-102061162D01*
X183878441Y-101922090D01*
X184006798Y-101734232D01*
X184311500Y-102038934D01*
X184311500Y-103458099D01*
X184094189Y-103603302D01*
X183783120Y-104068849D01*
X183673887Y-104618000D01*
X183783120Y-105167151D01*
X184094189Y-105632698D01*
X184498703Y-105902986D01*
X184281866Y-106005611D01*
X183905959Y-106420577D01*
X183745096Y-106808961D01*
X183867085Y-107031000D01*
X185010000Y-107031000D01*
X185010000Y-107011000D01*
X185264000Y-107011000D01*
X185264000Y-107031000D01*
X186406915Y-107031000D01*
X186528904Y-106808961D01*
X186368041Y-106420577D01*
X185992134Y-106005611D01*
X185775297Y-105902986D01*
X186179811Y-105632698D01*
X186490880Y-105167151D01*
X186600113Y-104618000D01*
X186490880Y-104068849D01*
X186179811Y-103603302D01*
X185962500Y-103458099D01*
X185962500Y-102771167D01*
X187376838Y-102771167D01*
X187518883Y-103114943D01*
X187781673Y-103378192D01*
X187878880Y-103418556D01*
X187870559Y-103423910D01*
X187725569Y-103636110D01*
X187674560Y-103888000D01*
X187674560Y-105388000D01*
X187718838Y-105623317D01*
X187857910Y-105839441D01*
X187926006Y-105885969D01*
X187783673Y-106028302D01*
X187687000Y-106261691D01*
X187687000Y-106852250D01*
X187845750Y-107011000D01*
X188820000Y-107011000D01*
X188820000Y-106991000D01*
X189074000Y-106991000D01*
X189074000Y-107011000D01*
X190048250Y-107011000D01*
X190207000Y-106852250D01*
X190207000Y-106261691D01*
X190110327Y-106028302D01*
X189969090Y-105887064D01*
X190023441Y-105852090D01*
X190168431Y-105639890D01*
X190219440Y-105388000D01*
X190219440Y-103888000D01*
X190175162Y-103652683D01*
X190036090Y-103436559D01*
X189823890Y-103291569D01*
X189772500Y-103281162D01*
X189772500Y-103221005D01*
X189772501Y-103221000D01*
X189709663Y-102905095D01*
X189624804Y-102778095D01*
X189530717Y-102637283D01*
X189530714Y-102637281D01*
X189213994Y-102320561D01*
X189105117Y-102057057D01*
X188842327Y-101793808D01*
X188498799Y-101651162D01*
X188126833Y-101650838D01*
X187783057Y-101792883D01*
X187519808Y-102055673D01*
X187377162Y-102399201D01*
X187376838Y-102771167D01*
X185962500Y-102771167D01*
X185962500Y-101697005D01*
X185962501Y-101697000D01*
X185899663Y-101381094D01*
X185720717Y-101113283D01*
X184831717Y-100224283D01*
X184563906Y-100045337D01*
X184248000Y-99982500D01*
X184041417Y-99982500D01*
X184030162Y-99922683D01*
X183891090Y-99706559D01*
X183678890Y-99561569D01*
X183427000Y-99510560D01*
X181927000Y-99510560D01*
X181691683Y-99554838D01*
X181475559Y-99693910D01*
X181330569Y-99906110D01*
X181327919Y-99919197D01*
X181191090Y-99706559D01*
X180978890Y-99561569D01*
X180727000Y-99510560D01*
X179227000Y-99510560D01*
X178991683Y-99554838D01*
X178775559Y-99693910D01*
X178630569Y-99906110D01*
X178615100Y-99982500D01*
X178533005Y-99982500D01*
X178533000Y-99982499D01*
X178217094Y-100045337D01*
X177949283Y-100224283D01*
X176933283Y-101240283D01*
X176754337Y-101508094D01*
X176697506Y-101793808D01*
X176691500Y-101824000D01*
X176691500Y-103175358D01*
X176481683Y-103214838D01*
X176265559Y-103353910D01*
X176120569Y-103566110D01*
X176069560Y-103818000D01*
X176069560Y-105418000D01*
X176113838Y-105653317D01*
X176252910Y-105869441D01*
X176465110Y-106014431D01*
X176620089Y-106045815D01*
X176474189Y-106143302D01*
X176163120Y-106608849D01*
X176053887Y-107158000D01*
X176102943Y-107404623D01*
X173631283Y-109876283D01*
X173452337Y-110144094D01*
X173424962Y-110281717D01*
X173389500Y-110460000D01*
X173389500Y-114563066D01*
X169876720Y-118075846D01*
X169763419Y-118000141D01*
X169176000Y-117883296D01*
X168588581Y-118000141D01*
X168090591Y-118332887D01*
X167757845Y-118830877D01*
X167641000Y-119418296D01*
X163939000Y-119418296D01*
X163939000Y-118439690D01*
X163842327Y-118206301D01*
X163663698Y-118027673D01*
X163430309Y-117931000D01*
X162689750Y-117931000D01*
X162531000Y-118089750D01*
X162277000Y-118089750D01*
X162118250Y-117931000D01*
X161377691Y-117931000D01*
X161144302Y-118027673D01*
X160965673Y-118206301D01*
X160869000Y-118439690D01*
X160060773Y-118439690D01*
X159989409Y-118332887D01*
X159491419Y-118000141D01*
X158904000Y-117883296D01*
X158316581Y-118000141D01*
X157818591Y-118332887D01*
X157485845Y-118830877D01*
X157369000Y-119418296D01*
X156939000Y-119418296D01*
X156827033Y-118855401D01*
X160193714Y-115488719D01*
X160193717Y-115488717D01*
X160370532Y-115224095D01*
X160372663Y-115220906D01*
X160435500Y-114905000D01*
X160435500Y-113007720D01*
X160599189Y-113252698D01*
X161064736Y-113563767D01*
X161613887Y-113673000D01*
X161670113Y-113673000D01*
X162219264Y-113563767D01*
X162684811Y-113252698D01*
X162995880Y-112787151D01*
X163105113Y-112238000D01*
X162995880Y-111688849D01*
X162684811Y-111223302D01*
X162302725Y-110968000D01*
X162684811Y-110712698D01*
X162995880Y-110247151D01*
X163105113Y-109698000D01*
X167798887Y-109698000D01*
X167908120Y-110247151D01*
X168219189Y-110712698D01*
X168601275Y-110968000D01*
X168219189Y-111223302D01*
X167908120Y-111688849D01*
X167798887Y-112238000D01*
X167908120Y-112787151D01*
X168219189Y-113252698D01*
X168684736Y-113563767D01*
X169233887Y-113673000D01*
X169290113Y-113673000D01*
X169839264Y-113563767D01*
X170304811Y-113252698D01*
X170615880Y-112787151D01*
X170725113Y-112238000D01*
X170615880Y-111688849D01*
X170304811Y-111223302D01*
X169922725Y-110968000D01*
X170304811Y-110712698D01*
X170615880Y-110247151D01*
X170725113Y-109698000D01*
X170615880Y-109148849D01*
X170304811Y-108683302D01*
X169900297Y-108413014D01*
X170117134Y-108310389D01*
X170493041Y-107895423D01*
X170653904Y-107507039D01*
X170608145Y-107423750D01*
X171812000Y-107423750D01*
X171812000Y-108014309D01*
X171908673Y-108247698D01*
X172087301Y-108426327D01*
X172320690Y-108523000D01*
X172786250Y-108523000D01*
X172945000Y-108364250D01*
X172945000Y-107265000D01*
X173199000Y-107265000D01*
X173199000Y-108364250D01*
X173357750Y-108523000D01*
X173823310Y-108523000D01*
X174056699Y-108426327D01*
X174235327Y-108247698D01*
X174332000Y-108014309D01*
X174332000Y-107423750D01*
X174173250Y-107265000D01*
X173199000Y-107265000D01*
X172945000Y-107265000D01*
X171970750Y-107265000D01*
X171812000Y-107423750D01*
X170608145Y-107423750D01*
X170531915Y-107285000D01*
X169389000Y-107285000D01*
X169389000Y-107305000D01*
X169135000Y-107305000D01*
X169135000Y-107285000D01*
X167992085Y-107285000D01*
X167870096Y-107507039D01*
X168030959Y-107895423D01*
X168406866Y-108310389D01*
X168623703Y-108413014D01*
X168219189Y-108683302D01*
X167908120Y-109148849D01*
X167798887Y-109698000D01*
X163105113Y-109698000D01*
X162995880Y-109148849D01*
X162684811Y-108683302D01*
X162302725Y-108428000D01*
X162684811Y-108172698D01*
X162995880Y-107707151D01*
X163105113Y-107158000D01*
X162995880Y-106608849D01*
X162684811Y-106143302D01*
X162540535Y-106046899D01*
X162677317Y-106021162D01*
X162893441Y-105882090D01*
X163038431Y-105669890D01*
X163089440Y-105418000D01*
X163089440Y-103818000D01*
X163045162Y-103582683D01*
X162906090Y-103366559D01*
X162693890Y-103221569D01*
X162467500Y-103175724D01*
X162467500Y-102165934D01*
X162823731Y-101809703D01*
X162887910Y-101909441D01*
X163100110Y-102054431D01*
X163352000Y-102105440D01*
X164852000Y-102105440D01*
X165087317Y-102061162D01*
X165303441Y-101922090D01*
X165448431Y-101709890D01*
X165451081Y-101696803D01*
X165587910Y-101909441D01*
X165800110Y-102054431D01*
X166052000Y-102105440D01*
X167552000Y-102105440D01*
X167787317Y-102061162D01*
X168003441Y-101922090D01*
X168131798Y-101734232D01*
X168436500Y-102038934D01*
X168436500Y-103458099D01*
X168219189Y-103603302D01*
X167908120Y-104068849D01*
X167798887Y-104618000D01*
X167908120Y-105167151D01*
X168219189Y-105632698D01*
X168623703Y-105902986D01*
X168406866Y-106005611D01*
X168030959Y-106420577D01*
X167870096Y-106808961D01*
X167992085Y-107031000D01*
X169135000Y-107031000D01*
X169135000Y-107011000D01*
X169389000Y-107011000D01*
X169389000Y-107031000D01*
X170531915Y-107031000D01*
X170653904Y-106808961D01*
X170493041Y-106420577D01*
X170117134Y-106005611D01*
X169900297Y-105902986D01*
X170304811Y-105632698D01*
X170615880Y-105167151D01*
X170725113Y-104618000D01*
X170615880Y-104068849D01*
X170304811Y-103603302D01*
X170087500Y-103458099D01*
X170087500Y-102771167D01*
X171628838Y-102771167D01*
X171770883Y-103114943D01*
X172033673Y-103378192D01*
X172053690Y-103386504D01*
X171995559Y-103423910D01*
X171850569Y-103636110D01*
X171799560Y-103888000D01*
X171799560Y-105388000D01*
X171843838Y-105623317D01*
X171982910Y-105839441D01*
X172051006Y-105885969D01*
X171908673Y-106028302D01*
X171812000Y-106261691D01*
X171812000Y-106852250D01*
X171970750Y-107011000D01*
X172945000Y-107011000D01*
X172945000Y-106991000D01*
X173199000Y-106991000D01*
X173199000Y-107011000D01*
X174173250Y-107011000D01*
X174332000Y-106852250D01*
X174332000Y-106261691D01*
X174235327Y-106028302D01*
X174094090Y-105887064D01*
X174148441Y-105852090D01*
X174293431Y-105639890D01*
X174344440Y-105388000D01*
X174344440Y-103888000D01*
X174300162Y-103652683D01*
X174161090Y-103436559D01*
X173948890Y-103291569D01*
X173897500Y-103281162D01*
X173897500Y-103094000D01*
X173834663Y-102778095D01*
X173655717Y-102510283D01*
X173655714Y-102510281D01*
X173465994Y-102320561D01*
X173357117Y-102057057D01*
X173094327Y-101793808D01*
X172750799Y-101651162D01*
X172378833Y-101650838D01*
X172035057Y-101792883D01*
X171771808Y-102055673D01*
X171629162Y-102399201D01*
X171628838Y-102771167D01*
X170087500Y-102771167D01*
X170087500Y-101697005D01*
X170087501Y-101697000D01*
X170024663Y-101381094D01*
X169845717Y-101113283D01*
X168956717Y-100224283D01*
X168688906Y-100045337D01*
X168373000Y-99982500D01*
X168166417Y-99982500D01*
X168155162Y-99922683D01*
X168016090Y-99706559D01*
X167803890Y-99561569D01*
X167552000Y-99510560D01*
X166052000Y-99510560D01*
X165816683Y-99554838D01*
X165600559Y-99693910D01*
X165455569Y-99906110D01*
X165452919Y-99919197D01*
X165316090Y-99706559D01*
X165103890Y-99561569D01*
X164852000Y-99510560D01*
X163352000Y-99510560D01*
X163116683Y-99554838D01*
X162900559Y-99693910D01*
X162755569Y-99906110D01*
X162740100Y-99982500D01*
X162658005Y-99982500D01*
X162658000Y-99982499D01*
X162342094Y-100045337D01*
X162074283Y-100224283D01*
X161058283Y-101240283D01*
X160879337Y-101508094D01*
X160822506Y-101793808D01*
X160816500Y-101824000D01*
X160816500Y-103175358D01*
X160606683Y-103214838D01*
X160390559Y-103353910D01*
X160245569Y-103566110D01*
X160194560Y-103818000D01*
X160194560Y-105418000D01*
X160238838Y-105653317D01*
X160377910Y-105869441D01*
X160590110Y-106014431D01*
X160745089Y-106045815D01*
X160599189Y-106143302D01*
X160288120Y-106608849D01*
X160178887Y-107158000D01*
X160227943Y-107404623D01*
X157756283Y-109876283D01*
X157577337Y-110144094D01*
X157549962Y-110281717D01*
X157514500Y-110460000D01*
X157514500Y-113928066D01*
X153037582Y-118404984D01*
X152989409Y-118332887D01*
X152491419Y-118000141D01*
X151904000Y-117883296D01*
X151316581Y-118000141D01*
X150818591Y-118332887D01*
X150485845Y-118830877D01*
X150369000Y-119418296D01*
X145651000Y-119418296D01*
X145651000Y-118439690D01*
X145554327Y-118206301D01*
X145375698Y-118027673D01*
X145142309Y-117931000D01*
X144401750Y-117931000D01*
X144243000Y-118089750D01*
X143989000Y-118089750D01*
X143830250Y-117931000D01*
X143089691Y-117931000D01*
X142856302Y-118027673D01*
X142677673Y-118206301D01*
X142581000Y-118439690D01*
X141772773Y-118439690D01*
X141701409Y-118332887D01*
X141203419Y-118000141D01*
X140616000Y-117883296D01*
X140028581Y-118000141D01*
X139530591Y-118332887D01*
X139197845Y-118830877D01*
X139081000Y-119418296D01*
X138651000Y-119418296D01*
X138534155Y-118830877D01*
X138495063Y-118772371D01*
X139631933Y-117635500D01*
X141830000Y-117635500D01*
X142145906Y-117572663D01*
X142413717Y-117393717D01*
X144318717Y-115488717D01*
X144497663Y-115220905D01*
X144560501Y-114905000D01*
X144560500Y-114904995D01*
X144560500Y-112251136D01*
X144667120Y-112787151D01*
X144978189Y-113252698D01*
X145443736Y-113563767D01*
X145992887Y-113673000D01*
X146049113Y-113673000D01*
X146598264Y-113563767D01*
X147063811Y-113252698D01*
X147374880Y-112787151D01*
X147484113Y-112238000D01*
X147374880Y-111688849D01*
X147063811Y-111223302D01*
X146681725Y-110968000D01*
X147063811Y-110712698D01*
X147374880Y-110247151D01*
X147484113Y-109698000D01*
X152177887Y-109698000D01*
X152287120Y-110247151D01*
X152598189Y-110712698D01*
X152980275Y-110968000D01*
X152598189Y-111223302D01*
X152287120Y-111688849D01*
X152177887Y-112238000D01*
X152287120Y-112787151D01*
X152598189Y-113252698D01*
X153063736Y-113563767D01*
X153612887Y-113673000D01*
X153669113Y-113673000D01*
X154218264Y-113563767D01*
X154683811Y-113252698D01*
X154994880Y-112787151D01*
X155104113Y-112238000D01*
X154994880Y-111688849D01*
X154683811Y-111223302D01*
X154301725Y-110968000D01*
X154683811Y-110712698D01*
X154994880Y-110247151D01*
X155104113Y-109698000D01*
X154994880Y-109148849D01*
X154683811Y-108683302D01*
X154279297Y-108413014D01*
X154496134Y-108310389D01*
X154872041Y-107895423D01*
X155032904Y-107507039D01*
X154987145Y-107423750D01*
X156191000Y-107423750D01*
X156191000Y-108014309D01*
X156287673Y-108247698D01*
X156466301Y-108426327D01*
X156699690Y-108523000D01*
X157165250Y-108523000D01*
X157324000Y-108364250D01*
X157324000Y-107265000D01*
X157578000Y-107265000D01*
X157578000Y-108364250D01*
X157736750Y-108523000D01*
X158202310Y-108523000D01*
X158435699Y-108426327D01*
X158614327Y-108247698D01*
X158711000Y-108014309D01*
X158711000Y-107423750D01*
X158552250Y-107265000D01*
X157578000Y-107265000D01*
X157324000Y-107265000D01*
X156349750Y-107265000D01*
X156191000Y-107423750D01*
X154987145Y-107423750D01*
X154910915Y-107285000D01*
X153768000Y-107285000D01*
X153768000Y-107305000D01*
X153514000Y-107305000D01*
X153514000Y-107285000D01*
X152371085Y-107285000D01*
X152249096Y-107507039D01*
X152409959Y-107895423D01*
X152785866Y-108310389D01*
X153002703Y-108413014D01*
X152598189Y-108683302D01*
X152287120Y-109148849D01*
X152177887Y-109698000D01*
X147484113Y-109698000D01*
X147374880Y-109148849D01*
X147063811Y-108683302D01*
X146681725Y-108428000D01*
X147063811Y-108172698D01*
X147374880Y-107707151D01*
X147484113Y-107158000D01*
X147374880Y-106608849D01*
X147063811Y-106143302D01*
X146919535Y-106046899D01*
X147056317Y-106021162D01*
X147272441Y-105882090D01*
X147417431Y-105669890D01*
X147468440Y-105418000D01*
X147468440Y-103818000D01*
X147424162Y-103582683D01*
X147285090Y-103366559D01*
X147072890Y-103221569D01*
X146846500Y-103175724D01*
X146846500Y-102292934D01*
X147252456Y-101886978D01*
X147266910Y-101909441D01*
X147479110Y-102054431D01*
X147731000Y-102105440D01*
X149231000Y-102105440D01*
X149466317Y-102061162D01*
X149682441Y-101922090D01*
X149827431Y-101709890D01*
X149830081Y-101696803D01*
X149966910Y-101909441D01*
X150179110Y-102054431D01*
X150431000Y-102105440D01*
X151931000Y-102105440D01*
X152166317Y-102061162D01*
X152382441Y-101922090D01*
X152510798Y-101734232D01*
X152815500Y-102038934D01*
X152815500Y-103458099D01*
X152598189Y-103603302D01*
X152287120Y-104068849D01*
X152177887Y-104618000D01*
X152287120Y-105167151D01*
X152598189Y-105632698D01*
X153002703Y-105902986D01*
X152785866Y-106005611D01*
X152409959Y-106420577D01*
X152249096Y-106808961D01*
X152371085Y-107031000D01*
X153514000Y-107031000D01*
X153514000Y-107011000D01*
X153768000Y-107011000D01*
X153768000Y-107031000D01*
X154910915Y-107031000D01*
X155032904Y-106808961D01*
X154872041Y-106420577D01*
X154496134Y-106005611D01*
X154279297Y-105902986D01*
X154683811Y-105632698D01*
X154994880Y-105167151D01*
X155104113Y-104618000D01*
X154994880Y-104068849D01*
X154683811Y-103603302D01*
X154466500Y-103458099D01*
X154466500Y-102771167D01*
X155880838Y-102771167D01*
X156022883Y-103114943D01*
X156285673Y-103378192D01*
X156382880Y-103418556D01*
X156374559Y-103423910D01*
X156229569Y-103636110D01*
X156178560Y-103888000D01*
X156178560Y-105388000D01*
X156222838Y-105623317D01*
X156361910Y-105839441D01*
X156430006Y-105885969D01*
X156287673Y-106028302D01*
X156191000Y-106261691D01*
X156191000Y-106852250D01*
X156349750Y-107011000D01*
X157324000Y-107011000D01*
X157324000Y-106991000D01*
X157578000Y-106991000D01*
X157578000Y-107011000D01*
X158552250Y-107011000D01*
X158711000Y-106852250D01*
X158711000Y-106261691D01*
X158614327Y-106028302D01*
X158473090Y-105887064D01*
X158527441Y-105852090D01*
X158672431Y-105639890D01*
X158723440Y-105388000D01*
X158723440Y-103888000D01*
X158679162Y-103652683D01*
X158540090Y-103436559D01*
X158327890Y-103291569D01*
X158276500Y-103281162D01*
X158276500Y-103221005D01*
X158276501Y-103221000D01*
X158213663Y-102905095D01*
X158128804Y-102778095D01*
X158034717Y-102637283D01*
X158034714Y-102637281D01*
X157717994Y-102320561D01*
X157609117Y-102057057D01*
X157346327Y-101793808D01*
X157002799Y-101651162D01*
X156630833Y-101650838D01*
X156287057Y-101792883D01*
X156023808Y-102055673D01*
X155881162Y-102399201D01*
X155880838Y-102771167D01*
X154466500Y-102771167D01*
X154466500Y-101697005D01*
X154466501Y-101697000D01*
X154403663Y-101381094D01*
X154224717Y-101113283D01*
X153335717Y-100224283D01*
X153067906Y-100045337D01*
X152752000Y-99982500D01*
X152545417Y-99982500D01*
X152534162Y-99922683D01*
X152395090Y-99706559D01*
X152182890Y-99561569D01*
X151931000Y-99510560D01*
X150431000Y-99510560D01*
X150195683Y-99554838D01*
X149979559Y-99693910D01*
X149834569Y-99906110D01*
X149831919Y-99919197D01*
X149695090Y-99706559D01*
X149482890Y-99561569D01*
X149231000Y-99510560D01*
X147731000Y-99510560D01*
X147495683Y-99554838D01*
X147279559Y-99693910D01*
X147134569Y-99906110D01*
X147117215Y-99991806D01*
X146848094Y-100045337D01*
X146580283Y-100224283D01*
X145437283Y-101367283D01*
X145258337Y-101635094D01*
X145226951Y-101792883D01*
X145195500Y-101951000D01*
X145195500Y-103175358D01*
X144985683Y-103214838D01*
X144769559Y-103353910D01*
X144624569Y-103566110D01*
X144573560Y-103818000D01*
X144573560Y-105418000D01*
X144617838Y-105653317D01*
X144756910Y-105869441D01*
X144969110Y-106014431D01*
X145124089Y-106045815D01*
X144978189Y-106143302D01*
X144667120Y-106608849D01*
X144557887Y-107158000D01*
X144564802Y-107192764D01*
X143852000Y-107905566D01*
X143852000Y-107423750D01*
X143693250Y-107265000D01*
X142719000Y-107265000D01*
X142719000Y-108364250D01*
X142877750Y-108523000D01*
X143234566Y-108523000D01*
X141881283Y-109876283D01*
X141702337Y-110144094D01*
X141674962Y-110281717D01*
X141639500Y-110460000D01*
X141639500Y-113928067D01*
X140853066Y-114714500D01*
X138020005Y-114714500D01*
X138020000Y-114714499D01*
X137704095Y-114777337D01*
X137436283Y-114956283D01*
X137436281Y-114956286D01*
X134316720Y-118075846D01*
X134203419Y-118000141D01*
X133616000Y-117883296D01*
X133028581Y-118000141D01*
X132530591Y-118332887D01*
X132197845Y-118830877D01*
X132081000Y-119418296D01*
X125535565Y-119418296D01*
X125398050Y-119085485D01*
X124320189Y-118005741D01*
X122911175Y-117420667D01*
X121385518Y-117419336D01*
X119975485Y-118001950D01*
X118895741Y-119079811D01*
X118310667Y-120488825D01*
X118309336Y-122014482D01*
X117827000Y-122014482D01*
X117827000Y-107722000D01*
X119789296Y-107722000D01*
X119906141Y-108309419D01*
X120238887Y-108807409D01*
X120736877Y-109140155D01*
X121324296Y-109257000D01*
X123219704Y-109257000D01*
X123807123Y-109140155D01*
X124305113Y-108807409D01*
X124637859Y-108309419D01*
X124754704Y-107722000D01*
X124637859Y-107134581D01*
X124305113Y-106636591D01*
X123807123Y-106303845D01*
X123219704Y-106187000D01*
X121324296Y-106187000D01*
X120736877Y-106303845D01*
X120238887Y-106636591D01*
X119906141Y-107134581D01*
X119789296Y-107722000D01*
X117827000Y-107722000D01*
X117827000Y-104222000D01*
X119789296Y-104222000D01*
X119906141Y-104809419D01*
X120238887Y-105307409D01*
X120736877Y-105640155D01*
X121324296Y-105757000D01*
X123219704Y-105757000D01*
X123807123Y-105640155D01*
X124305113Y-105307409D01*
X124637859Y-104809419D01*
X124754704Y-104222000D01*
X124637859Y-103634581D01*
X124305113Y-103136591D01*
X123807123Y-102803845D01*
X123219704Y-102687000D01*
X121324296Y-102687000D01*
X120736877Y-102803845D01*
X120238887Y-103136591D01*
X119906141Y-103634581D01*
X119789296Y-104222000D01*
X117827000Y-104222000D01*
X117827000Y-96606000D01*
X119824560Y-96606000D01*
X119824560Y-98406000D01*
X119868838Y-98641317D01*
X120007910Y-98857441D01*
X120220110Y-99002431D01*
X120472000Y-99053440D01*
X124072000Y-99053440D01*
X124307317Y-99009162D01*
X124523441Y-98870090D01*
X124668431Y-98657890D01*
X124719440Y-98406000D01*
X124719440Y-98331500D01*
X125828000Y-98331500D01*
X126143906Y-98268663D01*
X126411717Y-98089717D01*
X126536200Y-97965234D01*
X126526500Y-98014000D01*
X126526500Y-108340067D01*
X124691746Y-110174820D01*
X124675162Y-110086683D01*
X124536090Y-109870559D01*
X124323890Y-109725569D01*
X124072000Y-109674560D01*
X120472000Y-109674560D01*
X120236683Y-109718838D01*
X120020559Y-109857910D01*
X119875569Y-110070110D01*
X119824560Y-110322000D01*
X119824560Y-112122000D01*
X119868838Y-112357317D01*
X120007910Y-112573441D01*
X120220110Y-112718431D01*
X120472000Y-112769440D01*
X124072000Y-112769440D01*
X124307317Y-112725162D01*
X124523441Y-112586090D01*
X124668431Y-112373890D01*
X124719440Y-112122000D01*
X124719440Y-112047500D01*
X124812000Y-112047500D01*
X125127906Y-111984663D01*
X125395717Y-111805717D01*
X127935714Y-109265719D01*
X127935717Y-109265717D01*
X128114663Y-108997905D01*
X128177500Y-108682000D01*
X128177500Y-102524831D01*
X128435201Y-102631838D01*
X128807167Y-102632162D01*
X129150943Y-102490117D01*
X129414192Y-102227327D01*
X129556838Y-101883799D01*
X129556876Y-101839754D01*
X129564294Y-101832336D01*
X129613910Y-101909441D01*
X129826110Y-102054431D01*
X130078000Y-102105440D01*
X131578000Y-102105440D01*
X131813317Y-102061162D01*
X132029441Y-101922090D01*
X132174431Y-101709890D01*
X132177081Y-101696803D01*
X132313910Y-101909441D01*
X132368500Y-101946741D01*
X132368500Y-103175724D01*
X132343000Y-103170560D01*
X130743000Y-103170560D01*
X130507683Y-103214838D01*
X130291559Y-103353910D01*
X130146569Y-103566110D01*
X130095560Y-103818000D01*
X130095560Y-105418000D01*
X130139838Y-105653317D01*
X130278910Y-105869441D01*
X130491110Y-106014431D01*
X130646089Y-106045815D01*
X130500189Y-106143302D01*
X130189120Y-106608849D01*
X130079887Y-107158000D01*
X130189120Y-107707151D01*
X130500189Y-108172698D01*
X130882275Y-108428000D01*
X130500189Y-108683302D01*
X130189120Y-109148849D01*
X130079887Y-109698000D01*
X130189120Y-110247151D01*
X130500189Y-110712698D01*
X130882275Y-110968000D01*
X130500189Y-111223302D01*
X130189120Y-111688849D01*
X130079887Y-112238000D01*
X130189120Y-112787151D01*
X130500189Y-113252698D01*
X130965736Y-113563767D01*
X131514887Y-113673000D01*
X131571113Y-113673000D01*
X132120264Y-113563767D01*
X132585811Y-113252698D01*
X132896880Y-112787151D01*
X133006113Y-112238000D01*
X132896880Y-111688849D01*
X132585811Y-111223302D01*
X132203725Y-110968000D01*
X132585811Y-110712698D01*
X132896880Y-110247151D01*
X132921859Y-110121575D01*
X133345434Y-109698000D01*
X137699887Y-109698000D01*
X137809120Y-110247151D01*
X138120189Y-110712698D01*
X138502275Y-110968000D01*
X138120189Y-111223302D01*
X137809120Y-111688849D01*
X137699887Y-112238000D01*
X137809120Y-112787151D01*
X138120189Y-113252698D01*
X138585736Y-113563767D01*
X139134887Y-113673000D01*
X139191113Y-113673000D01*
X139740264Y-113563767D01*
X140205811Y-113252698D01*
X140516880Y-112787151D01*
X140626113Y-112238000D01*
X140516880Y-111688849D01*
X140205811Y-111223302D01*
X139823725Y-110968000D01*
X140205811Y-110712698D01*
X140516880Y-110247151D01*
X140626113Y-109698000D01*
X140516880Y-109148849D01*
X140205811Y-108683302D01*
X139801297Y-108413014D01*
X140018134Y-108310389D01*
X140394041Y-107895423D01*
X140554904Y-107507039D01*
X140509145Y-107423750D01*
X141332000Y-107423750D01*
X141332000Y-108014309D01*
X141428673Y-108247698D01*
X141607301Y-108426327D01*
X141840690Y-108523000D01*
X142306250Y-108523000D01*
X142465000Y-108364250D01*
X142465000Y-107265000D01*
X141490750Y-107265000D01*
X141332000Y-107423750D01*
X140509145Y-107423750D01*
X140432915Y-107285000D01*
X139290000Y-107285000D01*
X139290000Y-107305000D01*
X139036000Y-107305000D01*
X139036000Y-107285000D01*
X137893085Y-107285000D01*
X137771096Y-107507039D01*
X137931959Y-107895423D01*
X138307866Y-108310389D01*
X138524703Y-108413014D01*
X138120189Y-108683302D01*
X137809120Y-109148849D01*
X137699887Y-109698000D01*
X133345434Y-109698000D01*
X133777717Y-109265717D01*
X133956663Y-108997906D01*
X134019501Y-108682000D01*
X134019500Y-108681995D01*
X134019500Y-104618000D01*
X137699887Y-104618000D01*
X137809120Y-105167151D01*
X138120189Y-105632698D01*
X138524703Y-105902986D01*
X138307866Y-106005611D01*
X137931959Y-106420577D01*
X137771096Y-106808961D01*
X137893085Y-107031000D01*
X139036000Y-107031000D01*
X139036000Y-107011000D01*
X139290000Y-107011000D01*
X139290000Y-107031000D01*
X140432915Y-107031000D01*
X140554904Y-106808961D01*
X140394041Y-106420577D01*
X140018134Y-106005611D01*
X139801297Y-105902986D01*
X140205811Y-105632698D01*
X140516880Y-105167151D01*
X140626113Y-104618000D01*
X140516880Y-104068849D01*
X140205811Y-103603302D01*
X139740264Y-103292233D01*
X139191113Y-103183000D01*
X139134887Y-103183000D01*
X138585736Y-103292233D01*
X138120189Y-103603302D01*
X137809120Y-104068849D01*
X137699887Y-104618000D01*
X134019500Y-104618000D01*
X134019500Y-102771167D01*
X141148838Y-102771167D01*
X141290883Y-103114943D01*
X141553673Y-103378192D01*
X141573690Y-103386504D01*
X141515559Y-103423910D01*
X141370569Y-103636110D01*
X141319560Y-103888000D01*
X141319560Y-105388000D01*
X141363838Y-105623317D01*
X141502910Y-105839441D01*
X141571006Y-105885969D01*
X141428673Y-106028302D01*
X141332000Y-106261691D01*
X141332000Y-106852250D01*
X141490750Y-107011000D01*
X142465000Y-107011000D01*
X142465000Y-106991000D01*
X142719000Y-106991000D01*
X142719000Y-107011000D01*
X143693250Y-107011000D01*
X143852000Y-106852250D01*
X143852000Y-106261691D01*
X143755327Y-106028302D01*
X143614090Y-105887064D01*
X143668441Y-105852090D01*
X143813431Y-105639890D01*
X143864440Y-105388000D01*
X143864440Y-103888000D01*
X143820162Y-103652683D01*
X143681090Y-103436559D01*
X143468890Y-103291569D01*
X143417500Y-103281162D01*
X143417500Y-103094000D01*
X143354663Y-102778095D01*
X143175717Y-102510283D01*
X143175714Y-102510281D01*
X142985994Y-102320561D01*
X142877117Y-102057057D01*
X142614327Y-101793808D01*
X142270799Y-101651162D01*
X141898833Y-101650838D01*
X141555057Y-101792883D01*
X141291808Y-102055673D01*
X141149162Y-102399201D01*
X141148838Y-102771167D01*
X134019500Y-102771167D01*
X134019500Y-102105440D01*
X134278000Y-102105440D01*
X134513317Y-102061162D01*
X134729441Y-101922090D01*
X134874431Y-101709890D01*
X134889900Y-101633500D01*
X136067583Y-101633500D01*
X136078838Y-101693317D01*
X136217910Y-101909441D01*
X136430110Y-102054431D01*
X136682000Y-102105440D01*
X138182000Y-102105440D01*
X138417317Y-102061162D01*
X138633441Y-101922090D01*
X138778431Y-101709890D01*
X138785191Y-101676510D01*
X138843673Y-101817699D01*
X139022302Y-101996327D01*
X139255691Y-102093000D01*
X139846250Y-102093000D01*
X140005000Y-101934250D01*
X140005000Y-100935000D01*
X140259000Y-100935000D01*
X140259000Y-101934250D01*
X140417750Y-102093000D01*
X141008309Y-102093000D01*
X141241698Y-101996327D01*
X141420327Y-101817699D01*
X141517000Y-101584310D01*
X141517000Y-101093750D01*
X141358250Y-100935000D01*
X140259000Y-100935000D01*
X140005000Y-100935000D01*
X139985000Y-100935000D01*
X139985000Y-100681000D01*
X140005000Y-100681000D01*
X140005000Y-99681750D01*
X140259000Y-99681750D01*
X140259000Y-100681000D01*
X141358250Y-100681000D01*
X141517000Y-100522250D01*
X141517000Y-100031690D01*
X141420327Y-99798301D01*
X141241698Y-99619673D01*
X141008309Y-99523000D01*
X140417750Y-99523000D01*
X140259000Y-99681750D01*
X140005000Y-99681750D01*
X139846250Y-99523000D01*
X139255691Y-99523000D01*
X139022302Y-99619673D01*
X138843673Y-99798301D01*
X138787346Y-99934287D01*
X138785162Y-99922683D01*
X138646090Y-99706559D01*
X138433890Y-99561569D01*
X138182000Y-99510560D01*
X136682000Y-99510560D01*
X136446683Y-99554838D01*
X136230559Y-99693910D01*
X136085569Y-99906110D01*
X136070100Y-99982500D01*
X134892417Y-99982500D01*
X134881162Y-99922683D01*
X134742090Y-99706559D01*
X134529890Y-99561569D01*
X134278000Y-99510560D01*
X132778000Y-99510560D01*
X132542683Y-99554838D01*
X132326559Y-99693910D01*
X132181569Y-99906110D01*
X132178919Y-99919197D01*
X132042090Y-99706559D01*
X131829890Y-99561569D01*
X131578000Y-99510560D01*
X130078000Y-99510560D01*
X129842683Y-99554838D01*
X129626559Y-99693910D01*
X129481569Y-99906110D01*
X129450816Y-100057971D01*
X129219395Y-100104004D01*
X129039384Y-100224284D01*
X128972185Y-100269185D01*
X128479495Y-100761875D01*
X128436833Y-100761838D01*
X128177500Y-100868992D01*
X128177500Y-98355934D01*
X129725934Y-96807500D01*
X151818699Y-96807500D01*
X151817162Y-96811201D01*
X151816838Y-97183167D01*
X151958883Y-97526943D01*
X152221673Y-97790192D01*
X152565201Y-97932838D01*
X152937167Y-97933162D01*
X153202570Y-97823500D01*
X166042699Y-97823500D01*
X166041162Y-97827201D01*
X166040838Y-98199167D01*
X166182883Y-98542943D01*
X166445673Y-98806192D01*
X166789201Y-98948838D01*
X167161167Y-98949162D01*
X167426570Y-98839500D01*
X178152000Y-98839500D01*
X178467906Y-98776663D01*
X178735717Y-98597717D01*
X179134267Y-98199167D01*
X180264838Y-98199167D01*
X180406883Y-98542943D01*
X180669673Y-98806192D01*
X181013201Y-98948838D01*
X181385167Y-98949162D01*
X181728943Y-98807117D01*
X181992192Y-98544327D01*
X182102318Y-98279116D01*
X182182266Y-98199167D01*
X194996838Y-98199167D01*
X195138883Y-98542943D01*
X195401673Y-98806192D01*
X195745201Y-98948838D01*
X196117167Y-98949162D01*
X196460943Y-98807117D01*
X196724192Y-98544327D01*
X196834318Y-98279116D01*
X198663714Y-96449719D01*
X198663717Y-96449717D01*
X198842663Y-96181905D01*
X198844534Y-96172500D01*
X198905501Y-95866000D01*
X198905500Y-95865995D01*
X198905500Y-83964778D01*
X199165409Y-83791113D01*
X199498155Y-83293123D01*
X199615000Y-82705704D01*
X199615000Y-82009482D01*
X202129336Y-82009482D01*
X202711950Y-83419515D01*
X203789811Y-84499259D01*
X205198825Y-85084333D01*
X206724482Y-85085664D01*
X208134515Y-84503050D01*
X209214259Y-83425189D01*
X209799333Y-82016175D01*
X209800664Y-80490518D01*
X209218050Y-79080485D01*
X208140189Y-78000741D01*
X206731175Y-77415667D01*
X205205518Y-77414336D01*
X203795485Y-77996950D01*
X202715741Y-79074811D01*
X202130667Y-80483825D01*
X202129336Y-82009482D01*
X199615000Y-82009482D01*
X199615000Y-80810296D01*
X199498155Y-80222877D01*
X199165409Y-79724887D01*
X198667419Y-79392141D01*
X198080000Y-79275296D01*
X197492581Y-79392141D01*
X196994591Y-79724887D01*
X196661845Y-80222877D01*
X196545000Y-80810296D01*
X196545000Y-82705704D01*
X196661845Y-83293123D01*
X196994591Y-83791113D01*
X197254500Y-83964778D01*
X197254500Y-95524067D01*
X195666560Y-97112006D01*
X195403057Y-97220883D01*
X195139808Y-97483673D01*
X194997162Y-97827201D01*
X194996838Y-98199167D01*
X182182266Y-98199167D01*
X195163714Y-85217719D01*
X195163717Y-85217717D01*
X195342663Y-84949905D01*
X195405500Y-84634000D01*
X195405500Y-83964778D01*
X195665409Y-83791113D01*
X195998155Y-83293123D01*
X196115000Y-82705704D01*
X196115000Y-80810296D01*
X195998155Y-80222877D01*
X195665409Y-79724887D01*
X195167419Y-79392141D01*
X194580000Y-79275296D01*
X193992581Y-79392141D01*
X193494591Y-79724887D01*
X193161845Y-80222877D01*
X193045000Y-80810296D01*
X193045000Y-82705704D01*
X193161845Y-83293123D01*
X193494591Y-83791113D01*
X193754500Y-83964778D01*
X193754500Y-84292067D01*
X180934560Y-97112006D01*
X180671057Y-97220883D01*
X180407808Y-97483673D01*
X180265162Y-97827201D01*
X180264838Y-98199167D01*
X179134267Y-98199167D01*
X191663717Y-85669717D01*
X191842663Y-85401906D01*
X191905501Y-85086000D01*
X191905500Y-85085995D01*
X191905500Y-83964778D01*
X192165409Y-83791113D01*
X192498155Y-83293123D01*
X192615000Y-82705704D01*
X192615000Y-80810296D01*
X192498155Y-80222877D01*
X192165409Y-79724887D01*
X191667419Y-79392141D01*
X191080000Y-79275296D01*
X190492581Y-79392141D01*
X189994591Y-79724887D01*
X189661845Y-80222877D01*
X189545000Y-80810296D01*
X189545000Y-82705704D01*
X189661845Y-83293123D01*
X189994591Y-83791113D01*
X190254500Y-83964778D01*
X190254500Y-84744066D01*
X177810066Y-97188500D01*
X177096934Y-97188500D01*
X188163714Y-86121719D01*
X188163717Y-86121717D01*
X188342663Y-85853905D01*
X188405500Y-85538000D01*
X188405500Y-83964778D01*
X188665409Y-83791113D01*
X188998155Y-83293123D01*
X189115000Y-82705704D01*
X189115000Y-80810296D01*
X188998155Y-80222877D01*
X188665409Y-79724887D01*
X188167419Y-79392141D01*
X187580000Y-79275296D01*
X186992581Y-79392141D01*
X186494591Y-79724887D01*
X186161845Y-80222877D01*
X186045000Y-80810296D01*
X186045000Y-82705704D01*
X186161845Y-83293123D01*
X186494591Y-83791113D01*
X186754500Y-83964778D01*
X186754500Y-85196067D01*
X175778066Y-96172500D01*
X175064934Y-96172500D01*
X184663717Y-86573717D01*
X184842663Y-86305906D01*
X184905501Y-85990000D01*
X184905500Y-85989995D01*
X184905500Y-83964778D01*
X185165409Y-83791113D01*
X185498155Y-83293123D01*
X185615000Y-82705704D01*
X185615000Y-80810296D01*
X185498155Y-80222877D01*
X185165409Y-79724887D01*
X184667419Y-79392141D01*
X184080000Y-79275296D01*
X183492581Y-79392141D01*
X182994591Y-79724887D01*
X182661845Y-80222877D01*
X182545000Y-80810296D01*
X182545000Y-82705704D01*
X182661845Y-83293123D01*
X182994591Y-83791113D01*
X183254500Y-83964778D01*
X183254500Y-85648066D01*
X173746066Y-95156500D01*
X172016934Y-95156500D01*
X181163714Y-86009719D01*
X181163717Y-86009717D01*
X181342663Y-85741905D01*
X181405500Y-85426000D01*
X181405500Y-83964778D01*
X181665409Y-83791113D01*
X181998155Y-83293123D01*
X182115000Y-82705704D01*
X182115000Y-80810296D01*
X181998155Y-80222877D01*
X181665409Y-79724887D01*
X181167419Y-79392141D01*
X180580000Y-79275296D01*
X179992581Y-79392141D01*
X179494591Y-79724887D01*
X179161845Y-80222877D01*
X179045000Y-80810296D01*
X179045000Y-82705704D01*
X179161845Y-83293123D01*
X179494591Y-83791113D01*
X179754500Y-83964778D01*
X179754500Y-85084067D01*
X170698066Y-94140500D01*
X170111934Y-94140500D01*
X177663714Y-86588719D01*
X177663717Y-86588717D01*
X177842663Y-86320905D01*
X177845516Y-86306560D01*
X177905501Y-86005000D01*
X177905500Y-86004995D01*
X177905500Y-83964778D01*
X178165409Y-83791113D01*
X178498155Y-83293123D01*
X178615000Y-82705704D01*
X178615000Y-80810296D01*
X178498155Y-80222877D01*
X178165409Y-79724887D01*
X177667419Y-79392141D01*
X177080000Y-79275296D01*
X176492581Y-79392141D01*
X175994591Y-79724887D01*
X175661845Y-80222877D01*
X175545000Y-80810296D01*
X175545000Y-82705704D01*
X175661845Y-83293123D01*
X175994591Y-83791113D01*
X176254500Y-83964778D01*
X176254500Y-85663067D01*
X168793066Y-93124500D01*
X168535075Y-93124500D01*
X168656431Y-92946890D01*
X168707440Y-92695000D01*
X168707440Y-91395000D01*
X168663162Y-91159683D01*
X168524090Y-90943559D01*
X168311890Y-90798569D01*
X168135500Y-90762849D01*
X168135500Y-90153234D01*
X168295317Y-90123162D01*
X168511441Y-89984090D01*
X168656431Y-89771890D01*
X168671900Y-89695500D01*
X169135000Y-89695500D01*
X169450906Y-89632663D01*
X169718717Y-89453717D01*
X174163714Y-85008719D01*
X174163717Y-85008717D01*
X174299168Y-84806000D01*
X174342663Y-84740906D01*
X174405500Y-84425000D01*
X174405500Y-84205440D01*
X174480000Y-84205440D01*
X174715317Y-84161162D01*
X174931441Y-84022090D01*
X175076431Y-83809890D01*
X175127440Y-83558000D01*
X175127440Y-79958000D01*
X175083162Y-79722683D01*
X174944090Y-79506559D01*
X174731890Y-79361569D01*
X174480000Y-79310560D01*
X172680000Y-79310560D01*
X172444683Y-79354838D01*
X172228559Y-79493910D01*
X172083569Y-79706110D01*
X172032560Y-79958000D01*
X172032560Y-83558000D01*
X172076838Y-83793317D01*
X172215910Y-84009441D01*
X172428110Y-84154431D01*
X172640189Y-84197378D01*
X168793066Y-88044500D01*
X168674417Y-88044500D01*
X168663162Y-87984683D01*
X168524090Y-87768559D01*
X168311890Y-87623569D01*
X168060000Y-87572560D01*
X166560000Y-87572560D01*
X166324683Y-87616838D01*
X166108559Y-87755910D01*
X165963569Y-87968110D01*
X165956809Y-88001490D01*
X165898327Y-87860301D01*
X165719698Y-87681673D01*
X165486309Y-87585000D01*
X164895750Y-87585000D01*
X164737000Y-87743750D01*
X164737000Y-88743000D01*
X164757000Y-88743000D01*
X164757000Y-88997000D01*
X164737000Y-88997000D01*
X164737000Y-89996250D01*
X164895750Y-90155000D01*
X165486309Y-90155000D01*
X165719698Y-90058327D01*
X165898327Y-89879699D01*
X165954654Y-89743713D01*
X165956838Y-89755317D01*
X166095910Y-89971441D01*
X166308110Y-90116431D01*
X166484500Y-90152151D01*
X166484500Y-90761766D01*
X166324683Y-90791838D01*
X166108559Y-90930910D01*
X165963569Y-91143110D01*
X165960919Y-91156197D01*
X165824090Y-90943559D01*
X165611890Y-90798569D01*
X165360000Y-90747560D01*
X163860000Y-90747560D01*
X163624683Y-90791838D01*
X163408559Y-90930910D01*
X163280202Y-91118768D01*
X161962691Y-89801257D01*
X161882409Y-89397654D01*
X161720775Y-89155750D01*
X163225000Y-89155750D01*
X163225000Y-89646310D01*
X163321673Y-89879699D01*
X163500302Y-90058327D01*
X163733691Y-90155000D01*
X164324250Y-90155000D01*
X164483000Y-89996250D01*
X164483000Y-88997000D01*
X163383750Y-88997000D01*
X163225000Y-89155750D01*
X161720775Y-89155750D01*
X161647211Y-89045655D01*
X161295212Y-88810457D01*
X160880000Y-88727866D01*
X160464788Y-88810457D01*
X160240726Y-88960170D01*
X159904001Y-88795592D01*
X159737000Y-88922498D01*
X159737000Y-90013000D01*
X159757000Y-90013000D01*
X159757000Y-90267000D01*
X159737000Y-90267000D01*
X159737000Y-91357502D01*
X159904001Y-91484408D01*
X160240726Y-91319830D01*
X160464788Y-91469543D01*
X160880000Y-91552134D01*
X161295212Y-91469543D01*
X161295750Y-91469184D01*
X162357300Y-92530734D01*
X162150000Y-92489500D01*
X154871933Y-92489500D01*
X154634873Y-92252440D01*
X155815000Y-92252440D01*
X156050317Y-92208162D01*
X156266441Y-92069090D01*
X156411431Y-91856890D01*
X156434292Y-91744000D01*
X157625000Y-91744000D01*
X157965206Y-91676329D01*
X158173068Y-91537440D01*
X158790000Y-91537440D01*
X159025317Y-91493162D01*
X159158529Y-91407442D01*
X159315999Y-91484408D01*
X159483000Y-91357502D01*
X159483000Y-90267000D01*
X159463000Y-90267000D01*
X159463000Y-90013000D01*
X159483000Y-90013000D01*
X159483000Y-88922498D01*
X159315999Y-88795592D01*
X159229000Y-88838114D01*
X159229000Y-88093690D01*
X163225000Y-88093690D01*
X163225000Y-88584250D01*
X163383750Y-88743000D01*
X164483000Y-88743000D01*
X164483000Y-87743750D01*
X164324250Y-87585000D01*
X163733691Y-87585000D01*
X163500302Y-87681673D01*
X163321673Y-87860301D01*
X163225000Y-88093690D01*
X159229000Y-88093690D01*
X159229000Y-87333236D01*
X160238618Y-86323618D01*
X160353441Y-86151773D01*
X160431329Y-86035206D01*
X160499000Y-85695000D01*
X160499000Y-84456886D01*
X160585999Y-84499408D01*
X160753000Y-84372502D01*
X160753000Y-83282000D01*
X161007000Y-83282000D01*
X161007000Y-84372502D01*
X161174001Y-84499408D01*
X161557408Y-84312013D01*
X161833808Y-83987544D01*
X161965000Y-83582000D01*
X161965000Y-83440750D01*
X163890000Y-83440750D01*
X163890000Y-84081310D01*
X163986673Y-84314699D01*
X164165302Y-84493327D01*
X164398691Y-84590000D01*
X165039250Y-84590000D01*
X165198000Y-84431250D01*
X165198000Y-83282000D01*
X164048750Y-83282000D01*
X163890000Y-83440750D01*
X161965000Y-83440750D01*
X161965000Y-83282000D01*
X161007000Y-83282000D01*
X160753000Y-83282000D01*
X160733000Y-83282000D01*
X160733000Y-83028000D01*
X160753000Y-83028000D01*
X160753000Y-81937498D01*
X161007000Y-81937498D01*
X161007000Y-83028000D01*
X161965000Y-83028000D01*
X161965000Y-82728000D01*
X161833808Y-82322456D01*
X161753934Y-82228690D01*
X163890000Y-82228690D01*
X163890000Y-82869250D01*
X164048750Y-83028000D01*
X165198000Y-83028000D01*
X165198000Y-81878750D01*
X165452000Y-81878750D01*
X165452000Y-83028000D01*
X165472000Y-83028000D01*
X165472000Y-83282000D01*
X165452000Y-83282000D01*
X165452000Y-84431250D01*
X165610750Y-84590000D01*
X166251309Y-84590000D01*
X166484698Y-84493327D01*
X166663327Y-84314699D01*
X166748876Y-84108165D01*
X167011077Y-84370824D01*
X167538309Y-84589750D01*
X168109187Y-84590248D01*
X168636800Y-84372243D01*
X169040824Y-83968923D01*
X169259750Y-83441691D01*
X169260248Y-82870813D01*
X169042243Y-82343200D01*
X168638923Y-81939176D01*
X168111691Y-81720250D01*
X167540813Y-81719752D01*
X167013200Y-81937757D01*
X166748813Y-82201683D01*
X166663327Y-81995301D01*
X166484698Y-81816673D01*
X166251309Y-81720000D01*
X165610750Y-81720000D01*
X165452000Y-81878750D01*
X165198000Y-81878750D01*
X165039250Y-81720000D01*
X164398691Y-81720000D01*
X164165302Y-81816673D01*
X163986673Y-81995301D01*
X163890000Y-82228690D01*
X161753934Y-82228690D01*
X161557408Y-81997987D01*
X161174001Y-81810592D01*
X161007000Y-81937498D01*
X160753000Y-81937498D01*
X160585999Y-81810592D01*
X160249274Y-81975170D01*
X160025212Y-81825457D01*
X159610000Y-81742866D01*
X159194788Y-81825457D01*
X159129981Y-81868759D01*
X159041890Y-81808569D01*
X158790000Y-81757560D01*
X157890000Y-81757560D01*
X157654683Y-81801838D01*
X157438559Y-81940910D01*
X157293569Y-82153110D01*
X157270708Y-82266000D01*
X155325693Y-82266000D01*
X155298162Y-82119683D01*
X155159090Y-81903559D01*
X154946890Y-81758569D01*
X154695000Y-81707560D01*
X154339796Y-81707560D01*
X153253618Y-80621382D01*
X153057766Y-80490518D01*
X152965206Y-80428671D01*
X152625000Y-80361000D01*
X150085000Y-80361000D01*
X149744794Y-80428671D01*
X149652234Y-80490518D01*
X149456382Y-80621382D01*
X148446764Y-81631000D01*
X146552440Y-81631000D01*
X146552440Y-81620000D01*
X146508162Y-81384683D01*
X146369090Y-81168559D01*
X146156890Y-81023569D01*
X145905000Y-80972560D01*
X145894000Y-80972560D01*
X145894000Y-79853000D01*
X145826330Y-79512795D01*
X145633618Y-79224382D01*
X143982618Y-77573382D01*
X143694206Y-77380671D01*
X143354000Y-77313000D01*
X140306000Y-77313000D01*
X139965794Y-77380671D01*
X139677382Y-77573382D01*
X137899382Y-79351382D01*
X137706671Y-79639794D01*
X137639000Y-79980000D01*
X137639000Y-84183764D01*
X135192966Y-86629798D01*
X135111090Y-86502559D01*
X134898890Y-86357569D01*
X134647000Y-86306560D01*
X133712676Y-86306560D01*
X135036618Y-84982618D01*
X135229329Y-84694206D01*
X135279485Y-84442052D01*
X135493409Y-84299113D01*
X135826155Y-83801123D01*
X135943000Y-83213704D01*
X135943000Y-81318296D01*
X135826155Y-80730877D01*
X135493409Y-80232887D01*
X134995419Y-79900141D01*
X134408000Y-79783296D01*
X133820581Y-79900141D01*
X133322591Y-80232887D01*
X132989845Y-80730877D01*
X132873000Y-81318296D01*
X132873000Y-83213704D01*
X132989845Y-83801123D01*
X133275751Y-84229013D01*
X131198204Y-86306560D01*
X130217000Y-86306560D01*
X129981683Y-86350838D01*
X129765559Y-86489910D01*
X129620569Y-86702110D01*
X129569560Y-86954000D01*
X129569560Y-88754000D01*
X129613838Y-88989317D01*
X129752910Y-89205441D01*
X129965110Y-89350431D01*
X130217000Y-89401440D01*
X131462000Y-89401440D01*
X131697317Y-89357162D01*
X131913441Y-89218090D01*
X132058431Y-89005890D01*
X132109440Y-88754000D01*
X132109440Y-87909796D01*
X132754560Y-87264676D01*
X132754560Y-88754000D01*
X132798838Y-88989317D01*
X132937910Y-89205441D01*
X133150110Y-89350431D01*
X133402000Y-89401440D01*
X134647000Y-89401440D01*
X134882317Y-89357162D01*
X135098441Y-89218090D01*
X135243431Y-89005890D01*
X135294440Y-88754000D01*
X135294440Y-88729386D01*
X135566206Y-88675329D01*
X135854618Y-88482618D01*
X139156618Y-85180618D01*
X139220064Y-85085664D01*
X139349329Y-84892206D01*
X139417000Y-84552000D01*
X139417000Y-80348236D01*
X140674236Y-79091000D01*
X142985764Y-79091000D01*
X144116000Y-80221236D01*
X144116000Y-80462565D01*
X144095206Y-80448671D01*
X143755000Y-80381000D01*
X142441285Y-80381000D01*
X142423162Y-80284683D01*
X142284090Y-80068559D01*
X142071890Y-79923569D01*
X141820000Y-79872560D01*
X140570000Y-79872560D01*
X140334683Y-79916838D01*
X140118559Y-80055910D01*
X139973569Y-80268110D01*
X139922560Y-80520000D01*
X139922560Y-82020000D01*
X139966838Y-82255317D01*
X140105910Y-82471441D01*
X140175711Y-82519134D01*
X140118559Y-82555910D01*
X139973569Y-82768110D01*
X139922560Y-83020000D01*
X139922560Y-84520000D01*
X139966838Y-84755317D01*
X140105910Y-84971441D01*
X140236008Y-85060333D01*
X140118559Y-85135910D01*
X139973569Y-85348110D01*
X139922560Y-85600000D01*
X139922560Y-87100000D01*
X139966838Y-87335317D01*
X140105910Y-87551441D01*
X140175711Y-87599134D01*
X140118559Y-87635910D01*
X139973569Y-87848110D01*
X139922560Y-88100000D01*
X139922560Y-89600000D01*
X139966838Y-89835317D01*
X140105910Y-90051441D01*
X140318110Y-90196431D01*
X140570000Y-90247440D01*
X141820000Y-90247440D01*
X142055317Y-90203162D01*
X142271441Y-90064090D01*
X142416431Y-89851890D01*
X142439292Y-89739000D01*
X142766000Y-89739000D01*
X142766000Y-90773715D01*
X142669683Y-90791838D01*
X142453559Y-90930910D01*
X142308569Y-91143110D01*
X142257560Y-91395000D01*
X142257560Y-92695000D01*
X142301838Y-92930317D01*
X142440910Y-93146441D01*
X142653110Y-93291431D01*
X142905000Y-93342440D01*
X144405000Y-93342440D01*
X144640317Y-93298162D01*
X144856441Y-93159090D01*
X145001431Y-92946890D01*
X145004081Y-92933803D01*
X145140910Y-93146441D01*
X145353110Y-93291431D01*
X145605000Y-93342440D01*
X147105000Y-93342440D01*
X147340317Y-93298162D01*
X147556441Y-93159090D01*
X147701431Y-92946890D01*
X147704041Y-92934000D01*
X148260000Y-92934000D01*
X148600206Y-92866329D01*
X148888618Y-92673618D01*
X149309796Y-92252440D01*
X150100000Y-92252440D01*
X150335317Y-92208162D01*
X150551441Y-92069090D01*
X150696431Y-91856890D01*
X150732151Y-91680500D01*
X151728066Y-91680500D01*
X153946281Y-93898714D01*
X153946283Y-93898717D01*
X154214095Y-94077663D01*
X154530000Y-94140500D01*
X128368000Y-94140500D01*
X128052095Y-94203337D01*
X127784283Y-94382283D01*
X127784281Y-94382286D01*
X125486066Y-96680500D01*
X124719440Y-96680500D01*
X124719440Y-96606000D01*
X124675162Y-96370683D01*
X124536090Y-96154559D01*
X124323890Y-96009569D01*
X124072000Y-95958560D01*
X120472000Y-95958560D01*
X120236683Y-96002838D01*
X120020559Y-96141910D01*
X119875569Y-96354110D01*
X119824560Y-96606000D01*
X117827000Y-96606000D01*
X117827000Y-94006000D01*
X119789296Y-94006000D01*
X119906141Y-94593419D01*
X120238887Y-95091409D01*
X120736877Y-95424155D01*
X121324296Y-95541000D01*
X123219704Y-95541000D01*
X123807123Y-95424155D01*
X124305113Y-95091409D01*
X124637859Y-94593419D01*
X124754704Y-94006000D01*
X124637859Y-93418581D01*
X124305113Y-92920591D01*
X123807123Y-92587845D01*
X123219704Y-92471000D01*
X121324296Y-92471000D01*
X120736877Y-92587845D01*
X120238887Y-92920591D01*
X119906141Y-93418581D01*
X119789296Y-94006000D01*
X117827000Y-94006000D01*
X117827000Y-90506000D01*
X119789296Y-90506000D01*
X119906141Y-91093419D01*
X120238887Y-91591409D01*
X120736877Y-91924155D01*
X121324296Y-92041000D01*
X123219704Y-92041000D01*
X123807123Y-91924155D01*
X124305113Y-91591409D01*
X124637859Y-91093419D01*
X124754704Y-90506000D01*
X124637859Y-89918581D01*
X124305113Y-89420591D01*
X123807123Y-89087845D01*
X123219704Y-88971000D01*
X121324296Y-88971000D01*
X120736877Y-89087845D01*
X120238887Y-89420591D01*
X119906141Y-89918581D01*
X119789296Y-90506000D01*
X117827000Y-90506000D01*
X117827000Y-82009482D01*
X118309336Y-82009482D01*
X118891950Y-83419515D01*
X119969811Y-84499259D01*
X121378825Y-85084333D01*
X122904482Y-85085664D01*
X124314515Y-84503050D01*
X125394259Y-83425189D01*
X125979333Y-82016175D01*
X125980664Y-80490518D01*
X125970534Y-80466000D01*
X129360560Y-80466000D01*
X129360560Y-84066000D01*
X129404838Y-84301317D01*
X129543910Y-84517441D01*
X129756110Y-84662431D01*
X130008000Y-84713440D01*
X131808000Y-84713440D01*
X132043317Y-84669162D01*
X132259441Y-84530090D01*
X132404431Y-84317890D01*
X132455440Y-84066000D01*
X132455440Y-80466000D01*
X132411162Y-80230683D01*
X132272090Y-80014559D01*
X132059890Y-79869569D01*
X131808000Y-79818560D01*
X130008000Y-79818560D01*
X129772683Y-79862838D01*
X129556559Y-80001910D01*
X129411569Y-80214110D01*
X129360560Y-80466000D01*
X125970534Y-80466000D01*
X125398050Y-79080485D01*
X124320189Y-78000741D01*
X122911175Y-77415667D01*
X121385518Y-77414336D01*
X119975485Y-77996950D01*
X118895741Y-79074811D01*
X118310667Y-80483825D01*
X118309336Y-82009482D01*
X117827000Y-82009482D01*
X117827000Y-76297000D01*
X210283000Y-76297000D01*
X210283000Y-126208000D01*
X210283000Y-126208000D01*
G37*
X210283000Y-126208000D02*
X117827000Y-126208000D01*
X117827000Y-122014482D01*
X118309336Y-122014482D01*
X118891950Y-123424515D01*
X119969811Y-124504259D01*
X121378825Y-125089333D01*
X122904482Y-125090664D01*
X124314515Y-124508050D01*
X125394259Y-123430189D01*
X125979333Y-122021175D01*
X125980664Y-120495518D01*
X125535565Y-119418296D01*
X132081000Y-119418296D01*
X132081000Y-121313704D01*
X132197845Y-121901123D01*
X132530591Y-122399113D01*
X133028581Y-122731859D01*
X133616000Y-122848704D01*
X134203419Y-122731859D01*
X134701409Y-122399113D01*
X135034155Y-121901123D01*
X135151000Y-121313704D01*
X135151000Y-119576434D01*
X135648504Y-119078929D01*
X135581000Y-119418296D01*
X135581000Y-121313704D01*
X135697845Y-121901123D01*
X136030591Y-122399113D01*
X136528581Y-122731859D01*
X137116000Y-122848704D01*
X137703419Y-122731859D01*
X138201409Y-122399113D01*
X138534155Y-121901123D01*
X138651000Y-121313704D01*
X138651000Y-119418296D01*
X139081000Y-119418296D01*
X139081000Y-121313704D01*
X139197845Y-121901123D01*
X139530591Y-122399113D01*
X140028581Y-122731859D01*
X140616000Y-122848704D01*
X141203419Y-122731859D01*
X141701409Y-122399113D01*
X142034155Y-121901123D01*
X142151000Y-121313704D01*
X142151000Y-120651750D01*
X142581000Y-120651750D01*
X142581000Y-122292310D01*
X142677673Y-122525699D01*
X142856302Y-122704327D01*
X143089691Y-122801000D01*
X143830250Y-122801000D01*
X143989000Y-122642250D01*
X143989000Y-120493000D01*
X144243000Y-120493000D01*
X144243000Y-122642250D01*
X144401750Y-122801000D01*
X145142309Y-122801000D01*
X145375698Y-122704327D01*
X145554327Y-122525699D01*
X145651000Y-122292310D01*
X145651000Y-120651750D01*
X145492250Y-120493000D01*
X144243000Y-120493000D01*
X143989000Y-120493000D01*
X142739750Y-120493000D01*
X142581000Y-120651750D01*
X142151000Y-120651750D01*
X142151000Y-119418296D01*
X142034155Y-118830877D01*
X141772773Y-118439690D01*
X142581000Y-118439690D01*
X142581000Y-120080250D01*
X142739750Y-120239000D01*
X143989000Y-120239000D01*
X143989000Y-118089750D01*
X144243000Y-118089750D01*
X144243000Y-120239000D01*
X145492250Y-120239000D01*
X145651000Y-120080250D01*
X145651000Y-119418296D01*
X150369000Y-119418296D01*
X150369000Y-121313704D01*
X150485845Y-121901123D01*
X150818591Y-122399113D01*
X151316581Y-122731859D01*
X151904000Y-122848704D01*
X152491419Y-122731859D01*
X152989409Y-122399113D01*
X153322155Y-121901123D01*
X153439000Y-121313704D01*
X153439000Y-120338434D01*
X153869000Y-119908434D01*
X153869000Y-121313704D01*
X153985845Y-121901123D01*
X154318591Y-122399113D01*
X154816581Y-122731859D01*
X155404000Y-122848704D01*
X155991419Y-122731859D01*
X156489409Y-122399113D01*
X156822155Y-121901123D01*
X156939000Y-121313704D01*
X156939000Y-119418296D01*
X157369000Y-119418296D01*
X157369000Y-121313704D01*
X157485845Y-121901123D01*
X157818591Y-122399113D01*
X158316581Y-122731859D01*
X158904000Y-122848704D01*
X159491419Y-122731859D01*
X159989409Y-122399113D01*
X160322155Y-121901123D01*
X160439000Y-121313704D01*
X160439000Y-120651750D01*
X160869000Y-120651750D01*
X160869000Y-122292310D01*
X160965673Y-122525699D01*
X161144302Y-122704327D01*
X161377691Y-122801000D01*
X162118250Y-122801000D01*
X162277000Y-122642250D01*
X162277000Y-120493000D01*
X162531000Y-120493000D01*
X162531000Y-122642250D01*
X162689750Y-122801000D01*
X163430309Y-122801000D01*
X163663698Y-122704327D01*
X163842327Y-122525699D01*
X163939000Y-122292310D01*
X163939000Y-120651750D01*
X163780250Y-120493000D01*
X162531000Y-120493000D01*
X162277000Y-120493000D01*
X161027750Y-120493000D01*
X160869000Y-120651750D01*
X160439000Y-120651750D01*
X160439000Y-119418296D01*
X160322155Y-118830877D01*
X160060773Y-118439690D01*
X160869000Y-118439690D01*
X160869000Y-120080250D01*
X161027750Y-120239000D01*
X162277000Y-120239000D01*
X162277000Y-118089750D01*
X162531000Y-118089750D01*
X162531000Y-120239000D01*
X163780250Y-120239000D01*
X163939000Y-120080250D01*
X163939000Y-119418296D01*
X167641000Y-119418296D01*
X167641000Y-121313704D01*
X167757845Y-121901123D01*
X168090591Y-122399113D01*
X168588581Y-122731859D01*
X169176000Y-122848704D01*
X169763419Y-122731859D01*
X170261409Y-122399113D01*
X170594155Y-121901123D01*
X170711000Y-121313704D01*
X170711000Y-119576434D01*
X171208504Y-119078930D01*
X171141000Y-119418296D01*
X171141000Y-121313704D01*
X171257845Y-121901123D01*
X171590591Y-122399113D01*
X172088581Y-122731859D01*
X172676000Y-122848704D01*
X173263419Y-122731859D01*
X173761409Y-122399113D01*
X174094155Y-121901123D01*
X174211000Y-121313704D01*
X174211000Y-119418296D01*
X174641000Y-119418296D01*
X174641000Y-121313704D01*
X174757845Y-121901123D01*
X175090591Y-122399113D01*
X175588581Y-122731859D01*
X176176000Y-122848704D01*
X176763419Y-122731859D01*
X177261409Y-122399113D01*
X177594155Y-121901123D01*
X177711000Y-121313704D01*
X177711000Y-120651750D01*
X178141000Y-120651750D01*
X178141000Y-122292310D01*
X178237673Y-122525699D01*
X178416302Y-122704327D01*
X178649691Y-122801000D01*
X179390250Y-122801000D01*
X179549000Y-122642250D01*
X179549000Y-120493000D01*
X179803000Y-120493000D01*
X179803000Y-122642250D01*
X179961750Y-122801000D01*
X180702309Y-122801000D01*
X180935698Y-122704327D01*
X181114327Y-122525699D01*
X181211000Y-122292310D01*
X181211000Y-120651750D01*
X181052250Y-120493000D01*
X179803000Y-120493000D01*
X179549000Y-120493000D01*
X178299750Y-120493000D01*
X178141000Y-120651750D01*
X177711000Y-120651750D01*
X177711000Y-119418296D01*
X177594155Y-118830877D01*
X177332773Y-118439690D01*
X178141000Y-118439690D01*
X178141000Y-120080250D01*
X178299750Y-120239000D01*
X179549000Y-120239000D01*
X179549000Y-118089750D01*
X179803000Y-118089750D01*
X179803000Y-120239000D01*
X181052250Y-120239000D01*
X181211000Y-120080250D01*
X181211000Y-119418296D01*
X184405000Y-119418296D01*
X184405000Y-121313704D01*
X184521845Y-121901123D01*
X184854591Y-122399113D01*
X185352581Y-122731859D01*
X185940000Y-122848704D01*
X186527419Y-122731859D01*
X187025409Y-122399113D01*
X187358155Y-121901123D01*
X187475000Y-121313704D01*
X187475000Y-119418296D01*
X187459095Y-119338338D01*
X188133177Y-118664256D01*
X188021845Y-118830877D01*
X187905000Y-119418296D01*
X187905000Y-121313704D01*
X188021845Y-121901123D01*
X188354591Y-122399113D01*
X188852581Y-122731859D01*
X189440000Y-122848704D01*
X190027419Y-122731859D01*
X190525409Y-122399113D01*
X190858155Y-121901123D01*
X190975000Y-121313704D01*
X190975000Y-119418296D01*
X191405000Y-119418296D01*
X191405000Y-121313704D01*
X191521845Y-121901123D01*
X191854591Y-122399113D01*
X192352581Y-122731859D01*
X192940000Y-122848704D01*
X193527419Y-122731859D01*
X194025409Y-122399113D01*
X194358155Y-121901123D01*
X194475000Y-121313704D01*
X194475000Y-120651750D01*
X194905000Y-120651750D01*
X194905000Y-122292310D01*
X195001673Y-122525699D01*
X195180302Y-122704327D01*
X195413691Y-122801000D01*
X196154250Y-122801000D01*
X196313000Y-122642250D01*
X196313000Y-120493000D01*
X196567000Y-120493000D01*
X196567000Y-122642250D01*
X196725750Y-122801000D01*
X197466309Y-122801000D01*
X197699698Y-122704327D01*
X197878327Y-122525699D01*
X197975000Y-122292310D01*
X197975000Y-122014482D01*
X202129336Y-122014482D01*
X202711950Y-123424515D01*
X203789811Y-124504259D01*
X205198825Y-125089333D01*
X206724482Y-125090664D01*
X208134515Y-124508050D01*
X209214259Y-123430189D01*
X209799333Y-122021175D01*
X209800664Y-120495518D01*
X209218050Y-119085485D01*
X208140189Y-118005741D01*
X206731175Y-117420667D01*
X205205518Y-117419336D01*
X203795485Y-118001950D01*
X202715741Y-119079811D01*
X202130667Y-120488825D01*
X202129336Y-122014482D01*
X197975000Y-122014482D01*
X197975000Y-120651750D01*
X197816250Y-120493000D01*
X196567000Y-120493000D01*
X196313000Y-120493000D01*
X195063750Y-120493000D01*
X194905000Y-120651750D01*
X194475000Y-120651750D01*
X194475000Y-119418296D01*
X194358155Y-118830877D01*
X194096773Y-118439690D01*
X194905000Y-118439690D01*
X194905000Y-120080250D01*
X195063750Y-120239000D01*
X196313000Y-120239000D01*
X196313000Y-118089750D01*
X196567000Y-118089750D01*
X196567000Y-120239000D01*
X197816250Y-120239000D01*
X197975000Y-120080250D01*
X197975000Y-118439690D01*
X197878327Y-118206301D01*
X197699698Y-118027673D01*
X197466309Y-117931000D01*
X196725750Y-117931000D01*
X196567000Y-118089750D01*
X196313000Y-118089750D01*
X196154250Y-117931000D01*
X195413691Y-117931000D01*
X195180302Y-118027673D01*
X195001673Y-118206301D01*
X194905000Y-118439690D01*
X194096773Y-118439690D01*
X194025409Y-118332887D01*
X193527419Y-118000141D01*
X192940000Y-117883296D01*
X192352581Y-118000141D01*
X191854591Y-118332887D01*
X191521845Y-118830877D01*
X191405000Y-119418296D01*
X190975000Y-119418296D01*
X190858155Y-118830877D01*
X190525409Y-118332887D01*
X190431977Y-118270457D01*
X191943717Y-116758717D01*
X192122663Y-116490906D01*
X192185500Y-116175000D01*
X192185500Y-113007720D01*
X192349189Y-113252698D01*
X192814736Y-113563767D01*
X193363887Y-113673000D01*
X193420113Y-113673000D01*
X193969264Y-113563767D01*
X194434811Y-113252698D01*
X194745880Y-112787151D01*
X194855113Y-112238000D01*
X194745880Y-111688849D01*
X194434811Y-111223302D01*
X194052725Y-110968000D01*
X194434811Y-110712698D01*
X194745880Y-110247151D01*
X194855113Y-109698000D01*
X199548887Y-109698000D01*
X199658120Y-110247151D01*
X199969189Y-110712698D01*
X200351275Y-110968000D01*
X199969189Y-111223302D01*
X199658120Y-111688849D01*
X199548887Y-112238000D01*
X199658120Y-112787151D01*
X199969189Y-113252698D01*
X200434736Y-113563767D01*
X200983887Y-113673000D01*
X201040113Y-113673000D01*
X201589264Y-113563767D01*
X202054811Y-113252698D01*
X202365880Y-112787151D01*
X202475113Y-112238000D01*
X202365880Y-111688849D01*
X202054811Y-111223302D01*
X201672725Y-110968000D01*
X202054811Y-110712698D01*
X202365880Y-110247151D01*
X202475113Y-109698000D01*
X202365880Y-109148849D01*
X202054811Y-108683302D01*
X201650297Y-108413014D01*
X201867134Y-108310389D01*
X202243041Y-107895423D01*
X202403904Y-107507039D01*
X202358145Y-107423750D01*
X203562000Y-107423750D01*
X203562000Y-108014309D01*
X203658673Y-108247698D01*
X203837301Y-108426327D01*
X204070690Y-108523000D01*
X204536250Y-108523000D01*
X204695000Y-108364250D01*
X204695000Y-107265000D01*
X204949000Y-107265000D01*
X204949000Y-108364250D01*
X205107750Y-108523000D01*
X205573310Y-108523000D01*
X205806699Y-108426327D01*
X205985327Y-108247698D01*
X206082000Y-108014309D01*
X206082000Y-107423750D01*
X205923250Y-107265000D01*
X204949000Y-107265000D01*
X204695000Y-107265000D01*
X203720750Y-107265000D01*
X203562000Y-107423750D01*
X202358145Y-107423750D01*
X202281915Y-107285000D01*
X201139000Y-107285000D01*
X201139000Y-107305000D01*
X200885000Y-107305000D01*
X200885000Y-107285000D01*
X199742085Y-107285000D01*
X199620096Y-107507039D01*
X199780959Y-107895423D01*
X200156866Y-108310389D01*
X200373703Y-108413014D01*
X199969189Y-108683302D01*
X199658120Y-109148849D01*
X199548887Y-109698000D01*
X194855113Y-109698000D01*
X194745880Y-109148849D01*
X194434811Y-108683302D01*
X194052725Y-108428000D01*
X194434811Y-108172698D01*
X194745880Y-107707151D01*
X194855113Y-107158000D01*
X194745880Y-106608849D01*
X194434811Y-106143302D01*
X194290535Y-106046899D01*
X194427317Y-106021162D01*
X194643441Y-105882090D01*
X194788431Y-105669890D01*
X194839440Y-105418000D01*
X194839440Y-103818000D01*
X194795162Y-103582683D01*
X194656090Y-103366559D01*
X194443890Y-103221569D01*
X194217500Y-103175724D01*
X194217500Y-102165934D01*
X194651006Y-101732428D01*
X194764910Y-101909441D01*
X194977110Y-102054431D01*
X195229000Y-102105440D01*
X196729000Y-102105440D01*
X196964317Y-102061162D01*
X197180441Y-101922090D01*
X197325431Y-101709890D01*
X197328081Y-101696803D01*
X197464910Y-101909441D01*
X197677110Y-102054431D01*
X197929000Y-102105440D01*
X199429000Y-102105440D01*
X199664317Y-102061162D01*
X199880441Y-101922090D01*
X199957247Y-101809681D01*
X200186500Y-102038934D01*
X200186500Y-103458099D01*
X199969189Y-103603302D01*
X199658120Y-104068849D01*
X199548887Y-104618000D01*
X199658120Y-105167151D01*
X199969189Y-105632698D01*
X200373703Y-105902986D01*
X200156866Y-106005611D01*
X199780959Y-106420577D01*
X199620096Y-106808961D01*
X199742085Y-107031000D01*
X200885000Y-107031000D01*
X200885000Y-107011000D01*
X201139000Y-107011000D01*
X201139000Y-107031000D01*
X202281915Y-107031000D01*
X202403904Y-106808961D01*
X202243041Y-106420577D01*
X201867134Y-106005611D01*
X201650297Y-105902986D01*
X202054811Y-105632698D01*
X202365880Y-105167151D01*
X202475113Y-104618000D01*
X202365880Y-104068849D01*
X202245041Y-103888000D01*
X203549560Y-103888000D01*
X203549560Y-105388000D01*
X203593838Y-105623317D01*
X203732910Y-105839441D01*
X203801006Y-105885969D01*
X203658673Y-106028302D01*
X203562000Y-106261691D01*
X203562000Y-106852250D01*
X203720750Y-107011000D01*
X204695000Y-107011000D01*
X204695000Y-106991000D01*
X204949000Y-106991000D01*
X204949000Y-107011000D01*
X205923250Y-107011000D01*
X206082000Y-106852250D01*
X206082000Y-106261691D01*
X205985327Y-106028302D01*
X205844090Y-105887064D01*
X205898441Y-105852090D01*
X206043431Y-105639890D01*
X206094440Y-105388000D01*
X206094440Y-103888000D01*
X206050162Y-103652683D01*
X205911090Y-103436559D01*
X205698890Y-103291569D01*
X205647500Y-103281162D01*
X205647500Y-102840000D01*
X205617067Y-102687000D01*
X205584663Y-102524094D01*
X205503161Y-102402118D01*
X205503162Y-102400833D01*
X205361117Y-102057057D01*
X205098327Y-101793808D01*
X204754799Y-101651162D01*
X204382833Y-101650838D01*
X204039057Y-101792883D01*
X203775808Y-102055673D01*
X203633162Y-102399201D01*
X203632838Y-102771167D01*
X203774883Y-103114943D01*
X203951210Y-103291578D01*
X203745559Y-103423910D01*
X203600569Y-103636110D01*
X203549560Y-103888000D01*
X202245041Y-103888000D01*
X202054811Y-103603302D01*
X201837500Y-103458099D01*
X201837500Y-101697005D01*
X201837501Y-101697000D01*
X201774663Y-101381094D01*
X201595717Y-101113283D01*
X200706717Y-100224283D01*
X200438906Y-100045337D01*
X200123000Y-99982500D01*
X200043417Y-99982500D01*
X200032162Y-99922683D01*
X199893090Y-99706559D01*
X199680890Y-99561569D01*
X199429000Y-99510560D01*
X197929000Y-99510560D01*
X197693683Y-99554838D01*
X197477559Y-99693910D01*
X197332569Y-99906110D01*
X197329919Y-99919197D01*
X197193090Y-99706559D01*
X196980890Y-99561569D01*
X196729000Y-99510560D01*
X195229000Y-99510560D01*
X194993683Y-99554838D01*
X194777559Y-99693910D01*
X194632569Y-99906110D01*
X194617100Y-99982500D01*
X194408005Y-99982500D01*
X194408000Y-99982499D01*
X194092094Y-100045337D01*
X193824283Y-100224283D01*
X192808283Y-101240283D01*
X192629337Y-101508094D01*
X192572506Y-101793808D01*
X192566500Y-101824000D01*
X192566500Y-103175358D01*
X192356683Y-103214838D01*
X192140559Y-103353910D01*
X191995569Y-103566110D01*
X191944560Y-103818000D01*
X191944560Y-105418000D01*
X191988838Y-105653317D01*
X192127910Y-105869441D01*
X192340110Y-106014431D01*
X192495089Y-106045815D01*
X192349189Y-106143302D01*
X192038120Y-106608849D01*
X191928887Y-107158000D01*
X191977943Y-107404623D01*
X189506283Y-109876283D01*
X189327337Y-110144094D01*
X189299962Y-110281717D01*
X189264500Y-110460000D01*
X189264500Y-115198067D01*
X186473208Y-117989358D01*
X185940000Y-117883296D01*
X185352581Y-118000141D01*
X184854591Y-118332887D01*
X184521845Y-118830877D01*
X184405000Y-119418296D01*
X181211000Y-119418296D01*
X181211000Y-118439690D01*
X181114327Y-118206301D01*
X180935698Y-118027673D01*
X180702309Y-117931000D01*
X179961750Y-117931000D01*
X179803000Y-118089750D01*
X179549000Y-118089750D01*
X179390250Y-117931000D01*
X178649691Y-117931000D01*
X178416302Y-118027673D01*
X178237673Y-118206301D01*
X178141000Y-118439690D01*
X177332773Y-118439690D01*
X177261409Y-118332887D01*
X176763419Y-118000141D01*
X176176000Y-117883296D01*
X175588581Y-118000141D01*
X175090591Y-118332887D01*
X174757845Y-118830877D01*
X174641000Y-119418296D01*
X174211000Y-119418296D01*
X174094155Y-118830877D01*
X173800718Y-118391716D01*
X176068717Y-116123717D01*
X176247663Y-115855906D01*
X176310501Y-115540000D01*
X176310500Y-115539995D01*
X176310500Y-113007720D01*
X176474189Y-113252698D01*
X176939736Y-113563767D01*
X177488887Y-113673000D01*
X177545113Y-113673000D01*
X178094264Y-113563767D01*
X178559811Y-113252698D01*
X178870880Y-112787151D01*
X178980113Y-112238000D01*
X178870880Y-111688849D01*
X178559811Y-111223302D01*
X178177725Y-110968000D01*
X178559811Y-110712698D01*
X178870880Y-110247151D01*
X178980113Y-109698000D01*
X183673887Y-109698000D01*
X183783120Y-110247151D01*
X184094189Y-110712698D01*
X184476275Y-110968000D01*
X184094189Y-111223302D01*
X183783120Y-111688849D01*
X183673887Y-112238000D01*
X183783120Y-112787151D01*
X184094189Y-113252698D01*
X184559736Y-113563767D01*
X185108887Y-113673000D01*
X185165113Y-113673000D01*
X185714264Y-113563767D01*
X186179811Y-113252698D01*
X186490880Y-112787151D01*
X186600113Y-112238000D01*
X186490880Y-111688849D01*
X186179811Y-111223302D01*
X185797725Y-110968000D01*
X186179811Y-110712698D01*
X186490880Y-110247151D01*
X186600113Y-109698000D01*
X186490880Y-109148849D01*
X186179811Y-108683302D01*
X185775297Y-108413014D01*
X185992134Y-108310389D01*
X186368041Y-107895423D01*
X186528904Y-107507039D01*
X186483145Y-107423750D01*
X187687000Y-107423750D01*
X187687000Y-108014309D01*
X187783673Y-108247698D01*
X187962301Y-108426327D01*
X188195690Y-108523000D01*
X188661250Y-108523000D01*
X188820000Y-108364250D01*
X188820000Y-107265000D01*
X189074000Y-107265000D01*
X189074000Y-108364250D01*
X189232750Y-108523000D01*
X189698310Y-108523000D01*
X189931699Y-108426327D01*
X190110327Y-108247698D01*
X190207000Y-108014309D01*
X190207000Y-107423750D01*
X190048250Y-107265000D01*
X189074000Y-107265000D01*
X188820000Y-107265000D01*
X187845750Y-107265000D01*
X187687000Y-107423750D01*
X186483145Y-107423750D01*
X186406915Y-107285000D01*
X185264000Y-107285000D01*
X185264000Y-107305000D01*
X185010000Y-107305000D01*
X185010000Y-107285000D01*
X183867085Y-107285000D01*
X183745096Y-107507039D01*
X183905959Y-107895423D01*
X184281866Y-108310389D01*
X184498703Y-108413014D01*
X184094189Y-108683302D01*
X183783120Y-109148849D01*
X183673887Y-109698000D01*
X178980113Y-109698000D01*
X178870880Y-109148849D01*
X178559811Y-108683302D01*
X178177725Y-108428000D01*
X178559811Y-108172698D01*
X178870880Y-107707151D01*
X178980113Y-107158000D01*
X178870880Y-106608849D01*
X178559811Y-106143302D01*
X178415535Y-106046899D01*
X178552317Y-106021162D01*
X178768441Y-105882090D01*
X178913431Y-105669890D01*
X178964440Y-105418000D01*
X178964440Y-103818000D01*
X178920162Y-103582683D01*
X178781090Y-103366559D01*
X178568890Y-103221569D01*
X178342500Y-103175724D01*
X178342500Y-102165934D01*
X178698731Y-101809703D01*
X178762910Y-101909441D01*
X178975110Y-102054431D01*
X179227000Y-102105440D01*
X180727000Y-102105440D01*
X180962317Y-102061162D01*
X181178441Y-101922090D01*
X181323431Y-101709890D01*
X181326081Y-101696803D01*
X181462910Y-101909441D01*
X181675110Y-102054431D01*
X181927000Y-102105440D01*
X183427000Y-102105440D01*
X183662317Y-102061162D01*
X183878441Y-101922090D01*
X184006798Y-101734232D01*
X184311500Y-102038934D01*
X184311500Y-103458099D01*
X184094189Y-103603302D01*
X183783120Y-104068849D01*
X183673887Y-104618000D01*
X183783120Y-105167151D01*
X184094189Y-105632698D01*
X184498703Y-105902986D01*
X184281866Y-106005611D01*
X183905959Y-106420577D01*
X183745096Y-106808961D01*
X183867085Y-107031000D01*
X185010000Y-107031000D01*
X185010000Y-107011000D01*
X185264000Y-107011000D01*
X185264000Y-107031000D01*
X186406915Y-107031000D01*
X186528904Y-106808961D01*
X186368041Y-106420577D01*
X185992134Y-106005611D01*
X185775297Y-105902986D01*
X186179811Y-105632698D01*
X186490880Y-105167151D01*
X186600113Y-104618000D01*
X186490880Y-104068849D01*
X186179811Y-103603302D01*
X185962500Y-103458099D01*
X185962500Y-102771167D01*
X187376838Y-102771167D01*
X187518883Y-103114943D01*
X187781673Y-103378192D01*
X187878880Y-103418556D01*
X187870559Y-103423910D01*
X187725569Y-103636110D01*
X187674560Y-103888000D01*
X187674560Y-105388000D01*
X187718838Y-105623317D01*
X187857910Y-105839441D01*
X187926006Y-105885969D01*
X187783673Y-106028302D01*
X187687000Y-106261691D01*
X187687000Y-106852250D01*
X187845750Y-107011000D01*
X188820000Y-107011000D01*
X188820000Y-106991000D01*
X189074000Y-106991000D01*
X189074000Y-107011000D01*
X190048250Y-107011000D01*
X190207000Y-106852250D01*
X190207000Y-106261691D01*
X190110327Y-106028302D01*
X189969090Y-105887064D01*
X190023441Y-105852090D01*
X190168431Y-105639890D01*
X190219440Y-105388000D01*
X190219440Y-103888000D01*
X190175162Y-103652683D01*
X190036090Y-103436559D01*
X189823890Y-103291569D01*
X189772500Y-103281162D01*
X189772500Y-103221005D01*
X189772501Y-103221000D01*
X189709663Y-102905095D01*
X189624804Y-102778095D01*
X189530717Y-102637283D01*
X189530714Y-102637281D01*
X189213994Y-102320561D01*
X189105117Y-102057057D01*
X188842327Y-101793808D01*
X188498799Y-101651162D01*
X188126833Y-101650838D01*
X187783057Y-101792883D01*
X187519808Y-102055673D01*
X187377162Y-102399201D01*
X187376838Y-102771167D01*
X185962500Y-102771167D01*
X185962500Y-101697005D01*
X185962501Y-101697000D01*
X185899663Y-101381094D01*
X185720717Y-101113283D01*
X184831717Y-100224283D01*
X184563906Y-100045337D01*
X184248000Y-99982500D01*
X184041417Y-99982500D01*
X184030162Y-99922683D01*
X183891090Y-99706559D01*
X183678890Y-99561569D01*
X183427000Y-99510560D01*
X181927000Y-99510560D01*
X181691683Y-99554838D01*
X181475559Y-99693910D01*
X181330569Y-99906110D01*
X181327919Y-99919197D01*
X181191090Y-99706559D01*
X180978890Y-99561569D01*
X180727000Y-99510560D01*
X179227000Y-99510560D01*
X178991683Y-99554838D01*
X178775559Y-99693910D01*
X178630569Y-99906110D01*
X178615100Y-99982500D01*
X178533005Y-99982500D01*
X178533000Y-99982499D01*
X178217094Y-100045337D01*
X177949283Y-100224283D01*
X176933283Y-101240283D01*
X176754337Y-101508094D01*
X176697506Y-101793808D01*
X176691500Y-101824000D01*
X176691500Y-103175358D01*
X176481683Y-103214838D01*
X176265559Y-103353910D01*
X176120569Y-103566110D01*
X176069560Y-103818000D01*
X176069560Y-105418000D01*
X176113838Y-105653317D01*
X176252910Y-105869441D01*
X176465110Y-106014431D01*
X176620089Y-106045815D01*
X176474189Y-106143302D01*
X176163120Y-106608849D01*
X176053887Y-107158000D01*
X176102943Y-107404623D01*
X173631283Y-109876283D01*
X173452337Y-110144094D01*
X173424962Y-110281717D01*
X173389500Y-110460000D01*
X173389500Y-114563066D01*
X169876720Y-118075846D01*
X169763419Y-118000141D01*
X169176000Y-117883296D01*
X168588581Y-118000141D01*
X168090591Y-118332887D01*
X167757845Y-118830877D01*
X167641000Y-119418296D01*
X163939000Y-119418296D01*
X163939000Y-118439690D01*
X163842327Y-118206301D01*
X163663698Y-118027673D01*
X163430309Y-117931000D01*
X162689750Y-117931000D01*
X162531000Y-118089750D01*
X162277000Y-118089750D01*
X162118250Y-117931000D01*
X161377691Y-117931000D01*
X161144302Y-118027673D01*
X160965673Y-118206301D01*
X160869000Y-118439690D01*
X160060773Y-118439690D01*
X159989409Y-118332887D01*
X159491419Y-118000141D01*
X158904000Y-117883296D01*
X158316581Y-118000141D01*
X157818591Y-118332887D01*
X157485845Y-118830877D01*
X157369000Y-119418296D01*
X156939000Y-119418296D01*
X156827033Y-118855401D01*
X160193714Y-115488719D01*
X160193717Y-115488717D01*
X160370532Y-115224095D01*
X160372663Y-115220906D01*
X160435500Y-114905000D01*
X160435500Y-113007720D01*
X160599189Y-113252698D01*
X161064736Y-113563767D01*
X161613887Y-113673000D01*
X161670113Y-113673000D01*
X162219264Y-113563767D01*
X162684811Y-113252698D01*
X162995880Y-112787151D01*
X163105113Y-112238000D01*
X162995880Y-111688849D01*
X162684811Y-111223302D01*
X162302725Y-110968000D01*
X162684811Y-110712698D01*
X162995880Y-110247151D01*
X163105113Y-109698000D01*
X167798887Y-109698000D01*
X167908120Y-110247151D01*
X168219189Y-110712698D01*
X168601275Y-110968000D01*
X168219189Y-111223302D01*
X167908120Y-111688849D01*
X167798887Y-112238000D01*
X167908120Y-112787151D01*
X168219189Y-113252698D01*
X168684736Y-113563767D01*
X169233887Y-113673000D01*
X169290113Y-113673000D01*
X169839264Y-113563767D01*
X170304811Y-113252698D01*
X170615880Y-112787151D01*
X170725113Y-112238000D01*
X170615880Y-111688849D01*
X170304811Y-111223302D01*
X169922725Y-110968000D01*
X170304811Y-110712698D01*
X170615880Y-110247151D01*
X170725113Y-109698000D01*
X170615880Y-109148849D01*
X170304811Y-108683302D01*
X169900297Y-108413014D01*
X170117134Y-108310389D01*
X170493041Y-107895423D01*
X170653904Y-107507039D01*
X170608145Y-107423750D01*
X171812000Y-107423750D01*
X171812000Y-108014309D01*
X171908673Y-108247698D01*
X172087301Y-108426327D01*
X172320690Y-108523000D01*
X172786250Y-108523000D01*
X172945000Y-108364250D01*
X172945000Y-107265000D01*
X173199000Y-107265000D01*
X173199000Y-108364250D01*
X173357750Y-108523000D01*
X173823310Y-108523000D01*
X174056699Y-108426327D01*
X174235327Y-108247698D01*
X174332000Y-108014309D01*
X174332000Y-107423750D01*
X174173250Y-107265000D01*
X173199000Y-107265000D01*
X172945000Y-107265000D01*
X171970750Y-107265000D01*
X171812000Y-107423750D01*
X170608145Y-107423750D01*
X170531915Y-107285000D01*
X169389000Y-107285000D01*
X169389000Y-107305000D01*
X169135000Y-107305000D01*
X169135000Y-107285000D01*
X167992085Y-107285000D01*
X167870096Y-107507039D01*
X168030959Y-107895423D01*
X168406866Y-108310389D01*
X168623703Y-108413014D01*
X168219189Y-108683302D01*
X167908120Y-109148849D01*
X167798887Y-109698000D01*
X163105113Y-109698000D01*
X162995880Y-109148849D01*
X162684811Y-108683302D01*
X162302725Y-108428000D01*
X162684811Y-108172698D01*
X162995880Y-107707151D01*
X163105113Y-107158000D01*
X162995880Y-106608849D01*
X162684811Y-106143302D01*
X162540535Y-106046899D01*
X162677317Y-106021162D01*
X162893441Y-105882090D01*
X163038431Y-105669890D01*
X163089440Y-105418000D01*
X163089440Y-103818000D01*
X163045162Y-103582683D01*
X162906090Y-103366559D01*
X162693890Y-103221569D01*
X162467500Y-103175724D01*
X162467500Y-102165934D01*
X162823731Y-101809703D01*
X162887910Y-101909441D01*
X163100110Y-102054431D01*
X163352000Y-102105440D01*
X164852000Y-102105440D01*
X165087317Y-102061162D01*
X165303441Y-101922090D01*
X165448431Y-101709890D01*
X165451081Y-101696803D01*
X165587910Y-101909441D01*
X165800110Y-102054431D01*
X166052000Y-102105440D01*
X167552000Y-102105440D01*
X167787317Y-102061162D01*
X168003441Y-101922090D01*
X168131798Y-101734232D01*
X168436500Y-102038934D01*
X168436500Y-103458099D01*
X168219189Y-103603302D01*
X167908120Y-104068849D01*
X167798887Y-104618000D01*
X167908120Y-105167151D01*
X168219189Y-105632698D01*
X168623703Y-105902986D01*
X168406866Y-106005611D01*
X168030959Y-106420577D01*
X167870096Y-106808961D01*
X167992085Y-107031000D01*
X169135000Y-107031000D01*
X169135000Y-107011000D01*
X169389000Y-107011000D01*
X169389000Y-107031000D01*
X170531915Y-107031000D01*
X170653904Y-106808961D01*
X170493041Y-106420577D01*
X170117134Y-106005611D01*
X169900297Y-105902986D01*
X170304811Y-105632698D01*
X170615880Y-105167151D01*
X170725113Y-104618000D01*
X170615880Y-104068849D01*
X170304811Y-103603302D01*
X170087500Y-103458099D01*
X170087500Y-102771167D01*
X171628838Y-102771167D01*
X171770883Y-103114943D01*
X172033673Y-103378192D01*
X172053690Y-103386504D01*
X171995559Y-103423910D01*
X171850569Y-103636110D01*
X171799560Y-103888000D01*
X171799560Y-105388000D01*
X171843838Y-105623317D01*
X171982910Y-105839441D01*
X172051006Y-105885969D01*
X171908673Y-106028302D01*
X171812000Y-106261691D01*
X171812000Y-106852250D01*
X171970750Y-107011000D01*
X172945000Y-107011000D01*
X172945000Y-106991000D01*
X173199000Y-106991000D01*
X173199000Y-107011000D01*
X174173250Y-107011000D01*
X174332000Y-106852250D01*
X174332000Y-106261691D01*
X174235327Y-106028302D01*
X174094090Y-105887064D01*
X174148441Y-105852090D01*
X174293431Y-105639890D01*
X174344440Y-105388000D01*
X174344440Y-103888000D01*
X174300162Y-103652683D01*
X174161090Y-103436559D01*
X173948890Y-103291569D01*
X173897500Y-103281162D01*
X173897500Y-103094000D01*
X173834663Y-102778095D01*
X173655717Y-102510283D01*
X173655714Y-102510281D01*
X173465994Y-102320561D01*
X173357117Y-102057057D01*
X173094327Y-101793808D01*
X172750799Y-101651162D01*
X172378833Y-101650838D01*
X172035057Y-101792883D01*
X171771808Y-102055673D01*
X171629162Y-102399201D01*
X171628838Y-102771167D01*
X170087500Y-102771167D01*
X170087500Y-101697005D01*
X170087501Y-101697000D01*
X170024663Y-101381094D01*
X169845717Y-101113283D01*
X168956717Y-100224283D01*
X168688906Y-100045337D01*
X168373000Y-99982500D01*
X168166417Y-99982500D01*
X168155162Y-99922683D01*
X168016090Y-99706559D01*
X167803890Y-99561569D01*
X167552000Y-99510560D01*
X166052000Y-99510560D01*
X165816683Y-99554838D01*
X165600559Y-99693910D01*
X165455569Y-99906110D01*
X165452919Y-99919197D01*
X165316090Y-99706559D01*
X165103890Y-99561569D01*
X164852000Y-99510560D01*
X163352000Y-99510560D01*
X163116683Y-99554838D01*
X162900559Y-99693910D01*
X162755569Y-99906110D01*
X162740100Y-99982500D01*
X162658005Y-99982500D01*
X162658000Y-99982499D01*
X162342094Y-100045337D01*
X162074283Y-100224283D01*
X161058283Y-101240283D01*
X160879337Y-101508094D01*
X160822506Y-101793808D01*
X160816500Y-101824000D01*
X160816500Y-103175358D01*
X160606683Y-103214838D01*
X160390559Y-103353910D01*
X160245569Y-103566110D01*
X160194560Y-103818000D01*
X160194560Y-105418000D01*
X160238838Y-105653317D01*
X160377910Y-105869441D01*
X160590110Y-106014431D01*
X160745089Y-106045815D01*
X160599189Y-106143302D01*
X160288120Y-106608849D01*
X160178887Y-107158000D01*
X160227943Y-107404623D01*
X157756283Y-109876283D01*
X157577337Y-110144094D01*
X157549962Y-110281717D01*
X157514500Y-110460000D01*
X157514500Y-113928066D01*
X153037582Y-118404984D01*
X152989409Y-118332887D01*
X152491419Y-118000141D01*
X151904000Y-117883296D01*
X151316581Y-118000141D01*
X150818591Y-118332887D01*
X150485845Y-118830877D01*
X150369000Y-119418296D01*
X145651000Y-119418296D01*
X145651000Y-118439690D01*
X145554327Y-118206301D01*
X145375698Y-118027673D01*
X145142309Y-117931000D01*
X144401750Y-117931000D01*
X144243000Y-118089750D01*
X143989000Y-118089750D01*
X143830250Y-117931000D01*
X143089691Y-117931000D01*
X142856302Y-118027673D01*
X142677673Y-118206301D01*
X142581000Y-118439690D01*
X141772773Y-118439690D01*
X141701409Y-118332887D01*
X141203419Y-118000141D01*
X140616000Y-117883296D01*
X140028581Y-118000141D01*
X139530591Y-118332887D01*
X139197845Y-118830877D01*
X139081000Y-119418296D01*
X138651000Y-119418296D01*
X138534155Y-118830877D01*
X138495063Y-118772371D01*
X139631933Y-117635500D01*
X141830000Y-117635500D01*
X142145906Y-117572663D01*
X142413717Y-117393717D01*
X144318717Y-115488717D01*
X144497663Y-115220905D01*
X144560501Y-114905000D01*
X144560500Y-114904995D01*
X144560500Y-112251136D01*
X144667120Y-112787151D01*
X144978189Y-113252698D01*
X145443736Y-113563767D01*
X145992887Y-113673000D01*
X146049113Y-113673000D01*
X146598264Y-113563767D01*
X147063811Y-113252698D01*
X147374880Y-112787151D01*
X147484113Y-112238000D01*
X147374880Y-111688849D01*
X147063811Y-111223302D01*
X146681725Y-110968000D01*
X147063811Y-110712698D01*
X147374880Y-110247151D01*
X147484113Y-109698000D01*
X152177887Y-109698000D01*
X152287120Y-110247151D01*
X152598189Y-110712698D01*
X152980275Y-110968000D01*
X152598189Y-111223302D01*
X152287120Y-111688849D01*
X152177887Y-112238000D01*
X152287120Y-112787151D01*
X152598189Y-113252698D01*
X153063736Y-113563767D01*
X153612887Y-113673000D01*
X153669113Y-113673000D01*
X154218264Y-113563767D01*
X154683811Y-113252698D01*
X154994880Y-112787151D01*
X155104113Y-112238000D01*
X154994880Y-111688849D01*
X154683811Y-111223302D01*
X154301725Y-110968000D01*
X154683811Y-110712698D01*
X154994880Y-110247151D01*
X155104113Y-109698000D01*
X154994880Y-109148849D01*
X154683811Y-108683302D01*
X154279297Y-108413014D01*
X154496134Y-108310389D01*
X154872041Y-107895423D01*
X155032904Y-107507039D01*
X154987145Y-107423750D01*
X156191000Y-107423750D01*
X156191000Y-108014309D01*
X156287673Y-108247698D01*
X156466301Y-108426327D01*
X156699690Y-108523000D01*
X157165250Y-108523000D01*
X157324000Y-108364250D01*
X157324000Y-107265000D01*
X157578000Y-107265000D01*
X157578000Y-108364250D01*
X157736750Y-108523000D01*
X158202310Y-108523000D01*
X158435699Y-108426327D01*
X158614327Y-108247698D01*
X158711000Y-108014309D01*
X158711000Y-107423750D01*
X158552250Y-107265000D01*
X157578000Y-107265000D01*
X157324000Y-107265000D01*
X156349750Y-107265000D01*
X156191000Y-107423750D01*
X154987145Y-107423750D01*
X154910915Y-107285000D01*
X153768000Y-107285000D01*
X153768000Y-107305000D01*
X153514000Y-107305000D01*
X153514000Y-107285000D01*
X152371085Y-107285000D01*
X152249096Y-107507039D01*
X152409959Y-107895423D01*
X152785866Y-108310389D01*
X153002703Y-108413014D01*
X152598189Y-108683302D01*
X152287120Y-109148849D01*
X152177887Y-109698000D01*
X147484113Y-109698000D01*
X147374880Y-109148849D01*
X147063811Y-108683302D01*
X146681725Y-108428000D01*
X147063811Y-108172698D01*
X147374880Y-107707151D01*
X147484113Y-107158000D01*
X147374880Y-106608849D01*
X147063811Y-106143302D01*
X146919535Y-106046899D01*
X147056317Y-106021162D01*
X147272441Y-105882090D01*
X147417431Y-105669890D01*
X147468440Y-105418000D01*
X147468440Y-103818000D01*
X147424162Y-103582683D01*
X147285090Y-103366559D01*
X147072890Y-103221569D01*
X146846500Y-103175724D01*
X146846500Y-102292934D01*
X147252456Y-101886978D01*
X147266910Y-101909441D01*
X147479110Y-102054431D01*
X147731000Y-102105440D01*
X149231000Y-102105440D01*
X149466317Y-102061162D01*
X149682441Y-101922090D01*
X149827431Y-101709890D01*
X149830081Y-101696803D01*
X149966910Y-101909441D01*
X150179110Y-102054431D01*
X150431000Y-102105440D01*
X151931000Y-102105440D01*
X152166317Y-102061162D01*
X152382441Y-101922090D01*
X152510798Y-101734232D01*
X152815500Y-102038934D01*
X152815500Y-103458099D01*
X152598189Y-103603302D01*
X152287120Y-104068849D01*
X152177887Y-104618000D01*
X152287120Y-105167151D01*
X152598189Y-105632698D01*
X153002703Y-105902986D01*
X152785866Y-106005611D01*
X152409959Y-106420577D01*
X152249096Y-106808961D01*
X152371085Y-107031000D01*
X153514000Y-107031000D01*
X153514000Y-107011000D01*
X153768000Y-107011000D01*
X153768000Y-107031000D01*
X154910915Y-107031000D01*
X155032904Y-106808961D01*
X154872041Y-106420577D01*
X154496134Y-106005611D01*
X154279297Y-105902986D01*
X154683811Y-105632698D01*
X154994880Y-105167151D01*
X155104113Y-104618000D01*
X154994880Y-104068849D01*
X154683811Y-103603302D01*
X154466500Y-103458099D01*
X154466500Y-102771167D01*
X155880838Y-102771167D01*
X156022883Y-103114943D01*
X156285673Y-103378192D01*
X156382880Y-103418556D01*
X156374559Y-103423910D01*
X156229569Y-103636110D01*
X156178560Y-103888000D01*
X156178560Y-105388000D01*
X156222838Y-105623317D01*
X156361910Y-105839441D01*
X156430006Y-105885969D01*
X156287673Y-106028302D01*
X156191000Y-106261691D01*
X156191000Y-106852250D01*
X156349750Y-107011000D01*
X157324000Y-107011000D01*
X157324000Y-106991000D01*
X157578000Y-106991000D01*
X157578000Y-107011000D01*
X158552250Y-107011000D01*
X158711000Y-106852250D01*
X158711000Y-106261691D01*
X158614327Y-106028302D01*
X158473090Y-105887064D01*
X158527441Y-105852090D01*
X158672431Y-105639890D01*
X158723440Y-105388000D01*
X158723440Y-103888000D01*
X158679162Y-103652683D01*
X158540090Y-103436559D01*
X158327890Y-103291569D01*
X158276500Y-103281162D01*
X158276500Y-103221005D01*
X158276501Y-103221000D01*
X158213663Y-102905095D01*
X158128804Y-102778095D01*
X158034717Y-102637283D01*
X158034714Y-102637281D01*
X157717994Y-102320561D01*
X157609117Y-102057057D01*
X157346327Y-101793808D01*
X157002799Y-101651162D01*
X156630833Y-101650838D01*
X156287057Y-101792883D01*
X156023808Y-102055673D01*
X155881162Y-102399201D01*
X155880838Y-102771167D01*
X154466500Y-102771167D01*
X154466500Y-101697005D01*
X154466501Y-101697000D01*
X154403663Y-101381094D01*
X154224717Y-101113283D01*
X153335717Y-100224283D01*
X153067906Y-100045337D01*
X152752000Y-99982500D01*
X152545417Y-99982500D01*
X152534162Y-99922683D01*
X152395090Y-99706559D01*
X152182890Y-99561569D01*
X151931000Y-99510560D01*
X150431000Y-99510560D01*
X150195683Y-99554838D01*
X149979559Y-99693910D01*
X149834569Y-99906110D01*
X149831919Y-99919197D01*
X149695090Y-99706559D01*
X149482890Y-99561569D01*
X149231000Y-99510560D01*
X147731000Y-99510560D01*
X147495683Y-99554838D01*
X147279559Y-99693910D01*
X147134569Y-99906110D01*
X147117215Y-99991806D01*
X146848094Y-100045337D01*
X146580283Y-100224283D01*
X145437283Y-101367283D01*
X145258337Y-101635094D01*
X145226951Y-101792883D01*
X145195500Y-101951000D01*
X145195500Y-103175358D01*
X144985683Y-103214838D01*
X144769559Y-103353910D01*
X144624569Y-103566110D01*
X144573560Y-103818000D01*
X144573560Y-105418000D01*
X144617838Y-105653317D01*
X144756910Y-105869441D01*
X144969110Y-106014431D01*
X145124089Y-106045815D01*
X144978189Y-106143302D01*
X144667120Y-106608849D01*
X144557887Y-107158000D01*
X144564802Y-107192764D01*
X143852000Y-107905566D01*
X143852000Y-107423750D01*
X143693250Y-107265000D01*
X142719000Y-107265000D01*
X142719000Y-108364250D01*
X142877750Y-108523000D01*
X143234566Y-108523000D01*
X141881283Y-109876283D01*
X141702337Y-110144094D01*
X141674962Y-110281717D01*
X141639500Y-110460000D01*
X141639500Y-113928067D01*
X140853066Y-114714500D01*
X138020005Y-114714500D01*
X138020000Y-114714499D01*
X137704095Y-114777337D01*
X137436283Y-114956283D01*
X137436281Y-114956286D01*
X134316720Y-118075846D01*
X134203419Y-118000141D01*
X133616000Y-117883296D01*
X133028581Y-118000141D01*
X132530591Y-118332887D01*
X132197845Y-118830877D01*
X132081000Y-119418296D01*
X125535565Y-119418296D01*
X125398050Y-119085485D01*
X124320189Y-118005741D01*
X122911175Y-117420667D01*
X121385518Y-117419336D01*
X119975485Y-118001950D01*
X118895741Y-119079811D01*
X118310667Y-120488825D01*
X118309336Y-122014482D01*
X117827000Y-122014482D01*
X117827000Y-107722000D01*
X119789296Y-107722000D01*
X119906141Y-108309419D01*
X120238887Y-108807409D01*
X120736877Y-109140155D01*
X121324296Y-109257000D01*
X123219704Y-109257000D01*
X123807123Y-109140155D01*
X124305113Y-108807409D01*
X124637859Y-108309419D01*
X124754704Y-107722000D01*
X124637859Y-107134581D01*
X124305113Y-106636591D01*
X123807123Y-106303845D01*
X123219704Y-106187000D01*
X121324296Y-106187000D01*
X120736877Y-106303845D01*
X120238887Y-106636591D01*
X119906141Y-107134581D01*
X119789296Y-107722000D01*
X117827000Y-107722000D01*
X117827000Y-104222000D01*
X119789296Y-104222000D01*
X119906141Y-104809419D01*
X120238887Y-105307409D01*
X120736877Y-105640155D01*
X121324296Y-105757000D01*
X123219704Y-105757000D01*
X123807123Y-105640155D01*
X124305113Y-105307409D01*
X124637859Y-104809419D01*
X124754704Y-104222000D01*
X124637859Y-103634581D01*
X124305113Y-103136591D01*
X123807123Y-102803845D01*
X123219704Y-102687000D01*
X121324296Y-102687000D01*
X120736877Y-102803845D01*
X120238887Y-103136591D01*
X119906141Y-103634581D01*
X119789296Y-104222000D01*
X117827000Y-104222000D01*
X117827000Y-96606000D01*
X119824560Y-96606000D01*
X119824560Y-98406000D01*
X119868838Y-98641317D01*
X120007910Y-98857441D01*
X120220110Y-99002431D01*
X120472000Y-99053440D01*
X124072000Y-99053440D01*
X124307317Y-99009162D01*
X124523441Y-98870090D01*
X124668431Y-98657890D01*
X124719440Y-98406000D01*
X124719440Y-98331500D01*
X125828000Y-98331500D01*
X126143906Y-98268663D01*
X126411717Y-98089717D01*
X126536200Y-97965234D01*
X126526500Y-98014000D01*
X126526500Y-108340067D01*
X124691746Y-110174820D01*
X124675162Y-110086683D01*
X124536090Y-109870559D01*
X124323890Y-109725569D01*
X124072000Y-109674560D01*
X120472000Y-109674560D01*
X120236683Y-109718838D01*
X120020559Y-109857910D01*
X119875569Y-110070110D01*
X119824560Y-110322000D01*
X119824560Y-112122000D01*
X119868838Y-112357317D01*
X120007910Y-112573441D01*
X120220110Y-112718431D01*
X120472000Y-112769440D01*
X124072000Y-112769440D01*
X124307317Y-112725162D01*
X124523441Y-112586090D01*
X124668431Y-112373890D01*
X124719440Y-112122000D01*
X124719440Y-112047500D01*
X124812000Y-112047500D01*
X125127906Y-111984663D01*
X125395717Y-111805717D01*
X127935714Y-109265719D01*
X127935717Y-109265717D01*
X128114663Y-108997905D01*
X128177500Y-108682000D01*
X128177500Y-102524831D01*
X128435201Y-102631838D01*
X128807167Y-102632162D01*
X129150943Y-102490117D01*
X129414192Y-102227327D01*
X129556838Y-101883799D01*
X129556876Y-101839754D01*
X129564294Y-101832336D01*
X129613910Y-101909441D01*
X129826110Y-102054431D01*
X130078000Y-102105440D01*
X131578000Y-102105440D01*
X131813317Y-102061162D01*
X132029441Y-101922090D01*
X132174431Y-101709890D01*
X132177081Y-101696803D01*
X132313910Y-101909441D01*
X132368500Y-101946741D01*
X132368500Y-103175724D01*
X132343000Y-103170560D01*
X130743000Y-103170560D01*
X130507683Y-103214838D01*
X130291559Y-103353910D01*
X130146569Y-103566110D01*
X130095560Y-103818000D01*
X130095560Y-105418000D01*
X130139838Y-105653317D01*
X130278910Y-105869441D01*
X130491110Y-106014431D01*
X130646089Y-106045815D01*
X130500189Y-106143302D01*
X130189120Y-106608849D01*
X130079887Y-107158000D01*
X130189120Y-107707151D01*
X130500189Y-108172698D01*
X130882275Y-108428000D01*
X130500189Y-108683302D01*
X130189120Y-109148849D01*
X130079887Y-109698000D01*
X130189120Y-110247151D01*
X130500189Y-110712698D01*
X130882275Y-110968000D01*
X130500189Y-111223302D01*
X130189120Y-111688849D01*
X130079887Y-112238000D01*
X130189120Y-112787151D01*
X130500189Y-113252698D01*
X130965736Y-113563767D01*
X131514887Y-113673000D01*
X131571113Y-113673000D01*
X132120264Y-113563767D01*
X132585811Y-113252698D01*
X132896880Y-112787151D01*
X133006113Y-112238000D01*
X132896880Y-111688849D01*
X132585811Y-111223302D01*
X132203725Y-110968000D01*
X132585811Y-110712698D01*
X132896880Y-110247151D01*
X132921859Y-110121575D01*
X133345434Y-109698000D01*
X137699887Y-109698000D01*
X137809120Y-110247151D01*
X138120189Y-110712698D01*
X138502275Y-110968000D01*
X138120189Y-111223302D01*
X137809120Y-111688849D01*
X137699887Y-112238000D01*
X137809120Y-112787151D01*
X138120189Y-113252698D01*
X138585736Y-113563767D01*
X139134887Y-113673000D01*
X139191113Y-113673000D01*
X139740264Y-113563767D01*
X140205811Y-113252698D01*
X140516880Y-112787151D01*
X140626113Y-112238000D01*
X140516880Y-111688849D01*
X140205811Y-111223302D01*
X139823725Y-110968000D01*
X140205811Y-110712698D01*
X140516880Y-110247151D01*
X140626113Y-109698000D01*
X140516880Y-109148849D01*
X140205811Y-108683302D01*
X139801297Y-108413014D01*
X140018134Y-108310389D01*
X140394041Y-107895423D01*
X140554904Y-107507039D01*
X140509145Y-107423750D01*
X141332000Y-107423750D01*
X141332000Y-108014309D01*
X141428673Y-108247698D01*
X141607301Y-108426327D01*
X141840690Y-108523000D01*
X142306250Y-108523000D01*
X142465000Y-108364250D01*
X142465000Y-107265000D01*
X141490750Y-107265000D01*
X141332000Y-107423750D01*
X140509145Y-107423750D01*
X140432915Y-107285000D01*
X139290000Y-107285000D01*
X139290000Y-107305000D01*
X139036000Y-107305000D01*
X139036000Y-107285000D01*
X137893085Y-107285000D01*
X137771096Y-107507039D01*
X137931959Y-107895423D01*
X138307866Y-108310389D01*
X138524703Y-108413014D01*
X138120189Y-108683302D01*
X137809120Y-109148849D01*
X137699887Y-109698000D01*
X133345434Y-109698000D01*
X133777717Y-109265717D01*
X133956663Y-108997906D01*
X134019501Y-108682000D01*
X134019500Y-108681995D01*
X134019500Y-104618000D01*
X137699887Y-104618000D01*
X137809120Y-105167151D01*
X138120189Y-105632698D01*
X138524703Y-105902986D01*
X138307866Y-106005611D01*
X137931959Y-106420577D01*
X137771096Y-106808961D01*
X137893085Y-107031000D01*
X139036000Y-107031000D01*
X139036000Y-107011000D01*
X139290000Y-107011000D01*
X139290000Y-107031000D01*
X140432915Y-107031000D01*
X140554904Y-106808961D01*
X140394041Y-106420577D01*
X140018134Y-106005611D01*
X139801297Y-105902986D01*
X140205811Y-105632698D01*
X140516880Y-105167151D01*
X140626113Y-104618000D01*
X140516880Y-104068849D01*
X140205811Y-103603302D01*
X139740264Y-103292233D01*
X139191113Y-103183000D01*
X139134887Y-103183000D01*
X138585736Y-103292233D01*
X138120189Y-103603302D01*
X137809120Y-104068849D01*
X137699887Y-104618000D01*
X134019500Y-104618000D01*
X134019500Y-102771167D01*
X141148838Y-102771167D01*
X141290883Y-103114943D01*
X141553673Y-103378192D01*
X141573690Y-103386504D01*
X141515559Y-103423910D01*
X141370569Y-103636110D01*
X141319560Y-103888000D01*
X141319560Y-105388000D01*
X141363838Y-105623317D01*
X141502910Y-105839441D01*
X141571006Y-105885969D01*
X141428673Y-106028302D01*
X141332000Y-106261691D01*
X141332000Y-106852250D01*
X141490750Y-107011000D01*
X142465000Y-107011000D01*
X142465000Y-106991000D01*
X142719000Y-106991000D01*
X142719000Y-107011000D01*
X143693250Y-107011000D01*
X143852000Y-106852250D01*
X143852000Y-106261691D01*
X143755327Y-106028302D01*
X143614090Y-105887064D01*
X143668441Y-105852090D01*
X143813431Y-105639890D01*
X143864440Y-105388000D01*
X143864440Y-103888000D01*
X143820162Y-103652683D01*
X143681090Y-103436559D01*
X143468890Y-103291569D01*
X143417500Y-103281162D01*
X143417500Y-103094000D01*
X143354663Y-102778095D01*
X143175717Y-102510283D01*
X143175714Y-102510281D01*
X142985994Y-102320561D01*
X142877117Y-102057057D01*
X142614327Y-101793808D01*
X142270799Y-101651162D01*
X141898833Y-101650838D01*
X141555057Y-101792883D01*
X141291808Y-102055673D01*
X141149162Y-102399201D01*
X141148838Y-102771167D01*
X134019500Y-102771167D01*
X134019500Y-102105440D01*
X134278000Y-102105440D01*
X134513317Y-102061162D01*
X134729441Y-101922090D01*
X134874431Y-101709890D01*
X134889900Y-101633500D01*
X136067583Y-101633500D01*
X136078838Y-101693317D01*
X136217910Y-101909441D01*
X136430110Y-102054431D01*
X136682000Y-102105440D01*
X138182000Y-102105440D01*
X138417317Y-102061162D01*
X138633441Y-101922090D01*
X138778431Y-101709890D01*
X138785191Y-101676510D01*
X138843673Y-101817699D01*
X139022302Y-101996327D01*
X139255691Y-102093000D01*
X139846250Y-102093000D01*
X140005000Y-101934250D01*
X140005000Y-100935000D01*
X140259000Y-100935000D01*
X140259000Y-101934250D01*
X140417750Y-102093000D01*
X141008309Y-102093000D01*
X141241698Y-101996327D01*
X141420327Y-101817699D01*
X141517000Y-101584310D01*
X141517000Y-101093750D01*
X141358250Y-100935000D01*
X140259000Y-100935000D01*
X140005000Y-100935000D01*
X139985000Y-100935000D01*
X139985000Y-100681000D01*
X140005000Y-100681000D01*
X140005000Y-99681750D01*
X140259000Y-99681750D01*
X140259000Y-100681000D01*
X141358250Y-100681000D01*
X141517000Y-100522250D01*
X141517000Y-100031690D01*
X141420327Y-99798301D01*
X141241698Y-99619673D01*
X141008309Y-99523000D01*
X140417750Y-99523000D01*
X140259000Y-99681750D01*
X140005000Y-99681750D01*
X139846250Y-99523000D01*
X139255691Y-99523000D01*
X139022302Y-99619673D01*
X138843673Y-99798301D01*
X138787346Y-99934287D01*
X138785162Y-99922683D01*
X138646090Y-99706559D01*
X138433890Y-99561569D01*
X138182000Y-99510560D01*
X136682000Y-99510560D01*
X136446683Y-99554838D01*
X136230559Y-99693910D01*
X136085569Y-99906110D01*
X136070100Y-99982500D01*
X134892417Y-99982500D01*
X134881162Y-99922683D01*
X134742090Y-99706559D01*
X134529890Y-99561569D01*
X134278000Y-99510560D01*
X132778000Y-99510560D01*
X132542683Y-99554838D01*
X132326559Y-99693910D01*
X132181569Y-99906110D01*
X132178919Y-99919197D01*
X132042090Y-99706559D01*
X131829890Y-99561569D01*
X131578000Y-99510560D01*
X130078000Y-99510560D01*
X129842683Y-99554838D01*
X129626559Y-99693910D01*
X129481569Y-99906110D01*
X129450816Y-100057971D01*
X129219395Y-100104004D01*
X129039384Y-100224284D01*
X128972185Y-100269185D01*
X128479495Y-100761875D01*
X128436833Y-100761838D01*
X128177500Y-100868992D01*
X128177500Y-98355934D01*
X129725934Y-96807500D01*
X151818699Y-96807500D01*
X151817162Y-96811201D01*
X151816838Y-97183167D01*
X151958883Y-97526943D01*
X152221673Y-97790192D01*
X152565201Y-97932838D01*
X152937167Y-97933162D01*
X153202570Y-97823500D01*
X166042699Y-97823500D01*
X166041162Y-97827201D01*
X166040838Y-98199167D01*
X166182883Y-98542943D01*
X166445673Y-98806192D01*
X166789201Y-98948838D01*
X167161167Y-98949162D01*
X167426570Y-98839500D01*
X178152000Y-98839500D01*
X178467906Y-98776663D01*
X178735717Y-98597717D01*
X179134267Y-98199167D01*
X180264838Y-98199167D01*
X180406883Y-98542943D01*
X180669673Y-98806192D01*
X181013201Y-98948838D01*
X181385167Y-98949162D01*
X181728943Y-98807117D01*
X181992192Y-98544327D01*
X182102318Y-98279116D01*
X182182266Y-98199167D01*
X194996838Y-98199167D01*
X195138883Y-98542943D01*
X195401673Y-98806192D01*
X195745201Y-98948838D01*
X196117167Y-98949162D01*
X196460943Y-98807117D01*
X196724192Y-98544327D01*
X196834318Y-98279116D01*
X198663714Y-96449719D01*
X198663717Y-96449717D01*
X198842663Y-96181905D01*
X198844534Y-96172500D01*
X198905501Y-95866000D01*
X198905500Y-95865995D01*
X198905500Y-83964778D01*
X199165409Y-83791113D01*
X199498155Y-83293123D01*
X199615000Y-82705704D01*
X199615000Y-82009482D01*
X202129336Y-82009482D01*
X202711950Y-83419515D01*
X203789811Y-84499259D01*
X205198825Y-85084333D01*
X206724482Y-85085664D01*
X208134515Y-84503050D01*
X209214259Y-83425189D01*
X209799333Y-82016175D01*
X209800664Y-80490518D01*
X209218050Y-79080485D01*
X208140189Y-78000741D01*
X206731175Y-77415667D01*
X205205518Y-77414336D01*
X203795485Y-77996950D01*
X202715741Y-79074811D01*
X202130667Y-80483825D01*
X202129336Y-82009482D01*
X199615000Y-82009482D01*
X199615000Y-80810296D01*
X199498155Y-80222877D01*
X199165409Y-79724887D01*
X198667419Y-79392141D01*
X198080000Y-79275296D01*
X197492581Y-79392141D01*
X196994591Y-79724887D01*
X196661845Y-80222877D01*
X196545000Y-80810296D01*
X196545000Y-82705704D01*
X196661845Y-83293123D01*
X196994591Y-83791113D01*
X197254500Y-83964778D01*
X197254500Y-95524067D01*
X195666560Y-97112006D01*
X195403057Y-97220883D01*
X195139808Y-97483673D01*
X194997162Y-97827201D01*
X194996838Y-98199167D01*
X182182266Y-98199167D01*
X195163714Y-85217719D01*
X195163717Y-85217717D01*
X195342663Y-84949905D01*
X195405500Y-84634000D01*
X195405500Y-83964778D01*
X195665409Y-83791113D01*
X195998155Y-83293123D01*
X196115000Y-82705704D01*
X196115000Y-80810296D01*
X195998155Y-80222877D01*
X195665409Y-79724887D01*
X195167419Y-79392141D01*
X194580000Y-79275296D01*
X193992581Y-79392141D01*
X193494591Y-79724887D01*
X193161845Y-80222877D01*
X193045000Y-80810296D01*
X193045000Y-82705704D01*
X193161845Y-83293123D01*
X193494591Y-83791113D01*
X193754500Y-83964778D01*
X193754500Y-84292067D01*
X180934560Y-97112006D01*
X180671057Y-97220883D01*
X180407808Y-97483673D01*
X180265162Y-97827201D01*
X180264838Y-98199167D01*
X179134267Y-98199167D01*
X191663717Y-85669717D01*
X191842663Y-85401906D01*
X191905501Y-85086000D01*
X191905500Y-85085995D01*
X191905500Y-83964778D01*
X192165409Y-83791113D01*
X192498155Y-83293123D01*
X192615000Y-82705704D01*
X192615000Y-80810296D01*
X192498155Y-80222877D01*
X192165409Y-79724887D01*
X191667419Y-79392141D01*
X191080000Y-79275296D01*
X190492581Y-79392141D01*
X189994591Y-79724887D01*
X189661845Y-80222877D01*
X189545000Y-80810296D01*
X189545000Y-82705704D01*
X189661845Y-83293123D01*
X189994591Y-83791113D01*
X190254500Y-83964778D01*
X190254500Y-84744066D01*
X177810066Y-97188500D01*
X177096934Y-97188500D01*
X188163714Y-86121719D01*
X188163717Y-86121717D01*
X188342663Y-85853905D01*
X188405500Y-85538000D01*
X188405500Y-83964778D01*
X188665409Y-83791113D01*
X188998155Y-83293123D01*
X189115000Y-82705704D01*
X189115000Y-80810296D01*
X188998155Y-80222877D01*
X188665409Y-79724887D01*
X188167419Y-79392141D01*
X187580000Y-79275296D01*
X186992581Y-79392141D01*
X186494591Y-79724887D01*
X186161845Y-80222877D01*
X186045000Y-80810296D01*
X186045000Y-82705704D01*
X186161845Y-83293123D01*
X186494591Y-83791113D01*
X186754500Y-83964778D01*
X186754500Y-85196067D01*
X175778066Y-96172500D01*
X175064934Y-96172500D01*
X184663717Y-86573717D01*
X184842663Y-86305906D01*
X184905501Y-85990000D01*
X184905500Y-85989995D01*
X184905500Y-83964778D01*
X185165409Y-83791113D01*
X185498155Y-83293123D01*
X185615000Y-82705704D01*
X185615000Y-80810296D01*
X185498155Y-80222877D01*
X185165409Y-79724887D01*
X184667419Y-79392141D01*
X184080000Y-79275296D01*
X183492581Y-79392141D01*
X182994591Y-79724887D01*
X182661845Y-80222877D01*
X182545000Y-80810296D01*
X182545000Y-82705704D01*
X182661845Y-83293123D01*
X182994591Y-83791113D01*
X183254500Y-83964778D01*
X183254500Y-85648066D01*
X173746066Y-95156500D01*
X172016934Y-95156500D01*
X181163714Y-86009719D01*
X181163717Y-86009717D01*
X181342663Y-85741905D01*
X181405500Y-85426000D01*
X181405500Y-83964778D01*
X181665409Y-83791113D01*
X181998155Y-83293123D01*
X182115000Y-82705704D01*
X182115000Y-80810296D01*
X181998155Y-80222877D01*
X181665409Y-79724887D01*
X181167419Y-79392141D01*
X180580000Y-79275296D01*
X179992581Y-79392141D01*
X179494591Y-79724887D01*
X179161845Y-80222877D01*
X179045000Y-80810296D01*
X179045000Y-82705704D01*
X179161845Y-83293123D01*
X179494591Y-83791113D01*
X179754500Y-83964778D01*
X179754500Y-85084067D01*
X170698066Y-94140500D01*
X170111934Y-94140500D01*
X177663714Y-86588719D01*
X177663717Y-86588717D01*
X177842663Y-86320905D01*
X177845516Y-86306560D01*
X177905501Y-86005000D01*
X177905500Y-86004995D01*
X177905500Y-83964778D01*
X178165409Y-83791113D01*
X178498155Y-83293123D01*
X178615000Y-82705704D01*
X178615000Y-80810296D01*
X178498155Y-80222877D01*
X178165409Y-79724887D01*
X177667419Y-79392141D01*
X177080000Y-79275296D01*
X176492581Y-79392141D01*
X175994591Y-79724887D01*
X175661845Y-80222877D01*
X175545000Y-80810296D01*
X175545000Y-82705704D01*
X175661845Y-83293123D01*
X175994591Y-83791113D01*
X176254500Y-83964778D01*
X176254500Y-85663067D01*
X168793066Y-93124500D01*
X168535075Y-93124500D01*
X168656431Y-92946890D01*
X168707440Y-92695000D01*
X168707440Y-91395000D01*
X168663162Y-91159683D01*
X168524090Y-90943559D01*
X168311890Y-90798569D01*
X168135500Y-90762849D01*
X168135500Y-90153234D01*
X168295317Y-90123162D01*
X168511441Y-89984090D01*
X168656431Y-89771890D01*
X168671900Y-89695500D01*
X169135000Y-89695500D01*
X169450906Y-89632663D01*
X169718717Y-89453717D01*
X174163714Y-85008719D01*
X174163717Y-85008717D01*
X174299168Y-84806000D01*
X174342663Y-84740906D01*
X174405500Y-84425000D01*
X174405500Y-84205440D01*
X174480000Y-84205440D01*
X174715317Y-84161162D01*
X174931441Y-84022090D01*
X175076431Y-83809890D01*
X175127440Y-83558000D01*
X175127440Y-79958000D01*
X175083162Y-79722683D01*
X174944090Y-79506559D01*
X174731890Y-79361569D01*
X174480000Y-79310560D01*
X172680000Y-79310560D01*
X172444683Y-79354838D01*
X172228559Y-79493910D01*
X172083569Y-79706110D01*
X172032560Y-79958000D01*
X172032560Y-83558000D01*
X172076838Y-83793317D01*
X172215910Y-84009441D01*
X172428110Y-84154431D01*
X172640189Y-84197378D01*
X168793066Y-88044500D01*
X168674417Y-88044500D01*
X168663162Y-87984683D01*
X168524090Y-87768559D01*
X168311890Y-87623569D01*
X168060000Y-87572560D01*
X166560000Y-87572560D01*
X166324683Y-87616838D01*
X166108559Y-87755910D01*
X165963569Y-87968110D01*
X165956809Y-88001490D01*
X165898327Y-87860301D01*
X165719698Y-87681673D01*
X165486309Y-87585000D01*
X164895750Y-87585000D01*
X164737000Y-87743750D01*
X164737000Y-88743000D01*
X164757000Y-88743000D01*
X164757000Y-88997000D01*
X164737000Y-88997000D01*
X164737000Y-89996250D01*
X164895750Y-90155000D01*
X165486309Y-90155000D01*
X165719698Y-90058327D01*
X165898327Y-89879699D01*
X165954654Y-89743713D01*
X165956838Y-89755317D01*
X166095910Y-89971441D01*
X166308110Y-90116431D01*
X166484500Y-90152151D01*
X166484500Y-90761766D01*
X166324683Y-90791838D01*
X166108559Y-90930910D01*
X165963569Y-91143110D01*
X165960919Y-91156197D01*
X165824090Y-90943559D01*
X165611890Y-90798569D01*
X165360000Y-90747560D01*
X163860000Y-90747560D01*
X163624683Y-90791838D01*
X163408559Y-90930910D01*
X163280202Y-91118768D01*
X161962691Y-89801257D01*
X161882409Y-89397654D01*
X161720775Y-89155750D01*
X163225000Y-89155750D01*
X163225000Y-89646310D01*
X163321673Y-89879699D01*
X163500302Y-90058327D01*
X163733691Y-90155000D01*
X164324250Y-90155000D01*
X164483000Y-89996250D01*
X164483000Y-88997000D01*
X163383750Y-88997000D01*
X163225000Y-89155750D01*
X161720775Y-89155750D01*
X161647211Y-89045655D01*
X161295212Y-88810457D01*
X160880000Y-88727866D01*
X160464788Y-88810457D01*
X160240726Y-88960170D01*
X159904001Y-88795592D01*
X159737000Y-88922498D01*
X159737000Y-90013000D01*
X159757000Y-90013000D01*
X159757000Y-90267000D01*
X159737000Y-90267000D01*
X159737000Y-91357502D01*
X159904001Y-91484408D01*
X160240726Y-91319830D01*
X160464788Y-91469543D01*
X160880000Y-91552134D01*
X161295212Y-91469543D01*
X161295750Y-91469184D01*
X162357300Y-92530734D01*
X162150000Y-92489500D01*
X154871933Y-92489500D01*
X154634873Y-92252440D01*
X155815000Y-92252440D01*
X156050317Y-92208162D01*
X156266441Y-92069090D01*
X156411431Y-91856890D01*
X156434292Y-91744000D01*
X157625000Y-91744000D01*
X157965206Y-91676329D01*
X158173068Y-91537440D01*
X158790000Y-91537440D01*
X159025317Y-91493162D01*
X159158529Y-91407442D01*
X159315999Y-91484408D01*
X159483000Y-91357502D01*
X159483000Y-90267000D01*
X159463000Y-90267000D01*
X159463000Y-90013000D01*
X159483000Y-90013000D01*
X159483000Y-88922498D01*
X159315999Y-88795592D01*
X159229000Y-88838114D01*
X159229000Y-88093690D01*
X163225000Y-88093690D01*
X163225000Y-88584250D01*
X163383750Y-88743000D01*
X164483000Y-88743000D01*
X164483000Y-87743750D01*
X164324250Y-87585000D01*
X163733691Y-87585000D01*
X163500302Y-87681673D01*
X163321673Y-87860301D01*
X163225000Y-88093690D01*
X159229000Y-88093690D01*
X159229000Y-87333236D01*
X160238618Y-86323618D01*
X160353441Y-86151773D01*
X160431329Y-86035206D01*
X160499000Y-85695000D01*
X160499000Y-84456886D01*
X160585999Y-84499408D01*
X160753000Y-84372502D01*
X160753000Y-83282000D01*
X161007000Y-83282000D01*
X161007000Y-84372502D01*
X161174001Y-84499408D01*
X161557408Y-84312013D01*
X161833808Y-83987544D01*
X161965000Y-83582000D01*
X161965000Y-83440750D01*
X163890000Y-83440750D01*
X163890000Y-84081310D01*
X163986673Y-84314699D01*
X164165302Y-84493327D01*
X164398691Y-84590000D01*
X165039250Y-84590000D01*
X165198000Y-84431250D01*
X165198000Y-83282000D01*
X164048750Y-83282000D01*
X163890000Y-83440750D01*
X161965000Y-83440750D01*
X161965000Y-83282000D01*
X161007000Y-83282000D01*
X160753000Y-83282000D01*
X160733000Y-83282000D01*
X160733000Y-83028000D01*
X160753000Y-83028000D01*
X160753000Y-81937498D01*
X161007000Y-81937498D01*
X161007000Y-83028000D01*
X161965000Y-83028000D01*
X161965000Y-82728000D01*
X161833808Y-82322456D01*
X161753934Y-82228690D01*
X163890000Y-82228690D01*
X163890000Y-82869250D01*
X164048750Y-83028000D01*
X165198000Y-83028000D01*
X165198000Y-81878750D01*
X165452000Y-81878750D01*
X165452000Y-83028000D01*
X165472000Y-83028000D01*
X165472000Y-83282000D01*
X165452000Y-83282000D01*
X165452000Y-84431250D01*
X165610750Y-84590000D01*
X166251309Y-84590000D01*
X166484698Y-84493327D01*
X166663327Y-84314699D01*
X166748876Y-84108165D01*
X167011077Y-84370824D01*
X167538309Y-84589750D01*
X168109187Y-84590248D01*
X168636800Y-84372243D01*
X169040824Y-83968923D01*
X169259750Y-83441691D01*
X169260248Y-82870813D01*
X169042243Y-82343200D01*
X168638923Y-81939176D01*
X168111691Y-81720250D01*
X167540813Y-81719752D01*
X167013200Y-81937757D01*
X166748813Y-82201683D01*
X166663327Y-81995301D01*
X166484698Y-81816673D01*
X166251309Y-81720000D01*
X165610750Y-81720000D01*
X165452000Y-81878750D01*
X165198000Y-81878750D01*
X165039250Y-81720000D01*
X164398691Y-81720000D01*
X164165302Y-81816673D01*
X163986673Y-81995301D01*
X163890000Y-82228690D01*
X161753934Y-82228690D01*
X161557408Y-81997987D01*
X161174001Y-81810592D01*
X161007000Y-81937498D01*
X160753000Y-81937498D01*
X160585999Y-81810592D01*
X160249274Y-81975170D01*
X160025212Y-81825457D01*
X159610000Y-81742866D01*
X159194788Y-81825457D01*
X159129981Y-81868759D01*
X159041890Y-81808569D01*
X158790000Y-81757560D01*
X157890000Y-81757560D01*
X157654683Y-81801838D01*
X157438559Y-81940910D01*
X157293569Y-82153110D01*
X157270708Y-82266000D01*
X155325693Y-82266000D01*
X155298162Y-82119683D01*
X155159090Y-81903559D01*
X154946890Y-81758569D01*
X154695000Y-81707560D01*
X154339796Y-81707560D01*
X153253618Y-80621382D01*
X153057766Y-80490518D01*
X152965206Y-80428671D01*
X152625000Y-80361000D01*
X150085000Y-80361000D01*
X149744794Y-80428671D01*
X149652234Y-80490518D01*
X149456382Y-80621382D01*
X148446764Y-81631000D01*
X146552440Y-81631000D01*
X146552440Y-81620000D01*
X146508162Y-81384683D01*
X146369090Y-81168559D01*
X146156890Y-81023569D01*
X145905000Y-80972560D01*
X145894000Y-80972560D01*
X145894000Y-79853000D01*
X145826330Y-79512795D01*
X145633618Y-79224382D01*
X143982618Y-77573382D01*
X143694206Y-77380671D01*
X143354000Y-77313000D01*
X140306000Y-77313000D01*
X139965794Y-77380671D01*
X139677382Y-77573382D01*
X137899382Y-79351382D01*
X137706671Y-79639794D01*
X137639000Y-79980000D01*
X137639000Y-84183764D01*
X135192966Y-86629798D01*
X135111090Y-86502559D01*
X134898890Y-86357569D01*
X134647000Y-86306560D01*
X133712676Y-86306560D01*
X135036618Y-84982618D01*
X135229329Y-84694206D01*
X135279485Y-84442052D01*
X135493409Y-84299113D01*
X135826155Y-83801123D01*
X135943000Y-83213704D01*
X135943000Y-81318296D01*
X135826155Y-80730877D01*
X135493409Y-80232887D01*
X134995419Y-79900141D01*
X134408000Y-79783296D01*
X133820581Y-79900141D01*
X133322591Y-80232887D01*
X132989845Y-80730877D01*
X132873000Y-81318296D01*
X132873000Y-83213704D01*
X132989845Y-83801123D01*
X133275751Y-84229013D01*
X131198204Y-86306560D01*
X130217000Y-86306560D01*
X129981683Y-86350838D01*
X129765559Y-86489910D01*
X129620569Y-86702110D01*
X129569560Y-86954000D01*
X129569560Y-88754000D01*
X129613838Y-88989317D01*
X129752910Y-89205441D01*
X129965110Y-89350431D01*
X130217000Y-89401440D01*
X131462000Y-89401440D01*
X131697317Y-89357162D01*
X131913441Y-89218090D01*
X132058431Y-89005890D01*
X132109440Y-88754000D01*
X132109440Y-87909796D01*
X132754560Y-87264676D01*
X132754560Y-88754000D01*
X132798838Y-88989317D01*
X132937910Y-89205441D01*
X133150110Y-89350431D01*
X133402000Y-89401440D01*
X134647000Y-89401440D01*
X134882317Y-89357162D01*
X135098441Y-89218090D01*
X135243431Y-89005890D01*
X135294440Y-88754000D01*
X135294440Y-88729386D01*
X135566206Y-88675329D01*
X135854618Y-88482618D01*
X139156618Y-85180618D01*
X139220064Y-85085664D01*
X139349329Y-84892206D01*
X139417000Y-84552000D01*
X139417000Y-80348236D01*
X140674236Y-79091000D01*
X142985764Y-79091000D01*
X144116000Y-80221236D01*
X144116000Y-80462565D01*
X144095206Y-80448671D01*
X143755000Y-80381000D01*
X142441285Y-80381000D01*
X142423162Y-80284683D01*
X142284090Y-80068559D01*
X142071890Y-79923569D01*
X141820000Y-79872560D01*
X140570000Y-79872560D01*
X140334683Y-79916838D01*
X140118559Y-80055910D01*
X139973569Y-80268110D01*
X139922560Y-80520000D01*
X139922560Y-82020000D01*
X139966838Y-82255317D01*
X140105910Y-82471441D01*
X140175711Y-82519134D01*
X140118559Y-82555910D01*
X139973569Y-82768110D01*
X139922560Y-83020000D01*
X139922560Y-84520000D01*
X139966838Y-84755317D01*
X140105910Y-84971441D01*
X140236008Y-85060333D01*
X140118559Y-85135910D01*
X139973569Y-85348110D01*
X139922560Y-85600000D01*
X139922560Y-87100000D01*
X139966838Y-87335317D01*
X140105910Y-87551441D01*
X140175711Y-87599134D01*
X140118559Y-87635910D01*
X139973569Y-87848110D01*
X139922560Y-88100000D01*
X139922560Y-89600000D01*
X139966838Y-89835317D01*
X140105910Y-90051441D01*
X140318110Y-90196431D01*
X140570000Y-90247440D01*
X141820000Y-90247440D01*
X142055317Y-90203162D01*
X142271441Y-90064090D01*
X142416431Y-89851890D01*
X142439292Y-89739000D01*
X142766000Y-89739000D01*
X142766000Y-90773715D01*
X142669683Y-90791838D01*
X142453559Y-90930910D01*
X142308569Y-91143110D01*
X142257560Y-91395000D01*
X142257560Y-92695000D01*
X142301838Y-92930317D01*
X142440910Y-93146441D01*
X142653110Y-93291431D01*
X142905000Y-93342440D01*
X144405000Y-93342440D01*
X144640317Y-93298162D01*
X144856441Y-93159090D01*
X145001431Y-92946890D01*
X145004081Y-92933803D01*
X145140910Y-93146441D01*
X145353110Y-93291431D01*
X145605000Y-93342440D01*
X147105000Y-93342440D01*
X147340317Y-93298162D01*
X147556441Y-93159090D01*
X147701431Y-92946890D01*
X147704041Y-92934000D01*
X148260000Y-92934000D01*
X148600206Y-92866329D01*
X148888618Y-92673618D01*
X149309796Y-92252440D01*
X150100000Y-92252440D01*
X150335317Y-92208162D01*
X150551441Y-92069090D01*
X150696431Y-91856890D01*
X150732151Y-91680500D01*
X151728066Y-91680500D01*
X153946281Y-93898714D01*
X153946283Y-93898717D01*
X154214095Y-94077663D01*
X154530000Y-94140500D01*
X128368000Y-94140500D01*
X128052095Y-94203337D01*
X127784283Y-94382283D01*
X127784281Y-94382286D01*
X125486066Y-96680500D01*
X124719440Y-96680500D01*
X124719440Y-96606000D01*
X124675162Y-96370683D01*
X124536090Y-96154559D01*
X124323890Y-96009569D01*
X124072000Y-95958560D01*
X120472000Y-95958560D01*
X120236683Y-96002838D01*
X120020559Y-96141910D01*
X119875569Y-96354110D01*
X119824560Y-96606000D01*
X117827000Y-96606000D01*
X117827000Y-94006000D01*
X119789296Y-94006000D01*
X119906141Y-94593419D01*
X120238887Y-95091409D01*
X120736877Y-95424155D01*
X121324296Y-95541000D01*
X123219704Y-95541000D01*
X123807123Y-95424155D01*
X124305113Y-95091409D01*
X124637859Y-94593419D01*
X124754704Y-94006000D01*
X124637859Y-93418581D01*
X124305113Y-92920591D01*
X123807123Y-92587845D01*
X123219704Y-92471000D01*
X121324296Y-92471000D01*
X120736877Y-92587845D01*
X120238887Y-92920591D01*
X119906141Y-93418581D01*
X119789296Y-94006000D01*
X117827000Y-94006000D01*
X117827000Y-90506000D01*
X119789296Y-90506000D01*
X119906141Y-91093419D01*
X120238887Y-91591409D01*
X120736877Y-91924155D01*
X121324296Y-92041000D01*
X123219704Y-92041000D01*
X123807123Y-91924155D01*
X124305113Y-91591409D01*
X124637859Y-91093419D01*
X124754704Y-90506000D01*
X124637859Y-89918581D01*
X124305113Y-89420591D01*
X123807123Y-89087845D01*
X123219704Y-88971000D01*
X121324296Y-88971000D01*
X120736877Y-89087845D01*
X120238887Y-89420591D01*
X119906141Y-89918581D01*
X119789296Y-90506000D01*
X117827000Y-90506000D01*
X117827000Y-82009482D01*
X118309336Y-82009482D01*
X118891950Y-83419515D01*
X119969811Y-84499259D01*
X121378825Y-85084333D01*
X122904482Y-85085664D01*
X124314515Y-84503050D01*
X125394259Y-83425189D01*
X125979333Y-82016175D01*
X125980664Y-80490518D01*
X125970534Y-80466000D01*
X129360560Y-80466000D01*
X129360560Y-84066000D01*
X129404838Y-84301317D01*
X129543910Y-84517441D01*
X129756110Y-84662431D01*
X130008000Y-84713440D01*
X131808000Y-84713440D01*
X132043317Y-84669162D01*
X132259441Y-84530090D01*
X132404431Y-84317890D01*
X132455440Y-84066000D01*
X132455440Y-80466000D01*
X132411162Y-80230683D01*
X132272090Y-80014559D01*
X132059890Y-79869569D01*
X131808000Y-79818560D01*
X130008000Y-79818560D01*
X129772683Y-79862838D01*
X129556559Y-80001910D01*
X129411569Y-80214110D01*
X129360560Y-80466000D01*
X125970534Y-80466000D01*
X125398050Y-79080485D01*
X124320189Y-78000741D01*
X122911175Y-77415667D01*
X121385518Y-77414336D01*
X119975485Y-77996950D01*
X118895741Y-79074811D01*
X118310667Y-80483825D01*
X118309336Y-82009482D01*
X117827000Y-82009482D01*
X117827000Y-76297000D01*
X210283000Y-76297000D01*
X210283000Y-126208000D01*
M02*
