G04 #@! TF.FileFunction,Copper,L1,Top,Signal*
%FSLAX46Y46*%
G04 Gerber Fmt 4.6, Leading zero omitted, Abs format (unit mm)*
G04 Created by KiCad (PCBNEW 4.0.7) date Wednesday, April 11, 2018 'AMt' 08:58:52 AM*
%MOMM*%
%LPD*%
G01*
G04 APERTURE LIST*
%ADD10C,0.100000*%
%ADD11C,0.150000*%
%ADD12R,1.600000X1.600000*%
%ADD13C,1.600000*%
%ADD14R,1.800000X3.600000*%
%ADD15O,1.800000X3.600000*%
%ADD16R,1.800000X1.800000*%
%ADD17O,1.800000X1.800000*%
%ADD18O,1.600000X1.600000*%
%ADD19C,6.400000*%
%ADD20C,0.600000*%
%ADD21C,0.250000*%
G04 APERTURE END LIST*
D10*
D11*
X113665000Y-129540000D02*
X206375000Y-129540000D01*
X113665000Y-93980000D02*
X206375000Y-93980000D01*
X113665000Y-93980000D02*
X113665000Y-129540000D01*
X206375000Y-93980000D02*
X206375000Y-129540000D01*
D12*
X139700000Y-100330000D03*
D13*
X137200000Y-100330000D03*
D12*
X157480000Y-100330000D03*
D13*
X159980000Y-100330000D03*
D14*
X127000000Y-100330000D03*
D15*
X130500000Y-100330000D03*
D14*
X168910000Y-100330000D03*
D15*
X172410000Y-100330000D03*
X175910000Y-100330000D03*
X179410000Y-100330000D03*
X182910000Y-100330000D03*
X186410000Y-100330000D03*
X189910000Y-100330000D03*
X193410000Y-100330000D03*
D14*
X129540000Y-123190000D03*
D15*
X126040000Y-123190000D03*
D14*
X156210000Y-123190000D03*
D15*
X152710000Y-123190000D03*
D14*
X138430000Y-123190000D03*
D15*
X134930000Y-123190000D03*
D14*
X165100000Y-123190000D03*
D15*
X161600000Y-123190000D03*
D14*
X182880000Y-123190000D03*
D15*
X179380000Y-123190000D03*
D14*
X191770000Y-123190000D03*
D15*
X188270000Y-123190000D03*
D14*
X147320000Y-123190000D03*
D15*
X143820000Y-123190000D03*
D14*
X173990000Y-123190000D03*
D15*
X170490000Y-123190000D03*
D16*
X146050000Y-100330000D03*
D17*
X148590000Y-100330000D03*
X151130000Y-100330000D03*
D13*
X125730000Y-106680000D03*
D18*
X125730000Y-116840000D03*
D13*
X152400000Y-106680000D03*
D18*
X152400000Y-116840000D03*
D13*
X134620000Y-106680000D03*
D18*
X134620000Y-116840000D03*
D13*
X161290000Y-106680000D03*
D18*
X161290000Y-116840000D03*
D13*
X179070000Y-106680000D03*
D18*
X179070000Y-116840000D03*
D13*
X187960000Y-106680000D03*
D18*
X187960000Y-116840000D03*
D13*
X143510000Y-106680000D03*
D18*
X143510000Y-116840000D03*
D13*
X170180000Y-106680000D03*
D18*
X170180000Y-116840000D03*
D19*
X118745000Y-98425000D03*
X201295000Y-98425000D03*
X118745000Y-125095000D03*
X201295000Y-125095000D03*
D20*
X155194000Y-102616000D03*
D21*
X139700000Y-100330000D02*
X139192000Y-100330000D01*
X139192000Y-100330000D02*
X135382000Y-104140000D01*
X127000000Y-100330000D02*
X127000000Y-101854000D01*
X127000000Y-101854000D02*
X129286000Y-104140000D01*
X129286000Y-104140000D02*
X135382000Y-104140000D01*
X135382000Y-104140000D02*
X142240000Y-104140000D01*
X142240000Y-104140000D02*
X146050000Y-100330000D01*
X155194000Y-102616000D02*
X152908000Y-100330000D01*
X152908000Y-100330000D02*
X151130000Y-100330000D01*
X151130000Y-100330000D02*
X157480000Y-100330000D01*
X125730000Y-120396000D02*
X125730000Y-120142000D01*
X168910000Y-104902000D02*
X168910000Y-100330000D01*
X164592000Y-109220000D02*
X168910000Y-104902000D01*
X136652000Y-109220000D02*
X164592000Y-109220000D01*
X125730000Y-120142000D02*
X136652000Y-109220000D01*
X125730000Y-116840000D02*
X125730000Y-120396000D01*
X125730000Y-120396000D02*
X125730000Y-122880000D01*
X125730000Y-122880000D02*
X126040000Y-123190000D01*
X134930000Y-120086000D02*
X134620000Y-120396000D01*
X134930000Y-120086000D02*
X144272000Y-110744000D01*
X144272000Y-110744000D02*
X171196000Y-110744000D01*
X171196000Y-110744000D02*
X172410000Y-109530000D01*
X172410000Y-100330000D02*
X172410000Y-109530000D01*
X134683500Y-120269000D02*
X134620000Y-120269000D01*
X134620000Y-120332500D02*
X134683500Y-120269000D01*
X134620000Y-120396000D02*
X134620000Y-120332500D01*
X134620000Y-116840000D02*
X134620000Y-120269000D01*
X134620000Y-120269000D02*
X134620000Y-122880000D01*
X134620000Y-122880000D02*
X134930000Y-123190000D01*
X153416000Y-111760000D02*
X152273000Y-111760000D01*
X153416000Y-111760000D02*
X174752000Y-111760000D01*
X174752000Y-111760000D02*
X175910000Y-110602000D01*
X175910000Y-100330000D02*
X175910000Y-110602000D01*
X143510000Y-120523000D02*
X143510000Y-121094500D01*
X152273000Y-111760000D02*
X143510000Y-120523000D01*
X143510000Y-116840000D02*
X143510000Y-121094500D01*
X143510000Y-121094500D02*
X143510000Y-122880000D01*
X143510000Y-122880000D02*
X143820000Y-123190000D01*
X153066750Y-119729250D02*
X152710000Y-120086000D01*
X152710000Y-120086000D02*
X152527000Y-120269000D01*
X152400000Y-120396000D02*
X152400000Y-120840500D01*
X152527000Y-120269000D02*
X152400000Y-120396000D01*
X152400000Y-116840000D02*
X152400000Y-120840500D01*
X152400000Y-120840500D02*
X152400000Y-122880000D01*
X152400000Y-122880000D02*
X152710000Y-123190000D01*
X179410000Y-103546000D02*
X179410000Y-100330000D01*
X177292000Y-105664000D02*
X179410000Y-103546000D01*
X177292000Y-111252000D02*
X177292000Y-105664000D01*
X175768000Y-112776000D02*
X177292000Y-111252000D01*
X160020000Y-112776000D02*
X175768000Y-112776000D01*
X153066750Y-119729250D02*
X160020000Y-112776000D01*
X161663500Y-119372500D02*
X161663500Y-119387500D01*
X161290000Y-119761000D02*
X161290000Y-120459500D01*
X161663500Y-119387500D02*
X161290000Y-119761000D01*
X161290000Y-116840000D02*
X161290000Y-120459500D01*
X161290000Y-120459500D02*
X161290000Y-122880000D01*
X161290000Y-122880000D02*
X161600000Y-123190000D01*
X182910000Y-112238000D02*
X182910000Y-100330000D01*
X181356000Y-113792000D02*
X182910000Y-112238000D01*
X180848000Y-113792000D02*
X181356000Y-113792000D01*
X167244000Y-113792000D02*
X180848000Y-113792000D01*
X161600000Y-119436000D02*
X161663500Y-119372500D01*
X161663500Y-119372500D02*
X167244000Y-113792000D01*
X170656250Y-119919750D02*
X170490000Y-120086000D01*
X170490000Y-120086000D02*
X170307000Y-120269000D01*
X170180000Y-120396000D02*
X170180000Y-120840500D01*
X170307000Y-120269000D02*
X170180000Y-120396000D01*
X170180000Y-116840000D02*
X170180000Y-120840500D01*
X170180000Y-120840500D02*
X170180000Y-122880000D01*
X170180000Y-122880000D02*
X170490000Y-123190000D01*
X186410000Y-111278000D02*
X186410000Y-100330000D01*
X182880000Y-114808000D02*
X186410000Y-111278000D01*
X175768000Y-114808000D02*
X182880000Y-114808000D01*
X170656250Y-119919750D02*
X175768000Y-114808000D01*
X179380000Y-119832000D02*
X179197000Y-120015000D01*
X179380000Y-119832000D02*
X182372000Y-116840000D01*
X182372000Y-116840000D02*
X184912000Y-116840000D01*
X184912000Y-116840000D02*
X189910000Y-111842000D01*
X189910000Y-100330000D02*
X189910000Y-111842000D01*
X179070000Y-120142000D02*
X179070000Y-120650000D01*
X179197000Y-120015000D02*
X179070000Y-120142000D01*
X179070000Y-116840000D02*
X179070000Y-120650000D01*
X179070000Y-120650000D02*
X179070000Y-122880000D01*
X179070000Y-122880000D02*
X179380000Y-123190000D01*
X188270000Y-119070000D02*
X188087000Y-119253000D01*
X188270000Y-119070000D02*
X193410000Y-113930000D01*
X193410000Y-100330000D02*
X193410000Y-113930000D01*
X187960000Y-119380000D02*
X187960000Y-120015000D01*
X188087000Y-119253000D02*
X187960000Y-119380000D01*
X187960000Y-116840000D02*
X187960000Y-120015000D01*
X187960000Y-120015000D02*
X187960000Y-122880000D01*
X187960000Y-122880000D02*
X188270000Y-123190000D01*
M02*
