M48
INCH,TZ
T1C0.016
T2C0.031
T3C0.039
T4C0.047
T5C0.126
%
G90
G05
T1
X61100Y-40400
T2
X49500Y-42000
X49500Y-46000
X53000Y-42000
X53000Y-46000
X54016Y-39500
X55000Y-39500
X56500Y-42000
X56500Y-46000
X60000Y-42000
X60000Y-46000
X62000Y-39500
X62984Y-39500
X63500Y-42000
X63500Y-46000
X67000Y-42000
X67000Y-46000
X70500Y-42000
X70500Y-46000
X74000Y-42000
X74000Y-46000
T3
X57500Y-39500
X58500Y-39500
X59500Y-39500
T4
X49622Y-48500
X50000Y-39500
X51000Y-48500
X51378Y-39500
X53122Y-48500
X54500Y-48500
X56622Y-48500
X58000Y-48500
X60122Y-48500
X61500Y-48500
X63622Y-48500
X65000Y-48500
X66500Y-39500
X67122Y-48500
X67878Y-39500
X68500Y-48500
X69256Y-39500
X70622Y-48500
X70634Y-39500
X72000Y-48500
X72012Y-39500
X73390Y-39500
X74122Y-48500
X74768Y-39500
X75500Y-48500
X76146Y-39500
T5
X46750Y-38750
X46750Y-49250
X79250Y-38750
X79250Y-49250
T0
M30
