G04 #@! TF.FileFunction,Legend,Top*
%FSLAX46Y46*%
G04 Gerber Fmt 4.6, Leading zero omitted, Abs format (unit mm)*
G04 Created by KiCad (PCBNEW 4.0.7) date Wednesday, April 11, 2018 'AMt' 08:58:52 AM*
%MOMM*%
%LPD*%
G01*
G04 APERTURE LIST*
%ADD10C,0.100000*%
%ADD11C,0.300000*%
%ADD12C,0.150000*%
%ADD13C,0.120000*%
%ADD14C,0.010000*%
G04 APERTURE END LIST*
D10*
D11*
X196520857Y-116526571D02*
X196520857Y-117598000D01*
X196449429Y-117812286D01*
X196306572Y-117955143D01*
X196092286Y-118026571D01*
X195949429Y-118026571D01*
X197235143Y-117240857D02*
X198378000Y-117240857D01*
X198378000Y-117669429D02*
X197235143Y-117669429D01*
X199949429Y-117026571D02*
X199306572Y-117026571D01*
X199163714Y-117098000D01*
X199092286Y-117169429D01*
X199020857Y-117312286D01*
X199020857Y-117740857D01*
X199092286Y-117883714D01*
X199163714Y-117955143D01*
X199306572Y-118026571D01*
X199520857Y-118026571D01*
X199663714Y-117955143D01*
X199735143Y-117883714D01*
X199806572Y-117740857D01*
X199806572Y-117312286D01*
X199735143Y-117169429D01*
X199663714Y-117098000D01*
X199520857Y-117026571D01*
X200520857Y-117240857D02*
X201020857Y-117240857D01*
X201235143Y-118026571D02*
X200520857Y-118026571D01*
X200520857Y-116526571D01*
X201235143Y-116526571D01*
D12*
X196214476Y-104243238D02*
X196071619Y-104195619D01*
X195833523Y-104195619D01*
X195738285Y-104243238D01*
X195690666Y-104290857D01*
X195643047Y-104386095D01*
X195643047Y-104481333D01*
X195690666Y-104576571D01*
X195738285Y-104624190D01*
X195833523Y-104671810D01*
X196024000Y-104719429D01*
X196119238Y-104767048D01*
X196166857Y-104814667D01*
X196214476Y-104909905D01*
X196214476Y-105005143D01*
X196166857Y-105100381D01*
X196119238Y-105148000D01*
X196024000Y-105195619D01*
X195785904Y-105195619D01*
X195643047Y-105148000D01*
X195214476Y-104195619D02*
X195214476Y-105195619D01*
X194214476Y-105148000D02*
X194309714Y-105195619D01*
X194452571Y-105195619D01*
X194595429Y-105148000D01*
X194690667Y-105052762D01*
X194738286Y-104957524D01*
X194785905Y-104767048D01*
X194785905Y-104624190D01*
X194738286Y-104433714D01*
X194690667Y-104338476D01*
X194595429Y-104243238D01*
X194452571Y-104195619D01*
X194357333Y-104195619D01*
X194214476Y-104243238D01*
X194166857Y-104290857D01*
X194166857Y-104624190D01*
X194357333Y-104624190D01*
X193738286Y-104195619D02*
X193738286Y-105195619D01*
X193166857Y-104195619D01*
X193166857Y-105195619D01*
X192738286Y-104481333D02*
X192262095Y-104481333D01*
X192833524Y-104195619D02*
X192500191Y-105195619D01*
X192166857Y-104195619D01*
X191357333Y-104195619D02*
X191833524Y-104195619D01*
X191833524Y-105195619D01*
X190071619Y-105195619D02*
X189881142Y-105195619D01*
X189785904Y-105148000D01*
X189690666Y-105052762D01*
X189643047Y-104862286D01*
X189643047Y-104528952D01*
X189690666Y-104338476D01*
X189785904Y-104243238D01*
X189881142Y-104195619D01*
X190071619Y-104195619D01*
X190166857Y-104243238D01*
X190262095Y-104338476D01*
X190309714Y-104528952D01*
X190309714Y-104862286D01*
X190262095Y-105052762D01*
X190166857Y-105148000D01*
X190071619Y-105195619D01*
X189214476Y-105195619D02*
X189214476Y-104386095D01*
X189166857Y-104290857D01*
X189119238Y-104243238D01*
X189024000Y-104195619D01*
X188833523Y-104195619D01*
X188738285Y-104243238D01*
X188690666Y-104290857D01*
X188643047Y-104386095D01*
X188643047Y-105195619D01*
X188309714Y-105195619D02*
X187738285Y-105195619D01*
X188024000Y-104195619D02*
X188024000Y-105195619D01*
X123484286Y-118578381D02*
X124055715Y-118578381D01*
X123770000Y-119578381D02*
X123770000Y-118578381D01*
X124389048Y-119578381D02*
X124389048Y-118578381D01*
X124389048Y-119054571D02*
X124960477Y-119054571D01*
X124960477Y-119578381D02*
X124960477Y-118578381D01*
X125436667Y-119054571D02*
X125770001Y-119054571D01*
X125912858Y-119578381D02*
X125436667Y-119578381D01*
X125436667Y-118578381D01*
X125912858Y-118578381D01*
X126912858Y-119578381D02*
X126579524Y-119102190D01*
X126341429Y-119578381D02*
X126341429Y-118578381D01*
X126722382Y-118578381D01*
X126817620Y-118626000D01*
X126865239Y-118673619D01*
X126912858Y-118768857D01*
X126912858Y-118911714D01*
X126865239Y-119006952D01*
X126817620Y-119054571D01*
X126722382Y-119102190D01*
X126341429Y-119102190D01*
X127341429Y-119578381D02*
X127341429Y-118578381D01*
X127674763Y-119292667D01*
X128008096Y-118578381D01*
X128008096Y-119578381D01*
X129817620Y-119483143D02*
X129770001Y-119530762D01*
X129627144Y-119578381D01*
X129531906Y-119578381D01*
X129389048Y-119530762D01*
X129293810Y-119435524D01*
X129246191Y-119340286D01*
X129198572Y-119149810D01*
X129198572Y-119006952D01*
X129246191Y-118816476D01*
X129293810Y-118721238D01*
X129389048Y-118626000D01*
X129531906Y-118578381D01*
X129627144Y-118578381D01*
X129770001Y-118626000D01*
X129817620Y-118673619D01*
X130436667Y-118578381D02*
X130627144Y-118578381D01*
X130722382Y-118626000D01*
X130817620Y-118721238D01*
X130865239Y-118911714D01*
X130865239Y-119245048D01*
X130817620Y-119435524D01*
X130722382Y-119530762D01*
X130627144Y-119578381D01*
X130436667Y-119578381D01*
X130341429Y-119530762D01*
X130246191Y-119435524D01*
X130198572Y-119245048D01*
X130198572Y-118911714D01*
X130246191Y-118721238D01*
X130341429Y-118626000D01*
X130436667Y-118578381D01*
X131293810Y-119578381D02*
X131293810Y-118578381D01*
X131865239Y-119578381D01*
X131865239Y-118578381D01*
X132341429Y-119578381D02*
X132341429Y-118578381D01*
X132912858Y-119578381D01*
X132912858Y-118578381D01*
X131571904Y-95496000D02*
X131667142Y-95543619D01*
X131809999Y-95543619D01*
X131952857Y-95496000D01*
X132048095Y-95400762D01*
X132095714Y-95305524D01*
X132143333Y-95115048D01*
X132143333Y-94972190D01*
X132095714Y-94781714D01*
X132048095Y-94686476D01*
X131952857Y-94591238D01*
X131809999Y-94543619D01*
X131714761Y-94543619D01*
X131571904Y-94591238D01*
X131524285Y-94638857D01*
X131524285Y-94972190D01*
X131714761Y-94972190D01*
X131095714Y-94543619D02*
X131095714Y-95543619D01*
X130524285Y-94543619D01*
X130524285Y-95543619D01*
X130048095Y-94543619D02*
X130048095Y-95543619D01*
X129810000Y-95543619D01*
X129667142Y-95496000D01*
X129571904Y-95400762D01*
X129524285Y-95305524D01*
X129476666Y-95115048D01*
X129476666Y-94972190D01*
X129524285Y-94781714D01*
X129571904Y-94686476D01*
X129667142Y-94591238D01*
X129810000Y-94543619D01*
X130048095Y-94543619D01*
X128333333Y-94543619D02*
X128333333Y-95543619D01*
X127952380Y-95543619D01*
X127857142Y-95496000D01*
X127809523Y-95448381D01*
X127761904Y-95353143D01*
X127761904Y-95210286D01*
X127809523Y-95115048D01*
X127857142Y-95067429D01*
X127952380Y-95019810D01*
X128333333Y-95019810D01*
X127428571Y-95543619D02*
X127190476Y-94543619D01*
X126999999Y-95257905D01*
X126809523Y-94543619D01*
X126571428Y-95543619D01*
X125619047Y-94543619D02*
X125952381Y-95019810D01*
X126190476Y-94543619D02*
X126190476Y-95543619D01*
X125809523Y-95543619D01*
X125714285Y-95496000D01*
X125666666Y-95448381D01*
X125619047Y-95353143D01*
X125619047Y-95210286D01*
X125666666Y-95115048D01*
X125714285Y-95067429D01*
X125809523Y-95019810D01*
X126190476Y-95019810D01*
X113665000Y-129540000D02*
X206375000Y-129540000D01*
X113665000Y-93980000D02*
X206375000Y-93980000D01*
X113665000Y-93980000D02*
X113665000Y-129540000D01*
X206375000Y-93980000D02*
X206375000Y-129540000D01*
D13*
X141320000Y-100330000D02*
G75*
G03X141320000Y-100330000I-2870000J0D01*
G01*
X141522262Y-101945000D02*
X140972262Y-101945000D01*
X141247262Y-102220000D02*
X141247262Y-101670000D01*
X161600000Y-100330000D02*
G75*
G03X161600000Y-100330000I-2870000J0D01*
G01*
X155657738Y-98715000D02*
X156207738Y-98715000D01*
X155932738Y-98440000D02*
X155932738Y-98990000D01*
X127749647Y-102579845D02*
G75*
G03X126250000Y-102580000I-749647J-1700155D01*
G01*
X131249647Y-102579845D02*
G75*
G03X129750000Y-102580000I-749647J-1700155D01*
G01*
X124470000Y-96000000D02*
X124470000Y-103410000D01*
X124470000Y-103410000D02*
X133030000Y-103410000D01*
X133030000Y-103410000D02*
X133030000Y-96000000D01*
X133030000Y-96000000D02*
X124470000Y-96000000D01*
X126250000Y-102580000D02*
X125500000Y-102580000D01*
X125500000Y-102580000D02*
X125500000Y-98280000D01*
X125500000Y-98280000D02*
X126250000Y-98280000D01*
X126250000Y-98280000D02*
X126250000Y-97930000D01*
X126250000Y-97930000D02*
X125750000Y-97930000D01*
X125750000Y-97930000D02*
X125500000Y-96930000D01*
X125500000Y-96930000D02*
X128500000Y-96930000D01*
X128500000Y-96930000D02*
X128250000Y-97930000D01*
X128250000Y-97930000D02*
X127750000Y-97930000D01*
X127750000Y-97930000D02*
X127750000Y-98280000D01*
X127750000Y-98280000D02*
X128500000Y-98280000D01*
X128500000Y-98280000D02*
X128500000Y-102580000D01*
X128500000Y-102580000D02*
X127750000Y-102580000D01*
X129750000Y-102580000D02*
X129000000Y-102580000D01*
X129000000Y-102580000D02*
X129000000Y-98280000D01*
X129000000Y-98280000D02*
X129750000Y-98280000D01*
X129750000Y-98280000D02*
X129750000Y-97930000D01*
X129750000Y-97930000D02*
X129250000Y-97930000D01*
X129250000Y-97930000D02*
X129000000Y-96930000D01*
X129000000Y-96930000D02*
X132000000Y-96930000D01*
X132000000Y-96930000D02*
X131750000Y-97930000D01*
X131750000Y-97930000D02*
X131250000Y-97930000D01*
X131250000Y-97930000D02*
X131250000Y-98280000D01*
X131250000Y-98280000D02*
X132000000Y-98280000D01*
X132000000Y-98280000D02*
X132000000Y-102580000D01*
X132000000Y-102580000D02*
X131250000Y-102580000D01*
X124050000Y-96830000D02*
X124050000Y-95580000D01*
X124050000Y-95580000D02*
X126050000Y-95580000D01*
X169659647Y-102579845D02*
G75*
G03X168160000Y-102580000I-749647J-1700155D01*
G01*
X173159647Y-102579845D02*
G75*
G03X171660000Y-102580000I-749647J-1700155D01*
G01*
X176659647Y-102579845D02*
G75*
G03X175160000Y-102580000I-749647J-1700155D01*
G01*
X180159647Y-102579845D02*
G75*
G03X178660000Y-102580000I-749647J-1700155D01*
G01*
X183659647Y-102579845D02*
G75*
G03X182160000Y-102580000I-749647J-1700155D01*
G01*
X187159647Y-102579845D02*
G75*
G03X185660000Y-102580000I-749647J-1700155D01*
G01*
X190659647Y-102579845D02*
G75*
G03X189160000Y-102580000I-749647J-1700155D01*
G01*
X194159647Y-102579845D02*
G75*
G03X192660000Y-102580000I-749647J-1700155D01*
G01*
X166380000Y-96000000D02*
X166380000Y-103410000D01*
X166380000Y-103410000D02*
X195940000Y-103410000D01*
X195940000Y-103410000D02*
X195940000Y-96000000D01*
X195940000Y-96000000D02*
X166380000Y-96000000D01*
X168160000Y-102580000D02*
X167410000Y-102580000D01*
X167410000Y-102580000D02*
X167410000Y-98280000D01*
X167410000Y-98280000D02*
X168160000Y-98280000D01*
X168160000Y-98280000D02*
X168160000Y-97930000D01*
X168160000Y-97930000D02*
X167660000Y-97930000D01*
X167660000Y-97930000D02*
X167410000Y-96930000D01*
X167410000Y-96930000D02*
X170410000Y-96930000D01*
X170410000Y-96930000D02*
X170160000Y-97930000D01*
X170160000Y-97930000D02*
X169660000Y-97930000D01*
X169660000Y-97930000D02*
X169660000Y-98280000D01*
X169660000Y-98280000D02*
X170410000Y-98280000D01*
X170410000Y-98280000D02*
X170410000Y-102580000D01*
X170410000Y-102580000D02*
X169660000Y-102580000D01*
X171660000Y-102580000D02*
X170910000Y-102580000D01*
X170910000Y-102580000D02*
X170910000Y-98280000D01*
X170910000Y-98280000D02*
X171660000Y-98280000D01*
X171660000Y-98280000D02*
X171660000Y-97930000D01*
X171660000Y-97930000D02*
X171160000Y-97930000D01*
X171160000Y-97930000D02*
X170910000Y-96930000D01*
X170910000Y-96930000D02*
X173910000Y-96930000D01*
X173910000Y-96930000D02*
X173660000Y-97930000D01*
X173660000Y-97930000D02*
X173160000Y-97930000D01*
X173160000Y-97930000D02*
X173160000Y-98280000D01*
X173160000Y-98280000D02*
X173910000Y-98280000D01*
X173910000Y-98280000D02*
X173910000Y-102580000D01*
X173910000Y-102580000D02*
X173160000Y-102580000D01*
X175160000Y-102580000D02*
X174410000Y-102580000D01*
X174410000Y-102580000D02*
X174410000Y-98280000D01*
X174410000Y-98280000D02*
X175160000Y-98280000D01*
X175160000Y-98280000D02*
X175160000Y-97930000D01*
X175160000Y-97930000D02*
X174660000Y-97930000D01*
X174660000Y-97930000D02*
X174410000Y-96930000D01*
X174410000Y-96930000D02*
X177410000Y-96930000D01*
X177410000Y-96930000D02*
X177160000Y-97930000D01*
X177160000Y-97930000D02*
X176660000Y-97930000D01*
X176660000Y-97930000D02*
X176660000Y-98280000D01*
X176660000Y-98280000D02*
X177410000Y-98280000D01*
X177410000Y-98280000D02*
X177410000Y-102580000D01*
X177410000Y-102580000D02*
X176660000Y-102580000D01*
X178660000Y-102580000D02*
X177910000Y-102580000D01*
X177910000Y-102580000D02*
X177910000Y-98280000D01*
X177910000Y-98280000D02*
X178660000Y-98280000D01*
X178660000Y-98280000D02*
X178660000Y-97930000D01*
X178660000Y-97930000D02*
X178160000Y-97930000D01*
X178160000Y-97930000D02*
X177910000Y-96930000D01*
X177910000Y-96930000D02*
X180910000Y-96930000D01*
X180910000Y-96930000D02*
X180660000Y-97930000D01*
X180660000Y-97930000D02*
X180160000Y-97930000D01*
X180160000Y-97930000D02*
X180160000Y-98280000D01*
X180160000Y-98280000D02*
X180910000Y-98280000D01*
X180910000Y-98280000D02*
X180910000Y-102580000D01*
X180910000Y-102580000D02*
X180160000Y-102580000D01*
X182160000Y-102580000D02*
X181410000Y-102580000D01*
X181410000Y-102580000D02*
X181410000Y-98280000D01*
X181410000Y-98280000D02*
X182160000Y-98280000D01*
X182160000Y-98280000D02*
X182160000Y-97930000D01*
X182160000Y-97930000D02*
X181660000Y-97930000D01*
X181660000Y-97930000D02*
X181410000Y-96930000D01*
X181410000Y-96930000D02*
X184410000Y-96930000D01*
X184410000Y-96930000D02*
X184160000Y-97930000D01*
X184160000Y-97930000D02*
X183660000Y-97930000D01*
X183660000Y-97930000D02*
X183660000Y-98280000D01*
X183660000Y-98280000D02*
X184410000Y-98280000D01*
X184410000Y-98280000D02*
X184410000Y-102580000D01*
X184410000Y-102580000D02*
X183660000Y-102580000D01*
X185660000Y-102580000D02*
X184910000Y-102580000D01*
X184910000Y-102580000D02*
X184910000Y-98280000D01*
X184910000Y-98280000D02*
X185660000Y-98280000D01*
X185660000Y-98280000D02*
X185660000Y-97930000D01*
X185660000Y-97930000D02*
X185160000Y-97930000D01*
X185160000Y-97930000D02*
X184910000Y-96930000D01*
X184910000Y-96930000D02*
X187910000Y-96930000D01*
X187910000Y-96930000D02*
X187660000Y-97930000D01*
X187660000Y-97930000D02*
X187160000Y-97930000D01*
X187160000Y-97930000D02*
X187160000Y-98280000D01*
X187160000Y-98280000D02*
X187910000Y-98280000D01*
X187910000Y-98280000D02*
X187910000Y-102580000D01*
X187910000Y-102580000D02*
X187160000Y-102580000D01*
X189160000Y-102580000D02*
X188410000Y-102580000D01*
X188410000Y-102580000D02*
X188410000Y-98280000D01*
X188410000Y-98280000D02*
X189160000Y-98280000D01*
X189160000Y-98280000D02*
X189160000Y-97930000D01*
X189160000Y-97930000D02*
X188660000Y-97930000D01*
X188660000Y-97930000D02*
X188410000Y-96930000D01*
X188410000Y-96930000D02*
X191410000Y-96930000D01*
X191410000Y-96930000D02*
X191160000Y-97930000D01*
X191160000Y-97930000D02*
X190660000Y-97930000D01*
X190660000Y-97930000D02*
X190660000Y-98280000D01*
X190660000Y-98280000D02*
X191410000Y-98280000D01*
X191410000Y-98280000D02*
X191410000Y-102580000D01*
X191410000Y-102580000D02*
X190660000Y-102580000D01*
X192660000Y-102580000D02*
X191910000Y-102580000D01*
X191910000Y-102580000D02*
X191910000Y-98280000D01*
X191910000Y-98280000D02*
X192660000Y-98280000D01*
X192660000Y-98280000D02*
X192660000Y-97930000D01*
X192660000Y-97930000D02*
X192160000Y-97930000D01*
X192160000Y-97930000D02*
X191910000Y-96930000D01*
X191910000Y-96930000D02*
X194910000Y-96930000D01*
X194910000Y-96930000D02*
X194660000Y-97930000D01*
X194660000Y-97930000D02*
X194160000Y-97930000D01*
X194160000Y-97930000D02*
X194160000Y-98280000D01*
X194160000Y-98280000D02*
X194910000Y-98280000D01*
X194910000Y-98280000D02*
X194910000Y-102580000D01*
X194910000Y-102580000D02*
X194160000Y-102580000D01*
X165960000Y-96830000D02*
X165960000Y-95580000D01*
X165960000Y-95580000D02*
X167960000Y-95580000D01*
X128790353Y-120940155D02*
G75*
G03X130290000Y-120940000I749647J1700155D01*
G01*
X125290353Y-120940155D02*
G75*
G03X126790000Y-120940000I749647J1700155D01*
G01*
X132070000Y-127520000D02*
X132070000Y-120110000D01*
X132070000Y-120110000D02*
X123510000Y-120110000D01*
X123510000Y-120110000D02*
X123510000Y-127520000D01*
X123510000Y-127520000D02*
X132070000Y-127520000D01*
X130290000Y-120940000D02*
X131040000Y-120940000D01*
X131040000Y-120940000D02*
X131040000Y-125240000D01*
X131040000Y-125240000D02*
X130290000Y-125240000D01*
X130290000Y-125240000D02*
X130290000Y-125590000D01*
X130290000Y-125590000D02*
X130790000Y-125590000D01*
X130790000Y-125590000D02*
X131040000Y-126590000D01*
X131040000Y-126590000D02*
X128040000Y-126590000D01*
X128040000Y-126590000D02*
X128290000Y-125590000D01*
X128290000Y-125590000D02*
X128790000Y-125590000D01*
X128790000Y-125590000D02*
X128790000Y-125240000D01*
X128790000Y-125240000D02*
X128040000Y-125240000D01*
X128040000Y-125240000D02*
X128040000Y-120940000D01*
X128040000Y-120940000D02*
X128790000Y-120940000D01*
X126790000Y-120940000D02*
X127540000Y-120940000D01*
X127540000Y-120940000D02*
X127540000Y-125240000D01*
X127540000Y-125240000D02*
X126790000Y-125240000D01*
X126790000Y-125240000D02*
X126790000Y-125590000D01*
X126790000Y-125590000D02*
X127290000Y-125590000D01*
X127290000Y-125590000D02*
X127540000Y-126590000D01*
X127540000Y-126590000D02*
X124540000Y-126590000D01*
X124540000Y-126590000D02*
X124790000Y-125590000D01*
X124790000Y-125590000D02*
X125290000Y-125590000D01*
X125290000Y-125590000D02*
X125290000Y-125240000D01*
X125290000Y-125240000D02*
X124540000Y-125240000D01*
X124540000Y-125240000D02*
X124540000Y-120940000D01*
X124540000Y-120940000D02*
X125290000Y-120940000D01*
X132490000Y-126690000D02*
X132490000Y-127940000D01*
X132490000Y-127940000D02*
X130490000Y-127940000D01*
X155460353Y-120940155D02*
G75*
G03X156960000Y-120940000I749647J1700155D01*
G01*
X151960353Y-120940155D02*
G75*
G03X153460000Y-120940000I749647J1700155D01*
G01*
X158740000Y-127520000D02*
X158740000Y-120110000D01*
X158740000Y-120110000D02*
X150180000Y-120110000D01*
X150180000Y-120110000D02*
X150180000Y-127520000D01*
X150180000Y-127520000D02*
X158740000Y-127520000D01*
X156960000Y-120940000D02*
X157710000Y-120940000D01*
X157710000Y-120940000D02*
X157710000Y-125240000D01*
X157710000Y-125240000D02*
X156960000Y-125240000D01*
X156960000Y-125240000D02*
X156960000Y-125590000D01*
X156960000Y-125590000D02*
X157460000Y-125590000D01*
X157460000Y-125590000D02*
X157710000Y-126590000D01*
X157710000Y-126590000D02*
X154710000Y-126590000D01*
X154710000Y-126590000D02*
X154960000Y-125590000D01*
X154960000Y-125590000D02*
X155460000Y-125590000D01*
X155460000Y-125590000D02*
X155460000Y-125240000D01*
X155460000Y-125240000D02*
X154710000Y-125240000D01*
X154710000Y-125240000D02*
X154710000Y-120940000D01*
X154710000Y-120940000D02*
X155460000Y-120940000D01*
X153460000Y-120940000D02*
X154210000Y-120940000D01*
X154210000Y-120940000D02*
X154210000Y-125240000D01*
X154210000Y-125240000D02*
X153460000Y-125240000D01*
X153460000Y-125240000D02*
X153460000Y-125590000D01*
X153460000Y-125590000D02*
X153960000Y-125590000D01*
X153960000Y-125590000D02*
X154210000Y-126590000D01*
X154210000Y-126590000D02*
X151210000Y-126590000D01*
X151210000Y-126590000D02*
X151460000Y-125590000D01*
X151460000Y-125590000D02*
X151960000Y-125590000D01*
X151960000Y-125590000D02*
X151960000Y-125240000D01*
X151960000Y-125240000D02*
X151210000Y-125240000D01*
X151210000Y-125240000D02*
X151210000Y-120940000D01*
X151210000Y-120940000D02*
X151960000Y-120940000D01*
X159160000Y-126690000D02*
X159160000Y-127940000D01*
X159160000Y-127940000D02*
X157160000Y-127940000D01*
X137680353Y-120940155D02*
G75*
G03X139180000Y-120940000I749647J1700155D01*
G01*
X134180353Y-120940155D02*
G75*
G03X135680000Y-120940000I749647J1700155D01*
G01*
X140960000Y-127520000D02*
X140960000Y-120110000D01*
X140960000Y-120110000D02*
X132400000Y-120110000D01*
X132400000Y-120110000D02*
X132400000Y-127520000D01*
X132400000Y-127520000D02*
X140960000Y-127520000D01*
X139180000Y-120940000D02*
X139930000Y-120940000D01*
X139930000Y-120940000D02*
X139930000Y-125240000D01*
X139930000Y-125240000D02*
X139180000Y-125240000D01*
X139180000Y-125240000D02*
X139180000Y-125590000D01*
X139180000Y-125590000D02*
X139680000Y-125590000D01*
X139680000Y-125590000D02*
X139930000Y-126590000D01*
X139930000Y-126590000D02*
X136930000Y-126590000D01*
X136930000Y-126590000D02*
X137180000Y-125590000D01*
X137180000Y-125590000D02*
X137680000Y-125590000D01*
X137680000Y-125590000D02*
X137680000Y-125240000D01*
X137680000Y-125240000D02*
X136930000Y-125240000D01*
X136930000Y-125240000D02*
X136930000Y-120940000D01*
X136930000Y-120940000D02*
X137680000Y-120940000D01*
X135680000Y-120940000D02*
X136430000Y-120940000D01*
X136430000Y-120940000D02*
X136430000Y-125240000D01*
X136430000Y-125240000D02*
X135680000Y-125240000D01*
X135680000Y-125240000D02*
X135680000Y-125590000D01*
X135680000Y-125590000D02*
X136180000Y-125590000D01*
X136180000Y-125590000D02*
X136430000Y-126590000D01*
X136430000Y-126590000D02*
X133430000Y-126590000D01*
X133430000Y-126590000D02*
X133680000Y-125590000D01*
X133680000Y-125590000D02*
X134180000Y-125590000D01*
X134180000Y-125590000D02*
X134180000Y-125240000D01*
X134180000Y-125240000D02*
X133430000Y-125240000D01*
X133430000Y-125240000D02*
X133430000Y-120940000D01*
X133430000Y-120940000D02*
X134180000Y-120940000D01*
X141380000Y-126690000D02*
X141380000Y-127940000D01*
X141380000Y-127940000D02*
X139380000Y-127940000D01*
X164350353Y-120940155D02*
G75*
G03X165850000Y-120940000I749647J1700155D01*
G01*
X160850353Y-120940155D02*
G75*
G03X162350000Y-120940000I749647J1700155D01*
G01*
X167630000Y-127520000D02*
X167630000Y-120110000D01*
X167630000Y-120110000D02*
X159070000Y-120110000D01*
X159070000Y-120110000D02*
X159070000Y-127520000D01*
X159070000Y-127520000D02*
X167630000Y-127520000D01*
X165850000Y-120940000D02*
X166600000Y-120940000D01*
X166600000Y-120940000D02*
X166600000Y-125240000D01*
X166600000Y-125240000D02*
X165850000Y-125240000D01*
X165850000Y-125240000D02*
X165850000Y-125590000D01*
X165850000Y-125590000D02*
X166350000Y-125590000D01*
X166350000Y-125590000D02*
X166600000Y-126590000D01*
X166600000Y-126590000D02*
X163600000Y-126590000D01*
X163600000Y-126590000D02*
X163850000Y-125590000D01*
X163850000Y-125590000D02*
X164350000Y-125590000D01*
X164350000Y-125590000D02*
X164350000Y-125240000D01*
X164350000Y-125240000D02*
X163600000Y-125240000D01*
X163600000Y-125240000D02*
X163600000Y-120940000D01*
X163600000Y-120940000D02*
X164350000Y-120940000D01*
X162350000Y-120940000D02*
X163100000Y-120940000D01*
X163100000Y-120940000D02*
X163100000Y-125240000D01*
X163100000Y-125240000D02*
X162350000Y-125240000D01*
X162350000Y-125240000D02*
X162350000Y-125590000D01*
X162350000Y-125590000D02*
X162850000Y-125590000D01*
X162850000Y-125590000D02*
X163100000Y-126590000D01*
X163100000Y-126590000D02*
X160100000Y-126590000D01*
X160100000Y-126590000D02*
X160350000Y-125590000D01*
X160350000Y-125590000D02*
X160850000Y-125590000D01*
X160850000Y-125590000D02*
X160850000Y-125240000D01*
X160850000Y-125240000D02*
X160100000Y-125240000D01*
X160100000Y-125240000D02*
X160100000Y-120940000D01*
X160100000Y-120940000D02*
X160850000Y-120940000D01*
X168050000Y-126690000D02*
X168050000Y-127940000D01*
X168050000Y-127940000D02*
X166050000Y-127940000D01*
X182130353Y-120940155D02*
G75*
G03X183630000Y-120940000I749647J1700155D01*
G01*
X178630353Y-120940155D02*
G75*
G03X180130000Y-120940000I749647J1700155D01*
G01*
X185410000Y-127520000D02*
X185410000Y-120110000D01*
X185410000Y-120110000D02*
X176850000Y-120110000D01*
X176850000Y-120110000D02*
X176850000Y-127520000D01*
X176850000Y-127520000D02*
X185410000Y-127520000D01*
X183630000Y-120940000D02*
X184380000Y-120940000D01*
X184380000Y-120940000D02*
X184380000Y-125240000D01*
X184380000Y-125240000D02*
X183630000Y-125240000D01*
X183630000Y-125240000D02*
X183630000Y-125590000D01*
X183630000Y-125590000D02*
X184130000Y-125590000D01*
X184130000Y-125590000D02*
X184380000Y-126590000D01*
X184380000Y-126590000D02*
X181380000Y-126590000D01*
X181380000Y-126590000D02*
X181630000Y-125590000D01*
X181630000Y-125590000D02*
X182130000Y-125590000D01*
X182130000Y-125590000D02*
X182130000Y-125240000D01*
X182130000Y-125240000D02*
X181380000Y-125240000D01*
X181380000Y-125240000D02*
X181380000Y-120940000D01*
X181380000Y-120940000D02*
X182130000Y-120940000D01*
X180130000Y-120940000D02*
X180880000Y-120940000D01*
X180880000Y-120940000D02*
X180880000Y-125240000D01*
X180880000Y-125240000D02*
X180130000Y-125240000D01*
X180130000Y-125240000D02*
X180130000Y-125590000D01*
X180130000Y-125590000D02*
X180630000Y-125590000D01*
X180630000Y-125590000D02*
X180880000Y-126590000D01*
X180880000Y-126590000D02*
X177880000Y-126590000D01*
X177880000Y-126590000D02*
X178130000Y-125590000D01*
X178130000Y-125590000D02*
X178630000Y-125590000D01*
X178630000Y-125590000D02*
X178630000Y-125240000D01*
X178630000Y-125240000D02*
X177880000Y-125240000D01*
X177880000Y-125240000D02*
X177880000Y-120940000D01*
X177880000Y-120940000D02*
X178630000Y-120940000D01*
X185830000Y-126690000D02*
X185830000Y-127940000D01*
X185830000Y-127940000D02*
X183830000Y-127940000D01*
X191020353Y-120940155D02*
G75*
G03X192520000Y-120940000I749647J1700155D01*
G01*
X187520353Y-120940155D02*
G75*
G03X189020000Y-120940000I749647J1700155D01*
G01*
X194300000Y-127520000D02*
X194300000Y-120110000D01*
X194300000Y-120110000D02*
X185740000Y-120110000D01*
X185740000Y-120110000D02*
X185740000Y-127520000D01*
X185740000Y-127520000D02*
X194300000Y-127520000D01*
X192520000Y-120940000D02*
X193270000Y-120940000D01*
X193270000Y-120940000D02*
X193270000Y-125240000D01*
X193270000Y-125240000D02*
X192520000Y-125240000D01*
X192520000Y-125240000D02*
X192520000Y-125590000D01*
X192520000Y-125590000D02*
X193020000Y-125590000D01*
X193020000Y-125590000D02*
X193270000Y-126590000D01*
X193270000Y-126590000D02*
X190270000Y-126590000D01*
X190270000Y-126590000D02*
X190520000Y-125590000D01*
X190520000Y-125590000D02*
X191020000Y-125590000D01*
X191020000Y-125590000D02*
X191020000Y-125240000D01*
X191020000Y-125240000D02*
X190270000Y-125240000D01*
X190270000Y-125240000D02*
X190270000Y-120940000D01*
X190270000Y-120940000D02*
X191020000Y-120940000D01*
X189020000Y-120940000D02*
X189770000Y-120940000D01*
X189770000Y-120940000D02*
X189770000Y-125240000D01*
X189770000Y-125240000D02*
X189020000Y-125240000D01*
X189020000Y-125240000D02*
X189020000Y-125590000D01*
X189020000Y-125590000D02*
X189520000Y-125590000D01*
X189520000Y-125590000D02*
X189770000Y-126590000D01*
X189770000Y-126590000D02*
X186770000Y-126590000D01*
X186770000Y-126590000D02*
X187020000Y-125590000D01*
X187020000Y-125590000D02*
X187520000Y-125590000D01*
X187520000Y-125590000D02*
X187520000Y-125240000D01*
X187520000Y-125240000D02*
X186770000Y-125240000D01*
X186770000Y-125240000D02*
X186770000Y-120940000D01*
X186770000Y-120940000D02*
X187520000Y-120940000D01*
X194720000Y-126690000D02*
X194720000Y-127940000D01*
X194720000Y-127940000D02*
X192720000Y-127940000D01*
X146570353Y-120940155D02*
G75*
G03X148070000Y-120940000I749647J1700155D01*
G01*
X143070353Y-120940155D02*
G75*
G03X144570000Y-120940000I749647J1700155D01*
G01*
X149850000Y-127520000D02*
X149850000Y-120110000D01*
X149850000Y-120110000D02*
X141290000Y-120110000D01*
X141290000Y-120110000D02*
X141290000Y-127520000D01*
X141290000Y-127520000D02*
X149850000Y-127520000D01*
X148070000Y-120940000D02*
X148820000Y-120940000D01*
X148820000Y-120940000D02*
X148820000Y-125240000D01*
X148820000Y-125240000D02*
X148070000Y-125240000D01*
X148070000Y-125240000D02*
X148070000Y-125590000D01*
X148070000Y-125590000D02*
X148570000Y-125590000D01*
X148570000Y-125590000D02*
X148820000Y-126590000D01*
X148820000Y-126590000D02*
X145820000Y-126590000D01*
X145820000Y-126590000D02*
X146070000Y-125590000D01*
X146070000Y-125590000D02*
X146570000Y-125590000D01*
X146570000Y-125590000D02*
X146570000Y-125240000D01*
X146570000Y-125240000D02*
X145820000Y-125240000D01*
X145820000Y-125240000D02*
X145820000Y-120940000D01*
X145820000Y-120940000D02*
X146570000Y-120940000D01*
X144570000Y-120940000D02*
X145320000Y-120940000D01*
X145320000Y-120940000D02*
X145320000Y-125240000D01*
X145320000Y-125240000D02*
X144570000Y-125240000D01*
X144570000Y-125240000D02*
X144570000Y-125590000D01*
X144570000Y-125590000D02*
X145070000Y-125590000D01*
X145070000Y-125590000D02*
X145320000Y-126590000D01*
X145320000Y-126590000D02*
X142320000Y-126590000D01*
X142320000Y-126590000D02*
X142570000Y-125590000D01*
X142570000Y-125590000D02*
X143070000Y-125590000D01*
X143070000Y-125590000D02*
X143070000Y-125240000D01*
X143070000Y-125240000D02*
X142320000Y-125240000D01*
X142320000Y-125240000D02*
X142320000Y-120940000D01*
X142320000Y-120940000D02*
X143070000Y-120940000D01*
X150270000Y-126690000D02*
X150270000Y-127940000D01*
X150270000Y-127940000D02*
X148270000Y-127940000D01*
X173240353Y-120940155D02*
G75*
G03X174740000Y-120940000I749647J1700155D01*
G01*
X169740353Y-120940155D02*
G75*
G03X171240000Y-120940000I749647J1700155D01*
G01*
X176520000Y-127520000D02*
X176520000Y-120110000D01*
X176520000Y-120110000D02*
X167960000Y-120110000D01*
X167960000Y-120110000D02*
X167960000Y-127520000D01*
X167960000Y-127520000D02*
X176520000Y-127520000D01*
X174740000Y-120940000D02*
X175490000Y-120940000D01*
X175490000Y-120940000D02*
X175490000Y-125240000D01*
X175490000Y-125240000D02*
X174740000Y-125240000D01*
X174740000Y-125240000D02*
X174740000Y-125590000D01*
X174740000Y-125590000D02*
X175240000Y-125590000D01*
X175240000Y-125590000D02*
X175490000Y-126590000D01*
X175490000Y-126590000D02*
X172490000Y-126590000D01*
X172490000Y-126590000D02*
X172740000Y-125590000D01*
X172740000Y-125590000D02*
X173240000Y-125590000D01*
X173240000Y-125590000D02*
X173240000Y-125240000D01*
X173240000Y-125240000D02*
X172490000Y-125240000D01*
X172490000Y-125240000D02*
X172490000Y-120940000D01*
X172490000Y-120940000D02*
X173240000Y-120940000D01*
X171240000Y-120940000D02*
X171990000Y-120940000D01*
X171990000Y-120940000D02*
X171990000Y-125240000D01*
X171990000Y-125240000D02*
X171240000Y-125240000D01*
X171240000Y-125240000D02*
X171240000Y-125590000D01*
X171240000Y-125590000D02*
X171740000Y-125590000D01*
X171740000Y-125590000D02*
X171990000Y-126590000D01*
X171990000Y-126590000D02*
X168990000Y-126590000D01*
X168990000Y-126590000D02*
X169240000Y-125590000D01*
X169240000Y-125590000D02*
X169740000Y-125590000D01*
X169740000Y-125590000D02*
X169740000Y-125240000D01*
X169740000Y-125240000D02*
X168990000Y-125240000D01*
X168990000Y-125240000D02*
X168990000Y-120940000D01*
X168990000Y-120940000D02*
X169740000Y-120940000D01*
X176940000Y-126690000D02*
X176940000Y-127940000D01*
X176940000Y-127940000D02*
X174940000Y-127940000D01*
D12*
X153670000Y-97790000D02*
X153670000Y-102870000D01*
X153670000Y-102870000D02*
X153670000Y-97790000D01*
X153670000Y-97790000D02*
X143510000Y-97790000D01*
X143510000Y-102870000D02*
X153670000Y-102870000D01*
X143510000Y-97790000D02*
X143510000Y-102870000D01*
D13*
X127040000Y-108550000D02*
X124420000Y-108550000D01*
X124420000Y-108550000D02*
X124420000Y-114970000D01*
X124420000Y-114970000D02*
X127040000Y-114970000D01*
X127040000Y-114970000D02*
X127040000Y-108550000D01*
X125730000Y-107660000D02*
X125730000Y-108550000D01*
X125730000Y-115860000D02*
X125730000Y-114970000D01*
X153710000Y-108550000D02*
X151090000Y-108550000D01*
X151090000Y-108550000D02*
X151090000Y-114970000D01*
X151090000Y-114970000D02*
X153710000Y-114970000D01*
X153710000Y-114970000D02*
X153710000Y-108550000D01*
X152400000Y-107660000D02*
X152400000Y-108550000D01*
X152400000Y-115860000D02*
X152400000Y-114970000D01*
X135930000Y-108550000D02*
X133310000Y-108550000D01*
X133310000Y-108550000D02*
X133310000Y-114970000D01*
X133310000Y-114970000D02*
X135930000Y-114970000D01*
X135930000Y-114970000D02*
X135930000Y-108550000D01*
X134620000Y-107660000D02*
X134620000Y-108550000D01*
X134620000Y-115860000D02*
X134620000Y-114970000D01*
X162600000Y-108550000D02*
X159980000Y-108550000D01*
X159980000Y-108550000D02*
X159980000Y-114970000D01*
X159980000Y-114970000D02*
X162600000Y-114970000D01*
X162600000Y-114970000D02*
X162600000Y-108550000D01*
X161290000Y-107660000D02*
X161290000Y-108550000D01*
X161290000Y-115860000D02*
X161290000Y-114970000D01*
X180380000Y-108550000D02*
X177760000Y-108550000D01*
X177760000Y-108550000D02*
X177760000Y-114970000D01*
X177760000Y-114970000D02*
X180380000Y-114970000D01*
X180380000Y-114970000D02*
X180380000Y-108550000D01*
X179070000Y-107660000D02*
X179070000Y-108550000D01*
X179070000Y-115860000D02*
X179070000Y-114970000D01*
X189270000Y-108550000D02*
X186650000Y-108550000D01*
X186650000Y-108550000D02*
X186650000Y-114970000D01*
X186650000Y-114970000D02*
X189270000Y-114970000D01*
X189270000Y-114970000D02*
X189270000Y-108550000D01*
X187960000Y-107660000D02*
X187960000Y-108550000D01*
X187960000Y-115860000D02*
X187960000Y-114970000D01*
X144820000Y-108550000D02*
X142200000Y-108550000D01*
X142200000Y-108550000D02*
X142200000Y-114970000D01*
X142200000Y-114970000D02*
X144820000Y-114970000D01*
X144820000Y-114970000D02*
X144820000Y-108550000D01*
X143510000Y-107660000D02*
X143510000Y-108550000D01*
X143510000Y-115860000D02*
X143510000Y-114970000D01*
X171490000Y-108550000D02*
X168870000Y-108550000D01*
X168870000Y-108550000D02*
X168870000Y-114970000D01*
X168870000Y-114970000D02*
X171490000Y-114970000D01*
X171490000Y-114970000D02*
X171490000Y-108550000D01*
X170180000Y-107660000D02*
X170180000Y-108550000D01*
X170180000Y-115860000D02*
X170180000Y-114970000D01*
D14*
G36*
X193218089Y-109690742D02*
X193262200Y-109698567D01*
X193331365Y-109711411D01*
X193422540Y-109728692D01*
X193532679Y-109749829D01*
X193658739Y-109774242D01*
X193797675Y-109801348D01*
X193946443Y-109830568D01*
X193948995Y-109831071D01*
X194132825Y-109867548D01*
X194287489Y-109898820D01*
X194415059Y-109925358D01*
X194517605Y-109947634D01*
X194597201Y-109966119D01*
X194655919Y-109981283D01*
X194695829Y-109993598D01*
X194719005Y-110003536D01*
X194724638Y-110007458D01*
X194753089Y-110038078D01*
X194796780Y-110091525D01*
X194853175Y-110164321D01*
X194919734Y-110252986D01*
X194993922Y-110354043D01*
X195073200Y-110464011D01*
X195155030Y-110579414D01*
X195236875Y-110696771D01*
X195316196Y-110812605D01*
X195366060Y-110886720D01*
X195601641Y-111249668D01*
X195832451Y-111624801D01*
X196055867Y-112007259D01*
X196269264Y-112392183D01*
X196470021Y-112774713D01*
X196655514Y-113149989D01*
X196823119Y-113513151D01*
X196968658Y-113855500D01*
X197005350Y-113949061D01*
X197045234Y-114055841D01*
X197086436Y-114170315D01*
X197127087Y-114286957D01*
X197165313Y-114400244D01*
X197199243Y-114504651D01*
X197227006Y-114594652D01*
X197246730Y-114664725D01*
X197255198Y-114701286D01*
X197264912Y-114739252D01*
X197275117Y-114759394D01*
X197277298Y-114760375D01*
X197292532Y-114748877D01*
X197325196Y-114716729D01*
X197372128Y-114667451D01*
X197430169Y-114604562D01*
X197496160Y-114531581D01*
X197566939Y-114452027D01*
X197639346Y-114369419D01*
X197710222Y-114287277D01*
X197776406Y-114209119D01*
X197824736Y-114150745D01*
X197972749Y-113963913D01*
X198109049Y-113779091D01*
X198238482Y-113589039D01*
X198365890Y-113386515D01*
X198496118Y-113164276D01*
X198556475Y-113056729D01*
X198601419Y-112977537D01*
X198641690Y-112910034D01*
X198674664Y-112858338D01*
X198697721Y-112826569D01*
X198708059Y-112818604D01*
X198720074Y-112836988D01*
X198743609Y-112877369D01*
X198775233Y-112933736D01*
X198810530Y-112998250D01*
X198985983Y-113308226D01*
X199164281Y-113593596D01*
X199350119Y-113861449D01*
X199548194Y-114118876D01*
X199572831Y-114149187D01*
X199633155Y-114221854D01*
X199700688Y-114301309D01*
X199772279Y-114384039D01*
X199844774Y-114466535D01*
X199915023Y-114545286D01*
X199979872Y-114616779D01*
X200036169Y-114677506D01*
X200080763Y-114723953D01*
X200110500Y-114752612D01*
X200121576Y-114760375D01*
X200131261Y-114746474D01*
X200141484Y-114712000D01*
X200143676Y-114701286D01*
X200156029Y-114650079D01*
X200177845Y-114574739D01*
X200207253Y-114480791D01*
X200242380Y-114373759D01*
X200281356Y-114259167D01*
X200322309Y-114142540D01*
X200363366Y-114029404D01*
X200402657Y-113925282D01*
X200430216Y-113855500D01*
X200574654Y-113515785D01*
X200739283Y-113158906D01*
X200921461Y-112789756D01*
X201118548Y-112413231D01*
X201327900Y-112034227D01*
X201546876Y-111657639D01*
X201772834Y-111288361D01*
X202003131Y-110931291D01*
X202031238Y-110889039D01*
X202107392Y-110776281D01*
X202187768Y-110659645D01*
X202269833Y-110542605D01*
X202351054Y-110428636D01*
X202428898Y-110321210D01*
X202500834Y-110223801D01*
X202564327Y-110139883D01*
X202616847Y-110072930D01*
X202655859Y-110026416D01*
X202673542Y-110008085D01*
X202690316Y-109999032D01*
X202724272Y-109987524D01*
X202777347Y-109973121D01*
X202851476Y-109955383D01*
X202948595Y-109933872D01*
X203070640Y-109908147D01*
X203219547Y-109877770D01*
X203397251Y-109842302D01*
X203449186Y-109832039D01*
X203598162Y-109802738D01*
X203737359Y-109775529D01*
X203863734Y-109750995D01*
X203974243Y-109729718D01*
X204065845Y-109712282D01*
X204135495Y-109699269D01*
X204180152Y-109691262D01*
X204196772Y-109688843D01*
X204196798Y-109688856D01*
X204193579Y-109704140D01*
X204183283Y-109747034D01*
X204166708Y-109814389D01*
X204144653Y-109903056D01*
X204117917Y-110009888D01*
X204087299Y-110131736D01*
X204053596Y-110265451D01*
X204017609Y-110407886D01*
X203980136Y-110555892D01*
X203941975Y-110706321D01*
X203903926Y-110856025D01*
X203866786Y-111001854D01*
X203831355Y-111140662D01*
X203798431Y-111269299D01*
X203768813Y-111384618D01*
X203743301Y-111483469D01*
X203722691Y-111562706D01*
X203707784Y-111619178D01*
X203699378Y-111649739D01*
X203699015Y-111650954D01*
X203702870Y-111663046D01*
X203721810Y-111681425D01*
X203758289Y-111707702D01*
X203814765Y-111743489D01*
X203893691Y-111790397D01*
X203997525Y-111850039D01*
X204032967Y-111870128D01*
X204127022Y-111923790D01*
X204211176Y-111972711D01*
X204281689Y-112014643D01*
X204334824Y-112047336D01*
X204366840Y-112068545D01*
X204374750Y-112075629D01*
X204361716Y-112085693D01*
X204323698Y-112112009D01*
X204262318Y-112153507D01*
X204179198Y-112209113D01*
X204075960Y-112277758D01*
X203954228Y-112358368D01*
X203815624Y-112449874D01*
X203661769Y-112551203D01*
X203494287Y-112661283D01*
X203314801Y-112779044D01*
X203124932Y-112903414D01*
X202926303Y-113033321D01*
X202771559Y-113134393D01*
X202567363Y-113267816D01*
X202370700Y-113396568D01*
X202183193Y-113519570D01*
X202006465Y-113635748D01*
X201842139Y-113744027D01*
X201691840Y-113843330D01*
X201557191Y-113932583D01*
X201439814Y-114010708D01*
X201341334Y-114076631D01*
X201263375Y-114129277D01*
X201207558Y-114167568D01*
X201175509Y-114190431D01*
X201168045Y-114196812D01*
X201172625Y-114214952D01*
X201185829Y-114260036D01*
X201206640Y-114328758D01*
X201234036Y-114417810D01*
X201267000Y-114523888D01*
X201304512Y-114643684D01*
X201345552Y-114773893D01*
X201360330Y-114820583D01*
X201402050Y-114953294D01*
X201440156Y-115076517D01*
X201473685Y-115186990D01*
X201501676Y-115281450D01*
X201523166Y-115356635D01*
X201537195Y-115409280D01*
X201542800Y-115436125D01*
X201542582Y-115438834D01*
X201525646Y-115438505D01*
X201479441Y-115434581D01*
X201406214Y-115427313D01*
X201308211Y-115416954D01*
X201187681Y-115403756D01*
X201046870Y-115387970D01*
X200888024Y-115369848D01*
X200713392Y-115349643D01*
X200525219Y-115327606D01*
X200325754Y-115303990D01*
X200117242Y-115279045D01*
X200115831Y-115278875D01*
X198699437Y-115108561D01*
X197312068Y-115275780D01*
X197104937Y-115300696D01*
X196906327Y-115324488D01*
X196718569Y-115346884D01*
X196543994Y-115367610D01*
X196384931Y-115386393D01*
X196243711Y-115402960D01*
X196122664Y-115417035D01*
X196024121Y-115428348D01*
X195950411Y-115436623D01*
X195903865Y-115441587D01*
X195887287Y-115443000D01*
X195858545Y-115438235D01*
X195849875Y-115429824D01*
X195854524Y-115412273D01*
X195867786Y-115367779D01*
X195888637Y-115299650D01*
X195916048Y-115211194D01*
X195948993Y-115105719D01*
X195986446Y-114986532D01*
X196027380Y-114856942D01*
X196040375Y-114815937D01*
X196082189Y-114683655D01*
X196120824Y-114560605D01*
X196155252Y-114450122D01*
X196184446Y-114355542D01*
X196207377Y-114280202D01*
X196223017Y-114227438D01*
X196230339Y-114200584D01*
X196230760Y-114198082D01*
X196217709Y-114187386D01*
X196179667Y-114160454D01*
X196118258Y-114118362D01*
X196035105Y-114062187D01*
X195931831Y-113993007D01*
X195810059Y-113911898D01*
X195671413Y-113819938D01*
X195517515Y-113718204D01*
X195349989Y-113607773D01*
X195170459Y-113489723D01*
X194980546Y-113365129D01*
X194781875Y-113235070D01*
X194627385Y-113134119D01*
X194423222Y-113000718D01*
X194226594Y-112872050D01*
X194039122Y-112749186D01*
X193862430Y-112633199D01*
X193698138Y-112525159D01*
X193547871Y-112426138D01*
X193413248Y-112337206D01*
X193295894Y-112259436D01*
X193197431Y-112193898D01*
X193119479Y-112141664D01*
X193063663Y-112103805D01*
X193031603Y-112081392D01*
X193024125Y-112075355D01*
X193037366Y-112064580D01*
X193074597Y-112040584D01*
X193132081Y-112005612D01*
X193206077Y-111961909D01*
X193292849Y-111911720D01*
X193365907Y-111870128D01*
X193477492Y-111806456D01*
X193563452Y-111755989D01*
X193626241Y-111717115D01*
X193668317Y-111688223D01*
X193692133Y-111667700D01*
X193700147Y-111653936D01*
X193699859Y-111650954D01*
X193691948Y-111622399D01*
X193677480Y-111567700D01*
X193657252Y-111490003D01*
X193632064Y-111392459D01*
X193602713Y-111278216D01*
X193570000Y-111150422D01*
X193534721Y-111012226D01*
X193497677Y-110866777D01*
X193459665Y-110717223D01*
X193421485Y-110566713D01*
X193383935Y-110418396D01*
X193347813Y-110275420D01*
X193313919Y-110140934D01*
X193283051Y-110018087D01*
X193256007Y-109910026D01*
X193233587Y-109819902D01*
X193216589Y-109750862D01*
X193205812Y-109706055D01*
X193202054Y-109688630D01*
X193202076Y-109688515D01*
X193218089Y-109690742D01*
X193218089Y-109690742D01*
G37*
X193218089Y-109690742D02*
X193262200Y-109698567D01*
X193331365Y-109711411D01*
X193422540Y-109728692D01*
X193532679Y-109749829D01*
X193658739Y-109774242D01*
X193797675Y-109801348D01*
X193946443Y-109830568D01*
X193948995Y-109831071D01*
X194132825Y-109867548D01*
X194287489Y-109898820D01*
X194415059Y-109925358D01*
X194517605Y-109947634D01*
X194597201Y-109966119D01*
X194655919Y-109981283D01*
X194695829Y-109993598D01*
X194719005Y-110003536D01*
X194724638Y-110007458D01*
X194753089Y-110038078D01*
X194796780Y-110091525D01*
X194853175Y-110164321D01*
X194919734Y-110252986D01*
X194993922Y-110354043D01*
X195073200Y-110464011D01*
X195155030Y-110579414D01*
X195236875Y-110696771D01*
X195316196Y-110812605D01*
X195366060Y-110886720D01*
X195601641Y-111249668D01*
X195832451Y-111624801D01*
X196055867Y-112007259D01*
X196269264Y-112392183D01*
X196470021Y-112774713D01*
X196655514Y-113149989D01*
X196823119Y-113513151D01*
X196968658Y-113855500D01*
X197005350Y-113949061D01*
X197045234Y-114055841D01*
X197086436Y-114170315D01*
X197127087Y-114286957D01*
X197165313Y-114400244D01*
X197199243Y-114504651D01*
X197227006Y-114594652D01*
X197246730Y-114664725D01*
X197255198Y-114701286D01*
X197264912Y-114739252D01*
X197275117Y-114759394D01*
X197277298Y-114760375D01*
X197292532Y-114748877D01*
X197325196Y-114716729D01*
X197372128Y-114667451D01*
X197430169Y-114604562D01*
X197496160Y-114531581D01*
X197566939Y-114452027D01*
X197639346Y-114369419D01*
X197710222Y-114287277D01*
X197776406Y-114209119D01*
X197824736Y-114150745D01*
X197972749Y-113963913D01*
X198109049Y-113779091D01*
X198238482Y-113589039D01*
X198365890Y-113386515D01*
X198496118Y-113164276D01*
X198556475Y-113056729D01*
X198601419Y-112977537D01*
X198641690Y-112910034D01*
X198674664Y-112858338D01*
X198697721Y-112826569D01*
X198708059Y-112818604D01*
X198720074Y-112836988D01*
X198743609Y-112877369D01*
X198775233Y-112933736D01*
X198810530Y-112998250D01*
X198985983Y-113308226D01*
X199164281Y-113593596D01*
X199350119Y-113861449D01*
X199548194Y-114118876D01*
X199572831Y-114149187D01*
X199633155Y-114221854D01*
X199700688Y-114301309D01*
X199772279Y-114384039D01*
X199844774Y-114466535D01*
X199915023Y-114545286D01*
X199979872Y-114616779D01*
X200036169Y-114677506D01*
X200080763Y-114723953D01*
X200110500Y-114752612D01*
X200121576Y-114760375D01*
X200131261Y-114746474D01*
X200141484Y-114712000D01*
X200143676Y-114701286D01*
X200156029Y-114650079D01*
X200177845Y-114574739D01*
X200207253Y-114480791D01*
X200242380Y-114373759D01*
X200281356Y-114259167D01*
X200322309Y-114142540D01*
X200363366Y-114029404D01*
X200402657Y-113925282D01*
X200430216Y-113855500D01*
X200574654Y-113515785D01*
X200739283Y-113158906D01*
X200921461Y-112789756D01*
X201118548Y-112413231D01*
X201327900Y-112034227D01*
X201546876Y-111657639D01*
X201772834Y-111288361D01*
X202003131Y-110931291D01*
X202031238Y-110889039D01*
X202107392Y-110776281D01*
X202187768Y-110659645D01*
X202269833Y-110542605D01*
X202351054Y-110428636D01*
X202428898Y-110321210D01*
X202500834Y-110223801D01*
X202564327Y-110139883D01*
X202616847Y-110072930D01*
X202655859Y-110026416D01*
X202673542Y-110008085D01*
X202690316Y-109999032D01*
X202724272Y-109987524D01*
X202777347Y-109973121D01*
X202851476Y-109955383D01*
X202948595Y-109933872D01*
X203070640Y-109908147D01*
X203219547Y-109877770D01*
X203397251Y-109842302D01*
X203449186Y-109832039D01*
X203598162Y-109802738D01*
X203737359Y-109775529D01*
X203863734Y-109750995D01*
X203974243Y-109729718D01*
X204065845Y-109712282D01*
X204135495Y-109699269D01*
X204180152Y-109691262D01*
X204196772Y-109688843D01*
X204196798Y-109688856D01*
X204193579Y-109704140D01*
X204183283Y-109747034D01*
X204166708Y-109814389D01*
X204144653Y-109903056D01*
X204117917Y-110009888D01*
X204087299Y-110131736D01*
X204053596Y-110265451D01*
X204017609Y-110407886D01*
X203980136Y-110555892D01*
X203941975Y-110706321D01*
X203903926Y-110856025D01*
X203866786Y-111001854D01*
X203831355Y-111140662D01*
X203798431Y-111269299D01*
X203768813Y-111384618D01*
X203743301Y-111483469D01*
X203722691Y-111562706D01*
X203707784Y-111619178D01*
X203699378Y-111649739D01*
X203699015Y-111650954D01*
X203702870Y-111663046D01*
X203721810Y-111681425D01*
X203758289Y-111707702D01*
X203814765Y-111743489D01*
X203893691Y-111790397D01*
X203997525Y-111850039D01*
X204032967Y-111870128D01*
X204127022Y-111923790D01*
X204211176Y-111972711D01*
X204281689Y-112014643D01*
X204334824Y-112047336D01*
X204366840Y-112068545D01*
X204374750Y-112075629D01*
X204361716Y-112085693D01*
X204323698Y-112112009D01*
X204262318Y-112153507D01*
X204179198Y-112209113D01*
X204075960Y-112277758D01*
X203954228Y-112358368D01*
X203815624Y-112449874D01*
X203661769Y-112551203D01*
X203494287Y-112661283D01*
X203314801Y-112779044D01*
X203124932Y-112903414D01*
X202926303Y-113033321D01*
X202771559Y-113134393D01*
X202567363Y-113267816D01*
X202370700Y-113396568D01*
X202183193Y-113519570D01*
X202006465Y-113635748D01*
X201842139Y-113744027D01*
X201691840Y-113843330D01*
X201557191Y-113932583D01*
X201439814Y-114010708D01*
X201341334Y-114076631D01*
X201263375Y-114129277D01*
X201207558Y-114167568D01*
X201175509Y-114190431D01*
X201168045Y-114196812D01*
X201172625Y-114214952D01*
X201185829Y-114260036D01*
X201206640Y-114328758D01*
X201234036Y-114417810D01*
X201267000Y-114523888D01*
X201304512Y-114643684D01*
X201345552Y-114773893D01*
X201360330Y-114820583D01*
X201402050Y-114953294D01*
X201440156Y-115076517D01*
X201473685Y-115186990D01*
X201501676Y-115281450D01*
X201523166Y-115356635D01*
X201537195Y-115409280D01*
X201542800Y-115436125D01*
X201542582Y-115438834D01*
X201525646Y-115438505D01*
X201479441Y-115434581D01*
X201406214Y-115427313D01*
X201308211Y-115416954D01*
X201187681Y-115403756D01*
X201046870Y-115387970D01*
X200888024Y-115369848D01*
X200713392Y-115349643D01*
X200525219Y-115327606D01*
X200325754Y-115303990D01*
X200117242Y-115279045D01*
X200115831Y-115278875D01*
X198699437Y-115108561D01*
X197312068Y-115275780D01*
X197104937Y-115300696D01*
X196906327Y-115324488D01*
X196718569Y-115346884D01*
X196543994Y-115367610D01*
X196384931Y-115386393D01*
X196243711Y-115402960D01*
X196122664Y-115417035D01*
X196024121Y-115428348D01*
X195950411Y-115436623D01*
X195903865Y-115441587D01*
X195887287Y-115443000D01*
X195858545Y-115438235D01*
X195849875Y-115429824D01*
X195854524Y-115412273D01*
X195867786Y-115367779D01*
X195888637Y-115299650D01*
X195916048Y-115211194D01*
X195948993Y-115105719D01*
X195986446Y-114986532D01*
X196027380Y-114856942D01*
X196040375Y-114815937D01*
X196082189Y-114683655D01*
X196120824Y-114560605D01*
X196155252Y-114450122D01*
X196184446Y-114355542D01*
X196207377Y-114280202D01*
X196223017Y-114227438D01*
X196230339Y-114200584D01*
X196230760Y-114198082D01*
X196217709Y-114187386D01*
X196179667Y-114160454D01*
X196118258Y-114118362D01*
X196035105Y-114062187D01*
X195931831Y-113993007D01*
X195810059Y-113911898D01*
X195671413Y-113819938D01*
X195517515Y-113718204D01*
X195349989Y-113607773D01*
X195170459Y-113489723D01*
X194980546Y-113365129D01*
X194781875Y-113235070D01*
X194627385Y-113134119D01*
X194423222Y-113000718D01*
X194226594Y-112872050D01*
X194039122Y-112749186D01*
X193862430Y-112633199D01*
X193698138Y-112525159D01*
X193547871Y-112426138D01*
X193413248Y-112337206D01*
X193295894Y-112259436D01*
X193197431Y-112193898D01*
X193119479Y-112141664D01*
X193063663Y-112103805D01*
X193031603Y-112081392D01*
X193024125Y-112075355D01*
X193037366Y-112064580D01*
X193074597Y-112040584D01*
X193132081Y-112005612D01*
X193206077Y-111961909D01*
X193292849Y-111911720D01*
X193365907Y-111870128D01*
X193477492Y-111806456D01*
X193563452Y-111755989D01*
X193626241Y-111717115D01*
X193668317Y-111688223D01*
X193692133Y-111667700D01*
X193700147Y-111653936D01*
X193699859Y-111650954D01*
X193691948Y-111622399D01*
X193677480Y-111567700D01*
X193657252Y-111490003D01*
X193632064Y-111392459D01*
X193602713Y-111278216D01*
X193570000Y-111150422D01*
X193534721Y-111012226D01*
X193497677Y-110866777D01*
X193459665Y-110717223D01*
X193421485Y-110566713D01*
X193383935Y-110418396D01*
X193347813Y-110275420D01*
X193313919Y-110140934D01*
X193283051Y-110018087D01*
X193256007Y-109910026D01*
X193233587Y-109819902D01*
X193216589Y-109750862D01*
X193205812Y-109706055D01*
X193202054Y-109688630D01*
X193202076Y-109688515D01*
X193218089Y-109690742D01*
G36*
X198709553Y-105821595D02*
X198733737Y-105860750D01*
X198770734Y-105923313D01*
X198819288Y-106007084D01*
X198878145Y-106109862D01*
X198946049Y-106229448D01*
X199021745Y-106363642D01*
X199103979Y-106510243D01*
X199191495Y-106667052D01*
X199267394Y-106803647D01*
X199358466Y-106967835D01*
X199445219Y-107124165D01*
X199526398Y-107270377D01*
X199600745Y-107404213D01*
X199667005Y-107523414D01*
X199723922Y-107625720D01*
X199770240Y-107708873D01*
X199804702Y-107770614D01*
X199826054Y-107808684D01*
X199832885Y-107820636D01*
X199842521Y-107823838D01*
X199864997Y-107820073D01*
X199902645Y-107808440D01*
X199957798Y-107788040D01*
X200032787Y-107757973D01*
X200129944Y-107717338D01*
X200251600Y-107665235D01*
X200381409Y-107608908D01*
X200503334Y-107556153D01*
X200616036Y-107508107D01*
X200716234Y-107466114D01*
X200800644Y-107431519D01*
X200865984Y-107405666D01*
X200908973Y-107389901D01*
X200926327Y-107385567D01*
X200926439Y-107385647D01*
X200926395Y-107402542D01*
X200923463Y-107448818D01*
X200917839Y-107522252D01*
X200909721Y-107620627D01*
X200899304Y-107741721D01*
X200886786Y-107883315D01*
X200872363Y-108043188D01*
X200856232Y-108219121D01*
X200838589Y-108408894D01*
X200819631Y-108610286D01*
X200799555Y-108821077D01*
X200796194Y-108856132D01*
X200775924Y-109068162D01*
X200756674Y-109271092D01*
X200738645Y-109462710D01*
X200722038Y-109640800D01*
X200707055Y-109803150D01*
X200693898Y-109947546D01*
X200682768Y-110071774D01*
X200673866Y-110173621D01*
X200667394Y-110250874D01*
X200663553Y-110301317D01*
X200662545Y-110322739D01*
X200662665Y-110323331D01*
X200675392Y-110314301D01*
X200709693Y-110285959D01*
X200763459Y-110240142D01*
X200834583Y-110178686D01*
X200920955Y-110103427D01*
X201020467Y-110016200D01*
X201131012Y-109918843D01*
X201250480Y-109813190D01*
X201356139Y-109719418D01*
X201481715Y-109607987D01*
X201600320Y-109503117D01*
X201709822Y-109406671D01*
X201808083Y-109320510D01*
X201892971Y-109246498D01*
X201962349Y-109186497D01*
X202014082Y-109142369D01*
X202046037Y-109115977D01*
X202056008Y-109108875D01*
X202060855Y-109112429D01*
X202068302Y-109124851D01*
X202079382Y-109148781D01*
X202095127Y-109186857D01*
X202116569Y-109241720D01*
X202144742Y-109316007D01*
X202180678Y-109412358D01*
X202225409Y-109533413D01*
X202277061Y-109673892D01*
X202324222Y-109802346D01*
X202188943Y-109958407D01*
X202014404Y-110164868D01*
X201831336Y-110390916D01*
X201642305Y-110632877D01*
X201449879Y-110887079D01*
X201256627Y-111149849D01*
X201065116Y-111417514D01*
X200877915Y-111686401D01*
X200697590Y-111952838D01*
X200526710Y-112213151D01*
X200367844Y-112463667D01*
X200223558Y-112700715D01*
X200096420Y-112920620D01*
X200019625Y-113061214D01*
X199933413Y-113223607D01*
X199881045Y-113147493D01*
X199781215Y-112991541D01*
X199677772Y-112809787D01*
X199573201Y-112607588D01*
X199469992Y-112390299D01*
X199370632Y-112163279D01*
X199277609Y-111931882D01*
X199193409Y-111701465D01*
X199151873Y-111577437D01*
X199076973Y-111333266D01*
X199002003Y-111065029D01*
X198928851Y-110780349D01*
X198859410Y-110486849D01*
X198795567Y-110192152D01*
X198745898Y-109939917D01*
X198700919Y-109699397D01*
X198619192Y-110106604D01*
X198528876Y-110530659D01*
X198433734Y-110925629D01*
X198332910Y-111293932D01*
X198225547Y-111637986D01*
X198110790Y-111960205D01*
X197987783Y-112263009D01*
X197855671Y-112548812D01*
X197713596Y-112820033D01*
X197574300Y-113057226D01*
X197536373Y-113117487D01*
X197503953Y-113167107D01*
X197480970Y-113200186D01*
X197472048Y-113210755D01*
X197460265Y-113200831D01*
X197438330Y-113168211D01*
X197409977Y-113118753D01*
X197393382Y-113087247D01*
X197301112Y-112915322D01*
X197190189Y-112722732D01*
X197062867Y-112512706D01*
X196921400Y-112288475D01*
X196768042Y-112053267D01*
X196605047Y-111810313D01*
X196434668Y-111562842D01*
X196259160Y-111314085D01*
X196080777Y-111067270D01*
X195901772Y-110825629D01*
X195724399Y-110592390D01*
X195550912Y-110370783D01*
X195383565Y-110164038D01*
X195224612Y-109975385D01*
X195209931Y-109958407D01*
X195074652Y-109802346D01*
X195121813Y-109673892D01*
X195175875Y-109526871D01*
X195220156Y-109407065D01*
X195255690Y-109311836D01*
X195283505Y-109238548D01*
X195304634Y-109184561D01*
X195320108Y-109147239D01*
X195330957Y-109123944D01*
X195338213Y-109112038D01*
X195342697Y-109108875D01*
X195356591Y-109119131D01*
X195392044Y-109148660D01*
X195446922Y-109195599D01*
X195519090Y-109258088D01*
X195606413Y-109334265D01*
X195706757Y-109422269D01*
X195817986Y-109520237D01*
X195937965Y-109626310D01*
X196042743Y-109719241D01*
X196168125Y-109830402D01*
X196286347Y-109934819D01*
X196395298Y-110030656D01*
X196492872Y-110116076D01*
X196576959Y-110189245D01*
X196645451Y-110248327D01*
X196696240Y-110291486D01*
X196727217Y-110316886D01*
X196736386Y-110323155D01*
X196735840Y-110306769D01*
X196732429Y-110260996D01*
X196726355Y-110188047D01*
X196717819Y-110090136D01*
X196707024Y-109969477D01*
X196694171Y-109828282D01*
X196679461Y-109668765D01*
X196663097Y-109493140D01*
X196645280Y-109303619D01*
X196626212Y-109102415D01*
X196623748Y-109076605D01*
X198122601Y-109076605D01*
X198128401Y-109078298D01*
X198151728Y-109061119D01*
X198187726Y-109028710D01*
X198192384Y-109024243D01*
X198248543Y-108977494D01*
X198318328Y-108929576D01*
X198381937Y-108893351D01*
X198523627Y-108839549D01*
X198667458Y-108816577D01*
X198810291Y-108823959D01*
X198948988Y-108861218D01*
X199080408Y-108927876D01*
X199194406Y-109016823D01*
X199235033Y-109053018D01*
X199263873Y-109075157D01*
X199276165Y-109079718D01*
X199275912Y-109077125D01*
X199269788Y-109058031D01*
X199255074Y-109011343D01*
X199232620Y-108939780D01*
X199203276Y-108846061D01*
X199167892Y-108732904D01*
X199127319Y-108603030D01*
X199082407Y-108459157D01*
X199034006Y-108304004D01*
X198985505Y-108148437D01*
X198934788Y-107985805D01*
X198886905Y-107832439D01*
X198842684Y-107690979D01*
X198802953Y-107564066D01*
X198768540Y-107454338D01*
X198740272Y-107364436D01*
X198718978Y-107297000D01*
X198705486Y-107254670D01*
X198700634Y-107240092D01*
X198695537Y-107254180D01*
X198681838Y-107295978D01*
X198660364Y-107362878D01*
X198631938Y-107452271D01*
X198597385Y-107561548D01*
X198557531Y-107688101D01*
X198513199Y-107829321D01*
X198465215Y-107982601D01*
X198414517Y-108144967D01*
X198363458Y-108308622D01*
X198315071Y-108463572D01*
X198270207Y-108607105D01*
X198229713Y-108736512D01*
X198194441Y-108849078D01*
X198165240Y-108942094D01*
X198142959Y-109012848D01*
X198128448Y-109058628D01*
X198122601Y-109076605D01*
X196623748Y-109076605D01*
X196606095Y-108891743D01*
X196602680Y-108856132D01*
X196582441Y-108644017D01*
X196563292Y-108440937D01*
X196545429Y-108249113D01*
X196529048Y-108070765D01*
X196514345Y-107908113D01*
X196501518Y-107763378D01*
X196490761Y-107638779D01*
X196482273Y-107536538D01*
X196476249Y-107458875D01*
X196472885Y-107408009D01*
X196472379Y-107386161D01*
X196472580Y-107385502D01*
X196488919Y-107389323D01*
X196531013Y-107404615D01*
X196595570Y-107430034D01*
X196679295Y-107464234D01*
X196778896Y-107505870D01*
X196891080Y-107553596D01*
X197012554Y-107606066D01*
X197015065Y-107607159D01*
X197136567Y-107659975D01*
X197248621Y-107708563D01*
X197347963Y-107751518D01*
X197431328Y-107787433D01*
X197495452Y-107814901D01*
X197537069Y-107832516D01*
X197552916Y-107838872D01*
X197552948Y-107838874D01*
X197561332Y-107825344D01*
X197583861Y-107786202D01*
X197619316Y-107723625D01*
X197666482Y-107639789D01*
X197724140Y-107536869D01*
X197791074Y-107417041D01*
X197866067Y-107282480D01*
X197947902Y-107135363D01*
X198035361Y-106977865D01*
X198120984Y-106823431D01*
X198212776Y-106658131D01*
X198300337Y-106501192D01*
X198382427Y-106354793D01*
X198457804Y-106221112D01*
X198525226Y-106102328D01*
X198583454Y-106000620D01*
X198631245Y-105918167D01*
X198667358Y-105857146D01*
X198690552Y-105819738D01*
X198699437Y-105808048D01*
X198709553Y-105821595D01*
X198709553Y-105821595D01*
G37*
X198709553Y-105821595D02*
X198733737Y-105860750D01*
X198770734Y-105923313D01*
X198819288Y-106007084D01*
X198878145Y-106109862D01*
X198946049Y-106229448D01*
X199021745Y-106363642D01*
X199103979Y-106510243D01*
X199191495Y-106667052D01*
X199267394Y-106803647D01*
X199358466Y-106967835D01*
X199445219Y-107124165D01*
X199526398Y-107270377D01*
X199600745Y-107404213D01*
X199667005Y-107523414D01*
X199723922Y-107625720D01*
X199770240Y-107708873D01*
X199804702Y-107770614D01*
X199826054Y-107808684D01*
X199832885Y-107820636D01*
X199842521Y-107823838D01*
X199864997Y-107820073D01*
X199902645Y-107808440D01*
X199957798Y-107788040D01*
X200032787Y-107757973D01*
X200129944Y-107717338D01*
X200251600Y-107665235D01*
X200381409Y-107608908D01*
X200503334Y-107556153D01*
X200616036Y-107508107D01*
X200716234Y-107466114D01*
X200800644Y-107431519D01*
X200865984Y-107405666D01*
X200908973Y-107389901D01*
X200926327Y-107385567D01*
X200926439Y-107385647D01*
X200926395Y-107402542D01*
X200923463Y-107448818D01*
X200917839Y-107522252D01*
X200909721Y-107620627D01*
X200899304Y-107741721D01*
X200886786Y-107883315D01*
X200872363Y-108043188D01*
X200856232Y-108219121D01*
X200838589Y-108408894D01*
X200819631Y-108610286D01*
X200799555Y-108821077D01*
X200796194Y-108856132D01*
X200775924Y-109068162D01*
X200756674Y-109271092D01*
X200738645Y-109462710D01*
X200722038Y-109640800D01*
X200707055Y-109803150D01*
X200693898Y-109947546D01*
X200682768Y-110071774D01*
X200673866Y-110173621D01*
X200667394Y-110250874D01*
X200663553Y-110301317D01*
X200662545Y-110322739D01*
X200662665Y-110323331D01*
X200675392Y-110314301D01*
X200709693Y-110285959D01*
X200763459Y-110240142D01*
X200834583Y-110178686D01*
X200920955Y-110103427D01*
X201020467Y-110016200D01*
X201131012Y-109918843D01*
X201250480Y-109813190D01*
X201356139Y-109719418D01*
X201481715Y-109607987D01*
X201600320Y-109503117D01*
X201709822Y-109406671D01*
X201808083Y-109320510D01*
X201892971Y-109246498D01*
X201962349Y-109186497D01*
X202014082Y-109142369D01*
X202046037Y-109115977D01*
X202056008Y-109108875D01*
X202060855Y-109112429D01*
X202068302Y-109124851D01*
X202079382Y-109148781D01*
X202095127Y-109186857D01*
X202116569Y-109241720D01*
X202144742Y-109316007D01*
X202180678Y-109412358D01*
X202225409Y-109533413D01*
X202277061Y-109673892D01*
X202324222Y-109802346D01*
X202188943Y-109958407D01*
X202014404Y-110164868D01*
X201831336Y-110390916D01*
X201642305Y-110632877D01*
X201449879Y-110887079D01*
X201256627Y-111149849D01*
X201065116Y-111417514D01*
X200877915Y-111686401D01*
X200697590Y-111952838D01*
X200526710Y-112213151D01*
X200367844Y-112463667D01*
X200223558Y-112700715D01*
X200096420Y-112920620D01*
X200019625Y-113061214D01*
X199933413Y-113223607D01*
X199881045Y-113147493D01*
X199781215Y-112991541D01*
X199677772Y-112809787D01*
X199573201Y-112607588D01*
X199469992Y-112390299D01*
X199370632Y-112163279D01*
X199277609Y-111931882D01*
X199193409Y-111701465D01*
X199151873Y-111577437D01*
X199076973Y-111333266D01*
X199002003Y-111065029D01*
X198928851Y-110780349D01*
X198859410Y-110486849D01*
X198795567Y-110192152D01*
X198745898Y-109939917D01*
X198700919Y-109699397D01*
X198619192Y-110106604D01*
X198528876Y-110530659D01*
X198433734Y-110925629D01*
X198332910Y-111293932D01*
X198225547Y-111637986D01*
X198110790Y-111960205D01*
X197987783Y-112263009D01*
X197855671Y-112548812D01*
X197713596Y-112820033D01*
X197574300Y-113057226D01*
X197536373Y-113117487D01*
X197503953Y-113167107D01*
X197480970Y-113200186D01*
X197472048Y-113210755D01*
X197460265Y-113200831D01*
X197438330Y-113168211D01*
X197409977Y-113118753D01*
X197393382Y-113087247D01*
X197301112Y-112915322D01*
X197190189Y-112722732D01*
X197062867Y-112512706D01*
X196921400Y-112288475D01*
X196768042Y-112053267D01*
X196605047Y-111810313D01*
X196434668Y-111562842D01*
X196259160Y-111314085D01*
X196080777Y-111067270D01*
X195901772Y-110825629D01*
X195724399Y-110592390D01*
X195550912Y-110370783D01*
X195383565Y-110164038D01*
X195224612Y-109975385D01*
X195209931Y-109958407D01*
X195074652Y-109802346D01*
X195121813Y-109673892D01*
X195175875Y-109526871D01*
X195220156Y-109407065D01*
X195255690Y-109311836D01*
X195283505Y-109238548D01*
X195304634Y-109184561D01*
X195320108Y-109147239D01*
X195330957Y-109123944D01*
X195338213Y-109112038D01*
X195342697Y-109108875D01*
X195356591Y-109119131D01*
X195392044Y-109148660D01*
X195446922Y-109195599D01*
X195519090Y-109258088D01*
X195606413Y-109334265D01*
X195706757Y-109422269D01*
X195817986Y-109520237D01*
X195937965Y-109626310D01*
X196042743Y-109719241D01*
X196168125Y-109830402D01*
X196286347Y-109934819D01*
X196395298Y-110030656D01*
X196492872Y-110116076D01*
X196576959Y-110189245D01*
X196645451Y-110248327D01*
X196696240Y-110291486D01*
X196727217Y-110316886D01*
X196736386Y-110323155D01*
X196735840Y-110306769D01*
X196732429Y-110260996D01*
X196726355Y-110188047D01*
X196717819Y-110090136D01*
X196707024Y-109969477D01*
X196694171Y-109828282D01*
X196679461Y-109668765D01*
X196663097Y-109493140D01*
X196645280Y-109303619D01*
X196626212Y-109102415D01*
X196623748Y-109076605D01*
X198122601Y-109076605D01*
X198128401Y-109078298D01*
X198151728Y-109061119D01*
X198187726Y-109028710D01*
X198192384Y-109024243D01*
X198248543Y-108977494D01*
X198318328Y-108929576D01*
X198381937Y-108893351D01*
X198523627Y-108839549D01*
X198667458Y-108816577D01*
X198810291Y-108823959D01*
X198948988Y-108861218D01*
X199080408Y-108927876D01*
X199194406Y-109016823D01*
X199235033Y-109053018D01*
X199263873Y-109075157D01*
X199276165Y-109079718D01*
X199275912Y-109077125D01*
X199269788Y-109058031D01*
X199255074Y-109011343D01*
X199232620Y-108939780D01*
X199203276Y-108846061D01*
X199167892Y-108732904D01*
X199127319Y-108603030D01*
X199082407Y-108459157D01*
X199034006Y-108304004D01*
X198985505Y-108148437D01*
X198934788Y-107985805D01*
X198886905Y-107832439D01*
X198842684Y-107690979D01*
X198802953Y-107564066D01*
X198768540Y-107454338D01*
X198740272Y-107364436D01*
X198718978Y-107297000D01*
X198705486Y-107254670D01*
X198700634Y-107240092D01*
X198695537Y-107254180D01*
X198681838Y-107295978D01*
X198660364Y-107362878D01*
X198631938Y-107452271D01*
X198597385Y-107561548D01*
X198557531Y-107688101D01*
X198513199Y-107829321D01*
X198465215Y-107982601D01*
X198414517Y-108144967D01*
X198363458Y-108308622D01*
X198315071Y-108463572D01*
X198270207Y-108607105D01*
X198229713Y-108736512D01*
X198194441Y-108849078D01*
X198165240Y-108942094D01*
X198142959Y-109012848D01*
X198128448Y-109058628D01*
X198122601Y-109076605D01*
X196623748Y-109076605D01*
X196606095Y-108891743D01*
X196602680Y-108856132D01*
X196582441Y-108644017D01*
X196563292Y-108440937D01*
X196545429Y-108249113D01*
X196529048Y-108070765D01*
X196514345Y-107908113D01*
X196501518Y-107763378D01*
X196490761Y-107638779D01*
X196482273Y-107536538D01*
X196476249Y-107458875D01*
X196472885Y-107408009D01*
X196472379Y-107386161D01*
X196472580Y-107385502D01*
X196488919Y-107389323D01*
X196531013Y-107404615D01*
X196595570Y-107430034D01*
X196679295Y-107464234D01*
X196778896Y-107505870D01*
X196891080Y-107553596D01*
X197012554Y-107606066D01*
X197015065Y-107607159D01*
X197136567Y-107659975D01*
X197248621Y-107708563D01*
X197347963Y-107751518D01*
X197431328Y-107787433D01*
X197495452Y-107814901D01*
X197537069Y-107832516D01*
X197552916Y-107838872D01*
X197552948Y-107838874D01*
X197561332Y-107825344D01*
X197583861Y-107786202D01*
X197619316Y-107723625D01*
X197666482Y-107639789D01*
X197724140Y-107536869D01*
X197791074Y-107417041D01*
X197866067Y-107282480D01*
X197947902Y-107135363D01*
X198035361Y-106977865D01*
X198120984Y-106823431D01*
X198212776Y-106658131D01*
X198300337Y-106501192D01*
X198382427Y-106354793D01*
X198457804Y-106221112D01*
X198525226Y-106102328D01*
X198583454Y-106000620D01*
X198631245Y-105918167D01*
X198667358Y-105857146D01*
X198690552Y-105819738D01*
X198699437Y-105808048D01*
X198709553Y-105821595D01*
M02*
