G04 #@! TF.GenerationSoftware,KiCad,Pcbnew,(5.1.4)-1*
G04 #@! TF.CreationDate,2020-10-03T17:35:05-04:00*
G04 #@! TF.ProjectId,i2c_pancake,6932635f-7061-46e6-9361-6b652e6b6963,rev?*
G04 #@! TF.SameCoordinates,Original*
G04 #@! TF.FileFunction,Copper,L1,Top*
G04 #@! TF.FilePolarity,Positive*
%FSLAX46Y46*%
G04 Gerber Fmt 4.6, Leading zero omitted, Abs format (unit mm)*
G04 Created by KiCad (PCBNEW (5.1.4)-1) date 2020-10-03 17:35:05*
%MOMM*%
%LPD*%
G04 APERTURE LIST*
%ADD10C,0.150000*%
%ADD11C,0.100000*%
%ADD12C,1.425000*%
%ADD13R,1.500000X1.250000*%
%ADD14R,1.500000X1.300000*%
%ADD15R,1.300000X1.500000*%
%ADD16R,1.600000X1.600000*%
%ADD17C,1.600000*%
%ADD18R,0.600000X3.000000*%
%ADD19C,2.600000*%
%ADD20R,2.600000X2.600000*%
%ADD21O,1.700000X1.950000*%
%ADD22C,1.700000*%
%ADD23C,1.524000*%
%ADD24C,6.400000*%
%ADD25C,0.762000*%
%ADD26C,0.203200*%
%ADD27C,0.304800*%
G04 APERTURE END LIST*
D10*
X89662000Y-134239000D02*
X164554000Y-134239000D01*
X89662000Y-89253000D02*
X164554000Y-89253000D01*
X164554000Y-89253000D02*
X164554000Y-134239000D01*
X89662000Y-89253000D02*
X89662000Y-134239000D01*
D11*
G36*
X146271904Y-112638804D02*
G01*
X146296173Y-112642404D01*
X146319971Y-112648365D01*
X146343071Y-112656630D01*
X146365249Y-112667120D01*
X146386293Y-112679733D01*
X146405998Y-112694347D01*
X146424177Y-112710823D01*
X146440653Y-112729002D01*
X146455267Y-112748707D01*
X146467880Y-112769751D01*
X146478370Y-112791929D01*
X146486635Y-112815029D01*
X146492596Y-112838827D01*
X146496196Y-112863096D01*
X146497400Y-112887600D01*
X146497400Y-114137600D01*
X146496196Y-114162104D01*
X146492596Y-114186373D01*
X146486635Y-114210171D01*
X146478370Y-114233271D01*
X146467880Y-114255449D01*
X146455267Y-114276493D01*
X146440653Y-114296198D01*
X146424177Y-114314377D01*
X146405998Y-114330853D01*
X146386293Y-114345467D01*
X146365249Y-114358080D01*
X146343071Y-114368570D01*
X146319971Y-114376835D01*
X146296173Y-114382796D01*
X146271904Y-114386396D01*
X146247400Y-114387600D01*
X145322400Y-114387600D01*
X145297896Y-114386396D01*
X145273627Y-114382796D01*
X145249829Y-114376835D01*
X145226729Y-114368570D01*
X145204551Y-114358080D01*
X145183507Y-114345467D01*
X145163802Y-114330853D01*
X145145623Y-114314377D01*
X145129147Y-114296198D01*
X145114533Y-114276493D01*
X145101920Y-114255449D01*
X145091430Y-114233271D01*
X145083165Y-114210171D01*
X145077204Y-114186373D01*
X145073604Y-114162104D01*
X145072400Y-114137600D01*
X145072400Y-112887600D01*
X145073604Y-112863096D01*
X145077204Y-112838827D01*
X145083165Y-112815029D01*
X145091430Y-112791929D01*
X145101920Y-112769751D01*
X145114533Y-112748707D01*
X145129147Y-112729002D01*
X145145623Y-112710823D01*
X145163802Y-112694347D01*
X145183507Y-112679733D01*
X145204551Y-112667120D01*
X145226729Y-112656630D01*
X145249829Y-112648365D01*
X145273627Y-112642404D01*
X145297896Y-112638804D01*
X145322400Y-112637600D01*
X146247400Y-112637600D01*
X146271904Y-112638804D01*
X146271904Y-112638804D01*
G37*
D12*
X145784900Y-113512600D03*
D11*
G36*
X143296904Y-112638804D02*
G01*
X143321173Y-112642404D01*
X143344971Y-112648365D01*
X143368071Y-112656630D01*
X143390249Y-112667120D01*
X143411293Y-112679733D01*
X143430998Y-112694347D01*
X143449177Y-112710823D01*
X143465653Y-112729002D01*
X143480267Y-112748707D01*
X143492880Y-112769751D01*
X143503370Y-112791929D01*
X143511635Y-112815029D01*
X143517596Y-112838827D01*
X143521196Y-112863096D01*
X143522400Y-112887600D01*
X143522400Y-114137600D01*
X143521196Y-114162104D01*
X143517596Y-114186373D01*
X143511635Y-114210171D01*
X143503370Y-114233271D01*
X143492880Y-114255449D01*
X143480267Y-114276493D01*
X143465653Y-114296198D01*
X143449177Y-114314377D01*
X143430998Y-114330853D01*
X143411293Y-114345467D01*
X143390249Y-114358080D01*
X143368071Y-114368570D01*
X143344971Y-114376835D01*
X143321173Y-114382796D01*
X143296904Y-114386396D01*
X143272400Y-114387600D01*
X142347400Y-114387600D01*
X142322896Y-114386396D01*
X142298627Y-114382796D01*
X142274829Y-114376835D01*
X142251729Y-114368570D01*
X142229551Y-114358080D01*
X142208507Y-114345467D01*
X142188802Y-114330853D01*
X142170623Y-114314377D01*
X142154147Y-114296198D01*
X142139533Y-114276493D01*
X142126920Y-114255449D01*
X142116430Y-114233271D01*
X142108165Y-114210171D01*
X142102204Y-114186373D01*
X142098604Y-114162104D01*
X142097400Y-114137600D01*
X142097400Y-112887600D01*
X142098604Y-112863096D01*
X142102204Y-112838827D01*
X142108165Y-112815029D01*
X142116430Y-112791929D01*
X142126920Y-112769751D01*
X142139533Y-112748707D01*
X142154147Y-112729002D01*
X142170623Y-112710823D01*
X142188802Y-112694347D01*
X142208507Y-112679733D01*
X142229551Y-112667120D01*
X142251729Y-112656630D01*
X142274829Y-112648365D01*
X142298627Y-112642404D01*
X142322896Y-112638804D01*
X142347400Y-112637600D01*
X143272400Y-112637600D01*
X143296904Y-112638804D01*
X143296904Y-112638804D01*
G37*
D12*
X142809900Y-113512600D03*
D13*
X105873800Y-104255600D03*
X108373800Y-104255600D03*
D14*
X125354000Y-104953000D03*
X128054000Y-104953000D03*
D15*
X118965600Y-103845400D03*
X118965600Y-106545400D03*
X114088800Y-113983800D03*
X114088800Y-116683800D03*
X114012600Y-107524600D03*
X114012600Y-110224600D03*
D14*
X125409600Y-117311200D03*
X128109600Y-117311200D03*
X135221600Y-115330000D03*
X132521600Y-115330000D03*
D16*
X162954000Y-125353000D03*
D17*
X162954000Y-122813000D03*
X162954000Y-120273000D03*
X162954000Y-117733000D03*
X155334000Y-117733000D03*
X155334000Y-120273000D03*
X155334000Y-122813000D03*
X155334000Y-125353000D03*
D18*
X105300400Y-108350200D03*
X106570400Y-108350200D03*
X107840400Y-108350200D03*
X109110400Y-108350200D03*
X109110400Y-115350200D03*
X107840400Y-115350200D03*
X106570400Y-115350200D03*
X105300400Y-115350200D03*
D11*
G36*
X135784804Y-109427004D02*
G01*
X135809073Y-109430604D01*
X135832871Y-109436565D01*
X135855971Y-109444830D01*
X135878149Y-109455320D01*
X135899193Y-109467933D01*
X135918898Y-109482547D01*
X135937077Y-109499023D01*
X135953553Y-109517202D01*
X135968167Y-109536907D01*
X135980780Y-109557951D01*
X135991270Y-109580129D01*
X135999535Y-109603229D01*
X136005496Y-109627027D01*
X136009096Y-109651296D01*
X136010300Y-109675800D01*
X136010300Y-110925800D01*
X136009096Y-110950304D01*
X136005496Y-110974573D01*
X135999535Y-110998371D01*
X135991270Y-111021471D01*
X135980780Y-111043649D01*
X135968167Y-111064693D01*
X135953553Y-111084398D01*
X135937077Y-111102577D01*
X135918898Y-111119053D01*
X135899193Y-111133667D01*
X135878149Y-111146280D01*
X135855971Y-111156770D01*
X135832871Y-111165035D01*
X135809073Y-111170996D01*
X135784804Y-111174596D01*
X135760300Y-111175800D01*
X134835300Y-111175800D01*
X134810796Y-111174596D01*
X134786527Y-111170996D01*
X134762729Y-111165035D01*
X134739629Y-111156770D01*
X134717451Y-111146280D01*
X134696407Y-111133667D01*
X134676702Y-111119053D01*
X134658523Y-111102577D01*
X134642047Y-111084398D01*
X134627433Y-111064693D01*
X134614820Y-111043649D01*
X134604330Y-111021471D01*
X134596065Y-110998371D01*
X134590104Y-110974573D01*
X134586504Y-110950304D01*
X134585300Y-110925800D01*
X134585300Y-109675800D01*
X134586504Y-109651296D01*
X134590104Y-109627027D01*
X134596065Y-109603229D01*
X134604330Y-109580129D01*
X134614820Y-109557951D01*
X134627433Y-109536907D01*
X134642047Y-109517202D01*
X134658523Y-109499023D01*
X134676702Y-109482547D01*
X134696407Y-109467933D01*
X134717451Y-109455320D01*
X134739629Y-109444830D01*
X134762729Y-109436565D01*
X134786527Y-109430604D01*
X134810796Y-109427004D01*
X134835300Y-109425800D01*
X135760300Y-109425800D01*
X135784804Y-109427004D01*
X135784804Y-109427004D01*
G37*
D12*
X135297800Y-110300800D03*
D11*
G36*
X132809804Y-109427004D02*
G01*
X132834073Y-109430604D01*
X132857871Y-109436565D01*
X132880971Y-109444830D01*
X132903149Y-109455320D01*
X132924193Y-109467933D01*
X132943898Y-109482547D01*
X132962077Y-109499023D01*
X132978553Y-109517202D01*
X132993167Y-109536907D01*
X133005780Y-109557951D01*
X133016270Y-109580129D01*
X133024535Y-109603229D01*
X133030496Y-109627027D01*
X133034096Y-109651296D01*
X133035300Y-109675800D01*
X133035300Y-110925800D01*
X133034096Y-110950304D01*
X133030496Y-110974573D01*
X133024535Y-110998371D01*
X133016270Y-111021471D01*
X133005780Y-111043649D01*
X132993167Y-111064693D01*
X132978553Y-111084398D01*
X132962077Y-111102577D01*
X132943898Y-111119053D01*
X132924193Y-111133667D01*
X132903149Y-111146280D01*
X132880971Y-111156770D01*
X132857871Y-111165035D01*
X132834073Y-111170996D01*
X132809804Y-111174596D01*
X132785300Y-111175800D01*
X131860300Y-111175800D01*
X131835796Y-111174596D01*
X131811527Y-111170996D01*
X131787729Y-111165035D01*
X131764629Y-111156770D01*
X131742451Y-111146280D01*
X131721407Y-111133667D01*
X131701702Y-111119053D01*
X131683523Y-111102577D01*
X131667047Y-111084398D01*
X131652433Y-111064693D01*
X131639820Y-111043649D01*
X131629330Y-111021471D01*
X131621065Y-110998371D01*
X131615104Y-110974573D01*
X131611504Y-110950304D01*
X131610300Y-110925800D01*
X131610300Y-109675800D01*
X131611504Y-109651296D01*
X131615104Y-109627027D01*
X131621065Y-109603229D01*
X131629330Y-109580129D01*
X131639820Y-109557951D01*
X131652433Y-109536907D01*
X131667047Y-109517202D01*
X131683523Y-109499023D01*
X131701702Y-109482547D01*
X131721407Y-109467933D01*
X131742451Y-109455320D01*
X131764629Y-109444830D01*
X131787729Y-109436565D01*
X131811527Y-109430604D01*
X131835796Y-109427004D01*
X131860300Y-109425800D01*
X132785300Y-109425800D01*
X132809804Y-109427004D01*
X132809804Y-109427004D01*
G37*
D12*
X132322800Y-110300800D03*
D19*
X115754000Y-129053000D03*
X110754000Y-129053000D03*
X105754000Y-129053000D03*
D20*
X100754000Y-129053000D03*
D21*
X138554000Y-97553000D03*
X141054000Y-97553000D03*
X143554000Y-97553000D03*
X146054000Y-97553000D03*
D11*
G36*
X149178504Y-96579204D02*
G01*
X149202773Y-96582804D01*
X149226571Y-96588765D01*
X149249671Y-96597030D01*
X149271849Y-96607520D01*
X149292893Y-96620133D01*
X149312598Y-96634747D01*
X149330777Y-96651223D01*
X149347253Y-96669402D01*
X149361867Y-96689107D01*
X149374480Y-96710151D01*
X149384970Y-96732329D01*
X149393235Y-96755429D01*
X149399196Y-96779227D01*
X149402796Y-96803496D01*
X149404000Y-96828000D01*
X149404000Y-98278000D01*
X149402796Y-98302504D01*
X149399196Y-98326773D01*
X149393235Y-98350571D01*
X149384970Y-98373671D01*
X149374480Y-98395849D01*
X149361867Y-98416893D01*
X149347253Y-98436598D01*
X149330777Y-98454777D01*
X149312598Y-98471253D01*
X149292893Y-98485867D01*
X149271849Y-98498480D01*
X149249671Y-98508970D01*
X149226571Y-98517235D01*
X149202773Y-98523196D01*
X149178504Y-98526796D01*
X149154000Y-98528000D01*
X147954000Y-98528000D01*
X147929496Y-98526796D01*
X147905227Y-98523196D01*
X147881429Y-98517235D01*
X147858329Y-98508970D01*
X147836151Y-98498480D01*
X147815107Y-98485867D01*
X147795402Y-98471253D01*
X147777223Y-98454777D01*
X147760747Y-98436598D01*
X147746133Y-98416893D01*
X147733520Y-98395849D01*
X147723030Y-98373671D01*
X147714765Y-98350571D01*
X147708804Y-98326773D01*
X147705204Y-98302504D01*
X147704000Y-98278000D01*
X147704000Y-96828000D01*
X147705204Y-96803496D01*
X147708804Y-96779227D01*
X147714765Y-96755429D01*
X147723030Y-96732329D01*
X147733520Y-96710151D01*
X147746133Y-96689107D01*
X147760747Y-96669402D01*
X147777223Y-96651223D01*
X147795402Y-96634747D01*
X147815107Y-96620133D01*
X147836151Y-96607520D01*
X147858329Y-96597030D01*
X147881429Y-96588765D01*
X147905227Y-96582804D01*
X147929496Y-96579204D01*
X147954000Y-96578000D01*
X149154000Y-96578000D01*
X149178504Y-96579204D01*
X149178504Y-96579204D01*
G37*
D22*
X148554000Y-97553000D03*
D19*
X94854000Y-119753000D03*
X94854000Y-114753000D03*
X94854000Y-109753000D03*
D20*
X94854000Y-104753000D03*
D19*
X101154000Y-94653000D03*
X106154000Y-94653000D03*
X111154000Y-94653000D03*
D20*
X116154000Y-94653000D03*
D21*
X148554000Y-125953000D03*
X146054000Y-125953000D03*
X143554000Y-125953000D03*
X141054000Y-125953000D03*
D11*
G36*
X139178504Y-124979204D02*
G01*
X139202773Y-124982804D01*
X139226571Y-124988765D01*
X139249671Y-124997030D01*
X139271849Y-125007520D01*
X139292893Y-125020133D01*
X139312598Y-125034747D01*
X139330777Y-125051223D01*
X139347253Y-125069402D01*
X139361867Y-125089107D01*
X139374480Y-125110151D01*
X139384970Y-125132329D01*
X139393235Y-125155429D01*
X139399196Y-125179227D01*
X139402796Y-125203496D01*
X139404000Y-125228000D01*
X139404000Y-126678000D01*
X139402796Y-126702504D01*
X139399196Y-126726773D01*
X139393235Y-126750571D01*
X139384970Y-126773671D01*
X139374480Y-126795849D01*
X139361867Y-126816893D01*
X139347253Y-126836598D01*
X139330777Y-126854777D01*
X139312598Y-126871253D01*
X139292893Y-126885867D01*
X139271849Y-126898480D01*
X139249671Y-126908970D01*
X139226571Y-126917235D01*
X139202773Y-126923196D01*
X139178504Y-126926796D01*
X139154000Y-126928000D01*
X137954000Y-126928000D01*
X137929496Y-126926796D01*
X137905227Y-126923196D01*
X137881429Y-126917235D01*
X137858329Y-126908970D01*
X137836151Y-126898480D01*
X137815107Y-126885867D01*
X137795402Y-126871253D01*
X137777223Y-126854777D01*
X137760747Y-126836598D01*
X137746133Y-126816893D01*
X137733520Y-126795849D01*
X137723030Y-126773671D01*
X137714765Y-126750571D01*
X137708804Y-126726773D01*
X137705204Y-126702504D01*
X137704000Y-126678000D01*
X137704000Y-125228000D01*
X137705204Y-125203496D01*
X137708804Y-125179227D01*
X137714765Y-125155429D01*
X137723030Y-125132329D01*
X137733520Y-125110151D01*
X137746133Y-125089107D01*
X137760747Y-125069402D01*
X137777223Y-125051223D01*
X137795402Y-125034747D01*
X137815107Y-125020133D01*
X137836151Y-125007520D01*
X137858329Y-124997030D01*
X137881429Y-124988765D01*
X137905227Y-124982804D01*
X137929496Y-124979204D01*
X137954000Y-124978000D01*
X139154000Y-124978000D01*
X139178504Y-124979204D01*
X139178504Y-124979204D01*
G37*
D22*
X138554000Y-125953000D03*
D19*
X122254000Y-94653000D03*
X127254000Y-94653000D03*
D20*
X132254000Y-94653000D03*
D19*
X132154000Y-128953000D03*
X127154000Y-128953000D03*
D20*
X122154000Y-128953000D03*
D23*
X132816600Y-105892600D03*
X117957600Y-111915200D03*
X118237000Y-120472200D03*
D24*
X160454000Y-130853000D03*
X160454000Y-92753000D03*
X93754000Y-92753000D03*
X93754000Y-130753000D03*
D25*
X119397400Y-102147400D03*
X109415200Y-118098600D03*
X112793400Y-101690200D03*
X117543200Y-114136200D03*
X151333200Y-107061000D03*
X128016000Y-124434600D03*
X113309400Y-120218200D03*
X111379000Y-105537000D03*
X115773200Y-106172000D03*
X103454200Y-116001800D03*
X99390200Y-112217200D03*
X148844000Y-114528600D03*
X136321800Y-113411000D03*
X141909800Y-105943400D03*
X113233200Y-126949200D03*
X113765581Y-104632869D03*
X127304800Y-102057200D03*
X103022400Y-105791000D03*
X146405600Y-106070400D03*
X133723000Y-119698800D03*
X104038400Y-111506000D03*
X129252600Y-115076000D03*
X113157000Y-105791000D03*
X143789400Y-109462599D03*
X129278000Y-118987600D03*
X138607800Y-116281200D03*
X134434200Y-108421200D03*
X138599800Y-112282000D03*
X149750400Y-111850200D03*
X155186000Y-111189800D03*
X156732688Y-103953512D03*
X124172600Y-115253800D03*
X149631400Y-103378000D03*
X119041800Y-109691200D03*
X137499945Y-118360255D03*
X152543456Y-116626344D03*
D26*
X118965600Y-103845400D02*
X118965600Y-102579200D01*
X118965600Y-102579200D02*
X119397400Y-102147400D01*
D27*
X108373800Y-104255600D02*
X110097600Y-104255600D01*
X110490000Y-105165800D02*
X110490000Y-104648000D01*
X109110400Y-106545400D02*
X110490000Y-105165800D01*
X109110400Y-108350200D02*
X109110400Y-106545400D01*
X110097600Y-104255600D02*
X110490000Y-104648000D01*
X110490000Y-104648000D02*
X111379000Y-105537000D01*
X115773200Y-108364000D02*
X115773200Y-106172000D01*
X114012600Y-110224600D02*
X114012600Y-110124600D01*
X114012600Y-110124600D02*
X115773200Y-108364000D01*
X135221600Y-115330000D02*
X135221600Y-114511200D01*
X135221600Y-114511200D02*
X136321800Y-113411000D01*
X128054000Y-104953000D02*
X128054000Y-102806400D01*
X128054000Y-102806400D02*
X127304800Y-102057200D01*
X105873800Y-104255600D02*
X104253000Y-104255600D01*
X105300400Y-106164000D02*
X105300400Y-108350200D01*
X104000300Y-104863900D02*
X104406700Y-105270300D01*
X104000300Y-104508300D02*
X104000300Y-104863900D01*
X104406700Y-105270300D02*
X105300400Y-106164000D01*
X104317800Y-105181400D02*
X104406700Y-105270300D01*
X104253000Y-104255600D02*
X104000300Y-104508300D01*
X104000300Y-104813100D02*
X103022400Y-105791000D01*
X104000300Y-104508300D02*
X104000300Y-104813100D01*
D26*
X106570400Y-108350200D02*
X106570400Y-110053400D01*
X104419399Y-111886999D02*
X105333799Y-111886999D01*
X104038400Y-111506000D02*
X104419399Y-111886999D01*
X105335400Y-111888600D02*
X108405600Y-111888600D01*
X105333799Y-111886999D02*
X105335400Y-111888600D01*
X106570400Y-110053400D02*
X108405600Y-111888600D01*
X133184185Y-119698800D02*
X133723000Y-119698800D01*
X133158784Y-119724201D02*
X133184185Y-119698800D01*
X125766601Y-119724201D02*
X133158784Y-119724201D01*
X117957600Y-111915200D02*
X125766601Y-119724201D01*
X117957600Y-111915200D02*
X107591600Y-111915200D01*
X126230000Y-112053400D02*
X128109600Y-113933000D01*
X128109600Y-113933000D02*
X129252600Y-115076000D01*
X125490000Y-112053400D02*
X126230000Y-112053400D01*
X119760186Y-112053400D02*
X116509801Y-108803015D01*
X116509801Y-108803015D02*
X116509801Y-105818431D01*
X116509801Y-105818431D02*
X116126769Y-105435399D01*
X116126769Y-105435399D02*
X113512601Y-105435399D01*
X113512601Y-105435399D02*
X113157000Y-105791000D01*
X125490000Y-112053400D02*
X125335000Y-112053400D01*
X125210600Y-112053400D02*
X125538200Y-112053400D01*
X125210600Y-112053400D02*
X119760186Y-112053400D01*
X125335000Y-112053400D02*
X125210600Y-112053400D01*
X131699000Y-105892600D02*
X132816600Y-105892600D01*
X125538200Y-112053400D02*
X131699000Y-105892600D01*
D27*
X142809900Y-113512600D02*
X142809900Y-110442099D01*
X142809900Y-110442099D02*
X143789400Y-109462599D01*
D26*
X128109600Y-117311200D02*
X128209600Y-117311200D01*
X128209600Y-117311200D02*
X129278000Y-118379600D01*
X146054000Y-125828000D02*
X146054000Y-125953000D01*
X144848390Y-124622390D02*
X146054000Y-125828000D01*
X142671910Y-124622390D02*
X144848390Y-124622390D01*
X135436920Y-117387400D02*
X142671910Y-124622390D01*
X129863800Y-118379600D02*
X129874900Y-118390700D01*
X129278000Y-118379600D02*
X129863800Y-118379600D01*
X129278000Y-118987600D02*
X129874900Y-118390700D01*
X129874900Y-118390700D02*
X130878200Y-117387400D01*
X135294400Y-117387400D02*
X135436920Y-117387400D01*
D27*
X137501600Y-117387400D02*
X134964200Y-117387400D01*
X138607800Y-116281200D02*
X137501600Y-117387400D01*
D26*
X130878200Y-117387400D02*
X134964200Y-117387400D01*
X134964200Y-117387400D02*
X135294400Y-117387400D01*
X135297800Y-110300800D02*
X135297800Y-109284800D01*
X135297800Y-109284800D02*
X134434200Y-108421200D01*
X132322800Y-115131200D02*
X132521600Y-115330000D01*
X132322800Y-110300800D02*
X132322800Y-115131200D01*
D27*
X138554000Y-97553000D02*
X139152168Y-97553000D01*
X153330857Y-122330943D02*
X153330857Y-114541657D01*
X148554000Y-125953000D02*
X149708800Y-125953000D01*
X149708800Y-125953000D02*
X153330857Y-122330943D01*
X152252300Y-113463100D02*
X149940900Y-113463100D01*
X153330857Y-114541657D02*
X152252300Y-113463100D01*
X152646000Y-110758000D02*
X149940900Y-113463100D01*
X152646000Y-102633400D02*
X152646000Y-110758000D01*
X151021700Y-101009100D02*
X152646000Y-102633400D01*
X139198700Y-101009100D02*
X151021700Y-101009100D01*
X138554000Y-97553000D02*
X138554000Y-100364400D01*
X138554000Y-100364400D02*
X139198700Y-101009100D01*
X149891400Y-113512600D02*
X149940900Y-113463100D01*
X145784900Y-113512600D02*
X149891400Y-113512600D01*
D26*
X155358388Y-127537610D02*
X142513610Y-127537610D01*
X158462600Y-124433398D02*
X155358388Y-127537610D01*
X147463600Y-100140800D02*
X151519056Y-100140800D01*
X141054000Y-126078000D02*
X141054000Y-125953000D01*
X151519056Y-100140800D02*
X158462600Y-107084344D01*
X146054000Y-98731200D02*
X147463600Y-100140800D01*
X146054000Y-97553000D02*
X146054000Y-98731200D01*
X142513610Y-127537610D02*
X141054000Y-126078000D01*
X146372199Y-108471999D02*
X149750400Y-111850200D01*
X138599800Y-112282000D02*
X142409801Y-108471999D01*
X142409801Y-108471999D02*
X146372199Y-108471999D01*
X158462600Y-113927585D02*
X158462600Y-114949000D01*
X155724815Y-111189800D02*
X158462600Y-113927585D01*
X155186000Y-111189800D02*
X155724815Y-111189800D01*
X158462600Y-107084344D02*
X158462600Y-114949000D01*
X158462600Y-114949000D02*
X158462600Y-124433398D01*
X153966800Y-98794600D02*
X152725200Y-97553000D01*
X138554000Y-125953000D02*
X138554000Y-128746200D01*
X138832191Y-129024391D02*
X154877409Y-129024391D01*
X138554000Y-128746200D02*
X138832191Y-129024391D01*
X154877409Y-129024391D02*
X161544399Y-122357401D01*
X153966800Y-99676490D02*
X153966800Y-98794600D01*
X152725200Y-97553000D02*
X148554000Y-97553000D01*
X161544399Y-122357401D02*
X161544399Y-107254089D01*
X156662755Y-102372445D02*
X156662755Y-103883579D01*
X156662755Y-103883579D02*
X156732688Y-103953512D01*
X156662755Y-102372445D02*
X153966800Y-99676490D01*
X161544399Y-107254089D02*
X156662755Y-102372445D01*
X125409600Y-116458000D02*
X125409600Y-117311200D01*
X125409600Y-115951985D02*
X125409600Y-116458000D01*
X124711415Y-115253800D02*
X125409600Y-115951985D01*
X124172600Y-115253800D02*
X124711415Y-115253800D01*
X125038907Y-115581293D02*
X125270216Y-115812601D01*
X124711415Y-115253800D02*
X125038907Y-115581293D01*
X147574000Y-105435400D02*
X149631400Y-103378000D01*
X146590601Y-107684599D02*
X147574000Y-106701200D01*
X147574000Y-106701200D02*
X147574000Y-105435400D01*
X128667723Y-115581293D02*
X128899031Y-115812601D01*
X132995037Y-107684599D02*
X146590601Y-107684599D01*
X125038907Y-115581293D02*
X128667723Y-115581293D01*
X128899031Y-115812601D02*
X129606169Y-115812601D01*
X129606169Y-115812601D02*
X131254690Y-114164080D01*
X131254690Y-114164080D02*
X131254690Y-109424946D01*
X131254690Y-109424946D02*
X132995037Y-107684599D01*
X118965600Y-106545400D02*
X120104800Y-106545400D01*
X120104800Y-106545400D02*
X121697200Y-104953000D01*
X121697200Y-104953000D02*
X123625400Y-104953000D01*
X123625400Y-104953000D02*
X125354000Y-104953000D01*
X119041800Y-106621600D02*
X118965600Y-106545400D01*
X119041800Y-109691200D02*
X119041800Y-106621600D01*
X138038760Y-118360255D02*
X138046415Y-118352600D01*
X137499945Y-118360255D02*
X138038760Y-118360255D01*
X138046415Y-118352600D02*
X150817200Y-118352600D01*
X150817200Y-118352600D02*
X152543456Y-116626344D01*
X109110400Y-116550200D02*
X109110400Y-115350200D01*
X108454799Y-117205801D02*
X109110400Y-116550200D01*
X94854000Y-114753000D02*
X97306801Y-117205801D01*
X97306801Y-117205801D02*
X108454799Y-117205801D01*
X105300400Y-114150200D02*
X105300400Y-115350200D01*
X100903200Y-109753000D02*
X105300400Y-114150200D01*
X94854000Y-109753000D02*
X100903200Y-109753000D01*
X113235600Y-113983800D02*
X114088800Y-113983800D01*
X112289189Y-113037389D02*
X113235600Y-113983800D01*
X107683211Y-113037389D02*
X112289189Y-113037389D01*
X106570400Y-114150200D02*
X107683211Y-113037389D01*
X106570400Y-115350200D02*
X106570400Y-114150200D01*
X113235600Y-116683800D02*
X114088800Y-116683800D01*
X110046399Y-113494599D02*
X113235600Y-116683800D01*
X108496001Y-113494599D02*
X110046399Y-113494599D01*
X107840400Y-114150200D02*
X108496001Y-113494599D01*
X107840400Y-115350200D02*
X107840400Y-114150200D01*
X114012600Y-107624600D02*
X114012600Y-107524600D01*
X111431399Y-110205801D02*
X114012600Y-107624600D01*
X107992801Y-110205801D02*
X111431399Y-110205801D01*
X107840400Y-110053400D02*
X107992801Y-110205801D01*
X107840400Y-108350200D02*
X107840400Y-110053400D01*
M02*
