G04 #@! TF.GenerationSoftware,KiCad,Pcbnew,(5.1.4)-1*
G04 #@! TF.CreationDate,2020-10-10T19:48:06-04:00*
G04 #@! TF.ProjectId,i2c_pancake,6932635f-7061-46e6-9361-6b652e6b6963,rev?*
G04 #@! TF.SameCoordinates,Original*
G04 #@! TF.FileFunction,Copper,L2,Inr*
G04 #@! TF.FilePolarity,Positive*
%FSLAX46Y46*%
G04 Gerber Fmt 4.6, Leading zero omitted, Abs format (unit mm)*
G04 Created by KiCad (PCBNEW (5.1.4)-1) date 2020-10-10 19:48:06*
%MOMM*%
%LPD*%
G04 APERTURE LIST*
%ADD10C,0.150000*%
%ADD11R,2.600000X2.600000*%
%ADD12C,2.600000*%
%ADD13C,1.524000*%
%ADD14R,1.600000X1.600000*%
%ADD15C,1.600000*%
%ADD16O,1.700000X1.950000*%
%ADD17C,0.100000*%
%ADD18C,1.700000*%
%ADD19C,6.400000*%
%ADD20C,0.762000*%
%ADD21C,0.254000*%
G04 APERTURE END LIST*
D10*
X89662000Y-134239000D02*
X164554000Y-134239000D01*
X89662000Y-89253000D02*
X164554000Y-89253000D01*
X164554000Y-89253000D02*
X164554000Y-134239000D01*
X89662000Y-89253000D02*
X89662000Y-134239000D01*
D11*
X132461000Y-94615000D03*
D12*
X127461000Y-94615000D03*
X122461000Y-94615000D03*
X132154000Y-128953000D03*
X127154000Y-128953000D03*
D11*
X122154000Y-128953000D03*
D13*
X154609800Y-94821000D03*
X154686000Y-91744800D03*
D14*
X162954000Y-125353000D03*
D15*
X162954000Y-122813000D03*
X162954000Y-120273000D03*
X162954000Y-117733000D03*
X155334000Y-117733000D03*
X155334000Y-120273000D03*
X155334000Y-122813000D03*
X155334000Y-125353000D03*
D12*
X115754000Y-129053000D03*
X110754000Y-129053000D03*
X105754000Y-129053000D03*
D11*
X100754000Y-129053000D03*
D16*
X138554000Y-97553000D03*
X141054000Y-97553000D03*
X143554000Y-97553000D03*
X146054000Y-97553000D03*
D17*
G36*
X149178504Y-96579204D02*
G01*
X149202773Y-96582804D01*
X149226571Y-96588765D01*
X149249671Y-96597030D01*
X149271849Y-96607520D01*
X149292893Y-96620133D01*
X149312598Y-96634747D01*
X149330777Y-96651223D01*
X149347253Y-96669402D01*
X149361867Y-96689107D01*
X149374480Y-96710151D01*
X149384970Y-96732329D01*
X149393235Y-96755429D01*
X149399196Y-96779227D01*
X149402796Y-96803496D01*
X149404000Y-96828000D01*
X149404000Y-98278000D01*
X149402796Y-98302504D01*
X149399196Y-98326773D01*
X149393235Y-98350571D01*
X149384970Y-98373671D01*
X149374480Y-98395849D01*
X149361867Y-98416893D01*
X149347253Y-98436598D01*
X149330777Y-98454777D01*
X149312598Y-98471253D01*
X149292893Y-98485867D01*
X149271849Y-98498480D01*
X149249671Y-98508970D01*
X149226571Y-98517235D01*
X149202773Y-98523196D01*
X149178504Y-98526796D01*
X149154000Y-98528000D01*
X147954000Y-98528000D01*
X147929496Y-98526796D01*
X147905227Y-98523196D01*
X147881429Y-98517235D01*
X147858329Y-98508970D01*
X147836151Y-98498480D01*
X147815107Y-98485867D01*
X147795402Y-98471253D01*
X147777223Y-98454777D01*
X147760747Y-98436598D01*
X147746133Y-98416893D01*
X147733520Y-98395849D01*
X147723030Y-98373671D01*
X147714765Y-98350571D01*
X147708804Y-98326773D01*
X147705204Y-98302504D01*
X147704000Y-98278000D01*
X147704000Y-96828000D01*
X147705204Y-96803496D01*
X147708804Y-96779227D01*
X147714765Y-96755429D01*
X147723030Y-96732329D01*
X147733520Y-96710151D01*
X147746133Y-96689107D01*
X147760747Y-96669402D01*
X147777223Y-96651223D01*
X147795402Y-96634747D01*
X147815107Y-96620133D01*
X147836151Y-96607520D01*
X147858329Y-96597030D01*
X147881429Y-96588765D01*
X147905227Y-96582804D01*
X147929496Y-96579204D01*
X147954000Y-96578000D01*
X149154000Y-96578000D01*
X149178504Y-96579204D01*
X149178504Y-96579204D01*
G37*
D18*
X148554000Y-97553000D03*
D12*
X94854000Y-119753000D03*
X94854000Y-114753000D03*
X94854000Y-109753000D03*
D11*
X94854000Y-104753000D03*
D12*
X101154000Y-94653000D03*
X106154000Y-94653000D03*
X111154000Y-94653000D03*
D11*
X116154000Y-94653000D03*
D16*
X148554000Y-125953000D03*
X146054000Y-125953000D03*
X143554000Y-125953000D03*
X141054000Y-125953000D03*
D17*
G36*
X139178504Y-124979204D02*
G01*
X139202773Y-124982804D01*
X139226571Y-124988765D01*
X139249671Y-124997030D01*
X139271849Y-125007520D01*
X139292893Y-125020133D01*
X139312598Y-125034747D01*
X139330777Y-125051223D01*
X139347253Y-125069402D01*
X139361867Y-125089107D01*
X139374480Y-125110151D01*
X139384970Y-125132329D01*
X139393235Y-125155429D01*
X139399196Y-125179227D01*
X139402796Y-125203496D01*
X139404000Y-125228000D01*
X139404000Y-126678000D01*
X139402796Y-126702504D01*
X139399196Y-126726773D01*
X139393235Y-126750571D01*
X139384970Y-126773671D01*
X139374480Y-126795849D01*
X139361867Y-126816893D01*
X139347253Y-126836598D01*
X139330777Y-126854777D01*
X139312598Y-126871253D01*
X139292893Y-126885867D01*
X139271849Y-126898480D01*
X139249671Y-126908970D01*
X139226571Y-126917235D01*
X139202773Y-126923196D01*
X139178504Y-126926796D01*
X139154000Y-126928000D01*
X137954000Y-126928000D01*
X137929496Y-126926796D01*
X137905227Y-126923196D01*
X137881429Y-126917235D01*
X137858329Y-126908970D01*
X137836151Y-126898480D01*
X137815107Y-126885867D01*
X137795402Y-126871253D01*
X137777223Y-126854777D01*
X137760747Y-126836598D01*
X137746133Y-126816893D01*
X137733520Y-126795849D01*
X137723030Y-126773671D01*
X137714765Y-126750571D01*
X137708804Y-126726773D01*
X137705204Y-126702504D01*
X137704000Y-126678000D01*
X137704000Y-125228000D01*
X137705204Y-125203496D01*
X137708804Y-125179227D01*
X137714765Y-125155429D01*
X137723030Y-125132329D01*
X137733520Y-125110151D01*
X137746133Y-125089107D01*
X137760747Y-125069402D01*
X137777223Y-125051223D01*
X137795402Y-125034747D01*
X137815107Y-125020133D01*
X137836151Y-125007520D01*
X137858329Y-124997030D01*
X137881429Y-124988765D01*
X137905227Y-124982804D01*
X137929496Y-124979204D01*
X137954000Y-124978000D01*
X139154000Y-124978000D01*
X139178504Y-124979204D01*
X139178504Y-124979204D01*
G37*
D18*
X138554000Y-125953000D03*
D13*
X136245600Y-106629200D03*
X135382000Y-119989600D03*
X118237000Y-120472200D03*
D19*
X160454000Y-130853000D03*
X160454000Y-92753000D03*
X93754000Y-92753000D03*
X93754000Y-130753000D03*
D20*
X124485400Y-119100600D03*
X133146800Y-123926600D03*
X113792000Y-120751600D03*
X98628200Y-117043200D03*
X119938800Y-96926400D03*
X155219400Y-104266999D03*
X134797800Y-113588800D03*
X99949000Y-109753400D03*
X103936800Y-106756200D03*
X123444000Y-113106200D03*
X109245400Y-118313200D03*
X111937800Y-119151400D03*
X113461800Y-98602800D03*
X117119400Y-104571800D03*
X112166400Y-107746800D03*
X120523000Y-107035600D03*
X120396000Y-104444800D03*
X116382800Y-112750600D03*
X109982000Y-105054400D03*
X145288000Y-114706400D03*
X107365800Y-125349000D03*
X123723400Y-107442000D03*
X148132800Y-109397800D03*
X104292400Y-104908599D03*
X112293400Y-104470200D03*
X125476000Y-122656600D03*
X119659400Y-111099600D03*
X132207155Y-121996189D03*
X122428000Y-107340400D03*
X136956800Y-98399601D03*
X110483867Y-106258994D03*
X140208000Y-109169200D03*
X155549600Y-102311200D03*
X145135600Y-120624600D03*
X137007600Y-108737400D03*
X157595206Y-107731477D03*
X145161000Y-108305600D03*
X132410200Y-107086400D03*
X158673800Y-107061000D03*
X159588200Y-125857000D03*
X148209000Y-93218000D03*
X146405600Y-107594400D03*
X135686800Y-112090200D03*
X146380200Y-106248199D03*
X133934200Y-112166400D03*
X124180600Y-115468400D03*
X141681200Y-99517200D03*
X129209800Y-110363000D03*
X136245600Y-113868200D03*
X111887000Y-114231199D03*
X108102400Y-112699800D03*
X152146000Y-126746000D03*
X157911800Y-122021600D03*
X126873476Y-115061524D03*
X107950000Y-111353600D03*
D21*
G36*
X157475161Y-90308330D02*
G01*
X157055467Y-90936446D01*
X156766377Y-91634372D01*
X156619000Y-92375285D01*
X156619000Y-93130715D01*
X156766377Y-93871628D01*
X157055467Y-94569554D01*
X157475161Y-95197670D01*
X158009330Y-95731839D01*
X158637446Y-96151533D01*
X159335372Y-96440623D01*
X160076285Y-96588000D01*
X160831715Y-96588000D01*
X161572628Y-96440623D01*
X162270554Y-96151533D01*
X162898670Y-95731839D01*
X163432839Y-95197670D01*
X163844000Y-94582324D01*
X163844001Y-116663392D01*
X163767097Y-116740296D01*
X163695514Y-116496329D01*
X163440004Y-116375429D01*
X163165816Y-116306700D01*
X162883488Y-116292783D01*
X162603870Y-116334213D01*
X162337708Y-116429397D01*
X162212486Y-116496329D01*
X162140903Y-116740298D01*
X162954000Y-117553395D01*
X162968143Y-117539253D01*
X163147748Y-117718858D01*
X163133605Y-117733000D01*
X163147748Y-117747143D01*
X162968143Y-117926748D01*
X162954000Y-117912605D01*
X162140903Y-118725702D01*
X162212486Y-118969671D01*
X162278636Y-119000971D01*
X162212486Y-119036329D01*
X162140903Y-119280298D01*
X162954000Y-120093395D01*
X162968143Y-120079253D01*
X163147748Y-120258858D01*
X163133605Y-120273000D01*
X163147748Y-120287143D01*
X162968143Y-120466748D01*
X162954000Y-120452605D01*
X162140903Y-121265702D01*
X162212486Y-121509671D01*
X162278636Y-121540971D01*
X162212486Y-121576329D01*
X162140903Y-121820298D01*
X162954000Y-122633395D01*
X162968143Y-122619253D01*
X163147748Y-122798858D01*
X163133605Y-122813000D01*
X163147748Y-122827143D01*
X162968143Y-123006748D01*
X162954000Y-122992605D01*
X162140903Y-123805702D01*
X162172984Y-123915041D01*
X162154000Y-123914928D01*
X162029518Y-123927188D01*
X161909820Y-123963498D01*
X161799506Y-124022463D01*
X161702815Y-124101815D01*
X161623463Y-124198506D01*
X161564498Y-124308820D01*
X161528188Y-124428518D01*
X161515928Y-124553000D01*
X161519000Y-125067250D01*
X161677750Y-125226000D01*
X162827000Y-125226000D01*
X162827000Y-125206000D01*
X163081000Y-125206000D01*
X163081000Y-125226000D01*
X163101000Y-125226000D01*
X163101000Y-125480000D01*
X163081000Y-125480000D01*
X163081000Y-126629250D01*
X163239750Y-126788000D01*
X163754000Y-126791072D01*
X163844001Y-126782208D01*
X163844001Y-129023677D01*
X163432839Y-128408330D01*
X162898670Y-127874161D01*
X162270554Y-127454467D01*
X161572628Y-127165377D01*
X160831715Y-127018000D01*
X160076285Y-127018000D01*
X159335372Y-127165377D01*
X158637446Y-127454467D01*
X158009330Y-127874161D01*
X157475161Y-128408330D01*
X157055467Y-129036446D01*
X156766377Y-129734372D01*
X156619000Y-130475285D01*
X156619000Y-131230715D01*
X156766377Y-131971628D01*
X157055467Y-132669554D01*
X157475161Y-133297670D01*
X157706491Y-133529000D01*
X96401509Y-133529000D01*
X96732839Y-133197670D01*
X97152533Y-132569554D01*
X97441623Y-131871628D01*
X97589000Y-131130715D01*
X97589000Y-130375285D01*
X97441623Y-129634372D01*
X97152533Y-128936446D01*
X96732839Y-128308330D01*
X96198670Y-127774161D01*
X96167001Y-127753000D01*
X98815928Y-127753000D01*
X98815928Y-130353000D01*
X98828188Y-130477482D01*
X98864498Y-130597180D01*
X98923463Y-130707494D01*
X99002815Y-130804185D01*
X99099506Y-130883537D01*
X99209820Y-130942502D01*
X99329518Y-130978812D01*
X99454000Y-130991072D01*
X102054000Y-130991072D01*
X102178482Y-130978812D01*
X102298180Y-130942502D01*
X102408494Y-130883537D01*
X102505185Y-130804185D01*
X102584537Y-130707494D01*
X102643502Y-130597180D01*
X102679812Y-130477482D01*
X102692072Y-130353000D01*
X102692072Y-128862419D01*
X103819000Y-128862419D01*
X103819000Y-129243581D01*
X103893361Y-129617419D01*
X104039225Y-129969566D01*
X104250987Y-130286491D01*
X104520509Y-130556013D01*
X104837434Y-130767775D01*
X105189581Y-130913639D01*
X105563419Y-130988000D01*
X105944581Y-130988000D01*
X106318419Y-130913639D01*
X106670566Y-130767775D01*
X106987491Y-130556013D01*
X107257013Y-130286491D01*
X107468775Y-129969566D01*
X107614639Y-129617419D01*
X107689000Y-129243581D01*
X107689000Y-128862419D01*
X108819000Y-128862419D01*
X108819000Y-129243581D01*
X108893361Y-129617419D01*
X109039225Y-129969566D01*
X109250987Y-130286491D01*
X109520509Y-130556013D01*
X109837434Y-130767775D01*
X110189581Y-130913639D01*
X110563419Y-130988000D01*
X110944581Y-130988000D01*
X111318419Y-130913639D01*
X111670566Y-130767775D01*
X111987491Y-130556013D01*
X112141280Y-130402224D01*
X114584381Y-130402224D01*
X114716317Y-130697312D01*
X115057045Y-130868159D01*
X115424557Y-130969250D01*
X115804729Y-130996701D01*
X116182951Y-130949457D01*
X116544690Y-130829333D01*
X116791683Y-130697312D01*
X116923619Y-130402224D01*
X115754000Y-129232605D01*
X114584381Y-130402224D01*
X112141280Y-130402224D01*
X112257013Y-130286491D01*
X112468775Y-129969566D01*
X112614639Y-129617419D01*
X112689000Y-129243581D01*
X112689000Y-129103729D01*
X113810299Y-129103729D01*
X113857543Y-129481951D01*
X113977667Y-129843690D01*
X114109688Y-130090683D01*
X114404776Y-130222619D01*
X115574395Y-129053000D01*
X115933605Y-129053000D01*
X117103224Y-130222619D01*
X117398312Y-130090683D01*
X117569159Y-129749955D01*
X117670250Y-129382443D01*
X117697701Y-129002271D01*
X117650457Y-128624049D01*
X117530333Y-128262310D01*
X117398312Y-128015317D01*
X117103224Y-127883381D01*
X115933605Y-129053000D01*
X115574395Y-129053000D01*
X114404776Y-127883381D01*
X114109688Y-128015317D01*
X113938841Y-128356045D01*
X113837750Y-128723557D01*
X113810299Y-129103729D01*
X112689000Y-129103729D01*
X112689000Y-128862419D01*
X112614639Y-128488581D01*
X112468775Y-128136434D01*
X112257013Y-127819509D01*
X112141280Y-127703776D01*
X114584381Y-127703776D01*
X115754000Y-128873395D01*
X116923619Y-127703776D01*
X116900917Y-127653000D01*
X120215928Y-127653000D01*
X120215928Y-130253000D01*
X120228188Y-130377482D01*
X120264498Y-130497180D01*
X120323463Y-130607494D01*
X120402815Y-130704185D01*
X120499506Y-130783537D01*
X120609820Y-130842502D01*
X120729518Y-130878812D01*
X120854000Y-130891072D01*
X123454000Y-130891072D01*
X123578482Y-130878812D01*
X123698180Y-130842502D01*
X123808494Y-130783537D01*
X123905185Y-130704185D01*
X123984537Y-130607494D01*
X124043502Y-130497180D01*
X124079812Y-130377482D01*
X124087224Y-130302224D01*
X125984381Y-130302224D01*
X126116317Y-130597312D01*
X126457045Y-130768159D01*
X126824557Y-130869250D01*
X127204729Y-130896701D01*
X127582951Y-130849457D01*
X127944690Y-130729333D01*
X128191683Y-130597312D01*
X128323619Y-130302224D01*
X127154000Y-129132605D01*
X125984381Y-130302224D01*
X124087224Y-130302224D01*
X124092072Y-130253000D01*
X124092072Y-129003729D01*
X125210299Y-129003729D01*
X125257543Y-129381951D01*
X125377667Y-129743690D01*
X125509688Y-129990683D01*
X125804776Y-130122619D01*
X126974395Y-128953000D01*
X127333605Y-128953000D01*
X128503224Y-130122619D01*
X128798312Y-129990683D01*
X128969159Y-129649955D01*
X129070250Y-129282443D01*
X129097701Y-128902271D01*
X129080232Y-128762419D01*
X130219000Y-128762419D01*
X130219000Y-129143581D01*
X130293361Y-129517419D01*
X130439225Y-129869566D01*
X130650987Y-130186491D01*
X130920509Y-130456013D01*
X131237434Y-130667775D01*
X131589581Y-130813639D01*
X131963419Y-130888000D01*
X132344581Y-130888000D01*
X132718419Y-130813639D01*
X133070566Y-130667775D01*
X133387491Y-130456013D01*
X133657013Y-130186491D01*
X133868775Y-129869566D01*
X134014639Y-129517419D01*
X134089000Y-129143581D01*
X134089000Y-128762419D01*
X134014639Y-128388581D01*
X133868775Y-128036434D01*
X133657013Y-127719509D01*
X133387491Y-127449987D01*
X133070566Y-127238225D01*
X132718419Y-127092361D01*
X132344581Y-127018000D01*
X131963419Y-127018000D01*
X131589581Y-127092361D01*
X131237434Y-127238225D01*
X130920509Y-127449987D01*
X130650987Y-127719509D01*
X130439225Y-128036434D01*
X130293361Y-128388581D01*
X130219000Y-128762419D01*
X129080232Y-128762419D01*
X129050457Y-128524049D01*
X128930333Y-128162310D01*
X128798312Y-127915317D01*
X128503224Y-127783381D01*
X127333605Y-128953000D01*
X126974395Y-128953000D01*
X125804776Y-127783381D01*
X125509688Y-127915317D01*
X125338841Y-128256045D01*
X125237750Y-128623557D01*
X125210299Y-129003729D01*
X124092072Y-129003729D01*
X124092072Y-127653000D01*
X124087225Y-127603776D01*
X125984381Y-127603776D01*
X127154000Y-128773395D01*
X128323619Y-127603776D01*
X128191683Y-127308688D01*
X127850955Y-127137841D01*
X127483443Y-127036750D01*
X127103271Y-127009299D01*
X126725049Y-127056543D01*
X126363310Y-127176667D01*
X126116317Y-127308688D01*
X125984381Y-127603776D01*
X124087225Y-127603776D01*
X124079812Y-127528518D01*
X124043502Y-127408820D01*
X123984537Y-127298506D01*
X123905185Y-127201815D01*
X123808494Y-127122463D01*
X123698180Y-127063498D01*
X123578482Y-127027188D01*
X123454000Y-127014928D01*
X120854000Y-127014928D01*
X120729518Y-127027188D01*
X120609820Y-127063498D01*
X120499506Y-127122463D01*
X120402815Y-127201815D01*
X120323463Y-127298506D01*
X120264498Y-127408820D01*
X120228188Y-127528518D01*
X120215928Y-127653000D01*
X116900917Y-127653000D01*
X116791683Y-127408688D01*
X116450955Y-127237841D01*
X116083443Y-127136750D01*
X115703271Y-127109299D01*
X115325049Y-127156543D01*
X114963310Y-127276667D01*
X114716317Y-127408688D01*
X114584381Y-127703776D01*
X112141280Y-127703776D01*
X111987491Y-127549987D01*
X111670566Y-127338225D01*
X111318419Y-127192361D01*
X110944581Y-127118000D01*
X110563419Y-127118000D01*
X110189581Y-127192361D01*
X109837434Y-127338225D01*
X109520509Y-127549987D01*
X109250987Y-127819509D01*
X109039225Y-128136434D01*
X108893361Y-128488581D01*
X108819000Y-128862419D01*
X107689000Y-128862419D01*
X107614639Y-128488581D01*
X107468775Y-128136434D01*
X107257013Y-127819509D01*
X106987491Y-127549987D01*
X106670566Y-127338225D01*
X106318419Y-127192361D01*
X105944581Y-127118000D01*
X105563419Y-127118000D01*
X105189581Y-127192361D01*
X104837434Y-127338225D01*
X104520509Y-127549987D01*
X104250987Y-127819509D01*
X104039225Y-128136434D01*
X103893361Y-128488581D01*
X103819000Y-128862419D01*
X102692072Y-128862419D01*
X102692072Y-127753000D01*
X102679812Y-127628518D01*
X102643502Y-127508820D01*
X102584537Y-127398506D01*
X102505185Y-127301815D01*
X102408494Y-127222463D01*
X102298180Y-127163498D01*
X102178482Y-127127188D01*
X102054000Y-127114928D01*
X99454000Y-127114928D01*
X99329518Y-127127188D01*
X99209820Y-127163498D01*
X99099506Y-127222463D01*
X99002815Y-127301815D01*
X98923463Y-127398506D01*
X98864498Y-127508820D01*
X98828188Y-127628518D01*
X98815928Y-127753000D01*
X96167001Y-127753000D01*
X95570554Y-127354467D01*
X94872628Y-127065377D01*
X94131715Y-126918000D01*
X93376285Y-126918000D01*
X92635372Y-127065377D01*
X91937446Y-127354467D01*
X91309330Y-127774161D01*
X90775161Y-128308330D01*
X90372000Y-128911703D01*
X90372000Y-125248933D01*
X106349800Y-125248933D01*
X106349800Y-125449067D01*
X106388844Y-125645356D01*
X106465432Y-125830256D01*
X106576621Y-125996662D01*
X106718138Y-126138179D01*
X106884544Y-126249368D01*
X107069444Y-126325956D01*
X107265733Y-126365000D01*
X107465867Y-126365000D01*
X107662156Y-126325956D01*
X107847056Y-126249368D01*
X108013462Y-126138179D01*
X108154979Y-125996662D01*
X108266168Y-125830256D01*
X108342756Y-125645356D01*
X108381800Y-125449067D01*
X108381800Y-125248933D01*
X108377637Y-125228000D01*
X137065928Y-125228000D01*
X137065928Y-126678000D01*
X137082992Y-126851254D01*
X137133528Y-127017850D01*
X137215595Y-127171386D01*
X137326038Y-127305962D01*
X137460614Y-127416405D01*
X137614150Y-127498472D01*
X137780746Y-127549008D01*
X137954000Y-127566072D01*
X139154000Y-127566072D01*
X139327254Y-127549008D01*
X139493850Y-127498472D01*
X139647386Y-127416405D01*
X139781962Y-127305962D01*
X139892405Y-127171386D01*
X139946777Y-127069663D01*
X139998866Y-127133134D01*
X140224987Y-127318706D01*
X140482967Y-127456599D01*
X140762890Y-127541513D01*
X141054000Y-127570185D01*
X141345111Y-127541513D01*
X141625034Y-127456599D01*
X141883014Y-127318706D01*
X142109134Y-127133134D01*
X142294706Y-126907014D01*
X142308462Y-126881278D01*
X142464951Y-127087429D01*
X142682807Y-127280496D01*
X142934142Y-127427352D01*
X143197110Y-127519476D01*
X143427000Y-127398155D01*
X143427000Y-126080000D01*
X143407000Y-126080000D01*
X143407000Y-125826000D01*
X143427000Y-125826000D01*
X143427000Y-124507845D01*
X143681000Y-124507845D01*
X143681000Y-125826000D01*
X143701000Y-125826000D01*
X143701000Y-126080000D01*
X143681000Y-126080000D01*
X143681000Y-127398155D01*
X143910890Y-127519476D01*
X144173858Y-127427352D01*
X144425193Y-127280496D01*
X144643049Y-127087429D01*
X144799538Y-126881278D01*
X144813294Y-126907014D01*
X144998866Y-127133134D01*
X145224987Y-127318706D01*
X145482967Y-127456599D01*
X145762890Y-127541513D01*
X146054000Y-127570185D01*
X146345111Y-127541513D01*
X146625034Y-127456599D01*
X146883014Y-127318706D01*
X147109134Y-127133134D01*
X147294706Y-126907014D01*
X147304000Y-126889626D01*
X147313294Y-126907014D01*
X147498866Y-127133134D01*
X147724987Y-127318706D01*
X147982967Y-127456599D01*
X148262890Y-127541513D01*
X148554000Y-127570185D01*
X148845111Y-127541513D01*
X149125034Y-127456599D01*
X149383014Y-127318706D01*
X149609134Y-127133134D01*
X149794706Y-126907014D01*
X149932599Y-126649033D01*
X149933539Y-126645933D01*
X151130000Y-126645933D01*
X151130000Y-126846067D01*
X151169044Y-127042356D01*
X151245632Y-127227256D01*
X151356821Y-127393662D01*
X151498338Y-127535179D01*
X151664744Y-127646368D01*
X151849644Y-127722956D01*
X152045933Y-127762000D01*
X152246067Y-127762000D01*
X152442356Y-127722956D01*
X152627256Y-127646368D01*
X152793662Y-127535179D01*
X152935179Y-127393662D01*
X153046368Y-127227256D01*
X153122956Y-127042356D01*
X153162000Y-126846067D01*
X153162000Y-126645933D01*
X153122956Y-126449644D01*
X153046368Y-126264744D01*
X152935179Y-126098338D01*
X152793662Y-125956821D01*
X152627256Y-125845632D01*
X152442356Y-125769044D01*
X152246067Y-125730000D01*
X152045933Y-125730000D01*
X151849644Y-125769044D01*
X151664744Y-125845632D01*
X151498338Y-125956821D01*
X151356821Y-126098338D01*
X151245632Y-126264744D01*
X151169044Y-126449644D01*
X151130000Y-126645933D01*
X149933539Y-126645933D01*
X150017513Y-126369110D01*
X150039000Y-126150949D01*
X150039000Y-125755050D01*
X150017513Y-125536889D01*
X149932599Y-125256966D01*
X149794706Y-124998986D01*
X149609134Y-124772866D01*
X149383013Y-124587294D01*
X149125033Y-124449401D01*
X148845110Y-124364487D01*
X148554000Y-124335815D01*
X148262889Y-124364487D01*
X147982966Y-124449401D01*
X147724986Y-124587294D01*
X147498866Y-124772866D01*
X147313294Y-124998987D01*
X147304000Y-125016374D01*
X147294706Y-124998986D01*
X147109134Y-124772866D01*
X146883013Y-124587294D01*
X146625033Y-124449401D01*
X146345110Y-124364487D01*
X146054000Y-124335815D01*
X145762889Y-124364487D01*
X145482966Y-124449401D01*
X145224986Y-124587294D01*
X144998866Y-124772866D01*
X144813294Y-124998987D01*
X144799538Y-125024722D01*
X144643049Y-124818571D01*
X144425193Y-124625504D01*
X144173858Y-124478648D01*
X143910890Y-124386524D01*
X143681000Y-124507845D01*
X143427000Y-124507845D01*
X143197110Y-124386524D01*
X142934142Y-124478648D01*
X142682807Y-124625504D01*
X142464951Y-124818571D01*
X142308462Y-125024722D01*
X142294706Y-124998986D01*
X142109134Y-124772866D01*
X141883013Y-124587294D01*
X141625033Y-124449401D01*
X141345110Y-124364487D01*
X141054000Y-124335815D01*
X140762889Y-124364487D01*
X140482966Y-124449401D01*
X140224986Y-124587294D01*
X139998866Y-124772866D01*
X139946777Y-124836337D01*
X139892405Y-124734614D01*
X139781962Y-124600038D01*
X139647386Y-124489595D01*
X139493850Y-124407528D01*
X139327254Y-124356992D01*
X139154000Y-124339928D01*
X137954000Y-124339928D01*
X137780746Y-124356992D01*
X137614150Y-124407528D01*
X137460614Y-124489595D01*
X137326038Y-124600038D01*
X137215595Y-124734614D01*
X137133528Y-124888150D01*
X137082992Y-125054746D01*
X137065928Y-125228000D01*
X108377637Y-125228000D01*
X108342756Y-125052644D01*
X108266168Y-124867744D01*
X108154979Y-124701338D01*
X108013462Y-124559821D01*
X107847056Y-124448632D01*
X107662156Y-124372044D01*
X107465867Y-124333000D01*
X107265733Y-124333000D01*
X107069444Y-124372044D01*
X106884544Y-124448632D01*
X106718138Y-124559821D01*
X106576621Y-124701338D01*
X106465432Y-124867744D01*
X106388844Y-125052644D01*
X106349800Y-125248933D01*
X90372000Y-125248933D01*
X90372000Y-122556533D01*
X124460000Y-122556533D01*
X124460000Y-122756667D01*
X124499044Y-122952956D01*
X124575632Y-123137856D01*
X124686821Y-123304262D01*
X124828338Y-123445779D01*
X124994744Y-123556968D01*
X125179644Y-123633556D01*
X125375933Y-123672600D01*
X125576067Y-123672600D01*
X125772356Y-123633556D01*
X125957256Y-123556968D01*
X126123662Y-123445779D01*
X126265179Y-123304262D01*
X126376368Y-123137856D01*
X126452956Y-122952956D01*
X126492000Y-122756667D01*
X126492000Y-122556533D01*
X126452956Y-122360244D01*
X126376368Y-122175344D01*
X126265179Y-122008938D01*
X126152363Y-121896122D01*
X131191155Y-121896122D01*
X131191155Y-122096256D01*
X131230199Y-122292545D01*
X131306787Y-122477445D01*
X131417976Y-122643851D01*
X131559493Y-122785368D01*
X131725899Y-122896557D01*
X131910799Y-122973145D01*
X132107088Y-123012189D01*
X132307222Y-123012189D01*
X132503511Y-122973145D01*
X132688411Y-122896557D01*
X132854817Y-122785368D01*
X132996334Y-122643851D01*
X133107523Y-122477445D01*
X133184111Y-122292545D01*
X133223155Y-122096256D01*
X133223155Y-121896122D01*
X133184111Y-121699833D01*
X133107523Y-121514933D01*
X132996334Y-121348527D01*
X132854817Y-121207010D01*
X132688411Y-121095821D01*
X132503511Y-121019233D01*
X132307222Y-120980189D01*
X132107088Y-120980189D01*
X131910799Y-121019233D01*
X131725899Y-121095821D01*
X131559493Y-121207010D01*
X131417976Y-121348527D01*
X131306787Y-121514933D01*
X131230199Y-121699833D01*
X131191155Y-121896122D01*
X126152363Y-121896122D01*
X126123662Y-121867421D01*
X125957256Y-121756232D01*
X125772356Y-121679644D01*
X125576067Y-121640600D01*
X125375933Y-121640600D01*
X125179644Y-121679644D01*
X124994744Y-121756232D01*
X124828338Y-121867421D01*
X124686821Y-122008938D01*
X124575632Y-122175344D01*
X124499044Y-122360244D01*
X124460000Y-122556533D01*
X90372000Y-122556533D01*
X90372000Y-121102224D01*
X93684381Y-121102224D01*
X93816317Y-121397312D01*
X94157045Y-121568159D01*
X94524557Y-121669250D01*
X94904729Y-121696701D01*
X95282951Y-121649457D01*
X95644690Y-121529333D01*
X95891683Y-121397312D01*
X96023619Y-121102224D01*
X94854000Y-119932605D01*
X93684381Y-121102224D01*
X90372000Y-121102224D01*
X90372000Y-119803729D01*
X92910299Y-119803729D01*
X92957543Y-120181951D01*
X93077667Y-120543690D01*
X93209688Y-120790683D01*
X93504776Y-120922619D01*
X94674395Y-119753000D01*
X95033605Y-119753000D01*
X96203224Y-120922619D01*
X96498312Y-120790683D01*
X96669159Y-120449955D01*
X96700887Y-120334608D01*
X116840000Y-120334608D01*
X116840000Y-120609792D01*
X116893686Y-120879690D01*
X116998995Y-121133927D01*
X117151880Y-121362735D01*
X117346465Y-121557320D01*
X117575273Y-121710205D01*
X117829510Y-121815514D01*
X118099408Y-121869200D01*
X118374592Y-121869200D01*
X118644490Y-121815514D01*
X118898727Y-121710205D01*
X119127535Y-121557320D01*
X119322120Y-121362735D01*
X119475005Y-121133927D01*
X119580314Y-120879690D01*
X119634000Y-120609792D01*
X119634000Y-120334608D01*
X119580314Y-120064710D01*
X119492210Y-119852008D01*
X133985000Y-119852008D01*
X133985000Y-120127192D01*
X134038686Y-120397090D01*
X134143995Y-120651327D01*
X134296880Y-120880135D01*
X134491465Y-121074720D01*
X134720273Y-121227605D01*
X134974510Y-121332914D01*
X135244408Y-121386600D01*
X135519592Y-121386600D01*
X135789490Y-121332914D01*
X136043727Y-121227605D01*
X136272535Y-121074720D01*
X136467120Y-120880135D01*
X136620005Y-120651327D01*
X136672525Y-120524533D01*
X144119600Y-120524533D01*
X144119600Y-120724667D01*
X144158644Y-120920956D01*
X144235232Y-121105856D01*
X144346421Y-121272262D01*
X144487938Y-121413779D01*
X144654344Y-121524968D01*
X144839244Y-121601556D01*
X145035533Y-121640600D01*
X145235667Y-121640600D01*
X145431956Y-121601556D01*
X145616856Y-121524968D01*
X145783262Y-121413779D01*
X145924779Y-121272262D01*
X146035968Y-121105856D01*
X146112556Y-120920956D01*
X146151600Y-120724667D01*
X146151600Y-120524533D01*
X146112556Y-120328244D01*
X146035968Y-120143344D01*
X145924779Y-119976938D01*
X145783262Y-119835421D01*
X145616856Y-119724232D01*
X145431956Y-119647644D01*
X145235667Y-119608600D01*
X145035533Y-119608600D01*
X144839244Y-119647644D01*
X144654344Y-119724232D01*
X144487938Y-119835421D01*
X144346421Y-119976938D01*
X144235232Y-120143344D01*
X144158644Y-120328244D01*
X144119600Y-120524533D01*
X136672525Y-120524533D01*
X136725314Y-120397090D01*
X136779000Y-120127192D01*
X136779000Y-119852008D01*
X136725314Y-119582110D01*
X136620005Y-119327873D01*
X136467120Y-119099065D01*
X136272535Y-118904480D01*
X136043727Y-118751595D01*
X135789490Y-118646286D01*
X135519592Y-118592600D01*
X135244408Y-118592600D01*
X134974510Y-118646286D01*
X134720273Y-118751595D01*
X134491465Y-118904480D01*
X134296880Y-119099065D01*
X134143995Y-119327873D01*
X134038686Y-119582110D01*
X133985000Y-119852008D01*
X119492210Y-119852008D01*
X119475005Y-119810473D01*
X119322120Y-119581665D01*
X119127535Y-119387080D01*
X118898727Y-119234195D01*
X118644490Y-119128886D01*
X118374592Y-119075200D01*
X118099408Y-119075200D01*
X117829510Y-119128886D01*
X117575273Y-119234195D01*
X117346465Y-119387080D01*
X117151880Y-119581665D01*
X116998995Y-119810473D01*
X116893686Y-120064710D01*
X116840000Y-120334608D01*
X96700887Y-120334608D01*
X96770250Y-120082443D01*
X96797701Y-119702271D01*
X96750457Y-119324049D01*
X96630333Y-118962310D01*
X96498312Y-118715317D01*
X96203224Y-118583381D01*
X95033605Y-119753000D01*
X94674395Y-119753000D01*
X93504776Y-118583381D01*
X93209688Y-118715317D01*
X93038841Y-119056045D01*
X92937750Y-119423557D01*
X92910299Y-119803729D01*
X90372000Y-119803729D01*
X90372000Y-118403776D01*
X93684381Y-118403776D01*
X94854000Y-119573395D01*
X96023619Y-118403776D01*
X95891683Y-118108688D01*
X95550955Y-117937841D01*
X95183443Y-117836750D01*
X94803271Y-117809299D01*
X94425049Y-117856543D01*
X94063310Y-117976667D01*
X93816317Y-118108688D01*
X93684381Y-118403776D01*
X90372000Y-118403776D01*
X90372000Y-117591665D01*
X153899000Y-117591665D01*
X153899000Y-117874335D01*
X153954147Y-118151574D01*
X154062320Y-118412727D01*
X154219363Y-118647759D01*
X154419241Y-118847637D01*
X154651759Y-119003000D01*
X154419241Y-119158363D01*
X154219363Y-119358241D01*
X154062320Y-119593273D01*
X153954147Y-119854426D01*
X153899000Y-120131665D01*
X153899000Y-120414335D01*
X153954147Y-120691574D01*
X154062320Y-120952727D01*
X154219363Y-121187759D01*
X154419241Y-121387637D01*
X154651759Y-121543000D01*
X154419241Y-121698363D01*
X154219363Y-121898241D01*
X154062320Y-122133273D01*
X153954147Y-122394426D01*
X153899000Y-122671665D01*
X153899000Y-122954335D01*
X153954147Y-123231574D01*
X154062320Y-123492727D01*
X154219363Y-123727759D01*
X154419241Y-123927637D01*
X154651759Y-124083000D01*
X154419241Y-124238363D01*
X154219363Y-124438241D01*
X154062320Y-124673273D01*
X153954147Y-124934426D01*
X153899000Y-125211665D01*
X153899000Y-125494335D01*
X153954147Y-125771574D01*
X154062320Y-126032727D01*
X154219363Y-126267759D01*
X154419241Y-126467637D01*
X154654273Y-126624680D01*
X154915426Y-126732853D01*
X155192665Y-126788000D01*
X155475335Y-126788000D01*
X155752574Y-126732853D01*
X156013727Y-126624680D01*
X156248759Y-126467637D01*
X156448637Y-126267759D01*
X156605680Y-126032727D01*
X156713853Y-125771574D01*
X156716765Y-125756933D01*
X158572200Y-125756933D01*
X158572200Y-125957067D01*
X158611244Y-126153356D01*
X158687832Y-126338256D01*
X158799021Y-126504662D01*
X158940538Y-126646179D01*
X159106944Y-126757368D01*
X159291844Y-126833956D01*
X159488133Y-126873000D01*
X159688267Y-126873000D01*
X159884556Y-126833956D01*
X160069456Y-126757368D01*
X160235862Y-126646179D01*
X160377379Y-126504662D01*
X160488568Y-126338256D01*
X160565156Y-126153356D01*
X160565226Y-126153000D01*
X161515928Y-126153000D01*
X161528188Y-126277482D01*
X161564498Y-126397180D01*
X161623463Y-126507494D01*
X161702815Y-126604185D01*
X161799506Y-126683537D01*
X161909820Y-126742502D01*
X162029518Y-126778812D01*
X162154000Y-126791072D01*
X162668250Y-126788000D01*
X162827000Y-126629250D01*
X162827000Y-125480000D01*
X161677750Y-125480000D01*
X161519000Y-125638750D01*
X161515928Y-126153000D01*
X160565226Y-126153000D01*
X160604200Y-125957067D01*
X160604200Y-125756933D01*
X160565156Y-125560644D01*
X160488568Y-125375744D01*
X160377379Y-125209338D01*
X160235862Y-125067821D01*
X160069456Y-124956632D01*
X159884556Y-124880044D01*
X159688267Y-124841000D01*
X159488133Y-124841000D01*
X159291844Y-124880044D01*
X159106944Y-124956632D01*
X158940538Y-125067821D01*
X158799021Y-125209338D01*
X158687832Y-125375744D01*
X158611244Y-125560644D01*
X158572200Y-125756933D01*
X156716765Y-125756933D01*
X156769000Y-125494335D01*
X156769000Y-125211665D01*
X156713853Y-124934426D01*
X156605680Y-124673273D01*
X156448637Y-124438241D01*
X156248759Y-124238363D01*
X156016241Y-124083000D01*
X156248759Y-123927637D01*
X156448637Y-123727759D01*
X156605680Y-123492727D01*
X156713853Y-123231574D01*
X156769000Y-122954335D01*
X156769000Y-122671665D01*
X156713853Y-122394426D01*
X156605680Y-122133273D01*
X156464201Y-121921533D01*
X156895800Y-121921533D01*
X156895800Y-122121667D01*
X156934844Y-122317956D01*
X157011432Y-122502856D01*
X157122621Y-122669262D01*
X157264138Y-122810779D01*
X157430544Y-122921968D01*
X157615444Y-122998556D01*
X157811733Y-123037600D01*
X158011867Y-123037600D01*
X158208156Y-122998556D01*
X158393056Y-122921968D01*
X158450609Y-122883512D01*
X161513783Y-122883512D01*
X161555213Y-123163130D01*
X161650397Y-123429292D01*
X161717329Y-123554514D01*
X161961298Y-123626097D01*
X162774395Y-122813000D01*
X161961298Y-121999903D01*
X161717329Y-122071486D01*
X161596429Y-122326996D01*
X161527700Y-122601184D01*
X161513783Y-122883512D01*
X158450609Y-122883512D01*
X158559462Y-122810779D01*
X158700979Y-122669262D01*
X158812168Y-122502856D01*
X158888756Y-122317956D01*
X158927800Y-122121667D01*
X158927800Y-121921533D01*
X158888756Y-121725244D01*
X158812168Y-121540344D01*
X158700979Y-121373938D01*
X158559462Y-121232421D01*
X158393056Y-121121232D01*
X158208156Y-121044644D01*
X158011867Y-121005600D01*
X157811733Y-121005600D01*
X157615444Y-121044644D01*
X157430544Y-121121232D01*
X157264138Y-121232421D01*
X157122621Y-121373938D01*
X157011432Y-121540344D01*
X156934844Y-121725244D01*
X156895800Y-121921533D01*
X156464201Y-121921533D01*
X156448637Y-121898241D01*
X156248759Y-121698363D01*
X156016241Y-121543000D01*
X156248759Y-121387637D01*
X156448637Y-121187759D01*
X156605680Y-120952727D01*
X156713853Y-120691574D01*
X156769000Y-120414335D01*
X156769000Y-120343512D01*
X161513783Y-120343512D01*
X161555213Y-120623130D01*
X161650397Y-120889292D01*
X161717329Y-121014514D01*
X161961298Y-121086097D01*
X162774395Y-120273000D01*
X161961298Y-119459903D01*
X161717329Y-119531486D01*
X161596429Y-119786996D01*
X161527700Y-120061184D01*
X161513783Y-120343512D01*
X156769000Y-120343512D01*
X156769000Y-120131665D01*
X156713853Y-119854426D01*
X156605680Y-119593273D01*
X156448637Y-119358241D01*
X156248759Y-119158363D01*
X156016241Y-119003000D01*
X156248759Y-118847637D01*
X156448637Y-118647759D01*
X156605680Y-118412727D01*
X156713853Y-118151574D01*
X156769000Y-117874335D01*
X156769000Y-117803512D01*
X161513783Y-117803512D01*
X161555213Y-118083130D01*
X161650397Y-118349292D01*
X161717329Y-118474514D01*
X161961298Y-118546097D01*
X162774395Y-117733000D01*
X161961298Y-116919903D01*
X161717329Y-116991486D01*
X161596429Y-117246996D01*
X161527700Y-117521184D01*
X161513783Y-117803512D01*
X156769000Y-117803512D01*
X156769000Y-117591665D01*
X156713853Y-117314426D01*
X156605680Y-117053273D01*
X156448637Y-116818241D01*
X156248759Y-116618363D01*
X156013727Y-116461320D01*
X155752574Y-116353147D01*
X155475335Y-116298000D01*
X155192665Y-116298000D01*
X154915426Y-116353147D01*
X154654273Y-116461320D01*
X154419241Y-116618363D01*
X154219363Y-116818241D01*
X154062320Y-117053273D01*
X153954147Y-117314426D01*
X153899000Y-117591665D01*
X90372000Y-117591665D01*
X90372000Y-114562419D01*
X92919000Y-114562419D01*
X92919000Y-114943581D01*
X92993361Y-115317419D01*
X93139225Y-115669566D01*
X93350987Y-115986491D01*
X93620509Y-116256013D01*
X93937434Y-116467775D01*
X94289581Y-116613639D01*
X94663419Y-116688000D01*
X95044581Y-116688000D01*
X95418419Y-116613639D01*
X95770566Y-116467775D01*
X96087491Y-116256013D01*
X96357013Y-115986491D01*
X96568775Y-115669566D01*
X96693549Y-115368333D01*
X123164600Y-115368333D01*
X123164600Y-115568467D01*
X123203644Y-115764756D01*
X123280232Y-115949656D01*
X123391421Y-116116062D01*
X123532938Y-116257579D01*
X123699344Y-116368768D01*
X123884244Y-116445356D01*
X124080533Y-116484400D01*
X124280667Y-116484400D01*
X124476956Y-116445356D01*
X124661856Y-116368768D01*
X124828262Y-116257579D01*
X124969779Y-116116062D01*
X125080968Y-115949656D01*
X125157556Y-115764756D01*
X125196600Y-115568467D01*
X125196600Y-115368333D01*
X125157556Y-115172044D01*
X125080968Y-114987144D01*
X125063805Y-114961457D01*
X125857476Y-114961457D01*
X125857476Y-115161591D01*
X125896520Y-115357880D01*
X125973108Y-115542780D01*
X126084297Y-115709186D01*
X126225814Y-115850703D01*
X126392220Y-115961892D01*
X126577120Y-116038480D01*
X126773409Y-116077524D01*
X126973543Y-116077524D01*
X127169832Y-116038480D01*
X127354732Y-115961892D01*
X127521138Y-115850703D01*
X127662655Y-115709186D01*
X127773844Y-115542780D01*
X127850432Y-115357880D01*
X127889476Y-115161591D01*
X127889476Y-114961457D01*
X127850432Y-114765168D01*
X127773844Y-114580268D01*
X127662655Y-114413862D01*
X127521138Y-114272345D01*
X127354732Y-114161156D01*
X127169832Y-114084568D01*
X126973543Y-114045524D01*
X126773409Y-114045524D01*
X126577120Y-114084568D01*
X126392220Y-114161156D01*
X126225814Y-114272345D01*
X126084297Y-114413862D01*
X125973108Y-114580268D01*
X125896520Y-114765168D01*
X125857476Y-114961457D01*
X125063805Y-114961457D01*
X124969779Y-114820738D01*
X124828262Y-114679221D01*
X124661856Y-114568032D01*
X124476956Y-114491444D01*
X124280667Y-114452400D01*
X124080533Y-114452400D01*
X123884244Y-114491444D01*
X123699344Y-114568032D01*
X123532938Y-114679221D01*
X123391421Y-114820738D01*
X123280232Y-114987144D01*
X123203644Y-115172044D01*
X123164600Y-115368333D01*
X96693549Y-115368333D01*
X96714639Y-115317419D01*
X96789000Y-114943581D01*
X96789000Y-114562419D01*
X96714639Y-114188581D01*
X96690843Y-114131132D01*
X110871000Y-114131132D01*
X110871000Y-114331266D01*
X110910044Y-114527555D01*
X110986632Y-114712455D01*
X111097821Y-114878861D01*
X111239338Y-115020378D01*
X111405744Y-115131567D01*
X111590644Y-115208155D01*
X111786933Y-115247199D01*
X111987067Y-115247199D01*
X112183356Y-115208155D01*
X112368256Y-115131567D01*
X112534662Y-115020378D01*
X112676179Y-114878861D01*
X112787368Y-114712455D01*
X112863956Y-114527555D01*
X112903000Y-114331266D01*
X112903000Y-114131132D01*
X112863956Y-113934843D01*
X112787368Y-113749943D01*
X112676179Y-113583537D01*
X112534662Y-113442020D01*
X112368256Y-113330831D01*
X112183356Y-113254243D01*
X111987067Y-113215199D01*
X111786933Y-113215199D01*
X111590644Y-113254243D01*
X111405744Y-113330831D01*
X111239338Y-113442020D01*
X111097821Y-113583537D01*
X110986632Y-113749943D01*
X110910044Y-113934843D01*
X110871000Y-114131132D01*
X96690843Y-114131132D01*
X96568775Y-113836434D01*
X96357013Y-113519509D01*
X96087491Y-113249987D01*
X95770566Y-113038225D01*
X95418419Y-112892361D01*
X95044581Y-112818000D01*
X94663419Y-112818000D01*
X94289581Y-112892361D01*
X93937434Y-113038225D01*
X93620509Y-113249987D01*
X93350987Y-113519509D01*
X93139225Y-113836434D01*
X92993361Y-114188581D01*
X92919000Y-114562419D01*
X90372000Y-114562419D01*
X90372000Y-109562419D01*
X92919000Y-109562419D01*
X92919000Y-109943581D01*
X92993361Y-110317419D01*
X93139225Y-110669566D01*
X93350987Y-110986491D01*
X93620509Y-111256013D01*
X93937434Y-111467775D01*
X94289581Y-111613639D01*
X94663419Y-111688000D01*
X95044581Y-111688000D01*
X95418419Y-111613639D01*
X95770566Y-111467775D01*
X96087491Y-111256013D01*
X96089971Y-111253533D01*
X106934000Y-111253533D01*
X106934000Y-111453667D01*
X106973044Y-111649956D01*
X107049632Y-111834856D01*
X107160821Y-112001262D01*
X107272556Y-112112997D01*
X107202032Y-112218544D01*
X107125444Y-112403444D01*
X107086400Y-112599733D01*
X107086400Y-112799867D01*
X107125444Y-112996156D01*
X107202032Y-113181056D01*
X107313221Y-113347462D01*
X107454738Y-113488979D01*
X107621144Y-113600168D01*
X107806044Y-113676756D01*
X108002333Y-113715800D01*
X108202467Y-113715800D01*
X108398756Y-113676756D01*
X108583656Y-113600168D01*
X108750062Y-113488979D01*
X108891579Y-113347462D01*
X109002768Y-113181056D01*
X109079356Y-112996156D01*
X109118400Y-112799867D01*
X109118400Y-112599733D01*
X109079356Y-112403444D01*
X109002768Y-112218544D01*
X108891579Y-112052138D01*
X108779844Y-111940403D01*
X108850368Y-111834856D01*
X108926956Y-111649956D01*
X108966000Y-111453667D01*
X108966000Y-111253533D01*
X108926956Y-111057244D01*
X108903052Y-110999533D01*
X118643400Y-110999533D01*
X118643400Y-111199667D01*
X118682444Y-111395956D01*
X118759032Y-111580856D01*
X118870221Y-111747262D01*
X119011738Y-111888779D01*
X119178144Y-111999968D01*
X119363044Y-112076556D01*
X119559333Y-112115600D01*
X119759467Y-112115600D01*
X119955756Y-112076556D01*
X119980436Y-112066333D01*
X132918200Y-112066333D01*
X132918200Y-112266467D01*
X132957244Y-112462756D01*
X133033832Y-112647656D01*
X133145021Y-112814062D01*
X133286538Y-112955579D01*
X133452944Y-113066768D01*
X133637844Y-113143356D01*
X133834133Y-113182400D01*
X134034267Y-113182400D01*
X134230556Y-113143356D01*
X134415456Y-113066768D01*
X134581862Y-112955579D01*
X134723379Y-112814062D01*
X134834568Y-112647656D01*
X134835632Y-112645088D01*
X134897621Y-112737862D01*
X135039138Y-112879379D01*
X135205544Y-112990568D01*
X135390444Y-113067156D01*
X135573409Y-113103550D01*
X135456421Y-113220538D01*
X135345232Y-113386944D01*
X135268644Y-113571844D01*
X135229600Y-113768133D01*
X135229600Y-113968267D01*
X135268644Y-114164556D01*
X135345232Y-114349456D01*
X135456421Y-114515862D01*
X135597938Y-114657379D01*
X135764344Y-114768568D01*
X135949244Y-114845156D01*
X136145533Y-114884200D01*
X136345667Y-114884200D01*
X136541956Y-114845156D01*
X136726856Y-114768568D01*
X136893262Y-114657379D01*
X137034779Y-114515862D01*
X137145968Y-114349456D01*
X137222556Y-114164556D01*
X137261600Y-113968267D01*
X137261600Y-113768133D01*
X137222556Y-113571844D01*
X137145968Y-113386944D01*
X137034779Y-113220538D01*
X136893262Y-113079021D01*
X136726856Y-112967832D01*
X136541956Y-112891244D01*
X136358991Y-112854850D01*
X136475979Y-112737862D01*
X136587168Y-112571456D01*
X136663756Y-112386556D01*
X136702800Y-112190267D01*
X136702800Y-111990133D01*
X136663756Y-111793844D01*
X136587168Y-111608944D01*
X136475979Y-111442538D01*
X136334462Y-111301021D01*
X136168056Y-111189832D01*
X135983156Y-111113244D01*
X135786867Y-111074200D01*
X135586733Y-111074200D01*
X135390444Y-111113244D01*
X135205544Y-111189832D01*
X135039138Y-111301021D01*
X134897621Y-111442538D01*
X134786432Y-111608944D01*
X134785368Y-111611512D01*
X134723379Y-111518738D01*
X134581862Y-111377221D01*
X134415456Y-111266032D01*
X134230556Y-111189444D01*
X134034267Y-111150400D01*
X133834133Y-111150400D01*
X133637844Y-111189444D01*
X133452944Y-111266032D01*
X133286538Y-111377221D01*
X133145021Y-111518738D01*
X133033832Y-111685144D01*
X132957244Y-111870044D01*
X132918200Y-112066333D01*
X119980436Y-112066333D01*
X120140656Y-111999968D01*
X120307062Y-111888779D01*
X120448579Y-111747262D01*
X120559768Y-111580856D01*
X120636356Y-111395956D01*
X120675400Y-111199667D01*
X120675400Y-110999533D01*
X120636356Y-110803244D01*
X120559768Y-110618344D01*
X120448579Y-110451938D01*
X120307062Y-110310421D01*
X120235992Y-110262933D01*
X128193800Y-110262933D01*
X128193800Y-110463067D01*
X128232844Y-110659356D01*
X128309432Y-110844256D01*
X128420621Y-111010662D01*
X128562138Y-111152179D01*
X128728544Y-111263368D01*
X128913444Y-111339956D01*
X129109733Y-111379000D01*
X129309867Y-111379000D01*
X129506156Y-111339956D01*
X129691056Y-111263368D01*
X129857462Y-111152179D01*
X129998979Y-111010662D01*
X130110168Y-110844256D01*
X130186756Y-110659356D01*
X130225800Y-110463067D01*
X130225800Y-110262933D01*
X130186756Y-110066644D01*
X130110168Y-109881744D01*
X129998979Y-109715338D01*
X129857462Y-109573821D01*
X129691056Y-109462632D01*
X129506156Y-109386044D01*
X129309867Y-109347000D01*
X129109733Y-109347000D01*
X128913444Y-109386044D01*
X128728544Y-109462632D01*
X128562138Y-109573821D01*
X128420621Y-109715338D01*
X128309432Y-109881744D01*
X128232844Y-110066644D01*
X128193800Y-110262933D01*
X120235992Y-110262933D01*
X120140656Y-110199232D01*
X119955756Y-110122644D01*
X119759467Y-110083600D01*
X119559333Y-110083600D01*
X119363044Y-110122644D01*
X119178144Y-110199232D01*
X119011738Y-110310421D01*
X118870221Y-110451938D01*
X118759032Y-110618344D01*
X118682444Y-110803244D01*
X118643400Y-110999533D01*
X108903052Y-110999533D01*
X108850368Y-110872344D01*
X108739179Y-110705938D01*
X108597662Y-110564421D01*
X108431256Y-110453232D01*
X108246356Y-110376644D01*
X108050067Y-110337600D01*
X107849933Y-110337600D01*
X107653644Y-110376644D01*
X107468744Y-110453232D01*
X107302338Y-110564421D01*
X107160821Y-110705938D01*
X107049632Y-110872344D01*
X106973044Y-111057244D01*
X106934000Y-111253533D01*
X96089971Y-111253533D01*
X96357013Y-110986491D01*
X96568775Y-110669566D01*
X96714639Y-110317419D01*
X96789000Y-109943581D01*
X96789000Y-109562419D01*
X96714639Y-109188581D01*
X96568775Y-108836434D01*
X96357013Y-108519509D01*
X96087491Y-108249987D01*
X95770566Y-108038225D01*
X95418419Y-107892361D01*
X95044581Y-107818000D01*
X94663419Y-107818000D01*
X94289581Y-107892361D01*
X93937434Y-108038225D01*
X93620509Y-108249987D01*
X93350987Y-108519509D01*
X93139225Y-108836434D01*
X92993361Y-109188581D01*
X92919000Y-109562419D01*
X90372000Y-109562419D01*
X90372000Y-103453000D01*
X92915928Y-103453000D01*
X92915928Y-106053000D01*
X92928188Y-106177482D01*
X92964498Y-106297180D01*
X93023463Y-106407494D01*
X93102815Y-106504185D01*
X93199506Y-106583537D01*
X93309820Y-106642502D01*
X93429518Y-106678812D01*
X93554000Y-106691072D01*
X96154000Y-106691072D01*
X96278482Y-106678812D01*
X96398180Y-106642502D01*
X96508494Y-106583537D01*
X96605185Y-106504185D01*
X96684537Y-106407494D01*
X96743502Y-106297180D01*
X96779812Y-106177482D01*
X96781639Y-106158927D01*
X109467867Y-106158927D01*
X109467867Y-106359061D01*
X109506911Y-106555350D01*
X109583499Y-106740250D01*
X109694688Y-106906656D01*
X109836205Y-107048173D01*
X110002611Y-107159362D01*
X110187511Y-107235950D01*
X110383800Y-107274994D01*
X110583934Y-107274994D01*
X110758187Y-107240333D01*
X121412000Y-107240333D01*
X121412000Y-107440467D01*
X121451044Y-107636756D01*
X121527632Y-107821656D01*
X121638821Y-107988062D01*
X121780338Y-108129579D01*
X121946744Y-108240768D01*
X122131644Y-108317356D01*
X122327933Y-108356400D01*
X122528067Y-108356400D01*
X122724356Y-108317356D01*
X122909256Y-108240768D01*
X123014803Y-108170244D01*
X123075738Y-108231179D01*
X123242144Y-108342368D01*
X123427044Y-108418956D01*
X123623333Y-108458000D01*
X123823467Y-108458000D01*
X124019756Y-108418956D01*
X124204656Y-108342368D01*
X124371062Y-108231179D01*
X124512579Y-108089662D01*
X124623768Y-107923256D01*
X124700356Y-107738356D01*
X124739400Y-107542067D01*
X124739400Y-107341933D01*
X124700356Y-107145644D01*
X124634368Y-106986333D01*
X131394200Y-106986333D01*
X131394200Y-107186467D01*
X131433244Y-107382756D01*
X131509832Y-107567656D01*
X131621021Y-107734062D01*
X131762538Y-107875579D01*
X131928944Y-107986768D01*
X132113844Y-108063356D01*
X132310133Y-108102400D01*
X132510267Y-108102400D01*
X132706556Y-108063356D01*
X132891456Y-107986768D01*
X133057862Y-107875579D01*
X133199379Y-107734062D01*
X133310568Y-107567656D01*
X133387156Y-107382756D01*
X133426200Y-107186467D01*
X133426200Y-106986333D01*
X133387156Y-106790044D01*
X133310568Y-106605144D01*
X133234706Y-106491608D01*
X134848600Y-106491608D01*
X134848600Y-106766792D01*
X134902286Y-107036690D01*
X135007595Y-107290927D01*
X135160480Y-107519735D01*
X135355065Y-107714320D01*
X135583873Y-107867205D01*
X135838110Y-107972514D01*
X136108008Y-108026200D01*
X136281959Y-108026200D01*
X136218421Y-108089738D01*
X136107232Y-108256144D01*
X136030644Y-108441044D01*
X135991600Y-108637333D01*
X135991600Y-108837467D01*
X136030644Y-109033756D01*
X136107232Y-109218656D01*
X136218421Y-109385062D01*
X136359938Y-109526579D01*
X136526344Y-109637768D01*
X136711244Y-109714356D01*
X136907533Y-109753400D01*
X137107667Y-109753400D01*
X137303956Y-109714356D01*
X137488856Y-109637768D01*
X137655262Y-109526579D01*
X137796779Y-109385062D01*
X137907968Y-109218656D01*
X137969902Y-109069133D01*
X139192000Y-109069133D01*
X139192000Y-109269267D01*
X139231044Y-109465556D01*
X139307632Y-109650456D01*
X139418821Y-109816862D01*
X139560338Y-109958379D01*
X139726744Y-110069568D01*
X139911644Y-110146156D01*
X140107933Y-110185200D01*
X140308067Y-110185200D01*
X140504356Y-110146156D01*
X140689256Y-110069568D01*
X140855662Y-109958379D01*
X140997179Y-109816862D01*
X141108368Y-109650456D01*
X141184956Y-109465556D01*
X141224000Y-109269267D01*
X141224000Y-109069133D01*
X141184956Y-108872844D01*
X141108368Y-108687944D01*
X140997179Y-108521538D01*
X140855662Y-108380021D01*
X140689256Y-108268832D01*
X140536439Y-108205533D01*
X144145000Y-108205533D01*
X144145000Y-108405667D01*
X144184044Y-108601956D01*
X144260632Y-108786856D01*
X144371821Y-108953262D01*
X144513338Y-109094779D01*
X144679744Y-109205968D01*
X144864644Y-109282556D01*
X145060933Y-109321600D01*
X145261067Y-109321600D01*
X145381055Y-109297733D01*
X147116800Y-109297733D01*
X147116800Y-109497867D01*
X147155844Y-109694156D01*
X147232432Y-109879056D01*
X147343621Y-110045462D01*
X147485138Y-110186979D01*
X147651544Y-110298168D01*
X147836444Y-110374756D01*
X148032733Y-110413800D01*
X148232867Y-110413800D01*
X148429156Y-110374756D01*
X148614056Y-110298168D01*
X148780462Y-110186979D01*
X148921979Y-110045462D01*
X149033168Y-109879056D01*
X149109756Y-109694156D01*
X149148800Y-109497867D01*
X149148800Y-109297733D01*
X149109756Y-109101444D01*
X149033168Y-108916544D01*
X148921979Y-108750138D01*
X148780462Y-108608621D01*
X148614056Y-108497432D01*
X148429156Y-108420844D01*
X148232867Y-108381800D01*
X148032733Y-108381800D01*
X147836444Y-108420844D01*
X147651544Y-108497432D01*
X147485138Y-108608621D01*
X147343621Y-108750138D01*
X147232432Y-108916544D01*
X147155844Y-109101444D01*
X147116800Y-109297733D01*
X145381055Y-109297733D01*
X145457356Y-109282556D01*
X145642256Y-109205968D01*
X145808662Y-109094779D01*
X145950179Y-108953262D01*
X146061368Y-108786856D01*
X146137956Y-108601956D01*
X146142718Y-108578014D01*
X146305533Y-108610400D01*
X146505667Y-108610400D01*
X146701956Y-108571356D01*
X146886856Y-108494768D01*
X147053262Y-108383579D01*
X147194779Y-108242062D01*
X147305968Y-108075656D01*
X147382556Y-107890756D01*
X147421600Y-107694467D01*
X147421600Y-107631410D01*
X156579206Y-107631410D01*
X156579206Y-107831544D01*
X156618250Y-108027833D01*
X156694838Y-108212733D01*
X156806027Y-108379139D01*
X156947544Y-108520656D01*
X157113950Y-108631845D01*
X157298850Y-108708433D01*
X157495139Y-108747477D01*
X157695273Y-108747477D01*
X157891562Y-108708433D01*
X158076462Y-108631845D01*
X158242868Y-108520656D01*
X158384385Y-108379139D01*
X158495574Y-108212733D01*
X158553466Y-108072969D01*
X158573733Y-108077000D01*
X158773867Y-108077000D01*
X158970156Y-108037956D01*
X159155056Y-107961368D01*
X159321462Y-107850179D01*
X159462979Y-107708662D01*
X159574168Y-107542256D01*
X159650756Y-107357356D01*
X159689800Y-107161067D01*
X159689800Y-106960933D01*
X159650756Y-106764644D01*
X159574168Y-106579744D01*
X159462979Y-106413338D01*
X159321462Y-106271821D01*
X159155056Y-106160632D01*
X158970156Y-106084044D01*
X158773867Y-106045000D01*
X158573733Y-106045000D01*
X158377444Y-106084044D01*
X158192544Y-106160632D01*
X158026138Y-106271821D01*
X157884621Y-106413338D01*
X157773432Y-106579744D01*
X157715540Y-106719508D01*
X157695273Y-106715477D01*
X157495139Y-106715477D01*
X157298850Y-106754521D01*
X157113950Y-106831109D01*
X156947544Y-106942298D01*
X156806027Y-107083815D01*
X156694838Y-107250221D01*
X156618250Y-107435121D01*
X156579206Y-107631410D01*
X147421600Y-107631410D01*
X147421600Y-107494333D01*
X147382556Y-107298044D01*
X147305968Y-107113144D01*
X147194779Y-106946738D01*
X147156641Y-106908600D01*
X147169379Y-106895861D01*
X147280568Y-106729455D01*
X147357156Y-106544555D01*
X147396200Y-106348266D01*
X147396200Y-106148132D01*
X147357156Y-105951843D01*
X147280568Y-105766943D01*
X147169379Y-105600537D01*
X147027862Y-105459020D01*
X146861456Y-105347831D01*
X146676556Y-105271243D01*
X146480267Y-105232199D01*
X146280133Y-105232199D01*
X146083844Y-105271243D01*
X145898944Y-105347831D01*
X145732538Y-105459020D01*
X145591021Y-105600537D01*
X145479832Y-105766943D01*
X145403244Y-105951843D01*
X145364200Y-106148132D01*
X145364200Y-106348266D01*
X145403244Y-106544555D01*
X145479832Y-106729455D01*
X145591021Y-106895861D01*
X145629160Y-106934000D01*
X145616421Y-106946738D01*
X145505232Y-107113144D01*
X145428644Y-107298044D01*
X145423882Y-107321986D01*
X145261067Y-107289600D01*
X145060933Y-107289600D01*
X144864644Y-107328644D01*
X144679744Y-107405232D01*
X144513338Y-107516421D01*
X144371821Y-107657938D01*
X144260632Y-107824344D01*
X144184044Y-108009244D01*
X144145000Y-108205533D01*
X140536439Y-108205533D01*
X140504356Y-108192244D01*
X140308067Y-108153200D01*
X140107933Y-108153200D01*
X139911644Y-108192244D01*
X139726744Y-108268832D01*
X139560338Y-108380021D01*
X139418821Y-108521538D01*
X139307632Y-108687944D01*
X139231044Y-108872844D01*
X139192000Y-109069133D01*
X137969902Y-109069133D01*
X137984556Y-109033756D01*
X138023600Y-108837467D01*
X138023600Y-108637333D01*
X137984556Y-108441044D01*
X137907968Y-108256144D01*
X137796779Y-108089738D01*
X137655262Y-107948221D01*
X137488856Y-107837032D01*
X137303956Y-107760444D01*
X137121439Y-107724139D01*
X137136135Y-107714320D01*
X137330720Y-107519735D01*
X137483605Y-107290927D01*
X137588914Y-107036690D01*
X137642600Y-106766792D01*
X137642600Y-106491608D01*
X137588914Y-106221710D01*
X137483605Y-105967473D01*
X137330720Y-105738665D01*
X137136135Y-105544080D01*
X136907327Y-105391195D01*
X136653090Y-105285886D01*
X136383192Y-105232200D01*
X136108008Y-105232200D01*
X135838110Y-105285886D01*
X135583873Y-105391195D01*
X135355065Y-105544080D01*
X135160480Y-105738665D01*
X135007595Y-105967473D01*
X134902286Y-106221710D01*
X134848600Y-106491608D01*
X133234706Y-106491608D01*
X133199379Y-106438738D01*
X133057862Y-106297221D01*
X132891456Y-106186032D01*
X132706556Y-106109444D01*
X132510267Y-106070400D01*
X132310133Y-106070400D01*
X132113844Y-106109444D01*
X131928944Y-106186032D01*
X131762538Y-106297221D01*
X131621021Y-106438738D01*
X131509832Y-106605144D01*
X131433244Y-106790044D01*
X131394200Y-106986333D01*
X124634368Y-106986333D01*
X124623768Y-106960744D01*
X124512579Y-106794338D01*
X124371062Y-106652821D01*
X124204656Y-106541632D01*
X124019756Y-106465044D01*
X123823467Y-106426000D01*
X123623333Y-106426000D01*
X123427044Y-106465044D01*
X123242144Y-106541632D01*
X123136597Y-106612156D01*
X123075662Y-106551221D01*
X122909256Y-106440032D01*
X122724356Y-106363444D01*
X122528067Y-106324400D01*
X122327933Y-106324400D01*
X122131644Y-106363444D01*
X121946744Y-106440032D01*
X121780338Y-106551221D01*
X121638821Y-106692738D01*
X121527632Y-106859144D01*
X121451044Y-107044044D01*
X121412000Y-107240333D01*
X110758187Y-107240333D01*
X110780223Y-107235950D01*
X110965123Y-107159362D01*
X111131529Y-107048173D01*
X111273046Y-106906656D01*
X111384235Y-106740250D01*
X111460823Y-106555350D01*
X111499867Y-106359061D01*
X111499867Y-106158927D01*
X111460823Y-105962638D01*
X111384235Y-105777738D01*
X111273046Y-105611332D01*
X111131529Y-105469815D01*
X110965123Y-105358626D01*
X110780223Y-105282038D01*
X110583934Y-105242994D01*
X110383800Y-105242994D01*
X110187511Y-105282038D01*
X110002611Y-105358626D01*
X109836205Y-105469815D01*
X109694688Y-105611332D01*
X109583499Y-105777738D01*
X109506911Y-105962638D01*
X109467867Y-106158927D01*
X96781639Y-106158927D01*
X96792072Y-106053000D01*
X96792072Y-104808532D01*
X103276400Y-104808532D01*
X103276400Y-105008666D01*
X103315444Y-105204955D01*
X103392032Y-105389855D01*
X103503221Y-105556261D01*
X103644738Y-105697778D01*
X103811144Y-105808967D01*
X103996044Y-105885555D01*
X104192333Y-105924599D01*
X104392467Y-105924599D01*
X104588756Y-105885555D01*
X104773656Y-105808967D01*
X104940062Y-105697778D01*
X105081579Y-105556261D01*
X105192768Y-105389855D01*
X105269356Y-105204955D01*
X105308400Y-105008666D01*
X105308400Y-104808532D01*
X105269356Y-104612243D01*
X105192768Y-104427343D01*
X105154542Y-104370133D01*
X111277400Y-104370133D01*
X111277400Y-104570267D01*
X111316444Y-104766556D01*
X111393032Y-104951456D01*
X111504221Y-105117862D01*
X111645738Y-105259379D01*
X111812144Y-105370568D01*
X111997044Y-105447156D01*
X112193333Y-105486200D01*
X112393467Y-105486200D01*
X112589756Y-105447156D01*
X112774656Y-105370568D01*
X112941062Y-105259379D01*
X113082579Y-105117862D01*
X113193768Y-104951456D01*
X113270356Y-104766556D01*
X113309400Y-104570267D01*
X113309400Y-104370133D01*
X113270356Y-104173844D01*
X113193768Y-103988944D01*
X113082579Y-103822538D01*
X112941062Y-103681021D01*
X112774656Y-103569832D01*
X112589756Y-103493244D01*
X112393467Y-103454200D01*
X112193333Y-103454200D01*
X111997044Y-103493244D01*
X111812144Y-103569832D01*
X111645738Y-103681021D01*
X111504221Y-103822538D01*
X111393032Y-103988944D01*
X111316444Y-104173844D01*
X111277400Y-104370133D01*
X105154542Y-104370133D01*
X105081579Y-104260937D01*
X104940062Y-104119420D01*
X104773656Y-104008231D01*
X104588756Y-103931643D01*
X104392467Y-103892599D01*
X104192333Y-103892599D01*
X103996044Y-103931643D01*
X103811144Y-104008231D01*
X103644738Y-104119420D01*
X103503221Y-104260937D01*
X103392032Y-104427343D01*
X103315444Y-104612243D01*
X103276400Y-104808532D01*
X96792072Y-104808532D01*
X96792072Y-103453000D01*
X96779812Y-103328518D01*
X96743502Y-103208820D01*
X96684537Y-103098506D01*
X96605185Y-103001815D01*
X96508494Y-102922463D01*
X96398180Y-102863498D01*
X96278482Y-102827188D01*
X96154000Y-102814928D01*
X93554000Y-102814928D01*
X93429518Y-102827188D01*
X93309820Y-102863498D01*
X93199506Y-102922463D01*
X93102815Y-103001815D01*
X93023463Y-103098506D01*
X92964498Y-103208820D01*
X92928188Y-103328518D01*
X92915928Y-103453000D01*
X90372000Y-103453000D01*
X90372000Y-102211133D01*
X154533600Y-102211133D01*
X154533600Y-102411267D01*
X154572644Y-102607556D01*
X154649232Y-102792456D01*
X154760421Y-102958862D01*
X154901938Y-103100379D01*
X155068344Y-103211568D01*
X155253244Y-103288156D01*
X155449533Y-103327200D01*
X155649667Y-103327200D01*
X155845956Y-103288156D01*
X156030856Y-103211568D01*
X156197262Y-103100379D01*
X156338779Y-102958862D01*
X156449968Y-102792456D01*
X156526556Y-102607556D01*
X156565600Y-102411267D01*
X156565600Y-102211133D01*
X156526556Y-102014844D01*
X156449968Y-101829944D01*
X156338779Y-101663538D01*
X156197262Y-101522021D01*
X156030856Y-101410832D01*
X155845956Y-101334244D01*
X155649667Y-101295200D01*
X155449533Y-101295200D01*
X155253244Y-101334244D01*
X155068344Y-101410832D01*
X154901938Y-101522021D01*
X154760421Y-101663538D01*
X154649232Y-101829944D01*
X154572644Y-102014844D01*
X154533600Y-102211133D01*
X90372000Y-102211133D01*
X90372000Y-98299534D01*
X135940800Y-98299534D01*
X135940800Y-98499668D01*
X135979844Y-98695957D01*
X136056432Y-98880857D01*
X136167621Y-99047263D01*
X136309138Y-99188780D01*
X136475544Y-99299969D01*
X136660444Y-99376557D01*
X136856733Y-99415601D01*
X137056867Y-99415601D01*
X137253156Y-99376557D01*
X137438056Y-99299969D01*
X137604462Y-99188780D01*
X137745979Y-99047263D01*
X137803748Y-98960805D01*
X137982966Y-99056599D01*
X138262889Y-99141513D01*
X138554000Y-99170185D01*
X138845110Y-99141513D01*
X139125033Y-99056599D01*
X139383013Y-98918706D01*
X139609134Y-98733134D01*
X139794706Y-98507014D01*
X139804000Y-98489626D01*
X139813294Y-98507013D01*
X139998866Y-98733134D01*
X140224986Y-98918706D01*
X140482966Y-99056599D01*
X140739982Y-99134564D01*
X140704244Y-99220844D01*
X140665200Y-99417133D01*
X140665200Y-99617267D01*
X140704244Y-99813556D01*
X140780832Y-99998456D01*
X140892021Y-100164862D01*
X141033538Y-100306379D01*
X141199944Y-100417568D01*
X141384844Y-100494156D01*
X141581133Y-100533200D01*
X141781267Y-100533200D01*
X141977556Y-100494156D01*
X142162456Y-100417568D01*
X142328862Y-100306379D01*
X142470379Y-100164862D01*
X142581568Y-99998456D01*
X142658156Y-99813556D01*
X142697200Y-99617267D01*
X142697200Y-99417133D01*
X142658156Y-99220844D01*
X142581568Y-99035944D01*
X142470379Y-98869538D01*
X142328862Y-98728021D01*
X142189662Y-98635010D01*
X142294706Y-98507014D01*
X142308462Y-98481278D01*
X142464951Y-98687429D01*
X142682807Y-98880496D01*
X142934142Y-99027352D01*
X143197110Y-99119476D01*
X143427000Y-98998155D01*
X143427000Y-97680000D01*
X143407000Y-97680000D01*
X143407000Y-97426000D01*
X143427000Y-97426000D01*
X143427000Y-96107845D01*
X143681000Y-96107845D01*
X143681000Y-97426000D01*
X143701000Y-97426000D01*
X143701000Y-97680000D01*
X143681000Y-97680000D01*
X143681000Y-98998155D01*
X143910890Y-99119476D01*
X144173858Y-99027352D01*
X144425193Y-98880496D01*
X144643049Y-98687429D01*
X144799538Y-98481278D01*
X144813294Y-98507013D01*
X144998866Y-98733134D01*
X145224986Y-98918706D01*
X145482966Y-99056599D01*
X145762889Y-99141513D01*
X146054000Y-99170185D01*
X146345110Y-99141513D01*
X146625033Y-99056599D01*
X146883013Y-98918706D01*
X147109134Y-98733134D01*
X147161223Y-98669663D01*
X147215595Y-98771386D01*
X147326038Y-98905962D01*
X147460614Y-99016405D01*
X147614150Y-99098472D01*
X147780746Y-99149008D01*
X147954000Y-99166072D01*
X149154000Y-99166072D01*
X149327254Y-99149008D01*
X149493850Y-99098472D01*
X149647386Y-99016405D01*
X149781962Y-98905962D01*
X149892405Y-98771386D01*
X149974472Y-98617850D01*
X150025008Y-98451254D01*
X150042072Y-98278000D01*
X150042072Y-96828000D01*
X150025008Y-96654746D01*
X149974472Y-96488150D01*
X149892405Y-96334614D01*
X149781962Y-96200038D01*
X149647386Y-96089595D01*
X149493850Y-96007528D01*
X149327254Y-95956992D01*
X149154000Y-95939928D01*
X147954000Y-95939928D01*
X147780746Y-95956992D01*
X147614150Y-96007528D01*
X147460614Y-96089595D01*
X147326038Y-96200038D01*
X147215595Y-96334614D01*
X147161223Y-96436337D01*
X147109134Y-96372866D01*
X146883014Y-96187294D01*
X146625034Y-96049401D01*
X146345111Y-95964487D01*
X146054000Y-95935815D01*
X145762890Y-95964487D01*
X145482967Y-96049401D01*
X145224987Y-96187294D01*
X144998866Y-96372866D01*
X144813294Y-96598986D01*
X144799538Y-96624722D01*
X144643049Y-96418571D01*
X144425193Y-96225504D01*
X144173858Y-96078648D01*
X143910890Y-95986524D01*
X143681000Y-96107845D01*
X143427000Y-96107845D01*
X143197110Y-95986524D01*
X142934142Y-96078648D01*
X142682807Y-96225504D01*
X142464951Y-96418571D01*
X142308462Y-96624722D01*
X142294706Y-96598986D01*
X142109134Y-96372866D01*
X141883014Y-96187294D01*
X141625034Y-96049401D01*
X141345111Y-95964487D01*
X141054000Y-95935815D01*
X140762890Y-95964487D01*
X140482967Y-96049401D01*
X140224987Y-96187294D01*
X139998866Y-96372866D01*
X139813294Y-96598986D01*
X139804000Y-96616374D01*
X139794706Y-96598986D01*
X139609134Y-96372866D01*
X139383014Y-96187294D01*
X139125034Y-96049401D01*
X138845111Y-95964487D01*
X138554000Y-95935815D01*
X138262890Y-95964487D01*
X137982967Y-96049401D01*
X137724987Y-96187294D01*
X137498866Y-96372866D01*
X137313294Y-96598986D01*
X137175401Y-96856966D01*
X137090487Y-97136889D01*
X137069000Y-97355050D01*
X137069000Y-97386014D01*
X137056867Y-97383601D01*
X136856733Y-97383601D01*
X136660444Y-97422645D01*
X136475544Y-97499233D01*
X136309138Y-97610422D01*
X136167621Y-97751939D01*
X136056432Y-97918345D01*
X135979844Y-98103245D01*
X135940800Y-98299534D01*
X90372000Y-98299534D01*
X90372000Y-94594297D01*
X90775161Y-95197670D01*
X91309330Y-95731839D01*
X91937446Y-96151533D01*
X92635372Y-96440623D01*
X93376285Y-96588000D01*
X94131715Y-96588000D01*
X94872628Y-96440623D01*
X95570554Y-96151533D01*
X95794010Y-96002224D01*
X99984381Y-96002224D01*
X100116317Y-96297312D01*
X100457045Y-96468159D01*
X100824557Y-96569250D01*
X101204729Y-96596701D01*
X101582951Y-96549457D01*
X101944690Y-96429333D01*
X102191683Y-96297312D01*
X102323619Y-96002224D01*
X101154000Y-94832605D01*
X99984381Y-96002224D01*
X95794010Y-96002224D01*
X96198670Y-95731839D01*
X96732839Y-95197670D01*
X97062880Y-94703729D01*
X99210299Y-94703729D01*
X99257543Y-95081951D01*
X99377667Y-95443690D01*
X99509688Y-95690683D01*
X99804776Y-95822619D01*
X100974395Y-94653000D01*
X101333605Y-94653000D01*
X102503224Y-95822619D01*
X102798312Y-95690683D01*
X102969159Y-95349955D01*
X103070250Y-94982443D01*
X103097701Y-94602271D01*
X103080232Y-94462419D01*
X104219000Y-94462419D01*
X104219000Y-94843581D01*
X104293361Y-95217419D01*
X104439225Y-95569566D01*
X104650987Y-95886491D01*
X104920509Y-96156013D01*
X105237434Y-96367775D01*
X105589581Y-96513639D01*
X105963419Y-96588000D01*
X106344581Y-96588000D01*
X106718419Y-96513639D01*
X107070566Y-96367775D01*
X107387491Y-96156013D01*
X107657013Y-95886491D01*
X107868775Y-95569566D01*
X108014639Y-95217419D01*
X108089000Y-94843581D01*
X108089000Y-94462419D01*
X109219000Y-94462419D01*
X109219000Y-94843581D01*
X109293361Y-95217419D01*
X109439225Y-95569566D01*
X109650987Y-95886491D01*
X109920509Y-96156013D01*
X110237434Y-96367775D01*
X110589581Y-96513639D01*
X110963419Y-96588000D01*
X111344581Y-96588000D01*
X111718419Y-96513639D01*
X112070566Y-96367775D01*
X112387491Y-96156013D01*
X112657013Y-95886491D01*
X112868775Y-95569566D01*
X113014639Y-95217419D01*
X113089000Y-94843581D01*
X113089000Y-94462419D01*
X113014639Y-94088581D01*
X112868775Y-93736434D01*
X112657013Y-93419509D01*
X112590504Y-93353000D01*
X114215928Y-93353000D01*
X114215928Y-95953000D01*
X114228188Y-96077482D01*
X114264498Y-96197180D01*
X114323463Y-96307494D01*
X114402815Y-96404185D01*
X114499506Y-96483537D01*
X114609820Y-96542502D01*
X114729518Y-96578812D01*
X114854000Y-96591072D01*
X117454000Y-96591072D01*
X117578482Y-96578812D01*
X117698180Y-96542502D01*
X117808494Y-96483537D01*
X117905185Y-96404185D01*
X117984537Y-96307494D01*
X118043502Y-96197180D01*
X118079812Y-96077482D01*
X118092072Y-95953000D01*
X118092072Y-94424419D01*
X120526000Y-94424419D01*
X120526000Y-94805581D01*
X120600361Y-95179419D01*
X120746225Y-95531566D01*
X120957987Y-95848491D01*
X121227509Y-96118013D01*
X121544434Y-96329775D01*
X121896581Y-96475639D01*
X122270419Y-96550000D01*
X122651581Y-96550000D01*
X123025419Y-96475639D01*
X123377566Y-96329775D01*
X123694491Y-96118013D01*
X123848280Y-95964224D01*
X126291381Y-95964224D01*
X126423317Y-96259312D01*
X126764045Y-96430159D01*
X127131557Y-96531250D01*
X127511729Y-96558701D01*
X127889951Y-96511457D01*
X128251690Y-96391333D01*
X128498683Y-96259312D01*
X128630619Y-95964224D01*
X127461000Y-94794605D01*
X126291381Y-95964224D01*
X123848280Y-95964224D01*
X123964013Y-95848491D01*
X124175775Y-95531566D01*
X124321639Y-95179419D01*
X124396000Y-94805581D01*
X124396000Y-94665729D01*
X125517299Y-94665729D01*
X125564543Y-95043951D01*
X125684667Y-95405690D01*
X125816688Y-95652683D01*
X126111776Y-95784619D01*
X127281395Y-94615000D01*
X127640605Y-94615000D01*
X128810224Y-95784619D01*
X129105312Y-95652683D01*
X129276159Y-95311955D01*
X129377250Y-94944443D01*
X129404701Y-94564271D01*
X129357457Y-94186049D01*
X129237333Y-93824310D01*
X129105312Y-93577317D01*
X128810224Y-93445381D01*
X127640605Y-94615000D01*
X127281395Y-94615000D01*
X126111776Y-93445381D01*
X125816688Y-93577317D01*
X125645841Y-93918045D01*
X125544750Y-94285557D01*
X125517299Y-94665729D01*
X124396000Y-94665729D01*
X124396000Y-94424419D01*
X124321639Y-94050581D01*
X124175775Y-93698434D01*
X123964013Y-93381509D01*
X123848280Y-93265776D01*
X126291381Y-93265776D01*
X127461000Y-94435395D01*
X128581395Y-93315000D01*
X130522928Y-93315000D01*
X130522928Y-95915000D01*
X130535188Y-96039482D01*
X130571498Y-96159180D01*
X130630463Y-96269494D01*
X130709815Y-96366185D01*
X130806506Y-96445537D01*
X130916820Y-96504502D01*
X131036518Y-96540812D01*
X131161000Y-96553072D01*
X133761000Y-96553072D01*
X133885482Y-96540812D01*
X134005180Y-96504502D01*
X134115494Y-96445537D01*
X134212185Y-96366185D01*
X134291537Y-96269494D01*
X134350502Y-96159180D01*
X134386812Y-96039482D01*
X134399072Y-95915000D01*
X134399072Y-94683408D01*
X153212800Y-94683408D01*
X153212800Y-94958592D01*
X153266486Y-95228490D01*
X153371795Y-95482727D01*
X153524680Y-95711535D01*
X153719265Y-95906120D01*
X153948073Y-96059005D01*
X154202310Y-96164314D01*
X154472208Y-96218000D01*
X154747392Y-96218000D01*
X155017290Y-96164314D01*
X155271527Y-96059005D01*
X155500335Y-95906120D01*
X155694920Y-95711535D01*
X155847805Y-95482727D01*
X155953114Y-95228490D01*
X156006800Y-94958592D01*
X156006800Y-94683408D01*
X155953114Y-94413510D01*
X155847805Y-94159273D01*
X155694920Y-93930465D01*
X155500335Y-93735880D01*
X155271527Y-93582995D01*
X155017290Y-93477686D01*
X154747392Y-93424000D01*
X154472208Y-93424000D01*
X154202310Y-93477686D01*
X153948073Y-93582995D01*
X153719265Y-93735880D01*
X153524680Y-93930465D01*
X153371795Y-94159273D01*
X153266486Y-94413510D01*
X153212800Y-94683408D01*
X134399072Y-94683408D01*
X134399072Y-93315000D01*
X134386812Y-93190518D01*
X134364794Y-93117933D01*
X147193000Y-93117933D01*
X147193000Y-93318067D01*
X147232044Y-93514356D01*
X147308632Y-93699256D01*
X147419821Y-93865662D01*
X147561338Y-94007179D01*
X147727744Y-94118368D01*
X147912644Y-94194956D01*
X148108933Y-94234000D01*
X148309067Y-94234000D01*
X148505356Y-94194956D01*
X148690256Y-94118368D01*
X148856662Y-94007179D01*
X148998179Y-93865662D01*
X149109368Y-93699256D01*
X149185956Y-93514356D01*
X149225000Y-93318067D01*
X149225000Y-93117933D01*
X149185956Y-92921644D01*
X149109368Y-92736744D01*
X148998179Y-92570338D01*
X148856662Y-92428821D01*
X148690256Y-92317632D01*
X148505356Y-92241044D01*
X148309067Y-92202000D01*
X148108933Y-92202000D01*
X147912644Y-92241044D01*
X147727744Y-92317632D01*
X147561338Y-92428821D01*
X147419821Y-92570338D01*
X147308632Y-92736744D01*
X147232044Y-92921644D01*
X147193000Y-93117933D01*
X134364794Y-93117933D01*
X134350502Y-93070820D01*
X134291537Y-92960506D01*
X134212185Y-92863815D01*
X134115494Y-92784463D01*
X134005180Y-92725498D01*
X133885482Y-92689188D01*
X133761000Y-92676928D01*
X131161000Y-92676928D01*
X131036518Y-92689188D01*
X130916820Y-92725498D01*
X130806506Y-92784463D01*
X130709815Y-92863815D01*
X130630463Y-92960506D01*
X130571498Y-93070820D01*
X130535188Y-93190518D01*
X130522928Y-93315000D01*
X128581395Y-93315000D01*
X128630619Y-93265776D01*
X128498683Y-92970688D01*
X128157955Y-92799841D01*
X127790443Y-92698750D01*
X127410271Y-92671299D01*
X127032049Y-92718543D01*
X126670310Y-92838667D01*
X126423317Y-92970688D01*
X126291381Y-93265776D01*
X123848280Y-93265776D01*
X123694491Y-93111987D01*
X123377566Y-92900225D01*
X123025419Y-92754361D01*
X122651581Y-92680000D01*
X122270419Y-92680000D01*
X121896581Y-92754361D01*
X121544434Y-92900225D01*
X121227509Y-93111987D01*
X120957987Y-93381509D01*
X120746225Y-93698434D01*
X120600361Y-94050581D01*
X120526000Y-94424419D01*
X118092072Y-94424419D01*
X118092072Y-93353000D01*
X118079812Y-93228518D01*
X118043502Y-93108820D01*
X117984537Y-92998506D01*
X117905185Y-92901815D01*
X117808494Y-92822463D01*
X117698180Y-92763498D01*
X117578482Y-92727188D01*
X117454000Y-92714928D01*
X114854000Y-92714928D01*
X114729518Y-92727188D01*
X114609820Y-92763498D01*
X114499506Y-92822463D01*
X114402815Y-92901815D01*
X114323463Y-92998506D01*
X114264498Y-93108820D01*
X114228188Y-93228518D01*
X114215928Y-93353000D01*
X112590504Y-93353000D01*
X112387491Y-93149987D01*
X112070566Y-92938225D01*
X111718419Y-92792361D01*
X111344581Y-92718000D01*
X110963419Y-92718000D01*
X110589581Y-92792361D01*
X110237434Y-92938225D01*
X109920509Y-93149987D01*
X109650987Y-93419509D01*
X109439225Y-93736434D01*
X109293361Y-94088581D01*
X109219000Y-94462419D01*
X108089000Y-94462419D01*
X108014639Y-94088581D01*
X107868775Y-93736434D01*
X107657013Y-93419509D01*
X107387491Y-93149987D01*
X107070566Y-92938225D01*
X106718419Y-92792361D01*
X106344581Y-92718000D01*
X105963419Y-92718000D01*
X105589581Y-92792361D01*
X105237434Y-92938225D01*
X104920509Y-93149987D01*
X104650987Y-93419509D01*
X104439225Y-93736434D01*
X104293361Y-94088581D01*
X104219000Y-94462419D01*
X103080232Y-94462419D01*
X103050457Y-94224049D01*
X102930333Y-93862310D01*
X102798312Y-93615317D01*
X102503224Y-93483381D01*
X101333605Y-94653000D01*
X100974395Y-94653000D01*
X99804776Y-93483381D01*
X99509688Y-93615317D01*
X99338841Y-93956045D01*
X99237750Y-94323557D01*
X99210299Y-94703729D01*
X97062880Y-94703729D01*
X97152533Y-94569554D01*
X97441623Y-93871628D01*
X97554575Y-93303776D01*
X99984381Y-93303776D01*
X101154000Y-94473395D01*
X102323619Y-93303776D01*
X102191683Y-93008688D01*
X101850955Y-92837841D01*
X101483443Y-92736750D01*
X101103271Y-92709299D01*
X100725049Y-92756543D01*
X100363310Y-92876667D01*
X100116317Y-93008688D01*
X99984381Y-93303776D01*
X97554575Y-93303776D01*
X97589000Y-93130715D01*
X97589000Y-92375285D01*
X97441623Y-91634372D01*
X97430372Y-91607208D01*
X153289000Y-91607208D01*
X153289000Y-91882392D01*
X153342686Y-92152290D01*
X153447995Y-92406527D01*
X153600880Y-92635335D01*
X153795465Y-92829920D01*
X154024273Y-92982805D01*
X154278510Y-93088114D01*
X154548408Y-93141800D01*
X154823592Y-93141800D01*
X155093490Y-93088114D01*
X155347727Y-92982805D01*
X155576535Y-92829920D01*
X155771120Y-92635335D01*
X155924005Y-92406527D01*
X156029314Y-92152290D01*
X156083000Y-91882392D01*
X156083000Y-91607208D01*
X156029314Y-91337310D01*
X155924005Y-91083073D01*
X155771120Y-90854265D01*
X155576535Y-90659680D01*
X155347727Y-90506795D01*
X155093490Y-90401486D01*
X154823592Y-90347800D01*
X154548408Y-90347800D01*
X154278510Y-90401486D01*
X154024273Y-90506795D01*
X153795465Y-90659680D01*
X153600880Y-90854265D01*
X153447995Y-91083073D01*
X153342686Y-91337310D01*
X153289000Y-91607208D01*
X97430372Y-91607208D01*
X97152533Y-90936446D01*
X96732839Y-90308330D01*
X96387509Y-89963000D01*
X157820491Y-89963000D01*
X157475161Y-90308330D01*
X157475161Y-90308330D01*
G37*
X157475161Y-90308330D02*
X157055467Y-90936446D01*
X156766377Y-91634372D01*
X156619000Y-92375285D01*
X156619000Y-93130715D01*
X156766377Y-93871628D01*
X157055467Y-94569554D01*
X157475161Y-95197670D01*
X158009330Y-95731839D01*
X158637446Y-96151533D01*
X159335372Y-96440623D01*
X160076285Y-96588000D01*
X160831715Y-96588000D01*
X161572628Y-96440623D01*
X162270554Y-96151533D01*
X162898670Y-95731839D01*
X163432839Y-95197670D01*
X163844000Y-94582324D01*
X163844001Y-116663392D01*
X163767097Y-116740296D01*
X163695514Y-116496329D01*
X163440004Y-116375429D01*
X163165816Y-116306700D01*
X162883488Y-116292783D01*
X162603870Y-116334213D01*
X162337708Y-116429397D01*
X162212486Y-116496329D01*
X162140903Y-116740298D01*
X162954000Y-117553395D01*
X162968143Y-117539253D01*
X163147748Y-117718858D01*
X163133605Y-117733000D01*
X163147748Y-117747143D01*
X162968143Y-117926748D01*
X162954000Y-117912605D01*
X162140903Y-118725702D01*
X162212486Y-118969671D01*
X162278636Y-119000971D01*
X162212486Y-119036329D01*
X162140903Y-119280298D01*
X162954000Y-120093395D01*
X162968143Y-120079253D01*
X163147748Y-120258858D01*
X163133605Y-120273000D01*
X163147748Y-120287143D01*
X162968143Y-120466748D01*
X162954000Y-120452605D01*
X162140903Y-121265702D01*
X162212486Y-121509671D01*
X162278636Y-121540971D01*
X162212486Y-121576329D01*
X162140903Y-121820298D01*
X162954000Y-122633395D01*
X162968143Y-122619253D01*
X163147748Y-122798858D01*
X163133605Y-122813000D01*
X163147748Y-122827143D01*
X162968143Y-123006748D01*
X162954000Y-122992605D01*
X162140903Y-123805702D01*
X162172984Y-123915041D01*
X162154000Y-123914928D01*
X162029518Y-123927188D01*
X161909820Y-123963498D01*
X161799506Y-124022463D01*
X161702815Y-124101815D01*
X161623463Y-124198506D01*
X161564498Y-124308820D01*
X161528188Y-124428518D01*
X161515928Y-124553000D01*
X161519000Y-125067250D01*
X161677750Y-125226000D01*
X162827000Y-125226000D01*
X162827000Y-125206000D01*
X163081000Y-125206000D01*
X163081000Y-125226000D01*
X163101000Y-125226000D01*
X163101000Y-125480000D01*
X163081000Y-125480000D01*
X163081000Y-126629250D01*
X163239750Y-126788000D01*
X163754000Y-126791072D01*
X163844001Y-126782208D01*
X163844001Y-129023677D01*
X163432839Y-128408330D01*
X162898670Y-127874161D01*
X162270554Y-127454467D01*
X161572628Y-127165377D01*
X160831715Y-127018000D01*
X160076285Y-127018000D01*
X159335372Y-127165377D01*
X158637446Y-127454467D01*
X158009330Y-127874161D01*
X157475161Y-128408330D01*
X157055467Y-129036446D01*
X156766377Y-129734372D01*
X156619000Y-130475285D01*
X156619000Y-131230715D01*
X156766377Y-131971628D01*
X157055467Y-132669554D01*
X157475161Y-133297670D01*
X157706491Y-133529000D01*
X96401509Y-133529000D01*
X96732839Y-133197670D01*
X97152533Y-132569554D01*
X97441623Y-131871628D01*
X97589000Y-131130715D01*
X97589000Y-130375285D01*
X97441623Y-129634372D01*
X97152533Y-128936446D01*
X96732839Y-128308330D01*
X96198670Y-127774161D01*
X96167001Y-127753000D01*
X98815928Y-127753000D01*
X98815928Y-130353000D01*
X98828188Y-130477482D01*
X98864498Y-130597180D01*
X98923463Y-130707494D01*
X99002815Y-130804185D01*
X99099506Y-130883537D01*
X99209820Y-130942502D01*
X99329518Y-130978812D01*
X99454000Y-130991072D01*
X102054000Y-130991072D01*
X102178482Y-130978812D01*
X102298180Y-130942502D01*
X102408494Y-130883537D01*
X102505185Y-130804185D01*
X102584537Y-130707494D01*
X102643502Y-130597180D01*
X102679812Y-130477482D01*
X102692072Y-130353000D01*
X102692072Y-128862419D01*
X103819000Y-128862419D01*
X103819000Y-129243581D01*
X103893361Y-129617419D01*
X104039225Y-129969566D01*
X104250987Y-130286491D01*
X104520509Y-130556013D01*
X104837434Y-130767775D01*
X105189581Y-130913639D01*
X105563419Y-130988000D01*
X105944581Y-130988000D01*
X106318419Y-130913639D01*
X106670566Y-130767775D01*
X106987491Y-130556013D01*
X107257013Y-130286491D01*
X107468775Y-129969566D01*
X107614639Y-129617419D01*
X107689000Y-129243581D01*
X107689000Y-128862419D01*
X108819000Y-128862419D01*
X108819000Y-129243581D01*
X108893361Y-129617419D01*
X109039225Y-129969566D01*
X109250987Y-130286491D01*
X109520509Y-130556013D01*
X109837434Y-130767775D01*
X110189581Y-130913639D01*
X110563419Y-130988000D01*
X110944581Y-130988000D01*
X111318419Y-130913639D01*
X111670566Y-130767775D01*
X111987491Y-130556013D01*
X112141280Y-130402224D01*
X114584381Y-130402224D01*
X114716317Y-130697312D01*
X115057045Y-130868159D01*
X115424557Y-130969250D01*
X115804729Y-130996701D01*
X116182951Y-130949457D01*
X116544690Y-130829333D01*
X116791683Y-130697312D01*
X116923619Y-130402224D01*
X115754000Y-129232605D01*
X114584381Y-130402224D01*
X112141280Y-130402224D01*
X112257013Y-130286491D01*
X112468775Y-129969566D01*
X112614639Y-129617419D01*
X112689000Y-129243581D01*
X112689000Y-129103729D01*
X113810299Y-129103729D01*
X113857543Y-129481951D01*
X113977667Y-129843690D01*
X114109688Y-130090683D01*
X114404776Y-130222619D01*
X115574395Y-129053000D01*
X115933605Y-129053000D01*
X117103224Y-130222619D01*
X117398312Y-130090683D01*
X117569159Y-129749955D01*
X117670250Y-129382443D01*
X117697701Y-129002271D01*
X117650457Y-128624049D01*
X117530333Y-128262310D01*
X117398312Y-128015317D01*
X117103224Y-127883381D01*
X115933605Y-129053000D01*
X115574395Y-129053000D01*
X114404776Y-127883381D01*
X114109688Y-128015317D01*
X113938841Y-128356045D01*
X113837750Y-128723557D01*
X113810299Y-129103729D01*
X112689000Y-129103729D01*
X112689000Y-128862419D01*
X112614639Y-128488581D01*
X112468775Y-128136434D01*
X112257013Y-127819509D01*
X112141280Y-127703776D01*
X114584381Y-127703776D01*
X115754000Y-128873395D01*
X116923619Y-127703776D01*
X116900917Y-127653000D01*
X120215928Y-127653000D01*
X120215928Y-130253000D01*
X120228188Y-130377482D01*
X120264498Y-130497180D01*
X120323463Y-130607494D01*
X120402815Y-130704185D01*
X120499506Y-130783537D01*
X120609820Y-130842502D01*
X120729518Y-130878812D01*
X120854000Y-130891072D01*
X123454000Y-130891072D01*
X123578482Y-130878812D01*
X123698180Y-130842502D01*
X123808494Y-130783537D01*
X123905185Y-130704185D01*
X123984537Y-130607494D01*
X124043502Y-130497180D01*
X124079812Y-130377482D01*
X124087224Y-130302224D01*
X125984381Y-130302224D01*
X126116317Y-130597312D01*
X126457045Y-130768159D01*
X126824557Y-130869250D01*
X127204729Y-130896701D01*
X127582951Y-130849457D01*
X127944690Y-130729333D01*
X128191683Y-130597312D01*
X128323619Y-130302224D01*
X127154000Y-129132605D01*
X125984381Y-130302224D01*
X124087224Y-130302224D01*
X124092072Y-130253000D01*
X124092072Y-129003729D01*
X125210299Y-129003729D01*
X125257543Y-129381951D01*
X125377667Y-129743690D01*
X125509688Y-129990683D01*
X125804776Y-130122619D01*
X126974395Y-128953000D01*
X127333605Y-128953000D01*
X128503224Y-130122619D01*
X128798312Y-129990683D01*
X128969159Y-129649955D01*
X129070250Y-129282443D01*
X129097701Y-128902271D01*
X129080232Y-128762419D01*
X130219000Y-128762419D01*
X130219000Y-129143581D01*
X130293361Y-129517419D01*
X130439225Y-129869566D01*
X130650987Y-130186491D01*
X130920509Y-130456013D01*
X131237434Y-130667775D01*
X131589581Y-130813639D01*
X131963419Y-130888000D01*
X132344581Y-130888000D01*
X132718419Y-130813639D01*
X133070566Y-130667775D01*
X133387491Y-130456013D01*
X133657013Y-130186491D01*
X133868775Y-129869566D01*
X134014639Y-129517419D01*
X134089000Y-129143581D01*
X134089000Y-128762419D01*
X134014639Y-128388581D01*
X133868775Y-128036434D01*
X133657013Y-127719509D01*
X133387491Y-127449987D01*
X133070566Y-127238225D01*
X132718419Y-127092361D01*
X132344581Y-127018000D01*
X131963419Y-127018000D01*
X131589581Y-127092361D01*
X131237434Y-127238225D01*
X130920509Y-127449987D01*
X130650987Y-127719509D01*
X130439225Y-128036434D01*
X130293361Y-128388581D01*
X130219000Y-128762419D01*
X129080232Y-128762419D01*
X129050457Y-128524049D01*
X128930333Y-128162310D01*
X128798312Y-127915317D01*
X128503224Y-127783381D01*
X127333605Y-128953000D01*
X126974395Y-128953000D01*
X125804776Y-127783381D01*
X125509688Y-127915317D01*
X125338841Y-128256045D01*
X125237750Y-128623557D01*
X125210299Y-129003729D01*
X124092072Y-129003729D01*
X124092072Y-127653000D01*
X124087225Y-127603776D01*
X125984381Y-127603776D01*
X127154000Y-128773395D01*
X128323619Y-127603776D01*
X128191683Y-127308688D01*
X127850955Y-127137841D01*
X127483443Y-127036750D01*
X127103271Y-127009299D01*
X126725049Y-127056543D01*
X126363310Y-127176667D01*
X126116317Y-127308688D01*
X125984381Y-127603776D01*
X124087225Y-127603776D01*
X124079812Y-127528518D01*
X124043502Y-127408820D01*
X123984537Y-127298506D01*
X123905185Y-127201815D01*
X123808494Y-127122463D01*
X123698180Y-127063498D01*
X123578482Y-127027188D01*
X123454000Y-127014928D01*
X120854000Y-127014928D01*
X120729518Y-127027188D01*
X120609820Y-127063498D01*
X120499506Y-127122463D01*
X120402815Y-127201815D01*
X120323463Y-127298506D01*
X120264498Y-127408820D01*
X120228188Y-127528518D01*
X120215928Y-127653000D01*
X116900917Y-127653000D01*
X116791683Y-127408688D01*
X116450955Y-127237841D01*
X116083443Y-127136750D01*
X115703271Y-127109299D01*
X115325049Y-127156543D01*
X114963310Y-127276667D01*
X114716317Y-127408688D01*
X114584381Y-127703776D01*
X112141280Y-127703776D01*
X111987491Y-127549987D01*
X111670566Y-127338225D01*
X111318419Y-127192361D01*
X110944581Y-127118000D01*
X110563419Y-127118000D01*
X110189581Y-127192361D01*
X109837434Y-127338225D01*
X109520509Y-127549987D01*
X109250987Y-127819509D01*
X109039225Y-128136434D01*
X108893361Y-128488581D01*
X108819000Y-128862419D01*
X107689000Y-128862419D01*
X107614639Y-128488581D01*
X107468775Y-128136434D01*
X107257013Y-127819509D01*
X106987491Y-127549987D01*
X106670566Y-127338225D01*
X106318419Y-127192361D01*
X105944581Y-127118000D01*
X105563419Y-127118000D01*
X105189581Y-127192361D01*
X104837434Y-127338225D01*
X104520509Y-127549987D01*
X104250987Y-127819509D01*
X104039225Y-128136434D01*
X103893361Y-128488581D01*
X103819000Y-128862419D01*
X102692072Y-128862419D01*
X102692072Y-127753000D01*
X102679812Y-127628518D01*
X102643502Y-127508820D01*
X102584537Y-127398506D01*
X102505185Y-127301815D01*
X102408494Y-127222463D01*
X102298180Y-127163498D01*
X102178482Y-127127188D01*
X102054000Y-127114928D01*
X99454000Y-127114928D01*
X99329518Y-127127188D01*
X99209820Y-127163498D01*
X99099506Y-127222463D01*
X99002815Y-127301815D01*
X98923463Y-127398506D01*
X98864498Y-127508820D01*
X98828188Y-127628518D01*
X98815928Y-127753000D01*
X96167001Y-127753000D01*
X95570554Y-127354467D01*
X94872628Y-127065377D01*
X94131715Y-126918000D01*
X93376285Y-126918000D01*
X92635372Y-127065377D01*
X91937446Y-127354467D01*
X91309330Y-127774161D01*
X90775161Y-128308330D01*
X90372000Y-128911703D01*
X90372000Y-125248933D01*
X106349800Y-125248933D01*
X106349800Y-125449067D01*
X106388844Y-125645356D01*
X106465432Y-125830256D01*
X106576621Y-125996662D01*
X106718138Y-126138179D01*
X106884544Y-126249368D01*
X107069444Y-126325956D01*
X107265733Y-126365000D01*
X107465867Y-126365000D01*
X107662156Y-126325956D01*
X107847056Y-126249368D01*
X108013462Y-126138179D01*
X108154979Y-125996662D01*
X108266168Y-125830256D01*
X108342756Y-125645356D01*
X108381800Y-125449067D01*
X108381800Y-125248933D01*
X108377637Y-125228000D01*
X137065928Y-125228000D01*
X137065928Y-126678000D01*
X137082992Y-126851254D01*
X137133528Y-127017850D01*
X137215595Y-127171386D01*
X137326038Y-127305962D01*
X137460614Y-127416405D01*
X137614150Y-127498472D01*
X137780746Y-127549008D01*
X137954000Y-127566072D01*
X139154000Y-127566072D01*
X139327254Y-127549008D01*
X139493850Y-127498472D01*
X139647386Y-127416405D01*
X139781962Y-127305962D01*
X139892405Y-127171386D01*
X139946777Y-127069663D01*
X139998866Y-127133134D01*
X140224987Y-127318706D01*
X140482967Y-127456599D01*
X140762890Y-127541513D01*
X141054000Y-127570185D01*
X141345111Y-127541513D01*
X141625034Y-127456599D01*
X141883014Y-127318706D01*
X142109134Y-127133134D01*
X142294706Y-126907014D01*
X142308462Y-126881278D01*
X142464951Y-127087429D01*
X142682807Y-127280496D01*
X142934142Y-127427352D01*
X143197110Y-127519476D01*
X143427000Y-127398155D01*
X143427000Y-126080000D01*
X143407000Y-126080000D01*
X143407000Y-125826000D01*
X143427000Y-125826000D01*
X143427000Y-124507845D01*
X143681000Y-124507845D01*
X143681000Y-125826000D01*
X143701000Y-125826000D01*
X143701000Y-126080000D01*
X143681000Y-126080000D01*
X143681000Y-127398155D01*
X143910890Y-127519476D01*
X144173858Y-127427352D01*
X144425193Y-127280496D01*
X144643049Y-127087429D01*
X144799538Y-126881278D01*
X144813294Y-126907014D01*
X144998866Y-127133134D01*
X145224987Y-127318706D01*
X145482967Y-127456599D01*
X145762890Y-127541513D01*
X146054000Y-127570185D01*
X146345111Y-127541513D01*
X146625034Y-127456599D01*
X146883014Y-127318706D01*
X147109134Y-127133134D01*
X147294706Y-126907014D01*
X147304000Y-126889626D01*
X147313294Y-126907014D01*
X147498866Y-127133134D01*
X147724987Y-127318706D01*
X147982967Y-127456599D01*
X148262890Y-127541513D01*
X148554000Y-127570185D01*
X148845111Y-127541513D01*
X149125034Y-127456599D01*
X149383014Y-127318706D01*
X149609134Y-127133134D01*
X149794706Y-126907014D01*
X149932599Y-126649033D01*
X149933539Y-126645933D01*
X151130000Y-126645933D01*
X151130000Y-126846067D01*
X151169044Y-127042356D01*
X151245632Y-127227256D01*
X151356821Y-127393662D01*
X151498338Y-127535179D01*
X151664744Y-127646368D01*
X151849644Y-127722956D01*
X152045933Y-127762000D01*
X152246067Y-127762000D01*
X152442356Y-127722956D01*
X152627256Y-127646368D01*
X152793662Y-127535179D01*
X152935179Y-127393662D01*
X153046368Y-127227256D01*
X153122956Y-127042356D01*
X153162000Y-126846067D01*
X153162000Y-126645933D01*
X153122956Y-126449644D01*
X153046368Y-126264744D01*
X152935179Y-126098338D01*
X152793662Y-125956821D01*
X152627256Y-125845632D01*
X152442356Y-125769044D01*
X152246067Y-125730000D01*
X152045933Y-125730000D01*
X151849644Y-125769044D01*
X151664744Y-125845632D01*
X151498338Y-125956821D01*
X151356821Y-126098338D01*
X151245632Y-126264744D01*
X151169044Y-126449644D01*
X151130000Y-126645933D01*
X149933539Y-126645933D01*
X150017513Y-126369110D01*
X150039000Y-126150949D01*
X150039000Y-125755050D01*
X150017513Y-125536889D01*
X149932599Y-125256966D01*
X149794706Y-124998986D01*
X149609134Y-124772866D01*
X149383013Y-124587294D01*
X149125033Y-124449401D01*
X148845110Y-124364487D01*
X148554000Y-124335815D01*
X148262889Y-124364487D01*
X147982966Y-124449401D01*
X147724986Y-124587294D01*
X147498866Y-124772866D01*
X147313294Y-124998987D01*
X147304000Y-125016374D01*
X147294706Y-124998986D01*
X147109134Y-124772866D01*
X146883013Y-124587294D01*
X146625033Y-124449401D01*
X146345110Y-124364487D01*
X146054000Y-124335815D01*
X145762889Y-124364487D01*
X145482966Y-124449401D01*
X145224986Y-124587294D01*
X144998866Y-124772866D01*
X144813294Y-124998987D01*
X144799538Y-125024722D01*
X144643049Y-124818571D01*
X144425193Y-124625504D01*
X144173858Y-124478648D01*
X143910890Y-124386524D01*
X143681000Y-124507845D01*
X143427000Y-124507845D01*
X143197110Y-124386524D01*
X142934142Y-124478648D01*
X142682807Y-124625504D01*
X142464951Y-124818571D01*
X142308462Y-125024722D01*
X142294706Y-124998986D01*
X142109134Y-124772866D01*
X141883013Y-124587294D01*
X141625033Y-124449401D01*
X141345110Y-124364487D01*
X141054000Y-124335815D01*
X140762889Y-124364487D01*
X140482966Y-124449401D01*
X140224986Y-124587294D01*
X139998866Y-124772866D01*
X139946777Y-124836337D01*
X139892405Y-124734614D01*
X139781962Y-124600038D01*
X139647386Y-124489595D01*
X139493850Y-124407528D01*
X139327254Y-124356992D01*
X139154000Y-124339928D01*
X137954000Y-124339928D01*
X137780746Y-124356992D01*
X137614150Y-124407528D01*
X137460614Y-124489595D01*
X137326038Y-124600038D01*
X137215595Y-124734614D01*
X137133528Y-124888150D01*
X137082992Y-125054746D01*
X137065928Y-125228000D01*
X108377637Y-125228000D01*
X108342756Y-125052644D01*
X108266168Y-124867744D01*
X108154979Y-124701338D01*
X108013462Y-124559821D01*
X107847056Y-124448632D01*
X107662156Y-124372044D01*
X107465867Y-124333000D01*
X107265733Y-124333000D01*
X107069444Y-124372044D01*
X106884544Y-124448632D01*
X106718138Y-124559821D01*
X106576621Y-124701338D01*
X106465432Y-124867744D01*
X106388844Y-125052644D01*
X106349800Y-125248933D01*
X90372000Y-125248933D01*
X90372000Y-122556533D01*
X124460000Y-122556533D01*
X124460000Y-122756667D01*
X124499044Y-122952956D01*
X124575632Y-123137856D01*
X124686821Y-123304262D01*
X124828338Y-123445779D01*
X124994744Y-123556968D01*
X125179644Y-123633556D01*
X125375933Y-123672600D01*
X125576067Y-123672600D01*
X125772356Y-123633556D01*
X125957256Y-123556968D01*
X126123662Y-123445779D01*
X126265179Y-123304262D01*
X126376368Y-123137856D01*
X126452956Y-122952956D01*
X126492000Y-122756667D01*
X126492000Y-122556533D01*
X126452956Y-122360244D01*
X126376368Y-122175344D01*
X126265179Y-122008938D01*
X126152363Y-121896122D01*
X131191155Y-121896122D01*
X131191155Y-122096256D01*
X131230199Y-122292545D01*
X131306787Y-122477445D01*
X131417976Y-122643851D01*
X131559493Y-122785368D01*
X131725899Y-122896557D01*
X131910799Y-122973145D01*
X132107088Y-123012189D01*
X132307222Y-123012189D01*
X132503511Y-122973145D01*
X132688411Y-122896557D01*
X132854817Y-122785368D01*
X132996334Y-122643851D01*
X133107523Y-122477445D01*
X133184111Y-122292545D01*
X133223155Y-122096256D01*
X133223155Y-121896122D01*
X133184111Y-121699833D01*
X133107523Y-121514933D01*
X132996334Y-121348527D01*
X132854817Y-121207010D01*
X132688411Y-121095821D01*
X132503511Y-121019233D01*
X132307222Y-120980189D01*
X132107088Y-120980189D01*
X131910799Y-121019233D01*
X131725899Y-121095821D01*
X131559493Y-121207010D01*
X131417976Y-121348527D01*
X131306787Y-121514933D01*
X131230199Y-121699833D01*
X131191155Y-121896122D01*
X126152363Y-121896122D01*
X126123662Y-121867421D01*
X125957256Y-121756232D01*
X125772356Y-121679644D01*
X125576067Y-121640600D01*
X125375933Y-121640600D01*
X125179644Y-121679644D01*
X124994744Y-121756232D01*
X124828338Y-121867421D01*
X124686821Y-122008938D01*
X124575632Y-122175344D01*
X124499044Y-122360244D01*
X124460000Y-122556533D01*
X90372000Y-122556533D01*
X90372000Y-121102224D01*
X93684381Y-121102224D01*
X93816317Y-121397312D01*
X94157045Y-121568159D01*
X94524557Y-121669250D01*
X94904729Y-121696701D01*
X95282951Y-121649457D01*
X95644690Y-121529333D01*
X95891683Y-121397312D01*
X96023619Y-121102224D01*
X94854000Y-119932605D01*
X93684381Y-121102224D01*
X90372000Y-121102224D01*
X90372000Y-119803729D01*
X92910299Y-119803729D01*
X92957543Y-120181951D01*
X93077667Y-120543690D01*
X93209688Y-120790683D01*
X93504776Y-120922619D01*
X94674395Y-119753000D01*
X95033605Y-119753000D01*
X96203224Y-120922619D01*
X96498312Y-120790683D01*
X96669159Y-120449955D01*
X96700887Y-120334608D01*
X116840000Y-120334608D01*
X116840000Y-120609792D01*
X116893686Y-120879690D01*
X116998995Y-121133927D01*
X117151880Y-121362735D01*
X117346465Y-121557320D01*
X117575273Y-121710205D01*
X117829510Y-121815514D01*
X118099408Y-121869200D01*
X118374592Y-121869200D01*
X118644490Y-121815514D01*
X118898727Y-121710205D01*
X119127535Y-121557320D01*
X119322120Y-121362735D01*
X119475005Y-121133927D01*
X119580314Y-120879690D01*
X119634000Y-120609792D01*
X119634000Y-120334608D01*
X119580314Y-120064710D01*
X119492210Y-119852008D01*
X133985000Y-119852008D01*
X133985000Y-120127192D01*
X134038686Y-120397090D01*
X134143995Y-120651327D01*
X134296880Y-120880135D01*
X134491465Y-121074720D01*
X134720273Y-121227605D01*
X134974510Y-121332914D01*
X135244408Y-121386600D01*
X135519592Y-121386600D01*
X135789490Y-121332914D01*
X136043727Y-121227605D01*
X136272535Y-121074720D01*
X136467120Y-120880135D01*
X136620005Y-120651327D01*
X136672525Y-120524533D01*
X144119600Y-120524533D01*
X144119600Y-120724667D01*
X144158644Y-120920956D01*
X144235232Y-121105856D01*
X144346421Y-121272262D01*
X144487938Y-121413779D01*
X144654344Y-121524968D01*
X144839244Y-121601556D01*
X145035533Y-121640600D01*
X145235667Y-121640600D01*
X145431956Y-121601556D01*
X145616856Y-121524968D01*
X145783262Y-121413779D01*
X145924779Y-121272262D01*
X146035968Y-121105856D01*
X146112556Y-120920956D01*
X146151600Y-120724667D01*
X146151600Y-120524533D01*
X146112556Y-120328244D01*
X146035968Y-120143344D01*
X145924779Y-119976938D01*
X145783262Y-119835421D01*
X145616856Y-119724232D01*
X145431956Y-119647644D01*
X145235667Y-119608600D01*
X145035533Y-119608600D01*
X144839244Y-119647644D01*
X144654344Y-119724232D01*
X144487938Y-119835421D01*
X144346421Y-119976938D01*
X144235232Y-120143344D01*
X144158644Y-120328244D01*
X144119600Y-120524533D01*
X136672525Y-120524533D01*
X136725314Y-120397090D01*
X136779000Y-120127192D01*
X136779000Y-119852008D01*
X136725314Y-119582110D01*
X136620005Y-119327873D01*
X136467120Y-119099065D01*
X136272535Y-118904480D01*
X136043727Y-118751595D01*
X135789490Y-118646286D01*
X135519592Y-118592600D01*
X135244408Y-118592600D01*
X134974510Y-118646286D01*
X134720273Y-118751595D01*
X134491465Y-118904480D01*
X134296880Y-119099065D01*
X134143995Y-119327873D01*
X134038686Y-119582110D01*
X133985000Y-119852008D01*
X119492210Y-119852008D01*
X119475005Y-119810473D01*
X119322120Y-119581665D01*
X119127535Y-119387080D01*
X118898727Y-119234195D01*
X118644490Y-119128886D01*
X118374592Y-119075200D01*
X118099408Y-119075200D01*
X117829510Y-119128886D01*
X117575273Y-119234195D01*
X117346465Y-119387080D01*
X117151880Y-119581665D01*
X116998995Y-119810473D01*
X116893686Y-120064710D01*
X116840000Y-120334608D01*
X96700887Y-120334608D01*
X96770250Y-120082443D01*
X96797701Y-119702271D01*
X96750457Y-119324049D01*
X96630333Y-118962310D01*
X96498312Y-118715317D01*
X96203224Y-118583381D01*
X95033605Y-119753000D01*
X94674395Y-119753000D01*
X93504776Y-118583381D01*
X93209688Y-118715317D01*
X93038841Y-119056045D01*
X92937750Y-119423557D01*
X92910299Y-119803729D01*
X90372000Y-119803729D01*
X90372000Y-118403776D01*
X93684381Y-118403776D01*
X94854000Y-119573395D01*
X96023619Y-118403776D01*
X95891683Y-118108688D01*
X95550955Y-117937841D01*
X95183443Y-117836750D01*
X94803271Y-117809299D01*
X94425049Y-117856543D01*
X94063310Y-117976667D01*
X93816317Y-118108688D01*
X93684381Y-118403776D01*
X90372000Y-118403776D01*
X90372000Y-117591665D01*
X153899000Y-117591665D01*
X153899000Y-117874335D01*
X153954147Y-118151574D01*
X154062320Y-118412727D01*
X154219363Y-118647759D01*
X154419241Y-118847637D01*
X154651759Y-119003000D01*
X154419241Y-119158363D01*
X154219363Y-119358241D01*
X154062320Y-119593273D01*
X153954147Y-119854426D01*
X153899000Y-120131665D01*
X153899000Y-120414335D01*
X153954147Y-120691574D01*
X154062320Y-120952727D01*
X154219363Y-121187759D01*
X154419241Y-121387637D01*
X154651759Y-121543000D01*
X154419241Y-121698363D01*
X154219363Y-121898241D01*
X154062320Y-122133273D01*
X153954147Y-122394426D01*
X153899000Y-122671665D01*
X153899000Y-122954335D01*
X153954147Y-123231574D01*
X154062320Y-123492727D01*
X154219363Y-123727759D01*
X154419241Y-123927637D01*
X154651759Y-124083000D01*
X154419241Y-124238363D01*
X154219363Y-124438241D01*
X154062320Y-124673273D01*
X153954147Y-124934426D01*
X153899000Y-125211665D01*
X153899000Y-125494335D01*
X153954147Y-125771574D01*
X154062320Y-126032727D01*
X154219363Y-126267759D01*
X154419241Y-126467637D01*
X154654273Y-126624680D01*
X154915426Y-126732853D01*
X155192665Y-126788000D01*
X155475335Y-126788000D01*
X155752574Y-126732853D01*
X156013727Y-126624680D01*
X156248759Y-126467637D01*
X156448637Y-126267759D01*
X156605680Y-126032727D01*
X156713853Y-125771574D01*
X156716765Y-125756933D01*
X158572200Y-125756933D01*
X158572200Y-125957067D01*
X158611244Y-126153356D01*
X158687832Y-126338256D01*
X158799021Y-126504662D01*
X158940538Y-126646179D01*
X159106944Y-126757368D01*
X159291844Y-126833956D01*
X159488133Y-126873000D01*
X159688267Y-126873000D01*
X159884556Y-126833956D01*
X160069456Y-126757368D01*
X160235862Y-126646179D01*
X160377379Y-126504662D01*
X160488568Y-126338256D01*
X160565156Y-126153356D01*
X160565226Y-126153000D01*
X161515928Y-126153000D01*
X161528188Y-126277482D01*
X161564498Y-126397180D01*
X161623463Y-126507494D01*
X161702815Y-126604185D01*
X161799506Y-126683537D01*
X161909820Y-126742502D01*
X162029518Y-126778812D01*
X162154000Y-126791072D01*
X162668250Y-126788000D01*
X162827000Y-126629250D01*
X162827000Y-125480000D01*
X161677750Y-125480000D01*
X161519000Y-125638750D01*
X161515928Y-126153000D01*
X160565226Y-126153000D01*
X160604200Y-125957067D01*
X160604200Y-125756933D01*
X160565156Y-125560644D01*
X160488568Y-125375744D01*
X160377379Y-125209338D01*
X160235862Y-125067821D01*
X160069456Y-124956632D01*
X159884556Y-124880044D01*
X159688267Y-124841000D01*
X159488133Y-124841000D01*
X159291844Y-124880044D01*
X159106944Y-124956632D01*
X158940538Y-125067821D01*
X158799021Y-125209338D01*
X158687832Y-125375744D01*
X158611244Y-125560644D01*
X158572200Y-125756933D01*
X156716765Y-125756933D01*
X156769000Y-125494335D01*
X156769000Y-125211665D01*
X156713853Y-124934426D01*
X156605680Y-124673273D01*
X156448637Y-124438241D01*
X156248759Y-124238363D01*
X156016241Y-124083000D01*
X156248759Y-123927637D01*
X156448637Y-123727759D01*
X156605680Y-123492727D01*
X156713853Y-123231574D01*
X156769000Y-122954335D01*
X156769000Y-122671665D01*
X156713853Y-122394426D01*
X156605680Y-122133273D01*
X156464201Y-121921533D01*
X156895800Y-121921533D01*
X156895800Y-122121667D01*
X156934844Y-122317956D01*
X157011432Y-122502856D01*
X157122621Y-122669262D01*
X157264138Y-122810779D01*
X157430544Y-122921968D01*
X157615444Y-122998556D01*
X157811733Y-123037600D01*
X158011867Y-123037600D01*
X158208156Y-122998556D01*
X158393056Y-122921968D01*
X158450609Y-122883512D01*
X161513783Y-122883512D01*
X161555213Y-123163130D01*
X161650397Y-123429292D01*
X161717329Y-123554514D01*
X161961298Y-123626097D01*
X162774395Y-122813000D01*
X161961298Y-121999903D01*
X161717329Y-122071486D01*
X161596429Y-122326996D01*
X161527700Y-122601184D01*
X161513783Y-122883512D01*
X158450609Y-122883512D01*
X158559462Y-122810779D01*
X158700979Y-122669262D01*
X158812168Y-122502856D01*
X158888756Y-122317956D01*
X158927800Y-122121667D01*
X158927800Y-121921533D01*
X158888756Y-121725244D01*
X158812168Y-121540344D01*
X158700979Y-121373938D01*
X158559462Y-121232421D01*
X158393056Y-121121232D01*
X158208156Y-121044644D01*
X158011867Y-121005600D01*
X157811733Y-121005600D01*
X157615444Y-121044644D01*
X157430544Y-121121232D01*
X157264138Y-121232421D01*
X157122621Y-121373938D01*
X157011432Y-121540344D01*
X156934844Y-121725244D01*
X156895800Y-121921533D01*
X156464201Y-121921533D01*
X156448637Y-121898241D01*
X156248759Y-121698363D01*
X156016241Y-121543000D01*
X156248759Y-121387637D01*
X156448637Y-121187759D01*
X156605680Y-120952727D01*
X156713853Y-120691574D01*
X156769000Y-120414335D01*
X156769000Y-120343512D01*
X161513783Y-120343512D01*
X161555213Y-120623130D01*
X161650397Y-120889292D01*
X161717329Y-121014514D01*
X161961298Y-121086097D01*
X162774395Y-120273000D01*
X161961298Y-119459903D01*
X161717329Y-119531486D01*
X161596429Y-119786996D01*
X161527700Y-120061184D01*
X161513783Y-120343512D01*
X156769000Y-120343512D01*
X156769000Y-120131665D01*
X156713853Y-119854426D01*
X156605680Y-119593273D01*
X156448637Y-119358241D01*
X156248759Y-119158363D01*
X156016241Y-119003000D01*
X156248759Y-118847637D01*
X156448637Y-118647759D01*
X156605680Y-118412727D01*
X156713853Y-118151574D01*
X156769000Y-117874335D01*
X156769000Y-117803512D01*
X161513783Y-117803512D01*
X161555213Y-118083130D01*
X161650397Y-118349292D01*
X161717329Y-118474514D01*
X161961298Y-118546097D01*
X162774395Y-117733000D01*
X161961298Y-116919903D01*
X161717329Y-116991486D01*
X161596429Y-117246996D01*
X161527700Y-117521184D01*
X161513783Y-117803512D01*
X156769000Y-117803512D01*
X156769000Y-117591665D01*
X156713853Y-117314426D01*
X156605680Y-117053273D01*
X156448637Y-116818241D01*
X156248759Y-116618363D01*
X156013727Y-116461320D01*
X155752574Y-116353147D01*
X155475335Y-116298000D01*
X155192665Y-116298000D01*
X154915426Y-116353147D01*
X154654273Y-116461320D01*
X154419241Y-116618363D01*
X154219363Y-116818241D01*
X154062320Y-117053273D01*
X153954147Y-117314426D01*
X153899000Y-117591665D01*
X90372000Y-117591665D01*
X90372000Y-114562419D01*
X92919000Y-114562419D01*
X92919000Y-114943581D01*
X92993361Y-115317419D01*
X93139225Y-115669566D01*
X93350987Y-115986491D01*
X93620509Y-116256013D01*
X93937434Y-116467775D01*
X94289581Y-116613639D01*
X94663419Y-116688000D01*
X95044581Y-116688000D01*
X95418419Y-116613639D01*
X95770566Y-116467775D01*
X96087491Y-116256013D01*
X96357013Y-115986491D01*
X96568775Y-115669566D01*
X96693549Y-115368333D01*
X123164600Y-115368333D01*
X123164600Y-115568467D01*
X123203644Y-115764756D01*
X123280232Y-115949656D01*
X123391421Y-116116062D01*
X123532938Y-116257579D01*
X123699344Y-116368768D01*
X123884244Y-116445356D01*
X124080533Y-116484400D01*
X124280667Y-116484400D01*
X124476956Y-116445356D01*
X124661856Y-116368768D01*
X124828262Y-116257579D01*
X124969779Y-116116062D01*
X125080968Y-115949656D01*
X125157556Y-115764756D01*
X125196600Y-115568467D01*
X125196600Y-115368333D01*
X125157556Y-115172044D01*
X125080968Y-114987144D01*
X125063805Y-114961457D01*
X125857476Y-114961457D01*
X125857476Y-115161591D01*
X125896520Y-115357880D01*
X125973108Y-115542780D01*
X126084297Y-115709186D01*
X126225814Y-115850703D01*
X126392220Y-115961892D01*
X126577120Y-116038480D01*
X126773409Y-116077524D01*
X126973543Y-116077524D01*
X127169832Y-116038480D01*
X127354732Y-115961892D01*
X127521138Y-115850703D01*
X127662655Y-115709186D01*
X127773844Y-115542780D01*
X127850432Y-115357880D01*
X127889476Y-115161591D01*
X127889476Y-114961457D01*
X127850432Y-114765168D01*
X127773844Y-114580268D01*
X127662655Y-114413862D01*
X127521138Y-114272345D01*
X127354732Y-114161156D01*
X127169832Y-114084568D01*
X126973543Y-114045524D01*
X126773409Y-114045524D01*
X126577120Y-114084568D01*
X126392220Y-114161156D01*
X126225814Y-114272345D01*
X126084297Y-114413862D01*
X125973108Y-114580268D01*
X125896520Y-114765168D01*
X125857476Y-114961457D01*
X125063805Y-114961457D01*
X124969779Y-114820738D01*
X124828262Y-114679221D01*
X124661856Y-114568032D01*
X124476956Y-114491444D01*
X124280667Y-114452400D01*
X124080533Y-114452400D01*
X123884244Y-114491444D01*
X123699344Y-114568032D01*
X123532938Y-114679221D01*
X123391421Y-114820738D01*
X123280232Y-114987144D01*
X123203644Y-115172044D01*
X123164600Y-115368333D01*
X96693549Y-115368333D01*
X96714639Y-115317419D01*
X96789000Y-114943581D01*
X96789000Y-114562419D01*
X96714639Y-114188581D01*
X96690843Y-114131132D01*
X110871000Y-114131132D01*
X110871000Y-114331266D01*
X110910044Y-114527555D01*
X110986632Y-114712455D01*
X111097821Y-114878861D01*
X111239338Y-115020378D01*
X111405744Y-115131567D01*
X111590644Y-115208155D01*
X111786933Y-115247199D01*
X111987067Y-115247199D01*
X112183356Y-115208155D01*
X112368256Y-115131567D01*
X112534662Y-115020378D01*
X112676179Y-114878861D01*
X112787368Y-114712455D01*
X112863956Y-114527555D01*
X112903000Y-114331266D01*
X112903000Y-114131132D01*
X112863956Y-113934843D01*
X112787368Y-113749943D01*
X112676179Y-113583537D01*
X112534662Y-113442020D01*
X112368256Y-113330831D01*
X112183356Y-113254243D01*
X111987067Y-113215199D01*
X111786933Y-113215199D01*
X111590644Y-113254243D01*
X111405744Y-113330831D01*
X111239338Y-113442020D01*
X111097821Y-113583537D01*
X110986632Y-113749943D01*
X110910044Y-113934843D01*
X110871000Y-114131132D01*
X96690843Y-114131132D01*
X96568775Y-113836434D01*
X96357013Y-113519509D01*
X96087491Y-113249987D01*
X95770566Y-113038225D01*
X95418419Y-112892361D01*
X95044581Y-112818000D01*
X94663419Y-112818000D01*
X94289581Y-112892361D01*
X93937434Y-113038225D01*
X93620509Y-113249987D01*
X93350987Y-113519509D01*
X93139225Y-113836434D01*
X92993361Y-114188581D01*
X92919000Y-114562419D01*
X90372000Y-114562419D01*
X90372000Y-109562419D01*
X92919000Y-109562419D01*
X92919000Y-109943581D01*
X92993361Y-110317419D01*
X93139225Y-110669566D01*
X93350987Y-110986491D01*
X93620509Y-111256013D01*
X93937434Y-111467775D01*
X94289581Y-111613639D01*
X94663419Y-111688000D01*
X95044581Y-111688000D01*
X95418419Y-111613639D01*
X95770566Y-111467775D01*
X96087491Y-111256013D01*
X96089971Y-111253533D01*
X106934000Y-111253533D01*
X106934000Y-111453667D01*
X106973044Y-111649956D01*
X107049632Y-111834856D01*
X107160821Y-112001262D01*
X107272556Y-112112997D01*
X107202032Y-112218544D01*
X107125444Y-112403444D01*
X107086400Y-112599733D01*
X107086400Y-112799867D01*
X107125444Y-112996156D01*
X107202032Y-113181056D01*
X107313221Y-113347462D01*
X107454738Y-113488979D01*
X107621144Y-113600168D01*
X107806044Y-113676756D01*
X108002333Y-113715800D01*
X108202467Y-113715800D01*
X108398756Y-113676756D01*
X108583656Y-113600168D01*
X108750062Y-113488979D01*
X108891579Y-113347462D01*
X109002768Y-113181056D01*
X109079356Y-112996156D01*
X109118400Y-112799867D01*
X109118400Y-112599733D01*
X109079356Y-112403444D01*
X109002768Y-112218544D01*
X108891579Y-112052138D01*
X108779844Y-111940403D01*
X108850368Y-111834856D01*
X108926956Y-111649956D01*
X108966000Y-111453667D01*
X108966000Y-111253533D01*
X108926956Y-111057244D01*
X108903052Y-110999533D01*
X118643400Y-110999533D01*
X118643400Y-111199667D01*
X118682444Y-111395956D01*
X118759032Y-111580856D01*
X118870221Y-111747262D01*
X119011738Y-111888779D01*
X119178144Y-111999968D01*
X119363044Y-112076556D01*
X119559333Y-112115600D01*
X119759467Y-112115600D01*
X119955756Y-112076556D01*
X119980436Y-112066333D01*
X132918200Y-112066333D01*
X132918200Y-112266467D01*
X132957244Y-112462756D01*
X133033832Y-112647656D01*
X133145021Y-112814062D01*
X133286538Y-112955579D01*
X133452944Y-113066768D01*
X133637844Y-113143356D01*
X133834133Y-113182400D01*
X134034267Y-113182400D01*
X134230556Y-113143356D01*
X134415456Y-113066768D01*
X134581862Y-112955579D01*
X134723379Y-112814062D01*
X134834568Y-112647656D01*
X134835632Y-112645088D01*
X134897621Y-112737862D01*
X135039138Y-112879379D01*
X135205544Y-112990568D01*
X135390444Y-113067156D01*
X135573409Y-113103550D01*
X135456421Y-113220538D01*
X135345232Y-113386944D01*
X135268644Y-113571844D01*
X135229600Y-113768133D01*
X135229600Y-113968267D01*
X135268644Y-114164556D01*
X135345232Y-114349456D01*
X135456421Y-114515862D01*
X135597938Y-114657379D01*
X135764344Y-114768568D01*
X135949244Y-114845156D01*
X136145533Y-114884200D01*
X136345667Y-114884200D01*
X136541956Y-114845156D01*
X136726856Y-114768568D01*
X136893262Y-114657379D01*
X137034779Y-114515862D01*
X137145968Y-114349456D01*
X137222556Y-114164556D01*
X137261600Y-113968267D01*
X137261600Y-113768133D01*
X137222556Y-113571844D01*
X137145968Y-113386944D01*
X137034779Y-113220538D01*
X136893262Y-113079021D01*
X136726856Y-112967832D01*
X136541956Y-112891244D01*
X136358991Y-112854850D01*
X136475979Y-112737862D01*
X136587168Y-112571456D01*
X136663756Y-112386556D01*
X136702800Y-112190267D01*
X136702800Y-111990133D01*
X136663756Y-111793844D01*
X136587168Y-111608944D01*
X136475979Y-111442538D01*
X136334462Y-111301021D01*
X136168056Y-111189832D01*
X135983156Y-111113244D01*
X135786867Y-111074200D01*
X135586733Y-111074200D01*
X135390444Y-111113244D01*
X135205544Y-111189832D01*
X135039138Y-111301021D01*
X134897621Y-111442538D01*
X134786432Y-111608944D01*
X134785368Y-111611512D01*
X134723379Y-111518738D01*
X134581862Y-111377221D01*
X134415456Y-111266032D01*
X134230556Y-111189444D01*
X134034267Y-111150400D01*
X133834133Y-111150400D01*
X133637844Y-111189444D01*
X133452944Y-111266032D01*
X133286538Y-111377221D01*
X133145021Y-111518738D01*
X133033832Y-111685144D01*
X132957244Y-111870044D01*
X132918200Y-112066333D01*
X119980436Y-112066333D01*
X120140656Y-111999968D01*
X120307062Y-111888779D01*
X120448579Y-111747262D01*
X120559768Y-111580856D01*
X120636356Y-111395956D01*
X120675400Y-111199667D01*
X120675400Y-110999533D01*
X120636356Y-110803244D01*
X120559768Y-110618344D01*
X120448579Y-110451938D01*
X120307062Y-110310421D01*
X120235992Y-110262933D01*
X128193800Y-110262933D01*
X128193800Y-110463067D01*
X128232844Y-110659356D01*
X128309432Y-110844256D01*
X128420621Y-111010662D01*
X128562138Y-111152179D01*
X128728544Y-111263368D01*
X128913444Y-111339956D01*
X129109733Y-111379000D01*
X129309867Y-111379000D01*
X129506156Y-111339956D01*
X129691056Y-111263368D01*
X129857462Y-111152179D01*
X129998979Y-111010662D01*
X130110168Y-110844256D01*
X130186756Y-110659356D01*
X130225800Y-110463067D01*
X130225800Y-110262933D01*
X130186756Y-110066644D01*
X130110168Y-109881744D01*
X129998979Y-109715338D01*
X129857462Y-109573821D01*
X129691056Y-109462632D01*
X129506156Y-109386044D01*
X129309867Y-109347000D01*
X129109733Y-109347000D01*
X128913444Y-109386044D01*
X128728544Y-109462632D01*
X128562138Y-109573821D01*
X128420621Y-109715338D01*
X128309432Y-109881744D01*
X128232844Y-110066644D01*
X128193800Y-110262933D01*
X120235992Y-110262933D01*
X120140656Y-110199232D01*
X119955756Y-110122644D01*
X119759467Y-110083600D01*
X119559333Y-110083600D01*
X119363044Y-110122644D01*
X119178144Y-110199232D01*
X119011738Y-110310421D01*
X118870221Y-110451938D01*
X118759032Y-110618344D01*
X118682444Y-110803244D01*
X118643400Y-110999533D01*
X108903052Y-110999533D01*
X108850368Y-110872344D01*
X108739179Y-110705938D01*
X108597662Y-110564421D01*
X108431256Y-110453232D01*
X108246356Y-110376644D01*
X108050067Y-110337600D01*
X107849933Y-110337600D01*
X107653644Y-110376644D01*
X107468744Y-110453232D01*
X107302338Y-110564421D01*
X107160821Y-110705938D01*
X107049632Y-110872344D01*
X106973044Y-111057244D01*
X106934000Y-111253533D01*
X96089971Y-111253533D01*
X96357013Y-110986491D01*
X96568775Y-110669566D01*
X96714639Y-110317419D01*
X96789000Y-109943581D01*
X96789000Y-109562419D01*
X96714639Y-109188581D01*
X96568775Y-108836434D01*
X96357013Y-108519509D01*
X96087491Y-108249987D01*
X95770566Y-108038225D01*
X95418419Y-107892361D01*
X95044581Y-107818000D01*
X94663419Y-107818000D01*
X94289581Y-107892361D01*
X93937434Y-108038225D01*
X93620509Y-108249987D01*
X93350987Y-108519509D01*
X93139225Y-108836434D01*
X92993361Y-109188581D01*
X92919000Y-109562419D01*
X90372000Y-109562419D01*
X90372000Y-103453000D01*
X92915928Y-103453000D01*
X92915928Y-106053000D01*
X92928188Y-106177482D01*
X92964498Y-106297180D01*
X93023463Y-106407494D01*
X93102815Y-106504185D01*
X93199506Y-106583537D01*
X93309820Y-106642502D01*
X93429518Y-106678812D01*
X93554000Y-106691072D01*
X96154000Y-106691072D01*
X96278482Y-106678812D01*
X96398180Y-106642502D01*
X96508494Y-106583537D01*
X96605185Y-106504185D01*
X96684537Y-106407494D01*
X96743502Y-106297180D01*
X96779812Y-106177482D01*
X96781639Y-106158927D01*
X109467867Y-106158927D01*
X109467867Y-106359061D01*
X109506911Y-106555350D01*
X109583499Y-106740250D01*
X109694688Y-106906656D01*
X109836205Y-107048173D01*
X110002611Y-107159362D01*
X110187511Y-107235950D01*
X110383800Y-107274994D01*
X110583934Y-107274994D01*
X110758187Y-107240333D01*
X121412000Y-107240333D01*
X121412000Y-107440467D01*
X121451044Y-107636756D01*
X121527632Y-107821656D01*
X121638821Y-107988062D01*
X121780338Y-108129579D01*
X121946744Y-108240768D01*
X122131644Y-108317356D01*
X122327933Y-108356400D01*
X122528067Y-108356400D01*
X122724356Y-108317356D01*
X122909256Y-108240768D01*
X123014803Y-108170244D01*
X123075738Y-108231179D01*
X123242144Y-108342368D01*
X123427044Y-108418956D01*
X123623333Y-108458000D01*
X123823467Y-108458000D01*
X124019756Y-108418956D01*
X124204656Y-108342368D01*
X124371062Y-108231179D01*
X124512579Y-108089662D01*
X124623768Y-107923256D01*
X124700356Y-107738356D01*
X124739400Y-107542067D01*
X124739400Y-107341933D01*
X124700356Y-107145644D01*
X124634368Y-106986333D01*
X131394200Y-106986333D01*
X131394200Y-107186467D01*
X131433244Y-107382756D01*
X131509832Y-107567656D01*
X131621021Y-107734062D01*
X131762538Y-107875579D01*
X131928944Y-107986768D01*
X132113844Y-108063356D01*
X132310133Y-108102400D01*
X132510267Y-108102400D01*
X132706556Y-108063356D01*
X132891456Y-107986768D01*
X133057862Y-107875579D01*
X133199379Y-107734062D01*
X133310568Y-107567656D01*
X133387156Y-107382756D01*
X133426200Y-107186467D01*
X133426200Y-106986333D01*
X133387156Y-106790044D01*
X133310568Y-106605144D01*
X133234706Y-106491608D01*
X134848600Y-106491608D01*
X134848600Y-106766792D01*
X134902286Y-107036690D01*
X135007595Y-107290927D01*
X135160480Y-107519735D01*
X135355065Y-107714320D01*
X135583873Y-107867205D01*
X135838110Y-107972514D01*
X136108008Y-108026200D01*
X136281959Y-108026200D01*
X136218421Y-108089738D01*
X136107232Y-108256144D01*
X136030644Y-108441044D01*
X135991600Y-108637333D01*
X135991600Y-108837467D01*
X136030644Y-109033756D01*
X136107232Y-109218656D01*
X136218421Y-109385062D01*
X136359938Y-109526579D01*
X136526344Y-109637768D01*
X136711244Y-109714356D01*
X136907533Y-109753400D01*
X137107667Y-109753400D01*
X137303956Y-109714356D01*
X137488856Y-109637768D01*
X137655262Y-109526579D01*
X137796779Y-109385062D01*
X137907968Y-109218656D01*
X137969902Y-109069133D01*
X139192000Y-109069133D01*
X139192000Y-109269267D01*
X139231044Y-109465556D01*
X139307632Y-109650456D01*
X139418821Y-109816862D01*
X139560338Y-109958379D01*
X139726744Y-110069568D01*
X139911644Y-110146156D01*
X140107933Y-110185200D01*
X140308067Y-110185200D01*
X140504356Y-110146156D01*
X140689256Y-110069568D01*
X140855662Y-109958379D01*
X140997179Y-109816862D01*
X141108368Y-109650456D01*
X141184956Y-109465556D01*
X141224000Y-109269267D01*
X141224000Y-109069133D01*
X141184956Y-108872844D01*
X141108368Y-108687944D01*
X140997179Y-108521538D01*
X140855662Y-108380021D01*
X140689256Y-108268832D01*
X140536439Y-108205533D01*
X144145000Y-108205533D01*
X144145000Y-108405667D01*
X144184044Y-108601956D01*
X144260632Y-108786856D01*
X144371821Y-108953262D01*
X144513338Y-109094779D01*
X144679744Y-109205968D01*
X144864644Y-109282556D01*
X145060933Y-109321600D01*
X145261067Y-109321600D01*
X145381055Y-109297733D01*
X147116800Y-109297733D01*
X147116800Y-109497867D01*
X147155844Y-109694156D01*
X147232432Y-109879056D01*
X147343621Y-110045462D01*
X147485138Y-110186979D01*
X147651544Y-110298168D01*
X147836444Y-110374756D01*
X148032733Y-110413800D01*
X148232867Y-110413800D01*
X148429156Y-110374756D01*
X148614056Y-110298168D01*
X148780462Y-110186979D01*
X148921979Y-110045462D01*
X149033168Y-109879056D01*
X149109756Y-109694156D01*
X149148800Y-109497867D01*
X149148800Y-109297733D01*
X149109756Y-109101444D01*
X149033168Y-108916544D01*
X148921979Y-108750138D01*
X148780462Y-108608621D01*
X148614056Y-108497432D01*
X148429156Y-108420844D01*
X148232867Y-108381800D01*
X148032733Y-108381800D01*
X147836444Y-108420844D01*
X147651544Y-108497432D01*
X147485138Y-108608621D01*
X147343621Y-108750138D01*
X147232432Y-108916544D01*
X147155844Y-109101444D01*
X147116800Y-109297733D01*
X145381055Y-109297733D01*
X145457356Y-109282556D01*
X145642256Y-109205968D01*
X145808662Y-109094779D01*
X145950179Y-108953262D01*
X146061368Y-108786856D01*
X146137956Y-108601956D01*
X146142718Y-108578014D01*
X146305533Y-108610400D01*
X146505667Y-108610400D01*
X146701956Y-108571356D01*
X146886856Y-108494768D01*
X147053262Y-108383579D01*
X147194779Y-108242062D01*
X147305968Y-108075656D01*
X147382556Y-107890756D01*
X147421600Y-107694467D01*
X147421600Y-107631410D01*
X156579206Y-107631410D01*
X156579206Y-107831544D01*
X156618250Y-108027833D01*
X156694838Y-108212733D01*
X156806027Y-108379139D01*
X156947544Y-108520656D01*
X157113950Y-108631845D01*
X157298850Y-108708433D01*
X157495139Y-108747477D01*
X157695273Y-108747477D01*
X157891562Y-108708433D01*
X158076462Y-108631845D01*
X158242868Y-108520656D01*
X158384385Y-108379139D01*
X158495574Y-108212733D01*
X158553466Y-108072969D01*
X158573733Y-108077000D01*
X158773867Y-108077000D01*
X158970156Y-108037956D01*
X159155056Y-107961368D01*
X159321462Y-107850179D01*
X159462979Y-107708662D01*
X159574168Y-107542256D01*
X159650756Y-107357356D01*
X159689800Y-107161067D01*
X159689800Y-106960933D01*
X159650756Y-106764644D01*
X159574168Y-106579744D01*
X159462979Y-106413338D01*
X159321462Y-106271821D01*
X159155056Y-106160632D01*
X158970156Y-106084044D01*
X158773867Y-106045000D01*
X158573733Y-106045000D01*
X158377444Y-106084044D01*
X158192544Y-106160632D01*
X158026138Y-106271821D01*
X157884621Y-106413338D01*
X157773432Y-106579744D01*
X157715540Y-106719508D01*
X157695273Y-106715477D01*
X157495139Y-106715477D01*
X157298850Y-106754521D01*
X157113950Y-106831109D01*
X156947544Y-106942298D01*
X156806027Y-107083815D01*
X156694838Y-107250221D01*
X156618250Y-107435121D01*
X156579206Y-107631410D01*
X147421600Y-107631410D01*
X147421600Y-107494333D01*
X147382556Y-107298044D01*
X147305968Y-107113144D01*
X147194779Y-106946738D01*
X147156641Y-106908600D01*
X147169379Y-106895861D01*
X147280568Y-106729455D01*
X147357156Y-106544555D01*
X147396200Y-106348266D01*
X147396200Y-106148132D01*
X147357156Y-105951843D01*
X147280568Y-105766943D01*
X147169379Y-105600537D01*
X147027862Y-105459020D01*
X146861456Y-105347831D01*
X146676556Y-105271243D01*
X146480267Y-105232199D01*
X146280133Y-105232199D01*
X146083844Y-105271243D01*
X145898944Y-105347831D01*
X145732538Y-105459020D01*
X145591021Y-105600537D01*
X145479832Y-105766943D01*
X145403244Y-105951843D01*
X145364200Y-106148132D01*
X145364200Y-106348266D01*
X145403244Y-106544555D01*
X145479832Y-106729455D01*
X145591021Y-106895861D01*
X145629160Y-106934000D01*
X145616421Y-106946738D01*
X145505232Y-107113144D01*
X145428644Y-107298044D01*
X145423882Y-107321986D01*
X145261067Y-107289600D01*
X145060933Y-107289600D01*
X144864644Y-107328644D01*
X144679744Y-107405232D01*
X144513338Y-107516421D01*
X144371821Y-107657938D01*
X144260632Y-107824344D01*
X144184044Y-108009244D01*
X144145000Y-108205533D01*
X140536439Y-108205533D01*
X140504356Y-108192244D01*
X140308067Y-108153200D01*
X140107933Y-108153200D01*
X139911644Y-108192244D01*
X139726744Y-108268832D01*
X139560338Y-108380021D01*
X139418821Y-108521538D01*
X139307632Y-108687944D01*
X139231044Y-108872844D01*
X139192000Y-109069133D01*
X137969902Y-109069133D01*
X137984556Y-109033756D01*
X138023600Y-108837467D01*
X138023600Y-108637333D01*
X137984556Y-108441044D01*
X137907968Y-108256144D01*
X137796779Y-108089738D01*
X137655262Y-107948221D01*
X137488856Y-107837032D01*
X137303956Y-107760444D01*
X137121439Y-107724139D01*
X137136135Y-107714320D01*
X137330720Y-107519735D01*
X137483605Y-107290927D01*
X137588914Y-107036690D01*
X137642600Y-106766792D01*
X137642600Y-106491608D01*
X137588914Y-106221710D01*
X137483605Y-105967473D01*
X137330720Y-105738665D01*
X137136135Y-105544080D01*
X136907327Y-105391195D01*
X136653090Y-105285886D01*
X136383192Y-105232200D01*
X136108008Y-105232200D01*
X135838110Y-105285886D01*
X135583873Y-105391195D01*
X135355065Y-105544080D01*
X135160480Y-105738665D01*
X135007595Y-105967473D01*
X134902286Y-106221710D01*
X134848600Y-106491608D01*
X133234706Y-106491608D01*
X133199379Y-106438738D01*
X133057862Y-106297221D01*
X132891456Y-106186032D01*
X132706556Y-106109444D01*
X132510267Y-106070400D01*
X132310133Y-106070400D01*
X132113844Y-106109444D01*
X131928944Y-106186032D01*
X131762538Y-106297221D01*
X131621021Y-106438738D01*
X131509832Y-106605144D01*
X131433244Y-106790044D01*
X131394200Y-106986333D01*
X124634368Y-106986333D01*
X124623768Y-106960744D01*
X124512579Y-106794338D01*
X124371062Y-106652821D01*
X124204656Y-106541632D01*
X124019756Y-106465044D01*
X123823467Y-106426000D01*
X123623333Y-106426000D01*
X123427044Y-106465044D01*
X123242144Y-106541632D01*
X123136597Y-106612156D01*
X123075662Y-106551221D01*
X122909256Y-106440032D01*
X122724356Y-106363444D01*
X122528067Y-106324400D01*
X122327933Y-106324400D01*
X122131644Y-106363444D01*
X121946744Y-106440032D01*
X121780338Y-106551221D01*
X121638821Y-106692738D01*
X121527632Y-106859144D01*
X121451044Y-107044044D01*
X121412000Y-107240333D01*
X110758187Y-107240333D01*
X110780223Y-107235950D01*
X110965123Y-107159362D01*
X111131529Y-107048173D01*
X111273046Y-106906656D01*
X111384235Y-106740250D01*
X111460823Y-106555350D01*
X111499867Y-106359061D01*
X111499867Y-106158927D01*
X111460823Y-105962638D01*
X111384235Y-105777738D01*
X111273046Y-105611332D01*
X111131529Y-105469815D01*
X110965123Y-105358626D01*
X110780223Y-105282038D01*
X110583934Y-105242994D01*
X110383800Y-105242994D01*
X110187511Y-105282038D01*
X110002611Y-105358626D01*
X109836205Y-105469815D01*
X109694688Y-105611332D01*
X109583499Y-105777738D01*
X109506911Y-105962638D01*
X109467867Y-106158927D01*
X96781639Y-106158927D01*
X96792072Y-106053000D01*
X96792072Y-104808532D01*
X103276400Y-104808532D01*
X103276400Y-105008666D01*
X103315444Y-105204955D01*
X103392032Y-105389855D01*
X103503221Y-105556261D01*
X103644738Y-105697778D01*
X103811144Y-105808967D01*
X103996044Y-105885555D01*
X104192333Y-105924599D01*
X104392467Y-105924599D01*
X104588756Y-105885555D01*
X104773656Y-105808967D01*
X104940062Y-105697778D01*
X105081579Y-105556261D01*
X105192768Y-105389855D01*
X105269356Y-105204955D01*
X105308400Y-105008666D01*
X105308400Y-104808532D01*
X105269356Y-104612243D01*
X105192768Y-104427343D01*
X105154542Y-104370133D01*
X111277400Y-104370133D01*
X111277400Y-104570267D01*
X111316444Y-104766556D01*
X111393032Y-104951456D01*
X111504221Y-105117862D01*
X111645738Y-105259379D01*
X111812144Y-105370568D01*
X111997044Y-105447156D01*
X112193333Y-105486200D01*
X112393467Y-105486200D01*
X112589756Y-105447156D01*
X112774656Y-105370568D01*
X112941062Y-105259379D01*
X113082579Y-105117862D01*
X113193768Y-104951456D01*
X113270356Y-104766556D01*
X113309400Y-104570267D01*
X113309400Y-104370133D01*
X113270356Y-104173844D01*
X113193768Y-103988944D01*
X113082579Y-103822538D01*
X112941062Y-103681021D01*
X112774656Y-103569832D01*
X112589756Y-103493244D01*
X112393467Y-103454200D01*
X112193333Y-103454200D01*
X111997044Y-103493244D01*
X111812144Y-103569832D01*
X111645738Y-103681021D01*
X111504221Y-103822538D01*
X111393032Y-103988944D01*
X111316444Y-104173844D01*
X111277400Y-104370133D01*
X105154542Y-104370133D01*
X105081579Y-104260937D01*
X104940062Y-104119420D01*
X104773656Y-104008231D01*
X104588756Y-103931643D01*
X104392467Y-103892599D01*
X104192333Y-103892599D01*
X103996044Y-103931643D01*
X103811144Y-104008231D01*
X103644738Y-104119420D01*
X103503221Y-104260937D01*
X103392032Y-104427343D01*
X103315444Y-104612243D01*
X103276400Y-104808532D01*
X96792072Y-104808532D01*
X96792072Y-103453000D01*
X96779812Y-103328518D01*
X96743502Y-103208820D01*
X96684537Y-103098506D01*
X96605185Y-103001815D01*
X96508494Y-102922463D01*
X96398180Y-102863498D01*
X96278482Y-102827188D01*
X96154000Y-102814928D01*
X93554000Y-102814928D01*
X93429518Y-102827188D01*
X93309820Y-102863498D01*
X93199506Y-102922463D01*
X93102815Y-103001815D01*
X93023463Y-103098506D01*
X92964498Y-103208820D01*
X92928188Y-103328518D01*
X92915928Y-103453000D01*
X90372000Y-103453000D01*
X90372000Y-102211133D01*
X154533600Y-102211133D01*
X154533600Y-102411267D01*
X154572644Y-102607556D01*
X154649232Y-102792456D01*
X154760421Y-102958862D01*
X154901938Y-103100379D01*
X155068344Y-103211568D01*
X155253244Y-103288156D01*
X155449533Y-103327200D01*
X155649667Y-103327200D01*
X155845956Y-103288156D01*
X156030856Y-103211568D01*
X156197262Y-103100379D01*
X156338779Y-102958862D01*
X156449968Y-102792456D01*
X156526556Y-102607556D01*
X156565600Y-102411267D01*
X156565600Y-102211133D01*
X156526556Y-102014844D01*
X156449968Y-101829944D01*
X156338779Y-101663538D01*
X156197262Y-101522021D01*
X156030856Y-101410832D01*
X155845956Y-101334244D01*
X155649667Y-101295200D01*
X155449533Y-101295200D01*
X155253244Y-101334244D01*
X155068344Y-101410832D01*
X154901938Y-101522021D01*
X154760421Y-101663538D01*
X154649232Y-101829944D01*
X154572644Y-102014844D01*
X154533600Y-102211133D01*
X90372000Y-102211133D01*
X90372000Y-98299534D01*
X135940800Y-98299534D01*
X135940800Y-98499668D01*
X135979844Y-98695957D01*
X136056432Y-98880857D01*
X136167621Y-99047263D01*
X136309138Y-99188780D01*
X136475544Y-99299969D01*
X136660444Y-99376557D01*
X136856733Y-99415601D01*
X137056867Y-99415601D01*
X137253156Y-99376557D01*
X137438056Y-99299969D01*
X137604462Y-99188780D01*
X137745979Y-99047263D01*
X137803748Y-98960805D01*
X137982966Y-99056599D01*
X138262889Y-99141513D01*
X138554000Y-99170185D01*
X138845110Y-99141513D01*
X139125033Y-99056599D01*
X139383013Y-98918706D01*
X139609134Y-98733134D01*
X139794706Y-98507014D01*
X139804000Y-98489626D01*
X139813294Y-98507013D01*
X139998866Y-98733134D01*
X140224986Y-98918706D01*
X140482966Y-99056599D01*
X140739982Y-99134564D01*
X140704244Y-99220844D01*
X140665200Y-99417133D01*
X140665200Y-99617267D01*
X140704244Y-99813556D01*
X140780832Y-99998456D01*
X140892021Y-100164862D01*
X141033538Y-100306379D01*
X141199944Y-100417568D01*
X141384844Y-100494156D01*
X141581133Y-100533200D01*
X141781267Y-100533200D01*
X141977556Y-100494156D01*
X142162456Y-100417568D01*
X142328862Y-100306379D01*
X142470379Y-100164862D01*
X142581568Y-99998456D01*
X142658156Y-99813556D01*
X142697200Y-99617267D01*
X142697200Y-99417133D01*
X142658156Y-99220844D01*
X142581568Y-99035944D01*
X142470379Y-98869538D01*
X142328862Y-98728021D01*
X142189662Y-98635010D01*
X142294706Y-98507014D01*
X142308462Y-98481278D01*
X142464951Y-98687429D01*
X142682807Y-98880496D01*
X142934142Y-99027352D01*
X143197110Y-99119476D01*
X143427000Y-98998155D01*
X143427000Y-97680000D01*
X143407000Y-97680000D01*
X143407000Y-97426000D01*
X143427000Y-97426000D01*
X143427000Y-96107845D01*
X143681000Y-96107845D01*
X143681000Y-97426000D01*
X143701000Y-97426000D01*
X143701000Y-97680000D01*
X143681000Y-97680000D01*
X143681000Y-98998155D01*
X143910890Y-99119476D01*
X144173858Y-99027352D01*
X144425193Y-98880496D01*
X144643049Y-98687429D01*
X144799538Y-98481278D01*
X144813294Y-98507013D01*
X144998866Y-98733134D01*
X145224986Y-98918706D01*
X145482966Y-99056599D01*
X145762889Y-99141513D01*
X146054000Y-99170185D01*
X146345110Y-99141513D01*
X146625033Y-99056599D01*
X146883013Y-98918706D01*
X147109134Y-98733134D01*
X147161223Y-98669663D01*
X147215595Y-98771386D01*
X147326038Y-98905962D01*
X147460614Y-99016405D01*
X147614150Y-99098472D01*
X147780746Y-99149008D01*
X147954000Y-99166072D01*
X149154000Y-99166072D01*
X149327254Y-99149008D01*
X149493850Y-99098472D01*
X149647386Y-99016405D01*
X149781962Y-98905962D01*
X149892405Y-98771386D01*
X149974472Y-98617850D01*
X150025008Y-98451254D01*
X150042072Y-98278000D01*
X150042072Y-96828000D01*
X150025008Y-96654746D01*
X149974472Y-96488150D01*
X149892405Y-96334614D01*
X149781962Y-96200038D01*
X149647386Y-96089595D01*
X149493850Y-96007528D01*
X149327254Y-95956992D01*
X149154000Y-95939928D01*
X147954000Y-95939928D01*
X147780746Y-95956992D01*
X147614150Y-96007528D01*
X147460614Y-96089595D01*
X147326038Y-96200038D01*
X147215595Y-96334614D01*
X147161223Y-96436337D01*
X147109134Y-96372866D01*
X146883014Y-96187294D01*
X146625034Y-96049401D01*
X146345111Y-95964487D01*
X146054000Y-95935815D01*
X145762890Y-95964487D01*
X145482967Y-96049401D01*
X145224987Y-96187294D01*
X144998866Y-96372866D01*
X144813294Y-96598986D01*
X144799538Y-96624722D01*
X144643049Y-96418571D01*
X144425193Y-96225504D01*
X144173858Y-96078648D01*
X143910890Y-95986524D01*
X143681000Y-96107845D01*
X143427000Y-96107845D01*
X143197110Y-95986524D01*
X142934142Y-96078648D01*
X142682807Y-96225504D01*
X142464951Y-96418571D01*
X142308462Y-96624722D01*
X142294706Y-96598986D01*
X142109134Y-96372866D01*
X141883014Y-96187294D01*
X141625034Y-96049401D01*
X141345111Y-95964487D01*
X141054000Y-95935815D01*
X140762890Y-95964487D01*
X140482967Y-96049401D01*
X140224987Y-96187294D01*
X139998866Y-96372866D01*
X139813294Y-96598986D01*
X139804000Y-96616374D01*
X139794706Y-96598986D01*
X139609134Y-96372866D01*
X139383014Y-96187294D01*
X139125034Y-96049401D01*
X138845111Y-95964487D01*
X138554000Y-95935815D01*
X138262890Y-95964487D01*
X137982967Y-96049401D01*
X137724987Y-96187294D01*
X137498866Y-96372866D01*
X137313294Y-96598986D01*
X137175401Y-96856966D01*
X137090487Y-97136889D01*
X137069000Y-97355050D01*
X137069000Y-97386014D01*
X137056867Y-97383601D01*
X136856733Y-97383601D01*
X136660444Y-97422645D01*
X136475544Y-97499233D01*
X136309138Y-97610422D01*
X136167621Y-97751939D01*
X136056432Y-97918345D01*
X135979844Y-98103245D01*
X135940800Y-98299534D01*
X90372000Y-98299534D01*
X90372000Y-94594297D01*
X90775161Y-95197670D01*
X91309330Y-95731839D01*
X91937446Y-96151533D01*
X92635372Y-96440623D01*
X93376285Y-96588000D01*
X94131715Y-96588000D01*
X94872628Y-96440623D01*
X95570554Y-96151533D01*
X95794010Y-96002224D01*
X99984381Y-96002224D01*
X100116317Y-96297312D01*
X100457045Y-96468159D01*
X100824557Y-96569250D01*
X101204729Y-96596701D01*
X101582951Y-96549457D01*
X101944690Y-96429333D01*
X102191683Y-96297312D01*
X102323619Y-96002224D01*
X101154000Y-94832605D01*
X99984381Y-96002224D01*
X95794010Y-96002224D01*
X96198670Y-95731839D01*
X96732839Y-95197670D01*
X97062880Y-94703729D01*
X99210299Y-94703729D01*
X99257543Y-95081951D01*
X99377667Y-95443690D01*
X99509688Y-95690683D01*
X99804776Y-95822619D01*
X100974395Y-94653000D01*
X101333605Y-94653000D01*
X102503224Y-95822619D01*
X102798312Y-95690683D01*
X102969159Y-95349955D01*
X103070250Y-94982443D01*
X103097701Y-94602271D01*
X103080232Y-94462419D01*
X104219000Y-94462419D01*
X104219000Y-94843581D01*
X104293361Y-95217419D01*
X104439225Y-95569566D01*
X104650987Y-95886491D01*
X104920509Y-96156013D01*
X105237434Y-96367775D01*
X105589581Y-96513639D01*
X105963419Y-96588000D01*
X106344581Y-96588000D01*
X106718419Y-96513639D01*
X107070566Y-96367775D01*
X107387491Y-96156013D01*
X107657013Y-95886491D01*
X107868775Y-95569566D01*
X108014639Y-95217419D01*
X108089000Y-94843581D01*
X108089000Y-94462419D01*
X109219000Y-94462419D01*
X109219000Y-94843581D01*
X109293361Y-95217419D01*
X109439225Y-95569566D01*
X109650987Y-95886491D01*
X109920509Y-96156013D01*
X110237434Y-96367775D01*
X110589581Y-96513639D01*
X110963419Y-96588000D01*
X111344581Y-96588000D01*
X111718419Y-96513639D01*
X112070566Y-96367775D01*
X112387491Y-96156013D01*
X112657013Y-95886491D01*
X112868775Y-95569566D01*
X113014639Y-95217419D01*
X113089000Y-94843581D01*
X113089000Y-94462419D01*
X113014639Y-94088581D01*
X112868775Y-93736434D01*
X112657013Y-93419509D01*
X112590504Y-93353000D01*
X114215928Y-93353000D01*
X114215928Y-95953000D01*
X114228188Y-96077482D01*
X114264498Y-96197180D01*
X114323463Y-96307494D01*
X114402815Y-96404185D01*
X114499506Y-96483537D01*
X114609820Y-96542502D01*
X114729518Y-96578812D01*
X114854000Y-96591072D01*
X117454000Y-96591072D01*
X117578482Y-96578812D01*
X117698180Y-96542502D01*
X117808494Y-96483537D01*
X117905185Y-96404185D01*
X117984537Y-96307494D01*
X118043502Y-96197180D01*
X118079812Y-96077482D01*
X118092072Y-95953000D01*
X118092072Y-94424419D01*
X120526000Y-94424419D01*
X120526000Y-94805581D01*
X120600361Y-95179419D01*
X120746225Y-95531566D01*
X120957987Y-95848491D01*
X121227509Y-96118013D01*
X121544434Y-96329775D01*
X121896581Y-96475639D01*
X122270419Y-96550000D01*
X122651581Y-96550000D01*
X123025419Y-96475639D01*
X123377566Y-96329775D01*
X123694491Y-96118013D01*
X123848280Y-95964224D01*
X126291381Y-95964224D01*
X126423317Y-96259312D01*
X126764045Y-96430159D01*
X127131557Y-96531250D01*
X127511729Y-96558701D01*
X127889951Y-96511457D01*
X128251690Y-96391333D01*
X128498683Y-96259312D01*
X128630619Y-95964224D01*
X127461000Y-94794605D01*
X126291381Y-95964224D01*
X123848280Y-95964224D01*
X123964013Y-95848491D01*
X124175775Y-95531566D01*
X124321639Y-95179419D01*
X124396000Y-94805581D01*
X124396000Y-94665729D01*
X125517299Y-94665729D01*
X125564543Y-95043951D01*
X125684667Y-95405690D01*
X125816688Y-95652683D01*
X126111776Y-95784619D01*
X127281395Y-94615000D01*
X127640605Y-94615000D01*
X128810224Y-95784619D01*
X129105312Y-95652683D01*
X129276159Y-95311955D01*
X129377250Y-94944443D01*
X129404701Y-94564271D01*
X129357457Y-94186049D01*
X129237333Y-93824310D01*
X129105312Y-93577317D01*
X128810224Y-93445381D01*
X127640605Y-94615000D01*
X127281395Y-94615000D01*
X126111776Y-93445381D01*
X125816688Y-93577317D01*
X125645841Y-93918045D01*
X125544750Y-94285557D01*
X125517299Y-94665729D01*
X124396000Y-94665729D01*
X124396000Y-94424419D01*
X124321639Y-94050581D01*
X124175775Y-93698434D01*
X123964013Y-93381509D01*
X123848280Y-93265776D01*
X126291381Y-93265776D01*
X127461000Y-94435395D01*
X128581395Y-93315000D01*
X130522928Y-93315000D01*
X130522928Y-95915000D01*
X130535188Y-96039482D01*
X130571498Y-96159180D01*
X130630463Y-96269494D01*
X130709815Y-96366185D01*
X130806506Y-96445537D01*
X130916820Y-96504502D01*
X131036518Y-96540812D01*
X131161000Y-96553072D01*
X133761000Y-96553072D01*
X133885482Y-96540812D01*
X134005180Y-96504502D01*
X134115494Y-96445537D01*
X134212185Y-96366185D01*
X134291537Y-96269494D01*
X134350502Y-96159180D01*
X134386812Y-96039482D01*
X134399072Y-95915000D01*
X134399072Y-94683408D01*
X153212800Y-94683408D01*
X153212800Y-94958592D01*
X153266486Y-95228490D01*
X153371795Y-95482727D01*
X153524680Y-95711535D01*
X153719265Y-95906120D01*
X153948073Y-96059005D01*
X154202310Y-96164314D01*
X154472208Y-96218000D01*
X154747392Y-96218000D01*
X155017290Y-96164314D01*
X155271527Y-96059005D01*
X155500335Y-95906120D01*
X155694920Y-95711535D01*
X155847805Y-95482727D01*
X155953114Y-95228490D01*
X156006800Y-94958592D01*
X156006800Y-94683408D01*
X155953114Y-94413510D01*
X155847805Y-94159273D01*
X155694920Y-93930465D01*
X155500335Y-93735880D01*
X155271527Y-93582995D01*
X155017290Y-93477686D01*
X154747392Y-93424000D01*
X154472208Y-93424000D01*
X154202310Y-93477686D01*
X153948073Y-93582995D01*
X153719265Y-93735880D01*
X153524680Y-93930465D01*
X153371795Y-94159273D01*
X153266486Y-94413510D01*
X153212800Y-94683408D01*
X134399072Y-94683408D01*
X134399072Y-93315000D01*
X134386812Y-93190518D01*
X134364794Y-93117933D01*
X147193000Y-93117933D01*
X147193000Y-93318067D01*
X147232044Y-93514356D01*
X147308632Y-93699256D01*
X147419821Y-93865662D01*
X147561338Y-94007179D01*
X147727744Y-94118368D01*
X147912644Y-94194956D01*
X148108933Y-94234000D01*
X148309067Y-94234000D01*
X148505356Y-94194956D01*
X148690256Y-94118368D01*
X148856662Y-94007179D01*
X148998179Y-93865662D01*
X149109368Y-93699256D01*
X149185956Y-93514356D01*
X149225000Y-93318067D01*
X149225000Y-93117933D01*
X149185956Y-92921644D01*
X149109368Y-92736744D01*
X148998179Y-92570338D01*
X148856662Y-92428821D01*
X148690256Y-92317632D01*
X148505356Y-92241044D01*
X148309067Y-92202000D01*
X148108933Y-92202000D01*
X147912644Y-92241044D01*
X147727744Y-92317632D01*
X147561338Y-92428821D01*
X147419821Y-92570338D01*
X147308632Y-92736744D01*
X147232044Y-92921644D01*
X147193000Y-93117933D01*
X134364794Y-93117933D01*
X134350502Y-93070820D01*
X134291537Y-92960506D01*
X134212185Y-92863815D01*
X134115494Y-92784463D01*
X134005180Y-92725498D01*
X133885482Y-92689188D01*
X133761000Y-92676928D01*
X131161000Y-92676928D01*
X131036518Y-92689188D01*
X130916820Y-92725498D01*
X130806506Y-92784463D01*
X130709815Y-92863815D01*
X130630463Y-92960506D01*
X130571498Y-93070820D01*
X130535188Y-93190518D01*
X130522928Y-93315000D01*
X128581395Y-93315000D01*
X128630619Y-93265776D01*
X128498683Y-92970688D01*
X128157955Y-92799841D01*
X127790443Y-92698750D01*
X127410271Y-92671299D01*
X127032049Y-92718543D01*
X126670310Y-92838667D01*
X126423317Y-92970688D01*
X126291381Y-93265776D01*
X123848280Y-93265776D01*
X123694491Y-93111987D01*
X123377566Y-92900225D01*
X123025419Y-92754361D01*
X122651581Y-92680000D01*
X122270419Y-92680000D01*
X121896581Y-92754361D01*
X121544434Y-92900225D01*
X121227509Y-93111987D01*
X120957987Y-93381509D01*
X120746225Y-93698434D01*
X120600361Y-94050581D01*
X120526000Y-94424419D01*
X118092072Y-94424419D01*
X118092072Y-93353000D01*
X118079812Y-93228518D01*
X118043502Y-93108820D01*
X117984537Y-92998506D01*
X117905185Y-92901815D01*
X117808494Y-92822463D01*
X117698180Y-92763498D01*
X117578482Y-92727188D01*
X117454000Y-92714928D01*
X114854000Y-92714928D01*
X114729518Y-92727188D01*
X114609820Y-92763498D01*
X114499506Y-92822463D01*
X114402815Y-92901815D01*
X114323463Y-92998506D01*
X114264498Y-93108820D01*
X114228188Y-93228518D01*
X114215928Y-93353000D01*
X112590504Y-93353000D01*
X112387491Y-93149987D01*
X112070566Y-92938225D01*
X111718419Y-92792361D01*
X111344581Y-92718000D01*
X110963419Y-92718000D01*
X110589581Y-92792361D01*
X110237434Y-92938225D01*
X109920509Y-93149987D01*
X109650987Y-93419509D01*
X109439225Y-93736434D01*
X109293361Y-94088581D01*
X109219000Y-94462419D01*
X108089000Y-94462419D01*
X108014639Y-94088581D01*
X107868775Y-93736434D01*
X107657013Y-93419509D01*
X107387491Y-93149987D01*
X107070566Y-92938225D01*
X106718419Y-92792361D01*
X106344581Y-92718000D01*
X105963419Y-92718000D01*
X105589581Y-92792361D01*
X105237434Y-92938225D01*
X104920509Y-93149987D01*
X104650987Y-93419509D01*
X104439225Y-93736434D01*
X104293361Y-94088581D01*
X104219000Y-94462419D01*
X103080232Y-94462419D01*
X103050457Y-94224049D01*
X102930333Y-93862310D01*
X102798312Y-93615317D01*
X102503224Y-93483381D01*
X101333605Y-94653000D01*
X100974395Y-94653000D01*
X99804776Y-93483381D01*
X99509688Y-93615317D01*
X99338841Y-93956045D01*
X99237750Y-94323557D01*
X99210299Y-94703729D01*
X97062880Y-94703729D01*
X97152533Y-94569554D01*
X97441623Y-93871628D01*
X97554575Y-93303776D01*
X99984381Y-93303776D01*
X101154000Y-94473395D01*
X102323619Y-93303776D01*
X102191683Y-93008688D01*
X101850955Y-92837841D01*
X101483443Y-92736750D01*
X101103271Y-92709299D01*
X100725049Y-92756543D01*
X100363310Y-92876667D01*
X100116317Y-93008688D01*
X99984381Y-93303776D01*
X97554575Y-93303776D01*
X97589000Y-93130715D01*
X97589000Y-92375285D01*
X97441623Y-91634372D01*
X97430372Y-91607208D01*
X153289000Y-91607208D01*
X153289000Y-91882392D01*
X153342686Y-92152290D01*
X153447995Y-92406527D01*
X153600880Y-92635335D01*
X153795465Y-92829920D01*
X154024273Y-92982805D01*
X154278510Y-93088114D01*
X154548408Y-93141800D01*
X154823592Y-93141800D01*
X155093490Y-93088114D01*
X155347727Y-92982805D01*
X155576535Y-92829920D01*
X155771120Y-92635335D01*
X155924005Y-92406527D01*
X156029314Y-92152290D01*
X156083000Y-91882392D01*
X156083000Y-91607208D01*
X156029314Y-91337310D01*
X155924005Y-91083073D01*
X155771120Y-90854265D01*
X155576535Y-90659680D01*
X155347727Y-90506795D01*
X155093490Y-90401486D01*
X154823592Y-90347800D01*
X154548408Y-90347800D01*
X154278510Y-90401486D01*
X154024273Y-90506795D01*
X153795465Y-90659680D01*
X153600880Y-90854265D01*
X153447995Y-91083073D01*
X153342686Y-91337310D01*
X153289000Y-91607208D01*
X97430372Y-91607208D01*
X97152533Y-90936446D01*
X96732839Y-90308330D01*
X96387509Y-89963000D01*
X157820491Y-89963000D01*
X157475161Y-90308330D01*
M02*
