G04 #@! TF.GenerationSoftware,KiCad,Pcbnew,(5.1.4)-1*
G04 #@! TF.CreationDate,2020-09-28T18:45:27-04:00*
G04 #@! TF.ProjectId,i2c_pancake,6932635f-7061-46e6-9361-6b652e6b6963,rev?*
G04 #@! TF.SameCoordinates,Original*
G04 #@! TF.FileFunction,Legend,Bot*
G04 #@! TF.FilePolarity,Positive*
%FSLAX46Y46*%
G04 Gerber Fmt 4.6, Leading zero omitted, Abs format (unit mm)*
G04 Created by KiCad (PCBNEW (5.1.4)-1) date 2020-09-28 18:45:27*
%MOMM*%
%LPD*%
G04 APERTURE LIST*
%ADD10C,0.150000*%
%ADD11C,0.100000*%
%ADD12C,0.127000*%
%ADD13C,0.120000*%
%ADD14C,0.152400*%
%ADD15C,0.149873*%
G04 APERTURE END LIST*
D10*
X89662000Y-134239000D02*
X164554000Y-134239000D01*
X89662000Y-89253000D02*
X164554000Y-89253000D01*
X164554000Y-89253000D02*
X164554000Y-134239000D01*
X89662000Y-89253000D02*
X89662000Y-134239000D01*
D11*
X102757600Y-115681000D02*
G75*
G03X102757600Y-115681000I-50000J0D01*
G01*
D12*
X105807600Y-117631000D02*
X105057600Y-117631000D01*
X105807600Y-116231000D02*
X105807600Y-117631000D01*
X102807600Y-117631000D02*
X103557600Y-117631000D01*
X102807600Y-116231000D02*
X102807600Y-117631000D01*
D13*
X138662400Y-107204600D02*
X138662400Y-108204600D01*
X136962400Y-108204600D02*
X136962400Y-107204600D01*
X115404000Y-123103000D02*
X115404000Y-124103000D01*
X113704000Y-124103000D02*
X113704000Y-123103000D01*
X115504000Y-101053000D02*
X115504000Y-102053000D01*
X113804000Y-102053000D02*
X113804000Y-101053000D01*
X126435800Y-119966400D02*
X127435800Y-119966400D01*
X127435800Y-121666400D02*
X126435800Y-121666400D01*
X97574000Y-122953000D02*
X97574000Y-124153000D01*
X99334000Y-124153000D02*
X99334000Y-122953000D01*
X111904000Y-118033000D02*
X113104000Y-118033000D01*
X113104000Y-116273000D02*
X111904000Y-116273000D01*
X97574000Y-101003000D02*
X97574000Y-102203000D01*
X99334000Y-102203000D02*
X99334000Y-101003000D01*
X111704000Y-108333000D02*
X112904000Y-108333000D01*
X112904000Y-106573000D02*
X111704000Y-106573000D01*
X153036600Y-129545000D02*
X154236600Y-129545000D01*
X154236600Y-127785000D02*
X153036600Y-127785000D01*
X151704000Y-122673000D02*
X150504000Y-122673000D01*
X150504000Y-124433000D02*
X151704000Y-124433000D01*
X151754000Y-118773000D02*
X150554000Y-118773000D01*
X150554000Y-120533000D02*
X151754000Y-120533000D01*
X152397800Y-115397200D02*
X153597800Y-115397200D01*
X153597800Y-113637200D02*
X152397800Y-113637200D01*
D10*
X104479000Y-104178000D02*
X103079000Y-104178000D01*
X104479000Y-99078000D02*
X108629000Y-99078000D01*
X104479000Y-104228000D02*
X108629000Y-104228000D01*
X104479000Y-99078000D02*
X104479000Y-99223000D01*
X108629000Y-99078000D02*
X108629000Y-99223000D01*
X108629000Y-104228000D02*
X108629000Y-104083000D01*
X104479000Y-104228000D02*
X104479000Y-104178000D01*
D11*
X130335600Y-119352400D02*
X123285600Y-119352400D01*
X122835600Y-118837400D02*
X122835600Y-107807400D01*
X130335600Y-119357400D02*
X130335600Y-107807400D01*
X130335600Y-107802400D02*
X122835600Y-107802400D01*
D13*
X149940000Y-107342400D02*
X149940000Y-108342400D01*
X148240000Y-108342400D02*
X148240000Y-107342400D01*
D14*
X146105500Y-110133160D02*
X146105500Y-109114099D01*
X141533500Y-110133160D02*
X141533500Y-109114099D01*
X145216500Y-110133160D02*
X145216500Y-109114099D01*
X140644500Y-110133160D02*
X140644500Y-109114099D01*
D10*
X104379000Y-125978000D02*
X102979000Y-125978000D01*
X104379000Y-120878000D02*
X108529000Y-120878000D01*
X104379000Y-126028000D02*
X108529000Y-126028000D01*
X104379000Y-120878000D02*
X104379000Y-121023000D01*
X108529000Y-120878000D02*
X108529000Y-121023000D01*
X108529000Y-126028000D02*
X108529000Y-125883000D01*
X104379000Y-126028000D02*
X104379000Y-125978000D01*
X155554000Y-111123000D02*
X155554000Y-98423000D01*
X164054000Y-111123000D02*
X164054000Y-98423000D01*
X155554000Y-111123000D02*
X164054000Y-111123000D01*
X155554000Y-98423000D02*
X164054000Y-98423000D01*
X155554000Y-100963000D02*
X164054000Y-100963000D01*
X155554000Y-106043000D02*
X164054000Y-106043000D01*
X155554000Y-103503000D02*
X164054000Y-103503000D01*
X155554000Y-108583000D02*
X164054000Y-108583000D01*
G36*
X163999800Y-111072200D02*
G01*
X163999800Y-108633800D01*
X155617800Y-108633800D01*
X155617800Y-111072200D01*
X163999800Y-111072200D01*
G37*
X163999800Y-111072200D02*
X163999800Y-108633800D01*
X155617800Y-108633800D01*
X155617800Y-111072200D01*
X163999800Y-111072200D01*
D11*
X105952600Y-108778800D02*
G75*
G03X105952600Y-108778800I-50000J0D01*
G01*
D12*
X102802600Y-106828800D02*
X103552600Y-106828800D01*
X102802600Y-108228800D02*
X102802600Y-106828800D01*
X105802600Y-106828800D02*
X105052600Y-106828800D01*
X105802600Y-108228800D02*
X105802600Y-106828800D01*
D11*
X108604400Y-109906000D02*
G75*
G03X108604400Y-109906000I-50000J0D01*
G01*
D12*
X106604400Y-113006000D02*
X106604400Y-112256000D01*
X108004400Y-113006000D02*
X106604400Y-113006000D01*
X106604400Y-110006000D02*
X106604400Y-110756000D01*
X108004400Y-110006000D02*
X106604400Y-110006000D01*
D15*
X102077780Y-116305104D02*
X101077780Y-116305104D01*
X101077780Y-116543200D01*
X101125400Y-116686057D01*
X101220638Y-116781295D01*
X101315876Y-116828914D01*
X101506352Y-116876533D01*
X101649209Y-116876533D01*
X101839685Y-116828914D01*
X101934923Y-116781295D01*
X102030161Y-116686057D01*
X102077780Y-116543200D01*
X102077780Y-116305104D01*
X101411114Y-117733676D02*
X102077780Y-117733676D01*
X101030161Y-117495580D02*
X101744447Y-117257485D01*
X101744447Y-117876533D01*
D10*
X138169542Y-110839933D02*
X138217161Y-110792314D01*
X138264780Y-110649457D01*
X138264780Y-110554219D01*
X138217161Y-110411361D01*
X138121923Y-110316123D01*
X138026685Y-110268504D01*
X137836209Y-110220885D01*
X137693352Y-110220885D01*
X137502876Y-110268504D01*
X137407638Y-110316123D01*
X137312400Y-110411361D01*
X137264780Y-110554219D01*
X137264780Y-110649457D01*
X137312400Y-110792314D01*
X137360019Y-110839933D01*
X138264780Y-111792314D02*
X138264780Y-111220885D01*
X138264780Y-111506600D02*
X137264780Y-111506600D01*
X137407638Y-111411361D01*
X137502876Y-111316123D01*
X137550495Y-111220885D01*
X117374942Y-124826733D02*
X117422561Y-124779114D01*
X117470180Y-124636257D01*
X117470180Y-124541019D01*
X117422561Y-124398161D01*
X117327323Y-124302923D01*
X117232085Y-124255304D01*
X117041609Y-124207685D01*
X116898752Y-124207685D01*
X116708276Y-124255304D01*
X116613038Y-124302923D01*
X116517800Y-124398161D01*
X116470180Y-124541019D01*
X116470180Y-124636257D01*
X116517800Y-124779114D01*
X116565419Y-124826733D01*
X116470180Y-125683876D02*
X116470180Y-125493400D01*
X116517800Y-125398161D01*
X116565419Y-125350542D01*
X116708276Y-125255304D01*
X116898752Y-125207685D01*
X117279704Y-125207685D01*
X117374942Y-125255304D01*
X117422561Y-125302923D01*
X117470180Y-125398161D01*
X117470180Y-125588638D01*
X117422561Y-125683876D01*
X117374942Y-125731495D01*
X117279704Y-125779114D01*
X117041609Y-125779114D01*
X116946371Y-125731495D01*
X116898752Y-125683876D01*
X116851133Y-125588638D01*
X116851133Y-125398161D01*
X116898752Y-125302923D01*
X116946371Y-125255304D01*
X117041609Y-125207685D01*
X115011142Y-104688333D02*
X115058761Y-104640714D01*
X115106380Y-104497857D01*
X115106380Y-104402619D01*
X115058761Y-104259761D01*
X114963523Y-104164523D01*
X114868285Y-104116904D01*
X114677809Y-104069285D01*
X114534952Y-104069285D01*
X114344476Y-104116904D01*
X114249238Y-104164523D01*
X114154000Y-104259761D01*
X114106380Y-104402619D01*
X114106380Y-104497857D01*
X114154000Y-104640714D01*
X114201619Y-104688333D01*
X114439714Y-105545476D02*
X115106380Y-105545476D01*
X114058761Y-105307380D02*
X114773047Y-105069285D01*
X114773047Y-105688333D01*
X130752466Y-121673542D02*
X130800085Y-121721161D01*
X130942942Y-121768780D01*
X131038180Y-121768780D01*
X131181038Y-121721161D01*
X131276276Y-121625923D01*
X131323895Y-121530685D01*
X131371514Y-121340209D01*
X131371514Y-121197352D01*
X131323895Y-121006876D01*
X131276276Y-120911638D01*
X131181038Y-120816400D01*
X131038180Y-120768780D01*
X130942942Y-120768780D01*
X130800085Y-120816400D01*
X130752466Y-120864019D01*
X130419133Y-120768780D02*
X129800085Y-120768780D01*
X130133419Y-121149733D01*
X129990561Y-121149733D01*
X129895323Y-121197352D01*
X129847704Y-121244971D01*
X129800085Y-121340209D01*
X129800085Y-121578304D01*
X129847704Y-121673542D01*
X129895323Y-121721161D01*
X129990561Y-121768780D01*
X130276276Y-121768780D01*
X130371514Y-121721161D01*
X130419133Y-121673542D01*
X97206380Y-122910142D02*
X96730190Y-122576809D01*
X97206380Y-122338714D02*
X96206380Y-122338714D01*
X96206380Y-122719666D01*
X96254000Y-122814904D01*
X96301619Y-122862523D01*
X96396857Y-122910142D01*
X96539714Y-122910142D01*
X96634952Y-122862523D01*
X96682571Y-122814904D01*
X96730190Y-122719666D01*
X96730190Y-122338714D01*
X97206380Y-123862523D02*
X97206380Y-123291095D01*
X97206380Y-123576809D02*
X96206380Y-123576809D01*
X96349238Y-123481571D01*
X96444476Y-123386333D01*
X96492095Y-123291095D01*
X96206380Y-124195857D02*
X96206380Y-124814904D01*
X96587333Y-124481571D01*
X96587333Y-124624428D01*
X96634952Y-124719666D01*
X96682571Y-124767285D01*
X96777809Y-124814904D01*
X97015904Y-124814904D01*
X97111142Y-124767285D01*
X97158761Y-124719666D01*
X97206380Y-124624428D01*
X97206380Y-124338714D01*
X97158761Y-124243476D01*
X97111142Y-124195857D01*
X113146857Y-119305380D02*
X113480190Y-118829190D01*
X113718285Y-119305380D02*
X113718285Y-118305380D01*
X113337333Y-118305380D01*
X113242095Y-118353000D01*
X113194476Y-118400619D01*
X113146857Y-118495857D01*
X113146857Y-118638714D01*
X113194476Y-118733952D01*
X113242095Y-118781571D01*
X113337333Y-118829190D01*
X113718285Y-118829190D01*
X112194476Y-119305380D02*
X112765904Y-119305380D01*
X112480190Y-119305380D02*
X112480190Y-118305380D01*
X112575428Y-118448238D01*
X112670666Y-118543476D01*
X112765904Y-118591095D01*
X111337333Y-118638714D02*
X111337333Y-119305380D01*
X111575428Y-118257761D02*
X111813523Y-118972047D01*
X111194476Y-118972047D01*
X97206380Y-101436333D02*
X96730190Y-101103000D01*
X97206380Y-100864904D02*
X96206380Y-100864904D01*
X96206380Y-101245857D01*
X96254000Y-101341095D01*
X96301619Y-101388714D01*
X96396857Y-101436333D01*
X96539714Y-101436333D01*
X96634952Y-101388714D01*
X96682571Y-101341095D01*
X96730190Y-101245857D01*
X96730190Y-100864904D01*
X97206380Y-101912523D02*
X97206380Y-102103000D01*
X97158761Y-102198238D01*
X97111142Y-102245857D01*
X96968285Y-102341095D01*
X96777809Y-102388714D01*
X96396857Y-102388714D01*
X96301619Y-102341095D01*
X96254000Y-102293476D01*
X96206380Y-102198238D01*
X96206380Y-102007761D01*
X96254000Y-101912523D01*
X96301619Y-101864904D01*
X96396857Y-101817285D01*
X96634952Y-101817285D01*
X96730190Y-101864904D01*
X96777809Y-101912523D01*
X96825428Y-102007761D01*
X96825428Y-102198238D01*
X96777809Y-102293476D01*
X96730190Y-102341095D01*
X96634952Y-102388714D01*
X112946857Y-109605380D02*
X113280190Y-109129190D01*
X113518285Y-109605380D02*
X113518285Y-108605380D01*
X113137333Y-108605380D01*
X113042095Y-108653000D01*
X112994476Y-108700619D01*
X112946857Y-108795857D01*
X112946857Y-108938714D01*
X112994476Y-109033952D01*
X113042095Y-109081571D01*
X113137333Y-109129190D01*
X113518285Y-109129190D01*
X111994476Y-109605380D02*
X112565904Y-109605380D01*
X112280190Y-109605380D02*
X112280190Y-108605380D01*
X112375428Y-108748238D01*
X112470666Y-108843476D01*
X112565904Y-108891095D01*
X111375428Y-108605380D02*
X111280190Y-108605380D01*
X111184952Y-108653000D01*
X111137333Y-108700619D01*
X111089714Y-108795857D01*
X111042095Y-108986333D01*
X111042095Y-109224428D01*
X111089714Y-109414904D01*
X111137333Y-109510142D01*
X111184952Y-109557761D01*
X111280190Y-109605380D01*
X111375428Y-109605380D01*
X111470666Y-109557761D01*
X111518285Y-109510142D01*
X111565904Y-109414904D01*
X111613523Y-109224428D01*
X111613523Y-108986333D01*
X111565904Y-108795857D01*
X111518285Y-108700619D01*
X111470666Y-108653000D01*
X111375428Y-108605380D01*
X153803266Y-130817380D02*
X154136600Y-130341190D01*
X154374695Y-130817380D02*
X154374695Y-129817380D01*
X153993742Y-129817380D01*
X153898504Y-129865000D01*
X153850885Y-129912619D01*
X153803266Y-130007857D01*
X153803266Y-130150714D01*
X153850885Y-130245952D01*
X153898504Y-130293571D01*
X153993742Y-130341190D01*
X154374695Y-130341190D01*
X152898504Y-129817380D02*
X153374695Y-129817380D01*
X153422314Y-130293571D01*
X153374695Y-130245952D01*
X153279457Y-130198333D01*
X153041361Y-130198333D01*
X152946123Y-130245952D01*
X152898504Y-130293571D01*
X152850885Y-130388809D01*
X152850885Y-130626904D01*
X152898504Y-130722142D01*
X152946123Y-130769761D01*
X153041361Y-130817380D01*
X153279457Y-130817380D01*
X153374695Y-130769761D01*
X153422314Y-130722142D01*
X151270666Y-122305380D02*
X151604000Y-121829190D01*
X151842095Y-122305380D02*
X151842095Y-121305380D01*
X151461142Y-121305380D01*
X151365904Y-121353000D01*
X151318285Y-121400619D01*
X151270666Y-121495857D01*
X151270666Y-121638714D01*
X151318285Y-121733952D01*
X151365904Y-121781571D01*
X151461142Y-121829190D01*
X151842095Y-121829190D01*
X150413523Y-121305380D02*
X150604000Y-121305380D01*
X150699238Y-121353000D01*
X150746857Y-121400619D01*
X150842095Y-121543476D01*
X150889714Y-121733952D01*
X150889714Y-122114904D01*
X150842095Y-122210142D01*
X150794476Y-122257761D01*
X150699238Y-122305380D01*
X150508761Y-122305380D01*
X150413523Y-122257761D01*
X150365904Y-122210142D01*
X150318285Y-122114904D01*
X150318285Y-121876809D01*
X150365904Y-121781571D01*
X150413523Y-121733952D01*
X150508761Y-121686333D01*
X150699238Y-121686333D01*
X150794476Y-121733952D01*
X150842095Y-121781571D01*
X150889714Y-121876809D01*
X151320666Y-118405380D02*
X151654000Y-117929190D01*
X151892095Y-118405380D02*
X151892095Y-117405380D01*
X151511142Y-117405380D01*
X151415904Y-117453000D01*
X151368285Y-117500619D01*
X151320666Y-117595857D01*
X151320666Y-117738714D01*
X151368285Y-117833952D01*
X151415904Y-117881571D01*
X151511142Y-117929190D01*
X151892095Y-117929190D01*
X150987333Y-117405380D02*
X150320666Y-117405380D01*
X150749238Y-118405380D01*
X153164466Y-116669580D02*
X153497800Y-116193390D01*
X153735895Y-116669580D02*
X153735895Y-115669580D01*
X153354942Y-115669580D01*
X153259704Y-115717200D01*
X153212085Y-115764819D01*
X153164466Y-115860057D01*
X153164466Y-116002914D01*
X153212085Y-116098152D01*
X153259704Y-116145771D01*
X153354942Y-116193390D01*
X153735895Y-116193390D01*
X152593038Y-116098152D02*
X152688276Y-116050533D01*
X152735895Y-116002914D01*
X152783514Y-115907676D01*
X152783514Y-115860057D01*
X152735895Y-115764819D01*
X152688276Y-115717200D01*
X152593038Y-115669580D01*
X152402561Y-115669580D01*
X152307323Y-115717200D01*
X152259704Y-115764819D01*
X152212085Y-115860057D01*
X152212085Y-115907676D01*
X152259704Y-116002914D01*
X152307323Y-116050533D01*
X152402561Y-116098152D01*
X152593038Y-116098152D01*
X152688276Y-116145771D01*
X152735895Y-116193390D01*
X152783514Y-116288628D01*
X152783514Y-116479104D01*
X152735895Y-116574342D01*
X152688276Y-116621961D01*
X152593038Y-116669580D01*
X152402561Y-116669580D01*
X152307323Y-116621961D01*
X152259704Y-116574342D01*
X152212085Y-116479104D01*
X152212085Y-116288628D01*
X152259704Y-116193390D01*
X152307323Y-116145771D01*
X152402561Y-116098152D01*
X104190704Y-97267780D02*
X104190704Y-98077304D01*
X104143085Y-98172542D01*
X104095466Y-98220161D01*
X104000228Y-98267780D01*
X103809752Y-98267780D01*
X103714514Y-98220161D01*
X103666895Y-98172542D01*
X103619276Y-98077304D01*
X103619276Y-97267780D01*
X103238323Y-97267780D02*
X102619276Y-97267780D01*
X102952609Y-97648733D01*
X102809752Y-97648733D01*
X102714514Y-97696352D01*
X102666895Y-97743971D01*
X102619276Y-97839209D01*
X102619276Y-98077304D01*
X102666895Y-98172542D01*
X102714514Y-98220161D01*
X102809752Y-98267780D01*
X103095466Y-98267780D01*
X103190704Y-98220161D01*
X103238323Y-98172542D01*
X133437980Y-112815495D02*
X134247504Y-112815495D01*
X134342742Y-112863114D01*
X134390361Y-112910733D01*
X134437980Y-113005971D01*
X134437980Y-113196447D01*
X134390361Y-113291685D01*
X134342742Y-113339304D01*
X134247504Y-113386923D01*
X133437980Y-113386923D01*
X133533219Y-113815495D02*
X133485600Y-113863114D01*
X133437980Y-113958352D01*
X133437980Y-114196447D01*
X133485600Y-114291685D01*
X133533219Y-114339304D01*
X133628457Y-114386923D01*
X133723695Y-114386923D01*
X133866552Y-114339304D01*
X134437980Y-113767876D01*
X134437980Y-114386923D01*
X149447142Y-110977733D02*
X149494761Y-110930114D01*
X149542380Y-110787257D01*
X149542380Y-110692019D01*
X149494761Y-110549161D01*
X149399523Y-110453923D01*
X149304285Y-110406304D01*
X149113809Y-110358685D01*
X148970952Y-110358685D01*
X148780476Y-110406304D01*
X148685238Y-110453923D01*
X148590000Y-110549161D01*
X148542380Y-110692019D01*
X148542380Y-110787257D01*
X148590000Y-110930114D01*
X148637619Y-110977733D01*
X148637619Y-111358685D02*
X148590000Y-111406304D01*
X148542380Y-111501542D01*
X148542380Y-111739638D01*
X148590000Y-111834876D01*
X148637619Y-111882495D01*
X148732857Y-111930114D01*
X148828095Y-111930114D01*
X148970952Y-111882495D01*
X149542380Y-111311066D01*
X149542380Y-111930114D01*
X143636904Y-118085380D02*
X143636904Y-118894904D01*
X143589285Y-118990142D01*
X143541666Y-119037761D01*
X143446428Y-119085380D01*
X143255952Y-119085380D01*
X143160714Y-119037761D01*
X143113095Y-118990142D01*
X143065476Y-118894904D01*
X143065476Y-118085380D01*
X142065476Y-119085380D02*
X142636904Y-119085380D01*
X142351190Y-119085380D02*
X142351190Y-118085380D01*
X142446428Y-118228238D01*
X142541666Y-118323476D01*
X142636904Y-118371095D01*
X109169104Y-126833380D02*
X109169104Y-127642904D01*
X109121485Y-127738142D01*
X109073866Y-127785761D01*
X108978628Y-127833380D01*
X108788152Y-127833380D01*
X108692914Y-127785761D01*
X108645295Y-127738142D01*
X108597676Y-127642904D01*
X108597676Y-126833380D01*
X107645295Y-126833380D02*
X108121485Y-126833380D01*
X108169104Y-127309571D01*
X108121485Y-127261952D01*
X108026247Y-127214333D01*
X107788152Y-127214333D01*
X107692914Y-127261952D01*
X107645295Y-127309571D01*
X107597676Y-127404809D01*
X107597676Y-127642904D01*
X107645295Y-127738142D01*
X107692914Y-127785761D01*
X107788152Y-127833380D01*
X108026247Y-127833380D01*
X108121485Y-127785761D01*
X108169104Y-127738142D01*
X150048980Y-101393666D02*
X150763266Y-101393666D01*
X150906123Y-101346047D01*
X151001361Y-101250809D01*
X151048980Y-101107952D01*
X151048980Y-101012714D01*
X150048980Y-102346047D02*
X150048980Y-101869857D01*
X150525171Y-101822238D01*
X150477552Y-101869857D01*
X150429933Y-101965095D01*
X150429933Y-102203190D01*
X150477552Y-102298428D01*
X150525171Y-102346047D01*
X150620409Y-102393666D01*
X150858504Y-102393666D01*
X150953742Y-102346047D01*
X151001361Y-102298428D01*
X151048980Y-102203190D01*
X151048980Y-101965095D01*
X151001361Y-101869857D01*
X150953742Y-101822238D01*
X102128580Y-106729304D02*
X101128580Y-106729304D01*
X101128580Y-106967400D01*
X101176200Y-107110257D01*
X101271438Y-107205495D01*
X101366676Y-107253114D01*
X101557152Y-107300733D01*
X101700009Y-107300733D01*
X101890485Y-107253114D01*
X101985723Y-107205495D01*
X102080961Y-107110257D01*
X102128580Y-106967400D01*
X102128580Y-106729304D01*
X101223819Y-107681685D02*
X101176200Y-107729304D01*
X101128580Y-107824542D01*
X101128580Y-108062638D01*
X101176200Y-108157876D01*
X101223819Y-108205495D01*
X101319057Y-108253114D01*
X101414295Y-108253114D01*
X101557152Y-108205495D01*
X102128580Y-107634066D01*
X102128580Y-108253114D01*
X110993180Y-111682304D02*
X109993180Y-111682304D01*
X109993180Y-111920400D01*
X110040800Y-112063257D01*
X110136038Y-112158495D01*
X110231276Y-112206114D01*
X110421752Y-112253733D01*
X110564609Y-112253733D01*
X110755085Y-112206114D01*
X110850323Y-112158495D01*
X110945561Y-112063257D01*
X110993180Y-111920400D01*
X110993180Y-111682304D01*
X109993180Y-112587066D02*
X109993180Y-113206114D01*
X110374133Y-112872780D01*
X110374133Y-113015638D01*
X110421752Y-113110876D01*
X110469371Y-113158495D01*
X110564609Y-113206114D01*
X110802704Y-113206114D01*
X110897942Y-113158495D01*
X110945561Y-113110876D01*
X110993180Y-113015638D01*
X110993180Y-112729923D01*
X110945561Y-112634685D01*
X110897942Y-112587066D01*
M02*
