G04 #@! TF.GenerationSoftware,KiCad,Pcbnew,(5.1.4)-1*
G04 #@! TF.CreationDate,2020-10-03T17:35:05-04:00*
G04 #@! TF.ProjectId,i2c_pancake,6932635f-7061-46e6-9361-6b652e6b6963,rev?*
G04 #@! TF.SameCoordinates,Original*
G04 #@! TF.FileFunction,Copper,L2,Inr*
G04 #@! TF.FilePolarity,Positive*
%FSLAX46Y46*%
G04 Gerber Fmt 4.6, Leading zero omitted, Abs format (unit mm)*
G04 Created by KiCad (PCBNEW (5.1.4)-1) date 2020-10-03 17:35:05*
%MOMM*%
%LPD*%
G04 APERTURE LIST*
%ADD10C,0.150000*%
%ADD11R,1.600000X1.600000*%
%ADD12C,1.600000*%
%ADD13C,2.600000*%
%ADD14R,2.600000X2.600000*%
%ADD15O,1.700000X1.950000*%
%ADD16C,0.100000*%
%ADD17C,1.700000*%
%ADD18C,1.524000*%
%ADD19C,6.400000*%
%ADD20C,0.762000*%
%ADD21C,0.203200*%
%ADD22C,0.254000*%
G04 APERTURE END LIST*
D10*
X89662000Y-134239000D02*
X164554000Y-134239000D01*
X89662000Y-89253000D02*
X164554000Y-89253000D01*
X164554000Y-89253000D02*
X164554000Y-134239000D01*
X89662000Y-89253000D02*
X89662000Y-134239000D01*
D11*
X162954000Y-125353000D03*
D12*
X162954000Y-122813000D03*
X162954000Y-120273000D03*
X162954000Y-117733000D03*
X155334000Y-117733000D03*
X155334000Y-120273000D03*
X155334000Y-122813000D03*
X155334000Y-125353000D03*
D13*
X115754000Y-129053000D03*
X110754000Y-129053000D03*
X105754000Y-129053000D03*
D14*
X100754000Y-129053000D03*
D15*
X138554000Y-97553000D03*
X141054000Y-97553000D03*
X143554000Y-97553000D03*
X146054000Y-97553000D03*
D16*
G36*
X149178504Y-96579204D02*
G01*
X149202773Y-96582804D01*
X149226571Y-96588765D01*
X149249671Y-96597030D01*
X149271849Y-96607520D01*
X149292893Y-96620133D01*
X149312598Y-96634747D01*
X149330777Y-96651223D01*
X149347253Y-96669402D01*
X149361867Y-96689107D01*
X149374480Y-96710151D01*
X149384970Y-96732329D01*
X149393235Y-96755429D01*
X149399196Y-96779227D01*
X149402796Y-96803496D01*
X149404000Y-96828000D01*
X149404000Y-98278000D01*
X149402796Y-98302504D01*
X149399196Y-98326773D01*
X149393235Y-98350571D01*
X149384970Y-98373671D01*
X149374480Y-98395849D01*
X149361867Y-98416893D01*
X149347253Y-98436598D01*
X149330777Y-98454777D01*
X149312598Y-98471253D01*
X149292893Y-98485867D01*
X149271849Y-98498480D01*
X149249671Y-98508970D01*
X149226571Y-98517235D01*
X149202773Y-98523196D01*
X149178504Y-98526796D01*
X149154000Y-98528000D01*
X147954000Y-98528000D01*
X147929496Y-98526796D01*
X147905227Y-98523196D01*
X147881429Y-98517235D01*
X147858329Y-98508970D01*
X147836151Y-98498480D01*
X147815107Y-98485867D01*
X147795402Y-98471253D01*
X147777223Y-98454777D01*
X147760747Y-98436598D01*
X147746133Y-98416893D01*
X147733520Y-98395849D01*
X147723030Y-98373671D01*
X147714765Y-98350571D01*
X147708804Y-98326773D01*
X147705204Y-98302504D01*
X147704000Y-98278000D01*
X147704000Y-96828000D01*
X147705204Y-96803496D01*
X147708804Y-96779227D01*
X147714765Y-96755429D01*
X147723030Y-96732329D01*
X147733520Y-96710151D01*
X147746133Y-96689107D01*
X147760747Y-96669402D01*
X147777223Y-96651223D01*
X147795402Y-96634747D01*
X147815107Y-96620133D01*
X147836151Y-96607520D01*
X147858329Y-96597030D01*
X147881429Y-96588765D01*
X147905227Y-96582804D01*
X147929496Y-96579204D01*
X147954000Y-96578000D01*
X149154000Y-96578000D01*
X149178504Y-96579204D01*
X149178504Y-96579204D01*
G37*
D17*
X148554000Y-97553000D03*
D13*
X94854000Y-119753000D03*
X94854000Y-114753000D03*
X94854000Y-109753000D03*
D14*
X94854000Y-104753000D03*
D13*
X101154000Y-94653000D03*
X106154000Y-94653000D03*
X111154000Y-94653000D03*
D14*
X116154000Y-94653000D03*
D15*
X148554000Y-125953000D03*
X146054000Y-125953000D03*
X143554000Y-125953000D03*
X141054000Y-125953000D03*
D16*
G36*
X139178504Y-124979204D02*
G01*
X139202773Y-124982804D01*
X139226571Y-124988765D01*
X139249671Y-124997030D01*
X139271849Y-125007520D01*
X139292893Y-125020133D01*
X139312598Y-125034747D01*
X139330777Y-125051223D01*
X139347253Y-125069402D01*
X139361867Y-125089107D01*
X139374480Y-125110151D01*
X139384970Y-125132329D01*
X139393235Y-125155429D01*
X139399196Y-125179227D01*
X139402796Y-125203496D01*
X139404000Y-125228000D01*
X139404000Y-126678000D01*
X139402796Y-126702504D01*
X139399196Y-126726773D01*
X139393235Y-126750571D01*
X139384970Y-126773671D01*
X139374480Y-126795849D01*
X139361867Y-126816893D01*
X139347253Y-126836598D01*
X139330777Y-126854777D01*
X139312598Y-126871253D01*
X139292893Y-126885867D01*
X139271849Y-126898480D01*
X139249671Y-126908970D01*
X139226571Y-126917235D01*
X139202773Y-126923196D01*
X139178504Y-126926796D01*
X139154000Y-126928000D01*
X137954000Y-126928000D01*
X137929496Y-126926796D01*
X137905227Y-126923196D01*
X137881429Y-126917235D01*
X137858329Y-126908970D01*
X137836151Y-126898480D01*
X137815107Y-126885867D01*
X137795402Y-126871253D01*
X137777223Y-126854777D01*
X137760747Y-126836598D01*
X137746133Y-126816893D01*
X137733520Y-126795849D01*
X137723030Y-126773671D01*
X137714765Y-126750571D01*
X137708804Y-126726773D01*
X137705204Y-126702504D01*
X137704000Y-126678000D01*
X137704000Y-125228000D01*
X137705204Y-125203496D01*
X137708804Y-125179227D01*
X137714765Y-125155429D01*
X137723030Y-125132329D01*
X137733520Y-125110151D01*
X137746133Y-125089107D01*
X137760747Y-125069402D01*
X137777223Y-125051223D01*
X137795402Y-125034747D01*
X137815107Y-125020133D01*
X137836151Y-125007520D01*
X137858329Y-124997030D01*
X137881429Y-124988765D01*
X137905227Y-124982804D01*
X137929496Y-124979204D01*
X137954000Y-124978000D01*
X139154000Y-124978000D01*
X139178504Y-124979204D01*
X139178504Y-124979204D01*
G37*
D17*
X138554000Y-125953000D03*
D13*
X122254000Y-94653000D03*
X127254000Y-94653000D03*
D14*
X132254000Y-94653000D03*
D13*
X132154000Y-128953000D03*
X127154000Y-128953000D03*
D14*
X122154000Y-128953000D03*
D18*
X132816600Y-105892600D03*
X117957600Y-111915200D03*
X118237000Y-120472200D03*
D19*
X160454000Y-130853000D03*
X160454000Y-92753000D03*
X93754000Y-92753000D03*
X93754000Y-130753000D03*
D20*
X119397400Y-102147400D03*
X109415200Y-118098600D03*
X112793400Y-101690200D03*
X117543200Y-114136200D03*
X151333200Y-107061000D03*
X128016000Y-124434600D03*
X113309400Y-120218200D03*
X111379000Y-105537000D03*
X115773200Y-106172000D03*
X103454200Y-116001800D03*
X99390200Y-112217200D03*
X148844000Y-114528600D03*
X136321800Y-113411000D03*
X141909800Y-105943400D03*
X113233200Y-126949200D03*
X113765581Y-104632869D03*
X127304800Y-102057200D03*
X103022400Y-105791000D03*
X146405600Y-106070400D03*
X133723000Y-119698800D03*
X104038400Y-111506000D03*
X129252600Y-115076000D03*
X113157000Y-105791000D03*
X143789400Y-109462599D03*
X129278000Y-118987600D03*
X138607800Y-116281200D03*
X134434200Y-108421200D03*
X138599800Y-112282000D03*
X149750400Y-111850200D03*
X155186000Y-111189800D03*
X156732688Y-103953512D03*
X124172600Y-115253800D03*
X149631400Y-103378000D03*
X119041800Y-109691200D03*
X137499945Y-118360255D03*
X152543456Y-116626344D03*
D21*
X113072800Y-104357200D02*
X113072800Y-104382600D01*
X133926200Y-119902000D02*
X133723000Y-119698800D01*
D22*
G36*
X157475161Y-90308330D02*
G01*
X157055467Y-90936446D01*
X156766377Y-91634372D01*
X156619000Y-92375285D01*
X156619000Y-93130715D01*
X156766377Y-93871628D01*
X157055467Y-94569554D01*
X157475161Y-95197670D01*
X158009330Y-95731839D01*
X158637446Y-96151533D01*
X159335372Y-96440623D01*
X160076285Y-96588000D01*
X160831715Y-96588000D01*
X161572628Y-96440623D01*
X162270554Y-96151533D01*
X162898670Y-95731839D01*
X163432839Y-95197670D01*
X163844000Y-94582324D01*
X163844001Y-116663392D01*
X163767097Y-116740296D01*
X163695514Y-116496329D01*
X163440004Y-116375429D01*
X163165816Y-116306700D01*
X162883488Y-116292783D01*
X162603870Y-116334213D01*
X162337708Y-116429397D01*
X162212486Y-116496329D01*
X162140903Y-116740298D01*
X162954000Y-117553395D01*
X162968143Y-117539253D01*
X163147748Y-117718858D01*
X163133605Y-117733000D01*
X163147748Y-117747143D01*
X162968143Y-117926748D01*
X162954000Y-117912605D01*
X162140903Y-118725702D01*
X162212486Y-118969671D01*
X162278636Y-119000971D01*
X162212486Y-119036329D01*
X162140903Y-119280298D01*
X162954000Y-120093395D01*
X162968143Y-120079253D01*
X163147748Y-120258858D01*
X163133605Y-120273000D01*
X163147748Y-120287143D01*
X162968143Y-120466748D01*
X162954000Y-120452605D01*
X162140903Y-121265702D01*
X162212486Y-121509671D01*
X162278636Y-121540971D01*
X162212486Y-121576329D01*
X162140903Y-121820298D01*
X162954000Y-122633395D01*
X162968143Y-122619253D01*
X163147748Y-122798858D01*
X163133605Y-122813000D01*
X163147748Y-122827143D01*
X162968143Y-123006748D01*
X162954000Y-122992605D01*
X162140903Y-123805702D01*
X162172984Y-123915041D01*
X162154000Y-123914928D01*
X162029518Y-123927188D01*
X161909820Y-123963498D01*
X161799506Y-124022463D01*
X161702815Y-124101815D01*
X161623463Y-124198506D01*
X161564498Y-124308820D01*
X161528188Y-124428518D01*
X161515928Y-124553000D01*
X161519000Y-125067250D01*
X161677750Y-125226000D01*
X162827000Y-125226000D01*
X162827000Y-125206000D01*
X163081000Y-125206000D01*
X163081000Y-125226000D01*
X163101000Y-125226000D01*
X163101000Y-125480000D01*
X163081000Y-125480000D01*
X163081000Y-126629250D01*
X163239750Y-126788000D01*
X163754000Y-126791072D01*
X163844001Y-126782208D01*
X163844001Y-129023677D01*
X163432839Y-128408330D01*
X162898670Y-127874161D01*
X162270554Y-127454467D01*
X161572628Y-127165377D01*
X160831715Y-127018000D01*
X160076285Y-127018000D01*
X159335372Y-127165377D01*
X158637446Y-127454467D01*
X158009330Y-127874161D01*
X157475161Y-128408330D01*
X157055467Y-129036446D01*
X156766377Y-129734372D01*
X156619000Y-130475285D01*
X156619000Y-131230715D01*
X156766377Y-131971628D01*
X157055467Y-132669554D01*
X157475161Y-133297670D01*
X157706491Y-133529000D01*
X96401509Y-133529000D01*
X96732839Y-133197670D01*
X97152533Y-132569554D01*
X97441623Y-131871628D01*
X97589000Y-131130715D01*
X97589000Y-130375285D01*
X97441623Y-129634372D01*
X97152533Y-128936446D01*
X96732839Y-128308330D01*
X96198670Y-127774161D01*
X96167001Y-127753000D01*
X98815928Y-127753000D01*
X98815928Y-130353000D01*
X98828188Y-130477482D01*
X98864498Y-130597180D01*
X98923463Y-130707494D01*
X99002815Y-130804185D01*
X99099506Y-130883537D01*
X99209820Y-130942502D01*
X99329518Y-130978812D01*
X99454000Y-130991072D01*
X102054000Y-130991072D01*
X102178482Y-130978812D01*
X102298180Y-130942502D01*
X102408494Y-130883537D01*
X102505185Y-130804185D01*
X102584537Y-130707494D01*
X102643502Y-130597180D01*
X102679812Y-130477482D01*
X102692072Y-130353000D01*
X102692072Y-128862419D01*
X103819000Y-128862419D01*
X103819000Y-129243581D01*
X103893361Y-129617419D01*
X104039225Y-129969566D01*
X104250987Y-130286491D01*
X104520509Y-130556013D01*
X104837434Y-130767775D01*
X105189581Y-130913639D01*
X105563419Y-130988000D01*
X105944581Y-130988000D01*
X106318419Y-130913639D01*
X106670566Y-130767775D01*
X106987491Y-130556013D01*
X107257013Y-130286491D01*
X107468775Y-129969566D01*
X107614639Y-129617419D01*
X107689000Y-129243581D01*
X107689000Y-128862419D01*
X108819000Y-128862419D01*
X108819000Y-129243581D01*
X108893361Y-129617419D01*
X109039225Y-129969566D01*
X109250987Y-130286491D01*
X109520509Y-130556013D01*
X109837434Y-130767775D01*
X110189581Y-130913639D01*
X110563419Y-130988000D01*
X110944581Y-130988000D01*
X111318419Y-130913639D01*
X111670566Y-130767775D01*
X111987491Y-130556013D01*
X112141280Y-130402224D01*
X114584381Y-130402224D01*
X114716317Y-130697312D01*
X115057045Y-130868159D01*
X115424557Y-130969250D01*
X115804729Y-130996701D01*
X116182951Y-130949457D01*
X116544690Y-130829333D01*
X116791683Y-130697312D01*
X116923619Y-130402224D01*
X115754000Y-129232605D01*
X114584381Y-130402224D01*
X112141280Y-130402224D01*
X112257013Y-130286491D01*
X112468775Y-129969566D01*
X112614639Y-129617419D01*
X112689000Y-129243581D01*
X112689000Y-129103729D01*
X113810299Y-129103729D01*
X113857543Y-129481951D01*
X113977667Y-129843690D01*
X114109688Y-130090683D01*
X114404776Y-130222619D01*
X115574395Y-129053000D01*
X115933605Y-129053000D01*
X117103224Y-130222619D01*
X117398312Y-130090683D01*
X117569159Y-129749955D01*
X117670250Y-129382443D01*
X117697701Y-129002271D01*
X117650457Y-128624049D01*
X117530333Y-128262310D01*
X117398312Y-128015317D01*
X117103224Y-127883381D01*
X115933605Y-129053000D01*
X115574395Y-129053000D01*
X114404776Y-127883381D01*
X114109688Y-128015317D01*
X113938841Y-128356045D01*
X113837750Y-128723557D01*
X113810299Y-129103729D01*
X112689000Y-129103729D01*
X112689000Y-128862419D01*
X112614639Y-128488581D01*
X112468775Y-128136434D01*
X112257013Y-127819509D01*
X111987491Y-127549987D01*
X111670566Y-127338225D01*
X111318419Y-127192361D01*
X110944581Y-127118000D01*
X110563419Y-127118000D01*
X110189581Y-127192361D01*
X109837434Y-127338225D01*
X109520509Y-127549987D01*
X109250987Y-127819509D01*
X109039225Y-128136434D01*
X108893361Y-128488581D01*
X108819000Y-128862419D01*
X107689000Y-128862419D01*
X107614639Y-128488581D01*
X107468775Y-128136434D01*
X107257013Y-127819509D01*
X106987491Y-127549987D01*
X106670566Y-127338225D01*
X106318419Y-127192361D01*
X105944581Y-127118000D01*
X105563419Y-127118000D01*
X105189581Y-127192361D01*
X104837434Y-127338225D01*
X104520509Y-127549987D01*
X104250987Y-127819509D01*
X104039225Y-128136434D01*
X103893361Y-128488581D01*
X103819000Y-128862419D01*
X102692072Y-128862419D01*
X102692072Y-127753000D01*
X102679812Y-127628518D01*
X102643502Y-127508820D01*
X102584537Y-127398506D01*
X102505185Y-127301815D01*
X102408494Y-127222463D01*
X102298180Y-127163498D01*
X102178482Y-127127188D01*
X102054000Y-127114928D01*
X99454000Y-127114928D01*
X99329518Y-127127188D01*
X99209820Y-127163498D01*
X99099506Y-127222463D01*
X99002815Y-127301815D01*
X98923463Y-127398506D01*
X98864498Y-127508820D01*
X98828188Y-127628518D01*
X98815928Y-127753000D01*
X96167001Y-127753000D01*
X95570554Y-127354467D01*
X94872628Y-127065377D01*
X94131715Y-126918000D01*
X93376285Y-126918000D01*
X92635372Y-127065377D01*
X91937446Y-127354467D01*
X91309330Y-127774161D01*
X90775161Y-128308330D01*
X90372000Y-128911703D01*
X90372000Y-126849133D01*
X112217200Y-126849133D01*
X112217200Y-127049267D01*
X112256244Y-127245556D01*
X112332832Y-127430456D01*
X112444021Y-127596862D01*
X112585538Y-127738379D01*
X112751944Y-127849568D01*
X112936844Y-127926156D01*
X113133133Y-127965200D01*
X113333267Y-127965200D01*
X113529556Y-127926156D01*
X113714456Y-127849568D01*
X113880862Y-127738379D01*
X113915465Y-127703776D01*
X114584381Y-127703776D01*
X115754000Y-128873395D01*
X116923619Y-127703776D01*
X116900917Y-127653000D01*
X120215928Y-127653000D01*
X120215928Y-130253000D01*
X120228188Y-130377482D01*
X120264498Y-130497180D01*
X120323463Y-130607494D01*
X120402815Y-130704185D01*
X120499506Y-130783537D01*
X120609820Y-130842502D01*
X120729518Y-130878812D01*
X120854000Y-130891072D01*
X123454000Y-130891072D01*
X123578482Y-130878812D01*
X123698180Y-130842502D01*
X123808494Y-130783537D01*
X123905185Y-130704185D01*
X123984537Y-130607494D01*
X124043502Y-130497180D01*
X124079812Y-130377482D01*
X124087224Y-130302224D01*
X125984381Y-130302224D01*
X126116317Y-130597312D01*
X126457045Y-130768159D01*
X126824557Y-130869250D01*
X127204729Y-130896701D01*
X127582951Y-130849457D01*
X127944690Y-130729333D01*
X128191683Y-130597312D01*
X128323619Y-130302224D01*
X127154000Y-129132605D01*
X125984381Y-130302224D01*
X124087224Y-130302224D01*
X124092072Y-130253000D01*
X124092072Y-129003729D01*
X125210299Y-129003729D01*
X125257543Y-129381951D01*
X125377667Y-129743690D01*
X125509688Y-129990683D01*
X125804776Y-130122619D01*
X126974395Y-128953000D01*
X127333605Y-128953000D01*
X128503224Y-130122619D01*
X128798312Y-129990683D01*
X128969159Y-129649955D01*
X129070250Y-129282443D01*
X129097701Y-128902271D01*
X129080232Y-128762419D01*
X130219000Y-128762419D01*
X130219000Y-129143581D01*
X130293361Y-129517419D01*
X130439225Y-129869566D01*
X130650987Y-130186491D01*
X130920509Y-130456013D01*
X131237434Y-130667775D01*
X131589581Y-130813639D01*
X131963419Y-130888000D01*
X132344581Y-130888000D01*
X132718419Y-130813639D01*
X133070566Y-130667775D01*
X133387491Y-130456013D01*
X133657013Y-130186491D01*
X133868775Y-129869566D01*
X134014639Y-129517419D01*
X134089000Y-129143581D01*
X134089000Y-128762419D01*
X134014639Y-128388581D01*
X133868775Y-128036434D01*
X133657013Y-127719509D01*
X133387491Y-127449987D01*
X133070566Y-127238225D01*
X132718419Y-127092361D01*
X132344581Y-127018000D01*
X131963419Y-127018000D01*
X131589581Y-127092361D01*
X131237434Y-127238225D01*
X130920509Y-127449987D01*
X130650987Y-127719509D01*
X130439225Y-128036434D01*
X130293361Y-128388581D01*
X130219000Y-128762419D01*
X129080232Y-128762419D01*
X129050457Y-128524049D01*
X128930333Y-128162310D01*
X128798312Y-127915317D01*
X128503224Y-127783381D01*
X127333605Y-128953000D01*
X126974395Y-128953000D01*
X125804776Y-127783381D01*
X125509688Y-127915317D01*
X125338841Y-128256045D01*
X125237750Y-128623557D01*
X125210299Y-129003729D01*
X124092072Y-129003729D01*
X124092072Y-127653000D01*
X124087225Y-127603776D01*
X125984381Y-127603776D01*
X127154000Y-128773395D01*
X128323619Y-127603776D01*
X128191683Y-127308688D01*
X127850955Y-127137841D01*
X127483443Y-127036750D01*
X127103271Y-127009299D01*
X126725049Y-127056543D01*
X126363310Y-127176667D01*
X126116317Y-127308688D01*
X125984381Y-127603776D01*
X124087225Y-127603776D01*
X124079812Y-127528518D01*
X124043502Y-127408820D01*
X123984537Y-127298506D01*
X123905185Y-127201815D01*
X123808494Y-127122463D01*
X123698180Y-127063498D01*
X123578482Y-127027188D01*
X123454000Y-127014928D01*
X120854000Y-127014928D01*
X120729518Y-127027188D01*
X120609820Y-127063498D01*
X120499506Y-127122463D01*
X120402815Y-127201815D01*
X120323463Y-127298506D01*
X120264498Y-127408820D01*
X120228188Y-127528518D01*
X120215928Y-127653000D01*
X116900917Y-127653000D01*
X116791683Y-127408688D01*
X116450955Y-127237841D01*
X116083443Y-127136750D01*
X115703271Y-127109299D01*
X115325049Y-127156543D01*
X114963310Y-127276667D01*
X114716317Y-127408688D01*
X114584381Y-127703776D01*
X113915465Y-127703776D01*
X114022379Y-127596862D01*
X114133568Y-127430456D01*
X114210156Y-127245556D01*
X114249200Y-127049267D01*
X114249200Y-126849133D01*
X114210156Y-126652844D01*
X114133568Y-126467944D01*
X114022379Y-126301538D01*
X113880862Y-126160021D01*
X113714456Y-126048832D01*
X113529556Y-125972244D01*
X113333267Y-125933200D01*
X113133133Y-125933200D01*
X112936844Y-125972244D01*
X112751944Y-126048832D01*
X112585538Y-126160021D01*
X112444021Y-126301538D01*
X112332832Y-126467944D01*
X112256244Y-126652844D01*
X112217200Y-126849133D01*
X90372000Y-126849133D01*
X90372000Y-125228000D01*
X137065928Y-125228000D01*
X137065928Y-126678000D01*
X137082992Y-126851254D01*
X137133528Y-127017850D01*
X137215595Y-127171386D01*
X137326038Y-127305962D01*
X137460614Y-127416405D01*
X137614150Y-127498472D01*
X137780746Y-127549008D01*
X137954000Y-127566072D01*
X139154000Y-127566072D01*
X139327254Y-127549008D01*
X139493850Y-127498472D01*
X139647386Y-127416405D01*
X139781962Y-127305962D01*
X139892405Y-127171386D01*
X139946777Y-127069663D01*
X139998866Y-127133134D01*
X140224987Y-127318706D01*
X140482967Y-127456599D01*
X140762890Y-127541513D01*
X141054000Y-127570185D01*
X141345111Y-127541513D01*
X141625034Y-127456599D01*
X141883014Y-127318706D01*
X142109134Y-127133134D01*
X142294706Y-126907014D01*
X142308462Y-126881278D01*
X142464951Y-127087429D01*
X142682807Y-127280496D01*
X142934142Y-127427352D01*
X143197110Y-127519476D01*
X143427000Y-127398155D01*
X143427000Y-126080000D01*
X143407000Y-126080000D01*
X143407000Y-125826000D01*
X143427000Y-125826000D01*
X143427000Y-124507845D01*
X143681000Y-124507845D01*
X143681000Y-125826000D01*
X143701000Y-125826000D01*
X143701000Y-126080000D01*
X143681000Y-126080000D01*
X143681000Y-127398155D01*
X143910890Y-127519476D01*
X144173858Y-127427352D01*
X144425193Y-127280496D01*
X144643049Y-127087429D01*
X144799538Y-126881278D01*
X144813294Y-126907014D01*
X144998866Y-127133134D01*
X145224987Y-127318706D01*
X145482967Y-127456599D01*
X145762890Y-127541513D01*
X146054000Y-127570185D01*
X146345111Y-127541513D01*
X146625034Y-127456599D01*
X146883014Y-127318706D01*
X147109134Y-127133134D01*
X147294706Y-126907014D01*
X147304000Y-126889626D01*
X147313294Y-126907014D01*
X147498866Y-127133134D01*
X147724987Y-127318706D01*
X147982967Y-127456599D01*
X148262890Y-127541513D01*
X148554000Y-127570185D01*
X148845111Y-127541513D01*
X149125034Y-127456599D01*
X149383014Y-127318706D01*
X149609134Y-127133134D01*
X149794706Y-126907014D01*
X149932599Y-126649033D01*
X150017513Y-126369110D01*
X150039000Y-126150949D01*
X150039000Y-125755050D01*
X150017513Y-125536889D01*
X149932599Y-125256966D01*
X149794706Y-124998986D01*
X149609134Y-124772866D01*
X149383013Y-124587294D01*
X149125033Y-124449401D01*
X148845110Y-124364487D01*
X148554000Y-124335815D01*
X148262889Y-124364487D01*
X147982966Y-124449401D01*
X147724986Y-124587294D01*
X147498866Y-124772866D01*
X147313294Y-124998987D01*
X147304000Y-125016374D01*
X147294706Y-124998986D01*
X147109134Y-124772866D01*
X146883013Y-124587294D01*
X146625033Y-124449401D01*
X146345110Y-124364487D01*
X146054000Y-124335815D01*
X145762889Y-124364487D01*
X145482966Y-124449401D01*
X145224986Y-124587294D01*
X144998866Y-124772866D01*
X144813294Y-124998987D01*
X144799538Y-125024722D01*
X144643049Y-124818571D01*
X144425193Y-124625504D01*
X144173858Y-124478648D01*
X143910890Y-124386524D01*
X143681000Y-124507845D01*
X143427000Y-124507845D01*
X143197110Y-124386524D01*
X142934142Y-124478648D01*
X142682807Y-124625504D01*
X142464951Y-124818571D01*
X142308462Y-125024722D01*
X142294706Y-124998986D01*
X142109134Y-124772866D01*
X141883013Y-124587294D01*
X141625033Y-124449401D01*
X141345110Y-124364487D01*
X141054000Y-124335815D01*
X140762889Y-124364487D01*
X140482966Y-124449401D01*
X140224986Y-124587294D01*
X139998866Y-124772866D01*
X139946777Y-124836337D01*
X139892405Y-124734614D01*
X139781962Y-124600038D01*
X139647386Y-124489595D01*
X139493850Y-124407528D01*
X139327254Y-124356992D01*
X139154000Y-124339928D01*
X137954000Y-124339928D01*
X137780746Y-124356992D01*
X137614150Y-124407528D01*
X137460614Y-124489595D01*
X137326038Y-124600038D01*
X137215595Y-124734614D01*
X137133528Y-124888150D01*
X137082992Y-125054746D01*
X137065928Y-125228000D01*
X90372000Y-125228000D01*
X90372000Y-121102224D01*
X93684381Y-121102224D01*
X93816317Y-121397312D01*
X94157045Y-121568159D01*
X94524557Y-121669250D01*
X94904729Y-121696701D01*
X95282951Y-121649457D01*
X95644690Y-121529333D01*
X95891683Y-121397312D01*
X96023619Y-121102224D01*
X94854000Y-119932605D01*
X93684381Y-121102224D01*
X90372000Y-121102224D01*
X90372000Y-119803729D01*
X92910299Y-119803729D01*
X92957543Y-120181951D01*
X93077667Y-120543690D01*
X93209688Y-120790683D01*
X93504776Y-120922619D01*
X94674395Y-119753000D01*
X95033605Y-119753000D01*
X96203224Y-120922619D01*
X96498312Y-120790683D01*
X96669159Y-120449955D01*
X96700887Y-120334608D01*
X116840000Y-120334608D01*
X116840000Y-120609792D01*
X116893686Y-120879690D01*
X116998995Y-121133927D01*
X117151880Y-121362735D01*
X117346465Y-121557320D01*
X117575273Y-121710205D01*
X117829510Y-121815514D01*
X118099408Y-121869200D01*
X118374592Y-121869200D01*
X118644490Y-121815514D01*
X118898727Y-121710205D01*
X119127535Y-121557320D01*
X119322120Y-121362735D01*
X119475005Y-121133927D01*
X119580314Y-120879690D01*
X119634000Y-120609792D01*
X119634000Y-120334608D01*
X119580314Y-120064710D01*
X119475005Y-119810473D01*
X119322120Y-119581665D01*
X119127535Y-119387080D01*
X118898727Y-119234195D01*
X118644490Y-119128886D01*
X118374592Y-119075200D01*
X118099408Y-119075200D01*
X117829510Y-119128886D01*
X117575273Y-119234195D01*
X117346465Y-119387080D01*
X117151880Y-119581665D01*
X116998995Y-119810473D01*
X116893686Y-120064710D01*
X116840000Y-120334608D01*
X96700887Y-120334608D01*
X96770250Y-120082443D01*
X96797701Y-119702271D01*
X96750457Y-119324049D01*
X96630333Y-118962310D01*
X96590364Y-118887533D01*
X128262000Y-118887533D01*
X128262000Y-119087667D01*
X128301044Y-119283956D01*
X128377632Y-119468856D01*
X128488821Y-119635262D01*
X128630338Y-119776779D01*
X128796744Y-119887968D01*
X128981644Y-119964556D01*
X129177933Y-120003600D01*
X129378067Y-120003600D01*
X129574356Y-119964556D01*
X129759256Y-119887968D01*
X129925662Y-119776779D01*
X130067179Y-119635262D01*
X130091586Y-119598733D01*
X132707000Y-119598733D01*
X132707000Y-119798867D01*
X132746044Y-119995156D01*
X132822632Y-120180056D01*
X132933821Y-120346462D01*
X133075338Y-120487979D01*
X133241744Y-120599168D01*
X133426644Y-120675756D01*
X133622933Y-120714800D01*
X133823067Y-120714800D01*
X134019356Y-120675756D01*
X134204256Y-120599168D01*
X134283344Y-120546323D01*
X134337412Y-120517423D01*
X134449574Y-120425374D01*
X134541623Y-120313212D01*
X134570523Y-120259144D01*
X134623368Y-120180056D01*
X134699956Y-119995156D01*
X134739000Y-119798867D01*
X134739000Y-119598733D01*
X134699956Y-119402444D01*
X134623368Y-119217544D01*
X134512179Y-119051138D01*
X134370662Y-118909621D01*
X134204256Y-118798432D01*
X134019356Y-118721844D01*
X133823067Y-118682800D01*
X133622933Y-118682800D01*
X133426644Y-118721844D01*
X133241744Y-118798432D01*
X133075338Y-118909621D01*
X132933821Y-119051138D01*
X132822632Y-119217544D01*
X132746044Y-119402444D01*
X132707000Y-119598733D01*
X130091586Y-119598733D01*
X130178368Y-119468856D01*
X130254956Y-119283956D01*
X130294000Y-119087667D01*
X130294000Y-118887533D01*
X130254956Y-118691244D01*
X130178368Y-118506344D01*
X130067179Y-118339938D01*
X129987429Y-118260188D01*
X136483945Y-118260188D01*
X136483945Y-118460322D01*
X136522989Y-118656611D01*
X136599577Y-118841511D01*
X136710766Y-119007917D01*
X136852283Y-119149434D01*
X137018689Y-119260623D01*
X137203589Y-119337211D01*
X137399878Y-119376255D01*
X137600012Y-119376255D01*
X137796301Y-119337211D01*
X137981201Y-119260623D01*
X138147607Y-119149434D01*
X138289124Y-119007917D01*
X138400313Y-118841511D01*
X138476901Y-118656611D01*
X138515945Y-118460322D01*
X138515945Y-118260188D01*
X138476901Y-118063899D01*
X138400313Y-117878999D01*
X138289124Y-117712593D01*
X138147607Y-117571076D01*
X137981201Y-117459887D01*
X137796301Y-117383299D01*
X137600012Y-117344255D01*
X137399878Y-117344255D01*
X137203589Y-117383299D01*
X137018689Y-117459887D01*
X136852283Y-117571076D01*
X136710766Y-117712593D01*
X136599577Y-117878999D01*
X136522989Y-118063899D01*
X136483945Y-118260188D01*
X129987429Y-118260188D01*
X129925662Y-118198421D01*
X129759256Y-118087232D01*
X129574356Y-118010644D01*
X129378067Y-117971600D01*
X129177933Y-117971600D01*
X128981644Y-118010644D01*
X128796744Y-118087232D01*
X128630338Y-118198421D01*
X128488821Y-118339938D01*
X128377632Y-118506344D01*
X128301044Y-118691244D01*
X128262000Y-118887533D01*
X96590364Y-118887533D01*
X96498312Y-118715317D01*
X96203224Y-118583381D01*
X95033605Y-119753000D01*
X94674395Y-119753000D01*
X93504776Y-118583381D01*
X93209688Y-118715317D01*
X93038841Y-119056045D01*
X92937750Y-119423557D01*
X92910299Y-119803729D01*
X90372000Y-119803729D01*
X90372000Y-118403776D01*
X93684381Y-118403776D01*
X94854000Y-119573395D01*
X96023619Y-118403776D01*
X95891683Y-118108688D01*
X95550955Y-117937841D01*
X95183443Y-117836750D01*
X94803271Y-117809299D01*
X94425049Y-117856543D01*
X94063310Y-117976667D01*
X93816317Y-118108688D01*
X93684381Y-118403776D01*
X90372000Y-118403776D01*
X90372000Y-114562419D01*
X92919000Y-114562419D01*
X92919000Y-114943581D01*
X92993361Y-115317419D01*
X93139225Y-115669566D01*
X93350987Y-115986491D01*
X93620509Y-116256013D01*
X93937434Y-116467775D01*
X94289581Y-116613639D01*
X94663419Y-116688000D01*
X95044581Y-116688000D01*
X95418419Y-116613639D01*
X95770566Y-116467775D01*
X96087491Y-116256013D01*
X96357013Y-115986491D01*
X96568775Y-115669566D01*
X96714639Y-115317419D01*
X96747198Y-115153733D01*
X123156600Y-115153733D01*
X123156600Y-115353867D01*
X123195644Y-115550156D01*
X123272232Y-115735056D01*
X123383421Y-115901462D01*
X123524938Y-116042979D01*
X123691344Y-116154168D01*
X123876244Y-116230756D01*
X124072533Y-116269800D01*
X124272667Y-116269800D01*
X124468956Y-116230756D01*
X124588756Y-116181133D01*
X137591800Y-116181133D01*
X137591800Y-116381267D01*
X137630844Y-116577556D01*
X137707432Y-116762456D01*
X137818621Y-116928862D01*
X137960138Y-117070379D01*
X138126544Y-117181568D01*
X138311444Y-117258156D01*
X138507733Y-117297200D01*
X138707867Y-117297200D01*
X138904156Y-117258156D01*
X139089056Y-117181568D01*
X139255462Y-117070379D01*
X139396979Y-116928862D01*
X139508168Y-116762456D01*
X139584756Y-116577556D01*
X139594955Y-116526277D01*
X151527456Y-116526277D01*
X151527456Y-116726411D01*
X151566500Y-116922700D01*
X151643088Y-117107600D01*
X151754277Y-117274006D01*
X151895794Y-117415523D01*
X152062200Y-117526712D01*
X152247100Y-117603300D01*
X152443389Y-117642344D01*
X152643523Y-117642344D01*
X152839812Y-117603300D01*
X152867901Y-117591665D01*
X153899000Y-117591665D01*
X153899000Y-117874335D01*
X153954147Y-118151574D01*
X154062320Y-118412727D01*
X154219363Y-118647759D01*
X154419241Y-118847637D01*
X154651759Y-119003000D01*
X154419241Y-119158363D01*
X154219363Y-119358241D01*
X154062320Y-119593273D01*
X153954147Y-119854426D01*
X153899000Y-120131665D01*
X153899000Y-120414335D01*
X153954147Y-120691574D01*
X154062320Y-120952727D01*
X154219363Y-121187759D01*
X154419241Y-121387637D01*
X154651759Y-121543000D01*
X154419241Y-121698363D01*
X154219363Y-121898241D01*
X154062320Y-122133273D01*
X153954147Y-122394426D01*
X153899000Y-122671665D01*
X153899000Y-122954335D01*
X153954147Y-123231574D01*
X154062320Y-123492727D01*
X154219363Y-123727759D01*
X154419241Y-123927637D01*
X154651759Y-124083000D01*
X154419241Y-124238363D01*
X154219363Y-124438241D01*
X154062320Y-124673273D01*
X153954147Y-124934426D01*
X153899000Y-125211665D01*
X153899000Y-125494335D01*
X153954147Y-125771574D01*
X154062320Y-126032727D01*
X154219363Y-126267759D01*
X154419241Y-126467637D01*
X154654273Y-126624680D01*
X154915426Y-126732853D01*
X155192665Y-126788000D01*
X155475335Y-126788000D01*
X155752574Y-126732853D01*
X156013727Y-126624680D01*
X156248759Y-126467637D01*
X156448637Y-126267759D01*
X156525316Y-126153000D01*
X161515928Y-126153000D01*
X161528188Y-126277482D01*
X161564498Y-126397180D01*
X161623463Y-126507494D01*
X161702815Y-126604185D01*
X161799506Y-126683537D01*
X161909820Y-126742502D01*
X162029518Y-126778812D01*
X162154000Y-126791072D01*
X162668250Y-126788000D01*
X162827000Y-126629250D01*
X162827000Y-125480000D01*
X161677750Y-125480000D01*
X161519000Y-125638750D01*
X161515928Y-126153000D01*
X156525316Y-126153000D01*
X156605680Y-126032727D01*
X156713853Y-125771574D01*
X156769000Y-125494335D01*
X156769000Y-125211665D01*
X156713853Y-124934426D01*
X156605680Y-124673273D01*
X156448637Y-124438241D01*
X156248759Y-124238363D01*
X156016241Y-124083000D01*
X156248759Y-123927637D01*
X156448637Y-123727759D01*
X156605680Y-123492727D01*
X156713853Y-123231574D01*
X156769000Y-122954335D01*
X156769000Y-122883512D01*
X161513783Y-122883512D01*
X161555213Y-123163130D01*
X161650397Y-123429292D01*
X161717329Y-123554514D01*
X161961298Y-123626097D01*
X162774395Y-122813000D01*
X161961298Y-121999903D01*
X161717329Y-122071486D01*
X161596429Y-122326996D01*
X161527700Y-122601184D01*
X161513783Y-122883512D01*
X156769000Y-122883512D01*
X156769000Y-122671665D01*
X156713853Y-122394426D01*
X156605680Y-122133273D01*
X156448637Y-121898241D01*
X156248759Y-121698363D01*
X156016241Y-121543000D01*
X156248759Y-121387637D01*
X156448637Y-121187759D01*
X156605680Y-120952727D01*
X156713853Y-120691574D01*
X156769000Y-120414335D01*
X156769000Y-120343512D01*
X161513783Y-120343512D01*
X161555213Y-120623130D01*
X161650397Y-120889292D01*
X161717329Y-121014514D01*
X161961298Y-121086097D01*
X162774395Y-120273000D01*
X161961298Y-119459903D01*
X161717329Y-119531486D01*
X161596429Y-119786996D01*
X161527700Y-120061184D01*
X161513783Y-120343512D01*
X156769000Y-120343512D01*
X156769000Y-120131665D01*
X156713853Y-119854426D01*
X156605680Y-119593273D01*
X156448637Y-119358241D01*
X156248759Y-119158363D01*
X156016241Y-119003000D01*
X156248759Y-118847637D01*
X156448637Y-118647759D01*
X156605680Y-118412727D01*
X156713853Y-118151574D01*
X156769000Y-117874335D01*
X156769000Y-117803512D01*
X161513783Y-117803512D01*
X161555213Y-118083130D01*
X161650397Y-118349292D01*
X161717329Y-118474514D01*
X161961298Y-118546097D01*
X162774395Y-117733000D01*
X161961298Y-116919903D01*
X161717329Y-116991486D01*
X161596429Y-117246996D01*
X161527700Y-117521184D01*
X161513783Y-117803512D01*
X156769000Y-117803512D01*
X156769000Y-117591665D01*
X156713853Y-117314426D01*
X156605680Y-117053273D01*
X156448637Y-116818241D01*
X156248759Y-116618363D01*
X156013727Y-116461320D01*
X155752574Y-116353147D01*
X155475335Y-116298000D01*
X155192665Y-116298000D01*
X154915426Y-116353147D01*
X154654273Y-116461320D01*
X154419241Y-116618363D01*
X154219363Y-116818241D01*
X154062320Y-117053273D01*
X153954147Y-117314426D01*
X153899000Y-117591665D01*
X152867901Y-117591665D01*
X153024712Y-117526712D01*
X153191118Y-117415523D01*
X153332635Y-117274006D01*
X153443824Y-117107600D01*
X153520412Y-116922700D01*
X153559456Y-116726411D01*
X153559456Y-116526277D01*
X153520412Y-116329988D01*
X153443824Y-116145088D01*
X153332635Y-115978682D01*
X153191118Y-115837165D01*
X153024712Y-115725976D01*
X152839812Y-115649388D01*
X152643523Y-115610344D01*
X152443389Y-115610344D01*
X152247100Y-115649388D01*
X152062200Y-115725976D01*
X151895794Y-115837165D01*
X151754277Y-115978682D01*
X151643088Y-116145088D01*
X151566500Y-116329988D01*
X151527456Y-116526277D01*
X139594955Y-116526277D01*
X139623800Y-116381267D01*
X139623800Y-116181133D01*
X139584756Y-115984844D01*
X139508168Y-115799944D01*
X139396979Y-115633538D01*
X139255462Y-115492021D01*
X139089056Y-115380832D01*
X138904156Y-115304244D01*
X138707867Y-115265200D01*
X138507733Y-115265200D01*
X138311444Y-115304244D01*
X138126544Y-115380832D01*
X137960138Y-115492021D01*
X137818621Y-115633538D01*
X137707432Y-115799944D01*
X137630844Y-115984844D01*
X137591800Y-116181133D01*
X124588756Y-116181133D01*
X124653856Y-116154168D01*
X124820262Y-116042979D01*
X124961779Y-115901462D01*
X125072968Y-115735056D01*
X125149556Y-115550156D01*
X125188600Y-115353867D01*
X125188600Y-115153733D01*
X125153234Y-114975933D01*
X128236600Y-114975933D01*
X128236600Y-115176067D01*
X128275644Y-115372356D01*
X128352232Y-115557256D01*
X128463421Y-115723662D01*
X128604938Y-115865179D01*
X128771344Y-115976368D01*
X128956244Y-116052956D01*
X129152533Y-116092000D01*
X129352667Y-116092000D01*
X129548956Y-116052956D01*
X129733856Y-115976368D01*
X129900262Y-115865179D01*
X130041779Y-115723662D01*
X130152968Y-115557256D01*
X130229556Y-115372356D01*
X130268600Y-115176067D01*
X130268600Y-114975933D01*
X130229556Y-114779644D01*
X130152968Y-114594744D01*
X130041779Y-114428338D01*
X129900262Y-114286821D01*
X129733856Y-114175632D01*
X129548956Y-114099044D01*
X129352667Y-114060000D01*
X129152533Y-114060000D01*
X128956244Y-114099044D01*
X128771344Y-114175632D01*
X128604938Y-114286821D01*
X128463421Y-114428338D01*
X128352232Y-114594744D01*
X128275644Y-114779644D01*
X128236600Y-114975933D01*
X125153234Y-114975933D01*
X125149556Y-114957444D01*
X125072968Y-114772544D01*
X124961779Y-114606138D01*
X124820262Y-114464621D01*
X124653856Y-114353432D01*
X124468956Y-114276844D01*
X124272667Y-114237800D01*
X124072533Y-114237800D01*
X123876244Y-114276844D01*
X123691344Y-114353432D01*
X123524938Y-114464621D01*
X123383421Y-114606138D01*
X123272232Y-114772544D01*
X123195644Y-114957444D01*
X123156600Y-115153733D01*
X96747198Y-115153733D01*
X96789000Y-114943581D01*
X96789000Y-114562419D01*
X96714639Y-114188581D01*
X96568775Y-113836434D01*
X96357013Y-113519509D01*
X96087491Y-113249987D01*
X95770566Y-113038225D01*
X95418419Y-112892361D01*
X95044581Y-112818000D01*
X94663419Y-112818000D01*
X94289581Y-112892361D01*
X93937434Y-113038225D01*
X93620509Y-113249987D01*
X93350987Y-113519509D01*
X93139225Y-113836434D01*
X92993361Y-114188581D01*
X92919000Y-114562419D01*
X90372000Y-114562419D01*
X90372000Y-109562419D01*
X92919000Y-109562419D01*
X92919000Y-109943581D01*
X92993361Y-110317419D01*
X93139225Y-110669566D01*
X93350987Y-110986491D01*
X93620509Y-111256013D01*
X93937434Y-111467775D01*
X94289581Y-111613639D01*
X94663419Y-111688000D01*
X95044581Y-111688000D01*
X95418419Y-111613639D01*
X95770566Y-111467775D01*
X95863119Y-111405933D01*
X103022400Y-111405933D01*
X103022400Y-111606067D01*
X103061444Y-111802356D01*
X103138032Y-111987256D01*
X103249221Y-112153662D01*
X103390738Y-112295179D01*
X103557144Y-112406368D01*
X103742044Y-112482956D01*
X103938333Y-112522000D01*
X104138467Y-112522000D01*
X104334756Y-112482956D01*
X104519656Y-112406368D01*
X104686062Y-112295179D01*
X104827579Y-112153662D01*
X104938768Y-111987256D01*
X105015356Y-111802356D01*
X105020278Y-111777608D01*
X116560600Y-111777608D01*
X116560600Y-112052792D01*
X116614286Y-112322690D01*
X116719595Y-112576927D01*
X116872480Y-112805735D01*
X117067065Y-113000320D01*
X117295873Y-113153205D01*
X117550110Y-113258514D01*
X117820008Y-113312200D01*
X118095192Y-113312200D01*
X118365090Y-113258514D01*
X118619327Y-113153205D01*
X118848135Y-113000320D01*
X119042720Y-112805735D01*
X119195605Y-112576927D01*
X119300914Y-112322690D01*
X119328912Y-112181933D01*
X137583800Y-112181933D01*
X137583800Y-112382067D01*
X137622844Y-112578356D01*
X137699432Y-112763256D01*
X137810621Y-112929662D01*
X137952138Y-113071179D01*
X138118544Y-113182368D01*
X138303444Y-113258956D01*
X138499733Y-113298000D01*
X138699867Y-113298000D01*
X138896156Y-113258956D01*
X139081056Y-113182368D01*
X139247462Y-113071179D01*
X139388979Y-112929662D01*
X139500168Y-112763256D01*
X139576756Y-112578356D01*
X139615800Y-112382067D01*
X139615800Y-112181933D01*
X139576756Y-111985644D01*
X139500168Y-111800744D01*
X139466351Y-111750133D01*
X148734400Y-111750133D01*
X148734400Y-111950267D01*
X148773444Y-112146556D01*
X148850032Y-112331456D01*
X148961221Y-112497862D01*
X149102738Y-112639379D01*
X149269144Y-112750568D01*
X149454044Y-112827156D01*
X149650333Y-112866200D01*
X149850467Y-112866200D01*
X150046756Y-112827156D01*
X150231656Y-112750568D01*
X150398062Y-112639379D01*
X150539579Y-112497862D01*
X150650768Y-112331456D01*
X150727356Y-112146556D01*
X150766400Y-111950267D01*
X150766400Y-111750133D01*
X150727356Y-111553844D01*
X150650768Y-111368944D01*
X150539579Y-111202538D01*
X150426774Y-111089733D01*
X154170000Y-111089733D01*
X154170000Y-111289867D01*
X154209044Y-111486156D01*
X154285632Y-111671056D01*
X154396821Y-111837462D01*
X154538338Y-111978979D01*
X154704744Y-112090168D01*
X154889644Y-112166756D01*
X155085933Y-112205800D01*
X155286067Y-112205800D01*
X155482356Y-112166756D01*
X155667256Y-112090168D01*
X155833662Y-111978979D01*
X155975179Y-111837462D01*
X156086368Y-111671056D01*
X156162956Y-111486156D01*
X156202000Y-111289867D01*
X156202000Y-111089733D01*
X156162956Y-110893444D01*
X156086368Y-110708544D01*
X155975179Y-110542138D01*
X155833662Y-110400621D01*
X155667256Y-110289432D01*
X155482356Y-110212844D01*
X155286067Y-110173800D01*
X155085933Y-110173800D01*
X154889644Y-110212844D01*
X154704744Y-110289432D01*
X154538338Y-110400621D01*
X154396821Y-110542138D01*
X154285632Y-110708544D01*
X154209044Y-110893444D01*
X154170000Y-111089733D01*
X150426774Y-111089733D01*
X150398062Y-111061021D01*
X150231656Y-110949832D01*
X150046756Y-110873244D01*
X149850467Y-110834200D01*
X149650333Y-110834200D01*
X149454044Y-110873244D01*
X149269144Y-110949832D01*
X149102738Y-111061021D01*
X148961221Y-111202538D01*
X148850032Y-111368944D01*
X148773444Y-111553844D01*
X148734400Y-111750133D01*
X139466351Y-111750133D01*
X139388979Y-111634338D01*
X139247462Y-111492821D01*
X139081056Y-111381632D01*
X138896156Y-111305044D01*
X138699867Y-111266000D01*
X138499733Y-111266000D01*
X138303444Y-111305044D01*
X138118544Y-111381632D01*
X137952138Y-111492821D01*
X137810621Y-111634338D01*
X137699432Y-111800744D01*
X137622844Y-111985644D01*
X137583800Y-112181933D01*
X119328912Y-112181933D01*
X119354600Y-112052792D01*
X119354600Y-111777608D01*
X119300914Y-111507710D01*
X119195605Y-111253473D01*
X119042720Y-111024665D01*
X118848135Y-110830080D01*
X118619327Y-110677195D01*
X118365090Y-110571886D01*
X118095192Y-110518200D01*
X117820008Y-110518200D01*
X117550110Y-110571886D01*
X117295873Y-110677195D01*
X117067065Y-110830080D01*
X116872480Y-111024665D01*
X116719595Y-111253473D01*
X116614286Y-111507710D01*
X116560600Y-111777608D01*
X105020278Y-111777608D01*
X105054400Y-111606067D01*
X105054400Y-111405933D01*
X105015356Y-111209644D01*
X104938768Y-111024744D01*
X104827579Y-110858338D01*
X104686062Y-110716821D01*
X104519656Y-110605632D01*
X104334756Y-110529044D01*
X104138467Y-110490000D01*
X103938333Y-110490000D01*
X103742044Y-110529044D01*
X103557144Y-110605632D01*
X103390738Y-110716821D01*
X103249221Y-110858338D01*
X103138032Y-111024744D01*
X103061444Y-111209644D01*
X103022400Y-111405933D01*
X95863119Y-111405933D01*
X96087491Y-111256013D01*
X96357013Y-110986491D01*
X96568775Y-110669566D01*
X96714639Y-110317419D01*
X96789000Y-109943581D01*
X96789000Y-109591133D01*
X118025800Y-109591133D01*
X118025800Y-109791267D01*
X118064844Y-109987556D01*
X118141432Y-110172456D01*
X118252621Y-110338862D01*
X118394138Y-110480379D01*
X118560544Y-110591568D01*
X118745444Y-110668156D01*
X118941733Y-110707200D01*
X119141867Y-110707200D01*
X119338156Y-110668156D01*
X119523056Y-110591568D01*
X119689462Y-110480379D01*
X119830979Y-110338862D01*
X119942168Y-110172456D01*
X120018756Y-109987556D01*
X120057800Y-109791267D01*
X120057800Y-109591133D01*
X120018756Y-109394844D01*
X119942168Y-109209944D01*
X119830979Y-109043538D01*
X119689462Y-108902021D01*
X119523056Y-108790832D01*
X119338156Y-108714244D01*
X119141867Y-108675200D01*
X118941733Y-108675200D01*
X118745444Y-108714244D01*
X118560544Y-108790832D01*
X118394138Y-108902021D01*
X118252621Y-109043538D01*
X118141432Y-109209944D01*
X118064844Y-109394844D01*
X118025800Y-109591133D01*
X96789000Y-109591133D01*
X96789000Y-109562419D01*
X96714639Y-109188581D01*
X96568775Y-108836434D01*
X96357013Y-108519509D01*
X96158637Y-108321133D01*
X133418200Y-108321133D01*
X133418200Y-108521267D01*
X133457244Y-108717556D01*
X133533832Y-108902456D01*
X133645021Y-109068862D01*
X133786538Y-109210379D01*
X133952944Y-109321568D01*
X134137844Y-109398156D01*
X134334133Y-109437200D01*
X134534267Y-109437200D01*
X134730556Y-109398156D01*
X134816560Y-109362532D01*
X142773400Y-109362532D01*
X142773400Y-109562666D01*
X142812444Y-109758955D01*
X142889032Y-109943855D01*
X143000221Y-110110261D01*
X143141738Y-110251778D01*
X143308144Y-110362967D01*
X143493044Y-110439555D01*
X143689333Y-110478599D01*
X143889467Y-110478599D01*
X144085756Y-110439555D01*
X144270656Y-110362967D01*
X144437062Y-110251778D01*
X144578579Y-110110261D01*
X144689768Y-109943855D01*
X144766356Y-109758955D01*
X144805400Y-109562666D01*
X144805400Y-109362532D01*
X144766356Y-109166243D01*
X144689768Y-108981343D01*
X144578579Y-108814937D01*
X144437062Y-108673420D01*
X144270656Y-108562231D01*
X144085756Y-108485643D01*
X143889467Y-108446599D01*
X143689333Y-108446599D01*
X143493044Y-108485643D01*
X143308144Y-108562231D01*
X143141738Y-108673420D01*
X143000221Y-108814937D01*
X142889032Y-108981343D01*
X142812444Y-109166243D01*
X142773400Y-109362532D01*
X134816560Y-109362532D01*
X134915456Y-109321568D01*
X135081862Y-109210379D01*
X135223379Y-109068862D01*
X135334568Y-108902456D01*
X135411156Y-108717556D01*
X135450200Y-108521267D01*
X135450200Y-108321133D01*
X135411156Y-108124844D01*
X135334568Y-107939944D01*
X135223379Y-107773538D01*
X135081862Y-107632021D01*
X134915456Y-107520832D01*
X134730556Y-107444244D01*
X134534267Y-107405200D01*
X134334133Y-107405200D01*
X134137844Y-107444244D01*
X133952944Y-107520832D01*
X133786538Y-107632021D01*
X133645021Y-107773538D01*
X133533832Y-107939944D01*
X133457244Y-108124844D01*
X133418200Y-108321133D01*
X96158637Y-108321133D01*
X96087491Y-108249987D01*
X95770566Y-108038225D01*
X95418419Y-107892361D01*
X95044581Y-107818000D01*
X94663419Y-107818000D01*
X94289581Y-107892361D01*
X93937434Y-108038225D01*
X93620509Y-108249987D01*
X93350987Y-108519509D01*
X93139225Y-108836434D01*
X92993361Y-109188581D01*
X92919000Y-109562419D01*
X90372000Y-109562419D01*
X90372000Y-103453000D01*
X92915928Y-103453000D01*
X92915928Y-106053000D01*
X92928188Y-106177482D01*
X92964498Y-106297180D01*
X93023463Y-106407494D01*
X93102815Y-106504185D01*
X93199506Y-106583537D01*
X93309820Y-106642502D01*
X93429518Y-106678812D01*
X93554000Y-106691072D01*
X96154000Y-106691072D01*
X96278482Y-106678812D01*
X96398180Y-106642502D01*
X96508494Y-106583537D01*
X96605185Y-106504185D01*
X96684537Y-106407494D01*
X96743502Y-106297180D01*
X96779812Y-106177482D01*
X96792072Y-106053000D01*
X96792072Y-105690933D01*
X102006400Y-105690933D01*
X102006400Y-105891067D01*
X102045444Y-106087356D01*
X102122032Y-106272256D01*
X102233221Y-106438662D01*
X102374738Y-106580179D01*
X102541144Y-106691368D01*
X102726044Y-106767956D01*
X102922333Y-106807000D01*
X103122467Y-106807000D01*
X103318756Y-106767956D01*
X103503656Y-106691368D01*
X103670062Y-106580179D01*
X103811579Y-106438662D01*
X103922768Y-106272256D01*
X103999356Y-106087356D01*
X104038400Y-105891067D01*
X104038400Y-105690933D01*
X112141000Y-105690933D01*
X112141000Y-105891067D01*
X112180044Y-106087356D01*
X112256632Y-106272256D01*
X112367821Y-106438662D01*
X112509338Y-106580179D01*
X112675744Y-106691368D01*
X112860644Y-106767956D01*
X113056933Y-106807000D01*
X113257067Y-106807000D01*
X113453356Y-106767956D01*
X113638256Y-106691368D01*
X113804662Y-106580179D01*
X113946179Y-106438662D01*
X114057368Y-106272256D01*
X114133956Y-106087356D01*
X114173000Y-105891067D01*
X114173000Y-105755008D01*
X131419600Y-105755008D01*
X131419600Y-106030192D01*
X131473286Y-106300090D01*
X131578595Y-106554327D01*
X131731480Y-106783135D01*
X131926065Y-106977720D01*
X132154873Y-107130605D01*
X132409110Y-107235914D01*
X132679008Y-107289600D01*
X132954192Y-107289600D01*
X133224090Y-107235914D01*
X133478327Y-107130605D01*
X133707135Y-106977720D01*
X133901720Y-106783135D01*
X134054605Y-106554327D01*
X134159914Y-106300090D01*
X134213600Y-106030192D01*
X134213600Y-105970333D01*
X145389600Y-105970333D01*
X145389600Y-106170467D01*
X145428644Y-106366756D01*
X145505232Y-106551656D01*
X145616421Y-106718062D01*
X145757938Y-106859579D01*
X145924344Y-106970768D01*
X146109244Y-107047356D01*
X146305533Y-107086400D01*
X146505667Y-107086400D01*
X146701956Y-107047356D01*
X146886856Y-106970768D01*
X147053262Y-106859579D01*
X147194779Y-106718062D01*
X147305968Y-106551656D01*
X147382556Y-106366756D01*
X147421600Y-106170467D01*
X147421600Y-105970333D01*
X147382556Y-105774044D01*
X147305968Y-105589144D01*
X147194779Y-105422738D01*
X147053262Y-105281221D01*
X146886856Y-105170032D01*
X146701956Y-105093444D01*
X146505667Y-105054400D01*
X146305533Y-105054400D01*
X146109244Y-105093444D01*
X145924344Y-105170032D01*
X145757938Y-105281221D01*
X145616421Y-105422738D01*
X145505232Y-105589144D01*
X145428644Y-105774044D01*
X145389600Y-105970333D01*
X134213600Y-105970333D01*
X134213600Y-105755008D01*
X134159914Y-105485110D01*
X134054605Y-105230873D01*
X133901720Y-105002065D01*
X133707135Y-104807480D01*
X133478327Y-104654595D01*
X133224090Y-104549286D01*
X132954192Y-104495600D01*
X132679008Y-104495600D01*
X132409110Y-104549286D01*
X132154873Y-104654595D01*
X131926065Y-104807480D01*
X131731480Y-105002065D01*
X131578595Y-105230873D01*
X131473286Y-105485110D01*
X131419600Y-105755008D01*
X114173000Y-105755008D01*
X114173000Y-105690933D01*
X114149641Y-105573497D01*
X114246837Y-105533237D01*
X114413243Y-105422048D01*
X114554760Y-105280531D01*
X114665949Y-105114125D01*
X114742537Y-104929225D01*
X114781581Y-104732936D01*
X114781581Y-104532802D01*
X114742537Y-104336513D01*
X114665949Y-104151613D01*
X114554760Y-103985207D01*
X114413243Y-103843690D01*
X114246837Y-103732501D01*
X114061937Y-103655913D01*
X113865648Y-103616869D01*
X113665514Y-103616869D01*
X113469225Y-103655913D01*
X113387052Y-103689950D01*
X113356048Y-103673378D01*
X113217198Y-103631258D01*
X113072800Y-103617036D01*
X112928401Y-103631258D01*
X112789551Y-103673378D01*
X112661587Y-103741776D01*
X112549425Y-103833826D01*
X112457376Y-103945988D01*
X112388978Y-104073952D01*
X112346858Y-104212802D01*
X112336200Y-104321015D01*
X112336200Y-104418786D01*
X112346858Y-104526999D01*
X112388978Y-104665849D01*
X112457376Y-104793813D01*
X112549426Y-104905975D01*
X112595811Y-104944042D01*
X112509338Y-105001821D01*
X112367821Y-105143338D01*
X112256632Y-105309744D01*
X112180044Y-105494644D01*
X112141000Y-105690933D01*
X104038400Y-105690933D01*
X103999356Y-105494644D01*
X103922768Y-105309744D01*
X103811579Y-105143338D01*
X103670062Y-105001821D01*
X103503656Y-104890632D01*
X103318756Y-104814044D01*
X103122467Y-104775000D01*
X102922333Y-104775000D01*
X102726044Y-104814044D01*
X102541144Y-104890632D01*
X102374738Y-105001821D01*
X102233221Y-105143338D01*
X102122032Y-105309744D01*
X102045444Y-105494644D01*
X102006400Y-105690933D01*
X96792072Y-105690933D01*
X96792072Y-103453000D01*
X96779812Y-103328518D01*
X96764468Y-103277933D01*
X148615400Y-103277933D01*
X148615400Y-103478067D01*
X148654444Y-103674356D01*
X148731032Y-103859256D01*
X148842221Y-104025662D01*
X148983738Y-104167179D01*
X149150144Y-104278368D01*
X149335044Y-104354956D01*
X149531333Y-104394000D01*
X149731467Y-104394000D01*
X149927756Y-104354956D01*
X150112656Y-104278368D01*
X150279062Y-104167179D01*
X150420579Y-104025662D01*
X150531768Y-103859256D01*
X150534174Y-103853445D01*
X155716688Y-103853445D01*
X155716688Y-104053579D01*
X155755732Y-104249868D01*
X155832320Y-104434768D01*
X155943509Y-104601174D01*
X156085026Y-104742691D01*
X156251432Y-104853880D01*
X156436332Y-104930468D01*
X156632621Y-104969512D01*
X156832755Y-104969512D01*
X157029044Y-104930468D01*
X157213944Y-104853880D01*
X157380350Y-104742691D01*
X157521867Y-104601174D01*
X157633056Y-104434768D01*
X157709644Y-104249868D01*
X157748688Y-104053579D01*
X157748688Y-103853445D01*
X157709644Y-103657156D01*
X157633056Y-103472256D01*
X157521867Y-103305850D01*
X157380350Y-103164333D01*
X157213944Y-103053144D01*
X157029044Y-102976556D01*
X156832755Y-102937512D01*
X156632621Y-102937512D01*
X156436332Y-102976556D01*
X156251432Y-103053144D01*
X156085026Y-103164333D01*
X155943509Y-103305850D01*
X155832320Y-103472256D01*
X155755732Y-103657156D01*
X155716688Y-103853445D01*
X150534174Y-103853445D01*
X150608356Y-103674356D01*
X150647400Y-103478067D01*
X150647400Y-103277933D01*
X150608356Y-103081644D01*
X150531768Y-102896744D01*
X150420579Y-102730338D01*
X150279062Y-102588821D01*
X150112656Y-102477632D01*
X149927756Y-102401044D01*
X149731467Y-102362000D01*
X149531333Y-102362000D01*
X149335044Y-102401044D01*
X149150144Y-102477632D01*
X148983738Y-102588821D01*
X148842221Y-102730338D01*
X148731032Y-102896744D01*
X148654444Y-103081644D01*
X148615400Y-103277933D01*
X96764468Y-103277933D01*
X96743502Y-103208820D01*
X96684537Y-103098506D01*
X96605185Y-103001815D01*
X96508494Y-102922463D01*
X96398180Y-102863498D01*
X96278482Y-102827188D01*
X96154000Y-102814928D01*
X93554000Y-102814928D01*
X93429518Y-102827188D01*
X93309820Y-102863498D01*
X93199506Y-102922463D01*
X93102815Y-103001815D01*
X93023463Y-103098506D01*
X92964498Y-103208820D01*
X92928188Y-103328518D01*
X92915928Y-103453000D01*
X90372000Y-103453000D01*
X90372000Y-101957133D01*
X126288800Y-101957133D01*
X126288800Y-102157267D01*
X126327844Y-102353556D01*
X126404432Y-102538456D01*
X126515621Y-102704862D01*
X126657138Y-102846379D01*
X126823544Y-102957568D01*
X127008444Y-103034156D01*
X127204733Y-103073200D01*
X127404867Y-103073200D01*
X127601156Y-103034156D01*
X127786056Y-102957568D01*
X127952462Y-102846379D01*
X128093979Y-102704862D01*
X128205168Y-102538456D01*
X128281756Y-102353556D01*
X128320800Y-102157267D01*
X128320800Y-101957133D01*
X128281756Y-101760844D01*
X128205168Y-101575944D01*
X128093979Y-101409538D01*
X127952462Y-101268021D01*
X127786056Y-101156832D01*
X127601156Y-101080244D01*
X127404867Y-101041200D01*
X127204733Y-101041200D01*
X127008444Y-101080244D01*
X126823544Y-101156832D01*
X126657138Y-101268021D01*
X126515621Y-101409538D01*
X126404432Y-101575944D01*
X126327844Y-101760844D01*
X126288800Y-101957133D01*
X90372000Y-101957133D01*
X90372000Y-97355050D01*
X137069000Y-97355050D01*
X137069000Y-97750949D01*
X137090487Y-97969110D01*
X137175401Y-98249033D01*
X137313294Y-98507013D01*
X137498866Y-98733134D01*
X137724986Y-98918706D01*
X137982966Y-99056599D01*
X138262889Y-99141513D01*
X138554000Y-99170185D01*
X138845110Y-99141513D01*
X139125033Y-99056599D01*
X139383013Y-98918706D01*
X139609134Y-98733134D01*
X139794706Y-98507014D01*
X139804000Y-98489626D01*
X139813294Y-98507013D01*
X139998866Y-98733134D01*
X140224986Y-98918706D01*
X140482966Y-99056599D01*
X140762889Y-99141513D01*
X141054000Y-99170185D01*
X141345110Y-99141513D01*
X141625033Y-99056599D01*
X141883013Y-98918706D01*
X142109134Y-98733134D01*
X142294706Y-98507014D01*
X142308462Y-98481278D01*
X142464951Y-98687429D01*
X142682807Y-98880496D01*
X142934142Y-99027352D01*
X143197110Y-99119476D01*
X143427000Y-98998155D01*
X143427000Y-97680000D01*
X143407000Y-97680000D01*
X143407000Y-97426000D01*
X143427000Y-97426000D01*
X143427000Y-96107845D01*
X143681000Y-96107845D01*
X143681000Y-97426000D01*
X143701000Y-97426000D01*
X143701000Y-97680000D01*
X143681000Y-97680000D01*
X143681000Y-98998155D01*
X143910890Y-99119476D01*
X144173858Y-99027352D01*
X144425193Y-98880496D01*
X144643049Y-98687429D01*
X144799538Y-98481278D01*
X144813294Y-98507013D01*
X144998866Y-98733134D01*
X145224986Y-98918706D01*
X145482966Y-99056599D01*
X145762889Y-99141513D01*
X146054000Y-99170185D01*
X146345110Y-99141513D01*
X146625033Y-99056599D01*
X146883013Y-98918706D01*
X147109134Y-98733134D01*
X147161223Y-98669663D01*
X147215595Y-98771386D01*
X147326038Y-98905962D01*
X147460614Y-99016405D01*
X147614150Y-99098472D01*
X147780746Y-99149008D01*
X147954000Y-99166072D01*
X149154000Y-99166072D01*
X149327254Y-99149008D01*
X149493850Y-99098472D01*
X149647386Y-99016405D01*
X149781962Y-98905962D01*
X149892405Y-98771386D01*
X149974472Y-98617850D01*
X150025008Y-98451254D01*
X150042072Y-98278000D01*
X150042072Y-96828000D01*
X150025008Y-96654746D01*
X149974472Y-96488150D01*
X149892405Y-96334614D01*
X149781962Y-96200038D01*
X149647386Y-96089595D01*
X149493850Y-96007528D01*
X149327254Y-95956992D01*
X149154000Y-95939928D01*
X147954000Y-95939928D01*
X147780746Y-95956992D01*
X147614150Y-96007528D01*
X147460614Y-96089595D01*
X147326038Y-96200038D01*
X147215595Y-96334614D01*
X147161223Y-96436337D01*
X147109134Y-96372866D01*
X146883014Y-96187294D01*
X146625034Y-96049401D01*
X146345111Y-95964487D01*
X146054000Y-95935815D01*
X145762890Y-95964487D01*
X145482967Y-96049401D01*
X145224987Y-96187294D01*
X144998866Y-96372866D01*
X144813294Y-96598986D01*
X144799538Y-96624722D01*
X144643049Y-96418571D01*
X144425193Y-96225504D01*
X144173858Y-96078648D01*
X143910890Y-95986524D01*
X143681000Y-96107845D01*
X143427000Y-96107845D01*
X143197110Y-95986524D01*
X142934142Y-96078648D01*
X142682807Y-96225504D01*
X142464951Y-96418571D01*
X142308462Y-96624722D01*
X142294706Y-96598986D01*
X142109134Y-96372866D01*
X141883014Y-96187294D01*
X141625034Y-96049401D01*
X141345111Y-95964487D01*
X141054000Y-95935815D01*
X140762890Y-95964487D01*
X140482967Y-96049401D01*
X140224987Y-96187294D01*
X139998866Y-96372866D01*
X139813294Y-96598986D01*
X139804000Y-96616374D01*
X139794706Y-96598986D01*
X139609134Y-96372866D01*
X139383014Y-96187294D01*
X139125034Y-96049401D01*
X138845111Y-95964487D01*
X138554000Y-95935815D01*
X138262890Y-95964487D01*
X137982967Y-96049401D01*
X137724987Y-96187294D01*
X137498866Y-96372866D01*
X137313294Y-96598986D01*
X137175401Y-96856966D01*
X137090487Y-97136889D01*
X137069000Y-97355050D01*
X90372000Y-97355050D01*
X90372000Y-94594297D01*
X90775161Y-95197670D01*
X91309330Y-95731839D01*
X91937446Y-96151533D01*
X92635372Y-96440623D01*
X93376285Y-96588000D01*
X94131715Y-96588000D01*
X94872628Y-96440623D01*
X95570554Y-96151533D01*
X95794010Y-96002224D01*
X99984381Y-96002224D01*
X100116317Y-96297312D01*
X100457045Y-96468159D01*
X100824557Y-96569250D01*
X101204729Y-96596701D01*
X101582951Y-96549457D01*
X101944690Y-96429333D01*
X102191683Y-96297312D01*
X102323619Y-96002224D01*
X101154000Y-94832605D01*
X99984381Y-96002224D01*
X95794010Y-96002224D01*
X96198670Y-95731839D01*
X96732839Y-95197670D01*
X97062880Y-94703729D01*
X99210299Y-94703729D01*
X99257543Y-95081951D01*
X99377667Y-95443690D01*
X99509688Y-95690683D01*
X99804776Y-95822619D01*
X100974395Y-94653000D01*
X101333605Y-94653000D01*
X102503224Y-95822619D01*
X102798312Y-95690683D01*
X102969159Y-95349955D01*
X103070250Y-94982443D01*
X103097701Y-94602271D01*
X103080232Y-94462419D01*
X104219000Y-94462419D01*
X104219000Y-94843581D01*
X104293361Y-95217419D01*
X104439225Y-95569566D01*
X104650987Y-95886491D01*
X104920509Y-96156013D01*
X105237434Y-96367775D01*
X105589581Y-96513639D01*
X105963419Y-96588000D01*
X106344581Y-96588000D01*
X106718419Y-96513639D01*
X107070566Y-96367775D01*
X107387491Y-96156013D01*
X107657013Y-95886491D01*
X107868775Y-95569566D01*
X108014639Y-95217419D01*
X108089000Y-94843581D01*
X108089000Y-94462419D01*
X109219000Y-94462419D01*
X109219000Y-94843581D01*
X109293361Y-95217419D01*
X109439225Y-95569566D01*
X109650987Y-95886491D01*
X109920509Y-96156013D01*
X110237434Y-96367775D01*
X110589581Y-96513639D01*
X110963419Y-96588000D01*
X111344581Y-96588000D01*
X111718419Y-96513639D01*
X112070566Y-96367775D01*
X112387491Y-96156013D01*
X112657013Y-95886491D01*
X112868775Y-95569566D01*
X113014639Y-95217419D01*
X113089000Y-94843581D01*
X113089000Y-94462419D01*
X113014639Y-94088581D01*
X112868775Y-93736434D01*
X112657013Y-93419509D01*
X112590504Y-93353000D01*
X114215928Y-93353000D01*
X114215928Y-95953000D01*
X114228188Y-96077482D01*
X114264498Y-96197180D01*
X114323463Y-96307494D01*
X114402815Y-96404185D01*
X114499506Y-96483537D01*
X114609820Y-96542502D01*
X114729518Y-96578812D01*
X114854000Y-96591072D01*
X117454000Y-96591072D01*
X117578482Y-96578812D01*
X117698180Y-96542502D01*
X117808494Y-96483537D01*
X117905185Y-96404185D01*
X117984537Y-96307494D01*
X118043502Y-96197180D01*
X118079812Y-96077482D01*
X118092072Y-95953000D01*
X118092072Y-94462419D01*
X120319000Y-94462419D01*
X120319000Y-94843581D01*
X120393361Y-95217419D01*
X120539225Y-95569566D01*
X120750987Y-95886491D01*
X121020509Y-96156013D01*
X121337434Y-96367775D01*
X121689581Y-96513639D01*
X122063419Y-96588000D01*
X122444581Y-96588000D01*
X122818419Y-96513639D01*
X123170566Y-96367775D01*
X123487491Y-96156013D01*
X123641280Y-96002224D01*
X126084381Y-96002224D01*
X126216317Y-96297312D01*
X126557045Y-96468159D01*
X126924557Y-96569250D01*
X127304729Y-96596701D01*
X127682951Y-96549457D01*
X128044690Y-96429333D01*
X128291683Y-96297312D01*
X128423619Y-96002224D01*
X127254000Y-94832605D01*
X126084381Y-96002224D01*
X123641280Y-96002224D01*
X123757013Y-95886491D01*
X123968775Y-95569566D01*
X124114639Y-95217419D01*
X124189000Y-94843581D01*
X124189000Y-94703729D01*
X125310299Y-94703729D01*
X125357543Y-95081951D01*
X125477667Y-95443690D01*
X125609688Y-95690683D01*
X125904776Y-95822619D01*
X127074395Y-94653000D01*
X127433605Y-94653000D01*
X128603224Y-95822619D01*
X128898312Y-95690683D01*
X129069159Y-95349955D01*
X129170250Y-94982443D01*
X129197701Y-94602271D01*
X129150457Y-94224049D01*
X129030333Y-93862310D01*
X128898312Y-93615317D01*
X128603224Y-93483381D01*
X127433605Y-94653000D01*
X127074395Y-94653000D01*
X125904776Y-93483381D01*
X125609688Y-93615317D01*
X125438841Y-93956045D01*
X125337750Y-94323557D01*
X125310299Y-94703729D01*
X124189000Y-94703729D01*
X124189000Y-94462419D01*
X124114639Y-94088581D01*
X123968775Y-93736434D01*
X123757013Y-93419509D01*
X123641280Y-93303776D01*
X126084381Y-93303776D01*
X127254000Y-94473395D01*
X128374395Y-93353000D01*
X130315928Y-93353000D01*
X130315928Y-95953000D01*
X130328188Y-96077482D01*
X130364498Y-96197180D01*
X130423463Y-96307494D01*
X130502815Y-96404185D01*
X130599506Y-96483537D01*
X130709820Y-96542502D01*
X130829518Y-96578812D01*
X130954000Y-96591072D01*
X133554000Y-96591072D01*
X133678482Y-96578812D01*
X133798180Y-96542502D01*
X133908494Y-96483537D01*
X134005185Y-96404185D01*
X134084537Y-96307494D01*
X134143502Y-96197180D01*
X134179812Y-96077482D01*
X134192072Y-95953000D01*
X134192072Y-93353000D01*
X134179812Y-93228518D01*
X134143502Y-93108820D01*
X134084537Y-92998506D01*
X134005185Y-92901815D01*
X133908494Y-92822463D01*
X133798180Y-92763498D01*
X133678482Y-92727188D01*
X133554000Y-92714928D01*
X130954000Y-92714928D01*
X130829518Y-92727188D01*
X130709820Y-92763498D01*
X130599506Y-92822463D01*
X130502815Y-92901815D01*
X130423463Y-92998506D01*
X130364498Y-93108820D01*
X130328188Y-93228518D01*
X130315928Y-93353000D01*
X128374395Y-93353000D01*
X128423619Y-93303776D01*
X128291683Y-93008688D01*
X127950955Y-92837841D01*
X127583443Y-92736750D01*
X127203271Y-92709299D01*
X126825049Y-92756543D01*
X126463310Y-92876667D01*
X126216317Y-93008688D01*
X126084381Y-93303776D01*
X123641280Y-93303776D01*
X123487491Y-93149987D01*
X123170566Y-92938225D01*
X122818419Y-92792361D01*
X122444581Y-92718000D01*
X122063419Y-92718000D01*
X121689581Y-92792361D01*
X121337434Y-92938225D01*
X121020509Y-93149987D01*
X120750987Y-93419509D01*
X120539225Y-93736434D01*
X120393361Y-94088581D01*
X120319000Y-94462419D01*
X118092072Y-94462419D01*
X118092072Y-93353000D01*
X118079812Y-93228518D01*
X118043502Y-93108820D01*
X117984537Y-92998506D01*
X117905185Y-92901815D01*
X117808494Y-92822463D01*
X117698180Y-92763498D01*
X117578482Y-92727188D01*
X117454000Y-92714928D01*
X114854000Y-92714928D01*
X114729518Y-92727188D01*
X114609820Y-92763498D01*
X114499506Y-92822463D01*
X114402815Y-92901815D01*
X114323463Y-92998506D01*
X114264498Y-93108820D01*
X114228188Y-93228518D01*
X114215928Y-93353000D01*
X112590504Y-93353000D01*
X112387491Y-93149987D01*
X112070566Y-92938225D01*
X111718419Y-92792361D01*
X111344581Y-92718000D01*
X110963419Y-92718000D01*
X110589581Y-92792361D01*
X110237434Y-92938225D01*
X109920509Y-93149987D01*
X109650987Y-93419509D01*
X109439225Y-93736434D01*
X109293361Y-94088581D01*
X109219000Y-94462419D01*
X108089000Y-94462419D01*
X108014639Y-94088581D01*
X107868775Y-93736434D01*
X107657013Y-93419509D01*
X107387491Y-93149987D01*
X107070566Y-92938225D01*
X106718419Y-92792361D01*
X106344581Y-92718000D01*
X105963419Y-92718000D01*
X105589581Y-92792361D01*
X105237434Y-92938225D01*
X104920509Y-93149987D01*
X104650987Y-93419509D01*
X104439225Y-93736434D01*
X104293361Y-94088581D01*
X104219000Y-94462419D01*
X103080232Y-94462419D01*
X103050457Y-94224049D01*
X102930333Y-93862310D01*
X102798312Y-93615317D01*
X102503224Y-93483381D01*
X101333605Y-94653000D01*
X100974395Y-94653000D01*
X99804776Y-93483381D01*
X99509688Y-93615317D01*
X99338841Y-93956045D01*
X99237750Y-94323557D01*
X99210299Y-94703729D01*
X97062880Y-94703729D01*
X97152533Y-94569554D01*
X97441623Y-93871628D01*
X97554575Y-93303776D01*
X99984381Y-93303776D01*
X101154000Y-94473395D01*
X102323619Y-93303776D01*
X102191683Y-93008688D01*
X101850955Y-92837841D01*
X101483443Y-92736750D01*
X101103271Y-92709299D01*
X100725049Y-92756543D01*
X100363310Y-92876667D01*
X100116317Y-93008688D01*
X99984381Y-93303776D01*
X97554575Y-93303776D01*
X97589000Y-93130715D01*
X97589000Y-92375285D01*
X97441623Y-91634372D01*
X97152533Y-90936446D01*
X96732839Y-90308330D01*
X96387509Y-89963000D01*
X157820491Y-89963000D01*
X157475161Y-90308330D01*
X157475161Y-90308330D01*
G37*
X157475161Y-90308330D02*
X157055467Y-90936446D01*
X156766377Y-91634372D01*
X156619000Y-92375285D01*
X156619000Y-93130715D01*
X156766377Y-93871628D01*
X157055467Y-94569554D01*
X157475161Y-95197670D01*
X158009330Y-95731839D01*
X158637446Y-96151533D01*
X159335372Y-96440623D01*
X160076285Y-96588000D01*
X160831715Y-96588000D01*
X161572628Y-96440623D01*
X162270554Y-96151533D01*
X162898670Y-95731839D01*
X163432839Y-95197670D01*
X163844000Y-94582324D01*
X163844001Y-116663392D01*
X163767097Y-116740296D01*
X163695514Y-116496329D01*
X163440004Y-116375429D01*
X163165816Y-116306700D01*
X162883488Y-116292783D01*
X162603870Y-116334213D01*
X162337708Y-116429397D01*
X162212486Y-116496329D01*
X162140903Y-116740298D01*
X162954000Y-117553395D01*
X162968143Y-117539253D01*
X163147748Y-117718858D01*
X163133605Y-117733000D01*
X163147748Y-117747143D01*
X162968143Y-117926748D01*
X162954000Y-117912605D01*
X162140903Y-118725702D01*
X162212486Y-118969671D01*
X162278636Y-119000971D01*
X162212486Y-119036329D01*
X162140903Y-119280298D01*
X162954000Y-120093395D01*
X162968143Y-120079253D01*
X163147748Y-120258858D01*
X163133605Y-120273000D01*
X163147748Y-120287143D01*
X162968143Y-120466748D01*
X162954000Y-120452605D01*
X162140903Y-121265702D01*
X162212486Y-121509671D01*
X162278636Y-121540971D01*
X162212486Y-121576329D01*
X162140903Y-121820298D01*
X162954000Y-122633395D01*
X162968143Y-122619253D01*
X163147748Y-122798858D01*
X163133605Y-122813000D01*
X163147748Y-122827143D01*
X162968143Y-123006748D01*
X162954000Y-122992605D01*
X162140903Y-123805702D01*
X162172984Y-123915041D01*
X162154000Y-123914928D01*
X162029518Y-123927188D01*
X161909820Y-123963498D01*
X161799506Y-124022463D01*
X161702815Y-124101815D01*
X161623463Y-124198506D01*
X161564498Y-124308820D01*
X161528188Y-124428518D01*
X161515928Y-124553000D01*
X161519000Y-125067250D01*
X161677750Y-125226000D01*
X162827000Y-125226000D01*
X162827000Y-125206000D01*
X163081000Y-125206000D01*
X163081000Y-125226000D01*
X163101000Y-125226000D01*
X163101000Y-125480000D01*
X163081000Y-125480000D01*
X163081000Y-126629250D01*
X163239750Y-126788000D01*
X163754000Y-126791072D01*
X163844001Y-126782208D01*
X163844001Y-129023677D01*
X163432839Y-128408330D01*
X162898670Y-127874161D01*
X162270554Y-127454467D01*
X161572628Y-127165377D01*
X160831715Y-127018000D01*
X160076285Y-127018000D01*
X159335372Y-127165377D01*
X158637446Y-127454467D01*
X158009330Y-127874161D01*
X157475161Y-128408330D01*
X157055467Y-129036446D01*
X156766377Y-129734372D01*
X156619000Y-130475285D01*
X156619000Y-131230715D01*
X156766377Y-131971628D01*
X157055467Y-132669554D01*
X157475161Y-133297670D01*
X157706491Y-133529000D01*
X96401509Y-133529000D01*
X96732839Y-133197670D01*
X97152533Y-132569554D01*
X97441623Y-131871628D01*
X97589000Y-131130715D01*
X97589000Y-130375285D01*
X97441623Y-129634372D01*
X97152533Y-128936446D01*
X96732839Y-128308330D01*
X96198670Y-127774161D01*
X96167001Y-127753000D01*
X98815928Y-127753000D01*
X98815928Y-130353000D01*
X98828188Y-130477482D01*
X98864498Y-130597180D01*
X98923463Y-130707494D01*
X99002815Y-130804185D01*
X99099506Y-130883537D01*
X99209820Y-130942502D01*
X99329518Y-130978812D01*
X99454000Y-130991072D01*
X102054000Y-130991072D01*
X102178482Y-130978812D01*
X102298180Y-130942502D01*
X102408494Y-130883537D01*
X102505185Y-130804185D01*
X102584537Y-130707494D01*
X102643502Y-130597180D01*
X102679812Y-130477482D01*
X102692072Y-130353000D01*
X102692072Y-128862419D01*
X103819000Y-128862419D01*
X103819000Y-129243581D01*
X103893361Y-129617419D01*
X104039225Y-129969566D01*
X104250987Y-130286491D01*
X104520509Y-130556013D01*
X104837434Y-130767775D01*
X105189581Y-130913639D01*
X105563419Y-130988000D01*
X105944581Y-130988000D01*
X106318419Y-130913639D01*
X106670566Y-130767775D01*
X106987491Y-130556013D01*
X107257013Y-130286491D01*
X107468775Y-129969566D01*
X107614639Y-129617419D01*
X107689000Y-129243581D01*
X107689000Y-128862419D01*
X108819000Y-128862419D01*
X108819000Y-129243581D01*
X108893361Y-129617419D01*
X109039225Y-129969566D01*
X109250987Y-130286491D01*
X109520509Y-130556013D01*
X109837434Y-130767775D01*
X110189581Y-130913639D01*
X110563419Y-130988000D01*
X110944581Y-130988000D01*
X111318419Y-130913639D01*
X111670566Y-130767775D01*
X111987491Y-130556013D01*
X112141280Y-130402224D01*
X114584381Y-130402224D01*
X114716317Y-130697312D01*
X115057045Y-130868159D01*
X115424557Y-130969250D01*
X115804729Y-130996701D01*
X116182951Y-130949457D01*
X116544690Y-130829333D01*
X116791683Y-130697312D01*
X116923619Y-130402224D01*
X115754000Y-129232605D01*
X114584381Y-130402224D01*
X112141280Y-130402224D01*
X112257013Y-130286491D01*
X112468775Y-129969566D01*
X112614639Y-129617419D01*
X112689000Y-129243581D01*
X112689000Y-129103729D01*
X113810299Y-129103729D01*
X113857543Y-129481951D01*
X113977667Y-129843690D01*
X114109688Y-130090683D01*
X114404776Y-130222619D01*
X115574395Y-129053000D01*
X115933605Y-129053000D01*
X117103224Y-130222619D01*
X117398312Y-130090683D01*
X117569159Y-129749955D01*
X117670250Y-129382443D01*
X117697701Y-129002271D01*
X117650457Y-128624049D01*
X117530333Y-128262310D01*
X117398312Y-128015317D01*
X117103224Y-127883381D01*
X115933605Y-129053000D01*
X115574395Y-129053000D01*
X114404776Y-127883381D01*
X114109688Y-128015317D01*
X113938841Y-128356045D01*
X113837750Y-128723557D01*
X113810299Y-129103729D01*
X112689000Y-129103729D01*
X112689000Y-128862419D01*
X112614639Y-128488581D01*
X112468775Y-128136434D01*
X112257013Y-127819509D01*
X111987491Y-127549987D01*
X111670566Y-127338225D01*
X111318419Y-127192361D01*
X110944581Y-127118000D01*
X110563419Y-127118000D01*
X110189581Y-127192361D01*
X109837434Y-127338225D01*
X109520509Y-127549987D01*
X109250987Y-127819509D01*
X109039225Y-128136434D01*
X108893361Y-128488581D01*
X108819000Y-128862419D01*
X107689000Y-128862419D01*
X107614639Y-128488581D01*
X107468775Y-128136434D01*
X107257013Y-127819509D01*
X106987491Y-127549987D01*
X106670566Y-127338225D01*
X106318419Y-127192361D01*
X105944581Y-127118000D01*
X105563419Y-127118000D01*
X105189581Y-127192361D01*
X104837434Y-127338225D01*
X104520509Y-127549987D01*
X104250987Y-127819509D01*
X104039225Y-128136434D01*
X103893361Y-128488581D01*
X103819000Y-128862419D01*
X102692072Y-128862419D01*
X102692072Y-127753000D01*
X102679812Y-127628518D01*
X102643502Y-127508820D01*
X102584537Y-127398506D01*
X102505185Y-127301815D01*
X102408494Y-127222463D01*
X102298180Y-127163498D01*
X102178482Y-127127188D01*
X102054000Y-127114928D01*
X99454000Y-127114928D01*
X99329518Y-127127188D01*
X99209820Y-127163498D01*
X99099506Y-127222463D01*
X99002815Y-127301815D01*
X98923463Y-127398506D01*
X98864498Y-127508820D01*
X98828188Y-127628518D01*
X98815928Y-127753000D01*
X96167001Y-127753000D01*
X95570554Y-127354467D01*
X94872628Y-127065377D01*
X94131715Y-126918000D01*
X93376285Y-126918000D01*
X92635372Y-127065377D01*
X91937446Y-127354467D01*
X91309330Y-127774161D01*
X90775161Y-128308330D01*
X90372000Y-128911703D01*
X90372000Y-126849133D01*
X112217200Y-126849133D01*
X112217200Y-127049267D01*
X112256244Y-127245556D01*
X112332832Y-127430456D01*
X112444021Y-127596862D01*
X112585538Y-127738379D01*
X112751944Y-127849568D01*
X112936844Y-127926156D01*
X113133133Y-127965200D01*
X113333267Y-127965200D01*
X113529556Y-127926156D01*
X113714456Y-127849568D01*
X113880862Y-127738379D01*
X113915465Y-127703776D01*
X114584381Y-127703776D01*
X115754000Y-128873395D01*
X116923619Y-127703776D01*
X116900917Y-127653000D01*
X120215928Y-127653000D01*
X120215928Y-130253000D01*
X120228188Y-130377482D01*
X120264498Y-130497180D01*
X120323463Y-130607494D01*
X120402815Y-130704185D01*
X120499506Y-130783537D01*
X120609820Y-130842502D01*
X120729518Y-130878812D01*
X120854000Y-130891072D01*
X123454000Y-130891072D01*
X123578482Y-130878812D01*
X123698180Y-130842502D01*
X123808494Y-130783537D01*
X123905185Y-130704185D01*
X123984537Y-130607494D01*
X124043502Y-130497180D01*
X124079812Y-130377482D01*
X124087224Y-130302224D01*
X125984381Y-130302224D01*
X126116317Y-130597312D01*
X126457045Y-130768159D01*
X126824557Y-130869250D01*
X127204729Y-130896701D01*
X127582951Y-130849457D01*
X127944690Y-130729333D01*
X128191683Y-130597312D01*
X128323619Y-130302224D01*
X127154000Y-129132605D01*
X125984381Y-130302224D01*
X124087224Y-130302224D01*
X124092072Y-130253000D01*
X124092072Y-129003729D01*
X125210299Y-129003729D01*
X125257543Y-129381951D01*
X125377667Y-129743690D01*
X125509688Y-129990683D01*
X125804776Y-130122619D01*
X126974395Y-128953000D01*
X127333605Y-128953000D01*
X128503224Y-130122619D01*
X128798312Y-129990683D01*
X128969159Y-129649955D01*
X129070250Y-129282443D01*
X129097701Y-128902271D01*
X129080232Y-128762419D01*
X130219000Y-128762419D01*
X130219000Y-129143581D01*
X130293361Y-129517419D01*
X130439225Y-129869566D01*
X130650987Y-130186491D01*
X130920509Y-130456013D01*
X131237434Y-130667775D01*
X131589581Y-130813639D01*
X131963419Y-130888000D01*
X132344581Y-130888000D01*
X132718419Y-130813639D01*
X133070566Y-130667775D01*
X133387491Y-130456013D01*
X133657013Y-130186491D01*
X133868775Y-129869566D01*
X134014639Y-129517419D01*
X134089000Y-129143581D01*
X134089000Y-128762419D01*
X134014639Y-128388581D01*
X133868775Y-128036434D01*
X133657013Y-127719509D01*
X133387491Y-127449987D01*
X133070566Y-127238225D01*
X132718419Y-127092361D01*
X132344581Y-127018000D01*
X131963419Y-127018000D01*
X131589581Y-127092361D01*
X131237434Y-127238225D01*
X130920509Y-127449987D01*
X130650987Y-127719509D01*
X130439225Y-128036434D01*
X130293361Y-128388581D01*
X130219000Y-128762419D01*
X129080232Y-128762419D01*
X129050457Y-128524049D01*
X128930333Y-128162310D01*
X128798312Y-127915317D01*
X128503224Y-127783381D01*
X127333605Y-128953000D01*
X126974395Y-128953000D01*
X125804776Y-127783381D01*
X125509688Y-127915317D01*
X125338841Y-128256045D01*
X125237750Y-128623557D01*
X125210299Y-129003729D01*
X124092072Y-129003729D01*
X124092072Y-127653000D01*
X124087225Y-127603776D01*
X125984381Y-127603776D01*
X127154000Y-128773395D01*
X128323619Y-127603776D01*
X128191683Y-127308688D01*
X127850955Y-127137841D01*
X127483443Y-127036750D01*
X127103271Y-127009299D01*
X126725049Y-127056543D01*
X126363310Y-127176667D01*
X126116317Y-127308688D01*
X125984381Y-127603776D01*
X124087225Y-127603776D01*
X124079812Y-127528518D01*
X124043502Y-127408820D01*
X123984537Y-127298506D01*
X123905185Y-127201815D01*
X123808494Y-127122463D01*
X123698180Y-127063498D01*
X123578482Y-127027188D01*
X123454000Y-127014928D01*
X120854000Y-127014928D01*
X120729518Y-127027188D01*
X120609820Y-127063498D01*
X120499506Y-127122463D01*
X120402815Y-127201815D01*
X120323463Y-127298506D01*
X120264498Y-127408820D01*
X120228188Y-127528518D01*
X120215928Y-127653000D01*
X116900917Y-127653000D01*
X116791683Y-127408688D01*
X116450955Y-127237841D01*
X116083443Y-127136750D01*
X115703271Y-127109299D01*
X115325049Y-127156543D01*
X114963310Y-127276667D01*
X114716317Y-127408688D01*
X114584381Y-127703776D01*
X113915465Y-127703776D01*
X114022379Y-127596862D01*
X114133568Y-127430456D01*
X114210156Y-127245556D01*
X114249200Y-127049267D01*
X114249200Y-126849133D01*
X114210156Y-126652844D01*
X114133568Y-126467944D01*
X114022379Y-126301538D01*
X113880862Y-126160021D01*
X113714456Y-126048832D01*
X113529556Y-125972244D01*
X113333267Y-125933200D01*
X113133133Y-125933200D01*
X112936844Y-125972244D01*
X112751944Y-126048832D01*
X112585538Y-126160021D01*
X112444021Y-126301538D01*
X112332832Y-126467944D01*
X112256244Y-126652844D01*
X112217200Y-126849133D01*
X90372000Y-126849133D01*
X90372000Y-125228000D01*
X137065928Y-125228000D01*
X137065928Y-126678000D01*
X137082992Y-126851254D01*
X137133528Y-127017850D01*
X137215595Y-127171386D01*
X137326038Y-127305962D01*
X137460614Y-127416405D01*
X137614150Y-127498472D01*
X137780746Y-127549008D01*
X137954000Y-127566072D01*
X139154000Y-127566072D01*
X139327254Y-127549008D01*
X139493850Y-127498472D01*
X139647386Y-127416405D01*
X139781962Y-127305962D01*
X139892405Y-127171386D01*
X139946777Y-127069663D01*
X139998866Y-127133134D01*
X140224987Y-127318706D01*
X140482967Y-127456599D01*
X140762890Y-127541513D01*
X141054000Y-127570185D01*
X141345111Y-127541513D01*
X141625034Y-127456599D01*
X141883014Y-127318706D01*
X142109134Y-127133134D01*
X142294706Y-126907014D01*
X142308462Y-126881278D01*
X142464951Y-127087429D01*
X142682807Y-127280496D01*
X142934142Y-127427352D01*
X143197110Y-127519476D01*
X143427000Y-127398155D01*
X143427000Y-126080000D01*
X143407000Y-126080000D01*
X143407000Y-125826000D01*
X143427000Y-125826000D01*
X143427000Y-124507845D01*
X143681000Y-124507845D01*
X143681000Y-125826000D01*
X143701000Y-125826000D01*
X143701000Y-126080000D01*
X143681000Y-126080000D01*
X143681000Y-127398155D01*
X143910890Y-127519476D01*
X144173858Y-127427352D01*
X144425193Y-127280496D01*
X144643049Y-127087429D01*
X144799538Y-126881278D01*
X144813294Y-126907014D01*
X144998866Y-127133134D01*
X145224987Y-127318706D01*
X145482967Y-127456599D01*
X145762890Y-127541513D01*
X146054000Y-127570185D01*
X146345111Y-127541513D01*
X146625034Y-127456599D01*
X146883014Y-127318706D01*
X147109134Y-127133134D01*
X147294706Y-126907014D01*
X147304000Y-126889626D01*
X147313294Y-126907014D01*
X147498866Y-127133134D01*
X147724987Y-127318706D01*
X147982967Y-127456599D01*
X148262890Y-127541513D01*
X148554000Y-127570185D01*
X148845111Y-127541513D01*
X149125034Y-127456599D01*
X149383014Y-127318706D01*
X149609134Y-127133134D01*
X149794706Y-126907014D01*
X149932599Y-126649033D01*
X150017513Y-126369110D01*
X150039000Y-126150949D01*
X150039000Y-125755050D01*
X150017513Y-125536889D01*
X149932599Y-125256966D01*
X149794706Y-124998986D01*
X149609134Y-124772866D01*
X149383013Y-124587294D01*
X149125033Y-124449401D01*
X148845110Y-124364487D01*
X148554000Y-124335815D01*
X148262889Y-124364487D01*
X147982966Y-124449401D01*
X147724986Y-124587294D01*
X147498866Y-124772866D01*
X147313294Y-124998987D01*
X147304000Y-125016374D01*
X147294706Y-124998986D01*
X147109134Y-124772866D01*
X146883013Y-124587294D01*
X146625033Y-124449401D01*
X146345110Y-124364487D01*
X146054000Y-124335815D01*
X145762889Y-124364487D01*
X145482966Y-124449401D01*
X145224986Y-124587294D01*
X144998866Y-124772866D01*
X144813294Y-124998987D01*
X144799538Y-125024722D01*
X144643049Y-124818571D01*
X144425193Y-124625504D01*
X144173858Y-124478648D01*
X143910890Y-124386524D01*
X143681000Y-124507845D01*
X143427000Y-124507845D01*
X143197110Y-124386524D01*
X142934142Y-124478648D01*
X142682807Y-124625504D01*
X142464951Y-124818571D01*
X142308462Y-125024722D01*
X142294706Y-124998986D01*
X142109134Y-124772866D01*
X141883013Y-124587294D01*
X141625033Y-124449401D01*
X141345110Y-124364487D01*
X141054000Y-124335815D01*
X140762889Y-124364487D01*
X140482966Y-124449401D01*
X140224986Y-124587294D01*
X139998866Y-124772866D01*
X139946777Y-124836337D01*
X139892405Y-124734614D01*
X139781962Y-124600038D01*
X139647386Y-124489595D01*
X139493850Y-124407528D01*
X139327254Y-124356992D01*
X139154000Y-124339928D01*
X137954000Y-124339928D01*
X137780746Y-124356992D01*
X137614150Y-124407528D01*
X137460614Y-124489595D01*
X137326038Y-124600038D01*
X137215595Y-124734614D01*
X137133528Y-124888150D01*
X137082992Y-125054746D01*
X137065928Y-125228000D01*
X90372000Y-125228000D01*
X90372000Y-121102224D01*
X93684381Y-121102224D01*
X93816317Y-121397312D01*
X94157045Y-121568159D01*
X94524557Y-121669250D01*
X94904729Y-121696701D01*
X95282951Y-121649457D01*
X95644690Y-121529333D01*
X95891683Y-121397312D01*
X96023619Y-121102224D01*
X94854000Y-119932605D01*
X93684381Y-121102224D01*
X90372000Y-121102224D01*
X90372000Y-119803729D01*
X92910299Y-119803729D01*
X92957543Y-120181951D01*
X93077667Y-120543690D01*
X93209688Y-120790683D01*
X93504776Y-120922619D01*
X94674395Y-119753000D01*
X95033605Y-119753000D01*
X96203224Y-120922619D01*
X96498312Y-120790683D01*
X96669159Y-120449955D01*
X96700887Y-120334608D01*
X116840000Y-120334608D01*
X116840000Y-120609792D01*
X116893686Y-120879690D01*
X116998995Y-121133927D01*
X117151880Y-121362735D01*
X117346465Y-121557320D01*
X117575273Y-121710205D01*
X117829510Y-121815514D01*
X118099408Y-121869200D01*
X118374592Y-121869200D01*
X118644490Y-121815514D01*
X118898727Y-121710205D01*
X119127535Y-121557320D01*
X119322120Y-121362735D01*
X119475005Y-121133927D01*
X119580314Y-120879690D01*
X119634000Y-120609792D01*
X119634000Y-120334608D01*
X119580314Y-120064710D01*
X119475005Y-119810473D01*
X119322120Y-119581665D01*
X119127535Y-119387080D01*
X118898727Y-119234195D01*
X118644490Y-119128886D01*
X118374592Y-119075200D01*
X118099408Y-119075200D01*
X117829510Y-119128886D01*
X117575273Y-119234195D01*
X117346465Y-119387080D01*
X117151880Y-119581665D01*
X116998995Y-119810473D01*
X116893686Y-120064710D01*
X116840000Y-120334608D01*
X96700887Y-120334608D01*
X96770250Y-120082443D01*
X96797701Y-119702271D01*
X96750457Y-119324049D01*
X96630333Y-118962310D01*
X96590364Y-118887533D01*
X128262000Y-118887533D01*
X128262000Y-119087667D01*
X128301044Y-119283956D01*
X128377632Y-119468856D01*
X128488821Y-119635262D01*
X128630338Y-119776779D01*
X128796744Y-119887968D01*
X128981644Y-119964556D01*
X129177933Y-120003600D01*
X129378067Y-120003600D01*
X129574356Y-119964556D01*
X129759256Y-119887968D01*
X129925662Y-119776779D01*
X130067179Y-119635262D01*
X130091586Y-119598733D01*
X132707000Y-119598733D01*
X132707000Y-119798867D01*
X132746044Y-119995156D01*
X132822632Y-120180056D01*
X132933821Y-120346462D01*
X133075338Y-120487979D01*
X133241744Y-120599168D01*
X133426644Y-120675756D01*
X133622933Y-120714800D01*
X133823067Y-120714800D01*
X134019356Y-120675756D01*
X134204256Y-120599168D01*
X134283344Y-120546323D01*
X134337412Y-120517423D01*
X134449574Y-120425374D01*
X134541623Y-120313212D01*
X134570523Y-120259144D01*
X134623368Y-120180056D01*
X134699956Y-119995156D01*
X134739000Y-119798867D01*
X134739000Y-119598733D01*
X134699956Y-119402444D01*
X134623368Y-119217544D01*
X134512179Y-119051138D01*
X134370662Y-118909621D01*
X134204256Y-118798432D01*
X134019356Y-118721844D01*
X133823067Y-118682800D01*
X133622933Y-118682800D01*
X133426644Y-118721844D01*
X133241744Y-118798432D01*
X133075338Y-118909621D01*
X132933821Y-119051138D01*
X132822632Y-119217544D01*
X132746044Y-119402444D01*
X132707000Y-119598733D01*
X130091586Y-119598733D01*
X130178368Y-119468856D01*
X130254956Y-119283956D01*
X130294000Y-119087667D01*
X130294000Y-118887533D01*
X130254956Y-118691244D01*
X130178368Y-118506344D01*
X130067179Y-118339938D01*
X129987429Y-118260188D01*
X136483945Y-118260188D01*
X136483945Y-118460322D01*
X136522989Y-118656611D01*
X136599577Y-118841511D01*
X136710766Y-119007917D01*
X136852283Y-119149434D01*
X137018689Y-119260623D01*
X137203589Y-119337211D01*
X137399878Y-119376255D01*
X137600012Y-119376255D01*
X137796301Y-119337211D01*
X137981201Y-119260623D01*
X138147607Y-119149434D01*
X138289124Y-119007917D01*
X138400313Y-118841511D01*
X138476901Y-118656611D01*
X138515945Y-118460322D01*
X138515945Y-118260188D01*
X138476901Y-118063899D01*
X138400313Y-117878999D01*
X138289124Y-117712593D01*
X138147607Y-117571076D01*
X137981201Y-117459887D01*
X137796301Y-117383299D01*
X137600012Y-117344255D01*
X137399878Y-117344255D01*
X137203589Y-117383299D01*
X137018689Y-117459887D01*
X136852283Y-117571076D01*
X136710766Y-117712593D01*
X136599577Y-117878999D01*
X136522989Y-118063899D01*
X136483945Y-118260188D01*
X129987429Y-118260188D01*
X129925662Y-118198421D01*
X129759256Y-118087232D01*
X129574356Y-118010644D01*
X129378067Y-117971600D01*
X129177933Y-117971600D01*
X128981644Y-118010644D01*
X128796744Y-118087232D01*
X128630338Y-118198421D01*
X128488821Y-118339938D01*
X128377632Y-118506344D01*
X128301044Y-118691244D01*
X128262000Y-118887533D01*
X96590364Y-118887533D01*
X96498312Y-118715317D01*
X96203224Y-118583381D01*
X95033605Y-119753000D01*
X94674395Y-119753000D01*
X93504776Y-118583381D01*
X93209688Y-118715317D01*
X93038841Y-119056045D01*
X92937750Y-119423557D01*
X92910299Y-119803729D01*
X90372000Y-119803729D01*
X90372000Y-118403776D01*
X93684381Y-118403776D01*
X94854000Y-119573395D01*
X96023619Y-118403776D01*
X95891683Y-118108688D01*
X95550955Y-117937841D01*
X95183443Y-117836750D01*
X94803271Y-117809299D01*
X94425049Y-117856543D01*
X94063310Y-117976667D01*
X93816317Y-118108688D01*
X93684381Y-118403776D01*
X90372000Y-118403776D01*
X90372000Y-114562419D01*
X92919000Y-114562419D01*
X92919000Y-114943581D01*
X92993361Y-115317419D01*
X93139225Y-115669566D01*
X93350987Y-115986491D01*
X93620509Y-116256013D01*
X93937434Y-116467775D01*
X94289581Y-116613639D01*
X94663419Y-116688000D01*
X95044581Y-116688000D01*
X95418419Y-116613639D01*
X95770566Y-116467775D01*
X96087491Y-116256013D01*
X96357013Y-115986491D01*
X96568775Y-115669566D01*
X96714639Y-115317419D01*
X96747198Y-115153733D01*
X123156600Y-115153733D01*
X123156600Y-115353867D01*
X123195644Y-115550156D01*
X123272232Y-115735056D01*
X123383421Y-115901462D01*
X123524938Y-116042979D01*
X123691344Y-116154168D01*
X123876244Y-116230756D01*
X124072533Y-116269800D01*
X124272667Y-116269800D01*
X124468956Y-116230756D01*
X124588756Y-116181133D01*
X137591800Y-116181133D01*
X137591800Y-116381267D01*
X137630844Y-116577556D01*
X137707432Y-116762456D01*
X137818621Y-116928862D01*
X137960138Y-117070379D01*
X138126544Y-117181568D01*
X138311444Y-117258156D01*
X138507733Y-117297200D01*
X138707867Y-117297200D01*
X138904156Y-117258156D01*
X139089056Y-117181568D01*
X139255462Y-117070379D01*
X139396979Y-116928862D01*
X139508168Y-116762456D01*
X139584756Y-116577556D01*
X139594955Y-116526277D01*
X151527456Y-116526277D01*
X151527456Y-116726411D01*
X151566500Y-116922700D01*
X151643088Y-117107600D01*
X151754277Y-117274006D01*
X151895794Y-117415523D01*
X152062200Y-117526712D01*
X152247100Y-117603300D01*
X152443389Y-117642344D01*
X152643523Y-117642344D01*
X152839812Y-117603300D01*
X152867901Y-117591665D01*
X153899000Y-117591665D01*
X153899000Y-117874335D01*
X153954147Y-118151574D01*
X154062320Y-118412727D01*
X154219363Y-118647759D01*
X154419241Y-118847637D01*
X154651759Y-119003000D01*
X154419241Y-119158363D01*
X154219363Y-119358241D01*
X154062320Y-119593273D01*
X153954147Y-119854426D01*
X153899000Y-120131665D01*
X153899000Y-120414335D01*
X153954147Y-120691574D01*
X154062320Y-120952727D01*
X154219363Y-121187759D01*
X154419241Y-121387637D01*
X154651759Y-121543000D01*
X154419241Y-121698363D01*
X154219363Y-121898241D01*
X154062320Y-122133273D01*
X153954147Y-122394426D01*
X153899000Y-122671665D01*
X153899000Y-122954335D01*
X153954147Y-123231574D01*
X154062320Y-123492727D01*
X154219363Y-123727759D01*
X154419241Y-123927637D01*
X154651759Y-124083000D01*
X154419241Y-124238363D01*
X154219363Y-124438241D01*
X154062320Y-124673273D01*
X153954147Y-124934426D01*
X153899000Y-125211665D01*
X153899000Y-125494335D01*
X153954147Y-125771574D01*
X154062320Y-126032727D01*
X154219363Y-126267759D01*
X154419241Y-126467637D01*
X154654273Y-126624680D01*
X154915426Y-126732853D01*
X155192665Y-126788000D01*
X155475335Y-126788000D01*
X155752574Y-126732853D01*
X156013727Y-126624680D01*
X156248759Y-126467637D01*
X156448637Y-126267759D01*
X156525316Y-126153000D01*
X161515928Y-126153000D01*
X161528188Y-126277482D01*
X161564498Y-126397180D01*
X161623463Y-126507494D01*
X161702815Y-126604185D01*
X161799506Y-126683537D01*
X161909820Y-126742502D01*
X162029518Y-126778812D01*
X162154000Y-126791072D01*
X162668250Y-126788000D01*
X162827000Y-126629250D01*
X162827000Y-125480000D01*
X161677750Y-125480000D01*
X161519000Y-125638750D01*
X161515928Y-126153000D01*
X156525316Y-126153000D01*
X156605680Y-126032727D01*
X156713853Y-125771574D01*
X156769000Y-125494335D01*
X156769000Y-125211665D01*
X156713853Y-124934426D01*
X156605680Y-124673273D01*
X156448637Y-124438241D01*
X156248759Y-124238363D01*
X156016241Y-124083000D01*
X156248759Y-123927637D01*
X156448637Y-123727759D01*
X156605680Y-123492727D01*
X156713853Y-123231574D01*
X156769000Y-122954335D01*
X156769000Y-122883512D01*
X161513783Y-122883512D01*
X161555213Y-123163130D01*
X161650397Y-123429292D01*
X161717329Y-123554514D01*
X161961298Y-123626097D01*
X162774395Y-122813000D01*
X161961298Y-121999903D01*
X161717329Y-122071486D01*
X161596429Y-122326996D01*
X161527700Y-122601184D01*
X161513783Y-122883512D01*
X156769000Y-122883512D01*
X156769000Y-122671665D01*
X156713853Y-122394426D01*
X156605680Y-122133273D01*
X156448637Y-121898241D01*
X156248759Y-121698363D01*
X156016241Y-121543000D01*
X156248759Y-121387637D01*
X156448637Y-121187759D01*
X156605680Y-120952727D01*
X156713853Y-120691574D01*
X156769000Y-120414335D01*
X156769000Y-120343512D01*
X161513783Y-120343512D01*
X161555213Y-120623130D01*
X161650397Y-120889292D01*
X161717329Y-121014514D01*
X161961298Y-121086097D01*
X162774395Y-120273000D01*
X161961298Y-119459903D01*
X161717329Y-119531486D01*
X161596429Y-119786996D01*
X161527700Y-120061184D01*
X161513783Y-120343512D01*
X156769000Y-120343512D01*
X156769000Y-120131665D01*
X156713853Y-119854426D01*
X156605680Y-119593273D01*
X156448637Y-119358241D01*
X156248759Y-119158363D01*
X156016241Y-119003000D01*
X156248759Y-118847637D01*
X156448637Y-118647759D01*
X156605680Y-118412727D01*
X156713853Y-118151574D01*
X156769000Y-117874335D01*
X156769000Y-117803512D01*
X161513783Y-117803512D01*
X161555213Y-118083130D01*
X161650397Y-118349292D01*
X161717329Y-118474514D01*
X161961298Y-118546097D01*
X162774395Y-117733000D01*
X161961298Y-116919903D01*
X161717329Y-116991486D01*
X161596429Y-117246996D01*
X161527700Y-117521184D01*
X161513783Y-117803512D01*
X156769000Y-117803512D01*
X156769000Y-117591665D01*
X156713853Y-117314426D01*
X156605680Y-117053273D01*
X156448637Y-116818241D01*
X156248759Y-116618363D01*
X156013727Y-116461320D01*
X155752574Y-116353147D01*
X155475335Y-116298000D01*
X155192665Y-116298000D01*
X154915426Y-116353147D01*
X154654273Y-116461320D01*
X154419241Y-116618363D01*
X154219363Y-116818241D01*
X154062320Y-117053273D01*
X153954147Y-117314426D01*
X153899000Y-117591665D01*
X152867901Y-117591665D01*
X153024712Y-117526712D01*
X153191118Y-117415523D01*
X153332635Y-117274006D01*
X153443824Y-117107600D01*
X153520412Y-116922700D01*
X153559456Y-116726411D01*
X153559456Y-116526277D01*
X153520412Y-116329988D01*
X153443824Y-116145088D01*
X153332635Y-115978682D01*
X153191118Y-115837165D01*
X153024712Y-115725976D01*
X152839812Y-115649388D01*
X152643523Y-115610344D01*
X152443389Y-115610344D01*
X152247100Y-115649388D01*
X152062200Y-115725976D01*
X151895794Y-115837165D01*
X151754277Y-115978682D01*
X151643088Y-116145088D01*
X151566500Y-116329988D01*
X151527456Y-116526277D01*
X139594955Y-116526277D01*
X139623800Y-116381267D01*
X139623800Y-116181133D01*
X139584756Y-115984844D01*
X139508168Y-115799944D01*
X139396979Y-115633538D01*
X139255462Y-115492021D01*
X139089056Y-115380832D01*
X138904156Y-115304244D01*
X138707867Y-115265200D01*
X138507733Y-115265200D01*
X138311444Y-115304244D01*
X138126544Y-115380832D01*
X137960138Y-115492021D01*
X137818621Y-115633538D01*
X137707432Y-115799944D01*
X137630844Y-115984844D01*
X137591800Y-116181133D01*
X124588756Y-116181133D01*
X124653856Y-116154168D01*
X124820262Y-116042979D01*
X124961779Y-115901462D01*
X125072968Y-115735056D01*
X125149556Y-115550156D01*
X125188600Y-115353867D01*
X125188600Y-115153733D01*
X125153234Y-114975933D01*
X128236600Y-114975933D01*
X128236600Y-115176067D01*
X128275644Y-115372356D01*
X128352232Y-115557256D01*
X128463421Y-115723662D01*
X128604938Y-115865179D01*
X128771344Y-115976368D01*
X128956244Y-116052956D01*
X129152533Y-116092000D01*
X129352667Y-116092000D01*
X129548956Y-116052956D01*
X129733856Y-115976368D01*
X129900262Y-115865179D01*
X130041779Y-115723662D01*
X130152968Y-115557256D01*
X130229556Y-115372356D01*
X130268600Y-115176067D01*
X130268600Y-114975933D01*
X130229556Y-114779644D01*
X130152968Y-114594744D01*
X130041779Y-114428338D01*
X129900262Y-114286821D01*
X129733856Y-114175632D01*
X129548956Y-114099044D01*
X129352667Y-114060000D01*
X129152533Y-114060000D01*
X128956244Y-114099044D01*
X128771344Y-114175632D01*
X128604938Y-114286821D01*
X128463421Y-114428338D01*
X128352232Y-114594744D01*
X128275644Y-114779644D01*
X128236600Y-114975933D01*
X125153234Y-114975933D01*
X125149556Y-114957444D01*
X125072968Y-114772544D01*
X124961779Y-114606138D01*
X124820262Y-114464621D01*
X124653856Y-114353432D01*
X124468956Y-114276844D01*
X124272667Y-114237800D01*
X124072533Y-114237800D01*
X123876244Y-114276844D01*
X123691344Y-114353432D01*
X123524938Y-114464621D01*
X123383421Y-114606138D01*
X123272232Y-114772544D01*
X123195644Y-114957444D01*
X123156600Y-115153733D01*
X96747198Y-115153733D01*
X96789000Y-114943581D01*
X96789000Y-114562419D01*
X96714639Y-114188581D01*
X96568775Y-113836434D01*
X96357013Y-113519509D01*
X96087491Y-113249987D01*
X95770566Y-113038225D01*
X95418419Y-112892361D01*
X95044581Y-112818000D01*
X94663419Y-112818000D01*
X94289581Y-112892361D01*
X93937434Y-113038225D01*
X93620509Y-113249987D01*
X93350987Y-113519509D01*
X93139225Y-113836434D01*
X92993361Y-114188581D01*
X92919000Y-114562419D01*
X90372000Y-114562419D01*
X90372000Y-109562419D01*
X92919000Y-109562419D01*
X92919000Y-109943581D01*
X92993361Y-110317419D01*
X93139225Y-110669566D01*
X93350987Y-110986491D01*
X93620509Y-111256013D01*
X93937434Y-111467775D01*
X94289581Y-111613639D01*
X94663419Y-111688000D01*
X95044581Y-111688000D01*
X95418419Y-111613639D01*
X95770566Y-111467775D01*
X95863119Y-111405933D01*
X103022400Y-111405933D01*
X103022400Y-111606067D01*
X103061444Y-111802356D01*
X103138032Y-111987256D01*
X103249221Y-112153662D01*
X103390738Y-112295179D01*
X103557144Y-112406368D01*
X103742044Y-112482956D01*
X103938333Y-112522000D01*
X104138467Y-112522000D01*
X104334756Y-112482956D01*
X104519656Y-112406368D01*
X104686062Y-112295179D01*
X104827579Y-112153662D01*
X104938768Y-111987256D01*
X105015356Y-111802356D01*
X105020278Y-111777608D01*
X116560600Y-111777608D01*
X116560600Y-112052792D01*
X116614286Y-112322690D01*
X116719595Y-112576927D01*
X116872480Y-112805735D01*
X117067065Y-113000320D01*
X117295873Y-113153205D01*
X117550110Y-113258514D01*
X117820008Y-113312200D01*
X118095192Y-113312200D01*
X118365090Y-113258514D01*
X118619327Y-113153205D01*
X118848135Y-113000320D01*
X119042720Y-112805735D01*
X119195605Y-112576927D01*
X119300914Y-112322690D01*
X119328912Y-112181933D01*
X137583800Y-112181933D01*
X137583800Y-112382067D01*
X137622844Y-112578356D01*
X137699432Y-112763256D01*
X137810621Y-112929662D01*
X137952138Y-113071179D01*
X138118544Y-113182368D01*
X138303444Y-113258956D01*
X138499733Y-113298000D01*
X138699867Y-113298000D01*
X138896156Y-113258956D01*
X139081056Y-113182368D01*
X139247462Y-113071179D01*
X139388979Y-112929662D01*
X139500168Y-112763256D01*
X139576756Y-112578356D01*
X139615800Y-112382067D01*
X139615800Y-112181933D01*
X139576756Y-111985644D01*
X139500168Y-111800744D01*
X139466351Y-111750133D01*
X148734400Y-111750133D01*
X148734400Y-111950267D01*
X148773444Y-112146556D01*
X148850032Y-112331456D01*
X148961221Y-112497862D01*
X149102738Y-112639379D01*
X149269144Y-112750568D01*
X149454044Y-112827156D01*
X149650333Y-112866200D01*
X149850467Y-112866200D01*
X150046756Y-112827156D01*
X150231656Y-112750568D01*
X150398062Y-112639379D01*
X150539579Y-112497862D01*
X150650768Y-112331456D01*
X150727356Y-112146556D01*
X150766400Y-111950267D01*
X150766400Y-111750133D01*
X150727356Y-111553844D01*
X150650768Y-111368944D01*
X150539579Y-111202538D01*
X150426774Y-111089733D01*
X154170000Y-111089733D01*
X154170000Y-111289867D01*
X154209044Y-111486156D01*
X154285632Y-111671056D01*
X154396821Y-111837462D01*
X154538338Y-111978979D01*
X154704744Y-112090168D01*
X154889644Y-112166756D01*
X155085933Y-112205800D01*
X155286067Y-112205800D01*
X155482356Y-112166756D01*
X155667256Y-112090168D01*
X155833662Y-111978979D01*
X155975179Y-111837462D01*
X156086368Y-111671056D01*
X156162956Y-111486156D01*
X156202000Y-111289867D01*
X156202000Y-111089733D01*
X156162956Y-110893444D01*
X156086368Y-110708544D01*
X155975179Y-110542138D01*
X155833662Y-110400621D01*
X155667256Y-110289432D01*
X155482356Y-110212844D01*
X155286067Y-110173800D01*
X155085933Y-110173800D01*
X154889644Y-110212844D01*
X154704744Y-110289432D01*
X154538338Y-110400621D01*
X154396821Y-110542138D01*
X154285632Y-110708544D01*
X154209044Y-110893444D01*
X154170000Y-111089733D01*
X150426774Y-111089733D01*
X150398062Y-111061021D01*
X150231656Y-110949832D01*
X150046756Y-110873244D01*
X149850467Y-110834200D01*
X149650333Y-110834200D01*
X149454044Y-110873244D01*
X149269144Y-110949832D01*
X149102738Y-111061021D01*
X148961221Y-111202538D01*
X148850032Y-111368944D01*
X148773444Y-111553844D01*
X148734400Y-111750133D01*
X139466351Y-111750133D01*
X139388979Y-111634338D01*
X139247462Y-111492821D01*
X139081056Y-111381632D01*
X138896156Y-111305044D01*
X138699867Y-111266000D01*
X138499733Y-111266000D01*
X138303444Y-111305044D01*
X138118544Y-111381632D01*
X137952138Y-111492821D01*
X137810621Y-111634338D01*
X137699432Y-111800744D01*
X137622844Y-111985644D01*
X137583800Y-112181933D01*
X119328912Y-112181933D01*
X119354600Y-112052792D01*
X119354600Y-111777608D01*
X119300914Y-111507710D01*
X119195605Y-111253473D01*
X119042720Y-111024665D01*
X118848135Y-110830080D01*
X118619327Y-110677195D01*
X118365090Y-110571886D01*
X118095192Y-110518200D01*
X117820008Y-110518200D01*
X117550110Y-110571886D01*
X117295873Y-110677195D01*
X117067065Y-110830080D01*
X116872480Y-111024665D01*
X116719595Y-111253473D01*
X116614286Y-111507710D01*
X116560600Y-111777608D01*
X105020278Y-111777608D01*
X105054400Y-111606067D01*
X105054400Y-111405933D01*
X105015356Y-111209644D01*
X104938768Y-111024744D01*
X104827579Y-110858338D01*
X104686062Y-110716821D01*
X104519656Y-110605632D01*
X104334756Y-110529044D01*
X104138467Y-110490000D01*
X103938333Y-110490000D01*
X103742044Y-110529044D01*
X103557144Y-110605632D01*
X103390738Y-110716821D01*
X103249221Y-110858338D01*
X103138032Y-111024744D01*
X103061444Y-111209644D01*
X103022400Y-111405933D01*
X95863119Y-111405933D01*
X96087491Y-111256013D01*
X96357013Y-110986491D01*
X96568775Y-110669566D01*
X96714639Y-110317419D01*
X96789000Y-109943581D01*
X96789000Y-109591133D01*
X118025800Y-109591133D01*
X118025800Y-109791267D01*
X118064844Y-109987556D01*
X118141432Y-110172456D01*
X118252621Y-110338862D01*
X118394138Y-110480379D01*
X118560544Y-110591568D01*
X118745444Y-110668156D01*
X118941733Y-110707200D01*
X119141867Y-110707200D01*
X119338156Y-110668156D01*
X119523056Y-110591568D01*
X119689462Y-110480379D01*
X119830979Y-110338862D01*
X119942168Y-110172456D01*
X120018756Y-109987556D01*
X120057800Y-109791267D01*
X120057800Y-109591133D01*
X120018756Y-109394844D01*
X119942168Y-109209944D01*
X119830979Y-109043538D01*
X119689462Y-108902021D01*
X119523056Y-108790832D01*
X119338156Y-108714244D01*
X119141867Y-108675200D01*
X118941733Y-108675200D01*
X118745444Y-108714244D01*
X118560544Y-108790832D01*
X118394138Y-108902021D01*
X118252621Y-109043538D01*
X118141432Y-109209944D01*
X118064844Y-109394844D01*
X118025800Y-109591133D01*
X96789000Y-109591133D01*
X96789000Y-109562419D01*
X96714639Y-109188581D01*
X96568775Y-108836434D01*
X96357013Y-108519509D01*
X96158637Y-108321133D01*
X133418200Y-108321133D01*
X133418200Y-108521267D01*
X133457244Y-108717556D01*
X133533832Y-108902456D01*
X133645021Y-109068862D01*
X133786538Y-109210379D01*
X133952944Y-109321568D01*
X134137844Y-109398156D01*
X134334133Y-109437200D01*
X134534267Y-109437200D01*
X134730556Y-109398156D01*
X134816560Y-109362532D01*
X142773400Y-109362532D01*
X142773400Y-109562666D01*
X142812444Y-109758955D01*
X142889032Y-109943855D01*
X143000221Y-110110261D01*
X143141738Y-110251778D01*
X143308144Y-110362967D01*
X143493044Y-110439555D01*
X143689333Y-110478599D01*
X143889467Y-110478599D01*
X144085756Y-110439555D01*
X144270656Y-110362967D01*
X144437062Y-110251778D01*
X144578579Y-110110261D01*
X144689768Y-109943855D01*
X144766356Y-109758955D01*
X144805400Y-109562666D01*
X144805400Y-109362532D01*
X144766356Y-109166243D01*
X144689768Y-108981343D01*
X144578579Y-108814937D01*
X144437062Y-108673420D01*
X144270656Y-108562231D01*
X144085756Y-108485643D01*
X143889467Y-108446599D01*
X143689333Y-108446599D01*
X143493044Y-108485643D01*
X143308144Y-108562231D01*
X143141738Y-108673420D01*
X143000221Y-108814937D01*
X142889032Y-108981343D01*
X142812444Y-109166243D01*
X142773400Y-109362532D01*
X134816560Y-109362532D01*
X134915456Y-109321568D01*
X135081862Y-109210379D01*
X135223379Y-109068862D01*
X135334568Y-108902456D01*
X135411156Y-108717556D01*
X135450200Y-108521267D01*
X135450200Y-108321133D01*
X135411156Y-108124844D01*
X135334568Y-107939944D01*
X135223379Y-107773538D01*
X135081862Y-107632021D01*
X134915456Y-107520832D01*
X134730556Y-107444244D01*
X134534267Y-107405200D01*
X134334133Y-107405200D01*
X134137844Y-107444244D01*
X133952944Y-107520832D01*
X133786538Y-107632021D01*
X133645021Y-107773538D01*
X133533832Y-107939944D01*
X133457244Y-108124844D01*
X133418200Y-108321133D01*
X96158637Y-108321133D01*
X96087491Y-108249987D01*
X95770566Y-108038225D01*
X95418419Y-107892361D01*
X95044581Y-107818000D01*
X94663419Y-107818000D01*
X94289581Y-107892361D01*
X93937434Y-108038225D01*
X93620509Y-108249987D01*
X93350987Y-108519509D01*
X93139225Y-108836434D01*
X92993361Y-109188581D01*
X92919000Y-109562419D01*
X90372000Y-109562419D01*
X90372000Y-103453000D01*
X92915928Y-103453000D01*
X92915928Y-106053000D01*
X92928188Y-106177482D01*
X92964498Y-106297180D01*
X93023463Y-106407494D01*
X93102815Y-106504185D01*
X93199506Y-106583537D01*
X93309820Y-106642502D01*
X93429518Y-106678812D01*
X93554000Y-106691072D01*
X96154000Y-106691072D01*
X96278482Y-106678812D01*
X96398180Y-106642502D01*
X96508494Y-106583537D01*
X96605185Y-106504185D01*
X96684537Y-106407494D01*
X96743502Y-106297180D01*
X96779812Y-106177482D01*
X96792072Y-106053000D01*
X96792072Y-105690933D01*
X102006400Y-105690933D01*
X102006400Y-105891067D01*
X102045444Y-106087356D01*
X102122032Y-106272256D01*
X102233221Y-106438662D01*
X102374738Y-106580179D01*
X102541144Y-106691368D01*
X102726044Y-106767956D01*
X102922333Y-106807000D01*
X103122467Y-106807000D01*
X103318756Y-106767956D01*
X103503656Y-106691368D01*
X103670062Y-106580179D01*
X103811579Y-106438662D01*
X103922768Y-106272256D01*
X103999356Y-106087356D01*
X104038400Y-105891067D01*
X104038400Y-105690933D01*
X112141000Y-105690933D01*
X112141000Y-105891067D01*
X112180044Y-106087356D01*
X112256632Y-106272256D01*
X112367821Y-106438662D01*
X112509338Y-106580179D01*
X112675744Y-106691368D01*
X112860644Y-106767956D01*
X113056933Y-106807000D01*
X113257067Y-106807000D01*
X113453356Y-106767956D01*
X113638256Y-106691368D01*
X113804662Y-106580179D01*
X113946179Y-106438662D01*
X114057368Y-106272256D01*
X114133956Y-106087356D01*
X114173000Y-105891067D01*
X114173000Y-105755008D01*
X131419600Y-105755008D01*
X131419600Y-106030192D01*
X131473286Y-106300090D01*
X131578595Y-106554327D01*
X131731480Y-106783135D01*
X131926065Y-106977720D01*
X132154873Y-107130605D01*
X132409110Y-107235914D01*
X132679008Y-107289600D01*
X132954192Y-107289600D01*
X133224090Y-107235914D01*
X133478327Y-107130605D01*
X133707135Y-106977720D01*
X133901720Y-106783135D01*
X134054605Y-106554327D01*
X134159914Y-106300090D01*
X134213600Y-106030192D01*
X134213600Y-105970333D01*
X145389600Y-105970333D01*
X145389600Y-106170467D01*
X145428644Y-106366756D01*
X145505232Y-106551656D01*
X145616421Y-106718062D01*
X145757938Y-106859579D01*
X145924344Y-106970768D01*
X146109244Y-107047356D01*
X146305533Y-107086400D01*
X146505667Y-107086400D01*
X146701956Y-107047356D01*
X146886856Y-106970768D01*
X147053262Y-106859579D01*
X147194779Y-106718062D01*
X147305968Y-106551656D01*
X147382556Y-106366756D01*
X147421600Y-106170467D01*
X147421600Y-105970333D01*
X147382556Y-105774044D01*
X147305968Y-105589144D01*
X147194779Y-105422738D01*
X147053262Y-105281221D01*
X146886856Y-105170032D01*
X146701956Y-105093444D01*
X146505667Y-105054400D01*
X146305533Y-105054400D01*
X146109244Y-105093444D01*
X145924344Y-105170032D01*
X145757938Y-105281221D01*
X145616421Y-105422738D01*
X145505232Y-105589144D01*
X145428644Y-105774044D01*
X145389600Y-105970333D01*
X134213600Y-105970333D01*
X134213600Y-105755008D01*
X134159914Y-105485110D01*
X134054605Y-105230873D01*
X133901720Y-105002065D01*
X133707135Y-104807480D01*
X133478327Y-104654595D01*
X133224090Y-104549286D01*
X132954192Y-104495600D01*
X132679008Y-104495600D01*
X132409110Y-104549286D01*
X132154873Y-104654595D01*
X131926065Y-104807480D01*
X131731480Y-105002065D01*
X131578595Y-105230873D01*
X131473286Y-105485110D01*
X131419600Y-105755008D01*
X114173000Y-105755008D01*
X114173000Y-105690933D01*
X114149641Y-105573497D01*
X114246837Y-105533237D01*
X114413243Y-105422048D01*
X114554760Y-105280531D01*
X114665949Y-105114125D01*
X114742537Y-104929225D01*
X114781581Y-104732936D01*
X114781581Y-104532802D01*
X114742537Y-104336513D01*
X114665949Y-104151613D01*
X114554760Y-103985207D01*
X114413243Y-103843690D01*
X114246837Y-103732501D01*
X114061937Y-103655913D01*
X113865648Y-103616869D01*
X113665514Y-103616869D01*
X113469225Y-103655913D01*
X113387052Y-103689950D01*
X113356048Y-103673378D01*
X113217198Y-103631258D01*
X113072800Y-103617036D01*
X112928401Y-103631258D01*
X112789551Y-103673378D01*
X112661587Y-103741776D01*
X112549425Y-103833826D01*
X112457376Y-103945988D01*
X112388978Y-104073952D01*
X112346858Y-104212802D01*
X112336200Y-104321015D01*
X112336200Y-104418786D01*
X112346858Y-104526999D01*
X112388978Y-104665849D01*
X112457376Y-104793813D01*
X112549426Y-104905975D01*
X112595811Y-104944042D01*
X112509338Y-105001821D01*
X112367821Y-105143338D01*
X112256632Y-105309744D01*
X112180044Y-105494644D01*
X112141000Y-105690933D01*
X104038400Y-105690933D01*
X103999356Y-105494644D01*
X103922768Y-105309744D01*
X103811579Y-105143338D01*
X103670062Y-105001821D01*
X103503656Y-104890632D01*
X103318756Y-104814044D01*
X103122467Y-104775000D01*
X102922333Y-104775000D01*
X102726044Y-104814044D01*
X102541144Y-104890632D01*
X102374738Y-105001821D01*
X102233221Y-105143338D01*
X102122032Y-105309744D01*
X102045444Y-105494644D01*
X102006400Y-105690933D01*
X96792072Y-105690933D01*
X96792072Y-103453000D01*
X96779812Y-103328518D01*
X96764468Y-103277933D01*
X148615400Y-103277933D01*
X148615400Y-103478067D01*
X148654444Y-103674356D01*
X148731032Y-103859256D01*
X148842221Y-104025662D01*
X148983738Y-104167179D01*
X149150144Y-104278368D01*
X149335044Y-104354956D01*
X149531333Y-104394000D01*
X149731467Y-104394000D01*
X149927756Y-104354956D01*
X150112656Y-104278368D01*
X150279062Y-104167179D01*
X150420579Y-104025662D01*
X150531768Y-103859256D01*
X150534174Y-103853445D01*
X155716688Y-103853445D01*
X155716688Y-104053579D01*
X155755732Y-104249868D01*
X155832320Y-104434768D01*
X155943509Y-104601174D01*
X156085026Y-104742691D01*
X156251432Y-104853880D01*
X156436332Y-104930468D01*
X156632621Y-104969512D01*
X156832755Y-104969512D01*
X157029044Y-104930468D01*
X157213944Y-104853880D01*
X157380350Y-104742691D01*
X157521867Y-104601174D01*
X157633056Y-104434768D01*
X157709644Y-104249868D01*
X157748688Y-104053579D01*
X157748688Y-103853445D01*
X157709644Y-103657156D01*
X157633056Y-103472256D01*
X157521867Y-103305850D01*
X157380350Y-103164333D01*
X157213944Y-103053144D01*
X157029044Y-102976556D01*
X156832755Y-102937512D01*
X156632621Y-102937512D01*
X156436332Y-102976556D01*
X156251432Y-103053144D01*
X156085026Y-103164333D01*
X155943509Y-103305850D01*
X155832320Y-103472256D01*
X155755732Y-103657156D01*
X155716688Y-103853445D01*
X150534174Y-103853445D01*
X150608356Y-103674356D01*
X150647400Y-103478067D01*
X150647400Y-103277933D01*
X150608356Y-103081644D01*
X150531768Y-102896744D01*
X150420579Y-102730338D01*
X150279062Y-102588821D01*
X150112656Y-102477632D01*
X149927756Y-102401044D01*
X149731467Y-102362000D01*
X149531333Y-102362000D01*
X149335044Y-102401044D01*
X149150144Y-102477632D01*
X148983738Y-102588821D01*
X148842221Y-102730338D01*
X148731032Y-102896744D01*
X148654444Y-103081644D01*
X148615400Y-103277933D01*
X96764468Y-103277933D01*
X96743502Y-103208820D01*
X96684537Y-103098506D01*
X96605185Y-103001815D01*
X96508494Y-102922463D01*
X96398180Y-102863498D01*
X96278482Y-102827188D01*
X96154000Y-102814928D01*
X93554000Y-102814928D01*
X93429518Y-102827188D01*
X93309820Y-102863498D01*
X93199506Y-102922463D01*
X93102815Y-103001815D01*
X93023463Y-103098506D01*
X92964498Y-103208820D01*
X92928188Y-103328518D01*
X92915928Y-103453000D01*
X90372000Y-103453000D01*
X90372000Y-101957133D01*
X126288800Y-101957133D01*
X126288800Y-102157267D01*
X126327844Y-102353556D01*
X126404432Y-102538456D01*
X126515621Y-102704862D01*
X126657138Y-102846379D01*
X126823544Y-102957568D01*
X127008444Y-103034156D01*
X127204733Y-103073200D01*
X127404867Y-103073200D01*
X127601156Y-103034156D01*
X127786056Y-102957568D01*
X127952462Y-102846379D01*
X128093979Y-102704862D01*
X128205168Y-102538456D01*
X128281756Y-102353556D01*
X128320800Y-102157267D01*
X128320800Y-101957133D01*
X128281756Y-101760844D01*
X128205168Y-101575944D01*
X128093979Y-101409538D01*
X127952462Y-101268021D01*
X127786056Y-101156832D01*
X127601156Y-101080244D01*
X127404867Y-101041200D01*
X127204733Y-101041200D01*
X127008444Y-101080244D01*
X126823544Y-101156832D01*
X126657138Y-101268021D01*
X126515621Y-101409538D01*
X126404432Y-101575944D01*
X126327844Y-101760844D01*
X126288800Y-101957133D01*
X90372000Y-101957133D01*
X90372000Y-97355050D01*
X137069000Y-97355050D01*
X137069000Y-97750949D01*
X137090487Y-97969110D01*
X137175401Y-98249033D01*
X137313294Y-98507013D01*
X137498866Y-98733134D01*
X137724986Y-98918706D01*
X137982966Y-99056599D01*
X138262889Y-99141513D01*
X138554000Y-99170185D01*
X138845110Y-99141513D01*
X139125033Y-99056599D01*
X139383013Y-98918706D01*
X139609134Y-98733134D01*
X139794706Y-98507014D01*
X139804000Y-98489626D01*
X139813294Y-98507013D01*
X139998866Y-98733134D01*
X140224986Y-98918706D01*
X140482966Y-99056599D01*
X140762889Y-99141513D01*
X141054000Y-99170185D01*
X141345110Y-99141513D01*
X141625033Y-99056599D01*
X141883013Y-98918706D01*
X142109134Y-98733134D01*
X142294706Y-98507014D01*
X142308462Y-98481278D01*
X142464951Y-98687429D01*
X142682807Y-98880496D01*
X142934142Y-99027352D01*
X143197110Y-99119476D01*
X143427000Y-98998155D01*
X143427000Y-97680000D01*
X143407000Y-97680000D01*
X143407000Y-97426000D01*
X143427000Y-97426000D01*
X143427000Y-96107845D01*
X143681000Y-96107845D01*
X143681000Y-97426000D01*
X143701000Y-97426000D01*
X143701000Y-97680000D01*
X143681000Y-97680000D01*
X143681000Y-98998155D01*
X143910890Y-99119476D01*
X144173858Y-99027352D01*
X144425193Y-98880496D01*
X144643049Y-98687429D01*
X144799538Y-98481278D01*
X144813294Y-98507013D01*
X144998866Y-98733134D01*
X145224986Y-98918706D01*
X145482966Y-99056599D01*
X145762889Y-99141513D01*
X146054000Y-99170185D01*
X146345110Y-99141513D01*
X146625033Y-99056599D01*
X146883013Y-98918706D01*
X147109134Y-98733134D01*
X147161223Y-98669663D01*
X147215595Y-98771386D01*
X147326038Y-98905962D01*
X147460614Y-99016405D01*
X147614150Y-99098472D01*
X147780746Y-99149008D01*
X147954000Y-99166072D01*
X149154000Y-99166072D01*
X149327254Y-99149008D01*
X149493850Y-99098472D01*
X149647386Y-99016405D01*
X149781962Y-98905962D01*
X149892405Y-98771386D01*
X149974472Y-98617850D01*
X150025008Y-98451254D01*
X150042072Y-98278000D01*
X150042072Y-96828000D01*
X150025008Y-96654746D01*
X149974472Y-96488150D01*
X149892405Y-96334614D01*
X149781962Y-96200038D01*
X149647386Y-96089595D01*
X149493850Y-96007528D01*
X149327254Y-95956992D01*
X149154000Y-95939928D01*
X147954000Y-95939928D01*
X147780746Y-95956992D01*
X147614150Y-96007528D01*
X147460614Y-96089595D01*
X147326038Y-96200038D01*
X147215595Y-96334614D01*
X147161223Y-96436337D01*
X147109134Y-96372866D01*
X146883014Y-96187294D01*
X146625034Y-96049401D01*
X146345111Y-95964487D01*
X146054000Y-95935815D01*
X145762890Y-95964487D01*
X145482967Y-96049401D01*
X145224987Y-96187294D01*
X144998866Y-96372866D01*
X144813294Y-96598986D01*
X144799538Y-96624722D01*
X144643049Y-96418571D01*
X144425193Y-96225504D01*
X144173858Y-96078648D01*
X143910890Y-95986524D01*
X143681000Y-96107845D01*
X143427000Y-96107845D01*
X143197110Y-95986524D01*
X142934142Y-96078648D01*
X142682807Y-96225504D01*
X142464951Y-96418571D01*
X142308462Y-96624722D01*
X142294706Y-96598986D01*
X142109134Y-96372866D01*
X141883014Y-96187294D01*
X141625034Y-96049401D01*
X141345111Y-95964487D01*
X141054000Y-95935815D01*
X140762890Y-95964487D01*
X140482967Y-96049401D01*
X140224987Y-96187294D01*
X139998866Y-96372866D01*
X139813294Y-96598986D01*
X139804000Y-96616374D01*
X139794706Y-96598986D01*
X139609134Y-96372866D01*
X139383014Y-96187294D01*
X139125034Y-96049401D01*
X138845111Y-95964487D01*
X138554000Y-95935815D01*
X138262890Y-95964487D01*
X137982967Y-96049401D01*
X137724987Y-96187294D01*
X137498866Y-96372866D01*
X137313294Y-96598986D01*
X137175401Y-96856966D01*
X137090487Y-97136889D01*
X137069000Y-97355050D01*
X90372000Y-97355050D01*
X90372000Y-94594297D01*
X90775161Y-95197670D01*
X91309330Y-95731839D01*
X91937446Y-96151533D01*
X92635372Y-96440623D01*
X93376285Y-96588000D01*
X94131715Y-96588000D01*
X94872628Y-96440623D01*
X95570554Y-96151533D01*
X95794010Y-96002224D01*
X99984381Y-96002224D01*
X100116317Y-96297312D01*
X100457045Y-96468159D01*
X100824557Y-96569250D01*
X101204729Y-96596701D01*
X101582951Y-96549457D01*
X101944690Y-96429333D01*
X102191683Y-96297312D01*
X102323619Y-96002224D01*
X101154000Y-94832605D01*
X99984381Y-96002224D01*
X95794010Y-96002224D01*
X96198670Y-95731839D01*
X96732839Y-95197670D01*
X97062880Y-94703729D01*
X99210299Y-94703729D01*
X99257543Y-95081951D01*
X99377667Y-95443690D01*
X99509688Y-95690683D01*
X99804776Y-95822619D01*
X100974395Y-94653000D01*
X101333605Y-94653000D01*
X102503224Y-95822619D01*
X102798312Y-95690683D01*
X102969159Y-95349955D01*
X103070250Y-94982443D01*
X103097701Y-94602271D01*
X103080232Y-94462419D01*
X104219000Y-94462419D01*
X104219000Y-94843581D01*
X104293361Y-95217419D01*
X104439225Y-95569566D01*
X104650987Y-95886491D01*
X104920509Y-96156013D01*
X105237434Y-96367775D01*
X105589581Y-96513639D01*
X105963419Y-96588000D01*
X106344581Y-96588000D01*
X106718419Y-96513639D01*
X107070566Y-96367775D01*
X107387491Y-96156013D01*
X107657013Y-95886491D01*
X107868775Y-95569566D01*
X108014639Y-95217419D01*
X108089000Y-94843581D01*
X108089000Y-94462419D01*
X109219000Y-94462419D01*
X109219000Y-94843581D01*
X109293361Y-95217419D01*
X109439225Y-95569566D01*
X109650987Y-95886491D01*
X109920509Y-96156013D01*
X110237434Y-96367775D01*
X110589581Y-96513639D01*
X110963419Y-96588000D01*
X111344581Y-96588000D01*
X111718419Y-96513639D01*
X112070566Y-96367775D01*
X112387491Y-96156013D01*
X112657013Y-95886491D01*
X112868775Y-95569566D01*
X113014639Y-95217419D01*
X113089000Y-94843581D01*
X113089000Y-94462419D01*
X113014639Y-94088581D01*
X112868775Y-93736434D01*
X112657013Y-93419509D01*
X112590504Y-93353000D01*
X114215928Y-93353000D01*
X114215928Y-95953000D01*
X114228188Y-96077482D01*
X114264498Y-96197180D01*
X114323463Y-96307494D01*
X114402815Y-96404185D01*
X114499506Y-96483537D01*
X114609820Y-96542502D01*
X114729518Y-96578812D01*
X114854000Y-96591072D01*
X117454000Y-96591072D01*
X117578482Y-96578812D01*
X117698180Y-96542502D01*
X117808494Y-96483537D01*
X117905185Y-96404185D01*
X117984537Y-96307494D01*
X118043502Y-96197180D01*
X118079812Y-96077482D01*
X118092072Y-95953000D01*
X118092072Y-94462419D01*
X120319000Y-94462419D01*
X120319000Y-94843581D01*
X120393361Y-95217419D01*
X120539225Y-95569566D01*
X120750987Y-95886491D01*
X121020509Y-96156013D01*
X121337434Y-96367775D01*
X121689581Y-96513639D01*
X122063419Y-96588000D01*
X122444581Y-96588000D01*
X122818419Y-96513639D01*
X123170566Y-96367775D01*
X123487491Y-96156013D01*
X123641280Y-96002224D01*
X126084381Y-96002224D01*
X126216317Y-96297312D01*
X126557045Y-96468159D01*
X126924557Y-96569250D01*
X127304729Y-96596701D01*
X127682951Y-96549457D01*
X128044690Y-96429333D01*
X128291683Y-96297312D01*
X128423619Y-96002224D01*
X127254000Y-94832605D01*
X126084381Y-96002224D01*
X123641280Y-96002224D01*
X123757013Y-95886491D01*
X123968775Y-95569566D01*
X124114639Y-95217419D01*
X124189000Y-94843581D01*
X124189000Y-94703729D01*
X125310299Y-94703729D01*
X125357543Y-95081951D01*
X125477667Y-95443690D01*
X125609688Y-95690683D01*
X125904776Y-95822619D01*
X127074395Y-94653000D01*
X127433605Y-94653000D01*
X128603224Y-95822619D01*
X128898312Y-95690683D01*
X129069159Y-95349955D01*
X129170250Y-94982443D01*
X129197701Y-94602271D01*
X129150457Y-94224049D01*
X129030333Y-93862310D01*
X128898312Y-93615317D01*
X128603224Y-93483381D01*
X127433605Y-94653000D01*
X127074395Y-94653000D01*
X125904776Y-93483381D01*
X125609688Y-93615317D01*
X125438841Y-93956045D01*
X125337750Y-94323557D01*
X125310299Y-94703729D01*
X124189000Y-94703729D01*
X124189000Y-94462419D01*
X124114639Y-94088581D01*
X123968775Y-93736434D01*
X123757013Y-93419509D01*
X123641280Y-93303776D01*
X126084381Y-93303776D01*
X127254000Y-94473395D01*
X128374395Y-93353000D01*
X130315928Y-93353000D01*
X130315928Y-95953000D01*
X130328188Y-96077482D01*
X130364498Y-96197180D01*
X130423463Y-96307494D01*
X130502815Y-96404185D01*
X130599506Y-96483537D01*
X130709820Y-96542502D01*
X130829518Y-96578812D01*
X130954000Y-96591072D01*
X133554000Y-96591072D01*
X133678482Y-96578812D01*
X133798180Y-96542502D01*
X133908494Y-96483537D01*
X134005185Y-96404185D01*
X134084537Y-96307494D01*
X134143502Y-96197180D01*
X134179812Y-96077482D01*
X134192072Y-95953000D01*
X134192072Y-93353000D01*
X134179812Y-93228518D01*
X134143502Y-93108820D01*
X134084537Y-92998506D01*
X134005185Y-92901815D01*
X133908494Y-92822463D01*
X133798180Y-92763498D01*
X133678482Y-92727188D01*
X133554000Y-92714928D01*
X130954000Y-92714928D01*
X130829518Y-92727188D01*
X130709820Y-92763498D01*
X130599506Y-92822463D01*
X130502815Y-92901815D01*
X130423463Y-92998506D01*
X130364498Y-93108820D01*
X130328188Y-93228518D01*
X130315928Y-93353000D01*
X128374395Y-93353000D01*
X128423619Y-93303776D01*
X128291683Y-93008688D01*
X127950955Y-92837841D01*
X127583443Y-92736750D01*
X127203271Y-92709299D01*
X126825049Y-92756543D01*
X126463310Y-92876667D01*
X126216317Y-93008688D01*
X126084381Y-93303776D01*
X123641280Y-93303776D01*
X123487491Y-93149987D01*
X123170566Y-92938225D01*
X122818419Y-92792361D01*
X122444581Y-92718000D01*
X122063419Y-92718000D01*
X121689581Y-92792361D01*
X121337434Y-92938225D01*
X121020509Y-93149987D01*
X120750987Y-93419509D01*
X120539225Y-93736434D01*
X120393361Y-94088581D01*
X120319000Y-94462419D01*
X118092072Y-94462419D01*
X118092072Y-93353000D01*
X118079812Y-93228518D01*
X118043502Y-93108820D01*
X117984537Y-92998506D01*
X117905185Y-92901815D01*
X117808494Y-92822463D01*
X117698180Y-92763498D01*
X117578482Y-92727188D01*
X117454000Y-92714928D01*
X114854000Y-92714928D01*
X114729518Y-92727188D01*
X114609820Y-92763498D01*
X114499506Y-92822463D01*
X114402815Y-92901815D01*
X114323463Y-92998506D01*
X114264498Y-93108820D01*
X114228188Y-93228518D01*
X114215928Y-93353000D01*
X112590504Y-93353000D01*
X112387491Y-93149987D01*
X112070566Y-92938225D01*
X111718419Y-92792361D01*
X111344581Y-92718000D01*
X110963419Y-92718000D01*
X110589581Y-92792361D01*
X110237434Y-92938225D01*
X109920509Y-93149987D01*
X109650987Y-93419509D01*
X109439225Y-93736434D01*
X109293361Y-94088581D01*
X109219000Y-94462419D01*
X108089000Y-94462419D01*
X108014639Y-94088581D01*
X107868775Y-93736434D01*
X107657013Y-93419509D01*
X107387491Y-93149987D01*
X107070566Y-92938225D01*
X106718419Y-92792361D01*
X106344581Y-92718000D01*
X105963419Y-92718000D01*
X105589581Y-92792361D01*
X105237434Y-92938225D01*
X104920509Y-93149987D01*
X104650987Y-93419509D01*
X104439225Y-93736434D01*
X104293361Y-94088581D01*
X104219000Y-94462419D01*
X103080232Y-94462419D01*
X103050457Y-94224049D01*
X102930333Y-93862310D01*
X102798312Y-93615317D01*
X102503224Y-93483381D01*
X101333605Y-94653000D01*
X100974395Y-94653000D01*
X99804776Y-93483381D01*
X99509688Y-93615317D01*
X99338841Y-93956045D01*
X99237750Y-94323557D01*
X99210299Y-94703729D01*
X97062880Y-94703729D01*
X97152533Y-94569554D01*
X97441623Y-93871628D01*
X97554575Y-93303776D01*
X99984381Y-93303776D01*
X101154000Y-94473395D01*
X102323619Y-93303776D01*
X102191683Y-93008688D01*
X101850955Y-92837841D01*
X101483443Y-92736750D01*
X101103271Y-92709299D01*
X100725049Y-92756543D01*
X100363310Y-92876667D01*
X100116317Y-93008688D01*
X99984381Y-93303776D01*
X97554575Y-93303776D01*
X97589000Y-93130715D01*
X97589000Y-92375285D01*
X97441623Y-91634372D01*
X97152533Y-90936446D01*
X96732839Y-90308330D01*
X96387509Y-89963000D01*
X157820491Y-89963000D01*
X157475161Y-90308330D01*
M02*
