G04 #@! TF.GenerationSoftware,KiCad,Pcbnew,(5.1.4)-1*
G04 #@! TF.CreationDate,2020-10-03T17:35:05-04:00*
G04 #@! TF.ProjectId,i2c_pancake,6932635f-7061-46e6-9361-6b652e6b6963,rev?*
G04 #@! TF.SameCoordinates,Original*
G04 #@! TF.FileFunction,Paste,Bot*
G04 #@! TF.FilePolarity,Positive*
%FSLAX46Y46*%
G04 Gerber Fmt 4.6, Leading zero omitted, Abs format (unit mm)*
G04 Created by KiCad (PCBNEW (5.1.4)-1) date 2020-10-03 17:35:05*
%MOMM*%
%LPD*%
G04 APERTURE LIST*
%ADD10C,0.150000*%
%ADD11C,0.152400*%
%ADD12R,2.413000X3.200400*%
%ADD13R,1.371600X0.482600*%
%ADD14R,0.500000X0.500000*%
%ADD15R,1.250000X1.500000*%
%ADD16R,1.500000X1.250000*%
%ADD17R,1.300000X1.500000*%
%ADD18R,1.500000X1.300000*%
%ADD19R,3.000000X0.600000*%
%ADD20R,2.000000X0.600000*%
%ADD21R,2.000000X1.000000*%
G04 APERTURE END LIST*
D10*
X89662000Y-134239000D02*
X164554000Y-134239000D01*
X89662000Y-89253000D02*
X164554000Y-89253000D01*
X164554000Y-89253000D02*
X164554000Y-134239000D01*
X89662000Y-89253000D02*
X89662000Y-134239000D01*
D11*
X142682900Y-113130000D02*
X144895900Y-113130000D01*
X142682900Y-114530200D02*
X142682900Y-113130000D01*
X144895900Y-114530200D02*
X142682900Y-114530200D01*
X144895900Y-113130000D02*
X144895900Y-114530200D01*
X142682900Y-111529800D02*
X144895900Y-111529800D01*
X142682900Y-112930000D02*
X142682900Y-111529800D01*
X144895900Y-112930000D02*
X142682900Y-112930000D01*
X144895900Y-111529800D02*
X144895900Y-112930000D01*
D12*
X143789400Y-113030000D03*
D13*
X141122400Y-111125000D03*
X141122400Y-112395000D03*
X141122400Y-113665000D03*
X141122400Y-114935000D03*
X146456400Y-114935000D03*
X146456400Y-113665000D03*
X146456400Y-112395000D03*
X146456400Y-111125000D03*
D14*
X106705400Y-115282800D03*
X106705400Y-117482800D03*
X101516000Y-113334800D03*
X103716000Y-113334800D03*
X103428800Y-109481800D03*
X103428800Y-107281800D03*
D15*
X139446000Y-106420600D03*
X139446000Y-108920600D03*
X114554000Y-124853000D03*
X114554000Y-122353000D03*
X114654000Y-102803000D03*
X114654000Y-100303000D03*
D16*
X128185800Y-120816400D03*
X125685800Y-120816400D03*
D17*
X98454000Y-124903000D03*
X98454000Y-122203000D03*
D18*
X113854000Y-117153000D03*
X111154000Y-117153000D03*
D17*
X98454000Y-102953000D03*
X98454000Y-100253000D03*
D18*
X113654000Y-107453000D03*
X110954000Y-107453000D03*
X154986600Y-128665000D03*
X152286600Y-128665000D03*
X149754000Y-123553000D03*
X152454000Y-123553000D03*
X149804000Y-119653000D03*
X152504000Y-119653000D03*
X154347800Y-114517200D03*
X151647800Y-114517200D03*
D19*
X110054000Y-103558000D03*
X110054000Y-102288000D03*
X110054000Y-101018000D03*
X110054000Y-99748000D03*
X103054000Y-99748000D03*
X103054000Y-101018000D03*
X103054000Y-102288000D03*
X103054000Y-103558000D03*
D20*
X121885600Y-118657400D03*
X121885600Y-117387400D03*
X121885600Y-116117400D03*
X121885600Y-114847400D03*
X121885600Y-113577400D03*
X121885600Y-112307400D03*
X121885600Y-111037400D03*
X121885600Y-109767400D03*
X121885600Y-108497400D03*
X131285600Y-108497400D03*
X131285600Y-109767400D03*
X131285600Y-111037400D03*
X131285600Y-112307400D03*
X131285600Y-113577400D03*
X131285600Y-114847400D03*
X131285600Y-116117400D03*
X131285600Y-117387400D03*
X131285600Y-118657400D03*
D15*
X149090000Y-109092400D03*
X149090000Y-106592400D03*
D19*
X109954000Y-125358000D03*
X109954000Y-124088000D03*
X109954000Y-122818000D03*
X109954000Y-121548000D03*
X102954000Y-121548000D03*
X102954000Y-122818000D03*
X102954000Y-124088000D03*
X102954000Y-125358000D03*
D21*
X153154000Y-109853000D03*
X153154000Y-107313000D03*
X153154000Y-104773000D03*
X153154000Y-102233000D03*
X153154000Y-99693000D03*
M02*
