G04 #@! TF.GenerationSoftware,KiCad,Pcbnew,(5.1.4)-1*
G04 #@! TF.CreationDate,2020-09-28T18:45:27-04:00*
G04 #@! TF.ProjectId,i2c_pancake,6932635f-7061-46e6-9361-6b652e6b6963,rev?*
G04 #@! TF.SameCoordinates,Original*
G04 #@! TF.FileFunction,Soldermask,Bot*
G04 #@! TF.FilePolarity,Negative*
%FSLAX46Y46*%
G04 Gerber Fmt 4.6, Leading zero omitted, Abs format (unit mm)*
G04 Created by KiCad (PCBNEW (5.1.4)-1) date 2020-09-28 18:45:27*
%MOMM*%
%LPD*%
G04 APERTURE LIST*
%ADD10C,0.150000*%
%ADD11R,0.590000X1.260000*%
%ADD12R,1.250000X1.500000*%
%ADD13R,1.500000X1.250000*%
%ADD14R,1.300000X1.500000*%
%ADD15R,1.500000X1.300000*%
%ADD16R,1.600000X1.600000*%
%ADD17C,1.600000*%
%ADD18R,3.000000X0.600000*%
%ADD19R,2.140000X0.740000*%
%ADD20C,2.600000*%
%ADD21R,2.600000X2.600000*%
%ADD22R,0.949000X2.477998*%
%ADD23R,6.756400X6.934200*%
%ADD24R,2.000000X1.000000*%
%ADD25O,1.700000X1.950000*%
%ADD26C,0.100000*%
%ADD27C,1.700000*%
%ADD28R,1.260000X0.590000*%
%ADD29C,1.524000*%
%ADD30C,6.400000*%
G04 APERTURE END LIST*
D10*
X89662000Y-134239000D02*
X164554000Y-134239000D01*
X89662000Y-89253000D02*
X164554000Y-89253000D01*
X164554000Y-89253000D02*
X164554000Y-134239000D01*
X89662000Y-89253000D02*
X89662000Y-134239000D01*
D11*
X105257600Y-115951000D03*
X103357600Y-115951000D03*
X104307600Y-117911000D03*
D12*
X137812400Y-108954600D03*
X137812400Y-106454600D03*
X114554000Y-124853000D03*
X114554000Y-122353000D03*
X114654000Y-102803000D03*
X114654000Y-100303000D03*
D13*
X128185800Y-120816400D03*
X125685800Y-120816400D03*
D14*
X98454000Y-124903000D03*
X98454000Y-122203000D03*
D15*
X113854000Y-117153000D03*
X111154000Y-117153000D03*
D14*
X98454000Y-102953000D03*
X98454000Y-100253000D03*
D15*
X113654000Y-107453000D03*
X110954000Y-107453000D03*
X154986600Y-128665000D03*
X152286600Y-128665000D03*
X149754000Y-123553000D03*
X152454000Y-123553000D03*
X149804000Y-119653000D03*
X152504000Y-119653000D03*
X154347800Y-114517200D03*
X151647800Y-114517200D03*
D16*
X162954000Y-125353000D03*
D17*
X162954000Y-122813000D03*
X162954000Y-120273000D03*
X162954000Y-117733000D03*
X155334000Y-117733000D03*
X155334000Y-120273000D03*
X155334000Y-122813000D03*
X155334000Y-125353000D03*
D18*
X110054000Y-103558000D03*
X110054000Y-102288000D03*
X110054000Y-101018000D03*
X110054000Y-99748000D03*
X103054000Y-99748000D03*
X103054000Y-101018000D03*
X103054000Y-102288000D03*
X103054000Y-103558000D03*
D19*
X121885600Y-118657400D03*
X121885600Y-117387400D03*
X121885600Y-116117400D03*
X121885600Y-114847400D03*
X121885600Y-113577400D03*
X121885600Y-112307400D03*
X121885600Y-111037400D03*
X121885600Y-109767400D03*
X121885600Y-108497400D03*
X131285600Y-108497400D03*
X131285600Y-109767400D03*
X131285600Y-111037400D03*
X131285600Y-112307400D03*
X131285600Y-113577400D03*
X131285600Y-114847400D03*
X131285600Y-116117400D03*
X131285600Y-117387400D03*
X131285600Y-118657400D03*
D20*
X115754000Y-129053000D03*
X110754000Y-129053000D03*
X105754000Y-129053000D03*
D21*
X100754000Y-129053000D03*
D12*
X149090000Y-109092400D03*
X149090000Y-106592400D03*
D22*
X145661000Y-107519500D03*
D23*
X143375000Y-113933000D03*
D22*
X141089000Y-107519500D03*
D18*
X109954000Y-125358000D03*
X109954000Y-124088000D03*
X109954000Y-122818000D03*
X109954000Y-121548000D03*
X102954000Y-121548000D03*
X102954000Y-122818000D03*
X102954000Y-124088000D03*
X102954000Y-125358000D03*
D24*
X153154000Y-109853000D03*
X153154000Y-107313000D03*
X153154000Y-104773000D03*
X153154000Y-102233000D03*
X153154000Y-99693000D03*
D25*
X138554000Y-97553000D03*
X141054000Y-97553000D03*
X143554000Y-97553000D03*
X146054000Y-97553000D03*
D26*
G36*
X149178504Y-96579204D02*
G01*
X149202773Y-96582804D01*
X149226571Y-96588765D01*
X149249671Y-96597030D01*
X149271849Y-96607520D01*
X149292893Y-96620133D01*
X149312598Y-96634747D01*
X149330777Y-96651223D01*
X149347253Y-96669402D01*
X149361867Y-96689107D01*
X149374480Y-96710151D01*
X149384970Y-96732329D01*
X149393235Y-96755429D01*
X149399196Y-96779227D01*
X149402796Y-96803496D01*
X149404000Y-96828000D01*
X149404000Y-98278000D01*
X149402796Y-98302504D01*
X149399196Y-98326773D01*
X149393235Y-98350571D01*
X149384970Y-98373671D01*
X149374480Y-98395849D01*
X149361867Y-98416893D01*
X149347253Y-98436598D01*
X149330777Y-98454777D01*
X149312598Y-98471253D01*
X149292893Y-98485867D01*
X149271849Y-98498480D01*
X149249671Y-98508970D01*
X149226571Y-98517235D01*
X149202773Y-98523196D01*
X149178504Y-98526796D01*
X149154000Y-98528000D01*
X147954000Y-98528000D01*
X147929496Y-98526796D01*
X147905227Y-98523196D01*
X147881429Y-98517235D01*
X147858329Y-98508970D01*
X147836151Y-98498480D01*
X147815107Y-98485867D01*
X147795402Y-98471253D01*
X147777223Y-98454777D01*
X147760747Y-98436598D01*
X147746133Y-98416893D01*
X147733520Y-98395849D01*
X147723030Y-98373671D01*
X147714765Y-98350571D01*
X147708804Y-98326773D01*
X147705204Y-98302504D01*
X147704000Y-98278000D01*
X147704000Y-96828000D01*
X147705204Y-96803496D01*
X147708804Y-96779227D01*
X147714765Y-96755429D01*
X147723030Y-96732329D01*
X147733520Y-96710151D01*
X147746133Y-96689107D01*
X147760747Y-96669402D01*
X147777223Y-96651223D01*
X147795402Y-96634747D01*
X147815107Y-96620133D01*
X147836151Y-96607520D01*
X147858329Y-96597030D01*
X147881429Y-96588765D01*
X147905227Y-96582804D01*
X147929496Y-96579204D01*
X147954000Y-96578000D01*
X149154000Y-96578000D01*
X149178504Y-96579204D01*
X149178504Y-96579204D01*
G37*
D27*
X148554000Y-97553000D03*
D20*
X94854000Y-119753000D03*
X94854000Y-114753000D03*
X94854000Y-109753000D03*
D21*
X94854000Y-104753000D03*
D20*
X101154000Y-94653000D03*
X106154000Y-94653000D03*
X111154000Y-94653000D03*
D21*
X116154000Y-94653000D03*
D25*
X148554000Y-125953000D03*
X146054000Y-125953000D03*
X143554000Y-125953000D03*
X141054000Y-125953000D03*
D26*
G36*
X139178504Y-124979204D02*
G01*
X139202773Y-124982804D01*
X139226571Y-124988765D01*
X139249671Y-124997030D01*
X139271849Y-125007520D01*
X139292893Y-125020133D01*
X139312598Y-125034747D01*
X139330777Y-125051223D01*
X139347253Y-125069402D01*
X139361867Y-125089107D01*
X139374480Y-125110151D01*
X139384970Y-125132329D01*
X139393235Y-125155429D01*
X139399196Y-125179227D01*
X139402796Y-125203496D01*
X139404000Y-125228000D01*
X139404000Y-126678000D01*
X139402796Y-126702504D01*
X139399196Y-126726773D01*
X139393235Y-126750571D01*
X139384970Y-126773671D01*
X139374480Y-126795849D01*
X139361867Y-126816893D01*
X139347253Y-126836598D01*
X139330777Y-126854777D01*
X139312598Y-126871253D01*
X139292893Y-126885867D01*
X139271849Y-126898480D01*
X139249671Y-126908970D01*
X139226571Y-126917235D01*
X139202773Y-126923196D01*
X139178504Y-126926796D01*
X139154000Y-126928000D01*
X137954000Y-126928000D01*
X137929496Y-126926796D01*
X137905227Y-126923196D01*
X137881429Y-126917235D01*
X137858329Y-126908970D01*
X137836151Y-126898480D01*
X137815107Y-126885867D01*
X137795402Y-126871253D01*
X137777223Y-126854777D01*
X137760747Y-126836598D01*
X137746133Y-126816893D01*
X137733520Y-126795849D01*
X137723030Y-126773671D01*
X137714765Y-126750571D01*
X137708804Y-126726773D01*
X137705204Y-126702504D01*
X137704000Y-126678000D01*
X137704000Y-125228000D01*
X137705204Y-125203496D01*
X137708804Y-125179227D01*
X137714765Y-125155429D01*
X137723030Y-125132329D01*
X137733520Y-125110151D01*
X137746133Y-125089107D01*
X137760747Y-125069402D01*
X137777223Y-125051223D01*
X137795402Y-125034747D01*
X137815107Y-125020133D01*
X137836151Y-125007520D01*
X137858329Y-124997030D01*
X137881429Y-124988765D01*
X137905227Y-124982804D01*
X137929496Y-124979204D01*
X137954000Y-124978000D01*
X139154000Y-124978000D01*
X139178504Y-124979204D01*
X139178504Y-124979204D01*
G37*
D27*
X138554000Y-125953000D03*
D20*
X122254000Y-94653000D03*
X127254000Y-94653000D03*
D21*
X132254000Y-94653000D03*
D20*
X132154000Y-128953000D03*
X127154000Y-128953000D03*
D21*
X122154000Y-128953000D03*
D11*
X103352600Y-108508800D03*
X105252600Y-108508800D03*
X104302600Y-106548800D03*
D28*
X108284400Y-112456000D03*
X108284400Y-110556000D03*
X106324400Y-111506000D03*
D29*
X132816600Y-105892600D03*
X117957600Y-111915200D03*
X118237000Y-120472200D03*
D30*
X160454000Y-130853000D03*
X160454000Y-92753000D03*
X93754000Y-92753000D03*
X93754000Y-130753000D03*
M02*
