G04 #@! TF.GenerationSoftware,KiCad,Pcbnew,(5.1.4)-1*
G04 #@! TF.CreationDate,2020-09-23T09:36:31-04:00*
G04 #@! TF.ProjectId,i2c_pancake,6932635f-7061-46e6-9361-6b652e6b6963,rev?*
G04 #@! TF.SameCoordinates,Original*
G04 #@! TF.FileFunction,Paste,Bot*
G04 #@! TF.FilePolarity,Positive*
%FSLAX46Y46*%
G04 Gerber Fmt 4.6, Leading zero omitted, Abs format (unit mm)*
G04 Created by KiCad (PCBNEW (5.1.4)-1) date 2020-09-23 09:36:31*
%MOMM*%
%LPD*%
G04 APERTURE LIST*
%ADD10C,0.150000*%
%ADD11R,1.250000X1.500000*%
%ADD12R,0.949000X2.477998*%
%ADD13R,6.756400X6.934200*%
%ADD14R,2.000000X0.600000*%
%ADD15R,3.000000X0.600000*%
%ADD16R,1.500000X1.300000*%
%ADD17R,1.300000X1.500000*%
%ADD18R,2.000000X1.000000*%
%ADD19R,1.500000X1.250000*%
G04 APERTURE END LIST*
D10*
X89662000Y-134239000D02*
X164554000Y-134239000D01*
X89662000Y-89253000D02*
X164554000Y-89253000D01*
X164554000Y-89253000D02*
X164554000Y-134239000D01*
X89662000Y-89253000D02*
X89662000Y-134239000D01*
D11*
X149090000Y-109092400D03*
X149090000Y-106592400D03*
D12*
X145661000Y-107519500D03*
D13*
X143375000Y-113933000D03*
D12*
X141089000Y-107519500D03*
D14*
X121885600Y-118657400D03*
X121885600Y-117387400D03*
X121885600Y-116117400D03*
X121885600Y-114847400D03*
X121885600Y-113577400D03*
X121885600Y-112307400D03*
X121885600Y-111037400D03*
X121885600Y-109767400D03*
X121885600Y-108497400D03*
X131285600Y-108497400D03*
X131285600Y-109767400D03*
X131285600Y-111037400D03*
X131285600Y-112307400D03*
X131285600Y-113577400D03*
X131285600Y-114847400D03*
X131285600Y-116117400D03*
X131285600Y-117387400D03*
X131285600Y-118657400D03*
D15*
X110054000Y-103558000D03*
X110054000Y-102288000D03*
X110054000Y-101018000D03*
X110054000Y-99748000D03*
X103054000Y-99748000D03*
X103054000Y-101018000D03*
X103054000Y-102288000D03*
X103054000Y-103558000D03*
X109954000Y-125358000D03*
X109954000Y-124088000D03*
X109954000Y-122818000D03*
X109954000Y-121548000D03*
X102954000Y-121548000D03*
X102954000Y-122818000D03*
X102954000Y-124088000D03*
X102954000Y-125358000D03*
D16*
X154347800Y-114517200D03*
X151647800Y-114517200D03*
X149804000Y-119653000D03*
X152504000Y-119653000D03*
X149754000Y-123553000D03*
X152454000Y-123553000D03*
X154986600Y-128665000D03*
X152286600Y-128665000D03*
X113654000Y-107453000D03*
X110954000Y-107453000D03*
D17*
X98454000Y-102953000D03*
X98454000Y-100253000D03*
D16*
X113854000Y-117153000D03*
X111154000Y-117153000D03*
D17*
X98454000Y-124903000D03*
X98454000Y-122203000D03*
D18*
X153154000Y-99693000D03*
X153154000Y-102233000D03*
X153154000Y-104773000D03*
X153154000Y-107313000D03*
X153154000Y-109853000D03*
D19*
X128185800Y-120816400D03*
X125685800Y-120816400D03*
D11*
X114654000Y-102803000D03*
X114654000Y-100303000D03*
X114554000Y-124853000D03*
X114554000Y-122353000D03*
X137812400Y-106454600D03*
X137812400Y-108954600D03*
M02*
