G04 #@! TF.GenerationSoftware,KiCad,Pcbnew,(5.1.4)-1*
G04 #@! TF.CreationDate,2020-09-23T09:36:30-04:00*
G04 #@! TF.ProjectId,i2c_pancake,6932635f-7061-46e6-9361-6b652e6b6963,rev?*
G04 #@! TF.SameCoordinates,Original*
G04 #@! TF.FileFunction,Copper,L3,Inr*
G04 #@! TF.FilePolarity,Positive*
%FSLAX46Y46*%
G04 Gerber Fmt 4.6, Leading zero omitted, Abs format (unit mm)*
G04 Created by KiCad (PCBNEW (5.1.4)-1) date 2020-09-23 09:36:30*
%MOMM*%
%LPD*%
G04 APERTURE LIST*
%ADD10C,0.150000*%
%ADD11C,1.524000*%
%ADD12C,2.600000*%
%ADD13R,2.600000X2.600000*%
%ADD14O,1.700000X1.950000*%
%ADD15C,0.100000*%
%ADD16C,1.700000*%
%ADD17C,6.400000*%
%ADD18R,1.600000X1.600000*%
%ADD19C,1.600000*%
%ADD20C,0.762000*%
%ADD21C,0.254000*%
G04 APERTURE END LIST*
D10*
X89662000Y-134239000D02*
X164554000Y-134239000D01*
X89662000Y-89253000D02*
X164554000Y-89253000D01*
X164554000Y-89253000D02*
X164554000Y-134239000D01*
X89662000Y-89253000D02*
X89662000Y-134239000D01*
D11*
X117594000Y-115993200D03*
X132097400Y-106211400D03*
X115638200Y-119619800D03*
D12*
X115754000Y-129053000D03*
X110754000Y-129053000D03*
X105754000Y-129053000D03*
D13*
X100754000Y-129053000D03*
D12*
X94854000Y-119753000D03*
X94854000Y-114753000D03*
X94854000Y-109753000D03*
D13*
X94854000Y-104753000D03*
D12*
X101154000Y-94653000D03*
X106154000Y-94653000D03*
X111154000Y-94653000D03*
D13*
X116154000Y-94653000D03*
D12*
X132154000Y-128953000D03*
X127154000Y-128953000D03*
D13*
X122154000Y-128953000D03*
D12*
X122254000Y-94653000D03*
X127254000Y-94653000D03*
D13*
X132254000Y-94653000D03*
D14*
X138554000Y-97553000D03*
X141054000Y-97553000D03*
X143554000Y-97553000D03*
X146054000Y-97553000D03*
D15*
G36*
X149178504Y-96579204D02*
G01*
X149202773Y-96582804D01*
X149226571Y-96588765D01*
X149249671Y-96597030D01*
X149271849Y-96607520D01*
X149292893Y-96620133D01*
X149312598Y-96634747D01*
X149330777Y-96651223D01*
X149347253Y-96669402D01*
X149361867Y-96689107D01*
X149374480Y-96710151D01*
X149384970Y-96732329D01*
X149393235Y-96755429D01*
X149399196Y-96779227D01*
X149402796Y-96803496D01*
X149404000Y-96828000D01*
X149404000Y-98278000D01*
X149402796Y-98302504D01*
X149399196Y-98326773D01*
X149393235Y-98350571D01*
X149384970Y-98373671D01*
X149374480Y-98395849D01*
X149361867Y-98416893D01*
X149347253Y-98436598D01*
X149330777Y-98454777D01*
X149312598Y-98471253D01*
X149292893Y-98485867D01*
X149271849Y-98498480D01*
X149249671Y-98508970D01*
X149226571Y-98517235D01*
X149202773Y-98523196D01*
X149178504Y-98526796D01*
X149154000Y-98528000D01*
X147954000Y-98528000D01*
X147929496Y-98526796D01*
X147905227Y-98523196D01*
X147881429Y-98517235D01*
X147858329Y-98508970D01*
X147836151Y-98498480D01*
X147815107Y-98485867D01*
X147795402Y-98471253D01*
X147777223Y-98454777D01*
X147760747Y-98436598D01*
X147746133Y-98416893D01*
X147733520Y-98395849D01*
X147723030Y-98373671D01*
X147714765Y-98350571D01*
X147708804Y-98326773D01*
X147705204Y-98302504D01*
X147704000Y-98278000D01*
X147704000Y-96828000D01*
X147705204Y-96803496D01*
X147708804Y-96779227D01*
X147714765Y-96755429D01*
X147723030Y-96732329D01*
X147733520Y-96710151D01*
X147746133Y-96689107D01*
X147760747Y-96669402D01*
X147777223Y-96651223D01*
X147795402Y-96634747D01*
X147815107Y-96620133D01*
X147836151Y-96607520D01*
X147858329Y-96597030D01*
X147881429Y-96588765D01*
X147905227Y-96582804D01*
X147929496Y-96579204D01*
X147954000Y-96578000D01*
X149154000Y-96578000D01*
X149178504Y-96579204D01*
X149178504Y-96579204D01*
G37*
D16*
X148554000Y-97553000D03*
D14*
X148554000Y-125953000D03*
X146054000Y-125953000D03*
X143554000Y-125953000D03*
X141054000Y-125953000D03*
D15*
G36*
X139178504Y-124979204D02*
G01*
X139202773Y-124982804D01*
X139226571Y-124988765D01*
X139249671Y-124997030D01*
X139271849Y-125007520D01*
X139292893Y-125020133D01*
X139312598Y-125034747D01*
X139330777Y-125051223D01*
X139347253Y-125069402D01*
X139361867Y-125089107D01*
X139374480Y-125110151D01*
X139384970Y-125132329D01*
X139393235Y-125155429D01*
X139399196Y-125179227D01*
X139402796Y-125203496D01*
X139404000Y-125228000D01*
X139404000Y-126678000D01*
X139402796Y-126702504D01*
X139399196Y-126726773D01*
X139393235Y-126750571D01*
X139384970Y-126773671D01*
X139374480Y-126795849D01*
X139361867Y-126816893D01*
X139347253Y-126836598D01*
X139330777Y-126854777D01*
X139312598Y-126871253D01*
X139292893Y-126885867D01*
X139271849Y-126898480D01*
X139249671Y-126908970D01*
X139226571Y-126917235D01*
X139202773Y-126923196D01*
X139178504Y-126926796D01*
X139154000Y-126928000D01*
X137954000Y-126928000D01*
X137929496Y-126926796D01*
X137905227Y-126923196D01*
X137881429Y-126917235D01*
X137858329Y-126908970D01*
X137836151Y-126898480D01*
X137815107Y-126885867D01*
X137795402Y-126871253D01*
X137777223Y-126854777D01*
X137760747Y-126836598D01*
X137746133Y-126816893D01*
X137733520Y-126795849D01*
X137723030Y-126773671D01*
X137714765Y-126750571D01*
X137708804Y-126726773D01*
X137705204Y-126702504D01*
X137704000Y-126678000D01*
X137704000Y-125228000D01*
X137705204Y-125203496D01*
X137708804Y-125179227D01*
X137714765Y-125155429D01*
X137723030Y-125132329D01*
X137733520Y-125110151D01*
X137746133Y-125089107D01*
X137760747Y-125069402D01*
X137777223Y-125051223D01*
X137795402Y-125034747D01*
X137815107Y-125020133D01*
X137836151Y-125007520D01*
X137858329Y-124997030D01*
X137881429Y-124988765D01*
X137905227Y-124982804D01*
X137929496Y-124979204D01*
X137954000Y-124978000D01*
X139154000Y-124978000D01*
X139178504Y-124979204D01*
X139178504Y-124979204D01*
G37*
D16*
X138554000Y-125953000D03*
D17*
X160454000Y-130853000D03*
X160454000Y-92753000D03*
X93754000Y-92753000D03*
D18*
X162954000Y-125353000D03*
D19*
X162954000Y-122813000D03*
X162954000Y-120273000D03*
X162954000Y-117733000D03*
X155334000Y-117733000D03*
X155334000Y-120273000D03*
X155334000Y-122813000D03*
X155334000Y-125353000D03*
D17*
X93754000Y-130753000D03*
D20*
X110939200Y-109183200D03*
X119397400Y-102147400D03*
X137126600Y-114695000D03*
X109415200Y-118098600D03*
X112793400Y-101690200D03*
X117543200Y-114136200D03*
X116603400Y-125337600D03*
X144137000Y-106490800D03*
X112310800Y-110554800D03*
X133723000Y-119698800D03*
X119549800Y-112053400D03*
X129252600Y-115076000D03*
X142892400Y-109462600D03*
X129278000Y-118987600D03*
X134434200Y-108421200D03*
X138599800Y-112282000D03*
X149750400Y-111850200D03*
X155186000Y-111189800D03*
X156732688Y-103953512D03*
X124172600Y-115253800D03*
X149631400Y-103378000D03*
X119041800Y-109691200D03*
X136161400Y-125032800D03*
X119016400Y-116981000D03*
X137499945Y-118360255D03*
X152543456Y-116626344D03*
D21*
G36*
X157475161Y-90308330D02*
G01*
X157055467Y-90936446D01*
X156766377Y-91634372D01*
X156619000Y-92375285D01*
X156619000Y-93130715D01*
X156766377Y-93871628D01*
X157055467Y-94569554D01*
X157475161Y-95197670D01*
X158009330Y-95731839D01*
X158637446Y-96151533D01*
X159335372Y-96440623D01*
X160076285Y-96588000D01*
X160831715Y-96588000D01*
X161572628Y-96440623D01*
X162270554Y-96151533D01*
X162898670Y-95731839D01*
X163432839Y-95197670D01*
X163844000Y-94582324D01*
X163844001Y-116601820D01*
X163633727Y-116461320D01*
X163372574Y-116353147D01*
X163095335Y-116298000D01*
X162812665Y-116298000D01*
X162535426Y-116353147D01*
X162274273Y-116461320D01*
X162039241Y-116618363D01*
X161839363Y-116818241D01*
X161682320Y-117053273D01*
X161574147Y-117314426D01*
X161519000Y-117591665D01*
X161519000Y-117874335D01*
X161574147Y-118151574D01*
X161682320Y-118412727D01*
X161839363Y-118647759D01*
X162039241Y-118847637D01*
X162271759Y-119003000D01*
X162039241Y-119158363D01*
X161839363Y-119358241D01*
X161682320Y-119593273D01*
X161574147Y-119854426D01*
X161519000Y-120131665D01*
X161519000Y-120414335D01*
X161574147Y-120691574D01*
X161682320Y-120952727D01*
X161839363Y-121187759D01*
X162039241Y-121387637D01*
X162271759Y-121543000D01*
X162039241Y-121698363D01*
X161839363Y-121898241D01*
X161682320Y-122133273D01*
X161574147Y-122394426D01*
X161519000Y-122671665D01*
X161519000Y-122954335D01*
X161574147Y-123231574D01*
X161682320Y-123492727D01*
X161839363Y-123727759D01*
X162037961Y-123926357D01*
X162029518Y-123927188D01*
X161909820Y-123963498D01*
X161799506Y-124022463D01*
X161702815Y-124101815D01*
X161623463Y-124198506D01*
X161564498Y-124308820D01*
X161528188Y-124428518D01*
X161515928Y-124553000D01*
X161515928Y-126153000D01*
X161528188Y-126277482D01*
X161564498Y-126397180D01*
X161623463Y-126507494D01*
X161702815Y-126604185D01*
X161799506Y-126683537D01*
X161909820Y-126742502D01*
X162029518Y-126778812D01*
X162154000Y-126791072D01*
X163754000Y-126791072D01*
X163844001Y-126782208D01*
X163844001Y-129023677D01*
X163432839Y-128408330D01*
X162898670Y-127874161D01*
X162270554Y-127454467D01*
X161572628Y-127165377D01*
X160831715Y-127018000D01*
X160076285Y-127018000D01*
X159335372Y-127165377D01*
X158637446Y-127454467D01*
X158009330Y-127874161D01*
X157475161Y-128408330D01*
X157055467Y-129036446D01*
X156766377Y-129734372D01*
X156619000Y-130475285D01*
X156619000Y-131230715D01*
X156766377Y-131971628D01*
X157055467Y-132669554D01*
X157475161Y-133297670D01*
X157706491Y-133529000D01*
X96401509Y-133529000D01*
X96732839Y-133197670D01*
X97152533Y-132569554D01*
X97441623Y-131871628D01*
X97589000Y-131130715D01*
X97589000Y-130375285D01*
X97584568Y-130353000D01*
X98815928Y-130353000D01*
X98828188Y-130477482D01*
X98864498Y-130597180D01*
X98923463Y-130707494D01*
X99002815Y-130804185D01*
X99099506Y-130883537D01*
X99209820Y-130942502D01*
X99329518Y-130978812D01*
X99454000Y-130991072D01*
X100468250Y-130988000D01*
X100627000Y-130829250D01*
X100627000Y-129180000D01*
X100881000Y-129180000D01*
X100881000Y-130829250D01*
X101039750Y-130988000D01*
X102054000Y-130991072D01*
X102178482Y-130978812D01*
X102298180Y-130942502D01*
X102408494Y-130883537D01*
X102505185Y-130804185D01*
X102584537Y-130707494D01*
X102643502Y-130597180D01*
X102679812Y-130477482D01*
X102692072Y-130353000D01*
X102689000Y-129338750D01*
X102530250Y-129180000D01*
X100881000Y-129180000D01*
X100627000Y-129180000D01*
X98977750Y-129180000D01*
X98819000Y-129338750D01*
X98815928Y-130353000D01*
X97584568Y-130353000D01*
X97441623Y-129634372D01*
X97152533Y-128936446D01*
X96732839Y-128308330D01*
X96198670Y-127774161D01*
X96167001Y-127753000D01*
X98815928Y-127753000D01*
X98819000Y-128767250D01*
X98977750Y-128926000D01*
X100627000Y-128926000D01*
X100627000Y-127276750D01*
X100881000Y-127276750D01*
X100881000Y-128926000D01*
X102530250Y-128926000D01*
X102593831Y-128862419D01*
X103819000Y-128862419D01*
X103819000Y-129243581D01*
X103893361Y-129617419D01*
X104039225Y-129969566D01*
X104250987Y-130286491D01*
X104520509Y-130556013D01*
X104837434Y-130767775D01*
X105189581Y-130913639D01*
X105563419Y-130988000D01*
X105944581Y-130988000D01*
X106318419Y-130913639D01*
X106670566Y-130767775D01*
X106987491Y-130556013D01*
X107257013Y-130286491D01*
X107468775Y-129969566D01*
X107614639Y-129617419D01*
X107689000Y-129243581D01*
X107689000Y-128862419D01*
X108819000Y-128862419D01*
X108819000Y-129243581D01*
X108893361Y-129617419D01*
X109039225Y-129969566D01*
X109250987Y-130286491D01*
X109520509Y-130556013D01*
X109837434Y-130767775D01*
X110189581Y-130913639D01*
X110563419Y-130988000D01*
X110944581Y-130988000D01*
X111318419Y-130913639D01*
X111670566Y-130767775D01*
X111987491Y-130556013D01*
X112257013Y-130286491D01*
X112468775Y-129969566D01*
X112614639Y-129617419D01*
X112689000Y-129243581D01*
X112689000Y-128862419D01*
X113819000Y-128862419D01*
X113819000Y-129243581D01*
X113893361Y-129617419D01*
X114039225Y-129969566D01*
X114250987Y-130286491D01*
X114520509Y-130556013D01*
X114837434Y-130767775D01*
X115189581Y-130913639D01*
X115563419Y-130988000D01*
X115944581Y-130988000D01*
X116318419Y-130913639D01*
X116670566Y-130767775D01*
X116987491Y-130556013D01*
X117257013Y-130286491D01*
X117468775Y-129969566D01*
X117614639Y-129617419D01*
X117689000Y-129243581D01*
X117689000Y-128862419D01*
X117614639Y-128488581D01*
X117468775Y-128136434D01*
X117257013Y-127819509D01*
X117090504Y-127653000D01*
X120215928Y-127653000D01*
X120215928Y-130253000D01*
X120228188Y-130377482D01*
X120264498Y-130497180D01*
X120323463Y-130607494D01*
X120402815Y-130704185D01*
X120499506Y-130783537D01*
X120609820Y-130842502D01*
X120729518Y-130878812D01*
X120854000Y-130891072D01*
X123454000Y-130891072D01*
X123578482Y-130878812D01*
X123698180Y-130842502D01*
X123808494Y-130783537D01*
X123905185Y-130704185D01*
X123984537Y-130607494D01*
X124043502Y-130497180D01*
X124079812Y-130377482D01*
X124092072Y-130253000D01*
X124092072Y-128762419D01*
X125219000Y-128762419D01*
X125219000Y-129143581D01*
X125293361Y-129517419D01*
X125439225Y-129869566D01*
X125650987Y-130186491D01*
X125920509Y-130456013D01*
X126237434Y-130667775D01*
X126589581Y-130813639D01*
X126963419Y-130888000D01*
X127344581Y-130888000D01*
X127718419Y-130813639D01*
X128070566Y-130667775D01*
X128387491Y-130456013D01*
X128541280Y-130302224D01*
X130984381Y-130302224D01*
X131116317Y-130597312D01*
X131457045Y-130768159D01*
X131824557Y-130869250D01*
X132204729Y-130896701D01*
X132582951Y-130849457D01*
X132944690Y-130729333D01*
X133191683Y-130597312D01*
X133323619Y-130302224D01*
X132154000Y-129132605D01*
X130984381Y-130302224D01*
X128541280Y-130302224D01*
X128657013Y-130186491D01*
X128868775Y-129869566D01*
X129014639Y-129517419D01*
X129089000Y-129143581D01*
X129089000Y-129003729D01*
X130210299Y-129003729D01*
X130257543Y-129381951D01*
X130377667Y-129743690D01*
X130509688Y-129990683D01*
X130804776Y-130122619D01*
X131974395Y-128953000D01*
X132333605Y-128953000D01*
X133503224Y-130122619D01*
X133798312Y-129990683D01*
X133969159Y-129649955D01*
X134070250Y-129282443D01*
X134097701Y-128902271D01*
X134050457Y-128524049D01*
X133930333Y-128162310D01*
X133798312Y-127915317D01*
X133503224Y-127783381D01*
X132333605Y-128953000D01*
X131974395Y-128953000D01*
X130804776Y-127783381D01*
X130509688Y-127915317D01*
X130338841Y-128256045D01*
X130237750Y-128623557D01*
X130210299Y-129003729D01*
X129089000Y-129003729D01*
X129089000Y-128762419D01*
X129014639Y-128388581D01*
X128868775Y-128036434D01*
X128657013Y-127719509D01*
X128541280Y-127603776D01*
X130984381Y-127603776D01*
X132154000Y-128773395D01*
X133323619Y-127603776D01*
X133191683Y-127308688D01*
X132850955Y-127137841D01*
X132483443Y-127036750D01*
X132103271Y-127009299D01*
X131725049Y-127056543D01*
X131363310Y-127176667D01*
X131116317Y-127308688D01*
X130984381Y-127603776D01*
X128541280Y-127603776D01*
X128387491Y-127449987D01*
X128070566Y-127238225D01*
X127718419Y-127092361D01*
X127344581Y-127018000D01*
X126963419Y-127018000D01*
X126589581Y-127092361D01*
X126237434Y-127238225D01*
X125920509Y-127449987D01*
X125650987Y-127719509D01*
X125439225Y-128036434D01*
X125293361Y-128388581D01*
X125219000Y-128762419D01*
X124092072Y-128762419D01*
X124092072Y-127653000D01*
X124079812Y-127528518D01*
X124043502Y-127408820D01*
X123984537Y-127298506D01*
X123905185Y-127201815D01*
X123808494Y-127122463D01*
X123698180Y-127063498D01*
X123578482Y-127027188D01*
X123454000Y-127014928D01*
X120854000Y-127014928D01*
X120729518Y-127027188D01*
X120609820Y-127063498D01*
X120499506Y-127122463D01*
X120402815Y-127201815D01*
X120323463Y-127298506D01*
X120264498Y-127408820D01*
X120228188Y-127528518D01*
X120215928Y-127653000D01*
X117090504Y-127653000D01*
X116987491Y-127549987D01*
X116670566Y-127338225D01*
X116318419Y-127192361D01*
X115944581Y-127118000D01*
X115563419Y-127118000D01*
X115189581Y-127192361D01*
X114837434Y-127338225D01*
X114520509Y-127549987D01*
X114250987Y-127819509D01*
X114039225Y-128136434D01*
X113893361Y-128488581D01*
X113819000Y-128862419D01*
X112689000Y-128862419D01*
X112614639Y-128488581D01*
X112468775Y-128136434D01*
X112257013Y-127819509D01*
X111987491Y-127549987D01*
X111670566Y-127338225D01*
X111318419Y-127192361D01*
X110944581Y-127118000D01*
X110563419Y-127118000D01*
X110189581Y-127192361D01*
X109837434Y-127338225D01*
X109520509Y-127549987D01*
X109250987Y-127819509D01*
X109039225Y-128136434D01*
X108893361Y-128488581D01*
X108819000Y-128862419D01*
X107689000Y-128862419D01*
X107614639Y-128488581D01*
X107468775Y-128136434D01*
X107257013Y-127819509D01*
X106987491Y-127549987D01*
X106670566Y-127338225D01*
X106318419Y-127192361D01*
X105944581Y-127118000D01*
X105563419Y-127118000D01*
X105189581Y-127192361D01*
X104837434Y-127338225D01*
X104520509Y-127549987D01*
X104250987Y-127819509D01*
X104039225Y-128136434D01*
X103893361Y-128488581D01*
X103819000Y-128862419D01*
X102593831Y-128862419D01*
X102689000Y-128767250D01*
X102692072Y-127753000D01*
X102679812Y-127628518D01*
X102643502Y-127508820D01*
X102584537Y-127398506D01*
X102505185Y-127301815D01*
X102408494Y-127222463D01*
X102298180Y-127163498D01*
X102178482Y-127127188D01*
X102054000Y-127114928D01*
X101039750Y-127118000D01*
X100881000Y-127276750D01*
X100627000Y-127276750D01*
X100468250Y-127118000D01*
X99454000Y-127114928D01*
X99329518Y-127127188D01*
X99209820Y-127163498D01*
X99099506Y-127222463D01*
X99002815Y-127301815D01*
X98923463Y-127398506D01*
X98864498Y-127508820D01*
X98828188Y-127628518D01*
X98815928Y-127753000D01*
X96167001Y-127753000D01*
X95570554Y-127354467D01*
X94872628Y-127065377D01*
X94131715Y-126918000D01*
X93376285Y-126918000D01*
X92635372Y-127065377D01*
X91937446Y-127354467D01*
X91309330Y-127774161D01*
X90775161Y-128308330D01*
X90372000Y-128911703D01*
X90372000Y-124932733D01*
X135145400Y-124932733D01*
X135145400Y-125132867D01*
X135184444Y-125329156D01*
X135261032Y-125514056D01*
X135372221Y-125680462D01*
X135513738Y-125821979D01*
X135680144Y-125933168D01*
X135865044Y-126009756D01*
X136061333Y-126048800D01*
X136261467Y-126048800D01*
X136457756Y-126009756D01*
X136642656Y-125933168D01*
X136809062Y-125821979D01*
X136950579Y-125680462D01*
X137061768Y-125514056D01*
X137065928Y-125504013D01*
X137065928Y-126678000D01*
X137082992Y-126851254D01*
X137133528Y-127017850D01*
X137215595Y-127171386D01*
X137326038Y-127305962D01*
X137460614Y-127416405D01*
X137614150Y-127498472D01*
X137780746Y-127549008D01*
X137954000Y-127566072D01*
X139154000Y-127566072D01*
X139327254Y-127549008D01*
X139493850Y-127498472D01*
X139647386Y-127416405D01*
X139781962Y-127305962D01*
X139892405Y-127171386D01*
X139946777Y-127069663D01*
X139998866Y-127133134D01*
X140224987Y-127318706D01*
X140482967Y-127456599D01*
X140762890Y-127541513D01*
X141054000Y-127570185D01*
X141345111Y-127541513D01*
X141625034Y-127456599D01*
X141883014Y-127318706D01*
X142109134Y-127133134D01*
X142294706Y-126907014D01*
X142304000Y-126889626D01*
X142313294Y-126907014D01*
X142498866Y-127133134D01*
X142724987Y-127318706D01*
X142982967Y-127456599D01*
X143262890Y-127541513D01*
X143554000Y-127570185D01*
X143845111Y-127541513D01*
X144125034Y-127456599D01*
X144383014Y-127318706D01*
X144609134Y-127133134D01*
X144794706Y-126907014D01*
X144804000Y-126889626D01*
X144813294Y-126907014D01*
X144998866Y-127133134D01*
X145224987Y-127318706D01*
X145482967Y-127456599D01*
X145762890Y-127541513D01*
X146054000Y-127570185D01*
X146345111Y-127541513D01*
X146625034Y-127456599D01*
X146883014Y-127318706D01*
X147109134Y-127133134D01*
X147294706Y-126907014D01*
X147304000Y-126889626D01*
X147313294Y-126907014D01*
X147498866Y-127133134D01*
X147724987Y-127318706D01*
X147982967Y-127456599D01*
X148262890Y-127541513D01*
X148554000Y-127570185D01*
X148845111Y-127541513D01*
X149125034Y-127456599D01*
X149383014Y-127318706D01*
X149609134Y-127133134D01*
X149794706Y-126907014D01*
X149932599Y-126649033D01*
X150017513Y-126369110D01*
X150039000Y-126150949D01*
X150039000Y-125755050D01*
X150017513Y-125536889D01*
X149932599Y-125256966D01*
X149794706Y-124998986D01*
X149609134Y-124772866D01*
X149383013Y-124587294D01*
X149125033Y-124449401D01*
X148845110Y-124364487D01*
X148554000Y-124335815D01*
X148262889Y-124364487D01*
X147982966Y-124449401D01*
X147724986Y-124587294D01*
X147498866Y-124772866D01*
X147313294Y-124998987D01*
X147304000Y-125016374D01*
X147294706Y-124998986D01*
X147109134Y-124772866D01*
X146883013Y-124587294D01*
X146625033Y-124449401D01*
X146345110Y-124364487D01*
X146054000Y-124335815D01*
X145762889Y-124364487D01*
X145482966Y-124449401D01*
X145224986Y-124587294D01*
X144998866Y-124772866D01*
X144813294Y-124998987D01*
X144804000Y-125016374D01*
X144794706Y-124998986D01*
X144609134Y-124772866D01*
X144383013Y-124587294D01*
X144125033Y-124449401D01*
X143845110Y-124364487D01*
X143554000Y-124335815D01*
X143262889Y-124364487D01*
X142982966Y-124449401D01*
X142724986Y-124587294D01*
X142498866Y-124772866D01*
X142313294Y-124998987D01*
X142304000Y-125016374D01*
X142294706Y-124998986D01*
X142109134Y-124772866D01*
X141883013Y-124587294D01*
X141625033Y-124449401D01*
X141345110Y-124364487D01*
X141054000Y-124335815D01*
X140762889Y-124364487D01*
X140482966Y-124449401D01*
X140224986Y-124587294D01*
X139998866Y-124772866D01*
X139946777Y-124836337D01*
X139892405Y-124734614D01*
X139781962Y-124600038D01*
X139647386Y-124489595D01*
X139493850Y-124407528D01*
X139327254Y-124356992D01*
X139154000Y-124339928D01*
X137954000Y-124339928D01*
X137780746Y-124356992D01*
X137614150Y-124407528D01*
X137460614Y-124489595D01*
X137326038Y-124600038D01*
X137215595Y-124734614D01*
X137159039Y-124840423D01*
X137138356Y-124736444D01*
X137061768Y-124551544D01*
X136950579Y-124385138D01*
X136809062Y-124243621D01*
X136642656Y-124132432D01*
X136457756Y-124055844D01*
X136261467Y-124016800D01*
X136061333Y-124016800D01*
X135865044Y-124055844D01*
X135680144Y-124132432D01*
X135513738Y-124243621D01*
X135372221Y-124385138D01*
X135261032Y-124551544D01*
X135184444Y-124736444D01*
X135145400Y-124932733D01*
X90372000Y-124932733D01*
X90372000Y-119562419D01*
X92919000Y-119562419D01*
X92919000Y-119943581D01*
X92993361Y-120317419D01*
X93139225Y-120669566D01*
X93350987Y-120986491D01*
X93620509Y-121256013D01*
X93937434Y-121467775D01*
X94289581Y-121613639D01*
X94663419Y-121688000D01*
X95044581Y-121688000D01*
X95418419Y-121613639D01*
X95770566Y-121467775D01*
X96087491Y-121256013D01*
X96357013Y-120986491D01*
X96568775Y-120669566D01*
X96714639Y-120317419D01*
X96789000Y-119943581D01*
X96789000Y-119562419D01*
X96773046Y-119482208D01*
X114241200Y-119482208D01*
X114241200Y-119757392D01*
X114294886Y-120027290D01*
X114400195Y-120281527D01*
X114553080Y-120510335D01*
X114747665Y-120704920D01*
X114976473Y-120857805D01*
X115230710Y-120963114D01*
X115500608Y-121016800D01*
X115775792Y-121016800D01*
X116045690Y-120963114D01*
X116299927Y-120857805D01*
X116528735Y-120704920D01*
X116723320Y-120510335D01*
X116876205Y-120281527D01*
X116981514Y-120027290D01*
X117035200Y-119757392D01*
X117035200Y-119482208D01*
X116981514Y-119212310D01*
X116876205Y-118958073D01*
X116829072Y-118887533D01*
X128262000Y-118887533D01*
X128262000Y-119087667D01*
X128301044Y-119283956D01*
X128377632Y-119468856D01*
X128488821Y-119635262D01*
X128630338Y-119776779D01*
X128796744Y-119887968D01*
X128981644Y-119964556D01*
X129177933Y-120003600D01*
X129378067Y-120003600D01*
X129574356Y-119964556D01*
X129759256Y-119887968D01*
X129925662Y-119776779D01*
X130067179Y-119635262D01*
X130091586Y-119598733D01*
X132707000Y-119598733D01*
X132707000Y-119798867D01*
X132746044Y-119995156D01*
X132822632Y-120180056D01*
X132933821Y-120346462D01*
X133075338Y-120487979D01*
X133241744Y-120599168D01*
X133426644Y-120675756D01*
X133622933Y-120714800D01*
X133823067Y-120714800D01*
X134019356Y-120675756D01*
X134204256Y-120599168D01*
X134370662Y-120487979D01*
X134512179Y-120346462D01*
X134623368Y-120180056D01*
X134699956Y-119995156D01*
X134739000Y-119798867D01*
X134739000Y-119598733D01*
X134699956Y-119402444D01*
X134623368Y-119217544D01*
X134512179Y-119051138D01*
X134370662Y-118909621D01*
X134204256Y-118798432D01*
X134019356Y-118721844D01*
X133823067Y-118682800D01*
X133622933Y-118682800D01*
X133426644Y-118721844D01*
X133241744Y-118798432D01*
X133075338Y-118909621D01*
X132933821Y-119051138D01*
X132822632Y-119217544D01*
X132746044Y-119402444D01*
X132707000Y-119598733D01*
X130091586Y-119598733D01*
X130178368Y-119468856D01*
X130254956Y-119283956D01*
X130294000Y-119087667D01*
X130294000Y-118887533D01*
X130254956Y-118691244D01*
X130178368Y-118506344D01*
X130067179Y-118339938D01*
X129987429Y-118260188D01*
X136483945Y-118260188D01*
X136483945Y-118460322D01*
X136522989Y-118656611D01*
X136599577Y-118841511D01*
X136710766Y-119007917D01*
X136852283Y-119149434D01*
X137018689Y-119260623D01*
X137203589Y-119337211D01*
X137399878Y-119376255D01*
X137600012Y-119376255D01*
X137796301Y-119337211D01*
X137981201Y-119260623D01*
X138147607Y-119149434D01*
X138289124Y-119007917D01*
X138400313Y-118841511D01*
X138476901Y-118656611D01*
X138515945Y-118460322D01*
X138515945Y-118260188D01*
X138476901Y-118063899D01*
X138400313Y-117878999D01*
X138289124Y-117712593D01*
X138147607Y-117571076D01*
X137981201Y-117459887D01*
X137796301Y-117383299D01*
X137600012Y-117344255D01*
X137399878Y-117344255D01*
X137203589Y-117383299D01*
X137018689Y-117459887D01*
X136852283Y-117571076D01*
X136710766Y-117712593D01*
X136599577Y-117878999D01*
X136522989Y-118063899D01*
X136483945Y-118260188D01*
X129987429Y-118260188D01*
X129925662Y-118198421D01*
X129759256Y-118087232D01*
X129574356Y-118010644D01*
X129378067Y-117971600D01*
X129177933Y-117971600D01*
X128981644Y-118010644D01*
X128796744Y-118087232D01*
X128630338Y-118198421D01*
X128488821Y-118339938D01*
X128377632Y-118506344D01*
X128301044Y-118691244D01*
X128262000Y-118887533D01*
X116829072Y-118887533D01*
X116723320Y-118729265D01*
X116528735Y-118534680D01*
X116299927Y-118381795D01*
X116045690Y-118276486D01*
X115775792Y-118222800D01*
X115500608Y-118222800D01*
X115230710Y-118276486D01*
X114976473Y-118381795D01*
X114747665Y-118534680D01*
X114553080Y-118729265D01*
X114400195Y-118958073D01*
X114294886Y-119212310D01*
X114241200Y-119482208D01*
X96773046Y-119482208D01*
X96714639Y-119188581D01*
X96568775Y-118836434D01*
X96357013Y-118519509D01*
X96087491Y-118249987D01*
X95770566Y-118038225D01*
X95674741Y-117998533D01*
X108399200Y-117998533D01*
X108399200Y-118198667D01*
X108438244Y-118394956D01*
X108514832Y-118579856D01*
X108626021Y-118746262D01*
X108767538Y-118887779D01*
X108933944Y-118998968D01*
X109118844Y-119075556D01*
X109315133Y-119114600D01*
X109515267Y-119114600D01*
X109711556Y-119075556D01*
X109896456Y-118998968D01*
X110062862Y-118887779D01*
X110204379Y-118746262D01*
X110315568Y-118579856D01*
X110392156Y-118394956D01*
X110431200Y-118198667D01*
X110431200Y-117998533D01*
X110392156Y-117802244D01*
X110315568Y-117617344D01*
X110204379Y-117450938D01*
X110062862Y-117309421D01*
X109896456Y-117198232D01*
X109711556Y-117121644D01*
X109515267Y-117082600D01*
X109315133Y-117082600D01*
X109118844Y-117121644D01*
X108933944Y-117198232D01*
X108767538Y-117309421D01*
X108626021Y-117450938D01*
X108514832Y-117617344D01*
X108438244Y-117802244D01*
X108399200Y-117998533D01*
X95674741Y-117998533D01*
X95418419Y-117892361D01*
X95044581Y-117818000D01*
X94663419Y-117818000D01*
X94289581Y-117892361D01*
X93937434Y-118038225D01*
X93620509Y-118249987D01*
X93350987Y-118519509D01*
X93139225Y-118836434D01*
X92993361Y-119188581D01*
X92919000Y-119562419D01*
X90372000Y-119562419D01*
X90372000Y-114562419D01*
X92919000Y-114562419D01*
X92919000Y-114943581D01*
X92993361Y-115317419D01*
X93139225Y-115669566D01*
X93350987Y-115986491D01*
X93620509Y-116256013D01*
X93937434Y-116467775D01*
X94289581Y-116613639D01*
X94663419Y-116688000D01*
X95044581Y-116688000D01*
X95418419Y-116613639D01*
X95770566Y-116467775D01*
X96087491Y-116256013D01*
X96357013Y-115986491D01*
X96444466Y-115855608D01*
X116197000Y-115855608D01*
X116197000Y-116130792D01*
X116250686Y-116400690D01*
X116355995Y-116654927D01*
X116508880Y-116883735D01*
X116703465Y-117078320D01*
X116932273Y-117231205D01*
X117186510Y-117336514D01*
X117456408Y-117390200D01*
X117731592Y-117390200D01*
X118001490Y-117336514D01*
X118054801Y-117314432D01*
X118116032Y-117462256D01*
X118227221Y-117628662D01*
X118368738Y-117770179D01*
X118535144Y-117881368D01*
X118720044Y-117957956D01*
X118916333Y-117997000D01*
X119116467Y-117997000D01*
X119312756Y-117957956D01*
X119497656Y-117881368D01*
X119664062Y-117770179D01*
X119805579Y-117628662D01*
X119916768Y-117462256D01*
X119993356Y-117277356D01*
X120032400Y-117081067D01*
X120032400Y-116880933D01*
X119993356Y-116684644D01*
X119927759Y-116526277D01*
X151527456Y-116526277D01*
X151527456Y-116726411D01*
X151566500Y-116922700D01*
X151643088Y-117107600D01*
X151754277Y-117274006D01*
X151895794Y-117415523D01*
X152062200Y-117526712D01*
X152247100Y-117603300D01*
X152443389Y-117642344D01*
X152643523Y-117642344D01*
X152839812Y-117603300D01*
X152867901Y-117591665D01*
X153899000Y-117591665D01*
X153899000Y-117874335D01*
X153954147Y-118151574D01*
X154062320Y-118412727D01*
X154219363Y-118647759D01*
X154419241Y-118847637D01*
X154651759Y-119003000D01*
X154419241Y-119158363D01*
X154219363Y-119358241D01*
X154062320Y-119593273D01*
X153954147Y-119854426D01*
X153899000Y-120131665D01*
X153899000Y-120414335D01*
X153954147Y-120691574D01*
X154062320Y-120952727D01*
X154219363Y-121187759D01*
X154419241Y-121387637D01*
X154651759Y-121543000D01*
X154419241Y-121698363D01*
X154219363Y-121898241D01*
X154062320Y-122133273D01*
X153954147Y-122394426D01*
X153899000Y-122671665D01*
X153899000Y-122954335D01*
X153954147Y-123231574D01*
X154062320Y-123492727D01*
X154219363Y-123727759D01*
X154419241Y-123927637D01*
X154651759Y-124083000D01*
X154419241Y-124238363D01*
X154219363Y-124438241D01*
X154062320Y-124673273D01*
X153954147Y-124934426D01*
X153899000Y-125211665D01*
X153899000Y-125494335D01*
X153954147Y-125771574D01*
X154062320Y-126032727D01*
X154219363Y-126267759D01*
X154419241Y-126467637D01*
X154654273Y-126624680D01*
X154915426Y-126732853D01*
X155192665Y-126788000D01*
X155475335Y-126788000D01*
X155752574Y-126732853D01*
X156013727Y-126624680D01*
X156248759Y-126467637D01*
X156448637Y-126267759D01*
X156605680Y-126032727D01*
X156713853Y-125771574D01*
X156769000Y-125494335D01*
X156769000Y-125211665D01*
X156713853Y-124934426D01*
X156605680Y-124673273D01*
X156448637Y-124438241D01*
X156248759Y-124238363D01*
X156016241Y-124083000D01*
X156248759Y-123927637D01*
X156448637Y-123727759D01*
X156605680Y-123492727D01*
X156713853Y-123231574D01*
X156769000Y-122954335D01*
X156769000Y-122671665D01*
X156713853Y-122394426D01*
X156605680Y-122133273D01*
X156448637Y-121898241D01*
X156248759Y-121698363D01*
X156016241Y-121543000D01*
X156248759Y-121387637D01*
X156448637Y-121187759D01*
X156605680Y-120952727D01*
X156713853Y-120691574D01*
X156769000Y-120414335D01*
X156769000Y-120131665D01*
X156713853Y-119854426D01*
X156605680Y-119593273D01*
X156448637Y-119358241D01*
X156248759Y-119158363D01*
X156016241Y-119003000D01*
X156248759Y-118847637D01*
X156448637Y-118647759D01*
X156605680Y-118412727D01*
X156713853Y-118151574D01*
X156769000Y-117874335D01*
X156769000Y-117591665D01*
X156713853Y-117314426D01*
X156605680Y-117053273D01*
X156448637Y-116818241D01*
X156248759Y-116618363D01*
X156013727Y-116461320D01*
X155752574Y-116353147D01*
X155475335Y-116298000D01*
X155192665Y-116298000D01*
X154915426Y-116353147D01*
X154654273Y-116461320D01*
X154419241Y-116618363D01*
X154219363Y-116818241D01*
X154062320Y-117053273D01*
X153954147Y-117314426D01*
X153899000Y-117591665D01*
X152867901Y-117591665D01*
X153024712Y-117526712D01*
X153191118Y-117415523D01*
X153332635Y-117274006D01*
X153443824Y-117107600D01*
X153520412Y-116922700D01*
X153559456Y-116726411D01*
X153559456Y-116526277D01*
X153520412Y-116329988D01*
X153443824Y-116145088D01*
X153332635Y-115978682D01*
X153191118Y-115837165D01*
X153024712Y-115725976D01*
X152839812Y-115649388D01*
X152643523Y-115610344D01*
X152443389Y-115610344D01*
X152247100Y-115649388D01*
X152062200Y-115725976D01*
X151895794Y-115837165D01*
X151754277Y-115978682D01*
X151643088Y-116145088D01*
X151566500Y-116329988D01*
X151527456Y-116526277D01*
X119927759Y-116526277D01*
X119916768Y-116499744D01*
X119805579Y-116333338D01*
X119664062Y-116191821D01*
X119497656Y-116080632D01*
X119312756Y-116004044D01*
X119116467Y-115965000D01*
X118991000Y-115965000D01*
X118991000Y-115855608D01*
X118937314Y-115585710D01*
X118832005Y-115331473D01*
X118713243Y-115153733D01*
X123156600Y-115153733D01*
X123156600Y-115353867D01*
X123195644Y-115550156D01*
X123272232Y-115735056D01*
X123383421Y-115901462D01*
X123524938Y-116042979D01*
X123691344Y-116154168D01*
X123876244Y-116230756D01*
X124072533Y-116269800D01*
X124272667Y-116269800D01*
X124468956Y-116230756D01*
X124653856Y-116154168D01*
X124820262Y-116042979D01*
X124961779Y-115901462D01*
X125072968Y-115735056D01*
X125149556Y-115550156D01*
X125188600Y-115353867D01*
X125188600Y-115153733D01*
X125153234Y-114975933D01*
X128236600Y-114975933D01*
X128236600Y-115176067D01*
X128275644Y-115372356D01*
X128352232Y-115557256D01*
X128463421Y-115723662D01*
X128604938Y-115865179D01*
X128771344Y-115976368D01*
X128956244Y-116052956D01*
X129152533Y-116092000D01*
X129352667Y-116092000D01*
X129548956Y-116052956D01*
X129733856Y-115976368D01*
X129900262Y-115865179D01*
X130041779Y-115723662D01*
X130152968Y-115557256D01*
X130229556Y-115372356D01*
X130268600Y-115176067D01*
X130268600Y-114975933D01*
X130229556Y-114779644D01*
X130153047Y-114594933D01*
X136110600Y-114594933D01*
X136110600Y-114795067D01*
X136149644Y-114991356D01*
X136226232Y-115176256D01*
X136337421Y-115342662D01*
X136478938Y-115484179D01*
X136645344Y-115595368D01*
X136830244Y-115671956D01*
X137026533Y-115711000D01*
X137226667Y-115711000D01*
X137422956Y-115671956D01*
X137607856Y-115595368D01*
X137774262Y-115484179D01*
X137915779Y-115342662D01*
X138026968Y-115176256D01*
X138103556Y-114991356D01*
X138142600Y-114795067D01*
X138142600Y-114594933D01*
X138103556Y-114398644D01*
X138026968Y-114213744D01*
X137915779Y-114047338D01*
X137774262Y-113905821D01*
X137607856Y-113794632D01*
X137422956Y-113718044D01*
X137226667Y-113679000D01*
X137026533Y-113679000D01*
X136830244Y-113718044D01*
X136645344Y-113794632D01*
X136478938Y-113905821D01*
X136337421Y-114047338D01*
X136226232Y-114213744D01*
X136149644Y-114398644D01*
X136110600Y-114594933D01*
X130153047Y-114594933D01*
X130152968Y-114594744D01*
X130041779Y-114428338D01*
X129900262Y-114286821D01*
X129733856Y-114175632D01*
X129548956Y-114099044D01*
X129352667Y-114060000D01*
X129152533Y-114060000D01*
X128956244Y-114099044D01*
X128771344Y-114175632D01*
X128604938Y-114286821D01*
X128463421Y-114428338D01*
X128352232Y-114594744D01*
X128275644Y-114779644D01*
X128236600Y-114975933D01*
X125153234Y-114975933D01*
X125149556Y-114957444D01*
X125072968Y-114772544D01*
X124961779Y-114606138D01*
X124820262Y-114464621D01*
X124653856Y-114353432D01*
X124468956Y-114276844D01*
X124272667Y-114237800D01*
X124072533Y-114237800D01*
X123876244Y-114276844D01*
X123691344Y-114353432D01*
X123524938Y-114464621D01*
X123383421Y-114606138D01*
X123272232Y-114772544D01*
X123195644Y-114957444D01*
X123156600Y-115153733D01*
X118713243Y-115153733D01*
X118679120Y-115102665D01*
X118484535Y-114908080D01*
X118318861Y-114797380D01*
X118332379Y-114783862D01*
X118443568Y-114617456D01*
X118520156Y-114432556D01*
X118559200Y-114236267D01*
X118559200Y-114036133D01*
X118520156Y-113839844D01*
X118443568Y-113654944D01*
X118332379Y-113488538D01*
X118190862Y-113347021D01*
X118024456Y-113235832D01*
X117839556Y-113159244D01*
X117643267Y-113120200D01*
X117443133Y-113120200D01*
X117246844Y-113159244D01*
X117061944Y-113235832D01*
X116895538Y-113347021D01*
X116754021Y-113488538D01*
X116642832Y-113654944D01*
X116566244Y-113839844D01*
X116527200Y-114036133D01*
X116527200Y-114236267D01*
X116566244Y-114432556D01*
X116642832Y-114617456D01*
X116754021Y-114783862D01*
X116808234Y-114838075D01*
X116703465Y-114908080D01*
X116508880Y-115102665D01*
X116355995Y-115331473D01*
X116250686Y-115585710D01*
X116197000Y-115855608D01*
X96444466Y-115855608D01*
X96568775Y-115669566D01*
X96714639Y-115317419D01*
X96789000Y-114943581D01*
X96789000Y-114562419D01*
X96714639Y-114188581D01*
X96568775Y-113836434D01*
X96357013Y-113519509D01*
X96087491Y-113249987D01*
X95770566Y-113038225D01*
X95418419Y-112892361D01*
X95044581Y-112818000D01*
X94663419Y-112818000D01*
X94289581Y-112892361D01*
X93937434Y-113038225D01*
X93620509Y-113249987D01*
X93350987Y-113519509D01*
X93139225Y-113836434D01*
X92993361Y-114188581D01*
X92919000Y-114562419D01*
X90372000Y-114562419D01*
X90372000Y-111953333D01*
X118533800Y-111953333D01*
X118533800Y-112153467D01*
X118572844Y-112349756D01*
X118649432Y-112534656D01*
X118760621Y-112701062D01*
X118902138Y-112842579D01*
X119068544Y-112953768D01*
X119253444Y-113030356D01*
X119449733Y-113069400D01*
X119649867Y-113069400D01*
X119846156Y-113030356D01*
X120031056Y-112953768D01*
X120197462Y-112842579D01*
X120338979Y-112701062D01*
X120450168Y-112534656D01*
X120526756Y-112349756D01*
X120560137Y-112181933D01*
X137583800Y-112181933D01*
X137583800Y-112382067D01*
X137622844Y-112578356D01*
X137699432Y-112763256D01*
X137810621Y-112929662D01*
X137952138Y-113071179D01*
X138118544Y-113182368D01*
X138303444Y-113258956D01*
X138499733Y-113298000D01*
X138699867Y-113298000D01*
X138896156Y-113258956D01*
X139081056Y-113182368D01*
X139247462Y-113071179D01*
X139388979Y-112929662D01*
X139500168Y-112763256D01*
X139576756Y-112578356D01*
X139615800Y-112382067D01*
X139615800Y-112181933D01*
X139576756Y-111985644D01*
X139500168Y-111800744D01*
X139466351Y-111750133D01*
X148734400Y-111750133D01*
X148734400Y-111950267D01*
X148773444Y-112146556D01*
X148850032Y-112331456D01*
X148961221Y-112497862D01*
X149102738Y-112639379D01*
X149269144Y-112750568D01*
X149454044Y-112827156D01*
X149650333Y-112866200D01*
X149850467Y-112866200D01*
X150046756Y-112827156D01*
X150231656Y-112750568D01*
X150398062Y-112639379D01*
X150539579Y-112497862D01*
X150650768Y-112331456D01*
X150727356Y-112146556D01*
X150766400Y-111950267D01*
X150766400Y-111750133D01*
X150727356Y-111553844D01*
X150650768Y-111368944D01*
X150539579Y-111202538D01*
X150426774Y-111089733D01*
X154170000Y-111089733D01*
X154170000Y-111289867D01*
X154209044Y-111486156D01*
X154285632Y-111671056D01*
X154396821Y-111837462D01*
X154538338Y-111978979D01*
X154704744Y-112090168D01*
X154889644Y-112166756D01*
X155085933Y-112205800D01*
X155286067Y-112205800D01*
X155482356Y-112166756D01*
X155667256Y-112090168D01*
X155833662Y-111978979D01*
X155975179Y-111837462D01*
X156086368Y-111671056D01*
X156162956Y-111486156D01*
X156202000Y-111289867D01*
X156202000Y-111089733D01*
X156162956Y-110893444D01*
X156086368Y-110708544D01*
X155975179Y-110542138D01*
X155833662Y-110400621D01*
X155667256Y-110289432D01*
X155482356Y-110212844D01*
X155286067Y-110173800D01*
X155085933Y-110173800D01*
X154889644Y-110212844D01*
X154704744Y-110289432D01*
X154538338Y-110400621D01*
X154396821Y-110542138D01*
X154285632Y-110708544D01*
X154209044Y-110893444D01*
X154170000Y-111089733D01*
X150426774Y-111089733D01*
X150398062Y-111061021D01*
X150231656Y-110949832D01*
X150046756Y-110873244D01*
X149850467Y-110834200D01*
X149650333Y-110834200D01*
X149454044Y-110873244D01*
X149269144Y-110949832D01*
X149102738Y-111061021D01*
X148961221Y-111202538D01*
X148850032Y-111368944D01*
X148773444Y-111553844D01*
X148734400Y-111750133D01*
X139466351Y-111750133D01*
X139388979Y-111634338D01*
X139247462Y-111492821D01*
X139081056Y-111381632D01*
X138896156Y-111305044D01*
X138699867Y-111266000D01*
X138499733Y-111266000D01*
X138303444Y-111305044D01*
X138118544Y-111381632D01*
X137952138Y-111492821D01*
X137810621Y-111634338D01*
X137699432Y-111800744D01*
X137622844Y-111985644D01*
X137583800Y-112181933D01*
X120560137Y-112181933D01*
X120565800Y-112153467D01*
X120565800Y-111953333D01*
X120526756Y-111757044D01*
X120450168Y-111572144D01*
X120338979Y-111405738D01*
X120197462Y-111264221D01*
X120031056Y-111153032D01*
X119846156Y-111076444D01*
X119649867Y-111037400D01*
X119449733Y-111037400D01*
X119253444Y-111076444D01*
X119068544Y-111153032D01*
X118902138Y-111264221D01*
X118760621Y-111405738D01*
X118649432Y-111572144D01*
X118572844Y-111757044D01*
X118533800Y-111953333D01*
X90372000Y-111953333D01*
X90372000Y-109562419D01*
X92919000Y-109562419D01*
X92919000Y-109943581D01*
X92993361Y-110317419D01*
X93139225Y-110669566D01*
X93350987Y-110986491D01*
X93620509Y-111256013D01*
X93937434Y-111467775D01*
X94289581Y-111613639D01*
X94663419Y-111688000D01*
X95044581Y-111688000D01*
X95418419Y-111613639D01*
X95770566Y-111467775D01*
X96087491Y-111256013D01*
X96357013Y-110986491D01*
X96568775Y-110669566D01*
X96714639Y-110317419D01*
X96789000Y-109943581D01*
X96789000Y-109562419D01*
X96714639Y-109188581D01*
X96670962Y-109083133D01*
X109923200Y-109083133D01*
X109923200Y-109283267D01*
X109962244Y-109479556D01*
X110038832Y-109664456D01*
X110150021Y-109830862D01*
X110291538Y-109972379D01*
X110457944Y-110083568D01*
X110642844Y-110160156D01*
X110839133Y-110199200D01*
X111039267Y-110199200D01*
X111235556Y-110160156D01*
X111420456Y-110083568D01*
X111586862Y-109972379D01*
X111728379Y-109830862D01*
X111839568Y-109664456D01*
X111869939Y-109591133D01*
X118025800Y-109591133D01*
X118025800Y-109791267D01*
X118064844Y-109987556D01*
X118141432Y-110172456D01*
X118252621Y-110338862D01*
X118394138Y-110480379D01*
X118560544Y-110591568D01*
X118745444Y-110668156D01*
X118941733Y-110707200D01*
X119141867Y-110707200D01*
X119338156Y-110668156D01*
X119523056Y-110591568D01*
X119689462Y-110480379D01*
X119830979Y-110338862D01*
X119942168Y-110172456D01*
X120018756Y-109987556D01*
X120057800Y-109791267D01*
X120057800Y-109591133D01*
X120018756Y-109394844D01*
X119942168Y-109209944D01*
X119830979Y-109043538D01*
X119689462Y-108902021D01*
X119523056Y-108790832D01*
X119338156Y-108714244D01*
X119141867Y-108675200D01*
X118941733Y-108675200D01*
X118745444Y-108714244D01*
X118560544Y-108790832D01*
X118394138Y-108902021D01*
X118252621Y-109043538D01*
X118141432Y-109209944D01*
X118064844Y-109394844D01*
X118025800Y-109591133D01*
X111869939Y-109591133D01*
X111916156Y-109479556D01*
X111955200Y-109283267D01*
X111955200Y-109083133D01*
X111916156Y-108886844D01*
X111839568Y-108701944D01*
X111728379Y-108535538D01*
X111586862Y-108394021D01*
X111477778Y-108321133D01*
X133418200Y-108321133D01*
X133418200Y-108521267D01*
X133457244Y-108717556D01*
X133533832Y-108902456D01*
X133645021Y-109068862D01*
X133786538Y-109210379D01*
X133952944Y-109321568D01*
X134137844Y-109398156D01*
X134334133Y-109437200D01*
X134534267Y-109437200D01*
X134730556Y-109398156D01*
X134816557Y-109362533D01*
X141876400Y-109362533D01*
X141876400Y-109562667D01*
X141915444Y-109758956D01*
X141992032Y-109943856D01*
X142103221Y-110110262D01*
X142244738Y-110251779D01*
X142411144Y-110362968D01*
X142596044Y-110439556D01*
X142792333Y-110478600D01*
X142992467Y-110478600D01*
X143188756Y-110439556D01*
X143373656Y-110362968D01*
X143540062Y-110251779D01*
X143681579Y-110110262D01*
X143792768Y-109943856D01*
X143869356Y-109758956D01*
X143908400Y-109562667D01*
X143908400Y-109362533D01*
X143869356Y-109166244D01*
X143792768Y-108981344D01*
X143681579Y-108814938D01*
X143540062Y-108673421D01*
X143373656Y-108562232D01*
X143188756Y-108485644D01*
X142992467Y-108446600D01*
X142792333Y-108446600D01*
X142596044Y-108485644D01*
X142411144Y-108562232D01*
X142244738Y-108673421D01*
X142103221Y-108814938D01*
X141992032Y-108981344D01*
X141915444Y-109166244D01*
X141876400Y-109362533D01*
X134816557Y-109362533D01*
X134915456Y-109321568D01*
X135081862Y-109210379D01*
X135223379Y-109068862D01*
X135334568Y-108902456D01*
X135411156Y-108717556D01*
X135450200Y-108521267D01*
X135450200Y-108321133D01*
X135411156Y-108124844D01*
X135334568Y-107939944D01*
X135223379Y-107773538D01*
X135081862Y-107632021D01*
X134915456Y-107520832D01*
X134730556Y-107444244D01*
X134534267Y-107405200D01*
X134334133Y-107405200D01*
X134137844Y-107444244D01*
X133952944Y-107520832D01*
X133786538Y-107632021D01*
X133645021Y-107773538D01*
X133533832Y-107939944D01*
X133457244Y-108124844D01*
X133418200Y-108321133D01*
X111477778Y-108321133D01*
X111420456Y-108282832D01*
X111235556Y-108206244D01*
X111039267Y-108167200D01*
X110839133Y-108167200D01*
X110642844Y-108206244D01*
X110457944Y-108282832D01*
X110291538Y-108394021D01*
X110150021Y-108535538D01*
X110038832Y-108701944D01*
X109962244Y-108886844D01*
X109923200Y-109083133D01*
X96670962Y-109083133D01*
X96568775Y-108836434D01*
X96357013Y-108519509D01*
X96087491Y-108249987D01*
X95770566Y-108038225D01*
X95418419Y-107892361D01*
X95044581Y-107818000D01*
X94663419Y-107818000D01*
X94289581Y-107892361D01*
X93937434Y-108038225D01*
X93620509Y-108249987D01*
X93350987Y-108519509D01*
X93139225Y-108836434D01*
X92993361Y-109188581D01*
X92919000Y-109562419D01*
X90372000Y-109562419D01*
X90372000Y-106053000D01*
X92915928Y-106053000D01*
X92928188Y-106177482D01*
X92964498Y-106297180D01*
X93023463Y-106407494D01*
X93102815Y-106504185D01*
X93199506Y-106583537D01*
X93309820Y-106642502D01*
X93429518Y-106678812D01*
X93554000Y-106691072D01*
X94568250Y-106688000D01*
X94727000Y-106529250D01*
X94727000Y-104880000D01*
X94981000Y-104880000D01*
X94981000Y-106529250D01*
X95139750Y-106688000D01*
X96154000Y-106691072D01*
X96278482Y-106678812D01*
X96398180Y-106642502D01*
X96508494Y-106583537D01*
X96605185Y-106504185D01*
X96684537Y-106407494D01*
X96743502Y-106297180D01*
X96779812Y-106177482D01*
X96790022Y-106073808D01*
X130700400Y-106073808D01*
X130700400Y-106348992D01*
X130754086Y-106618890D01*
X130859395Y-106873127D01*
X131012280Y-107101935D01*
X131206865Y-107296520D01*
X131435673Y-107449405D01*
X131689910Y-107554714D01*
X131959808Y-107608400D01*
X132234992Y-107608400D01*
X132504890Y-107554714D01*
X132759127Y-107449405D01*
X132987935Y-107296520D01*
X133182520Y-107101935D01*
X133335405Y-106873127D01*
X133440714Y-106618890D01*
X133494400Y-106348992D01*
X133494400Y-106073808D01*
X133440714Y-105803910D01*
X133335405Y-105549673D01*
X133182520Y-105320865D01*
X132987935Y-105126280D01*
X132759127Y-104973395D01*
X132504890Y-104868086D01*
X132234992Y-104814400D01*
X131959808Y-104814400D01*
X131689910Y-104868086D01*
X131435673Y-104973395D01*
X131206865Y-105126280D01*
X131012280Y-105320865D01*
X130859395Y-105549673D01*
X130754086Y-105803910D01*
X130700400Y-106073808D01*
X96790022Y-106073808D01*
X96792072Y-106053000D01*
X96789000Y-105038750D01*
X96630250Y-104880000D01*
X94981000Y-104880000D01*
X94727000Y-104880000D01*
X93077750Y-104880000D01*
X92919000Y-105038750D01*
X92915928Y-106053000D01*
X90372000Y-106053000D01*
X90372000Y-103453000D01*
X92915928Y-103453000D01*
X92919000Y-104467250D01*
X93077750Y-104626000D01*
X94727000Y-104626000D01*
X94727000Y-102976750D01*
X94981000Y-102976750D01*
X94981000Y-104626000D01*
X96630250Y-104626000D01*
X96789000Y-104467250D01*
X96792072Y-103453000D01*
X96779812Y-103328518D01*
X96764468Y-103277933D01*
X148615400Y-103277933D01*
X148615400Y-103478067D01*
X148654444Y-103674356D01*
X148731032Y-103859256D01*
X148842221Y-104025662D01*
X148983738Y-104167179D01*
X149150144Y-104278368D01*
X149335044Y-104354956D01*
X149531333Y-104394000D01*
X149731467Y-104394000D01*
X149927756Y-104354956D01*
X150112656Y-104278368D01*
X150279062Y-104167179D01*
X150420579Y-104025662D01*
X150531768Y-103859256D01*
X150534174Y-103853445D01*
X155716688Y-103853445D01*
X155716688Y-104053579D01*
X155755732Y-104249868D01*
X155832320Y-104434768D01*
X155943509Y-104601174D01*
X156085026Y-104742691D01*
X156251432Y-104853880D01*
X156436332Y-104930468D01*
X156632621Y-104969512D01*
X156832755Y-104969512D01*
X157029044Y-104930468D01*
X157213944Y-104853880D01*
X157380350Y-104742691D01*
X157521867Y-104601174D01*
X157633056Y-104434768D01*
X157709644Y-104249868D01*
X157748688Y-104053579D01*
X157748688Y-103853445D01*
X157709644Y-103657156D01*
X157633056Y-103472256D01*
X157521867Y-103305850D01*
X157380350Y-103164333D01*
X157213944Y-103053144D01*
X157029044Y-102976556D01*
X156832755Y-102937512D01*
X156632621Y-102937512D01*
X156436332Y-102976556D01*
X156251432Y-103053144D01*
X156085026Y-103164333D01*
X155943509Y-103305850D01*
X155832320Y-103472256D01*
X155755732Y-103657156D01*
X155716688Y-103853445D01*
X150534174Y-103853445D01*
X150608356Y-103674356D01*
X150647400Y-103478067D01*
X150647400Y-103277933D01*
X150608356Y-103081644D01*
X150531768Y-102896744D01*
X150420579Y-102730338D01*
X150279062Y-102588821D01*
X150112656Y-102477632D01*
X149927756Y-102401044D01*
X149731467Y-102362000D01*
X149531333Y-102362000D01*
X149335044Y-102401044D01*
X149150144Y-102477632D01*
X148983738Y-102588821D01*
X148842221Y-102730338D01*
X148731032Y-102896744D01*
X148654444Y-103081644D01*
X148615400Y-103277933D01*
X96764468Y-103277933D01*
X96743502Y-103208820D01*
X96684537Y-103098506D01*
X96605185Y-103001815D01*
X96508494Y-102922463D01*
X96398180Y-102863498D01*
X96278482Y-102827188D01*
X96154000Y-102814928D01*
X95139750Y-102818000D01*
X94981000Y-102976750D01*
X94727000Y-102976750D01*
X94568250Y-102818000D01*
X93554000Y-102814928D01*
X93429518Y-102827188D01*
X93309820Y-102863498D01*
X93199506Y-102922463D01*
X93102815Y-103001815D01*
X93023463Y-103098506D01*
X92964498Y-103208820D01*
X92928188Y-103328518D01*
X92915928Y-103453000D01*
X90372000Y-103453000D01*
X90372000Y-101590133D01*
X111777400Y-101590133D01*
X111777400Y-101790267D01*
X111816444Y-101986556D01*
X111893032Y-102171456D01*
X112004221Y-102337862D01*
X112145738Y-102479379D01*
X112312144Y-102590568D01*
X112497044Y-102667156D01*
X112693333Y-102706200D01*
X112893467Y-102706200D01*
X113089756Y-102667156D01*
X113274656Y-102590568D01*
X113441062Y-102479379D01*
X113582579Y-102337862D01*
X113693768Y-102171456D01*
X113745181Y-102047333D01*
X118381400Y-102047333D01*
X118381400Y-102247467D01*
X118420444Y-102443756D01*
X118497032Y-102628656D01*
X118608221Y-102795062D01*
X118749738Y-102936579D01*
X118916144Y-103047768D01*
X119101044Y-103124356D01*
X119297333Y-103163400D01*
X119497467Y-103163400D01*
X119693756Y-103124356D01*
X119878656Y-103047768D01*
X120045062Y-102936579D01*
X120186579Y-102795062D01*
X120297768Y-102628656D01*
X120374356Y-102443756D01*
X120413400Y-102247467D01*
X120413400Y-102047333D01*
X120374356Y-101851044D01*
X120297768Y-101666144D01*
X120186579Y-101499738D01*
X120045062Y-101358221D01*
X119878656Y-101247032D01*
X119693756Y-101170444D01*
X119497467Y-101131400D01*
X119297333Y-101131400D01*
X119101044Y-101170444D01*
X118916144Y-101247032D01*
X118749738Y-101358221D01*
X118608221Y-101499738D01*
X118497032Y-101666144D01*
X118420444Y-101851044D01*
X118381400Y-102047333D01*
X113745181Y-102047333D01*
X113770356Y-101986556D01*
X113809400Y-101790267D01*
X113809400Y-101590133D01*
X113770356Y-101393844D01*
X113693768Y-101208944D01*
X113582579Y-101042538D01*
X113441062Y-100901021D01*
X113274656Y-100789832D01*
X113089756Y-100713244D01*
X112893467Y-100674200D01*
X112693333Y-100674200D01*
X112497044Y-100713244D01*
X112312144Y-100789832D01*
X112145738Y-100901021D01*
X112004221Y-101042538D01*
X111893032Y-101208944D01*
X111816444Y-101393844D01*
X111777400Y-101590133D01*
X90372000Y-101590133D01*
X90372000Y-97355050D01*
X137069000Y-97355050D01*
X137069000Y-97750949D01*
X137090487Y-97969110D01*
X137175401Y-98249033D01*
X137313294Y-98507013D01*
X137498866Y-98733134D01*
X137724986Y-98918706D01*
X137982966Y-99056599D01*
X138262889Y-99141513D01*
X138554000Y-99170185D01*
X138845110Y-99141513D01*
X139125033Y-99056599D01*
X139383013Y-98918706D01*
X139609134Y-98733134D01*
X139794706Y-98507014D01*
X139804000Y-98489626D01*
X139813294Y-98507013D01*
X139998866Y-98733134D01*
X140224986Y-98918706D01*
X140482966Y-99056599D01*
X140762889Y-99141513D01*
X141054000Y-99170185D01*
X141345110Y-99141513D01*
X141625033Y-99056599D01*
X141883013Y-98918706D01*
X142109134Y-98733134D01*
X142294706Y-98507014D01*
X142304000Y-98489626D01*
X142313294Y-98507013D01*
X142498866Y-98733134D01*
X142724986Y-98918706D01*
X142982966Y-99056599D01*
X143262889Y-99141513D01*
X143554000Y-99170185D01*
X143845110Y-99141513D01*
X144125033Y-99056599D01*
X144383013Y-98918706D01*
X144609134Y-98733134D01*
X144794706Y-98507014D01*
X144804000Y-98489626D01*
X144813294Y-98507013D01*
X144998866Y-98733134D01*
X145224986Y-98918706D01*
X145482966Y-99056599D01*
X145762889Y-99141513D01*
X146054000Y-99170185D01*
X146345110Y-99141513D01*
X146625033Y-99056599D01*
X146883013Y-98918706D01*
X147109134Y-98733134D01*
X147161223Y-98669663D01*
X147215595Y-98771386D01*
X147326038Y-98905962D01*
X147460614Y-99016405D01*
X147614150Y-99098472D01*
X147780746Y-99149008D01*
X147954000Y-99166072D01*
X149154000Y-99166072D01*
X149327254Y-99149008D01*
X149493850Y-99098472D01*
X149647386Y-99016405D01*
X149781962Y-98905962D01*
X149892405Y-98771386D01*
X149974472Y-98617850D01*
X150025008Y-98451254D01*
X150042072Y-98278000D01*
X150042072Y-96828000D01*
X150025008Y-96654746D01*
X149974472Y-96488150D01*
X149892405Y-96334614D01*
X149781962Y-96200038D01*
X149647386Y-96089595D01*
X149493850Y-96007528D01*
X149327254Y-95956992D01*
X149154000Y-95939928D01*
X147954000Y-95939928D01*
X147780746Y-95956992D01*
X147614150Y-96007528D01*
X147460614Y-96089595D01*
X147326038Y-96200038D01*
X147215595Y-96334614D01*
X147161223Y-96436337D01*
X147109134Y-96372866D01*
X146883014Y-96187294D01*
X146625034Y-96049401D01*
X146345111Y-95964487D01*
X146054000Y-95935815D01*
X145762890Y-95964487D01*
X145482967Y-96049401D01*
X145224987Y-96187294D01*
X144998866Y-96372866D01*
X144813294Y-96598986D01*
X144804000Y-96616374D01*
X144794706Y-96598986D01*
X144609134Y-96372866D01*
X144383014Y-96187294D01*
X144125034Y-96049401D01*
X143845111Y-95964487D01*
X143554000Y-95935815D01*
X143262890Y-95964487D01*
X142982967Y-96049401D01*
X142724987Y-96187294D01*
X142498866Y-96372866D01*
X142313294Y-96598986D01*
X142304000Y-96616374D01*
X142294706Y-96598986D01*
X142109134Y-96372866D01*
X141883014Y-96187294D01*
X141625034Y-96049401D01*
X141345111Y-95964487D01*
X141054000Y-95935815D01*
X140762890Y-95964487D01*
X140482967Y-96049401D01*
X140224987Y-96187294D01*
X139998866Y-96372866D01*
X139813294Y-96598986D01*
X139804000Y-96616374D01*
X139794706Y-96598986D01*
X139609134Y-96372866D01*
X139383014Y-96187294D01*
X139125034Y-96049401D01*
X138845111Y-95964487D01*
X138554000Y-95935815D01*
X138262890Y-95964487D01*
X137982967Y-96049401D01*
X137724987Y-96187294D01*
X137498866Y-96372866D01*
X137313294Y-96598986D01*
X137175401Y-96856966D01*
X137090487Y-97136889D01*
X137069000Y-97355050D01*
X90372000Y-97355050D01*
X90372000Y-94594297D01*
X90775161Y-95197670D01*
X91309330Y-95731839D01*
X91937446Y-96151533D01*
X92635372Y-96440623D01*
X93376285Y-96588000D01*
X94131715Y-96588000D01*
X94872628Y-96440623D01*
X95570554Y-96151533D01*
X96198670Y-95731839D01*
X96732839Y-95197670D01*
X97152533Y-94569554D01*
X97196909Y-94462419D01*
X99219000Y-94462419D01*
X99219000Y-94843581D01*
X99293361Y-95217419D01*
X99439225Y-95569566D01*
X99650987Y-95886491D01*
X99920509Y-96156013D01*
X100237434Y-96367775D01*
X100589581Y-96513639D01*
X100963419Y-96588000D01*
X101344581Y-96588000D01*
X101718419Y-96513639D01*
X102070566Y-96367775D01*
X102387491Y-96156013D01*
X102657013Y-95886491D01*
X102868775Y-95569566D01*
X103014639Y-95217419D01*
X103089000Y-94843581D01*
X103089000Y-94462419D01*
X104219000Y-94462419D01*
X104219000Y-94843581D01*
X104293361Y-95217419D01*
X104439225Y-95569566D01*
X104650987Y-95886491D01*
X104920509Y-96156013D01*
X105237434Y-96367775D01*
X105589581Y-96513639D01*
X105963419Y-96588000D01*
X106344581Y-96588000D01*
X106718419Y-96513639D01*
X107070566Y-96367775D01*
X107387491Y-96156013D01*
X107657013Y-95886491D01*
X107868775Y-95569566D01*
X108014639Y-95217419D01*
X108089000Y-94843581D01*
X108089000Y-94462419D01*
X109219000Y-94462419D01*
X109219000Y-94843581D01*
X109293361Y-95217419D01*
X109439225Y-95569566D01*
X109650987Y-95886491D01*
X109920509Y-96156013D01*
X110237434Y-96367775D01*
X110589581Y-96513639D01*
X110963419Y-96588000D01*
X111344581Y-96588000D01*
X111718419Y-96513639D01*
X112070566Y-96367775D01*
X112387491Y-96156013D01*
X112590504Y-95953000D01*
X114215928Y-95953000D01*
X114228188Y-96077482D01*
X114264498Y-96197180D01*
X114323463Y-96307494D01*
X114402815Y-96404185D01*
X114499506Y-96483537D01*
X114609820Y-96542502D01*
X114729518Y-96578812D01*
X114854000Y-96591072D01*
X115868250Y-96588000D01*
X116027000Y-96429250D01*
X116027000Y-94780000D01*
X116281000Y-94780000D01*
X116281000Y-96429250D01*
X116439750Y-96588000D01*
X117454000Y-96591072D01*
X117578482Y-96578812D01*
X117698180Y-96542502D01*
X117808494Y-96483537D01*
X117905185Y-96404185D01*
X117984537Y-96307494D01*
X118043502Y-96197180D01*
X118079812Y-96077482D01*
X118087224Y-96002224D01*
X121084381Y-96002224D01*
X121216317Y-96297312D01*
X121557045Y-96468159D01*
X121924557Y-96569250D01*
X122304729Y-96596701D01*
X122682951Y-96549457D01*
X123044690Y-96429333D01*
X123291683Y-96297312D01*
X123423619Y-96002224D01*
X122254000Y-94832605D01*
X121084381Y-96002224D01*
X118087224Y-96002224D01*
X118092072Y-95953000D01*
X118089000Y-94938750D01*
X117930250Y-94780000D01*
X116281000Y-94780000D01*
X116027000Y-94780000D01*
X114377750Y-94780000D01*
X114219000Y-94938750D01*
X114215928Y-95953000D01*
X112590504Y-95953000D01*
X112657013Y-95886491D01*
X112868775Y-95569566D01*
X113014639Y-95217419D01*
X113089000Y-94843581D01*
X113089000Y-94703729D01*
X120310299Y-94703729D01*
X120357543Y-95081951D01*
X120477667Y-95443690D01*
X120609688Y-95690683D01*
X120904776Y-95822619D01*
X122074395Y-94653000D01*
X122433605Y-94653000D01*
X123603224Y-95822619D01*
X123898312Y-95690683D01*
X124069159Y-95349955D01*
X124170250Y-94982443D01*
X124197701Y-94602271D01*
X124180232Y-94462419D01*
X125319000Y-94462419D01*
X125319000Y-94843581D01*
X125393361Y-95217419D01*
X125539225Y-95569566D01*
X125750987Y-95886491D01*
X126020509Y-96156013D01*
X126337434Y-96367775D01*
X126689581Y-96513639D01*
X127063419Y-96588000D01*
X127444581Y-96588000D01*
X127818419Y-96513639D01*
X128170566Y-96367775D01*
X128487491Y-96156013D01*
X128757013Y-95886491D01*
X128968775Y-95569566D01*
X129114639Y-95217419D01*
X129189000Y-94843581D01*
X129189000Y-94462419D01*
X129114639Y-94088581D01*
X128968775Y-93736434D01*
X128757013Y-93419509D01*
X128690504Y-93353000D01*
X130315928Y-93353000D01*
X130315928Y-95953000D01*
X130328188Y-96077482D01*
X130364498Y-96197180D01*
X130423463Y-96307494D01*
X130502815Y-96404185D01*
X130599506Y-96483537D01*
X130709820Y-96542502D01*
X130829518Y-96578812D01*
X130954000Y-96591072D01*
X133554000Y-96591072D01*
X133678482Y-96578812D01*
X133798180Y-96542502D01*
X133908494Y-96483537D01*
X134005185Y-96404185D01*
X134084537Y-96307494D01*
X134143502Y-96197180D01*
X134179812Y-96077482D01*
X134192072Y-95953000D01*
X134192072Y-93353000D01*
X134179812Y-93228518D01*
X134143502Y-93108820D01*
X134084537Y-92998506D01*
X134005185Y-92901815D01*
X133908494Y-92822463D01*
X133798180Y-92763498D01*
X133678482Y-92727188D01*
X133554000Y-92714928D01*
X130954000Y-92714928D01*
X130829518Y-92727188D01*
X130709820Y-92763498D01*
X130599506Y-92822463D01*
X130502815Y-92901815D01*
X130423463Y-92998506D01*
X130364498Y-93108820D01*
X130328188Y-93228518D01*
X130315928Y-93353000D01*
X128690504Y-93353000D01*
X128487491Y-93149987D01*
X128170566Y-92938225D01*
X127818419Y-92792361D01*
X127444581Y-92718000D01*
X127063419Y-92718000D01*
X126689581Y-92792361D01*
X126337434Y-92938225D01*
X126020509Y-93149987D01*
X125750987Y-93419509D01*
X125539225Y-93736434D01*
X125393361Y-94088581D01*
X125319000Y-94462419D01*
X124180232Y-94462419D01*
X124150457Y-94224049D01*
X124030333Y-93862310D01*
X123898312Y-93615317D01*
X123603224Y-93483381D01*
X122433605Y-94653000D01*
X122074395Y-94653000D01*
X120904776Y-93483381D01*
X120609688Y-93615317D01*
X120438841Y-93956045D01*
X120337750Y-94323557D01*
X120310299Y-94703729D01*
X113089000Y-94703729D01*
X113089000Y-94462419D01*
X113014639Y-94088581D01*
X112868775Y-93736434D01*
X112657013Y-93419509D01*
X112590504Y-93353000D01*
X114215928Y-93353000D01*
X114219000Y-94367250D01*
X114377750Y-94526000D01*
X116027000Y-94526000D01*
X116027000Y-92876750D01*
X116281000Y-92876750D01*
X116281000Y-94526000D01*
X117930250Y-94526000D01*
X118089000Y-94367250D01*
X118092072Y-93353000D01*
X118087225Y-93303776D01*
X121084381Y-93303776D01*
X122254000Y-94473395D01*
X123423619Y-93303776D01*
X123291683Y-93008688D01*
X122950955Y-92837841D01*
X122583443Y-92736750D01*
X122203271Y-92709299D01*
X121825049Y-92756543D01*
X121463310Y-92876667D01*
X121216317Y-93008688D01*
X121084381Y-93303776D01*
X118087225Y-93303776D01*
X118079812Y-93228518D01*
X118043502Y-93108820D01*
X117984537Y-92998506D01*
X117905185Y-92901815D01*
X117808494Y-92822463D01*
X117698180Y-92763498D01*
X117578482Y-92727188D01*
X117454000Y-92714928D01*
X116439750Y-92718000D01*
X116281000Y-92876750D01*
X116027000Y-92876750D01*
X115868250Y-92718000D01*
X114854000Y-92714928D01*
X114729518Y-92727188D01*
X114609820Y-92763498D01*
X114499506Y-92822463D01*
X114402815Y-92901815D01*
X114323463Y-92998506D01*
X114264498Y-93108820D01*
X114228188Y-93228518D01*
X114215928Y-93353000D01*
X112590504Y-93353000D01*
X112387491Y-93149987D01*
X112070566Y-92938225D01*
X111718419Y-92792361D01*
X111344581Y-92718000D01*
X110963419Y-92718000D01*
X110589581Y-92792361D01*
X110237434Y-92938225D01*
X109920509Y-93149987D01*
X109650987Y-93419509D01*
X109439225Y-93736434D01*
X109293361Y-94088581D01*
X109219000Y-94462419D01*
X108089000Y-94462419D01*
X108014639Y-94088581D01*
X107868775Y-93736434D01*
X107657013Y-93419509D01*
X107387491Y-93149987D01*
X107070566Y-92938225D01*
X106718419Y-92792361D01*
X106344581Y-92718000D01*
X105963419Y-92718000D01*
X105589581Y-92792361D01*
X105237434Y-92938225D01*
X104920509Y-93149987D01*
X104650987Y-93419509D01*
X104439225Y-93736434D01*
X104293361Y-94088581D01*
X104219000Y-94462419D01*
X103089000Y-94462419D01*
X103014639Y-94088581D01*
X102868775Y-93736434D01*
X102657013Y-93419509D01*
X102387491Y-93149987D01*
X102070566Y-92938225D01*
X101718419Y-92792361D01*
X101344581Y-92718000D01*
X100963419Y-92718000D01*
X100589581Y-92792361D01*
X100237434Y-92938225D01*
X99920509Y-93149987D01*
X99650987Y-93419509D01*
X99439225Y-93736434D01*
X99293361Y-94088581D01*
X99219000Y-94462419D01*
X97196909Y-94462419D01*
X97441623Y-93871628D01*
X97589000Y-93130715D01*
X97589000Y-92375285D01*
X97441623Y-91634372D01*
X97152533Y-90936446D01*
X96732839Y-90308330D01*
X96387509Y-89963000D01*
X157820491Y-89963000D01*
X157475161Y-90308330D01*
X157475161Y-90308330D01*
G37*
X157475161Y-90308330D02*
X157055467Y-90936446D01*
X156766377Y-91634372D01*
X156619000Y-92375285D01*
X156619000Y-93130715D01*
X156766377Y-93871628D01*
X157055467Y-94569554D01*
X157475161Y-95197670D01*
X158009330Y-95731839D01*
X158637446Y-96151533D01*
X159335372Y-96440623D01*
X160076285Y-96588000D01*
X160831715Y-96588000D01*
X161572628Y-96440623D01*
X162270554Y-96151533D01*
X162898670Y-95731839D01*
X163432839Y-95197670D01*
X163844000Y-94582324D01*
X163844001Y-116601820D01*
X163633727Y-116461320D01*
X163372574Y-116353147D01*
X163095335Y-116298000D01*
X162812665Y-116298000D01*
X162535426Y-116353147D01*
X162274273Y-116461320D01*
X162039241Y-116618363D01*
X161839363Y-116818241D01*
X161682320Y-117053273D01*
X161574147Y-117314426D01*
X161519000Y-117591665D01*
X161519000Y-117874335D01*
X161574147Y-118151574D01*
X161682320Y-118412727D01*
X161839363Y-118647759D01*
X162039241Y-118847637D01*
X162271759Y-119003000D01*
X162039241Y-119158363D01*
X161839363Y-119358241D01*
X161682320Y-119593273D01*
X161574147Y-119854426D01*
X161519000Y-120131665D01*
X161519000Y-120414335D01*
X161574147Y-120691574D01*
X161682320Y-120952727D01*
X161839363Y-121187759D01*
X162039241Y-121387637D01*
X162271759Y-121543000D01*
X162039241Y-121698363D01*
X161839363Y-121898241D01*
X161682320Y-122133273D01*
X161574147Y-122394426D01*
X161519000Y-122671665D01*
X161519000Y-122954335D01*
X161574147Y-123231574D01*
X161682320Y-123492727D01*
X161839363Y-123727759D01*
X162037961Y-123926357D01*
X162029518Y-123927188D01*
X161909820Y-123963498D01*
X161799506Y-124022463D01*
X161702815Y-124101815D01*
X161623463Y-124198506D01*
X161564498Y-124308820D01*
X161528188Y-124428518D01*
X161515928Y-124553000D01*
X161515928Y-126153000D01*
X161528188Y-126277482D01*
X161564498Y-126397180D01*
X161623463Y-126507494D01*
X161702815Y-126604185D01*
X161799506Y-126683537D01*
X161909820Y-126742502D01*
X162029518Y-126778812D01*
X162154000Y-126791072D01*
X163754000Y-126791072D01*
X163844001Y-126782208D01*
X163844001Y-129023677D01*
X163432839Y-128408330D01*
X162898670Y-127874161D01*
X162270554Y-127454467D01*
X161572628Y-127165377D01*
X160831715Y-127018000D01*
X160076285Y-127018000D01*
X159335372Y-127165377D01*
X158637446Y-127454467D01*
X158009330Y-127874161D01*
X157475161Y-128408330D01*
X157055467Y-129036446D01*
X156766377Y-129734372D01*
X156619000Y-130475285D01*
X156619000Y-131230715D01*
X156766377Y-131971628D01*
X157055467Y-132669554D01*
X157475161Y-133297670D01*
X157706491Y-133529000D01*
X96401509Y-133529000D01*
X96732839Y-133197670D01*
X97152533Y-132569554D01*
X97441623Y-131871628D01*
X97589000Y-131130715D01*
X97589000Y-130375285D01*
X97584568Y-130353000D01*
X98815928Y-130353000D01*
X98828188Y-130477482D01*
X98864498Y-130597180D01*
X98923463Y-130707494D01*
X99002815Y-130804185D01*
X99099506Y-130883537D01*
X99209820Y-130942502D01*
X99329518Y-130978812D01*
X99454000Y-130991072D01*
X100468250Y-130988000D01*
X100627000Y-130829250D01*
X100627000Y-129180000D01*
X100881000Y-129180000D01*
X100881000Y-130829250D01*
X101039750Y-130988000D01*
X102054000Y-130991072D01*
X102178482Y-130978812D01*
X102298180Y-130942502D01*
X102408494Y-130883537D01*
X102505185Y-130804185D01*
X102584537Y-130707494D01*
X102643502Y-130597180D01*
X102679812Y-130477482D01*
X102692072Y-130353000D01*
X102689000Y-129338750D01*
X102530250Y-129180000D01*
X100881000Y-129180000D01*
X100627000Y-129180000D01*
X98977750Y-129180000D01*
X98819000Y-129338750D01*
X98815928Y-130353000D01*
X97584568Y-130353000D01*
X97441623Y-129634372D01*
X97152533Y-128936446D01*
X96732839Y-128308330D01*
X96198670Y-127774161D01*
X96167001Y-127753000D01*
X98815928Y-127753000D01*
X98819000Y-128767250D01*
X98977750Y-128926000D01*
X100627000Y-128926000D01*
X100627000Y-127276750D01*
X100881000Y-127276750D01*
X100881000Y-128926000D01*
X102530250Y-128926000D01*
X102593831Y-128862419D01*
X103819000Y-128862419D01*
X103819000Y-129243581D01*
X103893361Y-129617419D01*
X104039225Y-129969566D01*
X104250987Y-130286491D01*
X104520509Y-130556013D01*
X104837434Y-130767775D01*
X105189581Y-130913639D01*
X105563419Y-130988000D01*
X105944581Y-130988000D01*
X106318419Y-130913639D01*
X106670566Y-130767775D01*
X106987491Y-130556013D01*
X107257013Y-130286491D01*
X107468775Y-129969566D01*
X107614639Y-129617419D01*
X107689000Y-129243581D01*
X107689000Y-128862419D01*
X108819000Y-128862419D01*
X108819000Y-129243581D01*
X108893361Y-129617419D01*
X109039225Y-129969566D01*
X109250987Y-130286491D01*
X109520509Y-130556013D01*
X109837434Y-130767775D01*
X110189581Y-130913639D01*
X110563419Y-130988000D01*
X110944581Y-130988000D01*
X111318419Y-130913639D01*
X111670566Y-130767775D01*
X111987491Y-130556013D01*
X112257013Y-130286491D01*
X112468775Y-129969566D01*
X112614639Y-129617419D01*
X112689000Y-129243581D01*
X112689000Y-128862419D01*
X113819000Y-128862419D01*
X113819000Y-129243581D01*
X113893361Y-129617419D01*
X114039225Y-129969566D01*
X114250987Y-130286491D01*
X114520509Y-130556013D01*
X114837434Y-130767775D01*
X115189581Y-130913639D01*
X115563419Y-130988000D01*
X115944581Y-130988000D01*
X116318419Y-130913639D01*
X116670566Y-130767775D01*
X116987491Y-130556013D01*
X117257013Y-130286491D01*
X117468775Y-129969566D01*
X117614639Y-129617419D01*
X117689000Y-129243581D01*
X117689000Y-128862419D01*
X117614639Y-128488581D01*
X117468775Y-128136434D01*
X117257013Y-127819509D01*
X117090504Y-127653000D01*
X120215928Y-127653000D01*
X120215928Y-130253000D01*
X120228188Y-130377482D01*
X120264498Y-130497180D01*
X120323463Y-130607494D01*
X120402815Y-130704185D01*
X120499506Y-130783537D01*
X120609820Y-130842502D01*
X120729518Y-130878812D01*
X120854000Y-130891072D01*
X123454000Y-130891072D01*
X123578482Y-130878812D01*
X123698180Y-130842502D01*
X123808494Y-130783537D01*
X123905185Y-130704185D01*
X123984537Y-130607494D01*
X124043502Y-130497180D01*
X124079812Y-130377482D01*
X124092072Y-130253000D01*
X124092072Y-128762419D01*
X125219000Y-128762419D01*
X125219000Y-129143581D01*
X125293361Y-129517419D01*
X125439225Y-129869566D01*
X125650987Y-130186491D01*
X125920509Y-130456013D01*
X126237434Y-130667775D01*
X126589581Y-130813639D01*
X126963419Y-130888000D01*
X127344581Y-130888000D01*
X127718419Y-130813639D01*
X128070566Y-130667775D01*
X128387491Y-130456013D01*
X128541280Y-130302224D01*
X130984381Y-130302224D01*
X131116317Y-130597312D01*
X131457045Y-130768159D01*
X131824557Y-130869250D01*
X132204729Y-130896701D01*
X132582951Y-130849457D01*
X132944690Y-130729333D01*
X133191683Y-130597312D01*
X133323619Y-130302224D01*
X132154000Y-129132605D01*
X130984381Y-130302224D01*
X128541280Y-130302224D01*
X128657013Y-130186491D01*
X128868775Y-129869566D01*
X129014639Y-129517419D01*
X129089000Y-129143581D01*
X129089000Y-129003729D01*
X130210299Y-129003729D01*
X130257543Y-129381951D01*
X130377667Y-129743690D01*
X130509688Y-129990683D01*
X130804776Y-130122619D01*
X131974395Y-128953000D01*
X132333605Y-128953000D01*
X133503224Y-130122619D01*
X133798312Y-129990683D01*
X133969159Y-129649955D01*
X134070250Y-129282443D01*
X134097701Y-128902271D01*
X134050457Y-128524049D01*
X133930333Y-128162310D01*
X133798312Y-127915317D01*
X133503224Y-127783381D01*
X132333605Y-128953000D01*
X131974395Y-128953000D01*
X130804776Y-127783381D01*
X130509688Y-127915317D01*
X130338841Y-128256045D01*
X130237750Y-128623557D01*
X130210299Y-129003729D01*
X129089000Y-129003729D01*
X129089000Y-128762419D01*
X129014639Y-128388581D01*
X128868775Y-128036434D01*
X128657013Y-127719509D01*
X128541280Y-127603776D01*
X130984381Y-127603776D01*
X132154000Y-128773395D01*
X133323619Y-127603776D01*
X133191683Y-127308688D01*
X132850955Y-127137841D01*
X132483443Y-127036750D01*
X132103271Y-127009299D01*
X131725049Y-127056543D01*
X131363310Y-127176667D01*
X131116317Y-127308688D01*
X130984381Y-127603776D01*
X128541280Y-127603776D01*
X128387491Y-127449987D01*
X128070566Y-127238225D01*
X127718419Y-127092361D01*
X127344581Y-127018000D01*
X126963419Y-127018000D01*
X126589581Y-127092361D01*
X126237434Y-127238225D01*
X125920509Y-127449987D01*
X125650987Y-127719509D01*
X125439225Y-128036434D01*
X125293361Y-128388581D01*
X125219000Y-128762419D01*
X124092072Y-128762419D01*
X124092072Y-127653000D01*
X124079812Y-127528518D01*
X124043502Y-127408820D01*
X123984537Y-127298506D01*
X123905185Y-127201815D01*
X123808494Y-127122463D01*
X123698180Y-127063498D01*
X123578482Y-127027188D01*
X123454000Y-127014928D01*
X120854000Y-127014928D01*
X120729518Y-127027188D01*
X120609820Y-127063498D01*
X120499506Y-127122463D01*
X120402815Y-127201815D01*
X120323463Y-127298506D01*
X120264498Y-127408820D01*
X120228188Y-127528518D01*
X120215928Y-127653000D01*
X117090504Y-127653000D01*
X116987491Y-127549987D01*
X116670566Y-127338225D01*
X116318419Y-127192361D01*
X115944581Y-127118000D01*
X115563419Y-127118000D01*
X115189581Y-127192361D01*
X114837434Y-127338225D01*
X114520509Y-127549987D01*
X114250987Y-127819509D01*
X114039225Y-128136434D01*
X113893361Y-128488581D01*
X113819000Y-128862419D01*
X112689000Y-128862419D01*
X112614639Y-128488581D01*
X112468775Y-128136434D01*
X112257013Y-127819509D01*
X111987491Y-127549987D01*
X111670566Y-127338225D01*
X111318419Y-127192361D01*
X110944581Y-127118000D01*
X110563419Y-127118000D01*
X110189581Y-127192361D01*
X109837434Y-127338225D01*
X109520509Y-127549987D01*
X109250987Y-127819509D01*
X109039225Y-128136434D01*
X108893361Y-128488581D01*
X108819000Y-128862419D01*
X107689000Y-128862419D01*
X107614639Y-128488581D01*
X107468775Y-128136434D01*
X107257013Y-127819509D01*
X106987491Y-127549987D01*
X106670566Y-127338225D01*
X106318419Y-127192361D01*
X105944581Y-127118000D01*
X105563419Y-127118000D01*
X105189581Y-127192361D01*
X104837434Y-127338225D01*
X104520509Y-127549987D01*
X104250987Y-127819509D01*
X104039225Y-128136434D01*
X103893361Y-128488581D01*
X103819000Y-128862419D01*
X102593831Y-128862419D01*
X102689000Y-128767250D01*
X102692072Y-127753000D01*
X102679812Y-127628518D01*
X102643502Y-127508820D01*
X102584537Y-127398506D01*
X102505185Y-127301815D01*
X102408494Y-127222463D01*
X102298180Y-127163498D01*
X102178482Y-127127188D01*
X102054000Y-127114928D01*
X101039750Y-127118000D01*
X100881000Y-127276750D01*
X100627000Y-127276750D01*
X100468250Y-127118000D01*
X99454000Y-127114928D01*
X99329518Y-127127188D01*
X99209820Y-127163498D01*
X99099506Y-127222463D01*
X99002815Y-127301815D01*
X98923463Y-127398506D01*
X98864498Y-127508820D01*
X98828188Y-127628518D01*
X98815928Y-127753000D01*
X96167001Y-127753000D01*
X95570554Y-127354467D01*
X94872628Y-127065377D01*
X94131715Y-126918000D01*
X93376285Y-126918000D01*
X92635372Y-127065377D01*
X91937446Y-127354467D01*
X91309330Y-127774161D01*
X90775161Y-128308330D01*
X90372000Y-128911703D01*
X90372000Y-124932733D01*
X135145400Y-124932733D01*
X135145400Y-125132867D01*
X135184444Y-125329156D01*
X135261032Y-125514056D01*
X135372221Y-125680462D01*
X135513738Y-125821979D01*
X135680144Y-125933168D01*
X135865044Y-126009756D01*
X136061333Y-126048800D01*
X136261467Y-126048800D01*
X136457756Y-126009756D01*
X136642656Y-125933168D01*
X136809062Y-125821979D01*
X136950579Y-125680462D01*
X137061768Y-125514056D01*
X137065928Y-125504013D01*
X137065928Y-126678000D01*
X137082992Y-126851254D01*
X137133528Y-127017850D01*
X137215595Y-127171386D01*
X137326038Y-127305962D01*
X137460614Y-127416405D01*
X137614150Y-127498472D01*
X137780746Y-127549008D01*
X137954000Y-127566072D01*
X139154000Y-127566072D01*
X139327254Y-127549008D01*
X139493850Y-127498472D01*
X139647386Y-127416405D01*
X139781962Y-127305962D01*
X139892405Y-127171386D01*
X139946777Y-127069663D01*
X139998866Y-127133134D01*
X140224987Y-127318706D01*
X140482967Y-127456599D01*
X140762890Y-127541513D01*
X141054000Y-127570185D01*
X141345111Y-127541513D01*
X141625034Y-127456599D01*
X141883014Y-127318706D01*
X142109134Y-127133134D01*
X142294706Y-126907014D01*
X142304000Y-126889626D01*
X142313294Y-126907014D01*
X142498866Y-127133134D01*
X142724987Y-127318706D01*
X142982967Y-127456599D01*
X143262890Y-127541513D01*
X143554000Y-127570185D01*
X143845111Y-127541513D01*
X144125034Y-127456599D01*
X144383014Y-127318706D01*
X144609134Y-127133134D01*
X144794706Y-126907014D01*
X144804000Y-126889626D01*
X144813294Y-126907014D01*
X144998866Y-127133134D01*
X145224987Y-127318706D01*
X145482967Y-127456599D01*
X145762890Y-127541513D01*
X146054000Y-127570185D01*
X146345111Y-127541513D01*
X146625034Y-127456599D01*
X146883014Y-127318706D01*
X147109134Y-127133134D01*
X147294706Y-126907014D01*
X147304000Y-126889626D01*
X147313294Y-126907014D01*
X147498866Y-127133134D01*
X147724987Y-127318706D01*
X147982967Y-127456599D01*
X148262890Y-127541513D01*
X148554000Y-127570185D01*
X148845111Y-127541513D01*
X149125034Y-127456599D01*
X149383014Y-127318706D01*
X149609134Y-127133134D01*
X149794706Y-126907014D01*
X149932599Y-126649033D01*
X150017513Y-126369110D01*
X150039000Y-126150949D01*
X150039000Y-125755050D01*
X150017513Y-125536889D01*
X149932599Y-125256966D01*
X149794706Y-124998986D01*
X149609134Y-124772866D01*
X149383013Y-124587294D01*
X149125033Y-124449401D01*
X148845110Y-124364487D01*
X148554000Y-124335815D01*
X148262889Y-124364487D01*
X147982966Y-124449401D01*
X147724986Y-124587294D01*
X147498866Y-124772866D01*
X147313294Y-124998987D01*
X147304000Y-125016374D01*
X147294706Y-124998986D01*
X147109134Y-124772866D01*
X146883013Y-124587294D01*
X146625033Y-124449401D01*
X146345110Y-124364487D01*
X146054000Y-124335815D01*
X145762889Y-124364487D01*
X145482966Y-124449401D01*
X145224986Y-124587294D01*
X144998866Y-124772866D01*
X144813294Y-124998987D01*
X144804000Y-125016374D01*
X144794706Y-124998986D01*
X144609134Y-124772866D01*
X144383013Y-124587294D01*
X144125033Y-124449401D01*
X143845110Y-124364487D01*
X143554000Y-124335815D01*
X143262889Y-124364487D01*
X142982966Y-124449401D01*
X142724986Y-124587294D01*
X142498866Y-124772866D01*
X142313294Y-124998987D01*
X142304000Y-125016374D01*
X142294706Y-124998986D01*
X142109134Y-124772866D01*
X141883013Y-124587294D01*
X141625033Y-124449401D01*
X141345110Y-124364487D01*
X141054000Y-124335815D01*
X140762889Y-124364487D01*
X140482966Y-124449401D01*
X140224986Y-124587294D01*
X139998866Y-124772866D01*
X139946777Y-124836337D01*
X139892405Y-124734614D01*
X139781962Y-124600038D01*
X139647386Y-124489595D01*
X139493850Y-124407528D01*
X139327254Y-124356992D01*
X139154000Y-124339928D01*
X137954000Y-124339928D01*
X137780746Y-124356992D01*
X137614150Y-124407528D01*
X137460614Y-124489595D01*
X137326038Y-124600038D01*
X137215595Y-124734614D01*
X137159039Y-124840423D01*
X137138356Y-124736444D01*
X137061768Y-124551544D01*
X136950579Y-124385138D01*
X136809062Y-124243621D01*
X136642656Y-124132432D01*
X136457756Y-124055844D01*
X136261467Y-124016800D01*
X136061333Y-124016800D01*
X135865044Y-124055844D01*
X135680144Y-124132432D01*
X135513738Y-124243621D01*
X135372221Y-124385138D01*
X135261032Y-124551544D01*
X135184444Y-124736444D01*
X135145400Y-124932733D01*
X90372000Y-124932733D01*
X90372000Y-119562419D01*
X92919000Y-119562419D01*
X92919000Y-119943581D01*
X92993361Y-120317419D01*
X93139225Y-120669566D01*
X93350987Y-120986491D01*
X93620509Y-121256013D01*
X93937434Y-121467775D01*
X94289581Y-121613639D01*
X94663419Y-121688000D01*
X95044581Y-121688000D01*
X95418419Y-121613639D01*
X95770566Y-121467775D01*
X96087491Y-121256013D01*
X96357013Y-120986491D01*
X96568775Y-120669566D01*
X96714639Y-120317419D01*
X96789000Y-119943581D01*
X96789000Y-119562419D01*
X96773046Y-119482208D01*
X114241200Y-119482208D01*
X114241200Y-119757392D01*
X114294886Y-120027290D01*
X114400195Y-120281527D01*
X114553080Y-120510335D01*
X114747665Y-120704920D01*
X114976473Y-120857805D01*
X115230710Y-120963114D01*
X115500608Y-121016800D01*
X115775792Y-121016800D01*
X116045690Y-120963114D01*
X116299927Y-120857805D01*
X116528735Y-120704920D01*
X116723320Y-120510335D01*
X116876205Y-120281527D01*
X116981514Y-120027290D01*
X117035200Y-119757392D01*
X117035200Y-119482208D01*
X116981514Y-119212310D01*
X116876205Y-118958073D01*
X116829072Y-118887533D01*
X128262000Y-118887533D01*
X128262000Y-119087667D01*
X128301044Y-119283956D01*
X128377632Y-119468856D01*
X128488821Y-119635262D01*
X128630338Y-119776779D01*
X128796744Y-119887968D01*
X128981644Y-119964556D01*
X129177933Y-120003600D01*
X129378067Y-120003600D01*
X129574356Y-119964556D01*
X129759256Y-119887968D01*
X129925662Y-119776779D01*
X130067179Y-119635262D01*
X130091586Y-119598733D01*
X132707000Y-119598733D01*
X132707000Y-119798867D01*
X132746044Y-119995156D01*
X132822632Y-120180056D01*
X132933821Y-120346462D01*
X133075338Y-120487979D01*
X133241744Y-120599168D01*
X133426644Y-120675756D01*
X133622933Y-120714800D01*
X133823067Y-120714800D01*
X134019356Y-120675756D01*
X134204256Y-120599168D01*
X134370662Y-120487979D01*
X134512179Y-120346462D01*
X134623368Y-120180056D01*
X134699956Y-119995156D01*
X134739000Y-119798867D01*
X134739000Y-119598733D01*
X134699956Y-119402444D01*
X134623368Y-119217544D01*
X134512179Y-119051138D01*
X134370662Y-118909621D01*
X134204256Y-118798432D01*
X134019356Y-118721844D01*
X133823067Y-118682800D01*
X133622933Y-118682800D01*
X133426644Y-118721844D01*
X133241744Y-118798432D01*
X133075338Y-118909621D01*
X132933821Y-119051138D01*
X132822632Y-119217544D01*
X132746044Y-119402444D01*
X132707000Y-119598733D01*
X130091586Y-119598733D01*
X130178368Y-119468856D01*
X130254956Y-119283956D01*
X130294000Y-119087667D01*
X130294000Y-118887533D01*
X130254956Y-118691244D01*
X130178368Y-118506344D01*
X130067179Y-118339938D01*
X129987429Y-118260188D01*
X136483945Y-118260188D01*
X136483945Y-118460322D01*
X136522989Y-118656611D01*
X136599577Y-118841511D01*
X136710766Y-119007917D01*
X136852283Y-119149434D01*
X137018689Y-119260623D01*
X137203589Y-119337211D01*
X137399878Y-119376255D01*
X137600012Y-119376255D01*
X137796301Y-119337211D01*
X137981201Y-119260623D01*
X138147607Y-119149434D01*
X138289124Y-119007917D01*
X138400313Y-118841511D01*
X138476901Y-118656611D01*
X138515945Y-118460322D01*
X138515945Y-118260188D01*
X138476901Y-118063899D01*
X138400313Y-117878999D01*
X138289124Y-117712593D01*
X138147607Y-117571076D01*
X137981201Y-117459887D01*
X137796301Y-117383299D01*
X137600012Y-117344255D01*
X137399878Y-117344255D01*
X137203589Y-117383299D01*
X137018689Y-117459887D01*
X136852283Y-117571076D01*
X136710766Y-117712593D01*
X136599577Y-117878999D01*
X136522989Y-118063899D01*
X136483945Y-118260188D01*
X129987429Y-118260188D01*
X129925662Y-118198421D01*
X129759256Y-118087232D01*
X129574356Y-118010644D01*
X129378067Y-117971600D01*
X129177933Y-117971600D01*
X128981644Y-118010644D01*
X128796744Y-118087232D01*
X128630338Y-118198421D01*
X128488821Y-118339938D01*
X128377632Y-118506344D01*
X128301044Y-118691244D01*
X128262000Y-118887533D01*
X116829072Y-118887533D01*
X116723320Y-118729265D01*
X116528735Y-118534680D01*
X116299927Y-118381795D01*
X116045690Y-118276486D01*
X115775792Y-118222800D01*
X115500608Y-118222800D01*
X115230710Y-118276486D01*
X114976473Y-118381795D01*
X114747665Y-118534680D01*
X114553080Y-118729265D01*
X114400195Y-118958073D01*
X114294886Y-119212310D01*
X114241200Y-119482208D01*
X96773046Y-119482208D01*
X96714639Y-119188581D01*
X96568775Y-118836434D01*
X96357013Y-118519509D01*
X96087491Y-118249987D01*
X95770566Y-118038225D01*
X95674741Y-117998533D01*
X108399200Y-117998533D01*
X108399200Y-118198667D01*
X108438244Y-118394956D01*
X108514832Y-118579856D01*
X108626021Y-118746262D01*
X108767538Y-118887779D01*
X108933944Y-118998968D01*
X109118844Y-119075556D01*
X109315133Y-119114600D01*
X109515267Y-119114600D01*
X109711556Y-119075556D01*
X109896456Y-118998968D01*
X110062862Y-118887779D01*
X110204379Y-118746262D01*
X110315568Y-118579856D01*
X110392156Y-118394956D01*
X110431200Y-118198667D01*
X110431200Y-117998533D01*
X110392156Y-117802244D01*
X110315568Y-117617344D01*
X110204379Y-117450938D01*
X110062862Y-117309421D01*
X109896456Y-117198232D01*
X109711556Y-117121644D01*
X109515267Y-117082600D01*
X109315133Y-117082600D01*
X109118844Y-117121644D01*
X108933944Y-117198232D01*
X108767538Y-117309421D01*
X108626021Y-117450938D01*
X108514832Y-117617344D01*
X108438244Y-117802244D01*
X108399200Y-117998533D01*
X95674741Y-117998533D01*
X95418419Y-117892361D01*
X95044581Y-117818000D01*
X94663419Y-117818000D01*
X94289581Y-117892361D01*
X93937434Y-118038225D01*
X93620509Y-118249987D01*
X93350987Y-118519509D01*
X93139225Y-118836434D01*
X92993361Y-119188581D01*
X92919000Y-119562419D01*
X90372000Y-119562419D01*
X90372000Y-114562419D01*
X92919000Y-114562419D01*
X92919000Y-114943581D01*
X92993361Y-115317419D01*
X93139225Y-115669566D01*
X93350987Y-115986491D01*
X93620509Y-116256013D01*
X93937434Y-116467775D01*
X94289581Y-116613639D01*
X94663419Y-116688000D01*
X95044581Y-116688000D01*
X95418419Y-116613639D01*
X95770566Y-116467775D01*
X96087491Y-116256013D01*
X96357013Y-115986491D01*
X96444466Y-115855608D01*
X116197000Y-115855608D01*
X116197000Y-116130792D01*
X116250686Y-116400690D01*
X116355995Y-116654927D01*
X116508880Y-116883735D01*
X116703465Y-117078320D01*
X116932273Y-117231205D01*
X117186510Y-117336514D01*
X117456408Y-117390200D01*
X117731592Y-117390200D01*
X118001490Y-117336514D01*
X118054801Y-117314432D01*
X118116032Y-117462256D01*
X118227221Y-117628662D01*
X118368738Y-117770179D01*
X118535144Y-117881368D01*
X118720044Y-117957956D01*
X118916333Y-117997000D01*
X119116467Y-117997000D01*
X119312756Y-117957956D01*
X119497656Y-117881368D01*
X119664062Y-117770179D01*
X119805579Y-117628662D01*
X119916768Y-117462256D01*
X119993356Y-117277356D01*
X120032400Y-117081067D01*
X120032400Y-116880933D01*
X119993356Y-116684644D01*
X119927759Y-116526277D01*
X151527456Y-116526277D01*
X151527456Y-116726411D01*
X151566500Y-116922700D01*
X151643088Y-117107600D01*
X151754277Y-117274006D01*
X151895794Y-117415523D01*
X152062200Y-117526712D01*
X152247100Y-117603300D01*
X152443389Y-117642344D01*
X152643523Y-117642344D01*
X152839812Y-117603300D01*
X152867901Y-117591665D01*
X153899000Y-117591665D01*
X153899000Y-117874335D01*
X153954147Y-118151574D01*
X154062320Y-118412727D01*
X154219363Y-118647759D01*
X154419241Y-118847637D01*
X154651759Y-119003000D01*
X154419241Y-119158363D01*
X154219363Y-119358241D01*
X154062320Y-119593273D01*
X153954147Y-119854426D01*
X153899000Y-120131665D01*
X153899000Y-120414335D01*
X153954147Y-120691574D01*
X154062320Y-120952727D01*
X154219363Y-121187759D01*
X154419241Y-121387637D01*
X154651759Y-121543000D01*
X154419241Y-121698363D01*
X154219363Y-121898241D01*
X154062320Y-122133273D01*
X153954147Y-122394426D01*
X153899000Y-122671665D01*
X153899000Y-122954335D01*
X153954147Y-123231574D01*
X154062320Y-123492727D01*
X154219363Y-123727759D01*
X154419241Y-123927637D01*
X154651759Y-124083000D01*
X154419241Y-124238363D01*
X154219363Y-124438241D01*
X154062320Y-124673273D01*
X153954147Y-124934426D01*
X153899000Y-125211665D01*
X153899000Y-125494335D01*
X153954147Y-125771574D01*
X154062320Y-126032727D01*
X154219363Y-126267759D01*
X154419241Y-126467637D01*
X154654273Y-126624680D01*
X154915426Y-126732853D01*
X155192665Y-126788000D01*
X155475335Y-126788000D01*
X155752574Y-126732853D01*
X156013727Y-126624680D01*
X156248759Y-126467637D01*
X156448637Y-126267759D01*
X156605680Y-126032727D01*
X156713853Y-125771574D01*
X156769000Y-125494335D01*
X156769000Y-125211665D01*
X156713853Y-124934426D01*
X156605680Y-124673273D01*
X156448637Y-124438241D01*
X156248759Y-124238363D01*
X156016241Y-124083000D01*
X156248759Y-123927637D01*
X156448637Y-123727759D01*
X156605680Y-123492727D01*
X156713853Y-123231574D01*
X156769000Y-122954335D01*
X156769000Y-122671665D01*
X156713853Y-122394426D01*
X156605680Y-122133273D01*
X156448637Y-121898241D01*
X156248759Y-121698363D01*
X156016241Y-121543000D01*
X156248759Y-121387637D01*
X156448637Y-121187759D01*
X156605680Y-120952727D01*
X156713853Y-120691574D01*
X156769000Y-120414335D01*
X156769000Y-120131665D01*
X156713853Y-119854426D01*
X156605680Y-119593273D01*
X156448637Y-119358241D01*
X156248759Y-119158363D01*
X156016241Y-119003000D01*
X156248759Y-118847637D01*
X156448637Y-118647759D01*
X156605680Y-118412727D01*
X156713853Y-118151574D01*
X156769000Y-117874335D01*
X156769000Y-117591665D01*
X156713853Y-117314426D01*
X156605680Y-117053273D01*
X156448637Y-116818241D01*
X156248759Y-116618363D01*
X156013727Y-116461320D01*
X155752574Y-116353147D01*
X155475335Y-116298000D01*
X155192665Y-116298000D01*
X154915426Y-116353147D01*
X154654273Y-116461320D01*
X154419241Y-116618363D01*
X154219363Y-116818241D01*
X154062320Y-117053273D01*
X153954147Y-117314426D01*
X153899000Y-117591665D01*
X152867901Y-117591665D01*
X153024712Y-117526712D01*
X153191118Y-117415523D01*
X153332635Y-117274006D01*
X153443824Y-117107600D01*
X153520412Y-116922700D01*
X153559456Y-116726411D01*
X153559456Y-116526277D01*
X153520412Y-116329988D01*
X153443824Y-116145088D01*
X153332635Y-115978682D01*
X153191118Y-115837165D01*
X153024712Y-115725976D01*
X152839812Y-115649388D01*
X152643523Y-115610344D01*
X152443389Y-115610344D01*
X152247100Y-115649388D01*
X152062200Y-115725976D01*
X151895794Y-115837165D01*
X151754277Y-115978682D01*
X151643088Y-116145088D01*
X151566500Y-116329988D01*
X151527456Y-116526277D01*
X119927759Y-116526277D01*
X119916768Y-116499744D01*
X119805579Y-116333338D01*
X119664062Y-116191821D01*
X119497656Y-116080632D01*
X119312756Y-116004044D01*
X119116467Y-115965000D01*
X118991000Y-115965000D01*
X118991000Y-115855608D01*
X118937314Y-115585710D01*
X118832005Y-115331473D01*
X118713243Y-115153733D01*
X123156600Y-115153733D01*
X123156600Y-115353867D01*
X123195644Y-115550156D01*
X123272232Y-115735056D01*
X123383421Y-115901462D01*
X123524938Y-116042979D01*
X123691344Y-116154168D01*
X123876244Y-116230756D01*
X124072533Y-116269800D01*
X124272667Y-116269800D01*
X124468956Y-116230756D01*
X124653856Y-116154168D01*
X124820262Y-116042979D01*
X124961779Y-115901462D01*
X125072968Y-115735056D01*
X125149556Y-115550156D01*
X125188600Y-115353867D01*
X125188600Y-115153733D01*
X125153234Y-114975933D01*
X128236600Y-114975933D01*
X128236600Y-115176067D01*
X128275644Y-115372356D01*
X128352232Y-115557256D01*
X128463421Y-115723662D01*
X128604938Y-115865179D01*
X128771344Y-115976368D01*
X128956244Y-116052956D01*
X129152533Y-116092000D01*
X129352667Y-116092000D01*
X129548956Y-116052956D01*
X129733856Y-115976368D01*
X129900262Y-115865179D01*
X130041779Y-115723662D01*
X130152968Y-115557256D01*
X130229556Y-115372356D01*
X130268600Y-115176067D01*
X130268600Y-114975933D01*
X130229556Y-114779644D01*
X130153047Y-114594933D01*
X136110600Y-114594933D01*
X136110600Y-114795067D01*
X136149644Y-114991356D01*
X136226232Y-115176256D01*
X136337421Y-115342662D01*
X136478938Y-115484179D01*
X136645344Y-115595368D01*
X136830244Y-115671956D01*
X137026533Y-115711000D01*
X137226667Y-115711000D01*
X137422956Y-115671956D01*
X137607856Y-115595368D01*
X137774262Y-115484179D01*
X137915779Y-115342662D01*
X138026968Y-115176256D01*
X138103556Y-114991356D01*
X138142600Y-114795067D01*
X138142600Y-114594933D01*
X138103556Y-114398644D01*
X138026968Y-114213744D01*
X137915779Y-114047338D01*
X137774262Y-113905821D01*
X137607856Y-113794632D01*
X137422956Y-113718044D01*
X137226667Y-113679000D01*
X137026533Y-113679000D01*
X136830244Y-113718044D01*
X136645344Y-113794632D01*
X136478938Y-113905821D01*
X136337421Y-114047338D01*
X136226232Y-114213744D01*
X136149644Y-114398644D01*
X136110600Y-114594933D01*
X130153047Y-114594933D01*
X130152968Y-114594744D01*
X130041779Y-114428338D01*
X129900262Y-114286821D01*
X129733856Y-114175632D01*
X129548956Y-114099044D01*
X129352667Y-114060000D01*
X129152533Y-114060000D01*
X128956244Y-114099044D01*
X128771344Y-114175632D01*
X128604938Y-114286821D01*
X128463421Y-114428338D01*
X128352232Y-114594744D01*
X128275644Y-114779644D01*
X128236600Y-114975933D01*
X125153234Y-114975933D01*
X125149556Y-114957444D01*
X125072968Y-114772544D01*
X124961779Y-114606138D01*
X124820262Y-114464621D01*
X124653856Y-114353432D01*
X124468956Y-114276844D01*
X124272667Y-114237800D01*
X124072533Y-114237800D01*
X123876244Y-114276844D01*
X123691344Y-114353432D01*
X123524938Y-114464621D01*
X123383421Y-114606138D01*
X123272232Y-114772544D01*
X123195644Y-114957444D01*
X123156600Y-115153733D01*
X118713243Y-115153733D01*
X118679120Y-115102665D01*
X118484535Y-114908080D01*
X118318861Y-114797380D01*
X118332379Y-114783862D01*
X118443568Y-114617456D01*
X118520156Y-114432556D01*
X118559200Y-114236267D01*
X118559200Y-114036133D01*
X118520156Y-113839844D01*
X118443568Y-113654944D01*
X118332379Y-113488538D01*
X118190862Y-113347021D01*
X118024456Y-113235832D01*
X117839556Y-113159244D01*
X117643267Y-113120200D01*
X117443133Y-113120200D01*
X117246844Y-113159244D01*
X117061944Y-113235832D01*
X116895538Y-113347021D01*
X116754021Y-113488538D01*
X116642832Y-113654944D01*
X116566244Y-113839844D01*
X116527200Y-114036133D01*
X116527200Y-114236267D01*
X116566244Y-114432556D01*
X116642832Y-114617456D01*
X116754021Y-114783862D01*
X116808234Y-114838075D01*
X116703465Y-114908080D01*
X116508880Y-115102665D01*
X116355995Y-115331473D01*
X116250686Y-115585710D01*
X116197000Y-115855608D01*
X96444466Y-115855608D01*
X96568775Y-115669566D01*
X96714639Y-115317419D01*
X96789000Y-114943581D01*
X96789000Y-114562419D01*
X96714639Y-114188581D01*
X96568775Y-113836434D01*
X96357013Y-113519509D01*
X96087491Y-113249987D01*
X95770566Y-113038225D01*
X95418419Y-112892361D01*
X95044581Y-112818000D01*
X94663419Y-112818000D01*
X94289581Y-112892361D01*
X93937434Y-113038225D01*
X93620509Y-113249987D01*
X93350987Y-113519509D01*
X93139225Y-113836434D01*
X92993361Y-114188581D01*
X92919000Y-114562419D01*
X90372000Y-114562419D01*
X90372000Y-111953333D01*
X118533800Y-111953333D01*
X118533800Y-112153467D01*
X118572844Y-112349756D01*
X118649432Y-112534656D01*
X118760621Y-112701062D01*
X118902138Y-112842579D01*
X119068544Y-112953768D01*
X119253444Y-113030356D01*
X119449733Y-113069400D01*
X119649867Y-113069400D01*
X119846156Y-113030356D01*
X120031056Y-112953768D01*
X120197462Y-112842579D01*
X120338979Y-112701062D01*
X120450168Y-112534656D01*
X120526756Y-112349756D01*
X120560137Y-112181933D01*
X137583800Y-112181933D01*
X137583800Y-112382067D01*
X137622844Y-112578356D01*
X137699432Y-112763256D01*
X137810621Y-112929662D01*
X137952138Y-113071179D01*
X138118544Y-113182368D01*
X138303444Y-113258956D01*
X138499733Y-113298000D01*
X138699867Y-113298000D01*
X138896156Y-113258956D01*
X139081056Y-113182368D01*
X139247462Y-113071179D01*
X139388979Y-112929662D01*
X139500168Y-112763256D01*
X139576756Y-112578356D01*
X139615800Y-112382067D01*
X139615800Y-112181933D01*
X139576756Y-111985644D01*
X139500168Y-111800744D01*
X139466351Y-111750133D01*
X148734400Y-111750133D01*
X148734400Y-111950267D01*
X148773444Y-112146556D01*
X148850032Y-112331456D01*
X148961221Y-112497862D01*
X149102738Y-112639379D01*
X149269144Y-112750568D01*
X149454044Y-112827156D01*
X149650333Y-112866200D01*
X149850467Y-112866200D01*
X150046756Y-112827156D01*
X150231656Y-112750568D01*
X150398062Y-112639379D01*
X150539579Y-112497862D01*
X150650768Y-112331456D01*
X150727356Y-112146556D01*
X150766400Y-111950267D01*
X150766400Y-111750133D01*
X150727356Y-111553844D01*
X150650768Y-111368944D01*
X150539579Y-111202538D01*
X150426774Y-111089733D01*
X154170000Y-111089733D01*
X154170000Y-111289867D01*
X154209044Y-111486156D01*
X154285632Y-111671056D01*
X154396821Y-111837462D01*
X154538338Y-111978979D01*
X154704744Y-112090168D01*
X154889644Y-112166756D01*
X155085933Y-112205800D01*
X155286067Y-112205800D01*
X155482356Y-112166756D01*
X155667256Y-112090168D01*
X155833662Y-111978979D01*
X155975179Y-111837462D01*
X156086368Y-111671056D01*
X156162956Y-111486156D01*
X156202000Y-111289867D01*
X156202000Y-111089733D01*
X156162956Y-110893444D01*
X156086368Y-110708544D01*
X155975179Y-110542138D01*
X155833662Y-110400621D01*
X155667256Y-110289432D01*
X155482356Y-110212844D01*
X155286067Y-110173800D01*
X155085933Y-110173800D01*
X154889644Y-110212844D01*
X154704744Y-110289432D01*
X154538338Y-110400621D01*
X154396821Y-110542138D01*
X154285632Y-110708544D01*
X154209044Y-110893444D01*
X154170000Y-111089733D01*
X150426774Y-111089733D01*
X150398062Y-111061021D01*
X150231656Y-110949832D01*
X150046756Y-110873244D01*
X149850467Y-110834200D01*
X149650333Y-110834200D01*
X149454044Y-110873244D01*
X149269144Y-110949832D01*
X149102738Y-111061021D01*
X148961221Y-111202538D01*
X148850032Y-111368944D01*
X148773444Y-111553844D01*
X148734400Y-111750133D01*
X139466351Y-111750133D01*
X139388979Y-111634338D01*
X139247462Y-111492821D01*
X139081056Y-111381632D01*
X138896156Y-111305044D01*
X138699867Y-111266000D01*
X138499733Y-111266000D01*
X138303444Y-111305044D01*
X138118544Y-111381632D01*
X137952138Y-111492821D01*
X137810621Y-111634338D01*
X137699432Y-111800744D01*
X137622844Y-111985644D01*
X137583800Y-112181933D01*
X120560137Y-112181933D01*
X120565800Y-112153467D01*
X120565800Y-111953333D01*
X120526756Y-111757044D01*
X120450168Y-111572144D01*
X120338979Y-111405738D01*
X120197462Y-111264221D01*
X120031056Y-111153032D01*
X119846156Y-111076444D01*
X119649867Y-111037400D01*
X119449733Y-111037400D01*
X119253444Y-111076444D01*
X119068544Y-111153032D01*
X118902138Y-111264221D01*
X118760621Y-111405738D01*
X118649432Y-111572144D01*
X118572844Y-111757044D01*
X118533800Y-111953333D01*
X90372000Y-111953333D01*
X90372000Y-109562419D01*
X92919000Y-109562419D01*
X92919000Y-109943581D01*
X92993361Y-110317419D01*
X93139225Y-110669566D01*
X93350987Y-110986491D01*
X93620509Y-111256013D01*
X93937434Y-111467775D01*
X94289581Y-111613639D01*
X94663419Y-111688000D01*
X95044581Y-111688000D01*
X95418419Y-111613639D01*
X95770566Y-111467775D01*
X96087491Y-111256013D01*
X96357013Y-110986491D01*
X96568775Y-110669566D01*
X96714639Y-110317419D01*
X96789000Y-109943581D01*
X96789000Y-109562419D01*
X96714639Y-109188581D01*
X96670962Y-109083133D01*
X109923200Y-109083133D01*
X109923200Y-109283267D01*
X109962244Y-109479556D01*
X110038832Y-109664456D01*
X110150021Y-109830862D01*
X110291538Y-109972379D01*
X110457944Y-110083568D01*
X110642844Y-110160156D01*
X110839133Y-110199200D01*
X111039267Y-110199200D01*
X111235556Y-110160156D01*
X111420456Y-110083568D01*
X111586862Y-109972379D01*
X111728379Y-109830862D01*
X111839568Y-109664456D01*
X111869939Y-109591133D01*
X118025800Y-109591133D01*
X118025800Y-109791267D01*
X118064844Y-109987556D01*
X118141432Y-110172456D01*
X118252621Y-110338862D01*
X118394138Y-110480379D01*
X118560544Y-110591568D01*
X118745444Y-110668156D01*
X118941733Y-110707200D01*
X119141867Y-110707200D01*
X119338156Y-110668156D01*
X119523056Y-110591568D01*
X119689462Y-110480379D01*
X119830979Y-110338862D01*
X119942168Y-110172456D01*
X120018756Y-109987556D01*
X120057800Y-109791267D01*
X120057800Y-109591133D01*
X120018756Y-109394844D01*
X119942168Y-109209944D01*
X119830979Y-109043538D01*
X119689462Y-108902021D01*
X119523056Y-108790832D01*
X119338156Y-108714244D01*
X119141867Y-108675200D01*
X118941733Y-108675200D01*
X118745444Y-108714244D01*
X118560544Y-108790832D01*
X118394138Y-108902021D01*
X118252621Y-109043538D01*
X118141432Y-109209944D01*
X118064844Y-109394844D01*
X118025800Y-109591133D01*
X111869939Y-109591133D01*
X111916156Y-109479556D01*
X111955200Y-109283267D01*
X111955200Y-109083133D01*
X111916156Y-108886844D01*
X111839568Y-108701944D01*
X111728379Y-108535538D01*
X111586862Y-108394021D01*
X111477778Y-108321133D01*
X133418200Y-108321133D01*
X133418200Y-108521267D01*
X133457244Y-108717556D01*
X133533832Y-108902456D01*
X133645021Y-109068862D01*
X133786538Y-109210379D01*
X133952944Y-109321568D01*
X134137844Y-109398156D01*
X134334133Y-109437200D01*
X134534267Y-109437200D01*
X134730556Y-109398156D01*
X134816557Y-109362533D01*
X141876400Y-109362533D01*
X141876400Y-109562667D01*
X141915444Y-109758956D01*
X141992032Y-109943856D01*
X142103221Y-110110262D01*
X142244738Y-110251779D01*
X142411144Y-110362968D01*
X142596044Y-110439556D01*
X142792333Y-110478600D01*
X142992467Y-110478600D01*
X143188756Y-110439556D01*
X143373656Y-110362968D01*
X143540062Y-110251779D01*
X143681579Y-110110262D01*
X143792768Y-109943856D01*
X143869356Y-109758956D01*
X143908400Y-109562667D01*
X143908400Y-109362533D01*
X143869356Y-109166244D01*
X143792768Y-108981344D01*
X143681579Y-108814938D01*
X143540062Y-108673421D01*
X143373656Y-108562232D01*
X143188756Y-108485644D01*
X142992467Y-108446600D01*
X142792333Y-108446600D01*
X142596044Y-108485644D01*
X142411144Y-108562232D01*
X142244738Y-108673421D01*
X142103221Y-108814938D01*
X141992032Y-108981344D01*
X141915444Y-109166244D01*
X141876400Y-109362533D01*
X134816557Y-109362533D01*
X134915456Y-109321568D01*
X135081862Y-109210379D01*
X135223379Y-109068862D01*
X135334568Y-108902456D01*
X135411156Y-108717556D01*
X135450200Y-108521267D01*
X135450200Y-108321133D01*
X135411156Y-108124844D01*
X135334568Y-107939944D01*
X135223379Y-107773538D01*
X135081862Y-107632021D01*
X134915456Y-107520832D01*
X134730556Y-107444244D01*
X134534267Y-107405200D01*
X134334133Y-107405200D01*
X134137844Y-107444244D01*
X133952944Y-107520832D01*
X133786538Y-107632021D01*
X133645021Y-107773538D01*
X133533832Y-107939944D01*
X133457244Y-108124844D01*
X133418200Y-108321133D01*
X111477778Y-108321133D01*
X111420456Y-108282832D01*
X111235556Y-108206244D01*
X111039267Y-108167200D01*
X110839133Y-108167200D01*
X110642844Y-108206244D01*
X110457944Y-108282832D01*
X110291538Y-108394021D01*
X110150021Y-108535538D01*
X110038832Y-108701944D01*
X109962244Y-108886844D01*
X109923200Y-109083133D01*
X96670962Y-109083133D01*
X96568775Y-108836434D01*
X96357013Y-108519509D01*
X96087491Y-108249987D01*
X95770566Y-108038225D01*
X95418419Y-107892361D01*
X95044581Y-107818000D01*
X94663419Y-107818000D01*
X94289581Y-107892361D01*
X93937434Y-108038225D01*
X93620509Y-108249987D01*
X93350987Y-108519509D01*
X93139225Y-108836434D01*
X92993361Y-109188581D01*
X92919000Y-109562419D01*
X90372000Y-109562419D01*
X90372000Y-106053000D01*
X92915928Y-106053000D01*
X92928188Y-106177482D01*
X92964498Y-106297180D01*
X93023463Y-106407494D01*
X93102815Y-106504185D01*
X93199506Y-106583537D01*
X93309820Y-106642502D01*
X93429518Y-106678812D01*
X93554000Y-106691072D01*
X94568250Y-106688000D01*
X94727000Y-106529250D01*
X94727000Y-104880000D01*
X94981000Y-104880000D01*
X94981000Y-106529250D01*
X95139750Y-106688000D01*
X96154000Y-106691072D01*
X96278482Y-106678812D01*
X96398180Y-106642502D01*
X96508494Y-106583537D01*
X96605185Y-106504185D01*
X96684537Y-106407494D01*
X96743502Y-106297180D01*
X96779812Y-106177482D01*
X96790022Y-106073808D01*
X130700400Y-106073808D01*
X130700400Y-106348992D01*
X130754086Y-106618890D01*
X130859395Y-106873127D01*
X131012280Y-107101935D01*
X131206865Y-107296520D01*
X131435673Y-107449405D01*
X131689910Y-107554714D01*
X131959808Y-107608400D01*
X132234992Y-107608400D01*
X132504890Y-107554714D01*
X132759127Y-107449405D01*
X132987935Y-107296520D01*
X133182520Y-107101935D01*
X133335405Y-106873127D01*
X133440714Y-106618890D01*
X133494400Y-106348992D01*
X133494400Y-106073808D01*
X133440714Y-105803910D01*
X133335405Y-105549673D01*
X133182520Y-105320865D01*
X132987935Y-105126280D01*
X132759127Y-104973395D01*
X132504890Y-104868086D01*
X132234992Y-104814400D01*
X131959808Y-104814400D01*
X131689910Y-104868086D01*
X131435673Y-104973395D01*
X131206865Y-105126280D01*
X131012280Y-105320865D01*
X130859395Y-105549673D01*
X130754086Y-105803910D01*
X130700400Y-106073808D01*
X96790022Y-106073808D01*
X96792072Y-106053000D01*
X96789000Y-105038750D01*
X96630250Y-104880000D01*
X94981000Y-104880000D01*
X94727000Y-104880000D01*
X93077750Y-104880000D01*
X92919000Y-105038750D01*
X92915928Y-106053000D01*
X90372000Y-106053000D01*
X90372000Y-103453000D01*
X92915928Y-103453000D01*
X92919000Y-104467250D01*
X93077750Y-104626000D01*
X94727000Y-104626000D01*
X94727000Y-102976750D01*
X94981000Y-102976750D01*
X94981000Y-104626000D01*
X96630250Y-104626000D01*
X96789000Y-104467250D01*
X96792072Y-103453000D01*
X96779812Y-103328518D01*
X96764468Y-103277933D01*
X148615400Y-103277933D01*
X148615400Y-103478067D01*
X148654444Y-103674356D01*
X148731032Y-103859256D01*
X148842221Y-104025662D01*
X148983738Y-104167179D01*
X149150144Y-104278368D01*
X149335044Y-104354956D01*
X149531333Y-104394000D01*
X149731467Y-104394000D01*
X149927756Y-104354956D01*
X150112656Y-104278368D01*
X150279062Y-104167179D01*
X150420579Y-104025662D01*
X150531768Y-103859256D01*
X150534174Y-103853445D01*
X155716688Y-103853445D01*
X155716688Y-104053579D01*
X155755732Y-104249868D01*
X155832320Y-104434768D01*
X155943509Y-104601174D01*
X156085026Y-104742691D01*
X156251432Y-104853880D01*
X156436332Y-104930468D01*
X156632621Y-104969512D01*
X156832755Y-104969512D01*
X157029044Y-104930468D01*
X157213944Y-104853880D01*
X157380350Y-104742691D01*
X157521867Y-104601174D01*
X157633056Y-104434768D01*
X157709644Y-104249868D01*
X157748688Y-104053579D01*
X157748688Y-103853445D01*
X157709644Y-103657156D01*
X157633056Y-103472256D01*
X157521867Y-103305850D01*
X157380350Y-103164333D01*
X157213944Y-103053144D01*
X157029044Y-102976556D01*
X156832755Y-102937512D01*
X156632621Y-102937512D01*
X156436332Y-102976556D01*
X156251432Y-103053144D01*
X156085026Y-103164333D01*
X155943509Y-103305850D01*
X155832320Y-103472256D01*
X155755732Y-103657156D01*
X155716688Y-103853445D01*
X150534174Y-103853445D01*
X150608356Y-103674356D01*
X150647400Y-103478067D01*
X150647400Y-103277933D01*
X150608356Y-103081644D01*
X150531768Y-102896744D01*
X150420579Y-102730338D01*
X150279062Y-102588821D01*
X150112656Y-102477632D01*
X149927756Y-102401044D01*
X149731467Y-102362000D01*
X149531333Y-102362000D01*
X149335044Y-102401044D01*
X149150144Y-102477632D01*
X148983738Y-102588821D01*
X148842221Y-102730338D01*
X148731032Y-102896744D01*
X148654444Y-103081644D01*
X148615400Y-103277933D01*
X96764468Y-103277933D01*
X96743502Y-103208820D01*
X96684537Y-103098506D01*
X96605185Y-103001815D01*
X96508494Y-102922463D01*
X96398180Y-102863498D01*
X96278482Y-102827188D01*
X96154000Y-102814928D01*
X95139750Y-102818000D01*
X94981000Y-102976750D01*
X94727000Y-102976750D01*
X94568250Y-102818000D01*
X93554000Y-102814928D01*
X93429518Y-102827188D01*
X93309820Y-102863498D01*
X93199506Y-102922463D01*
X93102815Y-103001815D01*
X93023463Y-103098506D01*
X92964498Y-103208820D01*
X92928188Y-103328518D01*
X92915928Y-103453000D01*
X90372000Y-103453000D01*
X90372000Y-101590133D01*
X111777400Y-101590133D01*
X111777400Y-101790267D01*
X111816444Y-101986556D01*
X111893032Y-102171456D01*
X112004221Y-102337862D01*
X112145738Y-102479379D01*
X112312144Y-102590568D01*
X112497044Y-102667156D01*
X112693333Y-102706200D01*
X112893467Y-102706200D01*
X113089756Y-102667156D01*
X113274656Y-102590568D01*
X113441062Y-102479379D01*
X113582579Y-102337862D01*
X113693768Y-102171456D01*
X113745181Y-102047333D01*
X118381400Y-102047333D01*
X118381400Y-102247467D01*
X118420444Y-102443756D01*
X118497032Y-102628656D01*
X118608221Y-102795062D01*
X118749738Y-102936579D01*
X118916144Y-103047768D01*
X119101044Y-103124356D01*
X119297333Y-103163400D01*
X119497467Y-103163400D01*
X119693756Y-103124356D01*
X119878656Y-103047768D01*
X120045062Y-102936579D01*
X120186579Y-102795062D01*
X120297768Y-102628656D01*
X120374356Y-102443756D01*
X120413400Y-102247467D01*
X120413400Y-102047333D01*
X120374356Y-101851044D01*
X120297768Y-101666144D01*
X120186579Y-101499738D01*
X120045062Y-101358221D01*
X119878656Y-101247032D01*
X119693756Y-101170444D01*
X119497467Y-101131400D01*
X119297333Y-101131400D01*
X119101044Y-101170444D01*
X118916144Y-101247032D01*
X118749738Y-101358221D01*
X118608221Y-101499738D01*
X118497032Y-101666144D01*
X118420444Y-101851044D01*
X118381400Y-102047333D01*
X113745181Y-102047333D01*
X113770356Y-101986556D01*
X113809400Y-101790267D01*
X113809400Y-101590133D01*
X113770356Y-101393844D01*
X113693768Y-101208944D01*
X113582579Y-101042538D01*
X113441062Y-100901021D01*
X113274656Y-100789832D01*
X113089756Y-100713244D01*
X112893467Y-100674200D01*
X112693333Y-100674200D01*
X112497044Y-100713244D01*
X112312144Y-100789832D01*
X112145738Y-100901021D01*
X112004221Y-101042538D01*
X111893032Y-101208944D01*
X111816444Y-101393844D01*
X111777400Y-101590133D01*
X90372000Y-101590133D01*
X90372000Y-97355050D01*
X137069000Y-97355050D01*
X137069000Y-97750949D01*
X137090487Y-97969110D01*
X137175401Y-98249033D01*
X137313294Y-98507013D01*
X137498866Y-98733134D01*
X137724986Y-98918706D01*
X137982966Y-99056599D01*
X138262889Y-99141513D01*
X138554000Y-99170185D01*
X138845110Y-99141513D01*
X139125033Y-99056599D01*
X139383013Y-98918706D01*
X139609134Y-98733134D01*
X139794706Y-98507014D01*
X139804000Y-98489626D01*
X139813294Y-98507013D01*
X139998866Y-98733134D01*
X140224986Y-98918706D01*
X140482966Y-99056599D01*
X140762889Y-99141513D01*
X141054000Y-99170185D01*
X141345110Y-99141513D01*
X141625033Y-99056599D01*
X141883013Y-98918706D01*
X142109134Y-98733134D01*
X142294706Y-98507014D01*
X142304000Y-98489626D01*
X142313294Y-98507013D01*
X142498866Y-98733134D01*
X142724986Y-98918706D01*
X142982966Y-99056599D01*
X143262889Y-99141513D01*
X143554000Y-99170185D01*
X143845110Y-99141513D01*
X144125033Y-99056599D01*
X144383013Y-98918706D01*
X144609134Y-98733134D01*
X144794706Y-98507014D01*
X144804000Y-98489626D01*
X144813294Y-98507013D01*
X144998866Y-98733134D01*
X145224986Y-98918706D01*
X145482966Y-99056599D01*
X145762889Y-99141513D01*
X146054000Y-99170185D01*
X146345110Y-99141513D01*
X146625033Y-99056599D01*
X146883013Y-98918706D01*
X147109134Y-98733134D01*
X147161223Y-98669663D01*
X147215595Y-98771386D01*
X147326038Y-98905962D01*
X147460614Y-99016405D01*
X147614150Y-99098472D01*
X147780746Y-99149008D01*
X147954000Y-99166072D01*
X149154000Y-99166072D01*
X149327254Y-99149008D01*
X149493850Y-99098472D01*
X149647386Y-99016405D01*
X149781962Y-98905962D01*
X149892405Y-98771386D01*
X149974472Y-98617850D01*
X150025008Y-98451254D01*
X150042072Y-98278000D01*
X150042072Y-96828000D01*
X150025008Y-96654746D01*
X149974472Y-96488150D01*
X149892405Y-96334614D01*
X149781962Y-96200038D01*
X149647386Y-96089595D01*
X149493850Y-96007528D01*
X149327254Y-95956992D01*
X149154000Y-95939928D01*
X147954000Y-95939928D01*
X147780746Y-95956992D01*
X147614150Y-96007528D01*
X147460614Y-96089595D01*
X147326038Y-96200038D01*
X147215595Y-96334614D01*
X147161223Y-96436337D01*
X147109134Y-96372866D01*
X146883014Y-96187294D01*
X146625034Y-96049401D01*
X146345111Y-95964487D01*
X146054000Y-95935815D01*
X145762890Y-95964487D01*
X145482967Y-96049401D01*
X145224987Y-96187294D01*
X144998866Y-96372866D01*
X144813294Y-96598986D01*
X144804000Y-96616374D01*
X144794706Y-96598986D01*
X144609134Y-96372866D01*
X144383014Y-96187294D01*
X144125034Y-96049401D01*
X143845111Y-95964487D01*
X143554000Y-95935815D01*
X143262890Y-95964487D01*
X142982967Y-96049401D01*
X142724987Y-96187294D01*
X142498866Y-96372866D01*
X142313294Y-96598986D01*
X142304000Y-96616374D01*
X142294706Y-96598986D01*
X142109134Y-96372866D01*
X141883014Y-96187294D01*
X141625034Y-96049401D01*
X141345111Y-95964487D01*
X141054000Y-95935815D01*
X140762890Y-95964487D01*
X140482967Y-96049401D01*
X140224987Y-96187294D01*
X139998866Y-96372866D01*
X139813294Y-96598986D01*
X139804000Y-96616374D01*
X139794706Y-96598986D01*
X139609134Y-96372866D01*
X139383014Y-96187294D01*
X139125034Y-96049401D01*
X138845111Y-95964487D01*
X138554000Y-95935815D01*
X138262890Y-95964487D01*
X137982967Y-96049401D01*
X137724987Y-96187294D01*
X137498866Y-96372866D01*
X137313294Y-96598986D01*
X137175401Y-96856966D01*
X137090487Y-97136889D01*
X137069000Y-97355050D01*
X90372000Y-97355050D01*
X90372000Y-94594297D01*
X90775161Y-95197670D01*
X91309330Y-95731839D01*
X91937446Y-96151533D01*
X92635372Y-96440623D01*
X93376285Y-96588000D01*
X94131715Y-96588000D01*
X94872628Y-96440623D01*
X95570554Y-96151533D01*
X96198670Y-95731839D01*
X96732839Y-95197670D01*
X97152533Y-94569554D01*
X97196909Y-94462419D01*
X99219000Y-94462419D01*
X99219000Y-94843581D01*
X99293361Y-95217419D01*
X99439225Y-95569566D01*
X99650987Y-95886491D01*
X99920509Y-96156013D01*
X100237434Y-96367775D01*
X100589581Y-96513639D01*
X100963419Y-96588000D01*
X101344581Y-96588000D01*
X101718419Y-96513639D01*
X102070566Y-96367775D01*
X102387491Y-96156013D01*
X102657013Y-95886491D01*
X102868775Y-95569566D01*
X103014639Y-95217419D01*
X103089000Y-94843581D01*
X103089000Y-94462419D01*
X104219000Y-94462419D01*
X104219000Y-94843581D01*
X104293361Y-95217419D01*
X104439225Y-95569566D01*
X104650987Y-95886491D01*
X104920509Y-96156013D01*
X105237434Y-96367775D01*
X105589581Y-96513639D01*
X105963419Y-96588000D01*
X106344581Y-96588000D01*
X106718419Y-96513639D01*
X107070566Y-96367775D01*
X107387491Y-96156013D01*
X107657013Y-95886491D01*
X107868775Y-95569566D01*
X108014639Y-95217419D01*
X108089000Y-94843581D01*
X108089000Y-94462419D01*
X109219000Y-94462419D01*
X109219000Y-94843581D01*
X109293361Y-95217419D01*
X109439225Y-95569566D01*
X109650987Y-95886491D01*
X109920509Y-96156013D01*
X110237434Y-96367775D01*
X110589581Y-96513639D01*
X110963419Y-96588000D01*
X111344581Y-96588000D01*
X111718419Y-96513639D01*
X112070566Y-96367775D01*
X112387491Y-96156013D01*
X112590504Y-95953000D01*
X114215928Y-95953000D01*
X114228188Y-96077482D01*
X114264498Y-96197180D01*
X114323463Y-96307494D01*
X114402815Y-96404185D01*
X114499506Y-96483537D01*
X114609820Y-96542502D01*
X114729518Y-96578812D01*
X114854000Y-96591072D01*
X115868250Y-96588000D01*
X116027000Y-96429250D01*
X116027000Y-94780000D01*
X116281000Y-94780000D01*
X116281000Y-96429250D01*
X116439750Y-96588000D01*
X117454000Y-96591072D01*
X117578482Y-96578812D01*
X117698180Y-96542502D01*
X117808494Y-96483537D01*
X117905185Y-96404185D01*
X117984537Y-96307494D01*
X118043502Y-96197180D01*
X118079812Y-96077482D01*
X118087224Y-96002224D01*
X121084381Y-96002224D01*
X121216317Y-96297312D01*
X121557045Y-96468159D01*
X121924557Y-96569250D01*
X122304729Y-96596701D01*
X122682951Y-96549457D01*
X123044690Y-96429333D01*
X123291683Y-96297312D01*
X123423619Y-96002224D01*
X122254000Y-94832605D01*
X121084381Y-96002224D01*
X118087224Y-96002224D01*
X118092072Y-95953000D01*
X118089000Y-94938750D01*
X117930250Y-94780000D01*
X116281000Y-94780000D01*
X116027000Y-94780000D01*
X114377750Y-94780000D01*
X114219000Y-94938750D01*
X114215928Y-95953000D01*
X112590504Y-95953000D01*
X112657013Y-95886491D01*
X112868775Y-95569566D01*
X113014639Y-95217419D01*
X113089000Y-94843581D01*
X113089000Y-94703729D01*
X120310299Y-94703729D01*
X120357543Y-95081951D01*
X120477667Y-95443690D01*
X120609688Y-95690683D01*
X120904776Y-95822619D01*
X122074395Y-94653000D01*
X122433605Y-94653000D01*
X123603224Y-95822619D01*
X123898312Y-95690683D01*
X124069159Y-95349955D01*
X124170250Y-94982443D01*
X124197701Y-94602271D01*
X124180232Y-94462419D01*
X125319000Y-94462419D01*
X125319000Y-94843581D01*
X125393361Y-95217419D01*
X125539225Y-95569566D01*
X125750987Y-95886491D01*
X126020509Y-96156013D01*
X126337434Y-96367775D01*
X126689581Y-96513639D01*
X127063419Y-96588000D01*
X127444581Y-96588000D01*
X127818419Y-96513639D01*
X128170566Y-96367775D01*
X128487491Y-96156013D01*
X128757013Y-95886491D01*
X128968775Y-95569566D01*
X129114639Y-95217419D01*
X129189000Y-94843581D01*
X129189000Y-94462419D01*
X129114639Y-94088581D01*
X128968775Y-93736434D01*
X128757013Y-93419509D01*
X128690504Y-93353000D01*
X130315928Y-93353000D01*
X130315928Y-95953000D01*
X130328188Y-96077482D01*
X130364498Y-96197180D01*
X130423463Y-96307494D01*
X130502815Y-96404185D01*
X130599506Y-96483537D01*
X130709820Y-96542502D01*
X130829518Y-96578812D01*
X130954000Y-96591072D01*
X133554000Y-96591072D01*
X133678482Y-96578812D01*
X133798180Y-96542502D01*
X133908494Y-96483537D01*
X134005185Y-96404185D01*
X134084537Y-96307494D01*
X134143502Y-96197180D01*
X134179812Y-96077482D01*
X134192072Y-95953000D01*
X134192072Y-93353000D01*
X134179812Y-93228518D01*
X134143502Y-93108820D01*
X134084537Y-92998506D01*
X134005185Y-92901815D01*
X133908494Y-92822463D01*
X133798180Y-92763498D01*
X133678482Y-92727188D01*
X133554000Y-92714928D01*
X130954000Y-92714928D01*
X130829518Y-92727188D01*
X130709820Y-92763498D01*
X130599506Y-92822463D01*
X130502815Y-92901815D01*
X130423463Y-92998506D01*
X130364498Y-93108820D01*
X130328188Y-93228518D01*
X130315928Y-93353000D01*
X128690504Y-93353000D01*
X128487491Y-93149987D01*
X128170566Y-92938225D01*
X127818419Y-92792361D01*
X127444581Y-92718000D01*
X127063419Y-92718000D01*
X126689581Y-92792361D01*
X126337434Y-92938225D01*
X126020509Y-93149987D01*
X125750987Y-93419509D01*
X125539225Y-93736434D01*
X125393361Y-94088581D01*
X125319000Y-94462419D01*
X124180232Y-94462419D01*
X124150457Y-94224049D01*
X124030333Y-93862310D01*
X123898312Y-93615317D01*
X123603224Y-93483381D01*
X122433605Y-94653000D01*
X122074395Y-94653000D01*
X120904776Y-93483381D01*
X120609688Y-93615317D01*
X120438841Y-93956045D01*
X120337750Y-94323557D01*
X120310299Y-94703729D01*
X113089000Y-94703729D01*
X113089000Y-94462419D01*
X113014639Y-94088581D01*
X112868775Y-93736434D01*
X112657013Y-93419509D01*
X112590504Y-93353000D01*
X114215928Y-93353000D01*
X114219000Y-94367250D01*
X114377750Y-94526000D01*
X116027000Y-94526000D01*
X116027000Y-92876750D01*
X116281000Y-92876750D01*
X116281000Y-94526000D01*
X117930250Y-94526000D01*
X118089000Y-94367250D01*
X118092072Y-93353000D01*
X118087225Y-93303776D01*
X121084381Y-93303776D01*
X122254000Y-94473395D01*
X123423619Y-93303776D01*
X123291683Y-93008688D01*
X122950955Y-92837841D01*
X122583443Y-92736750D01*
X122203271Y-92709299D01*
X121825049Y-92756543D01*
X121463310Y-92876667D01*
X121216317Y-93008688D01*
X121084381Y-93303776D01*
X118087225Y-93303776D01*
X118079812Y-93228518D01*
X118043502Y-93108820D01*
X117984537Y-92998506D01*
X117905185Y-92901815D01*
X117808494Y-92822463D01*
X117698180Y-92763498D01*
X117578482Y-92727188D01*
X117454000Y-92714928D01*
X116439750Y-92718000D01*
X116281000Y-92876750D01*
X116027000Y-92876750D01*
X115868250Y-92718000D01*
X114854000Y-92714928D01*
X114729518Y-92727188D01*
X114609820Y-92763498D01*
X114499506Y-92822463D01*
X114402815Y-92901815D01*
X114323463Y-92998506D01*
X114264498Y-93108820D01*
X114228188Y-93228518D01*
X114215928Y-93353000D01*
X112590504Y-93353000D01*
X112387491Y-93149987D01*
X112070566Y-92938225D01*
X111718419Y-92792361D01*
X111344581Y-92718000D01*
X110963419Y-92718000D01*
X110589581Y-92792361D01*
X110237434Y-92938225D01*
X109920509Y-93149987D01*
X109650987Y-93419509D01*
X109439225Y-93736434D01*
X109293361Y-94088581D01*
X109219000Y-94462419D01*
X108089000Y-94462419D01*
X108014639Y-94088581D01*
X107868775Y-93736434D01*
X107657013Y-93419509D01*
X107387491Y-93149987D01*
X107070566Y-92938225D01*
X106718419Y-92792361D01*
X106344581Y-92718000D01*
X105963419Y-92718000D01*
X105589581Y-92792361D01*
X105237434Y-92938225D01*
X104920509Y-93149987D01*
X104650987Y-93419509D01*
X104439225Y-93736434D01*
X104293361Y-94088581D01*
X104219000Y-94462419D01*
X103089000Y-94462419D01*
X103014639Y-94088581D01*
X102868775Y-93736434D01*
X102657013Y-93419509D01*
X102387491Y-93149987D01*
X102070566Y-92938225D01*
X101718419Y-92792361D01*
X101344581Y-92718000D01*
X100963419Y-92718000D01*
X100589581Y-92792361D01*
X100237434Y-92938225D01*
X99920509Y-93149987D01*
X99650987Y-93419509D01*
X99439225Y-93736434D01*
X99293361Y-94088581D01*
X99219000Y-94462419D01*
X97196909Y-94462419D01*
X97441623Y-93871628D01*
X97589000Y-93130715D01*
X97589000Y-92375285D01*
X97441623Y-91634372D01*
X97152533Y-90936446D01*
X96732839Y-90308330D01*
X96387509Y-89963000D01*
X157820491Y-89963000D01*
X157475161Y-90308330D01*
M02*
