G04 #@! TF.GenerationSoftware,KiCad,Pcbnew,5.1.10*
G04 #@! TF.CreationDate,2021-11-24T23:14:30-05:00*
G04 #@! TF.ProjectId,power_board,706f7765-725f-4626-9f61-72642e6b6963,rev?*
G04 #@! TF.SameCoordinates,Original*
G04 #@! TF.FileFunction,Soldermask,Top*
G04 #@! TF.FilePolarity,Negative*
%FSLAX46Y46*%
G04 Gerber Fmt 4.6, Leading zero omitted, Abs format (unit mm)*
G04 Created by KiCad (PCBNEW 5.1.10) date 2021-11-24 23:14:30*
%MOMM*%
%LPD*%
G01*
G04 APERTURE LIST*
%ADD10C,6.400000*%
%ADD11R,1.650000X2.850000*%
%ADD12R,0.610000X1.910000*%
%ADD13R,1.550000X1.205000*%
%ADD14R,2.000000X2.000000*%
%ADD15R,2.700000X6.000000*%
%ADD16O,1.800000X3.600000*%
%ADD17C,2.600000*%
%ADD18R,2.600000X2.600000*%
%ADD19R,1.200000X0.900000*%
G04 APERTURE END LIST*
D10*
X167000000Y-92250000D03*
X167000000Y-122250000D03*
X107000000Y-122250000D03*
X107000000Y-92250000D03*
G36*
G01*
X154489999Y-104048000D02*
X155390001Y-104048000D01*
G75*
G02*
X155640000Y-104297999I0J-249999D01*
G01*
X155640000Y-104998001D01*
G75*
G02*
X155390001Y-105248000I-249999J0D01*
G01*
X154489999Y-105248000D01*
G75*
G02*
X154240000Y-104998001I0J249999D01*
G01*
X154240000Y-104297999D01*
G75*
G02*
X154489999Y-104048000I249999J0D01*
G01*
G37*
G36*
G01*
X154489999Y-106048000D02*
X155390001Y-106048000D01*
G75*
G02*
X155640000Y-106297999I0J-249999D01*
G01*
X155640000Y-106998001D01*
G75*
G02*
X155390001Y-107248000I-249999J0D01*
G01*
X154489999Y-107248000D01*
G75*
G02*
X154240000Y-106998001I0J249999D01*
G01*
X154240000Y-106297999D01*
G75*
G02*
X154489999Y-106048000I249999J0D01*
G01*
G37*
G36*
G01*
X155857700Y-94546400D02*
X155857700Y-95496400D01*
G75*
G02*
X155607700Y-95746400I-250000J0D01*
G01*
X154932700Y-95746400D01*
G75*
G02*
X154682700Y-95496400I0J250000D01*
G01*
X154682700Y-94546400D01*
G75*
G02*
X154932700Y-94296400I250000J0D01*
G01*
X155607700Y-94296400D01*
G75*
G02*
X155857700Y-94546400I0J-250000D01*
G01*
G37*
G36*
G01*
X153782700Y-94546400D02*
X153782700Y-95496400D01*
G75*
G02*
X153532700Y-95746400I-250000J0D01*
G01*
X152857700Y-95746400D01*
G75*
G02*
X152607700Y-95496400I0J250000D01*
G01*
X152607700Y-94546400D01*
G75*
G02*
X152857700Y-94296400I250000J0D01*
G01*
X153532700Y-94296400D01*
G75*
G02*
X153782700Y-94546400I0J-250000D01*
G01*
G37*
G36*
G01*
X158793200Y-117427500D02*
X157843200Y-117427500D01*
G75*
G02*
X157593200Y-117177500I0J250000D01*
G01*
X157593200Y-116502500D01*
G75*
G02*
X157843200Y-116252500I250000J0D01*
G01*
X158793200Y-116252500D01*
G75*
G02*
X159043200Y-116502500I0J-250000D01*
G01*
X159043200Y-117177500D01*
G75*
G02*
X158793200Y-117427500I-250000J0D01*
G01*
G37*
G36*
G01*
X158793200Y-115352500D02*
X157843200Y-115352500D01*
G75*
G02*
X157593200Y-115102500I0J250000D01*
G01*
X157593200Y-114427500D01*
G75*
G02*
X157843200Y-114177500I250000J0D01*
G01*
X158793200Y-114177500D01*
G75*
G02*
X159043200Y-114427500I0J-250000D01*
G01*
X159043200Y-115102500D01*
G75*
G02*
X158793200Y-115352500I-250000J0D01*
G01*
G37*
G36*
G01*
X155900700Y-110802400D02*
X155900700Y-111752400D01*
G75*
G02*
X155650700Y-112002400I-250000J0D01*
G01*
X154975700Y-112002400D01*
G75*
G02*
X154725700Y-111752400I0J250000D01*
G01*
X154725700Y-110802400D01*
G75*
G02*
X154975700Y-110552400I250000J0D01*
G01*
X155650700Y-110552400D01*
G75*
G02*
X155900700Y-110802400I0J-250000D01*
G01*
G37*
G36*
G01*
X153825700Y-110802400D02*
X153825700Y-111752400D01*
G75*
G02*
X153575700Y-112002400I-250000J0D01*
G01*
X152900700Y-112002400D01*
G75*
G02*
X152650700Y-111752400I0J250000D01*
G01*
X152650700Y-110802400D01*
G75*
G02*
X152900700Y-110552400I250000J0D01*
G01*
X153575700Y-110552400D01*
G75*
G02*
X153825700Y-110802400I0J-250000D01*
G01*
G37*
G36*
G01*
X144192500Y-110711000D02*
X144192500Y-109761000D01*
G75*
G02*
X144442500Y-109511000I250000J0D01*
G01*
X145117500Y-109511000D01*
G75*
G02*
X145367500Y-109761000I0J-250000D01*
G01*
X145367500Y-110711000D01*
G75*
G02*
X145117500Y-110961000I-250000J0D01*
G01*
X144442500Y-110961000D01*
G75*
G02*
X144192500Y-110711000I0J250000D01*
G01*
G37*
G36*
G01*
X146267500Y-110711000D02*
X146267500Y-109761000D01*
G75*
G02*
X146517500Y-109511000I250000J0D01*
G01*
X147192500Y-109511000D01*
G75*
G02*
X147442500Y-109761000I0J-250000D01*
G01*
X147442500Y-110711000D01*
G75*
G02*
X147192500Y-110961000I-250000J0D01*
G01*
X146517500Y-110961000D01*
G75*
G02*
X146267500Y-110711000I0J250000D01*
G01*
G37*
G36*
G01*
X144192500Y-106647000D02*
X144192500Y-105697000D01*
G75*
G02*
X144442500Y-105447000I250000J0D01*
G01*
X145117500Y-105447000D01*
G75*
G02*
X145367500Y-105697000I0J-250000D01*
G01*
X145367500Y-106647000D01*
G75*
G02*
X145117500Y-106897000I-250000J0D01*
G01*
X144442500Y-106897000D01*
G75*
G02*
X144192500Y-106647000I0J250000D01*
G01*
G37*
G36*
G01*
X146267500Y-106647000D02*
X146267500Y-105697000D01*
G75*
G02*
X146517500Y-105447000I250000J0D01*
G01*
X147192500Y-105447000D01*
G75*
G02*
X147442500Y-105697000I0J-250000D01*
G01*
X147442500Y-106647000D01*
G75*
G02*
X147192500Y-106897000I-250000J0D01*
G01*
X146517500Y-106897000D01*
G75*
G02*
X146267500Y-106647000I0J250000D01*
G01*
G37*
G36*
G01*
X123872500Y-110203000D02*
X123872500Y-109253000D01*
G75*
G02*
X124122500Y-109003000I250000J0D01*
G01*
X124797500Y-109003000D01*
G75*
G02*
X125047500Y-109253000I0J-250000D01*
G01*
X125047500Y-110203000D01*
G75*
G02*
X124797500Y-110453000I-250000J0D01*
G01*
X124122500Y-110453000D01*
G75*
G02*
X123872500Y-110203000I0J250000D01*
G01*
G37*
G36*
G01*
X125947500Y-110203000D02*
X125947500Y-109253000D01*
G75*
G02*
X126197500Y-109003000I250000J0D01*
G01*
X126872500Y-109003000D01*
G75*
G02*
X127122500Y-109253000I0J-250000D01*
G01*
X127122500Y-110203000D01*
G75*
G02*
X126872500Y-110453000I-250000J0D01*
G01*
X126197500Y-110453000D01*
G75*
G02*
X125947500Y-110203000I0J250000D01*
G01*
G37*
G36*
G01*
X125947500Y-106647000D02*
X125947500Y-105697000D01*
G75*
G02*
X126197500Y-105447000I250000J0D01*
G01*
X126872500Y-105447000D01*
G75*
G02*
X127122500Y-105697000I0J-250000D01*
G01*
X127122500Y-106647000D01*
G75*
G02*
X126872500Y-106897000I-250000J0D01*
G01*
X126197500Y-106897000D01*
G75*
G02*
X125947500Y-106647000I0J250000D01*
G01*
G37*
G36*
G01*
X123872500Y-106647000D02*
X123872500Y-105697000D01*
G75*
G02*
X124122500Y-105447000I250000J0D01*
G01*
X124797500Y-105447000D01*
G75*
G02*
X125047500Y-105697000I0J-250000D01*
G01*
X125047500Y-106647000D01*
G75*
G02*
X124797500Y-106897000I-250000J0D01*
G01*
X124122500Y-106897000D01*
G75*
G02*
X123872500Y-106647000I0J250000D01*
G01*
G37*
D11*
X152349200Y-116458400D03*
G36*
G01*
X153774200Y-114933400D02*
X153774200Y-114733400D01*
G75*
G02*
X153874200Y-114633400I100000J0D01*
G01*
X155124200Y-114633400D01*
G75*
G02*
X155224200Y-114733400I0J-100000D01*
G01*
X155224200Y-114933400D01*
G75*
G02*
X155124200Y-115033400I-100000J0D01*
G01*
X153874200Y-115033400D01*
G75*
G02*
X153774200Y-114933400I0J100000D01*
G01*
G37*
G36*
G01*
X153774200Y-115583400D02*
X153774200Y-115383400D01*
G75*
G02*
X153874200Y-115283400I100000J0D01*
G01*
X155124200Y-115283400D01*
G75*
G02*
X155224200Y-115383400I0J-100000D01*
G01*
X155224200Y-115583400D01*
G75*
G02*
X155124200Y-115683400I-100000J0D01*
G01*
X153874200Y-115683400D01*
G75*
G02*
X153774200Y-115583400I0J100000D01*
G01*
G37*
G36*
G01*
X153774200Y-116233400D02*
X153774200Y-116033400D01*
G75*
G02*
X153874200Y-115933400I100000J0D01*
G01*
X155124200Y-115933400D01*
G75*
G02*
X155224200Y-116033400I0J-100000D01*
G01*
X155224200Y-116233400D01*
G75*
G02*
X155124200Y-116333400I-100000J0D01*
G01*
X153874200Y-116333400D01*
G75*
G02*
X153774200Y-116233400I0J100000D01*
G01*
G37*
G36*
G01*
X153774200Y-116883400D02*
X153774200Y-116683400D01*
G75*
G02*
X153874200Y-116583400I100000J0D01*
G01*
X155124200Y-116583400D01*
G75*
G02*
X155224200Y-116683400I0J-100000D01*
G01*
X155224200Y-116883400D01*
G75*
G02*
X155124200Y-116983400I-100000J0D01*
G01*
X153874200Y-116983400D01*
G75*
G02*
X153774200Y-116883400I0J100000D01*
G01*
G37*
G36*
G01*
X153774200Y-117533400D02*
X153774200Y-117333400D01*
G75*
G02*
X153874200Y-117233400I100000J0D01*
G01*
X155124200Y-117233400D01*
G75*
G02*
X155224200Y-117333400I0J-100000D01*
G01*
X155224200Y-117533400D01*
G75*
G02*
X155124200Y-117633400I-100000J0D01*
G01*
X153874200Y-117633400D01*
G75*
G02*
X153774200Y-117533400I0J100000D01*
G01*
G37*
G36*
G01*
X153774200Y-118183400D02*
X153774200Y-117983400D01*
G75*
G02*
X153874200Y-117883400I100000J0D01*
G01*
X155124200Y-117883400D01*
G75*
G02*
X155224200Y-117983400I0J-100000D01*
G01*
X155224200Y-118183400D01*
G75*
G02*
X155124200Y-118283400I-100000J0D01*
G01*
X153874200Y-118283400D01*
G75*
G02*
X153774200Y-118183400I0J100000D01*
G01*
G37*
G36*
G01*
X149474200Y-118183400D02*
X149474200Y-117983400D01*
G75*
G02*
X149574200Y-117883400I100000J0D01*
G01*
X150824200Y-117883400D01*
G75*
G02*
X150924200Y-117983400I0J-100000D01*
G01*
X150924200Y-118183400D01*
G75*
G02*
X150824200Y-118283400I-100000J0D01*
G01*
X149574200Y-118283400D01*
G75*
G02*
X149474200Y-118183400I0J100000D01*
G01*
G37*
G36*
G01*
X149474200Y-117533400D02*
X149474200Y-117333400D01*
G75*
G02*
X149574200Y-117233400I100000J0D01*
G01*
X150824200Y-117233400D01*
G75*
G02*
X150924200Y-117333400I0J-100000D01*
G01*
X150924200Y-117533400D01*
G75*
G02*
X150824200Y-117633400I-100000J0D01*
G01*
X149574200Y-117633400D01*
G75*
G02*
X149474200Y-117533400I0J100000D01*
G01*
G37*
G36*
G01*
X149474200Y-116883400D02*
X149474200Y-116683400D01*
G75*
G02*
X149574200Y-116583400I100000J0D01*
G01*
X150824200Y-116583400D01*
G75*
G02*
X150924200Y-116683400I0J-100000D01*
G01*
X150924200Y-116883400D01*
G75*
G02*
X150824200Y-116983400I-100000J0D01*
G01*
X149574200Y-116983400D01*
G75*
G02*
X149474200Y-116883400I0J100000D01*
G01*
G37*
G36*
G01*
X149474200Y-116233400D02*
X149474200Y-116033400D01*
G75*
G02*
X149574200Y-115933400I100000J0D01*
G01*
X150824200Y-115933400D01*
G75*
G02*
X150924200Y-116033400I0J-100000D01*
G01*
X150924200Y-116233400D01*
G75*
G02*
X150824200Y-116333400I-100000J0D01*
G01*
X149574200Y-116333400D01*
G75*
G02*
X149474200Y-116233400I0J100000D01*
G01*
G37*
G36*
G01*
X149474200Y-115583400D02*
X149474200Y-115383400D01*
G75*
G02*
X149574200Y-115283400I100000J0D01*
G01*
X150824200Y-115283400D01*
G75*
G02*
X150924200Y-115383400I0J-100000D01*
G01*
X150924200Y-115583400D01*
G75*
G02*
X150824200Y-115683400I-100000J0D01*
G01*
X149574200Y-115683400D01*
G75*
G02*
X149474200Y-115583400I0J100000D01*
G01*
G37*
G36*
G01*
X149474200Y-114933400D02*
X149474200Y-114733400D01*
G75*
G02*
X149574200Y-114633400I100000J0D01*
G01*
X150824200Y-114633400D01*
G75*
G02*
X150924200Y-114733400I0J-100000D01*
G01*
X150924200Y-114933400D01*
G75*
G02*
X150824200Y-115033400I-100000J0D01*
G01*
X149574200Y-115033400D01*
G75*
G02*
X149474200Y-114933400I0J100000D01*
G01*
G37*
X152104200Y-100101400D03*
G36*
G01*
X153529200Y-98576400D02*
X153529200Y-98376400D01*
G75*
G02*
X153629200Y-98276400I100000J0D01*
G01*
X154879200Y-98276400D01*
G75*
G02*
X154979200Y-98376400I0J-100000D01*
G01*
X154979200Y-98576400D01*
G75*
G02*
X154879200Y-98676400I-100000J0D01*
G01*
X153629200Y-98676400D01*
G75*
G02*
X153529200Y-98576400I0J100000D01*
G01*
G37*
G36*
G01*
X153529200Y-99226400D02*
X153529200Y-99026400D01*
G75*
G02*
X153629200Y-98926400I100000J0D01*
G01*
X154879200Y-98926400D01*
G75*
G02*
X154979200Y-99026400I0J-100000D01*
G01*
X154979200Y-99226400D01*
G75*
G02*
X154879200Y-99326400I-100000J0D01*
G01*
X153629200Y-99326400D01*
G75*
G02*
X153529200Y-99226400I0J100000D01*
G01*
G37*
G36*
G01*
X153529200Y-99876400D02*
X153529200Y-99676400D01*
G75*
G02*
X153629200Y-99576400I100000J0D01*
G01*
X154879200Y-99576400D01*
G75*
G02*
X154979200Y-99676400I0J-100000D01*
G01*
X154979200Y-99876400D01*
G75*
G02*
X154879200Y-99976400I-100000J0D01*
G01*
X153629200Y-99976400D01*
G75*
G02*
X153529200Y-99876400I0J100000D01*
G01*
G37*
G36*
G01*
X153529200Y-100526400D02*
X153529200Y-100326400D01*
G75*
G02*
X153629200Y-100226400I100000J0D01*
G01*
X154879200Y-100226400D01*
G75*
G02*
X154979200Y-100326400I0J-100000D01*
G01*
X154979200Y-100526400D01*
G75*
G02*
X154879200Y-100626400I-100000J0D01*
G01*
X153629200Y-100626400D01*
G75*
G02*
X153529200Y-100526400I0J100000D01*
G01*
G37*
G36*
G01*
X153529200Y-101176400D02*
X153529200Y-100976400D01*
G75*
G02*
X153629200Y-100876400I100000J0D01*
G01*
X154879200Y-100876400D01*
G75*
G02*
X154979200Y-100976400I0J-100000D01*
G01*
X154979200Y-101176400D01*
G75*
G02*
X154879200Y-101276400I-100000J0D01*
G01*
X153629200Y-101276400D01*
G75*
G02*
X153529200Y-101176400I0J100000D01*
G01*
G37*
G36*
G01*
X153529200Y-101826400D02*
X153529200Y-101626400D01*
G75*
G02*
X153629200Y-101526400I100000J0D01*
G01*
X154879200Y-101526400D01*
G75*
G02*
X154979200Y-101626400I0J-100000D01*
G01*
X154979200Y-101826400D01*
G75*
G02*
X154879200Y-101926400I-100000J0D01*
G01*
X153629200Y-101926400D01*
G75*
G02*
X153529200Y-101826400I0J100000D01*
G01*
G37*
G36*
G01*
X149229200Y-101826400D02*
X149229200Y-101626400D01*
G75*
G02*
X149329200Y-101526400I100000J0D01*
G01*
X150579200Y-101526400D01*
G75*
G02*
X150679200Y-101626400I0J-100000D01*
G01*
X150679200Y-101826400D01*
G75*
G02*
X150579200Y-101926400I-100000J0D01*
G01*
X149329200Y-101926400D01*
G75*
G02*
X149229200Y-101826400I0J100000D01*
G01*
G37*
G36*
G01*
X149229200Y-101176400D02*
X149229200Y-100976400D01*
G75*
G02*
X149329200Y-100876400I100000J0D01*
G01*
X150579200Y-100876400D01*
G75*
G02*
X150679200Y-100976400I0J-100000D01*
G01*
X150679200Y-101176400D01*
G75*
G02*
X150579200Y-101276400I-100000J0D01*
G01*
X149329200Y-101276400D01*
G75*
G02*
X149229200Y-101176400I0J100000D01*
G01*
G37*
G36*
G01*
X149229200Y-100526400D02*
X149229200Y-100326400D01*
G75*
G02*
X149329200Y-100226400I100000J0D01*
G01*
X150579200Y-100226400D01*
G75*
G02*
X150679200Y-100326400I0J-100000D01*
G01*
X150679200Y-100526400D01*
G75*
G02*
X150579200Y-100626400I-100000J0D01*
G01*
X149329200Y-100626400D01*
G75*
G02*
X149229200Y-100526400I0J100000D01*
G01*
G37*
G36*
G01*
X149229200Y-99876400D02*
X149229200Y-99676400D01*
G75*
G02*
X149329200Y-99576400I100000J0D01*
G01*
X150579200Y-99576400D01*
G75*
G02*
X150679200Y-99676400I0J-100000D01*
G01*
X150679200Y-99876400D01*
G75*
G02*
X150579200Y-99976400I-100000J0D01*
G01*
X149329200Y-99976400D01*
G75*
G02*
X149229200Y-99876400I0J100000D01*
G01*
G37*
G36*
G01*
X149229200Y-99226400D02*
X149229200Y-99026400D01*
G75*
G02*
X149329200Y-98926400I100000J0D01*
G01*
X150579200Y-98926400D01*
G75*
G02*
X150679200Y-99026400I0J-100000D01*
G01*
X150679200Y-99226400D01*
G75*
G02*
X150579200Y-99326400I-100000J0D01*
G01*
X149329200Y-99326400D01*
G75*
G02*
X149229200Y-99226400I0J100000D01*
G01*
G37*
G36*
G01*
X149229200Y-98576400D02*
X149229200Y-98376400D01*
G75*
G02*
X149329200Y-98276400I100000J0D01*
G01*
X150579200Y-98276400D01*
G75*
G02*
X150679200Y-98376400I0J-100000D01*
G01*
X150679200Y-98576400D01*
G75*
G02*
X150579200Y-98676400I-100000J0D01*
G01*
X149329200Y-98676400D01*
G75*
G02*
X149229200Y-98576400I0J100000D01*
G01*
G37*
D12*
X123698000Y-113284000D03*
X122428000Y-113284000D03*
X121158000Y-113284000D03*
X119888000Y-113284000D03*
X119888000Y-118844000D03*
X121158000Y-118844000D03*
X122428000Y-118844000D03*
X123698000Y-118844000D03*
D13*
X121018000Y-116666500D03*
X122568000Y-116666500D03*
X121018000Y-115461500D03*
X122568000Y-115461500D03*
D14*
X112776000Y-123444000D03*
X151384000Y-123444000D03*
X167640000Y-97790000D03*
X159512000Y-123444000D03*
X148336000Y-91948000D03*
X155448000Y-123444000D03*
X129540000Y-123444000D03*
X141478000Y-123444000D03*
G36*
G01*
X117290001Y-119472000D02*
X116389999Y-119472000D01*
G75*
G02*
X116140000Y-119222001I0J249999D01*
G01*
X116140000Y-118521999D01*
G75*
G02*
X116389999Y-118272000I249999J0D01*
G01*
X117290001Y-118272000D01*
G75*
G02*
X117540000Y-118521999I0J-249999D01*
G01*
X117540000Y-119222001D01*
G75*
G02*
X117290001Y-119472000I-249999J0D01*
G01*
G37*
G36*
G01*
X117290001Y-117472000D02*
X116389999Y-117472000D01*
G75*
G02*
X116140000Y-117222001I0J249999D01*
G01*
X116140000Y-116521999D01*
G75*
G02*
X116389999Y-116272000I249999J0D01*
G01*
X117290001Y-116272000D01*
G75*
G02*
X117540000Y-116521999I0J-249999D01*
G01*
X117540000Y-117222001D01*
G75*
G02*
X117290001Y-117472000I-249999J0D01*
G01*
G37*
G36*
G01*
X116389999Y-121352000D02*
X117290001Y-121352000D01*
G75*
G02*
X117540000Y-121601999I0J-249999D01*
G01*
X117540000Y-122302001D01*
G75*
G02*
X117290001Y-122552000I-249999J0D01*
G01*
X116389999Y-122552000D01*
G75*
G02*
X116140000Y-122302001I0J249999D01*
G01*
X116140000Y-121601999D01*
G75*
G02*
X116389999Y-121352000I249999J0D01*
G01*
G37*
G36*
G01*
X116389999Y-123352000D02*
X117290001Y-123352000D01*
G75*
G02*
X117540000Y-123601999I0J-249999D01*
G01*
X117540000Y-124302001D01*
G75*
G02*
X117290001Y-124552000I-249999J0D01*
G01*
X116389999Y-124552000D01*
G75*
G02*
X116140000Y-124302001I0J249999D01*
G01*
X116140000Y-123601999D01*
G75*
G02*
X116389999Y-123352000I249999J0D01*
G01*
G37*
G36*
G01*
X144329999Y-121574000D02*
X145230001Y-121574000D01*
G75*
G02*
X145480000Y-121823999I0J-249999D01*
G01*
X145480000Y-122524001D01*
G75*
G02*
X145230001Y-122774000I-249999J0D01*
G01*
X144329999Y-122774000D01*
G75*
G02*
X144080000Y-122524001I0J249999D01*
G01*
X144080000Y-121823999D01*
G75*
G02*
X144329999Y-121574000I249999J0D01*
G01*
G37*
G36*
G01*
X144329999Y-123574000D02*
X145230001Y-123574000D01*
G75*
G02*
X145480000Y-123823999I0J-249999D01*
G01*
X145480000Y-124524001D01*
G75*
G02*
X145230001Y-124774000I-249999J0D01*
G01*
X144329999Y-124774000D01*
G75*
G02*
X144080000Y-124524001I0J249999D01*
G01*
X144080000Y-123823999D01*
G75*
G02*
X144329999Y-123574000I249999J0D01*
G01*
G37*
G36*
G01*
X167274000Y-114690999D02*
X167274000Y-115941001D01*
G75*
G02*
X167024001Y-116191000I-249999J0D01*
G01*
X166223999Y-116191000D01*
G75*
G02*
X165974000Y-115941001I0J249999D01*
G01*
X165974000Y-114690999D01*
G75*
G02*
X166223999Y-114441000I249999J0D01*
G01*
X167024001Y-114441000D01*
G75*
G02*
X167274000Y-114690999I0J-249999D01*
G01*
G37*
G36*
G01*
X164174000Y-114690999D02*
X164174000Y-115941001D01*
G75*
G02*
X163924001Y-116191000I-249999J0D01*
G01*
X163123999Y-116191000D01*
G75*
G02*
X162874000Y-115941001I0J249999D01*
G01*
X162874000Y-114690999D01*
G75*
G02*
X163123999Y-114441000I249999J0D01*
G01*
X163924001Y-114441000D01*
G75*
G02*
X164174000Y-114690999I0J-249999D01*
G01*
G37*
G36*
G01*
X156270000Y-92065001D02*
X156270000Y-90814999D01*
G75*
G02*
X156519999Y-90565000I249999J0D01*
G01*
X157320001Y-90565000D01*
G75*
G02*
X157570000Y-90814999I0J-249999D01*
G01*
X157570000Y-92065001D01*
G75*
G02*
X157320001Y-92315000I-249999J0D01*
G01*
X156519999Y-92315000D01*
G75*
G02*
X156270000Y-92065001I0J249999D01*
G01*
G37*
G36*
G01*
X159370000Y-92065001D02*
X159370000Y-90814999D01*
G75*
G02*
X159619999Y-90565000I249999J0D01*
G01*
X160420001Y-90565000D01*
G75*
G02*
X160670000Y-90814999I0J-249999D01*
G01*
X160670000Y-92065001D01*
G75*
G02*
X160420001Y-92315000I-249999J0D01*
G01*
X159619999Y-92315000D01*
G75*
G02*
X159370000Y-92065001I0J249999D01*
G01*
G37*
G36*
G01*
X120980000Y-109277999D02*
X120980000Y-110178001D01*
G75*
G02*
X120730001Y-110428000I-249999J0D01*
G01*
X120029999Y-110428000D01*
G75*
G02*
X119780000Y-110178001I0J249999D01*
G01*
X119780000Y-109277999D01*
G75*
G02*
X120029999Y-109028000I249999J0D01*
G01*
X120730001Y-109028000D01*
G75*
G02*
X120980000Y-109277999I0J-249999D01*
G01*
G37*
G36*
G01*
X118980000Y-109277999D02*
X118980000Y-110178001D01*
G75*
G02*
X118730001Y-110428000I-249999J0D01*
G01*
X118029999Y-110428000D01*
G75*
G02*
X117780000Y-110178001I0J249999D01*
G01*
X117780000Y-109277999D01*
G75*
G02*
X118029999Y-109028000I249999J0D01*
G01*
X118730001Y-109028000D01*
G75*
G02*
X118980000Y-109277999I0J-249999D01*
G01*
G37*
G36*
G01*
X117764000Y-103066001D02*
X117764000Y-102165999D01*
G75*
G02*
X118013999Y-101916000I249999J0D01*
G01*
X118714001Y-101916000D01*
G75*
G02*
X118964000Y-102165999I0J-249999D01*
G01*
X118964000Y-103066001D01*
G75*
G02*
X118714001Y-103316000I-249999J0D01*
G01*
X118013999Y-103316000D01*
G75*
G02*
X117764000Y-103066001I0J249999D01*
G01*
G37*
G36*
G01*
X119764000Y-103066001D02*
X119764000Y-102165999D01*
G75*
G02*
X120013999Y-101916000I249999J0D01*
G01*
X120714001Y-101916000D01*
G75*
G02*
X120964000Y-102165999I0J-249999D01*
G01*
X120964000Y-103066001D01*
G75*
G02*
X120714001Y-103316000I-249999J0D01*
G01*
X120013999Y-103316000D01*
G75*
G02*
X119764000Y-103066001I0J249999D01*
G01*
G37*
G36*
G01*
X117780000Y-106622001D02*
X117780000Y-105721999D01*
G75*
G02*
X118029999Y-105472000I249999J0D01*
G01*
X118730001Y-105472000D01*
G75*
G02*
X118980000Y-105721999I0J-249999D01*
G01*
X118980000Y-106622001D01*
G75*
G02*
X118730001Y-106872000I-249999J0D01*
G01*
X118029999Y-106872000D01*
G75*
G02*
X117780000Y-106622001I0J249999D01*
G01*
G37*
G36*
G01*
X119780000Y-106622001D02*
X119780000Y-105721999D01*
G75*
G02*
X120029999Y-105472000I249999J0D01*
G01*
X120730001Y-105472000D01*
G75*
G02*
X120980000Y-105721999I0J-249999D01*
G01*
X120980000Y-106622001D01*
G75*
G02*
X120730001Y-106872000I-249999J0D01*
G01*
X120029999Y-106872000D01*
G75*
G02*
X119780000Y-106622001I0J249999D01*
G01*
G37*
G36*
G01*
X106788000Y-98101999D02*
X106788000Y-99002001D01*
G75*
G02*
X106538001Y-99252000I-249999J0D01*
G01*
X105837999Y-99252000D01*
G75*
G02*
X105588000Y-99002001I0J249999D01*
G01*
X105588000Y-98101999D01*
G75*
G02*
X105837999Y-97852000I249999J0D01*
G01*
X106538001Y-97852000D01*
G75*
G02*
X106788000Y-98101999I0J-249999D01*
G01*
G37*
G36*
G01*
X108788000Y-98101999D02*
X108788000Y-99002001D01*
G75*
G02*
X108538001Y-99252000I-249999J0D01*
G01*
X107837999Y-99252000D01*
G75*
G02*
X107588000Y-99002001I0J249999D01*
G01*
X107588000Y-98101999D01*
G75*
G02*
X107837999Y-97852000I249999J0D01*
G01*
X108538001Y-97852000D01*
G75*
G02*
X108788000Y-98101999I0J-249999D01*
G01*
G37*
G36*
G01*
X112160000Y-99002001D02*
X112160000Y-98101999D01*
G75*
G02*
X112409999Y-97852000I249999J0D01*
G01*
X113110001Y-97852000D01*
G75*
G02*
X113360000Y-98101999I0J-249999D01*
G01*
X113360000Y-99002001D01*
G75*
G02*
X113110001Y-99252000I-249999J0D01*
G01*
X112409999Y-99252000D01*
G75*
G02*
X112160000Y-99002001I0J249999D01*
G01*
G37*
G36*
G01*
X110160000Y-99002001D02*
X110160000Y-98101999D01*
G75*
G02*
X110409999Y-97852000I249999J0D01*
G01*
X111110001Y-97852000D01*
G75*
G02*
X111360000Y-98101999I0J-249999D01*
G01*
X111360000Y-99002001D01*
G75*
G02*
X111110001Y-99252000I-249999J0D01*
G01*
X110409999Y-99252000D01*
G75*
G02*
X110160000Y-99002001I0J249999D01*
G01*
G37*
G36*
G01*
X106772000Y-115373999D02*
X106772000Y-116274001D01*
G75*
G02*
X106522001Y-116524000I-249999J0D01*
G01*
X105821999Y-116524000D01*
G75*
G02*
X105572000Y-116274001I0J249999D01*
G01*
X105572000Y-115373999D01*
G75*
G02*
X105821999Y-115124000I249999J0D01*
G01*
X106522001Y-115124000D01*
G75*
G02*
X106772000Y-115373999I0J-249999D01*
G01*
G37*
G36*
G01*
X108772000Y-115373999D02*
X108772000Y-116274001D01*
G75*
G02*
X108522001Y-116524000I-249999J0D01*
G01*
X107821999Y-116524000D01*
G75*
G02*
X107572000Y-116274001I0J249999D01*
G01*
X107572000Y-115373999D01*
G75*
G02*
X107821999Y-115124000I249999J0D01*
G01*
X108522001Y-115124000D01*
G75*
G02*
X108772000Y-115373999I0J-249999D01*
G01*
G37*
G36*
G01*
X112152000Y-116274001D02*
X112152000Y-115373999D01*
G75*
G02*
X112401999Y-115124000I249999J0D01*
G01*
X113102001Y-115124000D01*
G75*
G02*
X113352000Y-115373999I0J-249999D01*
G01*
X113352000Y-116274001D01*
G75*
G02*
X113102001Y-116524000I-249999J0D01*
G01*
X112401999Y-116524000D01*
G75*
G02*
X112152000Y-116274001I0J249999D01*
G01*
G37*
G36*
G01*
X110152000Y-116274001D02*
X110152000Y-115373999D01*
G75*
G02*
X110401999Y-115124000I249999J0D01*
G01*
X111102001Y-115124000D01*
G75*
G02*
X111352000Y-115373999I0J-249999D01*
G01*
X111352000Y-116274001D01*
G75*
G02*
X111102001Y-116524000I-249999J0D01*
G01*
X110401999Y-116524000D01*
G75*
G02*
X110152000Y-116274001I0J249999D01*
G01*
G37*
G36*
G01*
X161816201Y-100193400D02*
X160916199Y-100193400D01*
G75*
G02*
X160666200Y-99943401I0J249999D01*
G01*
X160666200Y-99243399D01*
G75*
G02*
X160916199Y-98993400I249999J0D01*
G01*
X161816201Y-98993400D01*
G75*
G02*
X162066200Y-99243399I0J-249999D01*
G01*
X162066200Y-99943401D01*
G75*
G02*
X161816201Y-100193400I-249999J0D01*
G01*
G37*
G36*
G01*
X161816201Y-98193400D02*
X160916199Y-98193400D01*
G75*
G02*
X160666200Y-97943401I0J249999D01*
G01*
X160666200Y-97243399D01*
G75*
G02*
X160916199Y-96993400I249999J0D01*
G01*
X161816201Y-96993400D01*
G75*
G02*
X162066200Y-97243399I0J-249999D01*
G01*
X162066200Y-97943401D01*
G75*
G02*
X161816201Y-98193400I-249999J0D01*
G01*
G37*
G36*
G01*
X150425999Y-106064000D02*
X151326001Y-106064000D01*
G75*
G02*
X151576000Y-106313999I0J-249999D01*
G01*
X151576000Y-107014001D01*
G75*
G02*
X151326001Y-107264000I-249999J0D01*
G01*
X150425999Y-107264000D01*
G75*
G02*
X150176000Y-107014001I0J249999D01*
G01*
X150176000Y-106313999D01*
G75*
G02*
X150425999Y-106064000I249999J0D01*
G01*
G37*
G36*
G01*
X150425999Y-104064000D02*
X151326001Y-104064000D01*
G75*
G02*
X151576000Y-104313999I0J-249999D01*
G01*
X151576000Y-105014001D01*
G75*
G02*
X151326001Y-105264000I-249999J0D01*
G01*
X150425999Y-105264000D01*
G75*
G02*
X150176000Y-105014001I0J249999D01*
G01*
X150176000Y-104313999D01*
G75*
G02*
X150425999Y-104064000I249999J0D01*
G01*
G37*
D15*
X133096000Y-118872000D03*
X138096000Y-118872000D03*
G36*
G01*
X117464000Y-97054000D02*
X117464000Y-93954000D01*
G75*
G02*
X117714000Y-93704000I250000J0D01*
G01*
X119014000Y-93704000D01*
G75*
G02*
X119264000Y-93954000I0J-250000D01*
G01*
X119264000Y-97054000D01*
G75*
G02*
X119014000Y-97304000I-250000J0D01*
G01*
X117714000Y-97304000D01*
G75*
G02*
X117464000Y-97054000I0J250000D01*
G01*
G37*
D16*
X121864000Y-95504000D03*
X125364000Y-95504000D03*
D17*
X163576000Y-104648000D03*
D18*
X163576000Y-109728000D03*
D17*
X110250000Y-109830000D03*
D18*
X110250000Y-104750000D03*
D19*
X129032000Y-116584000D03*
X129032000Y-113284000D03*
G36*
G01*
X158793200Y-100180900D02*
X157843200Y-100180900D01*
G75*
G02*
X157593200Y-99930900I0J250000D01*
G01*
X157593200Y-99255900D01*
G75*
G02*
X157843200Y-99005900I250000J0D01*
G01*
X158793200Y-99005900D01*
G75*
G02*
X159043200Y-99255900I0J-250000D01*
G01*
X159043200Y-99930900D01*
G75*
G02*
X158793200Y-100180900I-250000J0D01*
G01*
G37*
G36*
G01*
X158793200Y-98105900D02*
X157843200Y-98105900D01*
G75*
G02*
X157593200Y-97855900I0J250000D01*
G01*
X157593200Y-97180900D01*
G75*
G02*
X157843200Y-96930900I250000J0D01*
G01*
X158793200Y-96930900D01*
G75*
G02*
X159043200Y-97180900I0J-250000D01*
G01*
X159043200Y-97855900D01*
G75*
G02*
X158793200Y-98105900I-250000J0D01*
G01*
G37*
G36*
G01*
X141359000Y-107503998D02*
X141359000Y-108904002D01*
G75*
G02*
X141109002Y-109154000I-249998J0D01*
G01*
X137458998Y-109154000D01*
G75*
G02*
X137209000Y-108904002I0J249998D01*
G01*
X137209000Y-107503998D01*
G75*
G02*
X137458998Y-107254000I249998J0D01*
G01*
X141109002Y-107254000D01*
G75*
G02*
X141359000Y-107503998I0J-249998D01*
G01*
G37*
G36*
G01*
X134409000Y-107503998D02*
X134409000Y-108904002D01*
G75*
G02*
X134159002Y-109154000I-249998J0D01*
G01*
X130508998Y-109154000D01*
G75*
G02*
X130259000Y-108904002I0J249998D01*
G01*
X130259000Y-107503998D01*
G75*
G02*
X130508998Y-107254000I249998J0D01*
G01*
X134159002Y-107254000D01*
G75*
G02*
X134409000Y-107503998I0J-249998D01*
G01*
G37*
G36*
G01*
X141359000Y-96835998D02*
X141359000Y-98236002D01*
G75*
G02*
X141109002Y-98486000I-249998J0D01*
G01*
X137458998Y-98486000D01*
G75*
G02*
X137209000Y-98236002I0J249998D01*
G01*
X137209000Y-96835998D01*
G75*
G02*
X137458998Y-96586000I249998J0D01*
G01*
X141109002Y-96586000D01*
G75*
G02*
X141359000Y-96835998I0J-249998D01*
G01*
G37*
G36*
G01*
X134409000Y-96835998D02*
X134409000Y-98236002D01*
G75*
G02*
X134159002Y-98486000I-249998J0D01*
G01*
X130508998Y-98486000D01*
G75*
G02*
X130259000Y-98236002I0J249998D01*
G01*
X130259000Y-96835998D01*
G75*
G02*
X130508998Y-96586000I249998J0D01*
G01*
X134159002Y-96586000D01*
G75*
G02*
X134409000Y-96835998I0J-249998D01*
G01*
G37*
G36*
G01*
X124493000Y-121311000D02*
X125443000Y-121311000D01*
G75*
G02*
X125693000Y-121561000I0J-250000D01*
G01*
X125693000Y-122236000D01*
G75*
G02*
X125443000Y-122486000I-250000J0D01*
G01*
X124493000Y-122486000D01*
G75*
G02*
X124243000Y-122236000I0J250000D01*
G01*
X124243000Y-121561000D01*
G75*
G02*
X124493000Y-121311000I250000J0D01*
G01*
G37*
G36*
G01*
X124493000Y-123386000D02*
X125443000Y-123386000D01*
G75*
G02*
X125693000Y-123636000I0J-250000D01*
G01*
X125693000Y-124311000D01*
G75*
G02*
X125443000Y-124561000I-250000J0D01*
G01*
X124493000Y-124561000D01*
G75*
G02*
X124243000Y-124311000I0J250000D01*
G01*
X124243000Y-123636000D01*
G75*
G02*
X124493000Y-123386000I250000J0D01*
G01*
G37*
G36*
G01*
X120429000Y-121289500D02*
X121379000Y-121289500D01*
G75*
G02*
X121629000Y-121539500I0J-250000D01*
G01*
X121629000Y-122214500D01*
G75*
G02*
X121379000Y-122464500I-250000J0D01*
G01*
X120429000Y-122464500D01*
G75*
G02*
X120179000Y-122214500I0J250000D01*
G01*
X120179000Y-121539500D01*
G75*
G02*
X120429000Y-121289500I250000J0D01*
G01*
G37*
G36*
G01*
X120429000Y-123364500D02*
X121379000Y-123364500D01*
G75*
G02*
X121629000Y-123614500I0J-250000D01*
G01*
X121629000Y-124289500D01*
G75*
G02*
X121379000Y-124539500I-250000J0D01*
G01*
X120429000Y-124539500D01*
G75*
G02*
X120179000Y-124289500I0J250000D01*
G01*
X120179000Y-123614500D01*
G75*
G02*
X120429000Y-123364500I250000J0D01*
G01*
G37*
M02*
