%FSLAX45Y45*%
G04 Gerber Fmt 4.5, Leading zero omitted, Abs format (unit mm)*
G04 Created by KiCad (PCBNEW 5.1.10) date 2021-11-24 23:15:15*
%MOMM*%
%LPD*%
G01*
G04 APERTURE LIST*
%TA.AperFunction,Profile*%
%ADD10C,0.050000*%
%TD*%
%ADD11C,0.200000*%
%ADD12C,0.300000*%
G04 APERTURE END LIST*
D10*
X10275000Y-12650000D02*
X10275000Y-8800000D01*
X17125000Y-12650000D02*
X10275000Y-12650000D01*
X17125000Y-8800000D02*
X17125000Y-12650000D01*
X10275000Y-8800000D02*
X17125000Y-8800000D01*
D11*
D12*
X10558928Y-13118214D02*
X10558928Y-12818214D01*
X10630357Y-12818214D01*
X10673214Y-12832500D01*
X10701786Y-12861071D01*
X10716071Y-12889643D01*
X10730357Y-12946786D01*
X10730357Y-12989643D01*
X10716071Y-13046786D01*
X10701786Y-13075357D01*
X10673214Y-13103929D01*
X10630357Y-13118214D01*
X10558928Y-13118214D01*
X10858928Y-13118214D02*
X10858928Y-12918214D01*
X10858928Y-12975357D02*
X10873214Y-12946786D01*
X10887500Y-12932500D01*
X10916071Y-12918214D01*
X10944643Y-12918214D01*
X11044643Y-13118214D02*
X11044643Y-12918214D01*
X11044643Y-12818214D02*
X11030357Y-12832500D01*
X11044643Y-12846786D01*
X11058928Y-12832500D01*
X11044643Y-12818214D01*
X11044643Y-12846786D01*
X11230357Y-13118214D02*
X11201786Y-13103929D01*
X11187500Y-13075357D01*
X11187500Y-12818214D01*
X11387500Y-13118214D02*
X11358928Y-13103929D01*
X11344643Y-13075357D01*
X11344643Y-12818214D01*
X11730357Y-13118214D02*
X11730357Y-12818214D01*
X11830357Y-13032500D01*
X11930357Y-12818214D01*
X11930357Y-13118214D01*
X12201786Y-13118214D02*
X12201786Y-12961071D01*
X12187500Y-12932500D01*
X12158928Y-12918214D01*
X12101786Y-12918214D01*
X12073214Y-12932500D01*
X12201786Y-13103929D02*
X12173214Y-13118214D01*
X12101786Y-13118214D01*
X12073214Y-13103929D01*
X12058928Y-13075357D01*
X12058928Y-13046786D01*
X12073214Y-13018214D01*
X12101786Y-13003929D01*
X12173214Y-13003929D01*
X12201786Y-12989643D01*
X12344643Y-12918214D02*
X12344643Y-13218214D01*
X12344643Y-12932500D02*
X12373214Y-12918214D01*
X12430357Y-12918214D01*
X12458928Y-12932500D01*
X12473214Y-12946786D01*
X12487500Y-12975357D01*
X12487500Y-13061071D01*
X12473214Y-13089643D01*
X12458928Y-13103929D01*
X12430357Y-13118214D01*
X12373214Y-13118214D01*
X12344643Y-13103929D01*
X12616071Y-13089643D02*
X12630357Y-13103929D01*
X12616071Y-13118214D01*
X12601786Y-13103929D01*
X12616071Y-13089643D01*
X12616071Y-13118214D01*
X12616071Y-12932500D02*
X12630357Y-12946786D01*
X12616071Y-12961071D01*
X12601786Y-12946786D01*
X12616071Y-12932500D01*
X12616071Y-12961071D01*
M02*
