M48
; DRILL file {KiCad 5.1.10} date Wed Nov 24 23:15:09 2021
; FORMAT={-:-/ absolute / metric / decimal}
; #@! TF.CreationDate,2021-11-24T23:15:09-05:00
; #@! TF.GenerationSoftware,Kicad,Pcbnew,5.1.10
; #@! TF.FileFunction,Plated,1,2,PTH
FMAT,2
METRIC
T1C0.200
T2C0.400
T3C1.000
T4C1.200
T5C1.300
T6C3.200
%
G90
G05
T1
X151.604Y-99.101
X151.604Y-100.101
X151.604Y-101.101
X151.849Y-115.458
X151.849Y-116.458
X151.849Y-117.458
X152.604Y-99.101
X152.604Y-100.101
X152.604Y-101.101
X152.849Y-115.458
X152.849Y-116.458
X152.849Y-117.458
T2
X118.364Y-115.316
X118.364Y-116.332
X118.364Y-117.348
X121.158Y-104.394
X121.158Y-111.379
X125.476Y-113.284
X126.746Y-123.952
X127.508Y-111.76
X129.032Y-111.76
X130.556Y-111.76
X132.08Y-93.98
X132.08Y-95.504
X132.08Y-99.568
X132.08Y-101.092
X132.08Y-104.648
X132.08Y-106.172
X132.08Y-110.236
X132.08Y-111.76
X133.604Y-93.98
X133.604Y-95.504
X133.604Y-99.568
X133.604Y-101.092
X133.604Y-104.648
X133.604Y-106.172
X133.604Y-110.236
X133.604Y-111.76
X146.812Y-102.108
X146.812Y-103.124
X146.812Y-104.14
X146.812Y-107.823
X146.812Y-108.712
X146.812Y-111.887
X146.812Y-112.903
X146.812Y-113.919
X148.717Y-99.93
X148.717Y-123.063
X150.876Y-94.488
X150.876Y-95.504
X150.876Y-110.744
X150.876Y-111.76
X151.892Y-94.488
X151.892Y-95.504
X151.892Y-110.744
X151.892Y-111.76
X154.305Y-91.44
X154.305Y-97.282
X154.432Y-113.792
X155.829Y-118.872
X156.591Y-99.949
X160.02Y-94.107
X160.02Y-109.728
X161.417Y-115.316
T3
X112.776Y-123.444
X129.54Y-123.444
X141.478Y-123.444
X148.336Y-91.948
X151.384Y-123.444
X155.448Y-123.444
X159.512Y-123.444
X167.64Y-97.79
T4
X118.364Y-95.504
X121.864Y-95.504
X125.364Y-95.504
T5
X110.25Y-104.75
X110.25Y-109.83
X163.576Y-104.648
X163.576Y-109.728
T6
X107.0Y-92.25
X107.0Y-122.25
X167.0Y-92.25
X167.0Y-122.25
T0
M30
