%TF.GenerationSoftware,KiCad,Pcbnew,(5.1.6)-1*%
%TF.CreationDate,2021-05-26T21:04:48-04:00*%
%TF.ProjectId,spidey_sense,73706964-6579-45f7-9365-6e73652e6b69,rev?*%
%TF.SameCoordinates,Original*%
%TF.FileFunction,Soldermask,Bot*%
%TF.FilePolarity,Negative*%
%FSLAX46Y46*%
G04 Gerber Fmt 4.6, Leading zero omitted, Abs format (unit mm)*
G04 Created by KiCad (PCBNEW (5.1.6)-1) date 2021-05-26 21:04:48*
%MOMM*%
%LPD*%
G01*
G04 APERTURE LIST*
%ADD10C,0.900000*%
%ADD11C,6.500000*%
%ADD12C,1.950000*%
%ADD13R,1.950000X1.950000*%
%ADD14R,1.100000X1.100000*%
G04 APERTURE END LIST*
D10*
%TO.C,REF\u002A\u002A*%
X143947056Y-113302944D03*
X142250000Y-112600000D03*
X140552944Y-113302944D03*
X139850000Y-115000000D03*
X140552944Y-116697056D03*
X142250000Y-117400000D03*
X143947056Y-116697056D03*
X144650000Y-115000000D03*
D11*
X142250000Y-115000000D03*
%TD*%
D10*
%TO.C,REF\u002A\u002A*%
X143947056Y-90802944D03*
X142250000Y-90100000D03*
X140552944Y-90802944D03*
X139850000Y-92500000D03*
X140552944Y-94197056D03*
X142250000Y-94900000D03*
X143947056Y-94197056D03*
X144650000Y-92500000D03*
D11*
X142250000Y-92500000D03*
%TD*%
D10*
%TO.C,REF\u002A\u002A*%
X108947056Y-90802944D03*
X107250000Y-90100000D03*
X105552944Y-90802944D03*
X104850000Y-92500000D03*
X105552944Y-94197056D03*
X107250000Y-94900000D03*
X108947056Y-94197056D03*
X109650000Y-92500000D03*
D11*
X107250000Y-92500000D03*
%TD*%
D10*
%TO.C,REF\u002A\u002A*%
X108947056Y-113302944D03*
X107250000Y-112600000D03*
X105552944Y-113302944D03*
X104850000Y-115000000D03*
X105552944Y-116697056D03*
X107250000Y-117400000D03*
X108947056Y-116697056D03*
X109650000Y-115000000D03*
D11*
X107250000Y-115000000D03*
%TD*%
D12*
%TO.C,J5*%
X148800000Y-91000000D03*
X148800000Y-94500000D03*
X148800000Y-98000000D03*
X148800000Y-101500000D03*
X148800000Y-105000000D03*
X148800000Y-108500000D03*
X148800000Y-112000000D03*
D13*
X148800000Y-115500000D03*
%TD*%
D12*
%TO.C,J4*%
X151250000Y-121800000D03*
X147750000Y-121800000D03*
X144250000Y-121800000D03*
X140750000Y-121800000D03*
X137250000Y-121800000D03*
X133750000Y-121800000D03*
X130250000Y-121800000D03*
D13*
X126750000Y-121800000D03*
%TD*%
D12*
%TO.C,J3*%
X122750000Y-121800000D03*
X119250000Y-121800000D03*
X115750000Y-121800000D03*
X112250000Y-121800000D03*
X108750000Y-121800000D03*
X105250000Y-121800000D03*
X101750000Y-121800000D03*
D13*
X98250000Y-121800000D03*
%TD*%
D12*
%TO.C,J2*%
X100700000Y-115500000D03*
X100700000Y-112000000D03*
X100700000Y-108500000D03*
X100700000Y-105000000D03*
X100700000Y-101500000D03*
X100700000Y-98000000D03*
X100700000Y-94500000D03*
D13*
X100700000Y-91000000D03*
%TD*%
D12*
%TO.C,J1*%
X112500000Y-93700000D03*
X116000000Y-93700000D03*
X119500000Y-93700000D03*
X123000000Y-93700000D03*
X126500000Y-93700000D03*
X130000000Y-93700000D03*
X133500000Y-93700000D03*
D13*
X137000000Y-93700000D03*
%TD*%
D14*
%TO.C,D4*%
X152250000Y-104750000D03*
X152250000Y-102250000D03*
%TD*%
%TO.C,D3*%
X137750000Y-125250000D03*
X140250000Y-125250000D03*
%TD*%
%TO.C,D2*%
X109250000Y-125250000D03*
X111750000Y-125250000D03*
%TD*%
%TO.C,D1*%
X97250000Y-102000000D03*
X97250000Y-104500000D03*
%TD*%
M02*
