%TF.GenerationSoftware,KiCad,Pcbnew,(5.1.6)-1*%
%TF.CreationDate,2021-05-26T21:04:48-04:00*%
%TF.ProjectId,spidey_sense,73706964-6579-45f7-9365-6e73652e6b69,rev?*%
%TF.SameCoordinates,Original*%
%TF.FileFunction,Copper,L1,Top*%
%TF.FilePolarity,Positive*%
%FSLAX46Y46*%
G04 Gerber Fmt 4.6, Leading zero omitted, Abs format (unit mm)*
G04 Created by KiCad (PCBNEW (5.1.6)-1) date 2021-05-26 21:04:48*
%MOMM*%
%LPD*%
G01*
G04 APERTURE LIST*
%TA.AperFunction,ComponentPad*%
%ADD10C,0.800000*%
%TD*%
%TA.AperFunction,ComponentPad*%
%ADD11C,6.400000*%
%TD*%
%TA.AperFunction,ComponentPad*%
%ADD12C,1.850000*%
%TD*%
%TA.AperFunction,ComponentPad*%
%ADD13R,1.850000X1.850000*%
%TD*%
%TA.AperFunction,ViaPad*%
%ADD14C,0.762000*%
%TD*%
%TA.AperFunction,ViaPad*%
%ADD15C,0.800000*%
%TD*%
%TA.AperFunction,Conductor*%
%ADD16C,0.203200*%
%TD*%
%TA.AperFunction,Conductor*%
%ADD17C,0.254000*%
%TD*%
G04 APERTURE END LIST*
%TO.P,U1,48*%
%TO.N,Net-(C1-Pad1)*%
%TA.AperFunction,SMDPad,CuDef*%
G36*
G01*
X125174264Y-107474516D02*
X126111180Y-106537600D01*
G75*
G02*
X126217246Y-106537600I53033J-53033D01*
G01*
X126323312Y-106643666D01*
G75*
G02*
X126323312Y-106749732I-53033J-53033D01*
G01*
X125386396Y-107686648D01*
G75*
G02*
X125280330Y-107686648I-53033J53033D01*
G01*
X125174264Y-107580582D01*
G75*
G02*
X125174264Y-107474516I53033J53033D01*
G01*
G37*
%TD.AperFunction*%
%TO.P,U1,47*%
%TO.N,Net-(C1-Pad2)*%
%TA.AperFunction,SMDPad,CuDef*%
G36*
G01*
X125527818Y-107828070D02*
X126464734Y-106891154D01*
G75*
G02*
X126570800Y-106891154I53033J-53033D01*
G01*
X126676866Y-106997220D01*
G75*
G02*
X126676866Y-107103286I-53033J-53033D01*
G01*
X125739950Y-108040202D01*
G75*
G02*
X125633884Y-108040202I-53033J53033D01*
G01*
X125527818Y-107934136D01*
G75*
G02*
X125527818Y-107828070I53033J53033D01*
G01*
G37*
%TD.AperFunction*%
%TO.P,U1,46*%
%TO.N,Net-(C5-Pad1)*%
%TA.AperFunction,SMDPad,CuDef*%
G36*
G01*
X125881371Y-108181623D02*
X126818287Y-107244707D01*
G75*
G02*
X126924353Y-107244707I53033J-53033D01*
G01*
X127030419Y-107350773D01*
G75*
G02*
X127030419Y-107456839I-53033J-53033D01*
G01*
X126093503Y-108393755D01*
G75*
G02*
X125987437Y-108393755I-53033J53033D01*
G01*
X125881371Y-108287689D01*
G75*
G02*
X125881371Y-108181623I53033J53033D01*
G01*
G37*
%TD.AperFunction*%
%TO.P,U1,45*%
%TO.N,+5V*%
%TA.AperFunction,SMDPad,CuDef*%
G36*
G01*
X126234925Y-108535177D02*
X127171841Y-107598261D01*
G75*
G02*
X127277907Y-107598261I53033J-53033D01*
G01*
X127383973Y-107704327D01*
G75*
G02*
X127383973Y-107810393I-53033J-53033D01*
G01*
X126447057Y-108747309D01*
G75*
G02*
X126340991Y-108747309I-53033J53033D01*
G01*
X126234925Y-108641243D01*
G75*
G02*
X126234925Y-108535177I53033J53033D01*
G01*
G37*
%TD.AperFunction*%
%TO.P,U1,44*%
%TO.N,GND*%
%TA.AperFunction,SMDPad,CuDef*%
G36*
G01*
X126588478Y-108888730D02*
X127525394Y-107951814D01*
G75*
G02*
X127631460Y-107951814I53033J-53033D01*
G01*
X127737526Y-108057880D01*
G75*
G02*
X127737526Y-108163946I-53033J-53033D01*
G01*
X126800610Y-109100862D01*
G75*
G02*
X126694544Y-109100862I-53033J53033D01*
G01*
X126588478Y-108994796D01*
G75*
G02*
X126588478Y-108888730I53033J53033D01*
G01*
G37*
%TD.AperFunction*%
%TO.P,U1,43*%
%TO.N,Net-(C2-Pad1)*%
%TA.AperFunction,SMDPad,CuDef*%
G36*
G01*
X126942031Y-109242283D02*
X127878947Y-108305367D01*
G75*
G02*
X127985013Y-108305367I53033J-53033D01*
G01*
X128091079Y-108411433D01*
G75*
G02*
X128091079Y-108517499I-53033J-53033D01*
G01*
X127154163Y-109454415D01*
G75*
G02*
X127048097Y-109454415I-53033J53033D01*
G01*
X126942031Y-109348349D01*
G75*
G02*
X126942031Y-109242283I53033J53033D01*
G01*
G37*
%TD.AperFunction*%
%TO.P,U1,42*%
%TO.N,Net-(J1-Pad2)*%
%TA.AperFunction,SMDPad,CuDef*%
G36*
G01*
X127295585Y-109595837D02*
X128232501Y-108658921D01*
G75*
G02*
X128338567Y-108658921I53033J-53033D01*
G01*
X128444633Y-108764987D01*
G75*
G02*
X128444633Y-108871053I-53033J-53033D01*
G01*
X127507717Y-109807969D01*
G75*
G02*
X127401651Y-109807969I-53033J53033D01*
G01*
X127295585Y-109701903D01*
G75*
G02*
X127295585Y-109595837I53033J53033D01*
G01*
G37*
%TD.AperFunction*%
%TO.P,U1,41*%
%TO.N,Net-(J1-Pad6)*%
%TA.AperFunction,SMDPad,CuDef*%
G36*
G01*
X127649138Y-109949390D02*
X128586054Y-109012474D01*
G75*
G02*
X128692120Y-109012474I53033J-53033D01*
G01*
X128798186Y-109118540D01*
G75*
G02*
X128798186Y-109224606I-53033J-53033D01*
G01*
X127861270Y-110161522D01*
G75*
G02*
X127755204Y-110161522I-53033J53033D01*
G01*
X127649138Y-110055456D01*
G75*
G02*
X127649138Y-109949390I53033J53033D01*
G01*
G37*
%TD.AperFunction*%
%TO.P,U1,40*%
%TO.N,Net-(J1-Pad4)*%
%TA.AperFunction,SMDPad,CuDef*%
G36*
G01*
X128002691Y-110302943D02*
X128939607Y-109366027D01*
G75*
G02*
X129045673Y-109366027I53033J-53033D01*
G01*
X129151739Y-109472093D01*
G75*
G02*
X129151739Y-109578159I-53033J-53033D01*
G01*
X128214823Y-110515075D01*
G75*
G02*
X128108757Y-110515075I-53033J53033D01*
G01*
X128002691Y-110409009D01*
G75*
G02*
X128002691Y-110302943I53033J53033D01*
G01*
G37*
%TD.AperFunction*%
%TO.P,U1,39*%
%TO.N,Net-(J1-Pad3)*%
%TA.AperFunction,SMDPad,CuDef*%
G36*
G01*
X128356245Y-110656497D02*
X129293161Y-109719581D01*
G75*
G02*
X129399227Y-109719581I53033J-53033D01*
G01*
X129505293Y-109825647D01*
G75*
G02*
X129505293Y-109931713I-53033J-53033D01*
G01*
X128568377Y-110868629D01*
G75*
G02*
X128462311Y-110868629I-53033J53033D01*
G01*
X128356245Y-110762563D01*
G75*
G02*
X128356245Y-110656497I53033J53033D01*
G01*
G37*
%TD.AperFunction*%
%TO.P,U1,38*%
%TO.N,Net-(J1-Pad5)*%
%TA.AperFunction,SMDPad,CuDef*%
G36*
G01*
X128709798Y-111010050D02*
X129646714Y-110073134D01*
G75*
G02*
X129752780Y-110073134I53033J-53033D01*
G01*
X129858846Y-110179200D01*
G75*
G02*
X129858846Y-110285266I-53033J-53033D01*
G01*
X128921930Y-111222182D01*
G75*
G02*
X128815864Y-111222182I-53033J53033D01*
G01*
X128709798Y-111116116D01*
G75*
G02*
X128709798Y-111010050I53033J53033D01*
G01*
G37*
%TD.AperFunction*%
%TO.P,U1,37*%
%TO.N,Net-(J1-Pad1)*%
%TA.AperFunction,SMDPad,CuDef*%
G36*
G01*
X129063352Y-111363604D02*
X130000268Y-110426688D01*
G75*
G02*
X130106334Y-110426688I53033J-53033D01*
G01*
X130212400Y-110532754D01*
G75*
G02*
X130212400Y-110638820I-53033J-53033D01*
G01*
X129275484Y-111575736D01*
G75*
G02*
X129169418Y-111575736I-53033J53033D01*
G01*
X129063352Y-111469670D01*
G75*
G02*
X129063352Y-111363604I53033J53033D01*
G01*
G37*
%TD.AperFunction*%
%TO.P,U1,36*%
%TO.N,GND*%
%TA.AperFunction,SMDPad,CuDef*%
G36*
G01*
X129063352Y-112530330D02*
X129169418Y-112424264D01*
G75*
G02*
X129275484Y-112424264I53033J-53033D01*
G01*
X130212400Y-113361180D01*
G75*
G02*
X130212400Y-113467246I-53033J-53033D01*
G01*
X130106334Y-113573312D01*
G75*
G02*
X130000268Y-113573312I-53033J53033D01*
G01*
X129063352Y-112636396D01*
G75*
G02*
X129063352Y-112530330I53033J53033D01*
G01*
G37*
%TD.AperFunction*%
%TO.P,U1,35*%
%TO.N,Net-(D4-Pad2)*%
%TA.AperFunction,SMDPad,CuDef*%
G36*
G01*
X128709798Y-112883884D02*
X128815864Y-112777818D01*
G75*
G02*
X128921930Y-112777818I53033J-53033D01*
G01*
X129858846Y-113714734D01*
G75*
G02*
X129858846Y-113820800I-53033J-53033D01*
G01*
X129752780Y-113926866D01*
G75*
G02*
X129646714Y-113926866I-53033J53033D01*
G01*
X128709798Y-112989950D01*
G75*
G02*
X128709798Y-112883884I53033J53033D01*
G01*
G37*
%TD.AperFunction*%
%TO.P,U1,34*%
%TO.N,/sheet60B85CD9/conn_3*%
%TA.AperFunction,SMDPad,CuDef*%
G36*
G01*
X128356245Y-113237437D02*
X128462311Y-113131371D01*
G75*
G02*
X128568377Y-113131371I53033J-53033D01*
G01*
X129505293Y-114068287D01*
G75*
G02*
X129505293Y-114174353I-53033J-53033D01*
G01*
X129399227Y-114280419D01*
G75*
G02*
X129293161Y-114280419I-53033J53033D01*
G01*
X128356245Y-113343503D01*
G75*
G02*
X128356245Y-113237437I53033J53033D01*
G01*
G37*
%TD.AperFunction*%
%TO.P,U1,33*%
%TO.N,/sheet60B85CD9/conn_2*%
%TA.AperFunction,SMDPad,CuDef*%
G36*
G01*
X128002691Y-113590991D02*
X128108757Y-113484925D01*
G75*
G02*
X128214823Y-113484925I53033J-53033D01*
G01*
X129151739Y-114421841D01*
G75*
G02*
X129151739Y-114527907I-53033J-53033D01*
G01*
X129045673Y-114633973D01*
G75*
G02*
X128939607Y-114633973I-53033J53033D01*
G01*
X128002691Y-113697057D01*
G75*
G02*
X128002691Y-113590991I53033J53033D01*
G01*
G37*
%TD.AperFunction*%
%TO.P,U1,32*%
%TO.N,/sheet60B85CD9/conn_1*%
%TA.AperFunction,SMDPad,CuDef*%
G36*
G01*
X127649138Y-113944544D02*
X127755204Y-113838478D01*
G75*
G02*
X127861270Y-113838478I53033J-53033D01*
G01*
X128798186Y-114775394D01*
G75*
G02*
X128798186Y-114881460I-53033J-53033D01*
G01*
X128692120Y-114987526D01*
G75*
G02*
X128586054Y-114987526I-53033J53033D01*
G01*
X127649138Y-114050610D01*
G75*
G02*
X127649138Y-113944544I53033J53033D01*
G01*
G37*
%TD.AperFunction*%
%TO.P,U1,31*%
%TO.N,Net-(D3-Pad2)*%
%TA.AperFunction,SMDPad,CuDef*%
G36*
G01*
X127295585Y-114298097D02*
X127401651Y-114192031D01*
G75*
G02*
X127507717Y-114192031I53033J-53033D01*
G01*
X128444633Y-115128947D01*
G75*
G02*
X128444633Y-115235013I-53033J-53033D01*
G01*
X128338567Y-115341079D01*
G75*
G02*
X128232501Y-115341079I-53033J53033D01*
G01*
X127295585Y-114404163D01*
G75*
G02*
X127295585Y-114298097I53033J53033D01*
G01*
G37*
%TD.AperFunction*%
%TO.P,U1,30*%
%TO.N,/sheet60B815B9/conn_3*%
%TA.AperFunction,SMDPad,CuDef*%
G36*
G01*
X126942031Y-114651651D02*
X127048097Y-114545585D01*
G75*
G02*
X127154163Y-114545585I53033J-53033D01*
G01*
X128091079Y-115482501D01*
G75*
G02*
X128091079Y-115588567I-53033J-53033D01*
G01*
X127985013Y-115694633D01*
G75*
G02*
X127878947Y-115694633I-53033J53033D01*
G01*
X126942031Y-114757717D01*
G75*
G02*
X126942031Y-114651651I53033J53033D01*
G01*
G37*
%TD.AperFunction*%
%TO.P,U1,29*%
%TO.N,/sheet60B815B9/conn_2*%
%TA.AperFunction,SMDPad,CuDef*%
G36*
G01*
X126588478Y-115005204D02*
X126694544Y-114899138D01*
G75*
G02*
X126800610Y-114899138I53033J-53033D01*
G01*
X127737526Y-115836054D01*
G75*
G02*
X127737526Y-115942120I-53033J-53033D01*
G01*
X127631460Y-116048186D01*
G75*
G02*
X127525394Y-116048186I-53033J53033D01*
G01*
X126588478Y-115111270D01*
G75*
G02*
X126588478Y-115005204I53033J53033D01*
G01*
G37*
%TD.AperFunction*%
%TO.P,U1,28*%
%TO.N,/sheet60B815B9/conn_1*%
%TA.AperFunction,SMDPad,CuDef*%
G36*
G01*
X126234925Y-115358757D02*
X126340991Y-115252691D01*
G75*
G02*
X126447057Y-115252691I53033J-53033D01*
G01*
X127383973Y-116189607D01*
G75*
G02*
X127383973Y-116295673I-53033J-53033D01*
G01*
X127277907Y-116401739D01*
G75*
G02*
X127171841Y-116401739I-53033J53033D01*
G01*
X126234925Y-115464823D01*
G75*
G02*
X126234925Y-115358757I53033J53033D01*
G01*
G37*
%TD.AperFunction*%
%TO.P,U1,27*%
%TO.N,/sheet60B815B9/R_sense*%
%TA.AperFunction,SMDPad,CuDef*%
G36*
G01*
X125881371Y-115712311D02*
X125987437Y-115606245D01*
G75*
G02*
X126093503Y-115606245I53033J-53033D01*
G01*
X127030419Y-116543161D01*
G75*
G02*
X127030419Y-116649227I-53033J-53033D01*
G01*
X126924353Y-116755293D01*
G75*
G02*
X126818287Y-116755293I-53033J53033D01*
G01*
X125881371Y-115818377D01*
G75*
G02*
X125881371Y-115712311I53033J53033D01*
G01*
G37*
%TD.AperFunction*%
%TO.P,U1,26*%
%TO.N,Net-(R1-Pad1)*%
%TA.AperFunction,SMDPad,CuDef*%
G36*
G01*
X125527818Y-116065864D02*
X125633884Y-115959798D01*
G75*
G02*
X125739950Y-115959798I53033J-53033D01*
G01*
X126676866Y-116896714D01*
G75*
G02*
X126676866Y-117002780I-53033J-53033D01*
G01*
X126570800Y-117108846D01*
G75*
G02*
X126464734Y-117108846I-53033J53033D01*
G01*
X125527818Y-116171930D01*
G75*
G02*
X125527818Y-116065864I53033J53033D01*
G01*
G37*
%TD.AperFunction*%
%TO.P,U1,25*%
%TO.N,Net-(D2-Pad2)*%
%TA.AperFunction,SMDPad,CuDef*%
G36*
G01*
X125174264Y-116419418D02*
X125280330Y-116313352D01*
G75*
G02*
X125386396Y-116313352I53033J-53033D01*
G01*
X126323312Y-117250268D01*
G75*
G02*
X126323312Y-117356334I-53033J-53033D01*
G01*
X126217246Y-117462400D01*
G75*
G02*
X126111180Y-117462400I-53033J53033D01*
G01*
X125174264Y-116525484D01*
G75*
G02*
X125174264Y-116419418I53033J53033D01*
G01*
G37*
%TD.AperFunction*%
%TO.P,U1,24*%
%TO.N,/sheet60B7CF48/conn_3*%
%TA.AperFunction,SMDPad,CuDef*%
G36*
G01*
X123176688Y-117250268D02*
X124113604Y-116313352D01*
G75*
G02*
X124219670Y-116313352I53033J-53033D01*
G01*
X124325736Y-116419418D01*
G75*
G02*
X124325736Y-116525484I-53033J-53033D01*
G01*
X123388820Y-117462400D01*
G75*
G02*
X123282754Y-117462400I-53033J53033D01*
G01*
X123176688Y-117356334D01*
G75*
G02*
X123176688Y-117250268I53033J53033D01*
G01*
G37*
%TD.AperFunction*%
%TO.P,U1,23*%
%TO.N,/sheet60B7CF48/conn_2*%
%TA.AperFunction,SMDPad,CuDef*%
G36*
G01*
X122823134Y-116896714D02*
X123760050Y-115959798D01*
G75*
G02*
X123866116Y-115959798I53033J-53033D01*
G01*
X123972182Y-116065864D01*
G75*
G02*
X123972182Y-116171930I-53033J-53033D01*
G01*
X123035266Y-117108846D01*
G75*
G02*
X122929200Y-117108846I-53033J53033D01*
G01*
X122823134Y-117002780D01*
G75*
G02*
X122823134Y-116896714I53033J53033D01*
G01*
G37*
%TD.AperFunction*%
%TO.P,U1,22*%
%TO.N,/sheet60B7CF48/conn_1*%
%TA.AperFunction,SMDPad,CuDef*%
G36*
G01*
X122469581Y-116543161D02*
X123406497Y-115606245D01*
G75*
G02*
X123512563Y-115606245I53033J-53033D01*
G01*
X123618629Y-115712311D01*
G75*
G02*
X123618629Y-115818377I-53033J-53033D01*
G01*
X122681713Y-116755293D01*
G75*
G02*
X122575647Y-116755293I-53033J53033D01*
G01*
X122469581Y-116649227D01*
G75*
G02*
X122469581Y-116543161I53033J53033D01*
G01*
G37*
%TD.AperFunction*%
%TO.P,U1,21*%
%TO.N,Net-(D1-Pad2)*%
%TA.AperFunction,SMDPad,CuDef*%
G36*
G01*
X122116027Y-116189607D02*
X123052943Y-115252691D01*
G75*
G02*
X123159009Y-115252691I53033J-53033D01*
G01*
X123265075Y-115358757D01*
G75*
G02*
X123265075Y-115464823I-53033J-53033D01*
G01*
X122328159Y-116401739D01*
G75*
G02*
X122222093Y-116401739I-53033J53033D01*
G01*
X122116027Y-116295673D01*
G75*
G02*
X122116027Y-116189607I53033J53033D01*
G01*
G37*
%TD.AperFunction*%
%TO.P,U1,20*%
%TO.N,/Sheet60AF3A60/conn_3*%
%TA.AperFunction,SMDPad,CuDef*%
G36*
G01*
X121762474Y-115836054D02*
X122699390Y-114899138D01*
G75*
G02*
X122805456Y-114899138I53033J-53033D01*
G01*
X122911522Y-115005204D01*
G75*
G02*
X122911522Y-115111270I-53033J-53033D01*
G01*
X121974606Y-116048186D01*
G75*
G02*
X121868540Y-116048186I-53033J53033D01*
G01*
X121762474Y-115942120D01*
G75*
G02*
X121762474Y-115836054I53033J53033D01*
G01*
G37*
%TD.AperFunction*%
%TO.P,U1,19*%
%TO.N,/Sheet60AF3A60/conn_2*%
%TA.AperFunction,SMDPad,CuDef*%
G36*
G01*
X121408921Y-115482501D02*
X122345837Y-114545585D01*
G75*
G02*
X122451903Y-114545585I53033J-53033D01*
G01*
X122557969Y-114651651D01*
G75*
G02*
X122557969Y-114757717I-53033J-53033D01*
G01*
X121621053Y-115694633D01*
G75*
G02*
X121514987Y-115694633I-53033J53033D01*
G01*
X121408921Y-115588567D01*
G75*
G02*
X121408921Y-115482501I53033J53033D01*
G01*
G37*
%TD.AperFunction*%
%TO.P,U1,18*%
%TO.N,/Sheet60AF3A60/conn_1*%
%TA.AperFunction,SMDPad,CuDef*%
G36*
G01*
X121055367Y-115128947D02*
X121992283Y-114192031D01*
G75*
G02*
X122098349Y-114192031I53033J-53033D01*
G01*
X122204415Y-114298097D01*
G75*
G02*
X122204415Y-114404163I-53033J-53033D01*
G01*
X121267499Y-115341079D01*
G75*
G02*
X121161433Y-115341079I-53033J53033D01*
G01*
X121055367Y-115235013D01*
G75*
G02*
X121055367Y-115128947I53033J53033D01*
G01*
G37*
%TD.AperFunction*%
%TO.P,U1,17*%
%TO.N,/Sheet60AF3A60/R_sense*%
%TA.AperFunction,SMDPad,CuDef*%
G36*
G01*
X120701814Y-114775394D02*
X121638730Y-113838478D01*
G75*
G02*
X121744796Y-113838478I53033J-53033D01*
G01*
X121850862Y-113944544D01*
G75*
G02*
X121850862Y-114050610I-53033J-53033D01*
G01*
X120913946Y-114987526D01*
G75*
G02*
X120807880Y-114987526I-53033J53033D01*
G01*
X120701814Y-114881460D01*
G75*
G02*
X120701814Y-114775394I53033J53033D01*
G01*
G37*
%TD.AperFunction*%
%TO.P,U1,16*%
%TO.N,Net-(R2-Pad1)*%
%TA.AperFunction,SMDPad,CuDef*%
G36*
G01*
X120348261Y-114421841D02*
X121285177Y-113484925D01*
G75*
G02*
X121391243Y-113484925I53033J-53033D01*
G01*
X121497309Y-113590991D01*
G75*
G02*
X121497309Y-113697057I-53033J-53033D01*
G01*
X120560393Y-114633973D01*
G75*
G02*
X120454327Y-114633973I-53033J53033D01*
G01*
X120348261Y-114527907D01*
G75*
G02*
X120348261Y-114421841I53033J53033D01*
G01*
G37*
%TD.AperFunction*%
%TO.P,U1,15*%
%TO.N,GND*%
%TA.AperFunction,SMDPad,CuDef*%
G36*
G01*
X119994707Y-114068287D02*
X120931623Y-113131371D01*
G75*
G02*
X121037689Y-113131371I53033J-53033D01*
G01*
X121143755Y-113237437D01*
G75*
G02*
X121143755Y-113343503I-53033J-53033D01*
G01*
X120206839Y-114280419D01*
G75*
G02*
X120100773Y-114280419I-53033J53033D01*
G01*
X119994707Y-114174353D01*
G75*
G02*
X119994707Y-114068287I53033J53033D01*
G01*
G37*
%TD.AperFunction*%
%TO.P,U1,14*%
%TO.N,Net-(C4-Pad1)*%
%TA.AperFunction,SMDPad,CuDef*%
G36*
G01*
X119641154Y-113714734D02*
X120578070Y-112777818D01*
G75*
G02*
X120684136Y-112777818I53033J-53033D01*
G01*
X120790202Y-112883884D01*
G75*
G02*
X120790202Y-112989950I-53033J-53033D01*
G01*
X119853286Y-113926866D01*
G75*
G02*
X119747220Y-113926866I-53033J53033D01*
G01*
X119641154Y-113820800D01*
G75*
G02*
X119641154Y-113714734I53033J53033D01*
G01*
G37*
%TD.AperFunction*%
%TO.P,U1,13*%
%TA.AperFunction,SMDPad,CuDef*%
G36*
G01*
X119287600Y-113361180D02*
X120224516Y-112424264D01*
G75*
G02*
X120330582Y-112424264I53033J-53033D01*
G01*
X120436648Y-112530330D01*
G75*
G02*
X120436648Y-112636396I-53033J-53033D01*
G01*
X119499732Y-113573312D01*
G75*
G02*
X119393666Y-113573312I-53033J53033D01*
G01*
X119287600Y-113467246D01*
G75*
G02*
X119287600Y-113361180I53033J53033D01*
G01*
G37*
%TD.AperFunction*%
%TO.P,U1,12*%
%TO.N,GND*%
%TA.AperFunction,SMDPad,CuDef*%
G36*
G01*
X119287600Y-110532754D02*
X119393666Y-110426688D01*
G75*
G02*
X119499732Y-110426688I53033J-53033D01*
G01*
X120436648Y-111363604D01*
G75*
G02*
X120436648Y-111469670I-53033J-53033D01*
G01*
X120330582Y-111575736D01*
G75*
G02*
X120224516Y-111575736I-53033J53033D01*
G01*
X119287600Y-110638820D01*
G75*
G02*
X119287600Y-110532754I53033J53033D01*
G01*
G37*
%TD.AperFunction*%
%TO.P,U1,11*%
%TO.N,Net-(C3-Pad1)*%
%TA.AperFunction,SMDPad,CuDef*%
G36*
G01*
X119641154Y-110179200D02*
X119747220Y-110073134D01*
G75*
G02*
X119853286Y-110073134I53033J-53033D01*
G01*
X120790202Y-111010050D01*
G75*
G02*
X120790202Y-111116116I-53033J-53033D01*
G01*
X120684136Y-111222182D01*
G75*
G02*
X120578070Y-111222182I-53033J53033D01*
G01*
X119641154Y-110285266D01*
G75*
G02*
X119641154Y-110179200I53033J53033D01*
G01*
G37*
%TD.AperFunction*%
%TO.P,U1,10*%
%TO.N,N/C*%
%TA.AperFunction,SMDPad,CuDef*%
G36*
G01*
X119994707Y-109825647D02*
X120100773Y-109719581D01*
G75*
G02*
X120206839Y-109719581I53033J-53033D01*
G01*
X121143755Y-110656497D01*
G75*
G02*
X121143755Y-110762563I-53033J-53033D01*
G01*
X121037689Y-110868629D01*
G75*
G02*
X120931623Y-110868629I-53033J53033D01*
G01*
X119994707Y-109931713D01*
G75*
G02*
X119994707Y-109825647I53033J53033D01*
G01*
G37*
%TD.AperFunction*%
%TO.P,U1,9*%
%TO.N,GND*%
%TA.AperFunction,SMDPad,CuDef*%
G36*
G01*
X120348261Y-109472093D02*
X120454327Y-109366027D01*
G75*
G02*
X120560393Y-109366027I53033J-53033D01*
G01*
X121497309Y-110302943D01*
G75*
G02*
X121497309Y-110409009I-53033J-53033D01*
G01*
X121391243Y-110515075D01*
G75*
G02*
X121285177Y-110515075I-53033J53033D01*
G01*
X120348261Y-109578159D01*
G75*
G02*
X120348261Y-109472093I53033J53033D01*
G01*
G37*
%TD.AperFunction*%
%TO.P,U1,8*%
%TO.N,+5V*%
%TA.AperFunction,SMDPad,CuDef*%
G36*
G01*
X120701814Y-109118540D02*
X120807880Y-109012474D01*
G75*
G02*
X120913946Y-109012474I53033J-53033D01*
G01*
X121850862Y-109949390D01*
G75*
G02*
X121850862Y-110055456I-53033J-53033D01*
G01*
X121744796Y-110161522D01*
G75*
G02*
X121638730Y-110161522I-53033J53033D01*
G01*
X120701814Y-109224606D01*
G75*
G02*
X120701814Y-109118540I53033J53033D01*
G01*
G37*
%TD.AperFunction*%
%TO.P,U1,7*%
%TO.N,GND*%
%TA.AperFunction,SMDPad,CuDef*%
G36*
G01*
X121055367Y-108764987D02*
X121161433Y-108658921D01*
G75*
G02*
X121267499Y-108658921I53033J-53033D01*
G01*
X122204415Y-109595837D01*
G75*
G02*
X122204415Y-109701903I-53033J-53033D01*
G01*
X122098349Y-109807969D01*
G75*
G02*
X121992283Y-109807969I-53033J53033D01*
G01*
X121055367Y-108871053D01*
G75*
G02*
X121055367Y-108764987I53033J53033D01*
G01*
G37*
%TD.AperFunction*%
%TO.P,U1,6*%
%TO.N,+5V*%
%TA.AperFunction,SMDPad,CuDef*%
G36*
G01*
X121408921Y-108411433D02*
X121514987Y-108305367D01*
G75*
G02*
X121621053Y-108305367I53033J-53033D01*
G01*
X122557969Y-109242283D01*
G75*
G02*
X122557969Y-109348349I-53033J-53033D01*
G01*
X122451903Y-109454415D01*
G75*
G02*
X122345837Y-109454415I-53033J53033D01*
G01*
X121408921Y-108517499D01*
G75*
G02*
X121408921Y-108411433I53033J53033D01*
G01*
G37*
%TD.AperFunction*%
%TO.P,U1,5*%
%TO.N,GND*%
%TA.AperFunction,SMDPad,CuDef*%
G36*
G01*
X121762474Y-108057880D02*
X121868540Y-107951814D01*
G75*
G02*
X121974606Y-107951814I53033J-53033D01*
G01*
X122911522Y-108888730D01*
G75*
G02*
X122911522Y-108994796I-53033J-53033D01*
G01*
X122805456Y-109100862D01*
G75*
G02*
X122699390Y-109100862I-53033J53033D01*
G01*
X121762474Y-108163946D01*
G75*
G02*
X121762474Y-108057880I53033J53033D01*
G01*
G37*
%TD.AperFunction*%
%TO.P,U1,4*%
%TO.N,+5V*%
%TA.AperFunction,SMDPad,CuDef*%
G36*
G01*
X122116027Y-107704327D02*
X122222093Y-107598261D01*
G75*
G02*
X122328159Y-107598261I53033J-53033D01*
G01*
X123265075Y-108535177D01*
G75*
G02*
X123265075Y-108641243I-53033J-53033D01*
G01*
X123159009Y-108747309D01*
G75*
G02*
X123052943Y-108747309I-53033J53033D01*
G01*
X122116027Y-107810393D01*
G75*
G02*
X122116027Y-107704327I53033J53033D01*
G01*
G37*
%TD.AperFunction*%
%TO.P,U1,3*%
%TO.N,GND*%
%TA.AperFunction,SMDPad,CuDef*%
G36*
G01*
X122469581Y-107350773D02*
X122575647Y-107244707D01*
G75*
G02*
X122681713Y-107244707I53033J-53033D01*
G01*
X123618629Y-108181623D01*
G75*
G02*
X123618629Y-108287689I-53033J-53033D01*
G01*
X123512563Y-108393755D01*
G75*
G02*
X123406497Y-108393755I-53033J53033D01*
G01*
X122469581Y-107456839D01*
G75*
G02*
X122469581Y-107350773I53033J53033D01*
G01*
G37*
%TD.AperFunction*%
%TO.P,U1,2*%
%TO.N,+5V*%
%TA.AperFunction,SMDPad,CuDef*%
G36*
G01*
X122823134Y-106997220D02*
X122929200Y-106891154D01*
G75*
G02*
X123035266Y-106891154I53033J-53033D01*
G01*
X123972182Y-107828070D01*
G75*
G02*
X123972182Y-107934136I-53033J-53033D01*
G01*
X123866116Y-108040202D01*
G75*
G02*
X123760050Y-108040202I-53033J53033D01*
G01*
X122823134Y-107103286D01*
G75*
G02*
X122823134Y-106997220I53033J53033D01*
G01*
G37*
%TD.AperFunction*%
%TO.P,U1,1*%
%TO.N,GND*%
%TA.AperFunction,SMDPad,CuDef*%
G36*
G01*
X123176688Y-106643666D02*
X123282754Y-106537600D01*
G75*
G02*
X123388820Y-106537600I53033J-53033D01*
G01*
X124325736Y-107474516D01*
G75*
G02*
X124325736Y-107580582I-53033J-53033D01*
G01*
X124219670Y-107686648D01*
G75*
G02*
X124113604Y-107686648I-53033J53033D01*
G01*
X123176688Y-106749732D01*
G75*
G02*
X123176688Y-106643666I53033J53033D01*
G01*
G37*
%TD.AperFunction*%
%TD*%
D10*
%TO.P,REF\u002A\u002A,1*%
%TO.N,N/C*%
X143947056Y-113302944D03*
X142250000Y-112600000D03*
X140552944Y-113302944D03*
X139850000Y-115000000D03*
X140552944Y-116697056D03*
X142250000Y-117400000D03*
X143947056Y-116697056D03*
X144650000Y-115000000D03*
D11*
X142250000Y-115000000D03*
%TD*%
D10*
%TO.P,REF\u002A\u002A,1*%
%TO.N,N/C*%
X143947056Y-90802944D03*
X142250000Y-90100000D03*
X140552944Y-90802944D03*
X139850000Y-92500000D03*
X140552944Y-94197056D03*
X142250000Y-94900000D03*
X143947056Y-94197056D03*
X144650000Y-92500000D03*
D11*
X142250000Y-92500000D03*
%TD*%
D10*
%TO.P,REF\u002A\u002A,1*%
%TO.N,N/C*%
X108947056Y-90802944D03*
X107250000Y-90100000D03*
X105552944Y-90802944D03*
X104850000Y-92500000D03*
X105552944Y-94197056D03*
X107250000Y-94900000D03*
X108947056Y-94197056D03*
X109650000Y-92500000D03*
D11*
X107250000Y-92500000D03*
%TD*%
D10*
%TO.P,REF\u002A\u002A,1*%
%TO.N,N/C*%
X108947056Y-113302944D03*
X107250000Y-112600000D03*
X105552944Y-113302944D03*
X104850000Y-115000000D03*
X105552944Y-116697056D03*
X107250000Y-117400000D03*
X108947056Y-116697056D03*
X109650000Y-115000000D03*
D11*
X107250000Y-115000000D03*
%TD*%
D12*
%TO.P,J5,8*%
%TO.N,GND*%
X148800000Y-91000000D03*
%TO.P,J5,7*%
%TO.N,/sheet60B85CD9/conn_3*%
X148800000Y-94500000D03*
%TO.P,J5,6*%
%TO.N,GND*%
X148800000Y-98000000D03*
%TO.P,J5,5*%
%TO.N,/sheet60B85CD9/conn_2*%
X148800000Y-101500000D03*
%TO.P,J5,4*%
%TO.N,GND*%
X148800000Y-105000000D03*
%TO.P,J5,3*%
%TO.N,/sheet60B85CD9/conn_1*%
X148800000Y-108500000D03*
%TO.P,J5,2*%
%TO.N,GND*%
X148800000Y-112000000D03*
D13*
%TO.P,J5,1*%
%TO.N,/sheet60B815B9/R_sense*%
X148800000Y-115500000D03*
%TD*%
D12*
%TO.P,J4,8*%
%TO.N,GND*%
X151250000Y-121800000D03*
%TO.P,J4,7*%
%TO.N,/sheet60B815B9/conn_3*%
X147750000Y-121800000D03*
%TO.P,J4,6*%
%TO.N,GND*%
X144250000Y-121800000D03*
%TO.P,J4,5*%
%TO.N,/sheet60B815B9/conn_2*%
X140750000Y-121800000D03*
%TO.P,J4,4*%
%TO.N,GND*%
X137250000Y-121800000D03*
%TO.P,J4,3*%
%TO.N,/sheet60B815B9/conn_1*%
X133750000Y-121800000D03*
%TO.P,J4,2*%
%TO.N,GND*%
X130250000Y-121800000D03*
D13*
%TO.P,J4,1*%
%TO.N,/sheet60B815B9/R_sense*%
X126750000Y-121800000D03*
%TD*%
D12*
%TO.P,J3,8*%
%TO.N,GND*%
X122750000Y-121800000D03*
%TO.P,J3,7*%
%TO.N,/sheet60B7CF48/conn_3*%
X119250000Y-121800000D03*
%TO.P,J3,6*%
%TO.N,GND*%
X115750000Y-121800000D03*
%TO.P,J3,5*%
%TO.N,/sheet60B7CF48/conn_2*%
X112250000Y-121800000D03*
%TO.P,J3,4*%
%TO.N,GND*%
X108750000Y-121800000D03*
%TO.P,J3,3*%
%TO.N,/sheet60B7CF48/conn_1*%
X105250000Y-121800000D03*
%TO.P,J3,2*%
%TO.N,GND*%
X101750000Y-121800000D03*
D13*
%TO.P,J3,1*%
%TO.N,/Sheet60AF3A60/R_sense*%
X98250000Y-121800000D03*
%TD*%
D12*
%TO.P,J2,8*%
%TO.N,GND*%
X100700000Y-115500000D03*
%TO.P,J2,7*%
%TO.N,/Sheet60AF3A60/conn_3*%
X100700000Y-112000000D03*
%TO.P,J2,6*%
%TO.N,GND*%
X100700000Y-108500000D03*
%TO.P,J2,5*%
%TO.N,/Sheet60AF3A60/conn_2*%
X100700000Y-105000000D03*
%TO.P,J2,4*%
%TO.N,GND*%
X100700000Y-101500000D03*
%TO.P,J2,3*%
%TO.N,/Sheet60AF3A60/conn_1*%
X100700000Y-98000000D03*
%TO.P,J2,2*%
%TO.N,GND*%
X100700000Y-94500000D03*
D13*
%TO.P,J2,1*%
%TO.N,/Sheet60AF3A60/R_sense*%
X100700000Y-91000000D03*
%TD*%
D12*
%TO.P,J1,8*%
%TO.N,GND*%
X112500000Y-93700000D03*
%TO.P,J1,7*%
%TO.N,Net-(C6-Pad1)*%
X116000000Y-93700000D03*
%TO.P,J1,6*%
%TO.N,Net-(J1-Pad6)*%
X119500000Y-93700000D03*
%TO.P,J1,5*%
%TO.N,Net-(J1-Pad5)*%
X123000000Y-93700000D03*
%TO.P,J1,4*%
%TO.N,Net-(J1-Pad4)*%
X126500000Y-93700000D03*
%TO.P,J1,3*%
%TO.N,Net-(J1-Pad3)*%
X130000000Y-93700000D03*
%TO.P,J1,2*%
%TO.N,Net-(J1-Pad2)*%
X133500000Y-93700000D03*
D13*
%TO.P,J1,1*%
%TO.N,Net-(J1-Pad1)*%
X137000000Y-93700000D03*
%TD*%
%TO.P,U2,8*%
%TO.N,Net-(C6-Pad1)*%
%TA.AperFunction,SMDPad,CuDef*%
G36*
G01*
X115750000Y-99495000D02*
X115750000Y-99195000D01*
G75*
G02*
X115900000Y-99045000I150000J0D01*
G01*
X117550000Y-99045000D01*
G75*
G02*
X117700000Y-99195000I0J-150000D01*
G01*
X117700000Y-99495000D01*
G75*
G02*
X117550000Y-99645000I-150000J0D01*
G01*
X115900000Y-99645000D01*
G75*
G02*
X115750000Y-99495000I0J150000D01*
G01*
G37*
%TD.AperFunction*%
%TO.P,U2,7*%
%TO.N,GND*%
%TA.AperFunction,SMDPad,CuDef*%
G36*
G01*
X115750000Y-100765000D02*
X115750000Y-100465000D01*
G75*
G02*
X115900000Y-100315000I150000J0D01*
G01*
X117550000Y-100315000D01*
G75*
G02*
X117700000Y-100465000I0J-150000D01*
G01*
X117700000Y-100765000D01*
G75*
G02*
X117550000Y-100915000I-150000J0D01*
G01*
X115900000Y-100915000D01*
G75*
G02*
X115750000Y-100765000I0J150000D01*
G01*
G37*
%TD.AperFunction*%
%TO.P,U2,6*%
%TA.AperFunction,SMDPad,CuDef*%
G36*
G01*
X115750000Y-102035000D02*
X115750000Y-101735000D01*
G75*
G02*
X115900000Y-101585000I150000J0D01*
G01*
X117550000Y-101585000D01*
G75*
G02*
X117700000Y-101735000I0J-150000D01*
G01*
X117700000Y-102035000D01*
G75*
G02*
X117550000Y-102185000I-150000J0D01*
G01*
X115900000Y-102185000D01*
G75*
G02*
X115750000Y-102035000I0J150000D01*
G01*
G37*
%TD.AperFunction*%
%TO.P,U2,5*%
%TO.N,Net-(U2-Pad5)*%
%TA.AperFunction,SMDPad,CuDef*%
G36*
G01*
X115750000Y-103305000D02*
X115750000Y-103005000D01*
G75*
G02*
X115900000Y-102855000I150000J0D01*
G01*
X117550000Y-102855000D01*
G75*
G02*
X117700000Y-103005000I0J-150000D01*
G01*
X117700000Y-103305000D01*
G75*
G02*
X117550000Y-103455000I-150000J0D01*
G01*
X115900000Y-103455000D01*
G75*
G02*
X115750000Y-103305000I0J150000D01*
G01*
G37*
%TD.AperFunction*%
%TO.P,U2,4*%
%TO.N,Net-(U2-Pad4)*%
%TA.AperFunction,SMDPad,CuDef*%
G36*
G01*
X110800000Y-103305000D02*
X110800000Y-103005000D01*
G75*
G02*
X110950000Y-102855000I150000J0D01*
G01*
X112600000Y-102855000D01*
G75*
G02*
X112750000Y-103005000I0J-150000D01*
G01*
X112750000Y-103305000D01*
G75*
G02*
X112600000Y-103455000I-150000J0D01*
G01*
X110950000Y-103455000D01*
G75*
G02*
X110800000Y-103305000I0J150000D01*
G01*
G37*
%TD.AperFunction*%
%TO.P,U2,3*%
%TO.N,GND*%
%TA.AperFunction,SMDPad,CuDef*%
G36*
G01*
X110800000Y-102035000D02*
X110800000Y-101735000D01*
G75*
G02*
X110950000Y-101585000I150000J0D01*
G01*
X112600000Y-101585000D01*
G75*
G02*
X112750000Y-101735000I0J-150000D01*
G01*
X112750000Y-102035000D01*
G75*
G02*
X112600000Y-102185000I-150000J0D01*
G01*
X110950000Y-102185000D01*
G75*
G02*
X110800000Y-102035000I0J150000D01*
G01*
G37*
%TD.AperFunction*%
%TO.P,U2,2*%
%TA.AperFunction,SMDPad,CuDef*%
G36*
G01*
X110800000Y-100765000D02*
X110800000Y-100465000D01*
G75*
G02*
X110950000Y-100315000I150000J0D01*
G01*
X112600000Y-100315000D01*
G75*
G02*
X112750000Y-100465000I0J-150000D01*
G01*
X112750000Y-100765000D01*
G75*
G02*
X112600000Y-100915000I-150000J0D01*
G01*
X110950000Y-100915000D01*
G75*
G02*
X110800000Y-100765000I0J150000D01*
G01*
G37*
%TD.AperFunction*%
%TO.P,U2,1*%
%TO.N,+5V*%
%TA.AperFunction,SMDPad,CuDef*%
G36*
G01*
X110800000Y-99495000D02*
X110800000Y-99195000D01*
G75*
G02*
X110950000Y-99045000I150000J0D01*
G01*
X112600000Y-99045000D01*
G75*
G02*
X112750000Y-99195000I0J-150000D01*
G01*
X112750000Y-99495000D01*
G75*
G02*
X112600000Y-99645000I-150000J0D01*
G01*
X110950000Y-99645000D01*
G75*
G02*
X110800000Y-99495000I0J150000D01*
G01*
G37*
%TD.AperFunction*%
%TD*%
%TO.P,R2,2*%
%TO.N,/Sheet60AF3A60/R_sense*%
%TA.AperFunction,SMDPad,CuDef*%
G36*
G01*
X114725000Y-116700001D02*
X114725000Y-115799999D01*
G75*
G02*
X114974999Y-115550000I249999J0D01*
G01*
X115625001Y-115550000D01*
G75*
G02*
X115875000Y-115799999I0J-249999D01*
G01*
X115875000Y-116700001D01*
G75*
G02*
X115625001Y-116950000I-249999J0D01*
G01*
X114974999Y-116950000D01*
G75*
G02*
X114725000Y-116700001I0J249999D01*
G01*
G37*
%TD.AperFunction*%
%TO.P,R2,1*%
%TO.N,Net-(R2-Pad1)*%
%TA.AperFunction,SMDPad,CuDef*%
G36*
G01*
X112675000Y-116700001D02*
X112675000Y-115799999D01*
G75*
G02*
X112924999Y-115550000I249999J0D01*
G01*
X113575001Y-115550000D01*
G75*
G02*
X113825000Y-115799999I0J-249999D01*
G01*
X113825000Y-116700001D01*
G75*
G02*
X113575001Y-116950000I-249999J0D01*
G01*
X112924999Y-116950000D01*
G75*
G02*
X112675000Y-116700001I0J249999D01*
G01*
G37*
%TD.AperFunction*%
%TD*%
%TO.P,R1,2*%
%TO.N,/sheet60B815B9/R_sense*%
%TA.AperFunction,SMDPad,CuDef*%
G36*
G01*
X134825000Y-115799999D02*
X134825000Y-116700001D01*
G75*
G02*
X134575001Y-116950000I-249999J0D01*
G01*
X133924999Y-116950000D01*
G75*
G02*
X133675000Y-116700001I0J249999D01*
G01*
X133675000Y-115799999D01*
G75*
G02*
X133924999Y-115550000I249999J0D01*
G01*
X134575001Y-115550000D01*
G75*
G02*
X134825000Y-115799999I0J-249999D01*
G01*
G37*
%TD.AperFunction*%
%TO.P,R1,1*%
%TO.N,Net-(R1-Pad1)*%
%TA.AperFunction,SMDPad,CuDef*%
G36*
G01*
X136875000Y-115799999D02*
X136875000Y-116700001D01*
G75*
G02*
X136625001Y-116950000I-249999J0D01*
G01*
X135974999Y-116950000D01*
G75*
G02*
X135725000Y-116700001I0J249999D01*
G01*
X135725000Y-115799999D01*
G75*
G02*
X135974999Y-115550000I249999J0D01*
G01*
X136625001Y-115550000D01*
G75*
G02*
X136875000Y-115799999I0J-249999D01*
G01*
G37*
%TD.AperFunction*%
%TD*%
%TO.P,C7,2*%
%TO.N,GND*%
%TA.AperFunction,SMDPad,CuDef*%
G36*
G01*
X107125000Y-102012500D02*
X108375000Y-102012500D01*
G75*
G02*
X108625000Y-102262500I0J-250000D01*
G01*
X108625000Y-103187500D01*
G75*
G02*
X108375000Y-103437500I-250000J0D01*
G01*
X107125000Y-103437500D01*
G75*
G02*
X106875000Y-103187500I0J250000D01*
G01*
X106875000Y-102262500D01*
G75*
G02*
X107125000Y-102012500I250000J0D01*
G01*
G37*
%TD.AperFunction*%
%TO.P,C7,1*%
%TO.N,+5V*%
%TA.AperFunction,SMDPad,CuDef*%
G36*
G01*
X107125000Y-99037500D02*
X108375000Y-99037500D01*
G75*
G02*
X108625000Y-99287500I0J-250000D01*
G01*
X108625000Y-100212500D01*
G75*
G02*
X108375000Y-100462500I-250000J0D01*
G01*
X107125000Y-100462500D01*
G75*
G02*
X106875000Y-100212500I0J250000D01*
G01*
X106875000Y-99287500D01*
G75*
G02*
X107125000Y-99037500I250000J0D01*
G01*
G37*
%TD.AperFunction*%
%TD*%
%TO.P,C6,2*%
%TO.N,GND*%
%TA.AperFunction,SMDPad,CuDef*%
G36*
G01*
X120049999Y-101725000D02*
X120950001Y-101725000D01*
G75*
G02*
X121200000Y-101974999I0J-249999D01*
G01*
X121200000Y-102625001D01*
G75*
G02*
X120950001Y-102875000I-249999J0D01*
G01*
X120049999Y-102875000D01*
G75*
G02*
X119800000Y-102625001I0J249999D01*
G01*
X119800000Y-101974999D01*
G75*
G02*
X120049999Y-101725000I249999J0D01*
G01*
G37*
%TD.AperFunction*%
%TO.P,C6,1*%
%TO.N,Net-(C6-Pad1)*%
%TA.AperFunction,SMDPad,CuDef*%
G36*
G01*
X120049999Y-99675000D02*
X120950001Y-99675000D01*
G75*
G02*
X121200000Y-99924999I0J-249999D01*
G01*
X121200000Y-100575001D01*
G75*
G02*
X120950001Y-100825000I-249999J0D01*
G01*
X120049999Y-100825000D01*
G75*
G02*
X119800000Y-100575001I0J249999D01*
G01*
X119800000Y-99924999D01*
G75*
G02*
X120049999Y-99675000I249999J0D01*
G01*
G37*
%TD.AperFunction*%
%TD*%
%TO.P,C5,2*%
%TO.N,GND*%
%TA.AperFunction,SMDPad,CuDef*%
G36*
G01*
X128950001Y-104275000D02*
X128049999Y-104275000D01*
G75*
G02*
X127800000Y-104025001I0J249999D01*
G01*
X127800000Y-103374999D01*
G75*
G02*
X128049999Y-103125000I249999J0D01*
G01*
X128950001Y-103125000D01*
G75*
G02*
X129200000Y-103374999I0J-249999D01*
G01*
X129200000Y-104025001D01*
G75*
G02*
X128950001Y-104275000I-249999J0D01*
G01*
G37*
%TD.AperFunction*%
%TO.P,C5,1*%
%TO.N,Net-(C5-Pad1)*%
%TA.AperFunction,SMDPad,CuDef*%
G36*
G01*
X128950001Y-106325000D02*
X128049999Y-106325000D01*
G75*
G02*
X127800000Y-106075001I0J249999D01*
G01*
X127800000Y-105424999D01*
G75*
G02*
X128049999Y-105175000I249999J0D01*
G01*
X128950001Y-105175000D01*
G75*
G02*
X129200000Y-105424999I0J-249999D01*
G01*
X129200000Y-106075001D01*
G75*
G02*
X128950001Y-106325000I-249999J0D01*
G01*
G37*
%TD.AperFunction*%
%TD*%
%TO.P,C4,2*%
%TO.N,GND*%
%TA.AperFunction,SMDPad,CuDef*%
G36*
G01*
X113825000Y-112299999D02*
X113825000Y-113200001D01*
G75*
G02*
X113575001Y-113450000I-249999J0D01*
G01*
X112924999Y-113450000D01*
G75*
G02*
X112675000Y-113200001I0J249999D01*
G01*
X112675000Y-112299999D01*
G75*
G02*
X112924999Y-112050000I249999J0D01*
G01*
X113575001Y-112050000D01*
G75*
G02*
X113825000Y-112299999I0J-249999D01*
G01*
G37*
%TD.AperFunction*%
%TO.P,C4,1*%
%TO.N,Net-(C4-Pad1)*%
%TA.AperFunction,SMDPad,CuDef*%
G36*
G01*
X115875000Y-112299999D02*
X115875000Y-113200001D01*
G75*
G02*
X115625001Y-113450000I-249999J0D01*
G01*
X114974999Y-113450000D01*
G75*
G02*
X114725000Y-113200001I0J249999D01*
G01*
X114725000Y-112299999D01*
G75*
G02*
X114974999Y-112050000I249999J0D01*
G01*
X115625001Y-112050000D01*
G75*
G02*
X115875000Y-112299999I0J-249999D01*
G01*
G37*
%TD.AperFunction*%
%TD*%
%TO.P,C3,2*%
%TO.N,GND*%
%TA.AperFunction,SMDPad,CuDef*%
G36*
G01*
X113714000Y-108799999D02*
X113714000Y-109700001D01*
G75*
G02*
X113464001Y-109950000I-249999J0D01*
G01*
X112813999Y-109950000D01*
G75*
G02*
X112564000Y-109700001I0J249999D01*
G01*
X112564000Y-108799999D01*
G75*
G02*
X112813999Y-108550000I249999J0D01*
G01*
X113464001Y-108550000D01*
G75*
G02*
X113714000Y-108799999I0J-249999D01*
G01*
G37*
%TD.AperFunction*%
%TO.P,C3,1*%
%TO.N,Net-(C3-Pad1)*%
%TA.AperFunction,SMDPad,CuDef*%
G36*
G01*
X115764000Y-108799999D02*
X115764000Y-109700001D01*
G75*
G02*
X115514001Y-109950000I-249999J0D01*
G01*
X114863999Y-109950000D01*
G75*
G02*
X114614000Y-109700001I0J249999D01*
G01*
X114614000Y-108799999D01*
G75*
G02*
X114863999Y-108550000I249999J0D01*
G01*
X115514001Y-108550000D01*
G75*
G02*
X115764000Y-108799999I0J-249999D01*
G01*
G37*
%TD.AperFunction*%
%TD*%
%TO.P,C2,2*%
%TO.N,GND*%
%TA.AperFunction,SMDPad,CuDef*%
G36*
G01*
X135725000Y-113200001D02*
X135725000Y-112299999D01*
G75*
G02*
X135974999Y-112050000I249999J0D01*
G01*
X136625001Y-112050000D01*
G75*
G02*
X136875000Y-112299999I0J-249999D01*
G01*
X136875000Y-113200001D01*
G75*
G02*
X136625001Y-113450000I-249999J0D01*
G01*
X135974999Y-113450000D01*
G75*
G02*
X135725000Y-113200001I0J249999D01*
G01*
G37*
%TD.AperFunction*%
%TO.P,C2,1*%
%TO.N,Net-(C2-Pad1)*%
%TA.AperFunction,SMDPad,CuDef*%
G36*
G01*
X133675000Y-113200001D02*
X133675000Y-112299999D01*
G75*
G02*
X133924999Y-112050000I249999J0D01*
G01*
X134575001Y-112050000D01*
G75*
G02*
X134825000Y-112299999I0J-249999D01*
G01*
X134825000Y-113200001D01*
G75*
G02*
X134575001Y-113450000I-249999J0D01*
G01*
X133924999Y-113450000D01*
G75*
G02*
X133675000Y-113200001I0J249999D01*
G01*
G37*
%TD.AperFunction*%
%TD*%
%TO.P,C1,2*%
%TO.N,Net-(C1-Pad2)*%
%TA.AperFunction,SMDPad,CuDef*%
G36*
G01*
X125175000Y-104200001D02*
X125175000Y-103299999D01*
G75*
G02*
X125424999Y-103050000I249999J0D01*
G01*
X126075001Y-103050000D01*
G75*
G02*
X126325000Y-103299999I0J-249999D01*
G01*
X126325000Y-104200001D01*
G75*
G02*
X126075001Y-104450000I-249999J0D01*
G01*
X125424999Y-104450000D01*
G75*
G02*
X125175000Y-104200001I0J249999D01*
G01*
G37*
%TD.AperFunction*%
%TO.P,C1,1*%
%TO.N,Net-(C1-Pad1)*%
%TA.AperFunction,SMDPad,CuDef*%
G36*
G01*
X123125000Y-104200001D02*
X123125000Y-103299999D01*
G75*
G02*
X123374999Y-103050000I249999J0D01*
G01*
X124025001Y-103050000D01*
G75*
G02*
X124275000Y-103299999I0J-249999D01*
G01*
X124275000Y-104200001D01*
G75*
G02*
X124025001Y-104450000I-249999J0D01*
G01*
X123374999Y-104450000D01*
G75*
G02*
X123125000Y-104200001I0J249999D01*
G01*
G37*
%TD.AperFunction*%
%TD*%
D14*
%TO.N,GND*%
X124750000Y-112000000D03*
X124750000Y-110750000D03*
X124750000Y-109500000D03*
X124750000Y-113250000D03*
X123500000Y-112000000D03*
X123500000Y-110750000D03*
X123500000Y-109500000D03*
X122250000Y-110750000D03*
X122250000Y-112000000D03*
X122250000Y-113250000D03*
X123500000Y-113250000D03*
X124750000Y-114500000D03*
X126000000Y-113250000D03*
X127250000Y-113250000D03*
X126000000Y-112000000D03*
X126000000Y-110750000D03*
X126000000Y-114500000D03*
X123500000Y-114500000D03*
X137750000Y-112750000D03*
X111750000Y-111000000D03*
X127250000Y-102000000D03*
%TO.N,Net-(C2-Pad1)*%
X133080123Y-113330123D03*
X127250000Y-112000000D03*
%TO.N,Net-(D1-Pad2)*%
X98250000Y-100250000D03*
%TO.N,Net-(D2-Pad2)*%
X107500000Y-124250000D03*
%TO.N,Net-(D3-Pad2)*%
X129500000Y-115929517D03*
%TO.N,Net-(D4-Pad2)*%
X140757216Y-108007216D03*
%TO.N,Net-(J1-Pad2)*%
X128750000Y-107750000D03*
%TO.N,/Sheet60AF3A60/R_sense*%
X117750000Y-116250000D03*
D15*
%TO.N,/sheet60B815B9/R_sense*%
X132750000Y-117250000D03*
%TD*%
D16*
%TO.N,Net-(C1-Pad2)*%
X125750000Y-103750000D02*
X125750000Y-105000000D01*
X125750000Y-105000000D02*
X126750000Y-106000000D01*
X126750000Y-106818020D02*
X126102342Y-107465678D01*
X126750000Y-106000000D02*
X126750000Y-106818020D01*
%TO.N,Net-(C1-Pad1)*%
X123700000Y-105063336D02*
X125748788Y-107112124D01*
X123700000Y-103750000D02*
X123700000Y-105063336D01*
%TO.N,GND*%
X123751212Y-107112124D02*
X123012986Y-106373898D01*
X123012986Y-106373898D02*
X123012986Y-105762986D01*
X123588652Y-110661348D02*
X123500000Y-110750000D01*
X123588652Y-108363778D02*
X123588652Y-110661348D01*
X123044105Y-107819231D02*
X123588652Y-108363778D01*
X123310660Y-109500000D02*
X123500000Y-109500000D01*
X122336998Y-108526338D02*
X123310660Y-109500000D01*
X123146446Y-110750000D02*
X123500000Y-110750000D01*
X121629891Y-109233445D02*
X123146446Y-110750000D01*
X121732234Y-110750000D02*
X122250000Y-110750000D01*
X120922785Y-109940551D02*
X121732234Y-110750000D01*
X119862124Y-111001212D02*
X119113336Y-111750000D01*
X119113336Y-111750000D02*
X119250000Y-111750000D01*
X119500000Y-112000000D02*
X122250000Y-112000000D01*
X119250000Y-111750000D02*
X119500000Y-112000000D01*
X122250000Y-112025126D02*
X122250000Y-112000000D01*
X120569231Y-113705895D02*
X122250000Y-112025126D01*
X124939340Y-110750000D02*
X124750000Y-110750000D01*
X127163002Y-108526338D02*
X124939340Y-110750000D01*
X129637876Y-112998788D02*
X128389088Y-111750000D01*
X128389088Y-112110912D02*
X127250000Y-113250000D01*
X128389088Y-111750000D02*
X128389088Y-112110912D01*
%TO.N,Net-(C2-Pad1)*%
X134250000Y-112750000D02*
X133660246Y-112750000D01*
X133660246Y-112750000D02*
X133080123Y-113330123D01*
X126619001Y-109777445D02*
X127516555Y-108879891D01*
X126619001Y-111369001D02*
X126619001Y-110369001D01*
X127250000Y-112000000D02*
X126619001Y-111369001D01*
X126619001Y-110619001D02*
X126619001Y-110369001D01*
X126619001Y-110369001D02*
X126619001Y-109777445D01*
%TO.N,Net-(C3-Pad1)*%
X118818020Y-109250000D02*
X115189000Y-109250000D01*
X120215678Y-110647658D02*
X118818020Y-109250000D01*
%TO.N,Net-(C4-Pad1)*%
X119862124Y-112998788D02*
X119613336Y-112750000D01*
X119671130Y-113896890D02*
X119103110Y-113896890D01*
X120215678Y-113352342D02*
X119671130Y-113896890D01*
X119103110Y-113896890D02*
X117956220Y-112750000D01*
X119613336Y-112750000D02*
X117250000Y-112750000D01*
X117956220Y-112750000D02*
X117250000Y-112750000D01*
X117250000Y-112750000D02*
X115300000Y-112750000D01*
%TO.N,Net-(C5-Pad1)*%
X128500000Y-105775126D02*
X128500000Y-105750000D01*
X126455895Y-107819231D02*
X128500000Y-105775126D01*
%TO.N,Net-(C6-Pad1)*%
X116725000Y-99345000D02*
X116725000Y-97475000D01*
X116000000Y-96750000D02*
X116000000Y-93700000D01*
X116725000Y-97475000D02*
X116000000Y-96750000D01*
X116725000Y-99345000D02*
X118345000Y-99345000D01*
X119250000Y-100250000D02*
X120500000Y-100250000D01*
X118345000Y-99345000D02*
X119250000Y-100250000D01*
%TO.N,+5V*%
X107750000Y-99750000D02*
X109500000Y-99750000D01*
X109905000Y-99345000D02*
X111775000Y-99345000D01*
X109500000Y-99750000D02*
X109905000Y-99345000D01*
X111775000Y-99345000D02*
X113345000Y-99345000D01*
X113345000Y-99345000D02*
X114500000Y-100500000D01*
X114500000Y-100500000D02*
X114500000Y-102810660D01*
X124649312Y-108717332D02*
X123397658Y-107465678D01*
X126264902Y-108717332D02*
X124649312Y-108717332D01*
X126809449Y-108172785D02*
X126264902Y-108717332D01*
X121337310Y-105405330D02*
X123397658Y-107465678D01*
X117094670Y-105405330D02*
X121276338Y-109586998D01*
X114500000Y-102810660D02*
X117094670Y-105405330D01*
X122690551Y-108172785D02*
X119923096Y-105405330D01*
X119923096Y-105405330D02*
X119655330Y-105405330D01*
X119655330Y-105405330D02*
X121337310Y-105405330D01*
X118508884Y-105405330D02*
X117844670Y-105405330D01*
X121983445Y-108879891D02*
X118508884Y-105405330D01*
X117094670Y-105405330D02*
X117844670Y-105405330D01*
X117844670Y-105405330D02*
X119655330Y-105405330D01*
%TO.N,Net-(D1-Pad2)*%
X122690551Y-115827215D02*
X118767766Y-119750000D01*
X103134630Y-119750000D02*
X99473399Y-116088769D01*
X118767766Y-119750000D02*
X103134630Y-119750000D01*
X99473399Y-116088769D02*
X99473399Y-101473399D01*
X99473399Y-101473399D02*
X98250000Y-100250000D01*
%TO.N,Net-(D2-Pad2)*%
X125748788Y-116887876D02*
X121250000Y-121386664D01*
X121250000Y-121386664D02*
X121250000Y-122250000D01*
X108723399Y-123026601D02*
X107500000Y-124250000D01*
X121250000Y-122250000D02*
X120473399Y-123026601D01*
X120473399Y-123026601D02*
X108723399Y-123026601D01*
%TO.N,Net-(D3-Pad2)*%
X127870109Y-114766555D02*
X129033071Y-115929517D01*
X129033071Y-115929517D02*
X129500000Y-115929517D01*
%TO.N,Net-(D4-Pad2)*%
X129828869Y-113896889D02*
X130353111Y-113896889D01*
X129284322Y-113352342D02*
X129828869Y-113896889D01*
X130353111Y-113896889D02*
X130407564Y-113896889D01*
X130407564Y-113896889D02*
X133362482Y-110941970D01*
X133362482Y-110941970D02*
X138217582Y-110941970D01*
X138217582Y-110941970D02*
X140757216Y-108402336D01*
X140757216Y-108402336D02*
X140757216Y-108007216D01*
%TO.N,Net-(J1-Pad6)*%
X129501610Y-102393463D02*
X129501610Y-108309050D01*
X129501610Y-108309050D02*
X128223662Y-109586998D01*
X119500000Y-93700000D02*
X120808147Y-93700000D01*
X120808147Y-93700000D02*
X129501610Y-102393463D01*
%TO.N,Net-(J1-Pad5)*%
X130711240Y-102538760D02*
X130711240Y-109220740D01*
X130711240Y-109220740D02*
X129284322Y-110647658D01*
X124226601Y-92473399D02*
X130588769Y-92473399D01*
X131226601Y-93111231D02*
X131226601Y-102023399D01*
X130588769Y-92473399D02*
X131226601Y-93111231D01*
X123000000Y-93700000D02*
X124226601Y-92473399D01*
X131226601Y-102023399D02*
X130711240Y-102538760D01*
%TO.N,Net-(J1-Pad4)*%
X126500000Y-93700000D02*
X126500000Y-98750000D01*
X126500000Y-98750000D02*
X129904820Y-102154820D01*
X129904820Y-108612946D02*
X128577215Y-109940551D01*
X129904820Y-102154820D02*
X129904820Y-108612946D01*
%TO.N,Net-(J1-Pad3)*%
X128930769Y-110294105D02*
X130308030Y-108916844D01*
X130308030Y-108916844D02*
X130308030Y-101987806D01*
X130000000Y-101679776D02*
X130000000Y-93700000D01*
X130308030Y-101987806D02*
X130000000Y-101679776D01*
%TO.N,Net-(J1-Pad2)*%
X127870109Y-109233445D02*
X128750000Y-108353554D01*
X128750000Y-108353554D02*
X128750000Y-107750000D01*
%TO.N,Net-(J1-Pad1)*%
X137000000Y-96820224D02*
X137000000Y-93700000D01*
X131114450Y-102705774D02*
X137000000Y-96820224D01*
X131114450Y-109524638D02*
X131114450Y-102705774D01*
X129637876Y-111001212D02*
X131114450Y-109524638D01*
%TO.N,/Sheet60AF3A60/conn_3*%
X105067630Y-112000000D02*
X100700000Y-112000000D01*
X105569231Y-111498399D02*
X105067630Y-112000000D01*
X119752630Y-118058030D02*
X112362482Y-118058030D01*
X122336998Y-115473662D02*
X119752630Y-118058030D01*
X108930769Y-111498399D02*
X105569231Y-111498399D01*
X111566970Y-117262518D02*
X111566970Y-114134600D01*
X112362482Y-118058030D02*
X111566970Y-117262518D01*
X111566970Y-114134600D02*
X108930769Y-111498399D01*
%TO.N,/Sheet60AF3A60/conn_2*%
X100700000Y-106392973D02*
X100700000Y-105000000D01*
X105402216Y-111095189D02*
X100700000Y-106392973D01*
X109097784Y-111095189D02*
X105402216Y-111095189D01*
X121983445Y-115120109D02*
X119448734Y-117654820D01*
X119448734Y-117654820D02*
X112529497Y-117654820D01*
X111970180Y-113967585D02*
X109097784Y-111095189D01*
X112529497Y-117654820D02*
X111970180Y-117095503D01*
X111970180Y-117095503D02*
X111970180Y-113967585D01*
%TO.N,/Sheet60AF3A60/conn_1*%
X112137194Y-113564375D02*
X101926601Y-103353782D01*
X119144836Y-117251610D02*
X112696512Y-117251610D01*
X101926601Y-103353782D02*
X101926601Y-99226601D01*
X121629891Y-114766555D02*
X119144836Y-117251610D01*
X112696512Y-117251610D02*
X112373390Y-116928488D01*
X112373390Y-116928488D02*
X112373390Y-113800570D01*
X101926601Y-99226601D02*
X100700000Y-98000000D01*
X112373390Y-113800570D02*
X112137194Y-113564375D01*
%TO.N,/Sheet60AF3A60/R_sense*%
X121276338Y-114413002D02*
X119439340Y-116250000D01*
X117750000Y-116250000D02*
X115300000Y-116250000D01*
X119439340Y-116250000D02*
X117750000Y-116250000D01*
%TO.N,/sheet60B7CF48/conn_3*%
X119250000Y-121389088D02*
X119250000Y-121800000D01*
X123751212Y-116887876D02*
X119250000Y-121389088D01*
%TO.N,/sheet60B7CF48/conn_2*%
X123397658Y-116534322D02*
X119358581Y-120573399D01*
X113476601Y-120573399D02*
X112250000Y-121800000D01*
X119358581Y-120573399D02*
X113476601Y-120573399D01*
%TO.N,/sheet60B7CF48/conn_1*%
X123044105Y-116180769D02*
X119054685Y-120170189D01*
X106879811Y-120170189D02*
X105250000Y-121800000D01*
X119054685Y-120170189D02*
X106879811Y-120170189D01*
%TO.N,/sheet60B815B9/conn_3*%
X137983030Y-118462806D02*
X140093623Y-120573399D01*
X137983030Y-115237482D02*
X137983030Y-118462806D01*
X129233761Y-116837315D02*
X130146466Y-116837315D01*
X140093623Y-120573399D02*
X146523399Y-120573399D01*
X130146466Y-116837315D02*
X132541810Y-114441970D01*
X132541810Y-114441970D02*
X137187518Y-114441970D01*
X146523399Y-120573399D02*
X147750000Y-121800000D01*
X127516555Y-115120109D02*
X129233761Y-116837315D01*
X137187518Y-114441970D02*
X137983030Y-115237482D01*
%TO.N,/sheet60B815B9/conn_2*%
X137579820Y-118629820D02*
X140750000Y-121800000D01*
X137579820Y-115404497D02*
X137579820Y-118629820D01*
X128929865Y-117240525D02*
X130313481Y-117240525D01*
X127163002Y-115473662D02*
X128929865Y-117240525D01*
X132708825Y-114845180D02*
X137020503Y-114845180D01*
X130313481Y-117240525D02*
X132708825Y-114845180D01*
X137020503Y-114845180D02*
X137579820Y-115404497D01*
%TO.N,/sheet60B815B9/conn_1*%
X126809449Y-115895649D02*
X128557535Y-117643735D01*
X126809449Y-115827215D02*
X126809449Y-115895649D01*
X130480495Y-117643735D02*
X132875840Y-115248390D01*
X128557535Y-117643735D02*
X130480495Y-117643735D01*
X137176610Y-118373390D02*
X133750000Y-121800000D01*
X137176610Y-115571512D02*
X137176610Y-118373390D01*
X136853488Y-115248390D02*
X137176610Y-115571512D01*
X132875840Y-115248390D02*
X136853488Y-115248390D01*
%TO.N,/sheet60B815B9/R_sense*%
X134250000Y-116250000D02*
X132444454Y-116250000D01*
X126524344Y-116180769D02*
X126455895Y-116180769D01*
X128390520Y-118046945D02*
X126524344Y-116180769D01*
X130647510Y-118046945D02*
X128390520Y-118046945D01*
X131444454Y-117250000D02*
X132750000Y-117250000D01*
X131097227Y-117597227D02*
X130647510Y-118046945D01*
X131097227Y-117597227D02*
X131444454Y-117250000D01*
X132444454Y-116250000D02*
X131097227Y-117597227D01*
%TO.N,/sheet60B85CD9/conn_3*%
X147573399Y-95726601D02*
X148800000Y-94500000D01*
X129524973Y-114300099D02*
X130574579Y-114300099D01*
X147573399Y-102156377D02*
X147573399Y-95726601D01*
X130574579Y-114300099D02*
X133529497Y-111345180D01*
X133529497Y-111345180D02*
X138384596Y-111345180D01*
X128930769Y-113705895D02*
X129524973Y-114300099D01*
X138384596Y-111345180D02*
X147573399Y-102156377D01*
%TO.N,/sheet60B85CD9/conn_2*%
X128577215Y-114059449D02*
X129361473Y-114843707D01*
X129361473Y-114843707D02*
X130601195Y-114843707D01*
X131605482Y-113839420D02*
X131847451Y-113597451D01*
X130601195Y-114843707D02*
X131847451Y-113597451D01*
X138551610Y-111748390D02*
X148800000Y-101500000D01*
X131847451Y-113597451D02*
X133696512Y-111748390D01*
X133696512Y-111748390D02*
X138551610Y-111748390D01*
%TO.N,/sheet60B85CD9/conn_1*%
X143567630Y-108500000D02*
X148800000Y-108500000D01*
X138028870Y-114038760D02*
X138533815Y-113533815D01*
X132374795Y-114038760D02*
X138028870Y-114038760D01*
X138533815Y-113533815D02*
X143567630Y-108500000D01*
X138122468Y-113945162D02*
X138533815Y-113533815D01*
X131166639Y-115246917D02*
X132374795Y-114038760D01*
X128223662Y-114413002D02*
X129057577Y-115246917D01*
X129057577Y-115246917D02*
X131166639Y-115246917D01*
%TO.N,Net-(R1-Pad1)*%
X132799845Y-118450155D02*
X133750000Y-117500000D01*
X133750000Y-117500000D02*
X135050000Y-117500000D01*
X128018175Y-118450155D02*
X132799845Y-118450155D01*
X135050000Y-117500000D02*
X136300000Y-116250000D01*
X126102342Y-116534322D02*
X128018175Y-118450155D01*
%TO.N,Net-(R2-Pad1)*%
X113250000Y-116250000D02*
X114251610Y-115248390D01*
X119733844Y-115248390D02*
X120922785Y-114059449D01*
X114251610Y-115248390D02*
X119733844Y-115248390D01*
%TD*%
D17*
%TO.N,GND*%
G36*
X99244463Y-89720506D02*
G01*
X99185498Y-89830820D01*
X99149188Y-89950518D01*
X99136928Y-90075000D01*
X99136928Y-91925000D01*
X99149188Y-92049482D01*
X99185498Y-92169180D01*
X99244463Y-92279494D01*
X99323815Y-92376185D01*
X99420506Y-92455537D01*
X99530820Y-92514502D01*
X99650518Y-92550812D01*
X99775000Y-92563072D01*
X101625000Y-92563072D01*
X101749482Y-92550812D01*
X101869180Y-92514502D01*
X101979494Y-92455537D01*
X102076185Y-92376185D01*
X102155537Y-92279494D01*
X102214502Y-92169180D01*
X102250812Y-92049482D01*
X102263072Y-91925000D01*
X102263072Y-90075000D01*
X102250812Y-89950518D01*
X102214502Y-89830820D01*
X102155537Y-89720506D01*
X102126398Y-89685000D01*
X104641491Y-89685000D01*
X104271161Y-90055330D01*
X103851467Y-90683446D01*
X103562377Y-91381372D01*
X103415000Y-92122285D01*
X103415000Y-92877715D01*
X103562377Y-93618628D01*
X103851467Y-94316554D01*
X104271161Y-94944670D01*
X104805330Y-95478839D01*
X105433446Y-95898533D01*
X106131372Y-96187623D01*
X106872285Y-96335000D01*
X107627715Y-96335000D01*
X108368628Y-96187623D01*
X109066554Y-95898533D01*
X109694670Y-95478839D01*
X110228839Y-94944670D01*
X110337587Y-94781917D01*
X111597688Y-94781917D01*
X111684393Y-95038653D01*
X111961223Y-95172048D01*
X112258757Y-95248873D01*
X112565562Y-95266176D01*
X112869848Y-95223292D01*
X113159921Y-95121868D01*
X113315607Y-95038653D01*
X113402312Y-94781917D01*
X112500000Y-93879605D01*
X111597688Y-94781917D01*
X110337587Y-94781917D01*
X110648533Y-94316554D01*
X110937623Y-93618628D01*
X110943887Y-93587139D01*
X110933824Y-93765562D01*
X110976708Y-94069848D01*
X111078132Y-94359921D01*
X111161347Y-94515607D01*
X111418083Y-94602312D01*
X112320395Y-93700000D01*
X112679605Y-93700000D01*
X113581917Y-94602312D01*
X113838653Y-94515607D01*
X113972048Y-94238777D01*
X114048873Y-93941243D01*
X114066176Y-93634438D01*
X114023292Y-93330152D01*
X113921868Y-93040079D01*
X113838653Y-92884393D01*
X113581917Y-92797688D01*
X112679605Y-93700000D01*
X112320395Y-93700000D01*
X111418083Y-92797688D01*
X111161347Y-92884393D01*
X111029067Y-93158909D01*
X111085000Y-92877715D01*
X111085000Y-92618083D01*
X111597688Y-92618083D01*
X112500000Y-93520395D01*
X113402312Y-92618083D01*
X113315607Y-92361347D01*
X113038777Y-92227952D01*
X112741243Y-92151127D01*
X112434438Y-92133824D01*
X112130152Y-92176708D01*
X111840079Y-92278132D01*
X111684393Y-92361347D01*
X111597688Y-92618083D01*
X111085000Y-92618083D01*
X111085000Y-92122285D01*
X110937623Y-91381372D01*
X110648533Y-90683446D01*
X110228839Y-90055330D01*
X109858509Y-89685000D01*
X139641491Y-89685000D01*
X139271161Y-90055330D01*
X138851467Y-90683446D01*
X138562377Y-91381372D01*
X138415000Y-92122285D01*
X138415000Y-92371111D01*
X138376185Y-92323815D01*
X138279494Y-92244463D01*
X138169180Y-92185498D01*
X138049482Y-92149188D01*
X137925000Y-92136928D01*
X136075000Y-92136928D01*
X135950518Y-92149188D01*
X135830820Y-92185498D01*
X135720506Y-92244463D01*
X135623815Y-92323815D01*
X135544463Y-92420506D01*
X135485498Y-92530820D01*
X135449188Y-92650518D01*
X135436928Y-92775000D01*
X135436928Y-94625000D01*
X135449188Y-94749482D01*
X135485498Y-94869180D01*
X135544463Y-94979494D01*
X135623815Y-95076185D01*
X135720506Y-95155537D01*
X135830820Y-95214502D01*
X135950518Y-95250812D01*
X136075000Y-95263072D01*
X136263400Y-95263072D01*
X136263400Y-96515114D01*
X131963201Y-100815314D01*
X131963201Y-93970286D01*
X131999950Y-94155035D01*
X132117546Y-94438937D01*
X132288269Y-94694442D01*
X132505558Y-94911731D01*
X132761063Y-95082454D01*
X133044965Y-95200050D01*
X133346353Y-95260000D01*
X133653647Y-95260000D01*
X133955035Y-95200050D01*
X134238937Y-95082454D01*
X134494442Y-94911731D01*
X134711731Y-94694442D01*
X134882454Y-94438937D01*
X135000050Y-94155035D01*
X135060000Y-93853647D01*
X135060000Y-93546353D01*
X135000050Y-93244965D01*
X134882454Y-92961063D01*
X134711731Y-92705558D01*
X134494442Y-92488269D01*
X134238937Y-92317546D01*
X133955035Y-92199950D01*
X133653647Y-92140000D01*
X133346353Y-92140000D01*
X133044965Y-92199950D01*
X132761063Y-92317546D01*
X132505558Y-92488269D01*
X132288269Y-92705558D01*
X132117546Y-92961063D01*
X131999950Y-93244965D01*
X131963201Y-93429714D01*
X131963201Y-93147417D01*
X131966765Y-93111231D01*
X131952543Y-92966832D01*
X131947779Y-92951127D01*
X131910423Y-92827982D01*
X131842025Y-92700018D01*
X131801401Y-92650518D01*
X131773043Y-92615963D01*
X131773038Y-92615958D01*
X131749975Y-92587856D01*
X131721874Y-92564794D01*
X131135214Y-91978135D01*
X131112144Y-91950024D01*
X130999982Y-91857975D01*
X130872018Y-91789577D01*
X130733168Y-91747457D01*
X130624955Y-91736799D01*
X130624952Y-91736799D01*
X130588769Y-91733235D01*
X130552586Y-91736799D01*
X124262787Y-91736799D01*
X124226601Y-91733235D01*
X124190415Y-91736799D01*
X124082202Y-91747457D01*
X123943352Y-91789577D01*
X123815388Y-91857975D01*
X123703226Y-91950024D01*
X123680160Y-91978130D01*
X123457372Y-92200918D01*
X123455035Y-92199950D01*
X123153647Y-92140000D01*
X122846353Y-92140000D01*
X122544965Y-92199950D01*
X122261063Y-92317546D01*
X122005558Y-92488269D01*
X121788269Y-92705558D01*
X121617546Y-92961063D01*
X121499950Y-93244965D01*
X121482508Y-93332652D01*
X121354593Y-93204737D01*
X121331522Y-93176625D01*
X121219360Y-93084576D01*
X121091396Y-93016178D01*
X120952546Y-92974058D01*
X120885085Y-92967414D01*
X120882454Y-92961063D01*
X120711731Y-92705558D01*
X120494442Y-92488269D01*
X120238937Y-92317546D01*
X119955035Y-92199950D01*
X119653647Y-92140000D01*
X119346353Y-92140000D01*
X119044965Y-92199950D01*
X118761063Y-92317546D01*
X118505558Y-92488269D01*
X118288269Y-92705558D01*
X118117546Y-92961063D01*
X117999950Y-93244965D01*
X117940000Y-93546353D01*
X117940000Y-93853647D01*
X117999950Y-94155035D01*
X118117546Y-94438937D01*
X118288269Y-94694442D01*
X118505558Y-94911731D01*
X118761063Y-95082454D01*
X119044965Y-95200050D01*
X119346353Y-95260000D01*
X119653647Y-95260000D01*
X119955035Y-95200050D01*
X120238937Y-95082454D01*
X120494442Y-94911731D01*
X120711731Y-94694442D01*
X120731417Y-94664979D01*
X128671094Y-102604656D01*
X128627000Y-102648750D01*
X128627000Y-103573000D01*
X128647000Y-103573000D01*
X128647000Y-103827000D01*
X128627000Y-103827000D01*
X128627000Y-103847000D01*
X128373000Y-103847000D01*
X128373000Y-103827000D01*
X127323750Y-103827000D01*
X127165000Y-103985750D01*
X127161928Y-104275000D01*
X127174188Y-104399482D01*
X127210498Y-104519180D01*
X127269463Y-104629494D01*
X127348815Y-104726185D01*
X127428594Y-104791658D01*
X127422038Y-104797038D01*
X127311595Y-104931613D01*
X127229528Y-105085149D01*
X127178992Y-105251745D01*
X127166840Y-105375130D01*
X126657215Y-104865506D01*
X126702962Y-104827962D01*
X126813405Y-104693387D01*
X126895472Y-104539851D01*
X126946008Y-104373255D01*
X126963072Y-104200001D01*
X126963072Y-103299999D01*
X126946008Y-103126745D01*
X126945479Y-103125000D01*
X127161928Y-103125000D01*
X127165000Y-103414250D01*
X127323750Y-103573000D01*
X128373000Y-103573000D01*
X128373000Y-102648750D01*
X128214250Y-102490000D01*
X127800000Y-102486928D01*
X127675518Y-102499188D01*
X127555820Y-102535498D01*
X127445506Y-102594463D01*
X127348815Y-102673815D01*
X127269463Y-102770506D01*
X127210498Y-102880820D01*
X127174188Y-103000518D01*
X127161928Y-103125000D01*
X126945479Y-103125000D01*
X126895472Y-102960149D01*
X126813405Y-102806613D01*
X126702962Y-102672038D01*
X126568387Y-102561595D01*
X126414851Y-102479528D01*
X126248255Y-102428992D01*
X126075001Y-102411928D01*
X125424999Y-102411928D01*
X125251745Y-102428992D01*
X125085149Y-102479528D01*
X124931613Y-102561595D01*
X124797038Y-102672038D01*
X124725000Y-102759816D01*
X124652962Y-102672038D01*
X124518387Y-102561595D01*
X124364851Y-102479528D01*
X124198255Y-102428992D01*
X124025001Y-102411928D01*
X123374999Y-102411928D01*
X123201745Y-102428992D01*
X123035149Y-102479528D01*
X122881613Y-102561595D01*
X122747038Y-102672038D01*
X122636595Y-102806613D01*
X122554528Y-102960149D01*
X122503992Y-103126745D01*
X122486928Y-103299999D01*
X122486928Y-104200001D01*
X122503992Y-104373255D01*
X122554528Y-104539851D01*
X122636595Y-104693387D01*
X122747038Y-104827962D01*
X122881613Y-104938405D01*
X122963401Y-104982122D01*
X122963401Y-105027143D01*
X122959836Y-105063336D01*
X122974059Y-105207734D01*
X123016178Y-105346583D01*
X123084576Y-105474548D01*
X123146276Y-105549729D01*
X123176626Y-105586711D01*
X123204732Y-105609777D01*
X123453856Y-105858901D01*
X123345386Y-105846567D01*
X123220735Y-105856953D01*
X123100504Y-105891458D01*
X122989315Y-105948756D01*
X122952236Y-105978546D01*
X121883755Y-104910066D01*
X121860685Y-104881955D01*
X121748523Y-104789906D01*
X121620559Y-104721508D01*
X121481709Y-104679388D01*
X121373496Y-104668730D01*
X121373493Y-104668730D01*
X121337310Y-104665166D01*
X121301127Y-104668730D01*
X119959279Y-104668730D01*
X119923096Y-104665166D01*
X119886913Y-104668730D01*
X118545067Y-104668730D01*
X118508884Y-104665166D01*
X118472701Y-104668730D01*
X117399780Y-104668730D01*
X116824122Y-104093072D01*
X117550000Y-104093072D01*
X117703745Y-104077929D01*
X117851582Y-104033084D01*
X117987829Y-103960258D01*
X118107251Y-103862251D01*
X118205258Y-103742829D01*
X118278084Y-103606582D01*
X118322929Y-103458745D01*
X118338072Y-103305000D01*
X118338072Y-103005000D01*
X118325268Y-102875000D01*
X119161928Y-102875000D01*
X119174188Y-102999482D01*
X119210498Y-103119180D01*
X119269463Y-103229494D01*
X119348815Y-103326185D01*
X119445506Y-103405537D01*
X119555820Y-103464502D01*
X119675518Y-103500812D01*
X119800000Y-103513072D01*
X120214250Y-103510000D01*
X120373000Y-103351250D01*
X120373000Y-102427000D01*
X120627000Y-102427000D01*
X120627000Y-103351250D01*
X120785750Y-103510000D01*
X121200000Y-103513072D01*
X121324482Y-103500812D01*
X121444180Y-103464502D01*
X121554494Y-103405537D01*
X121651185Y-103326185D01*
X121730537Y-103229494D01*
X121789502Y-103119180D01*
X121825812Y-102999482D01*
X121838072Y-102875000D01*
X121835000Y-102585750D01*
X121676250Y-102427000D01*
X120627000Y-102427000D01*
X120373000Y-102427000D01*
X119323750Y-102427000D01*
X119165000Y-102585750D01*
X119161928Y-102875000D01*
X118325268Y-102875000D01*
X118322929Y-102851255D01*
X118278084Y-102703418D01*
X118206270Y-102569064D01*
X118230537Y-102539494D01*
X118289502Y-102429180D01*
X118325812Y-102309482D01*
X118338072Y-102185000D01*
X118335000Y-102170750D01*
X118176250Y-102012000D01*
X116852000Y-102012000D01*
X116852000Y-102032000D01*
X116598000Y-102032000D01*
X116598000Y-102012000D01*
X116578000Y-102012000D01*
X116578000Y-101758000D01*
X116598000Y-101758000D01*
X116598000Y-100742000D01*
X116852000Y-100742000D01*
X116852000Y-101758000D01*
X118176250Y-101758000D01*
X118335000Y-101599250D01*
X118338072Y-101585000D01*
X118325812Y-101460518D01*
X118289502Y-101340820D01*
X118240957Y-101250000D01*
X118289502Y-101159180D01*
X118325812Y-101039482D01*
X118338072Y-100915000D01*
X118335000Y-100900750D01*
X118176250Y-100742000D01*
X116852000Y-100742000D01*
X116598000Y-100742000D01*
X116578000Y-100742000D01*
X116578000Y-100488000D01*
X116598000Y-100488000D01*
X116598000Y-100468000D01*
X116852000Y-100468000D01*
X116852000Y-100488000D01*
X118176250Y-100488000D01*
X118311270Y-100352980D01*
X118703557Y-100745267D01*
X118726625Y-100773375D01*
X118838787Y-100865424D01*
X118966751Y-100933822D01*
X119105601Y-100975942D01*
X119213814Y-100986600D01*
X119213823Y-100986600D01*
X119249999Y-100990163D01*
X119268794Y-100988312D01*
X119311595Y-101068387D01*
X119422038Y-101202962D01*
X119428594Y-101208342D01*
X119348815Y-101273815D01*
X119269463Y-101370506D01*
X119210498Y-101480820D01*
X119174188Y-101600518D01*
X119161928Y-101725000D01*
X119165000Y-102014250D01*
X119323750Y-102173000D01*
X120373000Y-102173000D01*
X120373000Y-102153000D01*
X120627000Y-102153000D01*
X120627000Y-102173000D01*
X121676250Y-102173000D01*
X121835000Y-102014250D01*
X121838072Y-101725000D01*
X121825812Y-101600518D01*
X121789502Y-101480820D01*
X121730537Y-101370506D01*
X121651185Y-101273815D01*
X121571406Y-101208342D01*
X121577962Y-101202962D01*
X121688405Y-101068387D01*
X121770472Y-100914851D01*
X121821008Y-100748255D01*
X121838072Y-100575001D01*
X121838072Y-99924999D01*
X121821008Y-99751745D01*
X121770472Y-99585149D01*
X121688405Y-99431613D01*
X121577962Y-99297038D01*
X121443387Y-99186595D01*
X121289851Y-99104528D01*
X121123255Y-99053992D01*
X120950001Y-99036928D01*
X120049999Y-99036928D01*
X119876745Y-99053992D01*
X119710149Y-99104528D01*
X119556613Y-99186595D01*
X119422038Y-99297038D01*
X119384494Y-99342785D01*
X118891445Y-98849736D01*
X118868375Y-98821625D01*
X118756213Y-98729576D01*
X118628249Y-98661178D01*
X118489399Y-98619058D01*
X118381186Y-98608400D01*
X118381183Y-98608400D01*
X118345000Y-98604836D01*
X118308817Y-98608400D01*
X118071489Y-98608400D01*
X117987829Y-98539742D01*
X117851582Y-98466916D01*
X117703745Y-98422071D01*
X117550000Y-98406928D01*
X117461600Y-98406928D01*
X117461600Y-97511186D01*
X117465164Y-97475000D01*
X117450942Y-97330601D01*
X117433790Y-97274059D01*
X117408822Y-97191751D01*
X117340424Y-97063787D01*
X117315361Y-97033248D01*
X117271442Y-96979732D01*
X117271441Y-96979731D01*
X117248375Y-96951625D01*
X117220269Y-96928559D01*
X116736600Y-96444891D01*
X116736600Y-95083422D01*
X116738937Y-95082454D01*
X116994442Y-94911731D01*
X117211731Y-94694442D01*
X117382454Y-94438937D01*
X117500050Y-94155035D01*
X117560000Y-93853647D01*
X117560000Y-93546353D01*
X117500050Y-93244965D01*
X117382454Y-92961063D01*
X117211731Y-92705558D01*
X116994442Y-92488269D01*
X116738937Y-92317546D01*
X116455035Y-92199950D01*
X116153647Y-92140000D01*
X115846353Y-92140000D01*
X115544965Y-92199950D01*
X115261063Y-92317546D01*
X115005558Y-92488269D01*
X114788269Y-92705558D01*
X114617546Y-92961063D01*
X114499950Y-93244965D01*
X114440000Y-93546353D01*
X114440000Y-93853647D01*
X114499950Y-94155035D01*
X114617546Y-94438937D01*
X114788269Y-94694442D01*
X115005558Y-94911731D01*
X115261063Y-95082454D01*
X115263401Y-95083422D01*
X115263400Y-96713817D01*
X115259836Y-96750000D01*
X115263400Y-96786183D01*
X115263400Y-96786185D01*
X115274058Y-96894398D01*
X115316178Y-97033248D01*
X115353714Y-97103473D01*
X115384576Y-97161212D01*
X115409640Y-97191752D01*
X115476625Y-97273374D01*
X115504732Y-97296441D01*
X115988401Y-97780111D01*
X115988401Y-98406928D01*
X115900000Y-98406928D01*
X115746255Y-98422071D01*
X115598418Y-98466916D01*
X115462171Y-98539742D01*
X115342749Y-98637749D01*
X115244742Y-98757171D01*
X115171916Y-98893418D01*
X115127071Y-99041255D01*
X115111928Y-99195000D01*
X115111928Y-99495000D01*
X115127071Y-99648745D01*
X115171916Y-99796582D01*
X115243730Y-99930936D01*
X115219463Y-99960506D01*
X115160498Y-100070820D01*
X115140702Y-100136079D01*
X115115424Y-100088787D01*
X115100679Y-100070820D01*
X115046442Y-100004732D01*
X115046437Y-100004727D01*
X115023374Y-99976625D01*
X114995273Y-99953563D01*
X113891445Y-98849736D01*
X113868375Y-98821625D01*
X113756213Y-98729576D01*
X113628249Y-98661178D01*
X113489399Y-98619058D01*
X113381186Y-98608400D01*
X113381183Y-98608400D01*
X113345000Y-98604836D01*
X113308817Y-98608400D01*
X113121489Y-98608400D01*
X113037829Y-98539742D01*
X112901582Y-98466916D01*
X112753745Y-98422071D01*
X112600000Y-98406928D01*
X110950000Y-98406928D01*
X110796255Y-98422071D01*
X110648418Y-98466916D01*
X110512171Y-98539742D01*
X110428511Y-98608400D01*
X109941175Y-98608400D01*
X109904999Y-98604837D01*
X109868823Y-98608400D01*
X109868814Y-98608400D01*
X109760601Y-98619058D01*
X109621751Y-98661178D01*
X109493787Y-98729576D01*
X109381625Y-98821625D01*
X109358550Y-98849742D01*
X109210640Y-98997652D01*
X109195472Y-98947650D01*
X109113405Y-98794114D01*
X109002962Y-98659538D01*
X108868386Y-98549095D01*
X108714850Y-98467028D01*
X108548254Y-98416492D01*
X108375000Y-98399428D01*
X107125000Y-98399428D01*
X106951746Y-98416492D01*
X106785150Y-98467028D01*
X106631614Y-98549095D01*
X106497038Y-98659538D01*
X106386595Y-98794114D01*
X106304528Y-98947650D01*
X106253992Y-99114246D01*
X106236928Y-99287500D01*
X106236928Y-100212500D01*
X106253992Y-100385754D01*
X106304528Y-100552350D01*
X106386595Y-100705886D01*
X106497038Y-100840462D01*
X106631614Y-100950905D01*
X106785150Y-101032972D01*
X106951746Y-101083508D01*
X107125000Y-101100572D01*
X108375000Y-101100572D01*
X108548254Y-101083508D01*
X108714850Y-101032972D01*
X108868386Y-100950905D01*
X108912136Y-100915000D01*
X110161928Y-100915000D01*
X110174188Y-101039482D01*
X110210498Y-101159180D01*
X110259043Y-101250000D01*
X110210498Y-101340820D01*
X110174188Y-101460518D01*
X110161928Y-101585000D01*
X110165000Y-101599250D01*
X110323750Y-101758000D01*
X111648000Y-101758000D01*
X111648000Y-100742000D01*
X111902000Y-100742000D01*
X111902000Y-101758000D01*
X113226250Y-101758000D01*
X113385000Y-101599250D01*
X113388072Y-101585000D01*
X113375812Y-101460518D01*
X113339502Y-101340820D01*
X113290957Y-101250000D01*
X113339502Y-101159180D01*
X113375812Y-101039482D01*
X113388072Y-100915000D01*
X113385000Y-100900750D01*
X113226250Y-100742000D01*
X111902000Y-100742000D01*
X111648000Y-100742000D01*
X110323750Y-100742000D01*
X110165000Y-100900750D01*
X110161928Y-100915000D01*
X108912136Y-100915000D01*
X109002962Y-100840462D01*
X109113405Y-100705886D01*
X109195472Y-100552350D01*
X109215417Y-100486600D01*
X109463817Y-100486600D01*
X109500000Y-100490164D01*
X109536183Y-100486600D01*
X109536186Y-100486600D01*
X109644399Y-100475942D01*
X109783249Y-100433822D01*
X109911213Y-100365424D01*
X110023375Y-100273375D01*
X110046446Y-100245263D01*
X110205974Y-100085735D01*
X110174188Y-100190518D01*
X110161928Y-100315000D01*
X110165000Y-100329250D01*
X110323750Y-100488000D01*
X111648000Y-100488000D01*
X111648000Y-100468000D01*
X111902000Y-100468000D01*
X111902000Y-100488000D01*
X113226250Y-100488000D01*
X113336270Y-100377980D01*
X113763400Y-100805110D01*
X113763401Y-102774467D01*
X113759836Y-102810660D01*
X113774059Y-102955058D01*
X113816178Y-103093907D01*
X113884576Y-103221872D01*
X113952798Y-103305000D01*
X113976626Y-103334035D01*
X114004732Y-103357101D01*
X116548227Y-105900597D01*
X116571295Y-105928705D01*
X116599401Y-105951771D01*
X116599402Y-105951772D01*
X116599408Y-105951777D01*
X119789206Y-109141576D01*
X119772322Y-109162592D01*
X119364465Y-108754736D01*
X119341395Y-108726625D01*
X119229233Y-108634576D01*
X119101269Y-108566178D01*
X118962419Y-108524058D01*
X118854206Y-108513400D01*
X118854203Y-108513400D01*
X118818020Y-108509836D01*
X118781837Y-108513400D01*
X116350625Y-108513400D01*
X116334472Y-108460149D01*
X116252405Y-108306613D01*
X116141962Y-108172038D01*
X116007387Y-108061595D01*
X115853851Y-107979528D01*
X115687255Y-107928992D01*
X115514001Y-107911928D01*
X114863999Y-107911928D01*
X114690745Y-107928992D01*
X114524149Y-107979528D01*
X114370613Y-108061595D01*
X114236038Y-108172038D01*
X114230658Y-108178594D01*
X114165185Y-108098815D01*
X114068494Y-108019463D01*
X113958180Y-107960498D01*
X113838482Y-107924188D01*
X113714000Y-107911928D01*
X113424750Y-107915000D01*
X113266000Y-108073750D01*
X113266000Y-109123000D01*
X113286000Y-109123000D01*
X113286000Y-109377000D01*
X113266000Y-109377000D01*
X113266000Y-110426250D01*
X113424750Y-110585000D01*
X113714000Y-110588072D01*
X113838482Y-110575812D01*
X113958180Y-110539502D01*
X114068494Y-110480537D01*
X114165185Y-110401185D01*
X114230658Y-110321406D01*
X114236038Y-110327962D01*
X114370613Y-110438405D01*
X114524149Y-110520472D01*
X114690745Y-110571008D01*
X114863999Y-110588072D01*
X115514001Y-110588072D01*
X115687255Y-110571008D01*
X115853851Y-110520472D01*
X116007387Y-110438405D01*
X116141962Y-110327962D01*
X116252405Y-110193387D01*
X116334472Y-110039851D01*
X116350625Y-109986600D01*
X118512911Y-109986600D01*
X118728547Y-110202236D01*
X118698756Y-110239315D01*
X118641458Y-110350504D01*
X118606953Y-110470735D01*
X118596567Y-110595386D01*
X118610699Y-110719670D01*
X118648806Y-110838809D01*
X118709423Y-110948223D01*
X118790221Y-111043709D01*
X119104989Y-111354235D01*
X119329496Y-111354235D01*
X119568625Y-111115107D01*
X119748230Y-111294712D01*
X119509101Y-111533840D01*
X119509101Y-111758347D01*
X119746957Y-111999453D01*
X119725524Y-112020886D01*
X119649522Y-112013400D01*
X119649519Y-112013400D01*
X119613336Y-112009836D01*
X119577153Y-112013400D01*
X117992403Y-112013400D01*
X117956220Y-112009836D01*
X117920037Y-112013400D01*
X116461625Y-112013400D01*
X116445472Y-111960149D01*
X116363405Y-111806613D01*
X116252962Y-111672038D01*
X116118387Y-111561595D01*
X115964851Y-111479528D01*
X115798255Y-111428992D01*
X115625001Y-111411928D01*
X114974999Y-111411928D01*
X114801745Y-111428992D01*
X114635149Y-111479528D01*
X114481613Y-111561595D01*
X114347038Y-111672038D01*
X114341658Y-111678594D01*
X114276185Y-111598815D01*
X114179494Y-111519463D01*
X114069180Y-111460498D01*
X113949482Y-111424188D01*
X113825000Y-111411928D01*
X113535750Y-111415000D01*
X113377000Y-111573750D01*
X113377000Y-112623000D01*
X113397000Y-112623000D01*
X113397000Y-112877000D01*
X113377000Y-112877000D01*
X113377000Y-113926250D01*
X113535750Y-114085000D01*
X113825000Y-114088072D01*
X113949482Y-114075812D01*
X114069180Y-114039502D01*
X114179494Y-113980537D01*
X114276185Y-113901185D01*
X114341658Y-113821406D01*
X114347038Y-113827962D01*
X114481613Y-113938405D01*
X114635149Y-114020472D01*
X114801745Y-114071008D01*
X114974999Y-114088072D01*
X115625001Y-114088072D01*
X115798255Y-114071008D01*
X115964851Y-114020472D01*
X116118387Y-113938405D01*
X116252962Y-113827962D01*
X116363405Y-113693387D01*
X116445472Y-113539851D01*
X116461625Y-113486600D01*
X117651111Y-113486600D01*
X118556664Y-114392153D01*
X118579735Y-114420265D01*
X118691259Y-114511790D01*
X114287785Y-114511790D01*
X114251609Y-114508227D01*
X114215433Y-114511790D01*
X114215424Y-114511790D01*
X114107211Y-114522448D01*
X113968361Y-114564568D01*
X113840397Y-114632966D01*
X113728235Y-114725015D01*
X113705164Y-114753127D01*
X113546363Y-114911928D01*
X113109990Y-114911928D01*
X113109990Y-113939260D01*
X113123000Y-113926250D01*
X113123000Y-112877000D01*
X113103000Y-112877000D01*
X113103000Y-112623000D01*
X113123000Y-112623000D01*
X113123000Y-111573750D01*
X112964250Y-111415000D01*
X112675000Y-111411928D01*
X112550518Y-111424188D01*
X112430820Y-111460498D01*
X112320506Y-111519463D01*
X112223815Y-111598815D01*
X112144463Y-111695506D01*
X112085498Y-111805820D01*
X112049188Y-111925518D01*
X112036928Y-112050000D01*
X112039710Y-112425181D01*
X109564529Y-109950000D01*
X111925928Y-109950000D01*
X111938188Y-110074482D01*
X111974498Y-110194180D01*
X112033463Y-110304494D01*
X112112815Y-110401185D01*
X112209506Y-110480537D01*
X112319820Y-110539502D01*
X112439518Y-110575812D01*
X112564000Y-110588072D01*
X112853250Y-110585000D01*
X113012000Y-110426250D01*
X113012000Y-109377000D01*
X112087750Y-109377000D01*
X111929000Y-109535750D01*
X111925928Y-109950000D01*
X109564529Y-109950000D01*
X108164529Y-108550000D01*
X111925928Y-108550000D01*
X111929000Y-108964250D01*
X112087750Y-109123000D01*
X113012000Y-109123000D01*
X113012000Y-108073750D01*
X112853250Y-107915000D01*
X112564000Y-107911928D01*
X112439518Y-107924188D01*
X112319820Y-107960498D01*
X112209506Y-108019463D01*
X112112815Y-108098815D01*
X112033463Y-108195506D01*
X111974498Y-108305820D01*
X111938188Y-108425518D01*
X111925928Y-108550000D01*
X108164529Y-108550000D01*
X103052029Y-103437500D01*
X106236928Y-103437500D01*
X106249188Y-103561982D01*
X106285498Y-103681680D01*
X106344463Y-103791994D01*
X106423815Y-103888685D01*
X106520506Y-103968037D01*
X106630820Y-104027002D01*
X106750518Y-104063312D01*
X106875000Y-104075572D01*
X107464250Y-104072500D01*
X107623000Y-103913750D01*
X107623000Y-102852000D01*
X107877000Y-102852000D01*
X107877000Y-103913750D01*
X108035750Y-104072500D01*
X108625000Y-104075572D01*
X108749482Y-104063312D01*
X108869180Y-104027002D01*
X108979494Y-103968037D01*
X109076185Y-103888685D01*
X109155537Y-103791994D01*
X109214502Y-103681680D01*
X109250812Y-103561982D01*
X109263072Y-103437500D01*
X109260000Y-103010750D01*
X109101250Y-102852000D01*
X107877000Y-102852000D01*
X107623000Y-102852000D01*
X106398750Y-102852000D01*
X106240000Y-103010750D01*
X106236928Y-103437500D01*
X103052029Y-103437500D01*
X102663201Y-103048673D01*
X102663201Y-102012500D01*
X106236928Y-102012500D01*
X106240000Y-102439250D01*
X106398750Y-102598000D01*
X107623000Y-102598000D01*
X107623000Y-101536250D01*
X107877000Y-101536250D01*
X107877000Y-102598000D01*
X109101250Y-102598000D01*
X109260000Y-102439250D01*
X109261830Y-102185000D01*
X110161928Y-102185000D01*
X110174188Y-102309482D01*
X110210498Y-102429180D01*
X110269463Y-102539494D01*
X110293730Y-102569064D01*
X110221916Y-102703418D01*
X110177071Y-102851255D01*
X110161928Y-103005000D01*
X110161928Y-103305000D01*
X110177071Y-103458745D01*
X110221916Y-103606582D01*
X110294742Y-103742829D01*
X110392749Y-103862251D01*
X110512171Y-103960258D01*
X110648418Y-104033084D01*
X110796255Y-104077929D01*
X110950000Y-104093072D01*
X112600000Y-104093072D01*
X112753745Y-104077929D01*
X112901582Y-104033084D01*
X113037829Y-103960258D01*
X113157251Y-103862251D01*
X113255258Y-103742829D01*
X113328084Y-103606582D01*
X113372929Y-103458745D01*
X113388072Y-103305000D01*
X113388072Y-103005000D01*
X113372929Y-102851255D01*
X113328084Y-102703418D01*
X113256270Y-102569064D01*
X113280537Y-102539494D01*
X113339502Y-102429180D01*
X113375812Y-102309482D01*
X113388072Y-102185000D01*
X113385000Y-102170750D01*
X113226250Y-102012000D01*
X111902000Y-102012000D01*
X111902000Y-102032000D01*
X111648000Y-102032000D01*
X111648000Y-102012000D01*
X110323750Y-102012000D01*
X110165000Y-102170750D01*
X110161928Y-102185000D01*
X109261830Y-102185000D01*
X109263072Y-102012500D01*
X109250812Y-101888018D01*
X109214502Y-101768320D01*
X109155537Y-101658006D01*
X109076185Y-101561315D01*
X108979494Y-101481963D01*
X108869180Y-101422998D01*
X108749482Y-101386688D01*
X108625000Y-101374428D01*
X108035750Y-101377500D01*
X107877000Y-101536250D01*
X107623000Y-101536250D01*
X107464250Y-101377500D01*
X106875000Y-101374428D01*
X106750518Y-101386688D01*
X106630820Y-101422998D01*
X106520506Y-101481963D01*
X106423815Y-101561315D01*
X106344463Y-101658006D01*
X106285498Y-101768320D01*
X106249188Y-101888018D01*
X106236928Y-102012500D01*
X102663201Y-102012500D01*
X102663201Y-99262787D01*
X102666765Y-99226601D01*
X102652543Y-99082202D01*
X102646339Y-99061751D01*
X102610423Y-98943352D01*
X102542025Y-98815388D01*
X102494248Y-98757171D01*
X102473043Y-98731333D01*
X102473042Y-98731332D01*
X102449976Y-98703226D01*
X102421870Y-98680160D01*
X102199082Y-98457372D01*
X102200050Y-98455035D01*
X102260000Y-98153647D01*
X102260000Y-97846353D01*
X102200050Y-97544965D01*
X102082454Y-97261063D01*
X101911731Y-97005558D01*
X101694442Y-96788269D01*
X101438937Y-96617546D01*
X101155035Y-96499950D01*
X100853647Y-96440000D01*
X100546353Y-96440000D01*
X100244965Y-96499950D01*
X99961063Y-96617546D01*
X99705558Y-96788269D01*
X99488269Y-97005558D01*
X99317546Y-97261063D01*
X99199950Y-97544965D01*
X99140000Y-97846353D01*
X99140000Y-98153647D01*
X99199950Y-98455035D01*
X99317546Y-98738937D01*
X99488269Y-98994442D01*
X99705558Y-99211731D01*
X99961063Y-99382454D01*
X100244965Y-99500050D01*
X100546353Y-99560000D01*
X100853647Y-99560000D01*
X101155035Y-99500050D01*
X101157372Y-99499082D01*
X101190002Y-99531712D01*
X101190002Y-100015358D01*
X100941243Y-99951127D01*
X100634438Y-99933824D01*
X100330152Y-99976708D01*
X100040079Y-100078132D01*
X99884393Y-100161347D01*
X99797688Y-100418083D01*
X100700000Y-101320395D01*
X100714143Y-101306253D01*
X100893748Y-101485858D01*
X100879605Y-101500000D01*
X100893748Y-101514143D01*
X100714143Y-101693748D01*
X100700000Y-101679605D01*
X100685858Y-101693748D01*
X100506253Y-101514143D01*
X100520395Y-101500000D01*
X100095991Y-101075596D01*
X100088823Y-101062186D01*
X99996774Y-100950024D01*
X99968662Y-100926953D01*
X99266000Y-100224291D01*
X99266000Y-100149933D01*
X99226956Y-99953644D01*
X99150368Y-99768744D01*
X99039179Y-99602338D01*
X98897662Y-99460821D01*
X98731256Y-99349632D01*
X98546356Y-99273044D01*
X98350067Y-99234000D01*
X98149933Y-99234000D01*
X97953644Y-99273044D01*
X97768744Y-99349632D01*
X97602338Y-99460821D01*
X97460821Y-99602338D01*
X97349632Y-99768744D01*
X97273044Y-99953644D01*
X97234000Y-100149933D01*
X97234000Y-100350067D01*
X97273044Y-100546356D01*
X97349632Y-100731256D01*
X97460821Y-100897662D01*
X97602338Y-101039179D01*
X97768744Y-101150368D01*
X97953644Y-101226956D01*
X98149933Y-101266000D01*
X98224291Y-101266000D01*
X98736800Y-101778509D01*
X98736799Y-116052586D01*
X98733235Y-116088769D01*
X98736799Y-116124952D01*
X98736799Y-116124954D01*
X98747457Y-116233167D01*
X98789577Y-116372017D01*
X98843260Y-116472451D01*
X98857975Y-116499981D01*
X98904526Y-116556703D01*
X98950024Y-116612143D01*
X98978131Y-116635210D01*
X102588189Y-120245269D01*
X102611255Y-120273375D01*
X102723417Y-120365424D01*
X102851381Y-120433822D01*
X102916043Y-120453437D01*
X102990231Y-120475942D01*
X103134630Y-120490164D01*
X103170816Y-120486600D01*
X104407716Y-120486600D01*
X104255558Y-120588269D01*
X104038269Y-120805558D01*
X103867546Y-121061063D01*
X103749950Y-121344965D01*
X103690000Y-121646353D01*
X103690000Y-121953647D01*
X103749950Y-122255035D01*
X103867546Y-122538937D01*
X104038269Y-122794442D01*
X104255558Y-123011731D01*
X104511063Y-123182454D01*
X104794965Y-123300050D01*
X105096353Y-123360000D01*
X105403647Y-123360000D01*
X105705035Y-123300050D01*
X105988937Y-123182454D01*
X106244442Y-123011731D01*
X106461731Y-122794442D01*
X106632454Y-122538937D01*
X106750050Y-122255035D01*
X106810000Y-121953647D01*
X106810000Y-121646353D01*
X106750050Y-121344965D01*
X106749082Y-121342628D01*
X107184921Y-120906789D01*
X107641135Y-120906789D01*
X107411347Y-120984393D01*
X107277952Y-121261223D01*
X107201127Y-121558757D01*
X107183824Y-121865562D01*
X107226708Y-122169848D01*
X107328132Y-122459921D01*
X107411347Y-122615607D01*
X107668083Y-122702312D01*
X108570395Y-121800000D01*
X108556253Y-121785858D01*
X108735858Y-121606253D01*
X108750000Y-121620395D01*
X108764143Y-121606253D01*
X108943748Y-121785858D01*
X108929605Y-121800000D01*
X108943748Y-121814143D01*
X108764143Y-121993748D01*
X108750000Y-121979605D01*
X108325596Y-122404009D01*
X108312186Y-122411177D01*
X108200024Y-122503226D01*
X108176953Y-122531338D01*
X107474291Y-123234000D01*
X107399933Y-123234000D01*
X107203644Y-123273044D01*
X107018744Y-123349632D01*
X106852338Y-123460821D01*
X106710821Y-123602338D01*
X106599632Y-123768744D01*
X106523044Y-123953644D01*
X106484000Y-124149933D01*
X106484000Y-124350067D01*
X106523044Y-124546356D01*
X106599632Y-124731256D01*
X106710821Y-124897662D01*
X106852338Y-125039179D01*
X107018744Y-125150368D01*
X107203644Y-125226956D01*
X107399933Y-125266000D01*
X107600067Y-125266000D01*
X107796356Y-125226956D01*
X107981256Y-125150368D01*
X108147662Y-125039179D01*
X108289179Y-124897662D01*
X108400368Y-124731256D01*
X108476956Y-124546356D01*
X108516000Y-124350067D01*
X108516000Y-124275709D01*
X109028508Y-123763201D01*
X120437216Y-123763201D01*
X120473399Y-123766765D01*
X120509582Y-123763201D01*
X120509585Y-123763201D01*
X120617798Y-123752543D01*
X120756648Y-123710423D01*
X120884612Y-123642025D01*
X120996774Y-123549976D01*
X121019844Y-123521865D01*
X121659792Y-122881917D01*
X121847688Y-122881917D01*
X121934393Y-123138653D01*
X122211223Y-123272048D01*
X122508757Y-123348873D01*
X122815562Y-123366176D01*
X123119848Y-123323292D01*
X123409921Y-123221868D01*
X123565607Y-123138653D01*
X123652312Y-122881917D01*
X122750000Y-121979605D01*
X121847688Y-122881917D01*
X121659792Y-122881917D01*
X121745269Y-122796441D01*
X121773375Y-122773375D01*
X121865424Y-122661213D01*
X121933822Y-122533249D01*
X121975918Y-122394477D01*
X122570395Y-121800000D01*
X122929605Y-121800000D01*
X123831917Y-122702312D01*
X124088653Y-122615607D01*
X124222048Y-122338777D01*
X124298873Y-122041243D01*
X124316176Y-121734438D01*
X124273292Y-121430152D01*
X124171868Y-121140079D01*
X124088653Y-120984393D01*
X123831917Y-120897688D01*
X122929605Y-121800000D01*
X122570395Y-121800000D01*
X122556253Y-121785858D01*
X122735858Y-121606253D01*
X122750000Y-121620395D01*
X123495395Y-120875000D01*
X125186928Y-120875000D01*
X125186928Y-122725000D01*
X125199188Y-122849482D01*
X125235498Y-122969180D01*
X125294463Y-123079494D01*
X125373815Y-123176185D01*
X125470506Y-123255537D01*
X125580820Y-123314502D01*
X125700518Y-123350812D01*
X125825000Y-123363072D01*
X127675000Y-123363072D01*
X127799482Y-123350812D01*
X127919180Y-123314502D01*
X128029494Y-123255537D01*
X128126185Y-123176185D01*
X128205537Y-123079494D01*
X128264502Y-122969180D01*
X128290972Y-122881917D01*
X129347688Y-122881917D01*
X129434393Y-123138653D01*
X129711223Y-123272048D01*
X130008757Y-123348873D01*
X130315562Y-123366176D01*
X130619848Y-123323292D01*
X130909921Y-123221868D01*
X131065607Y-123138653D01*
X131152312Y-122881917D01*
X130250000Y-121979605D01*
X129347688Y-122881917D01*
X128290972Y-122881917D01*
X128300812Y-122849482D01*
X128313072Y-122725000D01*
X128313072Y-121865562D01*
X128683824Y-121865562D01*
X128726708Y-122169848D01*
X128828132Y-122459921D01*
X128911347Y-122615607D01*
X129168083Y-122702312D01*
X130070395Y-121800000D01*
X130429605Y-121800000D01*
X131331917Y-122702312D01*
X131588653Y-122615607D01*
X131722048Y-122338777D01*
X131798873Y-122041243D01*
X131816176Y-121734438D01*
X131773292Y-121430152D01*
X131671868Y-121140079D01*
X131588653Y-120984393D01*
X131331917Y-120897688D01*
X130429605Y-121800000D01*
X130070395Y-121800000D01*
X129168083Y-120897688D01*
X128911347Y-120984393D01*
X128777952Y-121261223D01*
X128701127Y-121558757D01*
X128683824Y-121865562D01*
X128313072Y-121865562D01*
X128313072Y-120875000D01*
X128300812Y-120750518D01*
X128290973Y-120718083D01*
X129347688Y-120718083D01*
X130250000Y-121620395D01*
X131152312Y-120718083D01*
X131065607Y-120461347D01*
X130788777Y-120327952D01*
X130491243Y-120251127D01*
X130184438Y-120233824D01*
X129880152Y-120276708D01*
X129590079Y-120378132D01*
X129434393Y-120461347D01*
X129347688Y-120718083D01*
X128290973Y-120718083D01*
X128264502Y-120630820D01*
X128205537Y-120520506D01*
X128126185Y-120423815D01*
X128029494Y-120344463D01*
X127919180Y-120285498D01*
X127799482Y-120249188D01*
X127675000Y-120236928D01*
X125825000Y-120236928D01*
X125700518Y-120249188D01*
X125580820Y-120285498D01*
X125470506Y-120344463D01*
X125373815Y-120423815D01*
X125294463Y-120520506D01*
X125235498Y-120630820D01*
X125199188Y-120750518D01*
X125186928Y-120875000D01*
X123495395Y-120875000D01*
X123652312Y-120718083D01*
X123565607Y-120461347D01*
X123330376Y-120347997D01*
X125717552Y-117960822D01*
X125768051Y-118002265D01*
X125891332Y-118068160D01*
X126025100Y-118108738D01*
X126164213Y-118122439D01*
X126303326Y-118108738D01*
X126437094Y-118068160D01*
X126539652Y-118013342D01*
X127471734Y-118945424D01*
X127494800Y-118973530D01*
X127522906Y-118996596D01*
X127522907Y-118996597D01*
X127606961Y-119065579D01*
X127630630Y-119078230D01*
X127734926Y-119133977D01*
X127873776Y-119176097D01*
X127981989Y-119186755D01*
X127981991Y-119186755D01*
X128018174Y-119190319D01*
X128054358Y-119186755D01*
X132763662Y-119186755D01*
X132799845Y-119190319D01*
X132836028Y-119186755D01*
X132836031Y-119186755D01*
X132944244Y-119176097D01*
X133083094Y-119133977D01*
X133211058Y-119065579D01*
X133323220Y-118973530D01*
X133346290Y-118945419D01*
X134055110Y-118236600D01*
X135013817Y-118236600D01*
X135050000Y-118240164D01*
X135086183Y-118236600D01*
X135086186Y-118236600D01*
X135194399Y-118225942D01*
X135333249Y-118183822D01*
X135461213Y-118115424D01*
X135573375Y-118023375D01*
X135596445Y-117995264D01*
X136003637Y-117588072D01*
X136440011Y-117588072D01*
X136440011Y-118068280D01*
X134207373Y-120300918D01*
X134205035Y-120299950D01*
X133903647Y-120240000D01*
X133596353Y-120240000D01*
X133294965Y-120299950D01*
X133011063Y-120417546D01*
X132755558Y-120588269D01*
X132538269Y-120805558D01*
X132367546Y-121061063D01*
X132249950Y-121344965D01*
X132190000Y-121646353D01*
X132190000Y-121953647D01*
X132249950Y-122255035D01*
X132367546Y-122538937D01*
X132538269Y-122794442D01*
X132755558Y-123011731D01*
X133011063Y-123182454D01*
X133294965Y-123300050D01*
X133596353Y-123360000D01*
X133903647Y-123360000D01*
X134205035Y-123300050D01*
X134488937Y-123182454D01*
X134744442Y-123011731D01*
X134874256Y-122881917D01*
X136347688Y-122881917D01*
X136434393Y-123138653D01*
X136711223Y-123272048D01*
X137008757Y-123348873D01*
X137315562Y-123366176D01*
X137619848Y-123323292D01*
X137909921Y-123221868D01*
X138065607Y-123138653D01*
X138152312Y-122881917D01*
X137250000Y-121979605D01*
X136347688Y-122881917D01*
X134874256Y-122881917D01*
X134961731Y-122794442D01*
X135132454Y-122538937D01*
X135250050Y-122255035D01*
X135310000Y-121953647D01*
X135310000Y-121865562D01*
X135683824Y-121865562D01*
X135726708Y-122169848D01*
X135828132Y-122459921D01*
X135911347Y-122615607D01*
X136168083Y-122702312D01*
X137070395Y-121800000D01*
X137429605Y-121800000D01*
X138331917Y-122702312D01*
X138588653Y-122615607D01*
X138722048Y-122338777D01*
X138798873Y-122041243D01*
X138816176Y-121734438D01*
X138773292Y-121430152D01*
X138671868Y-121140079D01*
X138588653Y-120984393D01*
X138331917Y-120897688D01*
X137429605Y-121800000D01*
X137070395Y-121800000D01*
X136168083Y-120897688D01*
X135911347Y-120984393D01*
X135777952Y-121261223D01*
X135701127Y-121558757D01*
X135683824Y-121865562D01*
X135310000Y-121865562D01*
X135310000Y-121646353D01*
X135250050Y-121344965D01*
X135249082Y-121342627D01*
X135873626Y-120718083D01*
X136347688Y-120718083D01*
X137250000Y-121620395D01*
X138152312Y-120718083D01*
X138065607Y-120461347D01*
X137788777Y-120327952D01*
X137491243Y-120251127D01*
X137184438Y-120233824D01*
X136880152Y-120276708D01*
X136590079Y-120378132D01*
X136434393Y-120461347D01*
X136347688Y-120718083D01*
X135873626Y-120718083D01*
X137250000Y-119341709D01*
X139250918Y-121342628D01*
X139249950Y-121344965D01*
X139190000Y-121646353D01*
X139190000Y-121953647D01*
X139249950Y-122255035D01*
X139367546Y-122538937D01*
X139538269Y-122794442D01*
X139755558Y-123011731D01*
X140011063Y-123182454D01*
X140294965Y-123300050D01*
X140596353Y-123360000D01*
X140903647Y-123360000D01*
X141205035Y-123300050D01*
X141488937Y-123182454D01*
X141744442Y-123011731D01*
X141874256Y-122881917D01*
X143347688Y-122881917D01*
X143434393Y-123138653D01*
X143711223Y-123272048D01*
X144008757Y-123348873D01*
X144315562Y-123366176D01*
X144619848Y-123323292D01*
X144909921Y-123221868D01*
X145065607Y-123138653D01*
X145152312Y-122881917D01*
X144250000Y-121979605D01*
X143347688Y-122881917D01*
X141874256Y-122881917D01*
X141961731Y-122794442D01*
X142132454Y-122538937D01*
X142250050Y-122255035D01*
X142310000Y-121953647D01*
X142310000Y-121646353D01*
X142250050Y-121344965D01*
X142235567Y-121309999D01*
X142765358Y-121309999D01*
X142701127Y-121558757D01*
X142683824Y-121865562D01*
X142726708Y-122169848D01*
X142828132Y-122459921D01*
X142911347Y-122615607D01*
X143168083Y-122702312D01*
X144070395Y-121800000D01*
X144056253Y-121785858D01*
X144235858Y-121606253D01*
X144250000Y-121620395D01*
X144264143Y-121606253D01*
X144443748Y-121785858D01*
X144429605Y-121800000D01*
X145331917Y-122702312D01*
X145588653Y-122615607D01*
X145722048Y-122338777D01*
X145798873Y-122041243D01*
X145816176Y-121734438D01*
X145773292Y-121430152D01*
X145731281Y-121309999D01*
X146218290Y-121309999D01*
X146250918Y-121342627D01*
X146249950Y-121344965D01*
X146190000Y-121646353D01*
X146190000Y-121953647D01*
X146249950Y-122255035D01*
X146367546Y-122538937D01*
X146538269Y-122794442D01*
X146755558Y-123011731D01*
X147011063Y-123182454D01*
X147294965Y-123300050D01*
X147596353Y-123360000D01*
X147903647Y-123360000D01*
X148205035Y-123300050D01*
X148488937Y-123182454D01*
X148744442Y-123011731D01*
X148874256Y-122881917D01*
X150347688Y-122881917D01*
X150434393Y-123138653D01*
X150711223Y-123272048D01*
X151008757Y-123348873D01*
X151315562Y-123366176D01*
X151619848Y-123323292D01*
X151909921Y-123221868D01*
X152065607Y-123138653D01*
X152152312Y-122881917D01*
X151250000Y-121979605D01*
X150347688Y-122881917D01*
X148874256Y-122881917D01*
X148961731Y-122794442D01*
X149132454Y-122538937D01*
X149250050Y-122255035D01*
X149310000Y-121953647D01*
X149310000Y-121865562D01*
X149683824Y-121865562D01*
X149726708Y-122169848D01*
X149828132Y-122459921D01*
X149911347Y-122615607D01*
X150168083Y-122702312D01*
X151070395Y-121800000D01*
X151429605Y-121800000D01*
X152331917Y-122702312D01*
X152588653Y-122615607D01*
X152722048Y-122338777D01*
X152798873Y-122041243D01*
X152816176Y-121734438D01*
X152773292Y-121430152D01*
X152671868Y-121140079D01*
X152588653Y-120984393D01*
X152331917Y-120897688D01*
X151429605Y-121800000D01*
X151070395Y-121800000D01*
X150168083Y-120897688D01*
X149911347Y-120984393D01*
X149777952Y-121261223D01*
X149701127Y-121558757D01*
X149683824Y-121865562D01*
X149310000Y-121865562D01*
X149310000Y-121646353D01*
X149250050Y-121344965D01*
X149132454Y-121061063D01*
X148961731Y-120805558D01*
X148874256Y-120718083D01*
X150347688Y-120718083D01*
X151250000Y-121620395D01*
X152152312Y-120718083D01*
X152065607Y-120461347D01*
X151788777Y-120327952D01*
X151491243Y-120251127D01*
X151184438Y-120233824D01*
X150880152Y-120276708D01*
X150590079Y-120378132D01*
X150434393Y-120461347D01*
X150347688Y-120718083D01*
X148874256Y-120718083D01*
X148744442Y-120588269D01*
X148488937Y-120417546D01*
X148205035Y-120299950D01*
X147903647Y-120240000D01*
X147596353Y-120240000D01*
X147294965Y-120299950D01*
X147292627Y-120300918D01*
X147069844Y-120078135D01*
X147046774Y-120050024D01*
X146934612Y-119957975D01*
X146806648Y-119889577D01*
X146667798Y-119847457D01*
X146559585Y-119836799D01*
X146559582Y-119836799D01*
X146523399Y-119833235D01*
X146487216Y-119836799D01*
X140398733Y-119836799D01*
X138719630Y-118157697D01*
X138719630Y-116498271D01*
X138851467Y-116816554D01*
X139271161Y-117444670D01*
X139805330Y-117978839D01*
X140433446Y-118398533D01*
X141131372Y-118687623D01*
X141872285Y-118835000D01*
X142627715Y-118835000D01*
X143368628Y-118687623D01*
X144066554Y-118398533D01*
X144694670Y-117978839D01*
X145228839Y-117444670D01*
X145648533Y-116816554D01*
X145937623Y-116118628D01*
X146085000Y-115377715D01*
X146085000Y-114622285D01*
X146075595Y-114575000D01*
X147236928Y-114575000D01*
X147236928Y-116425000D01*
X147249188Y-116549482D01*
X147285498Y-116669180D01*
X147344463Y-116779494D01*
X147423815Y-116876185D01*
X147520506Y-116955537D01*
X147630820Y-117014502D01*
X147750518Y-117050812D01*
X147875000Y-117063072D01*
X149725000Y-117063072D01*
X149849482Y-117050812D01*
X149969180Y-117014502D01*
X150079494Y-116955537D01*
X150176185Y-116876185D01*
X150255537Y-116779494D01*
X150314502Y-116669180D01*
X150350812Y-116549482D01*
X150363072Y-116425000D01*
X150363072Y-114575000D01*
X150350812Y-114450518D01*
X150314502Y-114330820D01*
X150255537Y-114220506D01*
X150176185Y-114123815D01*
X150079494Y-114044463D01*
X149969180Y-113985498D01*
X149849482Y-113949188D01*
X149725000Y-113936928D01*
X147875000Y-113936928D01*
X147750518Y-113949188D01*
X147630820Y-113985498D01*
X147520506Y-114044463D01*
X147423815Y-114123815D01*
X147344463Y-114220506D01*
X147285498Y-114330820D01*
X147249188Y-114450518D01*
X147236928Y-114575000D01*
X146075595Y-114575000D01*
X145937623Y-113881372D01*
X145648533Y-113183446D01*
X145580694Y-113081917D01*
X147897688Y-113081917D01*
X147984393Y-113338653D01*
X148261223Y-113472048D01*
X148558757Y-113548873D01*
X148865562Y-113566176D01*
X149169848Y-113523292D01*
X149459921Y-113421868D01*
X149615607Y-113338653D01*
X149702312Y-113081917D01*
X148800000Y-112179605D01*
X147897688Y-113081917D01*
X145580694Y-113081917D01*
X145228839Y-112555330D01*
X144739071Y-112065562D01*
X147233824Y-112065562D01*
X147276708Y-112369848D01*
X147378132Y-112659921D01*
X147461347Y-112815607D01*
X147718083Y-112902312D01*
X148620395Y-112000000D01*
X148979605Y-112000000D01*
X149881917Y-112902312D01*
X150138653Y-112815607D01*
X150272048Y-112538777D01*
X150348873Y-112241243D01*
X150366176Y-111934438D01*
X150323292Y-111630152D01*
X150221868Y-111340079D01*
X150138653Y-111184393D01*
X149881917Y-111097688D01*
X148979605Y-112000000D01*
X148620395Y-112000000D01*
X147718083Y-111097688D01*
X147461347Y-111184393D01*
X147327952Y-111461223D01*
X147251127Y-111758757D01*
X147233824Y-112065562D01*
X144739071Y-112065562D01*
X144694670Y-112021161D01*
X144066554Y-111601467D01*
X143368628Y-111312377D01*
X142627715Y-111165000D01*
X141944339Y-111165000D01*
X142191256Y-110918083D01*
X147897688Y-110918083D01*
X148800000Y-111820395D01*
X149702312Y-110918083D01*
X149615607Y-110661347D01*
X149338777Y-110527952D01*
X149041243Y-110451127D01*
X148734438Y-110433824D01*
X148430152Y-110476708D01*
X148140079Y-110578132D01*
X147984393Y-110661347D01*
X147897688Y-110918083D01*
X142191256Y-110918083D01*
X143872739Y-109236600D01*
X147416578Y-109236600D01*
X147417546Y-109238937D01*
X147588269Y-109494442D01*
X147805558Y-109711731D01*
X148061063Y-109882454D01*
X148344965Y-110000050D01*
X148646353Y-110060000D01*
X148953647Y-110060000D01*
X149255035Y-110000050D01*
X149538937Y-109882454D01*
X149794442Y-109711731D01*
X150011731Y-109494442D01*
X150182454Y-109238937D01*
X150300050Y-108955035D01*
X150360000Y-108653647D01*
X150360000Y-108346353D01*
X150300050Y-108044965D01*
X150182454Y-107761063D01*
X150011731Y-107505558D01*
X149794442Y-107288269D01*
X149538937Y-107117546D01*
X149255035Y-106999950D01*
X148953647Y-106940000D01*
X148646353Y-106940000D01*
X148344965Y-106999950D01*
X148061063Y-107117546D01*
X147805558Y-107288269D01*
X147588269Y-107505558D01*
X147417546Y-107761063D01*
X147416578Y-107763400D01*
X143603805Y-107763400D01*
X143580595Y-107761114D01*
X145259792Y-106081917D01*
X147897688Y-106081917D01*
X147984393Y-106338653D01*
X148261223Y-106472048D01*
X148558757Y-106548873D01*
X148865562Y-106566176D01*
X149169848Y-106523292D01*
X149459921Y-106421868D01*
X149615607Y-106338653D01*
X149702312Y-106081917D01*
X148800000Y-105179605D01*
X147897688Y-106081917D01*
X145259792Y-106081917D01*
X146276147Y-105065562D01*
X147233824Y-105065562D01*
X147276708Y-105369848D01*
X147378132Y-105659921D01*
X147461347Y-105815607D01*
X147718083Y-105902312D01*
X148620395Y-105000000D01*
X148979605Y-105000000D01*
X149881917Y-105902312D01*
X150138653Y-105815607D01*
X150272048Y-105538777D01*
X150348873Y-105241243D01*
X150366176Y-104934438D01*
X150323292Y-104630152D01*
X150221868Y-104340079D01*
X150138653Y-104184393D01*
X149881917Y-104097688D01*
X148979605Y-105000000D01*
X148620395Y-105000000D01*
X147718083Y-104097688D01*
X147461347Y-104184393D01*
X147327952Y-104461223D01*
X147251127Y-104758757D01*
X147233824Y-105065562D01*
X146276147Y-105065562D01*
X147423626Y-103918083D01*
X147897688Y-103918083D01*
X148800000Y-104820395D01*
X149702312Y-103918083D01*
X149615607Y-103661347D01*
X149338777Y-103527952D01*
X149041243Y-103451127D01*
X148734438Y-103433824D01*
X148430152Y-103476708D01*
X148140079Y-103578132D01*
X147984393Y-103661347D01*
X147897688Y-103918083D01*
X147423626Y-103918083D01*
X148342628Y-102999082D01*
X148344965Y-103000050D01*
X148646353Y-103060000D01*
X148953647Y-103060000D01*
X149255035Y-103000050D01*
X149538937Y-102882454D01*
X149794442Y-102711731D01*
X150011731Y-102494442D01*
X150182454Y-102238937D01*
X150300050Y-101955035D01*
X150360000Y-101653647D01*
X150360000Y-101346353D01*
X150300050Y-101044965D01*
X150182454Y-100761063D01*
X150011731Y-100505558D01*
X149794442Y-100288269D01*
X149538937Y-100117546D01*
X149255035Y-99999950D01*
X148953647Y-99940000D01*
X148646353Y-99940000D01*
X148344965Y-99999950D01*
X148309999Y-100014433D01*
X148309999Y-99484642D01*
X148558757Y-99548873D01*
X148865562Y-99566176D01*
X149169848Y-99523292D01*
X149459921Y-99421868D01*
X149615607Y-99338653D01*
X149702312Y-99081917D01*
X148800000Y-98179605D01*
X148785858Y-98193748D01*
X148606253Y-98014143D01*
X148620395Y-98000000D01*
X148979605Y-98000000D01*
X149881917Y-98902312D01*
X150138653Y-98815607D01*
X150272048Y-98538777D01*
X150348873Y-98241243D01*
X150366176Y-97934438D01*
X150323292Y-97630152D01*
X150221868Y-97340079D01*
X150138653Y-97184393D01*
X149881917Y-97097688D01*
X148979605Y-98000000D01*
X148620395Y-98000000D01*
X148606253Y-97985858D01*
X148785858Y-97806253D01*
X148800000Y-97820395D01*
X149702312Y-96918083D01*
X149615607Y-96661347D01*
X149338777Y-96527952D01*
X149041243Y-96451127D01*
X148734438Y-96433824D01*
X148430152Y-96476708D01*
X148309999Y-96518719D01*
X148309999Y-96031710D01*
X148342627Y-95999082D01*
X148344965Y-96000050D01*
X148646353Y-96060000D01*
X148953647Y-96060000D01*
X149255035Y-96000050D01*
X149538937Y-95882454D01*
X149794442Y-95711731D01*
X150011731Y-95494442D01*
X150182454Y-95238937D01*
X150300050Y-94955035D01*
X150360000Y-94653647D01*
X150360000Y-94346353D01*
X150300050Y-94044965D01*
X150182454Y-93761063D01*
X150011731Y-93505558D01*
X149794442Y-93288269D01*
X149538937Y-93117546D01*
X149255035Y-92999950D01*
X148953647Y-92940000D01*
X148646353Y-92940000D01*
X148344965Y-92999950D01*
X148061063Y-93117546D01*
X147805558Y-93288269D01*
X147588269Y-93505558D01*
X147417546Y-93761063D01*
X147299950Y-94044965D01*
X147240000Y-94346353D01*
X147240000Y-94653647D01*
X147299950Y-94955035D01*
X147300918Y-94957373D01*
X147078131Y-95180160D01*
X147050025Y-95203226D01*
X147026959Y-95231332D01*
X147026957Y-95231334D01*
X146957975Y-95315389D01*
X146917958Y-95390256D01*
X146889578Y-95443352D01*
X146847545Y-95581917D01*
X146847458Y-95582203D01*
X146833235Y-95726601D01*
X146836800Y-95762794D01*
X146836799Y-101851267D01*
X141437454Y-107250613D01*
X141404878Y-107218037D01*
X141238472Y-107106848D01*
X141053572Y-107030260D01*
X140857283Y-106991216D01*
X140657149Y-106991216D01*
X140460860Y-107030260D01*
X140275960Y-107106848D01*
X140109554Y-107218037D01*
X139968037Y-107359554D01*
X139856848Y-107525960D01*
X139780260Y-107710860D01*
X139741216Y-107907149D01*
X139741216Y-108107283D01*
X139780260Y-108303572D01*
X139790221Y-108327621D01*
X137912473Y-110205370D01*
X133398668Y-110205370D01*
X133362482Y-110201806D01*
X133326296Y-110205370D01*
X133218083Y-110216028D01*
X133079233Y-110258148D01*
X132956244Y-110323887D01*
X132951269Y-110326546D01*
X132905132Y-110364410D01*
X132839107Y-110418595D01*
X132816041Y-110446701D01*
X130506748Y-112755996D01*
X130395011Y-112645765D01*
X130170504Y-112645765D01*
X129931376Y-112884894D01*
X129751771Y-112705289D01*
X129990899Y-112466160D01*
X129990899Y-112241653D01*
X129753043Y-112000547D01*
X130663585Y-111090005D01*
X130752265Y-110981949D01*
X130813602Y-110867195D01*
X131609723Y-110071075D01*
X131637824Y-110048013D01*
X131660887Y-110019911D01*
X131660892Y-110019906D01*
X131729874Y-109935851D01*
X131746598Y-109904562D01*
X131798272Y-109807887D01*
X131840392Y-109669037D01*
X131851050Y-109560824D01*
X131851050Y-109560823D01*
X131854614Y-109524638D01*
X131851050Y-109488452D01*
X131851050Y-103010883D01*
X137495274Y-97366660D01*
X137523374Y-97343599D01*
X137546437Y-97315497D01*
X137546442Y-97315492D01*
X137615424Y-97231437D01*
X137636636Y-97191752D01*
X137683822Y-97103473D01*
X137725942Y-96964623D01*
X137736600Y-96856410D01*
X137736600Y-96856409D01*
X137740164Y-96820224D01*
X137736600Y-96784038D01*
X137736600Y-95263072D01*
X137925000Y-95263072D01*
X138049482Y-95250812D01*
X138169180Y-95214502D01*
X138279494Y-95155537D01*
X138376185Y-95076185D01*
X138455537Y-94979494D01*
X138514502Y-94869180D01*
X138550812Y-94749482D01*
X138563072Y-94625000D01*
X138563072Y-93620306D01*
X138851467Y-94316554D01*
X139271161Y-94944670D01*
X139805330Y-95478839D01*
X140433446Y-95898533D01*
X141131372Y-96187623D01*
X141872285Y-96335000D01*
X142627715Y-96335000D01*
X143368628Y-96187623D01*
X144066554Y-95898533D01*
X144694670Y-95478839D01*
X145228839Y-94944670D01*
X145648533Y-94316554D01*
X145937623Y-93618628D01*
X146085000Y-92877715D01*
X146085000Y-92122285D01*
X146076971Y-92081917D01*
X147897688Y-92081917D01*
X147984393Y-92338653D01*
X148261223Y-92472048D01*
X148558757Y-92548873D01*
X148865562Y-92566176D01*
X149169848Y-92523292D01*
X149459921Y-92421868D01*
X149615607Y-92338653D01*
X149702312Y-92081917D01*
X148800000Y-91179605D01*
X147897688Y-92081917D01*
X146076971Y-92081917D01*
X145937623Y-91381372D01*
X145806811Y-91065562D01*
X147233824Y-91065562D01*
X147276708Y-91369848D01*
X147378132Y-91659921D01*
X147461347Y-91815607D01*
X147718083Y-91902312D01*
X148620395Y-91000000D01*
X148979605Y-91000000D01*
X149881917Y-91902312D01*
X150138653Y-91815607D01*
X150272048Y-91538777D01*
X150348873Y-91241243D01*
X150366176Y-90934438D01*
X150323292Y-90630152D01*
X150221868Y-90340079D01*
X150138653Y-90184393D01*
X149881917Y-90097688D01*
X148979605Y-91000000D01*
X148620395Y-91000000D01*
X147718083Y-90097688D01*
X147461347Y-90184393D01*
X147327952Y-90461223D01*
X147251127Y-90758757D01*
X147233824Y-91065562D01*
X145806811Y-91065562D01*
X145648533Y-90683446D01*
X145228839Y-90055330D01*
X144858509Y-89685000D01*
X147976405Y-89685000D01*
X147897688Y-89918083D01*
X148800000Y-90820395D01*
X149702312Y-89918083D01*
X149623595Y-89685000D01*
X154315000Y-89685000D01*
X154315001Y-127315000D01*
X94935000Y-127315000D01*
X94935000Y-120875000D01*
X96686928Y-120875000D01*
X96686928Y-122725000D01*
X96699188Y-122849482D01*
X96735498Y-122969180D01*
X96794463Y-123079494D01*
X96873815Y-123176185D01*
X96970506Y-123255537D01*
X97080820Y-123314502D01*
X97200518Y-123350812D01*
X97325000Y-123363072D01*
X99175000Y-123363072D01*
X99299482Y-123350812D01*
X99419180Y-123314502D01*
X99529494Y-123255537D01*
X99626185Y-123176185D01*
X99705537Y-123079494D01*
X99764502Y-122969180D01*
X99790972Y-122881917D01*
X100847688Y-122881917D01*
X100934393Y-123138653D01*
X101211223Y-123272048D01*
X101508757Y-123348873D01*
X101815562Y-123366176D01*
X102119848Y-123323292D01*
X102409921Y-123221868D01*
X102565607Y-123138653D01*
X102652312Y-122881917D01*
X101750000Y-121979605D01*
X100847688Y-122881917D01*
X99790972Y-122881917D01*
X99800812Y-122849482D01*
X99813072Y-122725000D01*
X99813072Y-121865562D01*
X100183824Y-121865562D01*
X100226708Y-122169848D01*
X100328132Y-122459921D01*
X100411347Y-122615607D01*
X100668083Y-122702312D01*
X101570395Y-121800000D01*
X101929605Y-121800000D01*
X102831917Y-122702312D01*
X103088653Y-122615607D01*
X103222048Y-122338777D01*
X103298873Y-122041243D01*
X103316176Y-121734438D01*
X103273292Y-121430152D01*
X103171868Y-121140079D01*
X103088653Y-120984393D01*
X102831917Y-120897688D01*
X101929605Y-121800000D01*
X101570395Y-121800000D01*
X100668083Y-120897688D01*
X100411347Y-120984393D01*
X100277952Y-121261223D01*
X100201127Y-121558757D01*
X100183824Y-121865562D01*
X99813072Y-121865562D01*
X99813072Y-120875000D01*
X99800812Y-120750518D01*
X99790973Y-120718083D01*
X100847688Y-120718083D01*
X101750000Y-121620395D01*
X102652312Y-120718083D01*
X102565607Y-120461347D01*
X102288777Y-120327952D01*
X101991243Y-120251127D01*
X101684438Y-120233824D01*
X101380152Y-120276708D01*
X101090079Y-120378132D01*
X100934393Y-120461347D01*
X100847688Y-120718083D01*
X99790973Y-120718083D01*
X99764502Y-120630820D01*
X99705537Y-120520506D01*
X99626185Y-120423815D01*
X99529494Y-120344463D01*
X99419180Y-120285498D01*
X99299482Y-120249188D01*
X99175000Y-120236928D01*
X97325000Y-120236928D01*
X97200518Y-120249188D01*
X97080820Y-120285498D01*
X96970506Y-120344463D01*
X96873815Y-120423815D01*
X96794463Y-120520506D01*
X96735498Y-120630820D01*
X96699188Y-120750518D01*
X96686928Y-120875000D01*
X94935000Y-120875000D01*
X94935000Y-95581917D01*
X99797688Y-95581917D01*
X99884393Y-95838653D01*
X100161223Y-95972048D01*
X100458757Y-96048873D01*
X100765562Y-96066176D01*
X101069848Y-96023292D01*
X101359921Y-95921868D01*
X101515607Y-95838653D01*
X101602312Y-95581917D01*
X100700000Y-94679605D01*
X99797688Y-95581917D01*
X94935000Y-95581917D01*
X94935000Y-94565562D01*
X99133824Y-94565562D01*
X99176708Y-94869848D01*
X99278132Y-95159921D01*
X99361347Y-95315607D01*
X99618083Y-95402312D01*
X100520395Y-94500000D01*
X100879605Y-94500000D01*
X101781917Y-95402312D01*
X102038653Y-95315607D01*
X102172048Y-95038777D01*
X102248873Y-94741243D01*
X102266176Y-94434438D01*
X102223292Y-94130152D01*
X102121868Y-93840079D01*
X102038653Y-93684393D01*
X101781917Y-93597688D01*
X100879605Y-94500000D01*
X100520395Y-94500000D01*
X99618083Y-93597688D01*
X99361347Y-93684393D01*
X99227952Y-93961223D01*
X99151127Y-94258757D01*
X99133824Y-94565562D01*
X94935000Y-94565562D01*
X94935000Y-93418083D01*
X99797688Y-93418083D01*
X100700000Y-94320395D01*
X101602312Y-93418083D01*
X101515607Y-93161347D01*
X101238777Y-93027952D01*
X100941243Y-92951127D01*
X100634438Y-92933824D01*
X100330152Y-92976708D01*
X100040079Y-93078132D01*
X99884393Y-93161347D01*
X99797688Y-93418083D01*
X94935000Y-93418083D01*
X94935000Y-89685000D01*
X99273602Y-89685000D01*
X99244463Y-89720506D01*
G37*
X99244463Y-89720506D02*
X99185498Y-89830820D01*
X99149188Y-89950518D01*
X99136928Y-90075000D01*
X99136928Y-91925000D01*
X99149188Y-92049482D01*
X99185498Y-92169180D01*
X99244463Y-92279494D01*
X99323815Y-92376185D01*
X99420506Y-92455537D01*
X99530820Y-92514502D01*
X99650518Y-92550812D01*
X99775000Y-92563072D01*
X101625000Y-92563072D01*
X101749482Y-92550812D01*
X101869180Y-92514502D01*
X101979494Y-92455537D01*
X102076185Y-92376185D01*
X102155537Y-92279494D01*
X102214502Y-92169180D01*
X102250812Y-92049482D01*
X102263072Y-91925000D01*
X102263072Y-90075000D01*
X102250812Y-89950518D01*
X102214502Y-89830820D01*
X102155537Y-89720506D01*
X102126398Y-89685000D01*
X104641491Y-89685000D01*
X104271161Y-90055330D01*
X103851467Y-90683446D01*
X103562377Y-91381372D01*
X103415000Y-92122285D01*
X103415000Y-92877715D01*
X103562377Y-93618628D01*
X103851467Y-94316554D01*
X104271161Y-94944670D01*
X104805330Y-95478839D01*
X105433446Y-95898533D01*
X106131372Y-96187623D01*
X106872285Y-96335000D01*
X107627715Y-96335000D01*
X108368628Y-96187623D01*
X109066554Y-95898533D01*
X109694670Y-95478839D01*
X110228839Y-94944670D01*
X110337587Y-94781917D01*
X111597688Y-94781917D01*
X111684393Y-95038653D01*
X111961223Y-95172048D01*
X112258757Y-95248873D01*
X112565562Y-95266176D01*
X112869848Y-95223292D01*
X113159921Y-95121868D01*
X113315607Y-95038653D01*
X113402312Y-94781917D01*
X112500000Y-93879605D01*
X111597688Y-94781917D01*
X110337587Y-94781917D01*
X110648533Y-94316554D01*
X110937623Y-93618628D01*
X110943887Y-93587139D01*
X110933824Y-93765562D01*
X110976708Y-94069848D01*
X111078132Y-94359921D01*
X111161347Y-94515607D01*
X111418083Y-94602312D01*
X112320395Y-93700000D01*
X112679605Y-93700000D01*
X113581917Y-94602312D01*
X113838653Y-94515607D01*
X113972048Y-94238777D01*
X114048873Y-93941243D01*
X114066176Y-93634438D01*
X114023292Y-93330152D01*
X113921868Y-93040079D01*
X113838653Y-92884393D01*
X113581917Y-92797688D01*
X112679605Y-93700000D01*
X112320395Y-93700000D01*
X111418083Y-92797688D01*
X111161347Y-92884393D01*
X111029067Y-93158909D01*
X111085000Y-92877715D01*
X111085000Y-92618083D01*
X111597688Y-92618083D01*
X112500000Y-93520395D01*
X113402312Y-92618083D01*
X113315607Y-92361347D01*
X113038777Y-92227952D01*
X112741243Y-92151127D01*
X112434438Y-92133824D01*
X112130152Y-92176708D01*
X111840079Y-92278132D01*
X111684393Y-92361347D01*
X111597688Y-92618083D01*
X111085000Y-92618083D01*
X111085000Y-92122285D01*
X110937623Y-91381372D01*
X110648533Y-90683446D01*
X110228839Y-90055330D01*
X109858509Y-89685000D01*
X139641491Y-89685000D01*
X139271161Y-90055330D01*
X138851467Y-90683446D01*
X138562377Y-91381372D01*
X138415000Y-92122285D01*
X138415000Y-92371111D01*
X138376185Y-92323815D01*
X138279494Y-92244463D01*
X138169180Y-92185498D01*
X138049482Y-92149188D01*
X137925000Y-92136928D01*
X136075000Y-92136928D01*
X135950518Y-92149188D01*
X135830820Y-92185498D01*
X135720506Y-92244463D01*
X135623815Y-92323815D01*
X135544463Y-92420506D01*
X135485498Y-92530820D01*
X135449188Y-92650518D01*
X135436928Y-92775000D01*
X135436928Y-94625000D01*
X135449188Y-94749482D01*
X135485498Y-94869180D01*
X135544463Y-94979494D01*
X135623815Y-95076185D01*
X135720506Y-95155537D01*
X135830820Y-95214502D01*
X135950518Y-95250812D01*
X136075000Y-95263072D01*
X136263400Y-95263072D01*
X136263400Y-96515114D01*
X131963201Y-100815314D01*
X131963201Y-93970286D01*
X131999950Y-94155035D01*
X132117546Y-94438937D01*
X132288269Y-94694442D01*
X132505558Y-94911731D01*
X132761063Y-95082454D01*
X133044965Y-95200050D01*
X133346353Y-95260000D01*
X133653647Y-95260000D01*
X133955035Y-95200050D01*
X134238937Y-95082454D01*
X134494442Y-94911731D01*
X134711731Y-94694442D01*
X134882454Y-94438937D01*
X135000050Y-94155035D01*
X135060000Y-93853647D01*
X135060000Y-93546353D01*
X135000050Y-93244965D01*
X134882454Y-92961063D01*
X134711731Y-92705558D01*
X134494442Y-92488269D01*
X134238937Y-92317546D01*
X133955035Y-92199950D01*
X133653647Y-92140000D01*
X133346353Y-92140000D01*
X133044965Y-92199950D01*
X132761063Y-92317546D01*
X132505558Y-92488269D01*
X132288269Y-92705558D01*
X132117546Y-92961063D01*
X131999950Y-93244965D01*
X131963201Y-93429714D01*
X131963201Y-93147417D01*
X131966765Y-93111231D01*
X131952543Y-92966832D01*
X131947779Y-92951127D01*
X131910423Y-92827982D01*
X131842025Y-92700018D01*
X131801401Y-92650518D01*
X131773043Y-92615963D01*
X131773038Y-92615958D01*
X131749975Y-92587856D01*
X131721874Y-92564794D01*
X131135214Y-91978135D01*
X131112144Y-91950024D01*
X130999982Y-91857975D01*
X130872018Y-91789577D01*
X130733168Y-91747457D01*
X130624955Y-91736799D01*
X130624952Y-91736799D01*
X130588769Y-91733235D01*
X130552586Y-91736799D01*
X124262787Y-91736799D01*
X124226601Y-91733235D01*
X124190415Y-91736799D01*
X124082202Y-91747457D01*
X123943352Y-91789577D01*
X123815388Y-91857975D01*
X123703226Y-91950024D01*
X123680160Y-91978130D01*
X123457372Y-92200918D01*
X123455035Y-92199950D01*
X123153647Y-92140000D01*
X122846353Y-92140000D01*
X122544965Y-92199950D01*
X122261063Y-92317546D01*
X122005558Y-92488269D01*
X121788269Y-92705558D01*
X121617546Y-92961063D01*
X121499950Y-93244965D01*
X121482508Y-93332652D01*
X121354593Y-93204737D01*
X121331522Y-93176625D01*
X121219360Y-93084576D01*
X121091396Y-93016178D01*
X120952546Y-92974058D01*
X120885085Y-92967414D01*
X120882454Y-92961063D01*
X120711731Y-92705558D01*
X120494442Y-92488269D01*
X120238937Y-92317546D01*
X119955035Y-92199950D01*
X119653647Y-92140000D01*
X119346353Y-92140000D01*
X119044965Y-92199950D01*
X118761063Y-92317546D01*
X118505558Y-92488269D01*
X118288269Y-92705558D01*
X118117546Y-92961063D01*
X117999950Y-93244965D01*
X117940000Y-93546353D01*
X117940000Y-93853647D01*
X117999950Y-94155035D01*
X118117546Y-94438937D01*
X118288269Y-94694442D01*
X118505558Y-94911731D01*
X118761063Y-95082454D01*
X119044965Y-95200050D01*
X119346353Y-95260000D01*
X119653647Y-95260000D01*
X119955035Y-95200050D01*
X120238937Y-95082454D01*
X120494442Y-94911731D01*
X120711731Y-94694442D01*
X120731417Y-94664979D01*
X128671094Y-102604656D01*
X128627000Y-102648750D01*
X128627000Y-103573000D01*
X128647000Y-103573000D01*
X128647000Y-103827000D01*
X128627000Y-103827000D01*
X128627000Y-103847000D01*
X128373000Y-103847000D01*
X128373000Y-103827000D01*
X127323750Y-103827000D01*
X127165000Y-103985750D01*
X127161928Y-104275000D01*
X127174188Y-104399482D01*
X127210498Y-104519180D01*
X127269463Y-104629494D01*
X127348815Y-104726185D01*
X127428594Y-104791658D01*
X127422038Y-104797038D01*
X127311595Y-104931613D01*
X127229528Y-105085149D01*
X127178992Y-105251745D01*
X127166840Y-105375130D01*
X126657215Y-104865506D01*
X126702962Y-104827962D01*
X126813405Y-104693387D01*
X126895472Y-104539851D01*
X126946008Y-104373255D01*
X126963072Y-104200001D01*
X126963072Y-103299999D01*
X126946008Y-103126745D01*
X126945479Y-103125000D01*
X127161928Y-103125000D01*
X127165000Y-103414250D01*
X127323750Y-103573000D01*
X128373000Y-103573000D01*
X128373000Y-102648750D01*
X128214250Y-102490000D01*
X127800000Y-102486928D01*
X127675518Y-102499188D01*
X127555820Y-102535498D01*
X127445506Y-102594463D01*
X127348815Y-102673815D01*
X127269463Y-102770506D01*
X127210498Y-102880820D01*
X127174188Y-103000518D01*
X127161928Y-103125000D01*
X126945479Y-103125000D01*
X126895472Y-102960149D01*
X126813405Y-102806613D01*
X126702962Y-102672038D01*
X126568387Y-102561595D01*
X126414851Y-102479528D01*
X126248255Y-102428992D01*
X126075001Y-102411928D01*
X125424999Y-102411928D01*
X125251745Y-102428992D01*
X125085149Y-102479528D01*
X124931613Y-102561595D01*
X124797038Y-102672038D01*
X124725000Y-102759816D01*
X124652962Y-102672038D01*
X124518387Y-102561595D01*
X124364851Y-102479528D01*
X124198255Y-102428992D01*
X124025001Y-102411928D01*
X123374999Y-102411928D01*
X123201745Y-102428992D01*
X123035149Y-102479528D01*
X122881613Y-102561595D01*
X122747038Y-102672038D01*
X122636595Y-102806613D01*
X122554528Y-102960149D01*
X122503992Y-103126745D01*
X122486928Y-103299999D01*
X122486928Y-104200001D01*
X122503992Y-104373255D01*
X122554528Y-104539851D01*
X122636595Y-104693387D01*
X122747038Y-104827962D01*
X122881613Y-104938405D01*
X122963401Y-104982122D01*
X122963401Y-105027143D01*
X122959836Y-105063336D01*
X122974059Y-105207734D01*
X123016178Y-105346583D01*
X123084576Y-105474548D01*
X123146276Y-105549729D01*
X123176626Y-105586711D01*
X123204732Y-105609777D01*
X123453856Y-105858901D01*
X123345386Y-105846567D01*
X123220735Y-105856953D01*
X123100504Y-105891458D01*
X122989315Y-105948756D01*
X122952236Y-105978546D01*
X121883755Y-104910066D01*
X121860685Y-104881955D01*
X121748523Y-104789906D01*
X121620559Y-104721508D01*
X121481709Y-104679388D01*
X121373496Y-104668730D01*
X121373493Y-104668730D01*
X121337310Y-104665166D01*
X121301127Y-104668730D01*
X119959279Y-104668730D01*
X119923096Y-104665166D01*
X119886913Y-104668730D01*
X118545067Y-104668730D01*
X118508884Y-104665166D01*
X118472701Y-104668730D01*
X117399780Y-104668730D01*
X116824122Y-104093072D01*
X117550000Y-104093072D01*
X117703745Y-104077929D01*
X117851582Y-104033084D01*
X117987829Y-103960258D01*
X118107251Y-103862251D01*
X118205258Y-103742829D01*
X118278084Y-103606582D01*
X118322929Y-103458745D01*
X118338072Y-103305000D01*
X118338072Y-103005000D01*
X118325268Y-102875000D01*
X119161928Y-102875000D01*
X119174188Y-102999482D01*
X119210498Y-103119180D01*
X119269463Y-103229494D01*
X119348815Y-103326185D01*
X119445506Y-103405537D01*
X119555820Y-103464502D01*
X119675518Y-103500812D01*
X119800000Y-103513072D01*
X120214250Y-103510000D01*
X120373000Y-103351250D01*
X120373000Y-102427000D01*
X120627000Y-102427000D01*
X120627000Y-103351250D01*
X120785750Y-103510000D01*
X121200000Y-103513072D01*
X121324482Y-103500812D01*
X121444180Y-103464502D01*
X121554494Y-103405537D01*
X121651185Y-103326185D01*
X121730537Y-103229494D01*
X121789502Y-103119180D01*
X121825812Y-102999482D01*
X121838072Y-102875000D01*
X121835000Y-102585750D01*
X121676250Y-102427000D01*
X120627000Y-102427000D01*
X120373000Y-102427000D01*
X119323750Y-102427000D01*
X119165000Y-102585750D01*
X119161928Y-102875000D01*
X118325268Y-102875000D01*
X118322929Y-102851255D01*
X118278084Y-102703418D01*
X118206270Y-102569064D01*
X118230537Y-102539494D01*
X118289502Y-102429180D01*
X118325812Y-102309482D01*
X118338072Y-102185000D01*
X118335000Y-102170750D01*
X118176250Y-102012000D01*
X116852000Y-102012000D01*
X116852000Y-102032000D01*
X116598000Y-102032000D01*
X116598000Y-102012000D01*
X116578000Y-102012000D01*
X116578000Y-101758000D01*
X116598000Y-101758000D01*
X116598000Y-100742000D01*
X116852000Y-100742000D01*
X116852000Y-101758000D01*
X118176250Y-101758000D01*
X118335000Y-101599250D01*
X118338072Y-101585000D01*
X118325812Y-101460518D01*
X118289502Y-101340820D01*
X118240957Y-101250000D01*
X118289502Y-101159180D01*
X118325812Y-101039482D01*
X118338072Y-100915000D01*
X118335000Y-100900750D01*
X118176250Y-100742000D01*
X116852000Y-100742000D01*
X116598000Y-100742000D01*
X116578000Y-100742000D01*
X116578000Y-100488000D01*
X116598000Y-100488000D01*
X116598000Y-100468000D01*
X116852000Y-100468000D01*
X116852000Y-100488000D01*
X118176250Y-100488000D01*
X118311270Y-100352980D01*
X118703557Y-100745267D01*
X118726625Y-100773375D01*
X118838787Y-100865424D01*
X118966751Y-100933822D01*
X119105601Y-100975942D01*
X119213814Y-100986600D01*
X119213823Y-100986600D01*
X119249999Y-100990163D01*
X119268794Y-100988312D01*
X119311595Y-101068387D01*
X119422038Y-101202962D01*
X119428594Y-101208342D01*
X119348815Y-101273815D01*
X119269463Y-101370506D01*
X119210498Y-101480820D01*
X119174188Y-101600518D01*
X119161928Y-101725000D01*
X119165000Y-102014250D01*
X119323750Y-102173000D01*
X120373000Y-102173000D01*
X120373000Y-102153000D01*
X120627000Y-102153000D01*
X120627000Y-102173000D01*
X121676250Y-102173000D01*
X121835000Y-102014250D01*
X121838072Y-101725000D01*
X121825812Y-101600518D01*
X121789502Y-101480820D01*
X121730537Y-101370506D01*
X121651185Y-101273815D01*
X121571406Y-101208342D01*
X121577962Y-101202962D01*
X121688405Y-101068387D01*
X121770472Y-100914851D01*
X121821008Y-100748255D01*
X121838072Y-100575001D01*
X121838072Y-99924999D01*
X121821008Y-99751745D01*
X121770472Y-99585149D01*
X121688405Y-99431613D01*
X121577962Y-99297038D01*
X121443387Y-99186595D01*
X121289851Y-99104528D01*
X121123255Y-99053992D01*
X120950001Y-99036928D01*
X120049999Y-99036928D01*
X119876745Y-99053992D01*
X119710149Y-99104528D01*
X119556613Y-99186595D01*
X119422038Y-99297038D01*
X119384494Y-99342785D01*
X118891445Y-98849736D01*
X118868375Y-98821625D01*
X118756213Y-98729576D01*
X118628249Y-98661178D01*
X118489399Y-98619058D01*
X118381186Y-98608400D01*
X118381183Y-98608400D01*
X118345000Y-98604836D01*
X118308817Y-98608400D01*
X118071489Y-98608400D01*
X117987829Y-98539742D01*
X117851582Y-98466916D01*
X117703745Y-98422071D01*
X117550000Y-98406928D01*
X117461600Y-98406928D01*
X117461600Y-97511186D01*
X117465164Y-97475000D01*
X117450942Y-97330601D01*
X117433790Y-97274059D01*
X117408822Y-97191751D01*
X117340424Y-97063787D01*
X117315361Y-97033248D01*
X117271442Y-96979732D01*
X117271441Y-96979731D01*
X117248375Y-96951625D01*
X117220269Y-96928559D01*
X116736600Y-96444891D01*
X116736600Y-95083422D01*
X116738937Y-95082454D01*
X116994442Y-94911731D01*
X117211731Y-94694442D01*
X117382454Y-94438937D01*
X117500050Y-94155035D01*
X117560000Y-93853647D01*
X117560000Y-93546353D01*
X117500050Y-93244965D01*
X117382454Y-92961063D01*
X117211731Y-92705558D01*
X116994442Y-92488269D01*
X116738937Y-92317546D01*
X116455035Y-92199950D01*
X116153647Y-92140000D01*
X115846353Y-92140000D01*
X115544965Y-92199950D01*
X115261063Y-92317546D01*
X115005558Y-92488269D01*
X114788269Y-92705558D01*
X114617546Y-92961063D01*
X114499950Y-93244965D01*
X114440000Y-93546353D01*
X114440000Y-93853647D01*
X114499950Y-94155035D01*
X114617546Y-94438937D01*
X114788269Y-94694442D01*
X115005558Y-94911731D01*
X115261063Y-95082454D01*
X115263401Y-95083422D01*
X115263400Y-96713817D01*
X115259836Y-96750000D01*
X115263400Y-96786183D01*
X115263400Y-96786185D01*
X115274058Y-96894398D01*
X115316178Y-97033248D01*
X115353714Y-97103473D01*
X115384576Y-97161212D01*
X115409640Y-97191752D01*
X115476625Y-97273374D01*
X115504732Y-97296441D01*
X115988401Y-97780111D01*
X115988401Y-98406928D01*
X115900000Y-98406928D01*
X115746255Y-98422071D01*
X115598418Y-98466916D01*
X115462171Y-98539742D01*
X115342749Y-98637749D01*
X115244742Y-98757171D01*
X115171916Y-98893418D01*
X115127071Y-99041255D01*
X115111928Y-99195000D01*
X115111928Y-99495000D01*
X115127071Y-99648745D01*
X115171916Y-99796582D01*
X115243730Y-99930936D01*
X115219463Y-99960506D01*
X115160498Y-100070820D01*
X115140702Y-100136079D01*
X115115424Y-100088787D01*
X115100679Y-100070820D01*
X115046442Y-100004732D01*
X115046437Y-100004727D01*
X115023374Y-99976625D01*
X114995273Y-99953563D01*
X113891445Y-98849736D01*
X113868375Y-98821625D01*
X113756213Y-98729576D01*
X113628249Y-98661178D01*
X113489399Y-98619058D01*
X113381186Y-98608400D01*
X113381183Y-98608400D01*
X113345000Y-98604836D01*
X113308817Y-98608400D01*
X113121489Y-98608400D01*
X113037829Y-98539742D01*
X112901582Y-98466916D01*
X112753745Y-98422071D01*
X112600000Y-98406928D01*
X110950000Y-98406928D01*
X110796255Y-98422071D01*
X110648418Y-98466916D01*
X110512171Y-98539742D01*
X110428511Y-98608400D01*
X109941175Y-98608400D01*
X109904999Y-98604837D01*
X109868823Y-98608400D01*
X109868814Y-98608400D01*
X109760601Y-98619058D01*
X109621751Y-98661178D01*
X109493787Y-98729576D01*
X109381625Y-98821625D01*
X109358550Y-98849742D01*
X109210640Y-98997652D01*
X109195472Y-98947650D01*
X109113405Y-98794114D01*
X109002962Y-98659538D01*
X108868386Y-98549095D01*
X108714850Y-98467028D01*
X108548254Y-98416492D01*
X108375000Y-98399428D01*
X107125000Y-98399428D01*
X106951746Y-98416492D01*
X106785150Y-98467028D01*
X106631614Y-98549095D01*
X106497038Y-98659538D01*
X106386595Y-98794114D01*
X106304528Y-98947650D01*
X106253992Y-99114246D01*
X106236928Y-99287500D01*
X106236928Y-100212500D01*
X106253992Y-100385754D01*
X106304528Y-100552350D01*
X106386595Y-100705886D01*
X106497038Y-100840462D01*
X106631614Y-100950905D01*
X106785150Y-101032972D01*
X106951746Y-101083508D01*
X107125000Y-101100572D01*
X108375000Y-101100572D01*
X108548254Y-101083508D01*
X108714850Y-101032972D01*
X108868386Y-100950905D01*
X108912136Y-100915000D01*
X110161928Y-100915000D01*
X110174188Y-101039482D01*
X110210498Y-101159180D01*
X110259043Y-101250000D01*
X110210498Y-101340820D01*
X110174188Y-101460518D01*
X110161928Y-101585000D01*
X110165000Y-101599250D01*
X110323750Y-101758000D01*
X111648000Y-101758000D01*
X111648000Y-100742000D01*
X111902000Y-100742000D01*
X111902000Y-101758000D01*
X113226250Y-101758000D01*
X113385000Y-101599250D01*
X113388072Y-101585000D01*
X113375812Y-101460518D01*
X113339502Y-101340820D01*
X113290957Y-101250000D01*
X113339502Y-101159180D01*
X113375812Y-101039482D01*
X113388072Y-100915000D01*
X113385000Y-100900750D01*
X113226250Y-100742000D01*
X111902000Y-100742000D01*
X111648000Y-100742000D01*
X110323750Y-100742000D01*
X110165000Y-100900750D01*
X110161928Y-100915000D01*
X108912136Y-100915000D01*
X109002962Y-100840462D01*
X109113405Y-100705886D01*
X109195472Y-100552350D01*
X109215417Y-100486600D01*
X109463817Y-100486600D01*
X109500000Y-100490164D01*
X109536183Y-100486600D01*
X109536186Y-100486600D01*
X109644399Y-100475942D01*
X109783249Y-100433822D01*
X109911213Y-100365424D01*
X110023375Y-100273375D01*
X110046446Y-100245263D01*
X110205974Y-100085735D01*
X110174188Y-100190518D01*
X110161928Y-100315000D01*
X110165000Y-100329250D01*
X110323750Y-100488000D01*
X111648000Y-100488000D01*
X111648000Y-100468000D01*
X111902000Y-100468000D01*
X111902000Y-100488000D01*
X113226250Y-100488000D01*
X113336270Y-100377980D01*
X113763400Y-100805110D01*
X113763401Y-102774467D01*
X113759836Y-102810660D01*
X113774059Y-102955058D01*
X113816178Y-103093907D01*
X113884576Y-103221872D01*
X113952798Y-103305000D01*
X113976626Y-103334035D01*
X114004732Y-103357101D01*
X116548227Y-105900597D01*
X116571295Y-105928705D01*
X116599401Y-105951771D01*
X116599402Y-105951772D01*
X116599408Y-105951777D01*
X119789206Y-109141576D01*
X119772322Y-109162592D01*
X119364465Y-108754736D01*
X119341395Y-108726625D01*
X119229233Y-108634576D01*
X119101269Y-108566178D01*
X118962419Y-108524058D01*
X118854206Y-108513400D01*
X118854203Y-108513400D01*
X118818020Y-108509836D01*
X118781837Y-108513400D01*
X116350625Y-108513400D01*
X116334472Y-108460149D01*
X116252405Y-108306613D01*
X116141962Y-108172038D01*
X116007387Y-108061595D01*
X115853851Y-107979528D01*
X115687255Y-107928992D01*
X115514001Y-107911928D01*
X114863999Y-107911928D01*
X114690745Y-107928992D01*
X114524149Y-107979528D01*
X114370613Y-108061595D01*
X114236038Y-108172038D01*
X114230658Y-108178594D01*
X114165185Y-108098815D01*
X114068494Y-108019463D01*
X113958180Y-107960498D01*
X113838482Y-107924188D01*
X113714000Y-107911928D01*
X113424750Y-107915000D01*
X113266000Y-108073750D01*
X113266000Y-109123000D01*
X113286000Y-109123000D01*
X113286000Y-109377000D01*
X113266000Y-109377000D01*
X113266000Y-110426250D01*
X113424750Y-110585000D01*
X113714000Y-110588072D01*
X113838482Y-110575812D01*
X113958180Y-110539502D01*
X114068494Y-110480537D01*
X114165185Y-110401185D01*
X114230658Y-110321406D01*
X114236038Y-110327962D01*
X114370613Y-110438405D01*
X114524149Y-110520472D01*
X114690745Y-110571008D01*
X114863999Y-110588072D01*
X115514001Y-110588072D01*
X115687255Y-110571008D01*
X115853851Y-110520472D01*
X116007387Y-110438405D01*
X116141962Y-110327962D01*
X116252405Y-110193387D01*
X116334472Y-110039851D01*
X116350625Y-109986600D01*
X118512911Y-109986600D01*
X118728547Y-110202236D01*
X118698756Y-110239315D01*
X118641458Y-110350504D01*
X118606953Y-110470735D01*
X118596567Y-110595386D01*
X118610699Y-110719670D01*
X118648806Y-110838809D01*
X118709423Y-110948223D01*
X118790221Y-111043709D01*
X119104989Y-111354235D01*
X119329496Y-111354235D01*
X119568625Y-111115107D01*
X119748230Y-111294712D01*
X119509101Y-111533840D01*
X119509101Y-111758347D01*
X119746957Y-111999453D01*
X119725524Y-112020886D01*
X119649522Y-112013400D01*
X119649519Y-112013400D01*
X119613336Y-112009836D01*
X119577153Y-112013400D01*
X117992403Y-112013400D01*
X117956220Y-112009836D01*
X117920037Y-112013400D01*
X116461625Y-112013400D01*
X116445472Y-111960149D01*
X116363405Y-111806613D01*
X116252962Y-111672038D01*
X116118387Y-111561595D01*
X115964851Y-111479528D01*
X115798255Y-111428992D01*
X115625001Y-111411928D01*
X114974999Y-111411928D01*
X114801745Y-111428992D01*
X114635149Y-111479528D01*
X114481613Y-111561595D01*
X114347038Y-111672038D01*
X114341658Y-111678594D01*
X114276185Y-111598815D01*
X114179494Y-111519463D01*
X114069180Y-111460498D01*
X113949482Y-111424188D01*
X113825000Y-111411928D01*
X113535750Y-111415000D01*
X113377000Y-111573750D01*
X113377000Y-112623000D01*
X113397000Y-112623000D01*
X113397000Y-112877000D01*
X113377000Y-112877000D01*
X113377000Y-113926250D01*
X113535750Y-114085000D01*
X113825000Y-114088072D01*
X113949482Y-114075812D01*
X114069180Y-114039502D01*
X114179494Y-113980537D01*
X114276185Y-113901185D01*
X114341658Y-113821406D01*
X114347038Y-113827962D01*
X114481613Y-113938405D01*
X114635149Y-114020472D01*
X114801745Y-114071008D01*
X114974999Y-114088072D01*
X115625001Y-114088072D01*
X115798255Y-114071008D01*
X115964851Y-114020472D01*
X116118387Y-113938405D01*
X116252962Y-113827962D01*
X116363405Y-113693387D01*
X116445472Y-113539851D01*
X116461625Y-113486600D01*
X117651111Y-113486600D01*
X118556664Y-114392153D01*
X118579735Y-114420265D01*
X118691259Y-114511790D01*
X114287785Y-114511790D01*
X114251609Y-114508227D01*
X114215433Y-114511790D01*
X114215424Y-114511790D01*
X114107211Y-114522448D01*
X113968361Y-114564568D01*
X113840397Y-114632966D01*
X113728235Y-114725015D01*
X113705164Y-114753127D01*
X113546363Y-114911928D01*
X113109990Y-114911928D01*
X113109990Y-113939260D01*
X113123000Y-113926250D01*
X113123000Y-112877000D01*
X113103000Y-112877000D01*
X113103000Y-112623000D01*
X113123000Y-112623000D01*
X113123000Y-111573750D01*
X112964250Y-111415000D01*
X112675000Y-111411928D01*
X112550518Y-111424188D01*
X112430820Y-111460498D01*
X112320506Y-111519463D01*
X112223815Y-111598815D01*
X112144463Y-111695506D01*
X112085498Y-111805820D01*
X112049188Y-111925518D01*
X112036928Y-112050000D01*
X112039710Y-112425181D01*
X109564529Y-109950000D01*
X111925928Y-109950000D01*
X111938188Y-110074482D01*
X111974498Y-110194180D01*
X112033463Y-110304494D01*
X112112815Y-110401185D01*
X112209506Y-110480537D01*
X112319820Y-110539502D01*
X112439518Y-110575812D01*
X112564000Y-110588072D01*
X112853250Y-110585000D01*
X113012000Y-110426250D01*
X113012000Y-109377000D01*
X112087750Y-109377000D01*
X111929000Y-109535750D01*
X111925928Y-109950000D01*
X109564529Y-109950000D01*
X108164529Y-108550000D01*
X111925928Y-108550000D01*
X111929000Y-108964250D01*
X112087750Y-109123000D01*
X113012000Y-109123000D01*
X113012000Y-108073750D01*
X112853250Y-107915000D01*
X112564000Y-107911928D01*
X112439518Y-107924188D01*
X112319820Y-107960498D01*
X112209506Y-108019463D01*
X112112815Y-108098815D01*
X112033463Y-108195506D01*
X111974498Y-108305820D01*
X111938188Y-108425518D01*
X111925928Y-108550000D01*
X108164529Y-108550000D01*
X103052029Y-103437500D01*
X106236928Y-103437500D01*
X106249188Y-103561982D01*
X106285498Y-103681680D01*
X106344463Y-103791994D01*
X106423815Y-103888685D01*
X106520506Y-103968037D01*
X106630820Y-104027002D01*
X106750518Y-104063312D01*
X106875000Y-104075572D01*
X107464250Y-104072500D01*
X107623000Y-103913750D01*
X107623000Y-102852000D01*
X107877000Y-102852000D01*
X107877000Y-103913750D01*
X108035750Y-104072500D01*
X108625000Y-104075572D01*
X108749482Y-104063312D01*
X108869180Y-104027002D01*
X108979494Y-103968037D01*
X109076185Y-103888685D01*
X109155537Y-103791994D01*
X109214502Y-103681680D01*
X109250812Y-103561982D01*
X109263072Y-103437500D01*
X109260000Y-103010750D01*
X109101250Y-102852000D01*
X107877000Y-102852000D01*
X107623000Y-102852000D01*
X106398750Y-102852000D01*
X106240000Y-103010750D01*
X106236928Y-103437500D01*
X103052029Y-103437500D01*
X102663201Y-103048673D01*
X102663201Y-102012500D01*
X106236928Y-102012500D01*
X106240000Y-102439250D01*
X106398750Y-102598000D01*
X107623000Y-102598000D01*
X107623000Y-101536250D01*
X107877000Y-101536250D01*
X107877000Y-102598000D01*
X109101250Y-102598000D01*
X109260000Y-102439250D01*
X109261830Y-102185000D01*
X110161928Y-102185000D01*
X110174188Y-102309482D01*
X110210498Y-102429180D01*
X110269463Y-102539494D01*
X110293730Y-102569064D01*
X110221916Y-102703418D01*
X110177071Y-102851255D01*
X110161928Y-103005000D01*
X110161928Y-103305000D01*
X110177071Y-103458745D01*
X110221916Y-103606582D01*
X110294742Y-103742829D01*
X110392749Y-103862251D01*
X110512171Y-103960258D01*
X110648418Y-104033084D01*
X110796255Y-104077929D01*
X110950000Y-104093072D01*
X112600000Y-104093072D01*
X112753745Y-104077929D01*
X112901582Y-104033084D01*
X113037829Y-103960258D01*
X113157251Y-103862251D01*
X113255258Y-103742829D01*
X113328084Y-103606582D01*
X113372929Y-103458745D01*
X113388072Y-103305000D01*
X113388072Y-103005000D01*
X113372929Y-102851255D01*
X113328084Y-102703418D01*
X113256270Y-102569064D01*
X113280537Y-102539494D01*
X113339502Y-102429180D01*
X113375812Y-102309482D01*
X113388072Y-102185000D01*
X113385000Y-102170750D01*
X113226250Y-102012000D01*
X111902000Y-102012000D01*
X111902000Y-102032000D01*
X111648000Y-102032000D01*
X111648000Y-102012000D01*
X110323750Y-102012000D01*
X110165000Y-102170750D01*
X110161928Y-102185000D01*
X109261830Y-102185000D01*
X109263072Y-102012500D01*
X109250812Y-101888018D01*
X109214502Y-101768320D01*
X109155537Y-101658006D01*
X109076185Y-101561315D01*
X108979494Y-101481963D01*
X108869180Y-101422998D01*
X108749482Y-101386688D01*
X108625000Y-101374428D01*
X108035750Y-101377500D01*
X107877000Y-101536250D01*
X107623000Y-101536250D01*
X107464250Y-101377500D01*
X106875000Y-101374428D01*
X106750518Y-101386688D01*
X106630820Y-101422998D01*
X106520506Y-101481963D01*
X106423815Y-101561315D01*
X106344463Y-101658006D01*
X106285498Y-101768320D01*
X106249188Y-101888018D01*
X106236928Y-102012500D01*
X102663201Y-102012500D01*
X102663201Y-99262787D01*
X102666765Y-99226601D01*
X102652543Y-99082202D01*
X102646339Y-99061751D01*
X102610423Y-98943352D01*
X102542025Y-98815388D01*
X102494248Y-98757171D01*
X102473043Y-98731333D01*
X102473042Y-98731332D01*
X102449976Y-98703226D01*
X102421870Y-98680160D01*
X102199082Y-98457372D01*
X102200050Y-98455035D01*
X102260000Y-98153647D01*
X102260000Y-97846353D01*
X102200050Y-97544965D01*
X102082454Y-97261063D01*
X101911731Y-97005558D01*
X101694442Y-96788269D01*
X101438937Y-96617546D01*
X101155035Y-96499950D01*
X100853647Y-96440000D01*
X100546353Y-96440000D01*
X100244965Y-96499950D01*
X99961063Y-96617546D01*
X99705558Y-96788269D01*
X99488269Y-97005558D01*
X99317546Y-97261063D01*
X99199950Y-97544965D01*
X99140000Y-97846353D01*
X99140000Y-98153647D01*
X99199950Y-98455035D01*
X99317546Y-98738937D01*
X99488269Y-98994442D01*
X99705558Y-99211731D01*
X99961063Y-99382454D01*
X100244965Y-99500050D01*
X100546353Y-99560000D01*
X100853647Y-99560000D01*
X101155035Y-99500050D01*
X101157372Y-99499082D01*
X101190002Y-99531712D01*
X101190002Y-100015358D01*
X100941243Y-99951127D01*
X100634438Y-99933824D01*
X100330152Y-99976708D01*
X100040079Y-100078132D01*
X99884393Y-100161347D01*
X99797688Y-100418083D01*
X100700000Y-101320395D01*
X100714143Y-101306253D01*
X100893748Y-101485858D01*
X100879605Y-101500000D01*
X100893748Y-101514143D01*
X100714143Y-101693748D01*
X100700000Y-101679605D01*
X100685858Y-101693748D01*
X100506253Y-101514143D01*
X100520395Y-101500000D01*
X100095991Y-101075596D01*
X100088823Y-101062186D01*
X99996774Y-100950024D01*
X99968662Y-100926953D01*
X99266000Y-100224291D01*
X99266000Y-100149933D01*
X99226956Y-99953644D01*
X99150368Y-99768744D01*
X99039179Y-99602338D01*
X98897662Y-99460821D01*
X98731256Y-99349632D01*
X98546356Y-99273044D01*
X98350067Y-99234000D01*
X98149933Y-99234000D01*
X97953644Y-99273044D01*
X97768744Y-99349632D01*
X97602338Y-99460821D01*
X97460821Y-99602338D01*
X97349632Y-99768744D01*
X97273044Y-99953644D01*
X97234000Y-100149933D01*
X97234000Y-100350067D01*
X97273044Y-100546356D01*
X97349632Y-100731256D01*
X97460821Y-100897662D01*
X97602338Y-101039179D01*
X97768744Y-101150368D01*
X97953644Y-101226956D01*
X98149933Y-101266000D01*
X98224291Y-101266000D01*
X98736800Y-101778509D01*
X98736799Y-116052586D01*
X98733235Y-116088769D01*
X98736799Y-116124952D01*
X98736799Y-116124954D01*
X98747457Y-116233167D01*
X98789577Y-116372017D01*
X98843260Y-116472451D01*
X98857975Y-116499981D01*
X98904526Y-116556703D01*
X98950024Y-116612143D01*
X98978131Y-116635210D01*
X102588189Y-120245269D01*
X102611255Y-120273375D01*
X102723417Y-120365424D01*
X102851381Y-120433822D01*
X102916043Y-120453437D01*
X102990231Y-120475942D01*
X103134630Y-120490164D01*
X103170816Y-120486600D01*
X104407716Y-120486600D01*
X104255558Y-120588269D01*
X104038269Y-120805558D01*
X103867546Y-121061063D01*
X103749950Y-121344965D01*
X103690000Y-121646353D01*
X103690000Y-121953647D01*
X103749950Y-122255035D01*
X103867546Y-122538937D01*
X104038269Y-122794442D01*
X104255558Y-123011731D01*
X104511063Y-123182454D01*
X104794965Y-123300050D01*
X105096353Y-123360000D01*
X105403647Y-123360000D01*
X105705035Y-123300050D01*
X105988937Y-123182454D01*
X106244442Y-123011731D01*
X106461731Y-122794442D01*
X106632454Y-122538937D01*
X106750050Y-122255035D01*
X106810000Y-121953647D01*
X106810000Y-121646353D01*
X106750050Y-121344965D01*
X106749082Y-121342628D01*
X107184921Y-120906789D01*
X107641135Y-120906789D01*
X107411347Y-120984393D01*
X107277952Y-121261223D01*
X107201127Y-121558757D01*
X107183824Y-121865562D01*
X107226708Y-122169848D01*
X107328132Y-122459921D01*
X107411347Y-122615607D01*
X107668083Y-122702312D01*
X108570395Y-121800000D01*
X108556253Y-121785858D01*
X108735858Y-121606253D01*
X108750000Y-121620395D01*
X108764143Y-121606253D01*
X108943748Y-121785858D01*
X108929605Y-121800000D01*
X108943748Y-121814143D01*
X108764143Y-121993748D01*
X108750000Y-121979605D01*
X108325596Y-122404009D01*
X108312186Y-122411177D01*
X108200024Y-122503226D01*
X108176953Y-122531338D01*
X107474291Y-123234000D01*
X107399933Y-123234000D01*
X107203644Y-123273044D01*
X107018744Y-123349632D01*
X106852338Y-123460821D01*
X106710821Y-123602338D01*
X106599632Y-123768744D01*
X106523044Y-123953644D01*
X106484000Y-124149933D01*
X106484000Y-124350067D01*
X106523044Y-124546356D01*
X106599632Y-124731256D01*
X106710821Y-124897662D01*
X106852338Y-125039179D01*
X107018744Y-125150368D01*
X107203644Y-125226956D01*
X107399933Y-125266000D01*
X107600067Y-125266000D01*
X107796356Y-125226956D01*
X107981256Y-125150368D01*
X108147662Y-125039179D01*
X108289179Y-124897662D01*
X108400368Y-124731256D01*
X108476956Y-124546356D01*
X108516000Y-124350067D01*
X108516000Y-124275709D01*
X109028508Y-123763201D01*
X120437216Y-123763201D01*
X120473399Y-123766765D01*
X120509582Y-123763201D01*
X120509585Y-123763201D01*
X120617798Y-123752543D01*
X120756648Y-123710423D01*
X120884612Y-123642025D01*
X120996774Y-123549976D01*
X121019844Y-123521865D01*
X121659792Y-122881917D01*
X121847688Y-122881917D01*
X121934393Y-123138653D01*
X122211223Y-123272048D01*
X122508757Y-123348873D01*
X122815562Y-123366176D01*
X123119848Y-123323292D01*
X123409921Y-123221868D01*
X123565607Y-123138653D01*
X123652312Y-122881917D01*
X122750000Y-121979605D01*
X121847688Y-122881917D01*
X121659792Y-122881917D01*
X121745269Y-122796441D01*
X121773375Y-122773375D01*
X121865424Y-122661213D01*
X121933822Y-122533249D01*
X121975918Y-122394477D01*
X122570395Y-121800000D01*
X122929605Y-121800000D01*
X123831917Y-122702312D01*
X124088653Y-122615607D01*
X124222048Y-122338777D01*
X124298873Y-122041243D01*
X124316176Y-121734438D01*
X124273292Y-121430152D01*
X124171868Y-121140079D01*
X124088653Y-120984393D01*
X123831917Y-120897688D01*
X122929605Y-121800000D01*
X122570395Y-121800000D01*
X122556253Y-121785858D01*
X122735858Y-121606253D01*
X122750000Y-121620395D01*
X123495395Y-120875000D01*
X125186928Y-120875000D01*
X125186928Y-122725000D01*
X125199188Y-122849482D01*
X125235498Y-122969180D01*
X125294463Y-123079494D01*
X125373815Y-123176185D01*
X125470506Y-123255537D01*
X125580820Y-123314502D01*
X125700518Y-123350812D01*
X125825000Y-123363072D01*
X127675000Y-123363072D01*
X127799482Y-123350812D01*
X127919180Y-123314502D01*
X128029494Y-123255537D01*
X128126185Y-123176185D01*
X128205537Y-123079494D01*
X128264502Y-122969180D01*
X128290972Y-122881917D01*
X129347688Y-122881917D01*
X129434393Y-123138653D01*
X129711223Y-123272048D01*
X130008757Y-123348873D01*
X130315562Y-123366176D01*
X130619848Y-123323292D01*
X130909921Y-123221868D01*
X131065607Y-123138653D01*
X131152312Y-122881917D01*
X130250000Y-121979605D01*
X129347688Y-122881917D01*
X128290972Y-122881917D01*
X128300812Y-122849482D01*
X128313072Y-122725000D01*
X128313072Y-121865562D01*
X128683824Y-121865562D01*
X128726708Y-122169848D01*
X128828132Y-122459921D01*
X128911347Y-122615607D01*
X129168083Y-122702312D01*
X130070395Y-121800000D01*
X130429605Y-121800000D01*
X131331917Y-122702312D01*
X131588653Y-122615607D01*
X131722048Y-122338777D01*
X131798873Y-122041243D01*
X131816176Y-121734438D01*
X131773292Y-121430152D01*
X131671868Y-121140079D01*
X131588653Y-120984393D01*
X131331917Y-120897688D01*
X130429605Y-121800000D01*
X130070395Y-121800000D01*
X129168083Y-120897688D01*
X128911347Y-120984393D01*
X128777952Y-121261223D01*
X128701127Y-121558757D01*
X128683824Y-121865562D01*
X128313072Y-121865562D01*
X128313072Y-120875000D01*
X128300812Y-120750518D01*
X128290973Y-120718083D01*
X129347688Y-120718083D01*
X130250000Y-121620395D01*
X131152312Y-120718083D01*
X131065607Y-120461347D01*
X130788777Y-120327952D01*
X130491243Y-120251127D01*
X130184438Y-120233824D01*
X129880152Y-120276708D01*
X129590079Y-120378132D01*
X129434393Y-120461347D01*
X129347688Y-120718083D01*
X128290973Y-120718083D01*
X128264502Y-120630820D01*
X128205537Y-120520506D01*
X128126185Y-120423815D01*
X128029494Y-120344463D01*
X127919180Y-120285498D01*
X127799482Y-120249188D01*
X127675000Y-120236928D01*
X125825000Y-120236928D01*
X125700518Y-120249188D01*
X125580820Y-120285498D01*
X125470506Y-120344463D01*
X125373815Y-120423815D01*
X125294463Y-120520506D01*
X125235498Y-120630820D01*
X125199188Y-120750518D01*
X125186928Y-120875000D01*
X123495395Y-120875000D01*
X123652312Y-120718083D01*
X123565607Y-120461347D01*
X123330376Y-120347997D01*
X125717552Y-117960822D01*
X125768051Y-118002265D01*
X125891332Y-118068160D01*
X126025100Y-118108738D01*
X126164213Y-118122439D01*
X126303326Y-118108738D01*
X126437094Y-118068160D01*
X126539652Y-118013342D01*
X127471734Y-118945424D01*
X127494800Y-118973530D01*
X127522906Y-118996596D01*
X127522907Y-118996597D01*
X127606961Y-119065579D01*
X127630630Y-119078230D01*
X127734926Y-119133977D01*
X127873776Y-119176097D01*
X127981989Y-119186755D01*
X127981991Y-119186755D01*
X128018174Y-119190319D01*
X128054358Y-119186755D01*
X132763662Y-119186755D01*
X132799845Y-119190319D01*
X132836028Y-119186755D01*
X132836031Y-119186755D01*
X132944244Y-119176097D01*
X133083094Y-119133977D01*
X133211058Y-119065579D01*
X133323220Y-118973530D01*
X133346290Y-118945419D01*
X134055110Y-118236600D01*
X135013817Y-118236600D01*
X135050000Y-118240164D01*
X135086183Y-118236600D01*
X135086186Y-118236600D01*
X135194399Y-118225942D01*
X135333249Y-118183822D01*
X135461213Y-118115424D01*
X135573375Y-118023375D01*
X135596445Y-117995264D01*
X136003637Y-117588072D01*
X136440011Y-117588072D01*
X136440011Y-118068280D01*
X134207373Y-120300918D01*
X134205035Y-120299950D01*
X133903647Y-120240000D01*
X133596353Y-120240000D01*
X133294965Y-120299950D01*
X133011063Y-120417546D01*
X132755558Y-120588269D01*
X132538269Y-120805558D01*
X132367546Y-121061063D01*
X132249950Y-121344965D01*
X132190000Y-121646353D01*
X132190000Y-121953647D01*
X132249950Y-122255035D01*
X132367546Y-122538937D01*
X132538269Y-122794442D01*
X132755558Y-123011731D01*
X133011063Y-123182454D01*
X133294965Y-123300050D01*
X133596353Y-123360000D01*
X133903647Y-123360000D01*
X134205035Y-123300050D01*
X134488937Y-123182454D01*
X134744442Y-123011731D01*
X134874256Y-122881917D01*
X136347688Y-122881917D01*
X136434393Y-123138653D01*
X136711223Y-123272048D01*
X137008757Y-123348873D01*
X137315562Y-123366176D01*
X137619848Y-123323292D01*
X137909921Y-123221868D01*
X138065607Y-123138653D01*
X138152312Y-122881917D01*
X137250000Y-121979605D01*
X136347688Y-122881917D01*
X134874256Y-122881917D01*
X134961731Y-122794442D01*
X135132454Y-122538937D01*
X135250050Y-122255035D01*
X135310000Y-121953647D01*
X135310000Y-121865562D01*
X135683824Y-121865562D01*
X135726708Y-122169848D01*
X135828132Y-122459921D01*
X135911347Y-122615607D01*
X136168083Y-122702312D01*
X137070395Y-121800000D01*
X137429605Y-121800000D01*
X138331917Y-122702312D01*
X138588653Y-122615607D01*
X138722048Y-122338777D01*
X138798873Y-122041243D01*
X138816176Y-121734438D01*
X138773292Y-121430152D01*
X138671868Y-121140079D01*
X138588653Y-120984393D01*
X138331917Y-120897688D01*
X137429605Y-121800000D01*
X137070395Y-121800000D01*
X136168083Y-120897688D01*
X135911347Y-120984393D01*
X135777952Y-121261223D01*
X135701127Y-121558757D01*
X135683824Y-121865562D01*
X135310000Y-121865562D01*
X135310000Y-121646353D01*
X135250050Y-121344965D01*
X135249082Y-121342627D01*
X135873626Y-120718083D01*
X136347688Y-120718083D01*
X137250000Y-121620395D01*
X138152312Y-120718083D01*
X138065607Y-120461347D01*
X137788777Y-120327952D01*
X137491243Y-120251127D01*
X137184438Y-120233824D01*
X136880152Y-120276708D01*
X136590079Y-120378132D01*
X136434393Y-120461347D01*
X136347688Y-120718083D01*
X135873626Y-120718083D01*
X137250000Y-119341709D01*
X139250918Y-121342628D01*
X139249950Y-121344965D01*
X139190000Y-121646353D01*
X139190000Y-121953647D01*
X139249950Y-122255035D01*
X139367546Y-122538937D01*
X139538269Y-122794442D01*
X139755558Y-123011731D01*
X140011063Y-123182454D01*
X140294965Y-123300050D01*
X140596353Y-123360000D01*
X140903647Y-123360000D01*
X141205035Y-123300050D01*
X141488937Y-123182454D01*
X141744442Y-123011731D01*
X141874256Y-122881917D01*
X143347688Y-122881917D01*
X143434393Y-123138653D01*
X143711223Y-123272048D01*
X144008757Y-123348873D01*
X144315562Y-123366176D01*
X144619848Y-123323292D01*
X144909921Y-123221868D01*
X145065607Y-123138653D01*
X145152312Y-122881917D01*
X144250000Y-121979605D01*
X143347688Y-122881917D01*
X141874256Y-122881917D01*
X141961731Y-122794442D01*
X142132454Y-122538937D01*
X142250050Y-122255035D01*
X142310000Y-121953647D01*
X142310000Y-121646353D01*
X142250050Y-121344965D01*
X142235567Y-121309999D01*
X142765358Y-121309999D01*
X142701127Y-121558757D01*
X142683824Y-121865562D01*
X142726708Y-122169848D01*
X142828132Y-122459921D01*
X142911347Y-122615607D01*
X143168083Y-122702312D01*
X144070395Y-121800000D01*
X144056253Y-121785858D01*
X144235858Y-121606253D01*
X144250000Y-121620395D01*
X144264143Y-121606253D01*
X144443748Y-121785858D01*
X144429605Y-121800000D01*
X145331917Y-122702312D01*
X145588653Y-122615607D01*
X145722048Y-122338777D01*
X145798873Y-122041243D01*
X145816176Y-121734438D01*
X145773292Y-121430152D01*
X145731281Y-121309999D01*
X146218290Y-121309999D01*
X146250918Y-121342627D01*
X146249950Y-121344965D01*
X146190000Y-121646353D01*
X146190000Y-121953647D01*
X146249950Y-122255035D01*
X146367546Y-122538937D01*
X146538269Y-122794442D01*
X146755558Y-123011731D01*
X147011063Y-123182454D01*
X147294965Y-123300050D01*
X147596353Y-123360000D01*
X147903647Y-123360000D01*
X148205035Y-123300050D01*
X148488937Y-123182454D01*
X148744442Y-123011731D01*
X148874256Y-122881917D01*
X150347688Y-122881917D01*
X150434393Y-123138653D01*
X150711223Y-123272048D01*
X151008757Y-123348873D01*
X151315562Y-123366176D01*
X151619848Y-123323292D01*
X151909921Y-123221868D01*
X152065607Y-123138653D01*
X152152312Y-122881917D01*
X151250000Y-121979605D01*
X150347688Y-122881917D01*
X148874256Y-122881917D01*
X148961731Y-122794442D01*
X149132454Y-122538937D01*
X149250050Y-122255035D01*
X149310000Y-121953647D01*
X149310000Y-121865562D01*
X149683824Y-121865562D01*
X149726708Y-122169848D01*
X149828132Y-122459921D01*
X149911347Y-122615607D01*
X150168083Y-122702312D01*
X151070395Y-121800000D01*
X151429605Y-121800000D01*
X152331917Y-122702312D01*
X152588653Y-122615607D01*
X152722048Y-122338777D01*
X152798873Y-122041243D01*
X152816176Y-121734438D01*
X152773292Y-121430152D01*
X152671868Y-121140079D01*
X152588653Y-120984393D01*
X152331917Y-120897688D01*
X151429605Y-121800000D01*
X151070395Y-121800000D01*
X150168083Y-120897688D01*
X149911347Y-120984393D01*
X149777952Y-121261223D01*
X149701127Y-121558757D01*
X149683824Y-121865562D01*
X149310000Y-121865562D01*
X149310000Y-121646353D01*
X149250050Y-121344965D01*
X149132454Y-121061063D01*
X148961731Y-120805558D01*
X148874256Y-120718083D01*
X150347688Y-120718083D01*
X151250000Y-121620395D01*
X152152312Y-120718083D01*
X152065607Y-120461347D01*
X151788777Y-120327952D01*
X151491243Y-120251127D01*
X151184438Y-120233824D01*
X150880152Y-120276708D01*
X150590079Y-120378132D01*
X150434393Y-120461347D01*
X150347688Y-120718083D01*
X148874256Y-120718083D01*
X148744442Y-120588269D01*
X148488937Y-120417546D01*
X148205035Y-120299950D01*
X147903647Y-120240000D01*
X147596353Y-120240000D01*
X147294965Y-120299950D01*
X147292627Y-120300918D01*
X147069844Y-120078135D01*
X147046774Y-120050024D01*
X146934612Y-119957975D01*
X146806648Y-119889577D01*
X146667798Y-119847457D01*
X146559585Y-119836799D01*
X146559582Y-119836799D01*
X146523399Y-119833235D01*
X146487216Y-119836799D01*
X140398733Y-119836799D01*
X138719630Y-118157697D01*
X138719630Y-116498271D01*
X138851467Y-116816554D01*
X139271161Y-117444670D01*
X139805330Y-117978839D01*
X140433446Y-118398533D01*
X141131372Y-118687623D01*
X141872285Y-118835000D01*
X142627715Y-118835000D01*
X143368628Y-118687623D01*
X144066554Y-118398533D01*
X144694670Y-117978839D01*
X145228839Y-117444670D01*
X145648533Y-116816554D01*
X145937623Y-116118628D01*
X146085000Y-115377715D01*
X146085000Y-114622285D01*
X146075595Y-114575000D01*
X147236928Y-114575000D01*
X147236928Y-116425000D01*
X147249188Y-116549482D01*
X147285498Y-116669180D01*
X147344463Y-116779494D01*
X147423815Y-116876185D01*
X147520506Y-116955537D01*
X147630820Y-117014502D01*
X147750518Y-117050812D01*
X147875000Y-117063072D01*
X149725000Y-117063072D01*
X149849482Y-117050812D01*
X149969180Y-117014502D01*
X150079494Y-116955537D01*
X150176185Y-116876185D01*
X150255537Y-116779494D01*
X150314502Y-116669180D01*
X150350812Y-116549482D01*
X150363072Y-116425000D01*
X150363072Y-114575000D01*
X150350812Y-114450518D01*
X150314502Y-114330820D01*
X150255537Y-114220506D01*
X150176185Y-114123815D01*
X150079494Y-114044463D01*
X149969180Y-113985498D01*
X149849482Y-113949188D01*
X149725000Y-113936928D01*
X147875000Y-113936928D01*
X147750518Y-113949188D01*
X147630820Y-113985498D01*
X147520506Y-114044463D01*
X147423815Y-114123815D01*
X147344463Y-114220506D01*
X147285498Y-114330820D01*
X147249188Y-114450518D01*
X147236928Y-114575000D01*
X146075595Y-114575000D01*
X145937623Y-113881372D01*
X145648533Y-113183446D01*
X145580694Y-113081917D01*
X147897688Y-113081917D01*
X147984393Y-113338653D01*
X148261223Y-113472048D01*
X148558757Y-113548873D01*
X148865562Y-113566176D01*
X149169848Y-113523292D01*
X149459921Y-113421868D01*
X149615607Y-113338653D01*
X149702312Y-113081917D01*
X148800000Y-112179605D01*
X147897688Y-113081917D01*
X145580694Y-113081917D01*
X145228839Y-112555330D01*
X144739071Y-112065562D01*
X147233824Y-112065562D01*
X147276708Y-112369848D01*
X147378132Y-112659921D01*
X147461347Y-112815607D01*
X147718083Y-112902312D01*
X148620395Y-112000000D01*
X148979605Y-112000000D01*
X149881917Y-112902312D01*
X150138653Y-112815607D01*
X150272048Y-112538777D01*
X150348873Y-112241243D01*
X150366176Y-111934438D01*
X150323292Y-111630152D01*
X150221868Y-111340079D01*
X150138653Y-111184393D01*
X149881917Y-111097688D01*
X148979605Y-112000000D01*
X148620395Y-112000000D01*
X147718083Y-111097688D01*
X147461347Y-111184393D01*
X147327952Y-111461223D01*
X147251127Y-111758757D01*
X147233824Y-112065562D01*
X144739071Y-112065562D01*
X144694670Y-112021161D01*
X144066554Y-111601467D01*
X143368628Y-111312377D01*
X142627715Y-111165000D01*
X141944339Y-111165000D01*
X142191256Y-110918083D01*
X147897688Y-110918083D01*
X148800000Y-111820395D01*
X149702312Y-110918083D01*
X149615607Y-110661347D01*
X149338777Y-110527952D01*
X149041243Y-110451127D01*
X148734438Y-110433824D01*
X148430152Y-110476708D01*
X148140079Y-110578132D01*
X147984393Y-110661347D01*
X147897688Y-110918083D01*
X142191256Y-110918083D01*
X143872739Y-109236600D01*
X147416578Y-109236600D01*
X147417546Y-109238937D01*
X147588269Y-109494442D01*
X147805558Y-109711731D01*
X148061063Y-109882454D01*
X148344965Y-110000050D01*
X148646353Y-110060000D01*
X148953647Y-110060000D01*
X149255035Y-110000050D01*
X149538937Y-109882454D01*
X149794442Y-109711731D01*
X150011731Y-109494442D01*
X150182454Y-109238937D01*
X150300050Y-108955035D01*
X150360000Y-108653647D01*
X150360000Y-108346353D01*
X150300050Y-108044965D01*
X150182454Y-107761063D01*
X150011731Y-107505558D01*
X149794442Y-107288269D01*
X149538937Y-107117546D01*
X149255035Y-106999950D01*
X148953647Y-106940000D01*
X148646353Y-106940000D01*
X148344965Y-106999950D01*
X148061063Y-107117546D01*
X147805558Y-107288269D01*
X147588269Y-107505558D01*
X147417546Y-107761063D01*
X147416578Y-107763400D01*
X143603805Y-107763400D01*
X143580595Y-107761114D01*
X145259792Y-106081917D01*
X147897688Y-106081917D01*
X147984393Y-106338653D01*
X148261223Y-106472048D01*
X148558757Y-106548873D01*
X148865562Y-106566176D01*
X149169848Y-106523292D01*
X149459921Y-106421868D01*
X149615607Y-106338653D01*
X149702312Y-106081917D01*
X148800000Y-105179605D01*
X147897688Y-106081917D01*
X145259792Y-106081917D01*
X146276147Y-105065562D01*
X147233824Y-105065562D01*
X147276708Y-105369848D01*
X147378132Y-105659921D01*
X147461347Y-105815607D01*
X147718083Y-105902312D01*
X148620395Y-105000000D01*
X148979605Y-105000000D01*
X149881917Y-105902312D01*
X150138653Y-105815607D01*
X150272048Y-105538777D01*
X150348873Y-105241243D01*
X150366176Y-104934438D01*
X150323292Y-104630152D01*
X150221868Y-104340079D01*
X150138653Y-104184393D01*
X149881917Y-104097688D01*
X148979605Y-105000000D01*
X148620395Y-105000000D01*
X147718083Y-104097688D01*
X147461347Y-104184393D01*
X147327952Y-104461223D01*
X147251127Y-104758757D01*
X147233824Y-105065562D01*
X146276147Y-105065562D01*
X147423626Y-103918083D01*
X147897688Y-103918083D01*
X148800000Y-104820395D01*
X149702312Y-103918083D01*
X149615607Y-103661347D01*
X149338777Y-103527952D01*
X149041243Y-103451127D01*
X148734438Y-103433824D01*
X148430152Y-103476708D01*
X148140079Y-103578132D01*
X147984393Y-103661347D01*
X147897688Y-103918083D01*
X147423626Y-103918083D01*
X148342628Y-102999082D01*
X148344965Y-103000050D01*
X148646353Y-103060000D01*
X148953647Y-103060000D01*
X149255035Y-103000050D01*
X149538937Y-102882454D01*
X149794442Y-102711731D01*
X150011731Y-102494442D01*
X150182454Y-102238937D01*
X150300050Y-101955035D01*
X150360000Y-101653647D01*
X150360000Y-101346353D01*
X150300050Y-101044965D01*
X150182454Y-100761063D01*
X150011731Y-100505558D01*
X149794442Y-100288269D01*
X149538937Y-100117546D01*
X149255035Y-99999950D01*
X148953647Y-99940000D01*
X148646353Y-99940000D01*
X148344965Y-99999950D01*
X148309999Y-100014433D01*
X148309999Y-99484642D01*
X148558757Y-99548873D01*
X148865562Y-99566176D01*
X149169848Y-99523292D01*
X149459921Y-99421868D01*
X149615607Y-99338653D01*
X149702312Y-99081917D01*
X148800000Y-98179605D01*
X148785858Y-98193748D01*
X148606253Y-98014143D01*
X148620395Y-98000000D01*
X148979605Y-98000000D01*
X149881917Y-98902312D01*
X150138653Y-98815607D01*
X150272048Y-98538777D01*
X150348873Y-98241243D01*
X150366176Y-97934438D01*
X150323292Y-97630152D01*
X150221868Y-97340079D01*
X150138653Y-97184393D01*
X149881917Y-97097688D01*
X148979605Y-98000000D01*
X148620395Y-98000000D01*
X148606253Y-97985858D01*
X148785858Y-97806253D01*
X148800000Y-97820395D01*
X149702312Y-96918083D01*
X149615607Y-96661347D01*
X149338777Y-96527952D01*
X149041243Y-96451127D01*
X148734438Y-96433824D01*
X148430152Y-96476708D01*
X148309999Y-96518719D01*
X148309999Y-96031710D01*
X148342627Y-95999082D01*
X148344965Y-96000050D01*
X148646353Y-96060000D01*
X148953647Y-96060000D01*
X149255035Y-96000050D01*
X149538937Y-95882454D01*
X149794442Y-95711731D01*
X150011731Y-95494442D01*
X150182454Y-95238937D01*
X150300050Y-94955035D01*
X150360000Y-94653647D01*
X150360000Y-94346353D01*
X150300050Y-94044965D01*
X150182454Y-93761063D01*
X150011731Y-93505558D01*
X149794442Y-93288269D01*
X149538937Y-93117546D01*
X149255035Y-92999950D01*
X148953647Y-92940000D01*
X148646353Y-92940000D01*
X148344965Y-92999950D01*
X148061063Y-93117546D01*
X147805558Y-93288269D01*
X147588269Y-93505558D01*
X147417546Y-93761063D01*
X147299950Y-94044965D01*
X147240000Y-94346353D01*
X147240000Y-94653647D01*
X147299950Y-94955035D01*
X147300918Y-94957373D01*
X147078131Y-95180160D01*
X147050025Y-95203226D01*
X147026959Y-95231332D01*
X147026957Y-95231334D01*
X146957975Y-95315389D01*
X146917958Y-95390256D01*
X146889578Y-95443352D01*
X146847545Y-95581917D01*
X146847458Y-95582203D01*
X146833235Y-95726601D01*
X146836800Y-95762794D01*
X146836799Y-101851267D01*
X141437454Y-107250613D01*
X141404878Y-107218037D01*
X141238472Y-107106848D01*
X141053572Y-107030260D01*
X140857283Y-106991216D01*
X140657149Y-106991216D01*
X140460860Y-107030260D01*
X140275960Y-107106848D01*
X140109554Y-107218037D01*
X139968037Y-107359554D01*
X139856848Y-107525960D01*
X139780260Y-107710860D01*
X139741216Y-107907149D01*
X139741216Y-108107283D01*
X139780260Y-108303572D01*
X139790221Y-108327621D01*
X137912473Y-110205370D01*
X133398668Y-110205370D01*
X133362482Y-110201806D01*
X133326296Y-110205370D01*
X133218083Y-110216028D01*
X133079233Y-110258148D01*
X132956244Y-110323887D01*
X132951269Y-110326546D01*
X132905132Y-110364410D01*
X132839107Y-110418595D01*
X132816041Y-110446701D01*
X130506748Y-112755996D01*
X130395011Y-112645765D01*
X130170504Y-112645765D01*
X129931376Y-112884894D01*
X129751771Y-112705289D01*
X129990899Y-112466160D01*
X129990899Y-112241653D01*
X129753043Y-112000547D01*
X130663585Y-111090005D01*
X130752265Y-110981949D01*
X130813602Y-110867195D01*
X131609723Y-110071075D01*
X131637824Y-110048013D01*
X131660887Y-110019911D01*
X131660892Y-110019906D01*
X131729874Y-109935851D01*
X131746598Y-109904562D01*
X131798272Y-109807887D01*
X131840392Y-109669037D01*
X131851050Y-109560824D01*
X131851050Y-109560823D01*
X131854614Y-109524638D01*
X131851050Y-109488452D01*
X131851050Y-103010883D01*
X137495274Y-97366660D01*
X137523374Y-97343599D01*
X137546437Y-97315497D01*
X137546442Y-97315492D01*
X137615424Y-97231437D01*
X137636636Y-97191752D01*
X137683822Y-97103473D01*
X137725942Y-96964623D01*
X137736600Y-96856410D01*
X137736600Y-96856409D01*
X137740164Y-96820224D01*
X137736600Y-96784038D01*
X137736600Y-95263072D01*
X137925000Y-95263072D01*
X138049482Y-95250812D01*
X138169180Y-95214502D01*
X138279494Y-95155537D01*
X138376185Y-95076185D01*
X138455537Y-94979494D01*
X138514502Y-94869180D01*
X138550812Y-94749482D01*
X138563072Y-94625000D01*
X138563072Y-93620306D01*
X138851467Y-94316554D01*
X139271161Y-94944670D01*
X139805330Y-95478839D01*
X140433446Y-95898533D01*
X141131372Y-96187623D01*
X141872285Y-96335000D01*
X142627715Y-96335000D01*
X143368628Y-96187623D01*
X144066554Y-95898533D01*
X144694670Y-95478839D01*
X145228839Y-94944670D01*
X145648533Y-94316554D01*
X145937623Y-93618628D01*
X146085000Y-92877715D01*
X146085000Y-92122285D01*
X146076971Y-92081917D01*
X147897688Y-92081917D01*
X147984393Y-92338653D01*
X148261223Y-92472048D01*
X148558757Y-92548873D01*
X148865562Y-92566176D01*
X149169848Y-92523292D01*
X149459921Y-92421868D01*
X149615607Y-92338653D01*
X149702312Y-92081917D01*
X148800000Y-91179605D01*
X147897688Y-92081917D01*
X146076971Y-92081917D01*
X145937623Y-91381372D01*
X145806811Y-91065562D01*
X147233824Y-91065562D01*
X147276708Y-91369848D01*
X147378132Y-91659921D01*
X147461347Y-91815607D01*
X147718083Y-91902312D01*
X148620395Y-91000000D01*
X148979605Y-91000000D01*
X149881917Y-91902312D01*
X150138653Y-91815607D01*
X150272048Y-91538777D01*
X150348873Y-91241243D01*
X150366176Y-90934438D01*
X150323292Y-90630152D01*
X150221868Y-90340079D01*
X150138653Y-90184393D01*
X149881917Y-90097688D01*
X148979605Y-91000000D01*
X148620395Y-91000000D01*
X147718083Y-90097688D01*
X147461347Y-90184393D01*
X147327952Y-90461223D01*
X147251127Y-90758757D01*
X147233824Y-91065562D01*
X145806811Y-91065562D01*
X145648533Y-90683446D01*
X145228839Y-90055330D01*
X144858509Y-89685000D01*
X147976405Y-89685000D01*
X147897688Y-89918083D01*
X148800000Y-90820395D01*
X149702312Y-89918083D01*
X149623595Y-89685000D01*
X154315000Y-89685000D01*
X154315001Y-127315000D01*
X94935000Y-127315000D01*
X94935000Y-120875000D01*
X96686928Y-120875000D01*
X96686928Y-122725000D01*
X96699188Y-122849482D01*
X96735498Y-122969180D01*
X96794463Y-123079494D01*
X96873815Y-123176185D01*
X96970506Y-123255537D01*
X97080820Y-123314502D01*
X97200518Y-123350812D01*
X97325000Y-123363072D01*
X99175000Y-123363072D01*
X99299482Y-123350812D01*
X99419180Y-123314502D01*
X99529494Y-123255537D01*
X99626185Y-123176185D01*
X99705537Y-123079494D01*
X99764502Y-122969180D01*
X99790972Y-122881917D01*
X100847688Y-122881917D01*
X100934393Y-123138653D01*
X101211223Y-123272048D01*
X101508757Y-123348873D01*
X101815562Y-123366176D01*
X102119848Y-123323292D01*
X102409921Y-123221868D01*
X102565607Y-123138653D01*
X102652312Y-122881917D01*
X101750000Y-121979605D01*
X100847688Y-122881917D01*
X99790972Y-122881917D01*
X99800812Y-122849482D01*
X99813072Y-122725000D01*
X99813072Y-121865562D01*
X100183824Y-121865562D01*
X100226708Y-122169848D01*
X100328132Y-122459921D01*
X100411347Y-122615607D01*
X100668083Y-122702312D01*
X101570395Y-121800000D01*
X101929605Y-121800000D01*
X102831917Y-122702312D01*
X103088653Y-122615607D01*
X103222048Y-122338777D01*
X103298873Y-122041243D01*
X103316176Y-121734438D01*
X103273292Y-121430152D01*
X103171868Y-121140079D01*
X103088653Y-120984393D01*
X102831917Y-120897688D01*
X101929605Y-121800000D01*
X101570395Y-121800000D01*
X100668083Y-120897688D01*
X100411347Y-120984393D01*
X100277952Y-121261223D01*
X100201127Y-121558757D01*
X100183824Y-121865562D01*
X99813072Y-121865562D01*
X99813072Y-120875000D01*
X99800812Y-120750518D01*
X99790973Y-120718083D01*
X100847688Y-120718083D01*
X101750000Y-121620395D01*
X102652312Y-120718083D01*
X102565607Y-120461347D01*
X102288777Y-120327952D01*
X101991243Y-120251127D01*
X101684438Y-120233824D01*
X101380152Y-120276708D01*
X101090079Y-120378132D01*
X100934393Y-120461347D01*
X100847688Y-120718083D01*
X99790973Y-120718083D01*
X99764502Y-120630820D01*
X99705537Y-120520506D01*
X99626185Y-120423815D01*
X99529494Y-120344463D01*
X99419180Y-120285498D01*
X99299482Y-120249188D01*
X99175000Y-120236928D01*
X97325000Y-120236928D01*
X97200518Y-120249188D01*
X97080820Y-120285498D01*
X96970506Y-120344463D01*
X96873815Y-120423815D01*
X96794463Y-120520506D01*
X96735498Y-120630820D01*
X96699188Y-120750518D01*
X96686928Y-120875000D01*
X94935000Y-120875000D01*
X94935000Y-95581917D01*
X99797688Y-95581917D01*
X99884393Y-95838653D01*
X100161223Y-95972048D01*
X100458757Y-96048873D01*
X100765562Y-96066176D01*
X101069848Y-96023292D01*
X101359921Y-95921868D01*
X101515607Y-95838653D01*
X101602312Y-95581917D01*
X100700000Y-94679605D01*
X99797688Y-95581917D01*
X94935000Y-95581917D01*
X94935000Y-94565562D01*
X99133824Y-94565562D01*
X99176708Y-94869848D01*
X99278132Y-95159921D01*
X99361347Y-95315607D01*
X99618083Y-95402312D01*
X100520395Y-94500000D01*
X100879605Y-94500000D01*
X101781917Y-95402312D01*
X102038653Y-95315607D01*
X102172048Y-95038777D01*
X102248873Y-94741243D01*
X102266176Y-94434438D01*
X102223292Y-94130152D01*
X102121868Y-93840079D01*
X102038653Y-93684393D01*
X101781917Y-93597688D01*
X100879605Y-94500000D01*
X100520395Y-94500000D01*
X99618083Y-93597688D01*
X99361347Y-93684393D01*
X99227952Y-93961223D01*
X99151127Y-94258757D01*
X99133824Y-94565562D01*
X94935000Y-94565562D01*
X94935000Y-93418083D01*
X99797688Y-93418083D01*
X100700000Y-94320395D01*
X101602312Y-93418083D01*
X101515607Y-93161347D01*
X101238777Y-93027952D01*
X100941243Y-92951127D01*
X100634438Y-92933824D01*
X100330152Y-92976708D01*
X100040079Y-93078132D01*
X99884393Y-93161347D01*
X99797688Y-93418083D01*
X94935000Y-93418083D01*
X94935000Y-89685000D01*
X99273602Y-89685000D01*
X99244463Y-89720506D01*
G36*
X115943748Y-121785858D02*
G01*
X115929605Y-121800000D01*
X115943748Y-121814143D01*
X115764143Y-121993748D01*
X115750000Y-121979605D01*
X115735858Y-121993748D01*
X115556253Y-121814143D01*
X115570395Y-121800000D01*
X115556253Y-121785858D01*
X115735858Y-121606253D01*
X115750000Y-121620395D01*
X115764143Y-121606253D01*
X115943748Y-121785858D01*
G37*
X115943748Y-121785858D02*
X115929605Y-121800000D01*
X115943748Y-121814143D01*
X115764143Y-121993748D01*
X115750000Y-121979605D01*
X115735858Y-121993748D01*
X115556253Y-121814143D01*
X115570395Y-121800000D01*
X115556253Y-121785858D01*
X115735858Y-121606253D01*
X115750000Y-121620395D01*
X115764143Y-121606253D01*
X115943748Y-121785858D01*
G36*
X103851467Y-113183446D02*
G01*
X103562377Y-113881372D01*
X103415000Y-114622285D01*
X103415000Y-115377715D01*
X103562377Y-116118628D01*
X103851467Y-116816554D01*
X104271161Y-117444670D01*
X104805330Y-117978839D01*
X105433446Y-118398533D01*
X106131372Y-118687623D01*
X106872285Y-118835000D01*
X107627715Y-118835000D01*
X108368628Y-118687623D01*
X109066554Y-118398533D01*
X109694670Y-117978839D01*
X110228839Y-117444670D01*
X110648533Y-116816554D01*
X110830370Y-116377559D01*
X110830370Y-117226335D01*
X110826806Y-117262518D01*
X110830370Y-117298701D01*
X110830370Y-117298703D01*
X110841028Y-117406916D01*
X110883148Y-117545766D01*
X110944856Y-117661213D01*
X110951546Y-117673730D01*
X111018394Y-117755184D01*
X111043595Y-117785892D01*
X111071702Y-117808959D01*
X111816041Y-118553299D01*
X111839107Y-118581405D01*
X111951269Y-118673454D01*
X112079233Y-118741852D01*
X112181538Y-118772886D01*
X112218083Y-118783972D01*
X112362482Y-118798194D01*
X112398668Y-118794630D01*
X118681427Y-118794630D01*
X118462657Y-119013400D01*
X103439740Y-119013400D01*
X101351242Y-116924903D01*
X101359921Y-116921868D01*
X101515607Y-116838653D01*
X101602312Y-116581917D01*
X100700000Y-115679605D01*
X100685858Y-115693748D01*
X100506253Y-115514143D01*
X100520395Y-115500000D01*
X100879605Y-115500000D01*
X101781917Y-116402312D01*
X102038653Y-116315607D01*
X102172048Y-116038777D01*
X102248873Y-115741243D01*
X102266176Y-115434438D01*
X102223292Y-115130152D01*
X102121868Y-114840079D01*
X102038653Y-114684393D01*
X101781917Y-114597688D01*
X100879605Y-115500000D01*
X100520395Y-115500000D01*
X100506253Y-115485858D01*
X100685858Y-115306253D01*
X100700000Y-115320395D01*
X101602312Y-114418083D01*
X101515607Y-114161347D01*
X101238777Y-114027952D01*
X100941243Y-113951127D01*
X100634438Y-113933824D01*
X100330152Y-113976708D01*
X100209999Y-114018719D01*
X100209999Y-113485567D01*
X100244965Y-113500050D01*
X100546353Y-113560000D01*
X100853647Y-113560000D01*
X101155035Y-113500050D01*
X101438937Y-113382454D01*
X101694442Y-113211731D01*
X101911731Y-112994442D01*
X102082454Y-112738937D01*
X102083422Y-112736600D01*
X104150040Y-112736600D01*
X103851467Y-113183446D01*
G37*
X103851467Y-113183446D02*
X103562377Y-113881372D01*
X103415000Y-114622285D01*
X103415000Y-115377715D01*
X103562377Y-116118628D01*
X103851467Y-116816554D01*
X104271161Y-117444670D01*
X104805330Y-117978839D01*
X105433446Y-118398533D01*
X106131372Y-118687623D01*
X106872285Y-118835000D01*
X107627715Y-118835000D01*
X108368628Y-118687623D01*
X109066554Y-118398533D01*
X109694670Y-117978839D01*
X110228839Y-117444670D01*
X110648533Y-116816554D01*
X110830370Y-116377559D01*
X110830370Y-117226335D01*
X110826806Y-117262518D01*
X110830370Y-117298701D01*
X110830370Y-117298703D01*
X110841028Y-117406916D01*
X110883148Y-117545766D01*
X110944856Y-117661213D01*
X110951546Y-117673730D01*
X111018394Y-117755184D01*
X111043595Y-117785892D01*
X111071702Y-117808959D01*
X111816041Y-118553299D01*
X111839107Y-118581405D01*
X111951269Y-118673454D01*
X112079233Y-118741852D01*
X112181538Y-118772886D01*
X112218083Y-118783972D01*
X112362482Y-118798194D01*
X112398668Y-118794630D01*
X118681427Y-118794630D01*
X118462657Y-119013400D01*
X103439740Y-119013400D01*
X101351242Y-116924903D01*
X101359921Y-116921868D01*
X101515607Y-116838653D01*
X101602312Y-116581917D01*
X100700000Y-115679605D01*
X100685858Y-115693748D01*
X100506253Y-115514143D01*
X100520395Y-115500000D01*
X100879605Y-115500000D01*
X101781917Y-116402312D01*
X102038653Y-116315607D01*
X102172048Y-116038777D01*
X102248873Y-115741243D01*
X102266176Y-115434438D01*
X102223292Y-115130152D01*
X102121868Y-114840079D01*
X102038653Y-114684393D01*
X101781917Y-114597688D01*
X100879605Y-115500000D01*
X100520395Y-115500000D01*
X100506253Y-115485858D01*
X100685858Y-115306253D01*
X100700000Y-115320395D01*
X101602312Y-114418083D01*
X101515607Y-114161347D01*
X101238777Y-114027952D01*
X100941243Y-113951127D01*
X100634438Y-113933824D01*
X100330152Y-113976708D01*
X100209999Y-114018719D01*
X100209999Y-113485567D01*
X100244965Y-113500050D01*
X100546353Y-113560000D01*
X100853647Y-113560000D01*
X101155035Y-113500050D01*
X101438937Y-113382454D01*
X101694442Y-113211731D01*
X101911731Y-112994442D01*
X102082454Y-112738937D01*
X102083422Y-112736600D01*
X104150040Y-112736600D01*
X103851467Y-113183446D01*
G36*
X124102871Y-109212601D02*
G01*
X124125937Y-109240707D01*
X124154043Y-109263773D01*
X124154044Y-109263774D01*
X124181655Y-109286434D01*
X124238099Y-109332756D01*
X124366063Y-109401154D01*
X124504913Y-109443274D01*
X124613126Y-109453932D01*
X124613135Y-109453932D01*
X124649311Y-109457495D01*
X124685487Y-109453932D01*
X125956701Y-109453932D01*
X125935179Y-109494196D01*
X125893059Y-109633046D01*
X125882953Y-109735655D01*
X125878837Y-109777445D01*
X125882401Y-109813628D01*
X125882401Y-110655186D01*
X125882402Y-110655193D01*
X125882401Y-111332817D01*
X125878837Y-111369001D01*
X125882401Y-111405184D01*
X125882401Y-111405186D01*
X125893059Y-111513399D01*
X125935179Y-111652249D01*
X125992109Y-111758757D01*
X126003577Y-111780213D01*
X126065446Y-111855600D01*
X126095626Y-111892375D01*
X126123733Y-111915442D01*
X126234000Y-112025709D01*
X126234000Y-112100067D01*
X126273044Y-112296356D01*
X126349632Y-112481256D01*
X126460821Y-112647662D01*
X126602338Y-112789179D01*
X126768744Y-112900368D01*
X126953644Y-112976956D01*
X127149933Y-113016000D01*
X127350067Y-113016000D01*
X127546356Y-112976956D01*
X127731256Y-112900368D01*
X127897662Y-112789179D01*
X128039179Y-112647662D01*
X128150368Y-112481256D01*
X128226956Y-112296356D01*
X128266000Y-112100067D01*
X128266000Y-111899933D01*
X128226956Y-111703644D01*
X128150368Y-111518744D01*
X128039179Y-111352338D01*
X127897662Y-111210821D01*
X127731256Y-111099632D01*
X127546356Y-111023044D01*
X127355601Y-110985101D01*
X127355601Y-110655040D01*
X127412075Y-110701387D01*
X127445148Y-110719065D01*
X127462826Y-110752138D01*
X127551506Y-110860194D01*
X127657572Y-110966260D01*
X127765628Y-111054940D01*
X127798702Y-111072618D01*
X127816380Y-111105692D01*
X127905060Y-111213748D01*
X128011126Y-111319814D01*
X128119182Y-111408494D01*
X128152255Y-111426172D01*
X128169933Y-111459245D01*
X128258613Y-111567301D01*
X128364679Y-111673367D01*
X128472735Y-111762047D01*
X128505809Y-111779725D01*
X128523487Y-111812799D01*
X128612167Y-111920855D01*
X128718233Y-112026921D01*
X128795889Y-112090652D01*
X128795889Y-112124274D01*
X128796522Y-112124907D01*
X128729784Y-112131480D01*
X128646312Y-112156801D01*
X128538855Y-112156801D01*
X128474508Y-112236891D01*
X128474427Y-112237049D01*
X128472735Y-112237953D01*
X128364679Y-112326633D01*
X128258613Y-112432699D01*
X128169933Y-112540755D01*
X128152255Y-112573828D01*
X128119182Y-112591506D01*
X128011126Y-112680186D01*
X127905060Y-112786252D01*
X127816380Y-112894308D01*
X127798702Y-112927382D01*
X127765628Y-112945060D01*
X127657572Y-113033740D01*
X127551506Y-113139806D01*
X127462826Y-113247862D01*
X127445148Y-113280935D01*
X127412075Y-113298613D01*
X127304019Y-113387293D01*
X127197953Y-113493359D01*
X127109273Y-113601415D01*
X127091595Y-113634488D01*
X127058522Y-113652166D01*
X126950466Y-113740846D01*
X126844400Y-113846912D01*
X126755720Y-113954968D01*
X126738042Y-113988042D01*
X126704968Y-114005720D01*
X126596912Y-114094400D01*
X126490846Y-114200466D01*
X126402166Y-114308522D01*
X126384488Y-114341595D01*
X126351415Y-114359273D01*
X126243359Y-114447953D01*
X126137293Y-114554019D01*
X126048613Y-114662075D01*
X126030935Y-114695148D01*
X125997862Y-114712826D01*
X125889806Y-114801506D01*
X125783740Y-114907572D01*
X125695060Y-115015628D01*
X125677382Y-115048702D01*
X125644308Y-115066380D01*
X125536252Y-115155060D01*
X125430186Y-115261126D01*
X125341506Y-115369182D01*
X125323828Y-115402255D01*
X125290755Y-115419933D01*
X125182699Y-115508613D01*
X125076633Y-115614679D01*
X124987953Y-115722735D01*
X124970275Y-115755809D01*
X124937201Y-115773487D01*
X124829145Y-115862167D01*
X124750000Y-115941312D01*
X124670855Y-115862167D01*
X124562799Y-115773487D01*
X124529725Y-115755809D01*
X124512047Y-115722735D01*
X124423367Y-115614679D01*
X124317301Y-115508613D01*
X124209245Y-115419933D01*
X124176172Y-115402255D01*
X124158494Y-115369182D01*
X124069814Y-115261126D01*
X123963748Y-115155060D01*
X123855692Y-115066380D01*
X123822618Y-115048702D01*
X123804940Y-115015628D01*
X123716260Y-114907572D01*
X123610194Y-114801506D01*
X123502138Y-114712826D01*
X123469065Y-114695148D01*
X123451387Y-114662075D01*
X123362707Y-114554019D01*
X123256641Y-114447953D01*
X123148585Y-114359273D01*
X123115512Y-114341595D01*
X123097834Y-114308522D01*
X123009154Y-114200466D01*
X122903088Y-114094400D01*
X122795032Y-114005720D01*
X122761958Y-113988042D01*
X122744280Y-113954968D01*
X122655600Y-113846912D01*
X122549534Y-113740846D01*
X122441478Y-113652166D01*
X122408405Y-113634488D01*
X122390727Y-113601415D01*
X122302047Y-113493359D01*
X122195981Y-113387293D01*
X122087925Y-113298613D01*
X122054852Y-113280935D01*
X122037174Y-113247862D01*
X121948494Y-113139806D01*
X121842428Y-113033740D01*
X121734372Y-112945060D01*
X121732680Y-112944156D01*
X121732599Y-112943998D01*
X121668252Y-112863908D01*
X121560795Y-112863908D01*
X121477323Y-112838587D01*
X121440197Y-112834930D01*
X121436540Y-112797804D01*
X121411218Y-112714328D01*
X121411218Y-112606874D01*
X121331128Y-112542527D01*
X121330971Y-112542446D01*
X121330067Y-112540755D01*
X121241387Y-112432699D01*
X121135321Y-112326633D01*
X121027265Y-112237953D01*
X120994191Y-112220275D01*
X120976513Y-112187201D01*
X120887833Y-112079145D01*
X120781767Y-111973079D01*
X120704111Y-111909348D01*
X120704111Y-111875726D01*
X120703478Y-111875093D01*
X120770216Y-111868520D01*
X120853688Y-111843199D01*
X120961145Y-111843199D01*
X121025492Y-111763109D01*
X121025573Y-111762951D01*
X121027265Y-111762047D01*
X121135321Y-111673367D01*
X121241387Y-111567301D01*
X121330067Y-111459245D01*
X121347745Y-111426172D01*
X121380818Y-111408494D01*
X121488874Y-111319814D01*
X121594940Y-111213748D01*
X121683620Y-111105692D01*
X121684524Y-111104000D01*
X121684682Y-111103919D01*
X121764772Y-111039572D01*
X121764772Y-110932115D01*
X121790093Y-110848643D01*
X121793750Y-110811517D01*
X121830876Y-110807860D01*
X121914352Y-110782538D01*
X122021806Y-110782538D01*
X122086153Y-110702448D01*
X122086234Y-110702291D01*
X122087925Y-110701387D01*
X122195981Y-110612707D01*
X122302047Y-110506641D01*
X122390727Y-110398585D01*
X122391631Y-110396894D01*
X122391788Y-110396813D01*
X122471878Y-110332466D01*
X122471878Y-110225012D01*
X122497200Y-110141536D01*
X122500857Y-110104410D01*
X122537983Y-110100753D01*
X122621455Y-110075432D01*
X122728912Y-110075432D01*
X122793259Y-109995342D01*
X122793340Y-109995184D01*
X122795032Y-109994280D01*
X122903088Y-109905600D01*
X123009154Y-109799534D01*
X123097834Y-109691478D01*
X123098738Y-109689787D01*
X123098895Y-109689706D01*
X123178985Y-109625359D01*
X123178985Y-109517905D01*
X123204307Y-109434429D01*
X123207963Y-109397303D01*
X123245089Y-109393647D01*
X123328565Y-109368325D01*
X123436019Y-109368325D01*
X123500366Y-109288235D01*
X123500447Y-109288078D01*
X123502138Y-109287174D01*
X123610194Y-109198494D01*
X123716260Y-109092428D01*
X123804940Y-108984372D01*
X123805844Y-108982680D01*
X123806002Y-108982599D01*
X123843080Y-108952809D01*
X124102871Y-109212601D01*
G37*
X124102871Y-109212601D02*
X124125937Y-109240707D01*
X124154043Y-109263773D01*
X124154044Y-109263774D01*
X124181655Y-109286434D01*
X124238099Y-109332756D01*
X124366063Y-109401154D01*
X124504913Y-109443274D01*
X124613126Y-109453932D01*
X124613135Y-109453932D01*
X124649311Y-109457495D01*
X124685487Y-109453932D01*
X125956701Y-109453932D01*
X125935179Y-109494196D01*
X125893059Y-109633046D01*
X125882953Y-109735655D01*
X125878837Y-109777445D01*
X125882401Y-109813628D01*
X125882401Y-110655186D01*
X125882402Y-110655193D01*
X125882401Y-111332817D01*
X125878837Y-111369001D01*
X125882401Y-111405184D01*
X125882401Y-111405186D01*
X125893059Y-111513399D01*
X125935179Y-111652249D01*
X125992109Y-111758757D01*
X126003577Y-111780213D01*
X126065446Y-111855600D01*
X126095626Y-111892375D01*
X126123733Y-111915442D01*
X126234000Y-112025709D01*
X126234000Y-112100067D01*
X126273044Y-112296356D01*
X126349632Y-112481256D01*
X126460821Y-112647662D01*
X126602338Y-112789179D01*
X126768744Y-112900368D01*
X126953644Y-112976956D01*
X127149933Y-113016000D01*
X127350067Y-113016000D01*
X127546356Y-112976956D01*
X127731256Y-112900368D01*
X127897662Y-112789179D01*
X128039179Y-112647662D01*
X128150368Y-112481256D01*
X128226956Y-112296356D01*
X128266000Y-112100067D01*
X128266000Y-111899933D01*
X128226956Y-111703644D01*
X128150368Y-111518744D01*
X128039179Y-111352338D01*
X127897662Y-111210821D01*
X127731256Y-111099632D01*
X127546356Y-111023044D01*
X127355601Y-110985101D01*
X127355601Y-110655040D01*
X127412075Y-110701387D01*
X127445148Y-110719065D01*
X127462826Y-110752138D01*
X127551506Y-110860194D01*
X127657572Y-110966260D01*
X127765628Y-111054940D01*
X127798702Y-111072618D01*
X127816380Y-111105692D01*
X127905060Y-111213748D01*
X128011126Y-111319814D01*
X128119182Y-111408494D01*
X128152255Y-111426172D01*
X128169933Y-111459245D01*
X128258613Y-111567301D01*
X128364679Y-111673367D01*
X128472735Y-111762047D01*
X128505809Y-111779725D01*
X128523487Y-111812799D01*
X128612167Y-111920855D01*
X128718233Y-112026921D01*
X128795889Y-112090652D01*
X128795889Y-112124274D01*
X128796522Y-112124907D01*
X128729784Y-112131480D01*
X128646312Y-112156801D01*
X128538855Y-112156801D01*
X128474508Y-112236891D01*
X128474427Y-112237049D01*
X128472735Y-112237953D01*
X128364679Y-112326633D01*
X128258613Y-112432699D01*
X128169933Y-112540755D01*
X128152255Y-112573828D01*
X128119182Y-112591506D01*
X128011126Y-112680186D01*
X127905060Y-112786252D01*
X127816380Y-112894308D01*
X127798702Y-112927382D01*
X127765628Y-112945060D01*
X127657572Y-113033740D01*
X127551506Y-113139806D01*
X127462826Y-113247862D01*
X127445148Y-113280935D01*
X127412075Y-113298613D01*
X127304019Y-113387293D01*
X127197953Y-113493359D01*
X127109273Y-113601415D01*
X127091595Y-113634488D01*
X127058522Y-113652166D01*
X126950466Y-113740846D01*
X126844400Y-113846912D01*
X126755720Y-113954968D01*
X126738042Y-113988042D01*
X126704968Y-114005720D01*
X126596912Y-114094400D01*
X126490846Y-114200466D01*
X126402166Y-114308522D01*
X126384488Y-114341595D01*
X126351415Y-114359273D01*
X126243359Y-114447953D01*
X126137293Y-114554019D01*
X126048613Y-114662075D01*
X126030935Y-114695148D01*
X125997862Y-114712826D01*
X125889806Y-114801506D01*
X125783740Y-114907572D01*
X125695060Y-115015628D01*
X125677382Y-115048702D01*
X125644308Y-115066380D01*
X125536252Y-115155060D01*
X125430186Y-115261126D01*
X125341506Y-115369182D01*
X125323828Y-115402255D01*
X125290755Y-115419933D01*
X125182699Y-115508613D01*
X125076633Y-115614679D01*
X124987953Y-115722735D01*
X124970275Y-115755809D01*
X124937201Y-115773487D01*
X124829145Y-115862167D01*
X124750000Y-115941312D01*
X124670855Y-115862167D01*
X124562799Y-115773487D01*
X124529725Y-115755809D01*
X124512047Y-115722735D01*
X124423367Y-115614679D01*
X124317301Y-115508613D01*
X124209245Y-115419933D01*
X124176172Y-115402255D01*
X124158494Y-115369182D01*
X124069814Y-115261126D01*
X123963748Y-115155060D01*
X123855692Y-115066380D01*
X123822618Y-115048702D01*
X123804940Y-115015628D01*
X123716260Y-114907572D01*
X123610194Y-114801506D01*
X123502138Y-114712826D01*
X123469065Y-114695148D01*
X123451387Y-114662075D01*
X123362707Y-114554019D01*
X123256641Y-114447953D01*
X123148585Y-114359273D01*
X123115512Y-114341595D01*
X123097834Y-114308522D01*
X123009154Y-114200466D01*
X122903088Y-114094400D01*
X122795032Y-114005720D01*
X122761958Y-113988042D01*
X122744280Y-113954968D01*
X122655600Y-113846912D01*
X122549534Y-113740846D01*
X122441478Y-113652166D01*
X122408405Y-113634488D01*
X122390727Y-113601415D01*
X122302047Y-113493359D01*
X122195981Y-113387293D01*
X122087925Y-113298613D01*
X122054852Y-113280935D01*
X122037174Y-113247862D01*
X121948494Y-113139806D01*
X121842428Y-113033740D01*
X121734372Y-112945060D01*
X121732680Y-112944156D01*
X121732599Y-112943998D01*
X121668252Y-112863908D01*
X121560795Y-112863908D01*
X121477323Y-112838587D01*
X121440197Y-112834930D01*
X121436540Y-112797804D01*
X121411218Y-112714328D01*
X121411218Y-112606874D01*
X121331128Y-112542527D01*
X121330971Y-112542446D01*
X121330067Y-112540755D01*
X121241387Y-112432699D01*
X121135321Y-112326633D01*
X121027265Y-112237953D01*
X120994191Y-112220275D01*
X120976513Y-112187201D01*
X120887833Y-112079145D01*
X120781767Y-111973079D01*
X120704111Y-111909348D01*
X120704111Y-111875726D01*
X120703478Y-111875093D01*
X120770216Y-111868520D01*
X120853688Y-111843199D01*
X120961145Y-111843199D01*
X121025492Y-111763109D01*
X121025573Y-111762951D01*
X121027265Y-111762047D01*
X121135321Y-111673367D01*
X121241387Y-111567301D01*
X121330067Y-111459245D01*
X121347745Y-111426172D01*
X121380818Y-111408494D01*
X121488874Y-111319814D01*
X121594940Y-111213748D01*
X121683620Y-111105692D01*
X121684524Y-111104000D01*
X121684682Y-111103919D01*
X121764772Y-111039572D01*
X121764772Y-110932115D01*
X121790093Y-110848643D01*
X121793750Y-110811517D01*
X121830876Y-110807860D01*
X121914352Y-110782538D01*
X122021806Y-110782538D01*
X122086153Y-110702448D01*
X122086234Y-110702291D01*
X122087925Y-110701387D01*
X122195981Y-110612707D01*
X122302047Y-110506641D01*
X122390727Y-110398585D01*
X122391631Y-110396894D01*
X122391788Y-110396813D01*
X122471878Y-110332466D01*
X122471878Y-110225012D01*
X122497200Y-110141536D01*
X122500857Y-110104410D01*
X122537983Y-110100753D01*
X122621455Y-110075432D01*
X122728912Y-110075432D01*
X122793259Y-109995342D01*
X122793340Y-109995184D01*
X122795032Y-109994280D01*
X122903088Y-109905600D01*
X123009154Y-109799534D01*
X123097834Y-109691478D01*
X123098738Y-109689787D01*
X123098895Y-109689706D01*
X123178985Y-109625359D01*
X123178985Y-109517905D01*
X123204307Y-109434429D01*
X123207963Y-109397303D01*
X123245089Y-109393647D01*
X123328565Y-109368325D01*
X123436019Y-109368325D01*
X123500366Y-109288235D01*
X123500447Y-109288078D01*
X123502138Y-109287174D01*
X123610194Y-109198494D01*
X123716260Y-109092428D01*
X123804940Y-108984372D01*
X123805844Y-108982680D01*
X123806002Y-108982599D01*
X123843080Y-108952809D01*
X124102871Y-109212601D01*
G36*
X138538644Y-112487277D02*
G01*
X138038553Y-112987368D01*
X138038547Y-112987373D01*
X137723761Y-113302160D01*
X137511976Y-113302160D01*
X137510000Y-113035750D01*
X137351250Y-112877000D01*
X136427000Y-112877000D01*
X136427000Y-112897000D01*
X136173000Y-112897000D01*
X136173000Y-112877000D01*
X136153000Y-112877000D01*
X136153000Y-112623000D01*
X136173000Y-112623000D01*
X136173000Y-112603000D01*
X136427000Y-112603000D01*
X136427000Y-112623000D01*
X137351250Y-112623000D01*
X137489260Y-112484990D01*
X138515427Y-112484990D01*
X138538644Y-112487277D01*
G37*
X138538644Y-112487277D02*
X138038553Y-112987368D01*
X138038547Y-112987373D01*
X137723761Y-113302160D01*
X137511976Y-113302160D01*
X137510000Y-113035750D01*
X137351250Y-112877000D01*
X136427000Y-112877000D01*
X136427000Y-112897000D01*
X136173000Y-112897000D01*
X136173000Y-112877000D01*
X136153000Y-112877000D01*
X136153000Y-112623000D01*
X136173000Y-112623000D01*
X136173000Y-112603000D01*
X136427000Y-112603000D01*
X136427000Y-112623000D01*
X137351250Y-112623000D01*
X137489260Y-112484990D01*
X138515427Y-112484990D01*
X138538644Y-112487277D01*
G36*
X100893748Y-108485858D02*
G01*
X100879605Y-108500000D01*
X101781917Y-109402312D01*
X102038653Y-109315607D01*
X102172048Y-109038777D01*
X102199146Y-108933829D01*
X104528717Y-111263400D01*
X102083422Y-111263400D01*
X102082454Y-111261063D01*
X101911731Y-111005558D01*
X101694442Y-110788269D01*
X101438937Y-110617546D01*
X101155035Y-110499950D01*
X100853647Y-110440000D01*
X100546353Y-110440000D01*
X100244965Y-110499950D01*
X100209999Y-110514433D01*
X100209999Y-109984642D01*
X100458757Y-110048873D01*
X100765562Y-110066176D01*
X101069848Y-110023292D01*
X101359921Y-109921868D01*
X101515607Y-109838653D01*
X101602312Y-109581917D01*
X100700000Y-108679605D01*
X100685858Y-108693748D01*
X100506253Y-108514143D01*
X100520395Y-108500000D01*
X100506253Y-108485858D01*
X100685858Y-108306253D01*
X100700000Y-108320395D01*
X100714143Y-108306253D01*
X100893748Y-108485858D01*
G37*
X100893748Y-108485858D02*
X100879605Y-108500000D01*
X101781917Y-109402312D01*
X102038653Y-109315607D01*
X102172048Y-109038777D01*
X102199146Y-108933829D01*
X104528717Y-111263400D01*
X102083422Y-111263400D01*
X102082454Y-111261063D01*
X101911731Y-111005558D01*
X101694442Y-110788269D01*
X101438937Y-110617546D01*
X101155035Y-110499950D01*
X100853647Y-110440000D01*
X100546353Y-110440000D01*
X100244965Y-110499950D01*
X100209999Y-110514433D01*
X100209999Y-109984642D01*
X100458757Y-110048873D01*
X100765562Y-110066176D01*
X101069848Y-110023292D01*
X101359921Y-109921868D01*
X101515607Y-109838653D01*
X101602312Y-109581917D01*
X100700000Y-108679605D01*
X100685858Y-108693748D01*
X100506253Y-108514143D01*
X100520395Y-108500000D01*
X100506253Y-108485858D01*
X100685858Y-108306253D01*
X100700000Y-108320395D01*
X100714143Y-108306253D01*
X100893748Y-108485858D01*
%TD*%
M02*
