M48
; DRILL file {KiCad (5.1.6)-1} date 05/26/21 21:04:57
; FORMAT={-:-/ absolute / inch / decimal}
; #@! TF.CreationDate,2021-05-26T21:04:57-04:00
; #@! TF.GenerationSoftware,Kicad,Pcbnew,(5.1.6)-1
; #@! TF.FileFunction,Plated,1,2,PTH
FMAT,2
INCH
T1C0.0150
T2C0.0157
T3C0.0197
T4C0.0472
T5C0.1260
%
G90
G05
T1
X3.8681Y-3.9469
X4.2323Y-4.8917
X4.3996Y-4.3701
X4.6358Y-4.5768
X4.813Y-4.3602
X4.813Y-4.4094
X4.813Y-4.4587
X4.8622Y-4.311
X4.8622Y-4.3602
X4.8622Y-4.4094
X4.8622Y-4.4587
X4.8622Y-4.5079
X4.9114Y-4.311
X4.9114Y-4.3602
X4.9114Y-4.4094
X4.9114Y-4.4587
X4.9114Y-4.5079
X4.9606Y-4.3602
X4.9606Y-4.4094
X4.9606Y-4.4587
X4.9606Y-4.5079
X5.0098Y-4.0157
X5.0098Y-4.4094
X5.0098Y-4.4587
X5.0689Y-4.2421
X5.0984Y-4.5642
X5.2394Y-4.4618
X5.4232Y-4.439
X5.5416Y-4.2523
T2
X5.2264Y-4.6161
T3
X5.5059Y-3.6417
X5.5336Y-3.5749
X5.5336Y-3.7085
X5.6004Y-3.5472
X5.6004Y-3.7362
X5.6672Y-3.5749
X5.6672Y-3.7085
X5.6949Y-3.6417
X4.128Y-3.6417
X4.1556Y-3.5749
X4.1556Y-3.7085
X4.2224Y-3.5472
X4.2224Y-3.7362
X4.2893Y-3.5749
X4.2893Y-3.7085
X4.3169Y-3.6417
X4.128Y-4.5276
X4.1556Y-4.4607
X4.1556Y-4.5944
X4.2224Y-4.4331
X4.2224Y-4.622
X4.2893Y-4.4607
X4.2893Y-4.5944
X4.3169Y-4.5276
X5.5059Y-4.5276
X5.5336Y-4.4607
X5.5336Y-4.5944
X5.6004Y-4.4331
X5.6004Y-4.622
X5.6672Y-4.4607
X5.6672Y-4.5944
X5.6949Y-4.5276
T4
X3.9646Y-3.5827
X3.9646Y-3.7205
X3.9646Y-3.8583
X3.9646Y-3.9961
X3.9646Y-4.1339
X3.9646Y-4.2717
X3.9646Y-4.4094
X3.9646Y-4.5472
X4.4291Y-3.689
X4.5669Y-3.689
X4.7047Y-3.689
X4.8425Y-3.689
X4.9803Y-3.689
X5.1181Y-3.689
X5.2559Y-3.689
X5.3937Y-3.689
X5.8583Y-3.5827
X5.8583Y-3.7205
X5.8583Y-3.8583
X5.8583Y-3.9961
X5.8583Y-4.1339
X5.8583Y-4.2717
X5.8583Y-4.4094
X5.8583Y-4.5472
X4.9902Y-4.7953
X5.128Y-4.7953
X5.2657Y-4.7953
X5.4035Y-4.7953
X5.5413Y-4.7953
X5.6791Y-4.7953
X5.8169Y-4.7953
X5.9547Y-4.7953
X3.8681Y-4.7953
X4.0059Y-4.7953
X4.1437Y-4.7953
X4.2815Y-4.7953
X4.4193Y-4.7953
X4.5571Y-4.7953
X4.6949Y-4.7953
X4.8327Y-4.7953
T5
X5.6004Y-3.6417
X4.2224Y-3.6417
X4.2224Y-4.5276
X5.6004Y-4.5276
T0
M30
